
<svg width="41" height="26" viewBox="0 0 41 26" fill="none" xmlns="http://www.w3.org/2000/svg">
    <path d="M25.5913 3.20947H14.6973V23.0396H25.5913V3.20947Z" fill="#7673C0"/>
    <path d="M15.389 13.1246C15.388 11.2149 15.815 9.32972 16.639 7.61192C17.462 5.89412 18.661 4.38869 20.144 3.20959C18.308 1.74721 16.102 0.837772 13.779 0.585219C11.456 0.332666 9.11 0.747199 7.009 1.78143C4.908 2.81565 3.136 4.42784 1.897 6.43373C0.657003 8.43963 0 10.7583 0 13.1247C0 15.4911 0.657003 17.8097 1.897 19.8156C3.136 21.8215 4.908 23.4337 7.009 24.4679C9.11 25.5022 11.456 25.9167 13.779 25.6642C16.102 25.4116 18.308 24.5021 20.144 23.0398C18.661 21.8607 17.462 20.3552 16.639 18.6374C15.815 16.9196 15.388 15.0344 15.389 13.1246Z" fill="#EB001B"/>
    <path d="M40.2885 13.1245C40.2885 15.4909 39.6315 17.8095 38.3925 19.8154C37.1525 21.8213 35.3815 23.4335 33.2805 24.4677C31.1785 25.5019 28.8325 25.9165 26.5105 25.6639C24.1875 25.4114 21.9815 24.502 20.1445 23.0397C21.6265 21.8594 22.8245 20.3537 23.6485 18.6362C24.4725 16.9186 24.9005 15.0341 24.9005 13.1246C24.9005 11.2151 24.4725 9.33053 23.6485 7.61299C22.8245 5.89546 21.6265 4.38976 20.1445 3.20949C21.9815 1.74714 24.1875 0.837739 26.5105 0.585208C28.8325 0.332677 31.1785 0.747219 33.2795 1.78145C35.3815 2.81568 37.1525 4.42786 38.3925 6.43372C39.6315 8.43959 40.2885 10.7582 40.2885 13.1245Z" fill="#00A1DF"/>
</svg>
