
<svg width="41" height="26" viewBox="0 0 41 26" fill="none" xmlns="http://www.w3.org/2000/svg">
	<path d="M40.7254 12.6482C40.7464 15.171 40.0285 17.6436 38.6623 19.7531C37.296 21.8627 35.3429 23.5145 33.0499 24.4997C30.7569 25.4848 28.227 25.7591 25.7801 25.2879C23.3332 24.8166 21.0792 23.621 19.3032 21.8521C17.5271 20.0833 16.3088 17.8206 15.8022 15.3504C15.2957 12.8802 15.5236 10.3132 16.4573 7.97424C17.391 5.63524 18.9884 3.62921 21.0476 2.20984C23.1068 0.790467 25.5353 0.0214904 28.0259 0.000159045H28.132C29.7775 -0.00818504 31.4086 0.31187 32.932 0.942029C34.4554 1.57219 35.8414 2.50012 37.0108 3.67285C38.1802 4.84557 39.1101 6.24012 39.7474 7.77688C40.3848 9.31363 40.717 10.9625 40.7253 12.6293L40.7254 12.6482Z" fill="#F59D1A"/>
	<path d="M25.1863 12.6491C25.2074 15.172 24.4895 17.6446 23.1233 19.7541C21.757 21.8637 19.8039 23.5155 17.5109 24.5006C15.2179 25.4858 12.688 25.7601 10.2411 25.2889C7.79422 24.8176 5.54023 23.622 3.76417 21.8531C1.98812 20.0843 0.769788 17.8217 0.263217 15.3514C-0.243354 12.8812 -0.0154085 10.3143 0.91825 7.97529C1.85191 5.63629 3.44933 3.63025 5.50852 2.21087C7.56771 0.791479 9.99616 0.0224879 12.4868 0.00113561H12.593C14.2385 -0.00720848 15.8695 0.312846 17.393 0.943005C18.9164 1.57316 20.3024 2.5011 21.4718 3.67382C22.6412 4.84655 23.5711 6.2411 24.2084 7.77785C24.8457 9.31461 25.178 10.9635 25.1863 12.6303V12.6491Z" fill="#E7001B"/>
	<path d="M20.3615 2.69775C18.8595 3.87373 17.6435 5.38271 16.8069 7.10885C15.9702 8.83499 15.5352 10.7324 15.5352 12.6553C15.5352 14.5783 15.9702 16.4756 16.8069 18.2018C17.6435 19.9279 18.8595 21.4369 20.3615 22.6129C21.8636 21.437 23.0798 19.928 23.9165 18.2019C24.7532 16.4757 25.1882 14.5783 25.1882 12.6553C25.1882 10.7323 24.7532 8.83491 23.9165 7.10877C23.0798 5.38262 21.8636 3.87367 20.3615 2.69775Z" fill="#FC5F01"/>
</svg>
