<svg width="63" height="19" viewBox="0 0 63 19" fill="none" xmlns="http://www.w3.org/2000/svg">
<path d="M34.9088 2.14297L30.9205 10.83H30.4914V0.257527H24.9004V18.1553H29.6711C30.2875 18.1527 30.89 17.9705 31.407 17.6305C31.9239 17.2905 32.3334 16.807 32.5864 16.2377L36.5431 7.5507H36.947V18.1487H42.5695V0.250977H37.7989C37.1825 0.253557 36.5799 0.435727 36.063 0.775747C35.546 1.11577 35.1366 1.59928 34.8835 2.16857" fill="#24A84D"/>
<path d="M13.7885 2.58322L11.4473 10.829H11.0435L8.7022 2.58322C8.5093 1.90519 8.1039 1.30909 7.5473 0.884787C6.9907 0.460497 6.3129 0.231017 5.6163 0.230957H0V18.1287H5.6226V7.5754H6.0264L9.2384 18.1543H13.2519L16.4639 7.5754H16.8677V18.1479H22.4899V0.250107H16.8736C16.1794 0.249007 15.5036 0.475747 14.9473 0.896347C14.3911 1.31696 13.9843 1.90879 13.7879 2.58322" fill="#24A84D"/>
<path d="M45.0059 8.3877V18.1483H50.6149V12.4595H56.6479C57.8939 12.4602 59.1089 12.0696 60.1259 11.3415C61.1429 10.6134 61.9119 9.5836 62.3269 8.3941L45.0059 8.3877Z" fill="#24A84D"/>
<path d="M56.6238 0.257324H44.1738C44.5498 2.31235 45.6238 4.16931 47.2098 5.50614C48.7958 6.843 50.7938 7.5753 52.8568 7.5762H62.5248C62.6148 7.1753 62.6658 6.7664 62.6758 6.3554C62.6748 4.73857 62.0398 3.18847 60.9108 2.04523C59.7818 0.901984 58.2518 0.258984 56.6558 0.257324" fill="url(#paint0_linear)"/>
<defs>
<linearGradient id="paint0_linear" x1="44.1738" y1="3.91676" x2="62.6448" y2="3.91676" gradientUnits="userSpaceOnUse">
<stop offset="0.01" stop-color="#0FA5E1"/>
<stop offset="0.35" stop-color="#0C9CDA"/>
<stop offset="0.91" stop-color="#0483C6"/>
<stop offset="1" stop-color="#037EC2"/>
</linearGradient>
</defs>
</svg>
