<?xml version="1.0" encoding="utf-8"?>
<!-- Generator: Adobe Illustrator 24.2.3, SVG Export Plug-In . SVG Version: 6.00 Build 0)  -->
<svg version="1.1" id="Слой_1" xmlns="http://www.w3.org/2000/svg" xmlns:xlink="http://www.w3.org/1999/xlink" x="0px" y="0px"
	 viewBox="0 0 239 50" style="enable-background:new 0 0 239 50;" xml:space="preserve">
<style type="text/css">
	.st0{fill:#1CA6BA;}
</style>
<path class="st0" d="M165,20.8c0,2.4,0,4.7,0,7.3c0,0.7,0.3,0.8,0.8,0.8c1.6,0,1.6,0,1.6,1.6c0,1.8,0,3.6,0,5.4
	c0,0.5-0.1,0.7-0.7,0.7c-1.1,0-2.1,0-3.2,0c-0.4,0-0.5-0.1-0.5-0.5c0-0.8,0-1.6,0-2.4c0-0.4-0.1-0.4-0.4-0.4c-4,0-7.9,0-11.9,0
	c-0.4,0-0.5,0.1-0.5,0.5c0,0.8,0,1.6,0,2.4c0,0.3,0,0.5-0.4,0.4c-1.1,0-2.2,0-3.3,0c-0.4,0-0.4-0.1-0.4-0.4c0-2.2,0-4.5,0-6.7
	c0-0.3,0.1-0.4,0.4-0.4c0,0,0.1,0,0.3,0c1.7,0,1.6,0,2.1-1.6c0.8-2.5,1.2-5.3,1.3-7.9c0.1-2,0.1-3.8,0.1-5.8c0-0.4,0.1-0.5,0.5-0.5
	c4.5,0,9,0,13.5,0c0.5,0,0.5,0.1,0.5,0.7C165,16,165,18.4,165,20.8z M160.5,22.9c0-1.7,0-3.4,0-5.3c0-0.4-0.1-0.5-0.5-0.5
	c-1.6,0-3.2,0-4.8,0c-0.4,0-0.5,0.1-0.5,0.5c0,1.1-0.1,2.1-0.1,3.2c-0.1,2.5-0.5,5-1.3,7.4c-0.1,0.5-0.1,0.7,0.4,0.7
	c2.1,0,4.1,0,6.2,0c0.5,0,0.7-0.1,0.7-0.7C160.3,26.5,160.5,24.6,160.5,22.9z"/>
<path class="st0" d="M65.9,22.9c0-3.2,0-6.2,0-9.4c0-0.5,0.1-0.7,0.7-0.7c3.2,0,6.2,0,9.4,0c1.2,0,2.2,0.3,3.4,0.8
	c2.2,0.9,2.9,3.3,2.5,5.3c-0.1,1.2-0.7,2.2-1.5,3c-0.3,0.3-0.1,0.4,0.1,0.5c2.5,1.3,2.6,5.8,1.1,7.8c-1.1,1.5-2.6,2-4.4,2.4
	c-0.9,0.3-2,0.3-2.9,0.3c-2.5,0-5,0-7.5,0c-0.9,0-0.8,0.1-0.8-0.9C65.9,29.1,65.9,26.1,65.9,22.9z M73.4,24.9c-0.9,0-1.7,0-2.5,0
	c-0.4,0-0.5,0.1-0.5,0.4c0,1.1,0,2,0,3c0,0.3,0.1,0.5,0.4,0.5c1.7,0,3.4,0.1,5.2-0.1c1.1-0.1,1.7-0.8,1.7-1.6
	c0.1-1.2-0.3-1.7-1.5-2.1C75.3,24.7,74.2,24.9,73.4,24.9z M73.2,20.8c0.8-0.1,1.7,0.1,2.8-0.1c0.9-0.3,1.5-0.9,1.3-1.6
	c-0.1-0.9-0.7-1.5-1.6-1.7c-1.6-0.3-3.2-0.1-4.8-0.1c-0.4,0-0.5,0.1-0.5,0.5c0,0.9,0,1.7,0,2.6c0,0.4,0.1,0.5,0.5,0.5
	C71.6,20.7,72.2,20.8,73.2,20.8z"/>
<path class="st0" d="M107.6,22.9c0-3.2,0-6.2,0-9.4c0-0.5,0.1-0.7,0.7-0.7c4.6,0,9.2,0,13.9,0c0.5,0,0.7,0.1,0.7,0.7c0,1.1,0,2,0,3
	c0,0.4-0.1,0.5-0.5,0.5c-3.2,0-6.2,0-9.4,0c-0.5,0-0.8,0.1-0.8,0.8c0,0.5,0,1.2,0,1.7c0,0.5,0.1,0.8,0.8,0.8c1.6,0,3.3,0,4.9,0
	c1.2,0,2.4,0.3,3.4,0.8c0.9,0.5,1.7,1.2,2.2,2.1c1.1,2.2,1.1,4.5-0.1,6.6c-0.8,1.6-2.4,2.2-4,2.6c-1.5,0.4-3,0.4-4.6,0.4
	c-2.1,0-4.2,0-6.5,0c-0.5,0-0.7-0.1-0.7-0.7C107.6,29.2,107.6,26.1,107.6,22.9z M114.9,24.6c-0.8,0-1.6,0-2.2,0
	c-0.3,0-0.5,0-0.5,0.4c0,1.2,0,2.4,0,3.6c0,0.3,0.1,0.4,0.4,0.4c1.7,0,3.4,0.1,5-0.1c1.2-0.3,1.8-1.1,1.8-2.1c0-1.1-0.7-1.7-2.1-2
	C116.4,24.6,115.7,24.6,114.9,24.6z"/>
<path class="st0" d="M136,12.6c5.7-0.3,10.4,4.5,10.3,10.4c0,5.8-4.8,10.4-10.6,10.3c-5.7-0.1-10.2-4.6-10.2-10.4
	C125.6,17.1,130.5,12.3,136,12.6z M141.7,23c0-1.6-0.4-3-1.5-4.2c-2-2.2-5.3-2.6-7.7-0.7c-2.2,1.8-2.5,4.2-2,6.7
	c0.8,3.3,5,5,8.1,3.3C140.8,27.1,141.6,25.3,141.7,23z"/>
<path class="st0" d="M94.7,12.6c5.5-0.1,10.3,4.2,10.3,10.4c0,6.1-4.9,10.6-10.7,10.4c-5.7-0.1-10-4.6-10-10.4
	C84.3,17.1,89.1,12.3,94.7,12.6z M89,22.9c0,1.7,0.4,2.9,1.5,4.1c1.8,2.2,5.5,2.5,7.7,0.7c2.2-2,2.8-5.4,1.2-8
	c-1.6-2.4-4.6-3.6-7.4-2C89.9,18.8,89,20.7,89,22.9z"/>
<path class="st0" d="M187.2,33.1c-0.7,0-1.2,0-1.8,0c-0.4,0-0.5-0.1-0.7-0.4c-0.4-0.9-0.8-1.7-1.2-2.6c-0.1-0.4-0.4-0.7-0.9-0.7
	c-2.4,0-4.8,0-7.1,0c-0.4,0-0.7,0.1-0.8,0.5c-0.4,0.9-0.8,1.7-1.2,2.6c-0.1,0.4-0.4,0.5-0.8,0.5c-1.1,0-2.2,0-3.3,0
	c-0.8,0-0.8,0-0.5-0.8c1.3-2.9,2.5-5.8,3.8-8.7c1.5-3.3,2.9-6.7,4.4-10.2c0.1-0.4,0.4-0.5,0.8-0.5c0.7,0,1.5,0,2.2,0
	c0.5,0,0.7,0.1,0.9,0.5c1.8,4.1,3.6,8.2,5.4,12.3c0.9,2.1,1.8,4.4,2.9,6.5c0.3,0.5,0.3,0.9-0.4,0.9
	C188.2,33.1,187.8,33.1,187.2,33.1z M179.1,25.5c0.7,0,1.3,0,2,0c0.4,0,0.5,0,0.4-0.5c-0.7-1.6-1.3-3.2-2.1-4.7c0-0.1,0-0.3-0.3-0.3
	c-0.1,0-0.1,0.1-0.3,0.3c-0.7,1.6-1.5,3.2-2.1,4.9c-0.1,0.3,0,0.4,0.3,0.4C177.8,25.5,178.4,25.5,179.1,25.5z"/>
<path class="st0" d="M55.5,33.3c-3.3,0-6.1-0.9-8.1-3.3c-1.5-1.6-2.1-3.6-2.2-5.7c-0.1-2.1,0-4.1,0.9-6.1c1.5-3,4-5,7.4-5.5
	c2.6-0.4,5.3-0.1,7.7,1.2c0.9,0.5,1.6,1.2,2.2,2c0.1,0.4,0.1,0.7-0.3,0.9c-0.8,0.7-1.5,1.3-2.2,2.1c-0.4,0.3-0.5,0.3-0.8,0
	c-2-2.1-5-2.5-7.5-1.2c-1.6,0.9-2.5,2.4-2.8,4.1c-0.1,1.3-0.1,2.8,0.5,4c1.2,2.2,3.8,3.4,6.3,3c1.6-0.3,3-0.9,4.1-2.2
	c0.3-0.3,0.5-0.3,0.8,0c0.7,0.7,1.3,1.5,2,2.1c0.3,0.3,0.3,0.5,0,0.8c-1.6,2-3.6,3-6.1,3.6C56.8,33.3,56,33.5,55.5,33.3z"/>
</svg>
