<svg width="59" height="20" viewBox="0 0 59 20" fill="none" xmlns="http://www.w3.org/2000/svg">
<path d="M22.043 0.787212L14.335 19.2799H9.33099L5.67999 4.62273C5.53499 3.9571 5.14901 3.37067 4.59801 2.97897C3.13001 2.29245 1.587 1.78656 0 1.47213L0.136002 0.924243H8.25C8.753 0.942193 9.23601 1.12579 9.62601 1.44717C10.017 1.76854 10.293 2.21015 10.413 2.70502L12.442 13.3897L17.31 0.787742L22.043 0.787212ZM41.517 13.3892C41.517 8.4578 34.89 8.1833 34.89 5.99211C34.89 5.30709 35.566 4.6222 36.919 4.48528C38.496 4.34416 40.082 4.62765 41.517 5.30709L42.328 1.33468C40.903 0.785923 39.39 0.507472 37.865 0.513272C33.132 0.513272 29.886 3.1162 29.886 6.67756C29.886 9.4172 32.32 10.787 34.079 11.7458C35.837 12.7047 36.648 13.2527 36.648 13.9376C36.648 15.1705 35.161 15.7184 33.809 15.7184C32.128 15.6978 30.471 15.3247 28.94 14.6225L27.994 18.595C29.674 19.2554 31.465 19.5809 33.268 19.5539C38.271 19.6909 41.517 17.0885 41.517 13.3897V13.3892ZM53.958 19.417H58.286L54.364 0.924243H50.307C49.878 0.944723 49.463 1.08302 49.105 1.32432C48.748 1.56562 48.462 1.90083 48.279 2.29405L41.247 19.5539H46.25L47.197 16.8143H53.282L53.958 19.417ZM48.684 12.8417L51.254 5.99264L52.606 12.8417H48.684ZM28.67 0.787212L24.748 19.2799H20.014L23.936 0.787212H28.67Z" fill="#1976D2"/>
</svg>
