
<svg width="120" height="48" viewBox="0 0 120 48" fill="none" xmlns="http://www.w3.org/2000/svg">
	<g clip-path="url(#clip0_3_12971)">
		<mask id="mask0_3_12971" style="mask-type:alpha" maskUnits="userSpaceOnUse" x="0" y="0" width="49" height="48">
			<ellipse cx="24.0735" cy="24.0005" rx="23.9785" ry="23.9531" fill="#C4C4C4"/>
		</mask>
		<g mask="url(#mask0_3_12971)">
			<rect x="0.0950317" width="48.0509" height="48" fill="#FC3F1D"/>
			<path d="M27.1987 13.5984H24.9788C20.9091 13.5984 18.7685 15.6575 18.7685 18.6934C18.7685 22.1253 20.2484 23.7356 23.2875 25.7948L25.7981 27.4843L18.5835 38.2551H13.1924L19.667 28.6195C15.9408 25.9532 13.8531 23.3661 13.8531 18.9838C13.8531 13.4928 17.685 9.74414 24.9524 9.74414H32.167V38.2287H27.1987V13.5984Z" fill="white"/>
		</g>
	</g>
	<path d="M60.5232 9.36499V37.999H65.5137V27.7814H67.9471C74.4636 27.7814 78.6292 24.7738 78.6292 18.429C78.6292 12.661 74.7523 9.36499 67.9883 9.36499H60.5232ZM67.9883 23.9086H65.5137V13.2378H68.1533C71.659 13.2378 73.5562 14.8446 73.5562 18.429C73.5562 22.1782 71.4528 23.9086 67.9883 23.9086Z" fill="white"/>
	<path d="M99.8738 37.999L92.3262 9.36499H86.016L78.4271 37.999H82.7165L84.325 31.7366H93.1099L94.6771 37.999H99.8738ZM85.3148 27.8638L88.738 14.5974L92.12 27.8638H85.3148Z" fill="white"/>
	<path d="M119.999 9.36499H115.339L109.441 21.313L103.584 9.36499H98.2225L106.636 25.7626V37.999H111.627V25.7626L119.999 9.36499Z" fill="white"/>
	<defs>
		<clipPath id="clip0_3_12971">
			<rect width="48.0509" height="48" fill="white"/>
		</clipPath>
	</defs>
</svg>
