<?xml version="1.0" standalone="no"?>
  <!DOCTYPE svg PUBLIC "-//W3C//DTD SVG 1.1//EN" "http://www.w3.org/Graphics/SVG/1.1/DTD/svg11.dtd" >
  <svg>
  <metadata>
  Created by font-carrier
  </metadata>
  <defs>
  <font id="MyriadPro-BoldCondIt" horiz-adv-x="1000" vert-adv-y="1000" >
    <font-face
      
      font-family="Myriad Pro Cond"
      
      font-weight="400"
      
      font-stretch="normal"
      
      units-per-em="1000"
      
      ascent="750"
      
      descent="-250"
      
    />
      <missing-glyph />

      

      
      <glyph glyph-name="uni21" unicode="&#x21;" d="M167 219L58 219L130 674L271 674L167 219M80-8L79-8Q47-8 28.50 13.50Q10 35 10 68Q10 99 34 126.50Q58 154 88 154Q122 154 141 133Q160 112 160 80Q160 42 136 17Q112-8 80-8Z"  horiz-adv-x="236" vert-adv-y="1000"  />

      
      <glyph glyph-name="uni22" unicode="&#x22;" d="M108 684L212 684L150 424L79 424L108 684M269 684L373 684L310 424L240 424L269 684Z"  horiz-adv-x="316" vert-adv-y="1000"  />

      
      <glyph glyph-name="uni23" unicode="&#x23;" d="M175 266L247 266L284 389L212 389L175 266M92 0L21 0L82 197L10 197L24 266L104 266L142 389L66 389L80 458L163 458L223 650L293 650L234 458L306 458L365 650L436 650L376 458L448 458L434 389L354 389L318 266L394 266L380 197L296 197L235 0L163 0L225 197L154 197L92 0Z"  horiz-adv-x="429" vert-adv-y="1000"  />

      
      <glyph glyph-name="uni24" unicode="&#x24;" d="M175-85L101-85L121 17Q65 20 25 41L55 136Q103 113 146 113Q190 113 213.50 136.50Q237 160 237 194Q237 225 224.50 246.50Q212 268 183 293Q96 367 96 453Q96 513 135.50 564Q175 615 251 629L268 725L342 725L325 633Q375 631 406 610L373 518Q337 537 299 537Q264 537 241 516Q218 495 218 464Q218 439 230.50 417.50Q243 396 280 367Q356 306 356 216Q356 135 311 82Q266 29 194 20L175-85Z"  horiz-adv-x="429" vert-adv-y="1000"  />

      
      <glyph glyph-name="uni25" unicode="&#x25;" d="M217 658L218 658Q276 658 301 620Q326 582 326 529Q326 418 277 339Q228 260 158 260Q105 260 75.50 296.50Q46 333 46 396Q46 495 95 576.50Q144 658 217 658M211 590L210 590Q174 590 153 515.50Q132 441 132 385Q132 328 162 328Q188 328 207 375.50Q226 423 233 469Q240 515 240 540Q240 590 211 590M144-10L74-10L549 659L618 659L144-10M543 393L544 393Q602 393 627 355Q652 317 652 264Q652 153 603 74Q554-5 484-5Q431-5 401.50 31.50Q372 68 372 131Q372 230 421 311.50Q470 393 543 393M537 325L536 325Q500 325 479 250.50Q458 176 458 120Q458 63 488 63Q514 63 533 110.50Q552 158 559 204Q566 250 566 276Q566 325 537 325Z"  horiz-adv-x="670" vert-adv-y="1000"  />

      
      <glyph glyph-name="uni26" unicode="&#x26;" d="M474 0L343 0Q327 24 318 42Q251-8 168-8Q91-8 47.50 38.50Q4 85 4 151Q4 285 155 368L155 370Q124 433 124 491Q123 576 177.50 629Q232 682 308 682Q381 682 415 641.50Q449 601 449 547Q449 431 291 344L291 339Q299 325 326.50 270Q354 215 366 195Q400 249 428 359L531 359Q495 209 406 116Q423 84 474 0M200 84L201 84Q248 84 279 117Q230 201 191 290Q125 245 125 171Q125 133 146.50 108.50Q168 84 200 84M300 601L299 601Q272 601 254.50 571Q237 541 237 500Q237 458 256 418Q340 472 340 549Q340 601 300 601Z"  horiz-adv-x="526" vert-adv-y="1000"  />

      
      <glyph glyph-name="uni27" unicode="&#x27;" d="M108 684L212 684L150 424L79 424L108 684Z"  horiz-adv-x="155" vert-adv-y="1000"  />

      
      <glyph glyph-name="uni28" unicode="&#x28;" d="M250 692L347 692Q263 605 204 463Q145 321 145 158Q145-15 190-120L101-120Q45-7 45 158Q45 327 107.50 468.50Q170 610 250 692Z"  horiz-adv-x="258" vert-adv-y="1000"  />

      
      <glyph glyph-name="uni29" unicode="&#x29;" d="M24-120L-78-120Q5-28 64.50 113.50Q124 255 124 418Q124 505 115.50 568Q107 631 79 692L172 692Q224 584 224 418Q224 249 163 107.50Q102-34 24-120Z"  horiz-adv-x="258" vert-adv-y="1000"  />

      
      <glyph glyph-name="uni2a" unicode="&#x2a;" d="M303 682L388 634L277 518L278 516L419 546L402 445L270 476L268 473L360 358L268 313L228 457L225 454L164 310L85 364L197 478L195 479L55 445L72 546L200 516L203 519L114 636L206 681L244 540L247 540L303 682Z"  horiz-adv-x="377" vert-adv-y="1000"  />

      
      <glyph glyph-name="uni2b" unicode="&#x2b;" d="M261 532L345 532L345 308L561 308L561 226L345 226L345 0L261 0L261 226L45 226L45 308L261 308L261 532Z"  horiz-adv-x="596" vert-adv-y="1000"  />

      
      <glyph glyph-name="uni2c" unicode="&#x2c;" d="M28-116L-64-125Q20 33 54 141L188 151Q112-12 28-116Z"  horiz-adv-x="225" vert-adv-y="1000"  />

      
      <glyph glyph-name="uni2d" unicode="&#x2d;" d="M46 323L245 323L227 229L28 229L46 323Z"  horiz-adv-x="259" vert-adv-y="1000"  />

      
      <glyph glyph-name="uniad" unicode="&#xad;" d="M46 323L245 323L227 229L28 229L46 323Z"  horiz-adv-x="259" vert-adv-y="1000"  />

      
      <glyph glyph-name="uni2e" unicode="&#x2e;" d="M87-8L86-8Q52-8 33.50 14.50Q15 37 15 73Q15 109 39 137.50Q63 166 95 166Q131 166 150.50 144Q170 122 170 86Q170 44 145.50 18Q121-8 87-8Z"  horiz-adv-x="225" vert-adv-y="1000"  />

      
      <glyph glyph-name="uni2f" unicode="&#x2f;" d="M13-40L-79-40L293 682L385 682L13-40Z"  horiz-adv-x="280" vert-adv-y="1000"  />

      
      <glyph glyph-name="uni30" unicode="&#x30;" d="M178-8L177-8Q135-8 105 10Q75 28 60.50 59.50Q46 91 39.50 123Q33 155 33 193Q33 307 62 411Q91 515 150.50 586.50Q210 658 288 658Q433 658 433 461Q433 386 418.50 307.50Q404 229 375 156.50Q346 84 294.50 38Q243-8 178-8M194 98L195 98Q230 98 259 181Q288 264 300.50 349Q313 434 313 480Q313 552 277 552Q240 552 210 474.50Q180 397 167 315Q154 233 154 183Q154 98 194 98Z"  horiz-adv-x="429" vert-adv-y="1000"  />

      
      <glyph glyph-name="uni31" unicode="&#x31;" d="M129 0L230 530L228 530L118 477L116 577L267 650L376 650L252 0L129 0Z"  horiz-adv-x="429" vert-adv-y="1000"  />

      
      <glyph glyph-name="uni32" unicode="&#x32;" d="M335 0L-8 0L7 88L80 169Q197 297 232 350Q283 425 283 478Q283 553 209 553Q165 553 123 528L110 623Q176 658 248 658Q295 658 328 643.50Q361 629 377.50 604Q394 579 400.50 555Q407 531 407 504Q407 456 391.50 411Q376 366 341.50 318Q307 270 284.50 244Q262 218 215 169Q204 158 199 152L162 113L163 111L355 111L335 0Z"  horiz-adv-x="429" vert-adv-y="1000"  />

      
      <glyph glyph-name="uni33" unicode="&#x33;" d="M6 12L38 117Q79 101 117 101Q169 101 201 130.50Q233 160 233 207Q233 253 205 275Q177 297 135 297L118 297L135 395L148 395Q190 395 227.50 418.50Q265 442 265 488Q265 516 247 532Q229 548 195 548Q159 548 125 532L126 635Q174 658 239 658Q321 658 358.50 616.50Q396 575 396 518Q396 459 361.50 414.50Q327 370 278 351L277 349Q316 333 337.50 296Q359 259 359 212Q359 116 292 54Q225-8 119-8Q44-8 6 12Z"  horiz-adv-x="429" vert-adv-y="1000"  />

      
      <glyph glyph-name="uni34" unicode="&#x34;" d="M299 0L191 0L222 159L9 159L24 246L303 650L423 650L349 257L414 257L396 159L330 159L299 0M133 257L240 257L265 380Q273 419 296 507L292 507Q286 497 261.50 455.50Q237 414 224 394L134 259L133 257Z"  horiz-adv-x="429" vert-adv-y="1000"  />

      
      <glyph glyph-name="uni35" unicode="&#x35;" d="M428 650L405 539L252 539L219 418L224 418Q241 418 273 405Q305 392 326 367Q365 322 365 246Q365 138 291.50 65Q218-8 107-8Q36-8 8 10L39 115Q71 100 111 100Q166 100 204 135Q242 170 242 225Q242 277 211 300.50Q180 324 129 324Q103 324 87 322L171 650L428 650Z"  horiz-adv-x="429" vert-adv-y="1000"  />

      
      <glyph glyph-name="uni36" unicode="&#x36;" d="M415 658L397 551Q382 551 362 546Q239 518 184 378L187 378Q227 424 284 424Q345 423 373 378Q401 333 401 276Q401 162 340 77Q279-8 185-8Q103-8 66.50 50Q30 108 30 192Q30 309 76.50 408Q123 507 186 563Q269 640 379 655Q396 658 415 658M193 83L194 83Q235 83 256 143Q277 203 277 268Q277 333 231 333Q212 333 192.50 315.50Q173 298 160 271Q156 257 155 250Q147 208 147 165Q147 83 193 83Z"  horiz-adv-x="429" vert-adv-y="1000"  />

      
      <glyph glyph-name="uni37" unicode="&#x37;" d="M114 650L453 650L436 564Q315 332 140 0L14 0Q148 246 304 537L304 539L94 539L114 650Z"  horiz-adv-x="429" vert-adv-y="1000"  />

      
      <glyph glyph-name="uni38" unicode="&#x38;" d="M278 658L279 658Q353 658 393 617Q433 576 433 512Q433 408 320 345L320 342Q392 282 392 196Q392 106 329 49Q266-8 185-8Q104-8 58.50 36Q13 80 13 152Q13 271 142 348L142 350Q86 403 86 474Q86 552 142.50 605Q199 658 278 658M189 75L190 75Q224 75 247 108.50Q270 142 270 191Q270 261 212 297Q181 277 158 240.50Q135 204 135 159Q135 75 189 75M271 576L270 576Q243 576 222.50 546.50Q202 517 202 476Q202 424 248 389Q318 432 318 513Q318 576 271 576Z"  horiz-adv-x="429" vert-adv-y="1000"  />

      
      <glyph glyph-name="uni39" unicode="&#x39;" d="M44-8L62 101Q88 101 112 106Q150 114 191 145Q248 191 281 272L278 272Q242 236 187 236Q127 236 95.50 280Q64 324 64 386Q64 491 127.50 574.50Q191 658 281 658Q325 658 357 641.50Q389 625 405 596.50Q421 568 427.50 538.50Q434 509 434 476Q432 347 384 242.50Q336 138 272 79Q199 11 97-5Q81-8 44-8M273 567L272 567Q234 567 211 511Q188 455 188 398Q188 323 234 323Q252 323 268.50 336Q285 349 293 364Q299 374 308 419Q315 448 315 494Q315 567 273 567Z"  horiz-adv-x="429" vert-adv-y="1000"  />

      
      <glyph glyph-name="uni3a" unicode="&#x3a;" d="M150 320L149 320Q117 320 98.50 342Q80 364 80 397Q80 430 104 458Q128 486 158 486Q192 486 211 464.50Q230 443 230 410Q230 371 206 345.50Q182 320 150 320M87-8L86-8Q54-8 35.50 14Q17 36 17 69Q17 102 41 130Q65 158 95 158Q129 158 148 136.50Q167 115 167 82Q167 43 143 17.50Q119-8 87-8Z"  horiz-adv-x="225" vert-adv-y="1000"  />

      
      <glyph glyph-name="uni3b" unicode="&#x3b;" d="M26-116L-62-125Q22 33 56 141L185 151Q112-9 26-116M152 320L151 320Q119 320 100.50 342Q82 364 82 397Q82 430 106 458Q130 486 160 486Q194 486 213 464.50Q232 443 232 410Q232 371 208 345.50Q184 320 152 320Z"  horiz-adv-x="225" vert-adv-y="1000"  />

      
      <glyph glyph-name="uni3c" unicode="&#x3c;" d="M63 235L63 297L543 532L543 430L191 266L191 264L543 101L543 0L63 235Z"  horiz-adv-x="596" vert-adv-y="1000"  />

      
      <glyph glyph-name="uni3d" unicode="&#x3d;" d="M570 320L54 320L54 402L570 402L570 320M570 133L54 133L54 215L570 215L570 133Z"  horiz-adv-x="596" vert-adv-y="1000"  />

      
      <glyph glyph-name="uni3e" unicode="&#x3e;" d="M554 310L554 222L73 0L73 99L457 265L457 267L73 433L73 532L554 310Z"  horiz-adv-x="596" vert-adv-y="1000"  />

      
      <glyph glyph-name="uni3f" unicode="&#x3f;" d="M196 211L84 211Q86 223 86 229Q93 308 169 401Q191 428 201 442Q211 456 221.50 479Q232 502 232 523Q232 577 176 577Q135 577 106 558L103 658Q153 686 219 686Q264 686 295.50 672.50Q327 659 341 637.50Q355 616 360.50 596Q366 576 366 555Q366 517 346.50 474Q327 431 312 411Q297 391 267 355Q212 287 201 232Q200 225 196 211M109-8L108-8Q78-8 60 14Q42 36 42 68Q42 99 66 126.50Q90 154 119 154Q154 154 173 133Q192 112 192 80Q192 42 167.50 17Q143-8 109-8Z"  horiz-adv-x="325" vert-adv-y="1000"  />

      
      <glyph glyph-name="uni40" unicode="&#x40;" d="M351 232L374 362Q366 367 348 367Q312 367 280.50 315Q249 263 249 190Q249 134 284 134Q306 134 325.50 164Q345 194 351 232M430-17L445-59Q374-99 286-99Q183-99 109-19.50Q35 60 35 201Q35 302 74.50 391Q114 480 189 536.50Q264 593 358 593Q472 593 533.50 518Q595 443 595 334Q595 206 553 135.50Q511 65 437 65Q363 65 363 150L360 150Q343 110 313.50 87.50Q284 65 251 65Q211 65 188 97.50Q165 130 165 185Q165 284 221.50 356Q278 428 372 428Q426 428 464 407L430 223Q413 120 459 120Q492 120 516.50 173Q541 226 541 320Q541 422 492.50 485Q444 548 347 548Q244 548 166.50 450Q89 352 89 201Q89 78 147.50 12.50Q206-53 300-53Q368-53 430-17Z"  horiz-adv-x="616" vert-adv-y="1000"  />

      
      <glyph glyph-name="uni41" unicode="&#x41;" d="M270 156L144 156L86 0L-36 0L237 674L382 674L389 0L268 0L270 156M174 248L273 248L276 397Q282 527 283 560L281 560Q237 420 229 398L174 248Z"  horiz-adv-x="445" vert-adv-y="1000"  />

      
      <glyph glyph-name="uni42" unicode="&#x42;" d="M15 6L140 665Q200 677 270 677Q374 677 422 630Q463 592 463 523Q463 463 426 416Q389 369 334 352L334 348Q381 333 402.50 293Q424 253 424 204Q424 115 352 57Q279-3 140-3Q60-3 15 6M243 582L210 402L228 402Q281 402 311.50 432Q342 462 342 512Q342 542 326.50 563.50Q311 585 277 585Q252 585 243 582M192 310L151 97Q159 95 182 95Q235 95 267.50 129Q300 163 300 217Q300 260 278 285Q256 310 214 310L192 310Z"  horiz-adv-x="467" vert-adv-y="1000"  />

      
      <glyph glyph-name="uni43" unicode="&#x43;" d="M330 118L326 7Q290-6 233-6Q173-6 131.50 18Q90 42 71 81Q52 120 45 154Q38 188 38 224Q38 465 166 595Q248 680 367 680Q424 680 443 666L408 556Q386 566 350 566Q294 566 249 510Q171 412 171 252Q171 107 262 107Q305 107 330 118Z"  horiz-adv-x="384" vert-adv-y="1000"  />

      
      <glyph glyph-name="uni44" unicode="&#x44;" d="M16 10L140 665Q208 677 269 677Q380 677 436 608Q485 546 485 433Q485 313 441 210Q397 107 340 61Q263-3 137-3Q61-3 16 10M245 574L154 106Q181 103 187 103Q219 103 251 127.50Q283 152 304 196Q357 305 357 445Q357 501 337 538.50Q317 576 273 576Q251 576 245 574Z"  horiz-adv-x="481" vert-adv-y="1000"  />

      
      <glyph glyph-name="uni45" unicode="&#x45;" d="M365 403L345 298L196 298L159 111L330 111L308 0L14 0L143 674L425 674L403 564L248 564L215 403L365 403Z"  horiz-adv-x="387" vert-adv-y="1000"  />

      
      <glyph glyph-name="uni46" unicode="&#x46;" d="M14 0L143 674L425 674L403 564L248 564L212 385L360 385L340 280L194 280L140 0L14 0Z"  horiz-adv-x="385" vert-adv-y="1000"  />

      
      <glyph glyph-name="uni47" unicode="&#x47;" d="M452 374L385 19Q319-6 252-6Q143-6 89 64Q39 126 39 232Q39 336 72.50 430Q106 524 166 588Q253 680 384 680Q442 680 491 663L452 552Q422 566 378 566Q311 566 266 521Q223 478 196.50 401.50Q170 325 170 234Q170 102 251 102Q272 102 287 106L318 273L258 273L278 374L452 374Z"  horiz-adv-x="469" vert-adv-y="1000"  />

      
      <glyph glyph-name="uni48" unicode="&#x48;" d="M143 674L268 674L215 400L352 400L404 674L529 674L400 0L275 0L328 286L193 286L139 0L14 0L143 674Z"  horiz-adv-x="506" vert-adv-y="1000"  />

      
      <glyph glyph-name="uni49" unicode="&#x49;" d="M143 674L268 674L139 0L14 0L143 674Z"  horiz-adv-x="245" vert-adv-y="1000"  />

      
      <glyph glyph-name="uni4a" unicode="&#x4a;" d="M102 196L194 674L319 674L229 201Q206 84 156.50 38Q107-8 19-8Q-19-8-42-1L-22 110Q-2 106 25 106Q85 106 102 196Z"  horiz-adv-x="286" vert-adv-y="1000"  />

      
      <glyph glyph-name="uni4b" unicode="&#x4b;" d="M14 0L143 674L264 674L204 358L207 358Q219 383 263 459L389 674L525 674L321 376L398 0L267 0L224 286L180 225L136 0L14 0Z"  horiz-adv-x="443" vert-adv-y="1000"  />

      
      <glyph glyph-name="uni4c" unicode="&#x4c;" d="M14 0L142 674L268 674L159 109L324 109L303 0L14 0Z"  horiz-adv-x="351" vert-adv-y="1000"  />

      
      <glyph glyph-name="uni4d" unicode="&#x4d;" d="M539 0L430 0L466 264Q475 327 503 480L498 480Q462 367 419 268L309 11L219 11L208 270Q203 387 205 480L203 480Q181 368 157 263L95 0L-13 0L158 674L290 674L303 354Q306 224 304 185L307 185Q322 242 366 354L495 674L627 674L539 0Z"  horiz-adv-x="623" vert-adv-y="1000"  />

      
      <glyph glyph-name="uni4e" unicode="&#x4e;" d="M121 0L14 0L143 674L257 674L308 406Q335 270 342 197L344 197Q365 394 385 499L419 674L526 674L397 0L291 0L237 251Q213 357 202 475L200 475Q182 324 155 179L121 0Z"  horiz-adv-x="503" vert-adv-y="1000"  />

      
      <glyph glyph-name="uni4f" unicode="&#x4f;" d="M201-8L200-8Q148-8 112.50 15Q77 38 61 75.50Q45 113 39 145.50Q33 178 33 212Q33 323 70 439Q107 555 173 620Q237 682 321 682Q485 682 485 467Q485 353 449 236.50Q413 120 349 56Q285-8 201-8M218 102L219 102Q242 102 260 122Q304 166 330 284Q356 402 356 478Q356 572 304 572Q280 572 259 551Q216 508 189 397.50Q162 287 162 200Q162 102 218 102Z"  horiz-adv-x="481" vert-adv-y="1000"  />

      
      <glyph glyph-name="uni50" unicode="&#x50;" d="M14 0L141 665Q211 677 276 677Q381 677 431 623Q472 578 472 507Q472 443 446.50 390.50Q421 338 385 306Q314 246 215 246Q194 246 184 247L136 0L14 0M246 572L204 350Q212 349 227 349Q270 349 298 375Q326 401 336 432.50Q346 464 346 498Q346 575 276 575Q253 575 246 572Z"  horiz-adv-x="449" vert-adv-y="1000"  />

      
      <glyph glyph-name="uni51" unicode="&#x51;" d="M436-10L374-104Q296-71 209-18Q193-8 188-8Q111-4 72 56.50Q33 117 33 214Q33 321 69 435.50Q105 550 172 617Q237 682 317 682Q485 682 485 465Q485 363 450.50 246Q416 129 359 72Q339 52 317 41L316 37Q358 15 436-10M218 101L219 101Q237 101 257 119Q299 162 327 282Q355 402 356 482Q356 572 302 572Q278 572 257 551Q212 506 186.50 391Q161 276 161 194Q161 101 218 101Z"  horiz-adv-x="481" vert-adv-y="1000"  />

      
      <glyph glyph-name="uni52" unicode="&#x52;" d="M14 0L141 665Q213 677 275 677Q377 677 424 630Q468 588 468 519Q468 447 429.50 391.50Q391 336 332 317L332 314Q383 290 386 183Q390 24 397 0L272 0Q266 28 266 162Q266 222 252.50 246.50Q239 271 207 271L186 271L136 0L14 0M245 576L207 367L235 367Q281 367 310.50 408.50Q340 450 340 505Q340 535 325 557Q310 579 278 579Q257 579 245 576Z"  horiz-adv-x="459" vert-adv-y="1000"  />

      
      <glyph glyph-name="uni53" unicode="&#x53;" d="M-4 19L27 128Q66 104 120 104Q163 102 190.50 126.50Q218 151 218 191Q218 222 202.50 244.50Q187 267 150 303Q70 381 70 467Q70 562 131 621Q192 680 291 680Q358 680 392 659L358 552Q322 570 285 570Q245 570 220 546Q195 522 195 484Q195 459 209 436Q223 413 263 378Q344 306 344 215Q344 113 282.50 53.50Q221-6 122-6Q36-6-4 19Z"  horiz-adv-x="374" vert-adv-y="1000"  />

      
      <glyph glyph-name="uni54" unicode="&#x54;" d="M74 0L181 556L63 556L86 674L445 674L422 556L305 556L199 0L74 0Z"  horiz-adv-x="370" vert-adv-y="1000"  />

      
      <glyph glyph-name="uni55" unicode="&#x55;" d="M136 674L262 674L178 236Q169 191 169 162Q169 103 219 103Q251 103 271 131Q291 159 305 231L390 674L515 674L434 248Q410 121 356 56.50Q302-8 205-8Q124-8 84.50 33.50Q45 75 45 151Q45 196 57 257L136 674Z"  horiz-adv-x="486" vert-adv-y="1000"  />

      
      <glyph glyph-name="uni56" unicode="&#x56;" d="M233 0L97 0L76 674L215 674L206 333Q205 255 196 142L198 142Q227 252 256 333L377 674L515 674L233 0Z"  horiz-adv-x="433" vert-adv-y="1000"  />

      
      <glyph glyph-name="uni57" unicode="&#x57;" d="M193 0L67 0L88 674L218 674L198 371Q194 331 186.50 259.50Q179 188 176 154L178 154Q199 237 243 359L359 674L473 674L462 373Q457 260 446 154L449 154Q480 277 507 364L605 674L727 674L487 0L355 0L355 226Q356 334 368 446L366 446Q308 274 280 209L193 0Z"  horiz-adv-x="659" vert-adv-y="1000"  />

      
      <glyph glyph-name="uni58" unicode="&#x58;" d="M344 0L219 0L198 148Q190 212 187 252L185 252Q178 237 169 216Q160 195 152.50 178Q145 161 136 141L70 0L-56 0L131 347L80 674L206 674L221 549Q230 461 232 432L234 432Q250 474 283 551L341 674L468 674L281 337L344 0Z"  horiz-adv-x="383" vert-adv-y="1000"  />

      
      <glyph glyph-name="uni59" unicode="&#x59;" d="M210 0L85 0L134 258L68 674L201 674L216 513Q221 440 221 369L223 369Q252 452 276 505L355 674L485 674L257 257L210 0Z"  horiz-adv-x="390" vert-adv-y="1000"  />

      
      <glyph glyph-name="uni5a" unicode="&#x5a;" d="M-35 0L-20 81L274 560L274 562L92 562L114 674L436 674L417 572L133 114L133 112L328 112L306 0L-35 0Z"  horiz-adv-x="373" vert-adv-y="1000"  />

      
      <glyph glyph-name="uni5b" unicode="&#x5b;" d="M158-112L-21-112L131 686L310 686L293 605L209 605L88-31L173-31L158-112Z"  horiz-adv-x="258" vert-adv-y="1000"  />

      
      <glyph glyph-name="uni5c" unicode="&#x5c;" d="M266-40L182-40L57 682L141 682L266-40Z"  horiz-adv-x="280" vert-adv-y="1000"  />

      
      <glyph glyph-name="uni5d" unicode="&#x5d;" d="M108 686L287 686L135-112L-44-112L-28-31L56-31L178 605L92 605L108 686Z"  horiz-adv-x="258" vert-adv-y="1000"  />

      
      <glyph glyph-name="uni5e" unicode="&#x5e;" d="M550 177L450 177L298 538L293 538L141 177L43 177L255 650L338 650L550 177Z"  horiz-adv-x="596" vert-adv-y="1000"  />

      
      <glyph glyph-name="uni5f" unicode="&#x5f;" d="M-52-75L448-75L438-125L-62-125L-52-75Z"  horiz-adv-x="500" vert-adv-y="1000"  />

      
      <glyph glyph-name="uni60" unicode="&#x60;" d="M146 687L260 687L307 547L225 547L146 687Z"  horiz-adv-x="379" vert-adv-y="1000"  />

      
      <glyph glyph-name="uni61" unicode="&#x61;" d="M354 0L246 0Q246 12 247.50 39Q249 66 250 82L247 82Q193-8 122-8Q70-8 43 32Q16 72 16 138Q16 198 31.50 257.50Q47 317 78.50 372.50Q110 428 167.50 462.50Q225 497 300 497Q373 497 429 477L374 204Q354 111 354 0M259 240L291 401Q276 404 265 404Q227 404 196.50 359Q166 314 152.50 261.50Q139 209 138 168Q138 95 175 95Q201 95 223.50 134Q246 173 259 240Z"  horiz-adv-x="426" vert-adv-y="1000"  />

      
      <glyph glyph-name="uni62" unicode="&#x62;" d="M130 692L253 692L199 427L201 427Q249 497 314 497Q345 497 366.50 483Q388 469 397.50 445.50Q407 422 411 400.50Q415 379 415 357Q415 211 341 101.50Q267-8 145-8Q21-8 21 99Q21 132 28 167L130 692M174 292L149 176Q144 148 144 127Q144 83 178 83Q209 83 235.50 128Q262 173 274 225.50Q286 278 286 317Q286 354 279 372.50Q272 391 250 391Q225 391 203.50 361.50Q182 332 174 292Z"  horiz-adv-x="434" vert-adv-y="1000"  />

      
      <glyph glyph-name="uni63" unicode="&#x63;" d="M269 107L261 7Q228-6 173-6Q97-6 58.50 45Q20 96 20 169Q20 303 95 399Q170 495 283 495Q323 495 345 486L314 384Q292 389 278 389Q224 389 185 327.50Q146 266 146 187Q146 144 162.50 120Q179 96 209 96Q234 96 269 107Z"  horiz-adv-x="308" vert-adv-y="1000"  />

      
      <glyph glyph-name="uni64" unicode="&#x64;" d="M342 692L467 692L366 161Q353 93 342 0L240 0L246 71L244 71Q222 34 190 13Q158-8 126-8Q74-8 45 33.50Q16 75 16 144Q16 231 44.50 311Q73 391 130 444Q187 497 259 497Q284 497 303 485L342 692M249 185L287 390Q275 402 256 402Q230 402 207.50 376.50Q185 351 170.50 314Q156 277 148 237.50Q140 198 140 167Q140 95 181 95Q202 95 220 120Q238 145 249 185Z"  horiz-adv-x="428" vert-adv-y="1000"  />

      
      <glyph glyph-name="uni65" unicode="&#x65;" d="M319 116L327 21Q262-6 187-6Q101-6 60.50 44Q20 94 20 178Q20 233 35 288Q50 343 78.50 390.50Q107 438 153 467.50Q199 497 255 497Q318 497 350.50 457.50Q383 418 384 363Q384 268 317 224.50Q250 181 141 184Q141 147 153 127Q172 92 220 92Q268 92 319 116M274 352L274 353Q274 396 239 396Q211 396 187.50 363.50Q164 331 153 278Q205 276 239.50 295.50Q274 315 274 352Z"  horiz-adv-x="384" vert-adv-y="1000"  />

      
      <glyph glyph-name="uni66" unicode="&#x66;" d="M142 0L18 0L94 400L29 400L45 489L111 489L115 508Q133 602 189 656Q238 700 312 700Q354 700 384 690L355 594Q339 600 316 600Q285 600 264.50 573Q244 546 238 509L234 489L328 489L312 400L218 400L142 0Z"  horiz-adv-x="280" vert-adv-y="1000"  />

      
      <glyph glyph-name="uni67" unicode="&#x67;" d="M-7-178L25-83Q61-103 103-103Q198-103 222 14L234 72L232 72Q186 1 122 1Q73 1 47 40.50Q21 80 19 141Q18 200 35 261.50Q52 323 84 376.50Q116 430 169.50 463.50Q223 497 287 497Q368 497 426 467L347 51Q322-84 263-142Q205-200 98-200Q28-200-7-178M256 207L291 395Q282 400 265 400Q215 400 179.50 324.50Q144 249 143 177Q143 100 181 100Q207 100 228 135Q249 170 256 207Z"  horiz-adv-x="428" vert-adv-y="1000"  />

      
      <glyph glyph-name="uni68" unicode="&#x68;" d="M125 0L0 0L131 692L256 692L206 429L208 428Q258 497 331 497Q375 497 397 468Q419 439 419 390Q419 352 408 294L352 0L227 0L283 294Q289 332 289 356Q289 395 260 395Q237 395 213 363.50Q189 332 178 279L125 0Z"  horiz-adv-x="443" vert-adv-y="1000"  />

      
      <glyph glyph-name="uni69" unicode="&#x69;" d="M124 0L-1 0L93 489L218 489L124 0M173 548L172 548Q144 548 130 566.50Q116 585 116 614Q117 644 136 667.50Q155 691 186 691Q215 691 230.50 672Q246 653 245 626Q244 590 223 569Q202 548 173 548Z"  horiz-adv-x="218" vert-adv-y="1000"  />

      
      <glyph glyph-name="uni6a" unicode="&#x6a;" d="M91 489L216 489L129 34Q107-80 78-129Q36-200-64-200Q-91-200-118-194L-106-101Q-90-103-81-103Q-50-103-31-78Q-12-53 1 17L91 489M170 548L169 548Q141 548 127 566.50Q113 585 113 614Q114 644 133 667.50Q152 691 183 691Q212 691 227.50 672Q243 653 242 626Q241 590 220 569Q199 548 170 548Z"  horiz-adv-x="208" vert-adv-y="1000"  />

      
      <glyph glyph-name="uni6b" unicode="&#x6b;" d="M122 0L0 0L132 692L253 692L177 287L179 287Q203 327 213 345L303 489L437 489L280 273L354 0L226 0L183 211L154 169L122 0Z"  horiz-adv-x="394" vert-adv-y="1000"  />

      
      <glyph glyph-name="uni6c" unicode="&#x6c;" d="M124 0L-1 0L131 692L256 692L124 0Z"  horiz-adv-x="217" vert-adv-y="1000"  />

      
      <glyph glyph-name="uni6d" unicode="&#x6d;" d="M123 0L-1 0L62 330Q72 383 88 489L195 489L190 422L192 422Q243 497 325 497Q359 497 380.50 476.50Q402 456 407 422Q460 497 541 497Q585 497 608 468.50Q631 440 631 390Q631 361 619 292L563 0L440 0L495 290Q503 333 503 362Q503 396 474 396Q451 396 427 361.50Q403 327 390 260L340 0L220 0L275 290Q283 330 283 359Q283 396 255 396Q234 396 209 359.50Q184 323 172 260L123 0Z"  horiz-adv-x="654" vert-adv-y="1000"  />

      
      <glyph glyph-name="uni6e" unicode="&#x6e;" d="M125 0L0 0L63 330Q69 360 88 489L195 489L190 426L192 426Q246 497 324 497Q373 497 396 467.50Q419 438 419 390Q419 359 408 297L352 0L227 0L284 304Q290 330 290 356Q290 395 260 395Q236 395 211 359.50Q186 324 174 259L125 0Z"  horiz-adv-x="443" vert-adv-y="1000"  />

      
      <glyph glyph-name="uni6f" unicode="&#x6f;" d="M171-8L170-8Q126-8 95 7.50Q64 23 48.50 50Q33 77 26.50 104Q20 131 20 161Q20 245 48 321Q76 397 132 447Q188 497 259 497Q400 497 400 325Q400 246 374.50 171Q349 96 295 44Q241-8 171-8M182 87L183 87Q224 87 250.50 174Q277 261 277 341Q277 402 238 402Q200 402 171 320Q142 238 143 166Q143 143 144.50 129Q146 115 155.50 101Q165 87 182 87Z"  horiz-adv-x="417" vert-adv-y="1000"  />

      
      <glyph glyph-name="uni70" unicode="&#x70;" d="M86-192L-38-192L62 328Q68 362 77.50 421Q87 480 88 489L194 489L187 418L189 418Q212 454 244.50 475.50Q277 497 311 497Q416 497 416 346Q416 262 389 182Q362 102 307.50 47Q253-8 185-8Q146-8 125 4L122 4L86-192M174 280L140 97Q157 85 175 85Q210 85 237.50 131Q265 177 276.50 230Q288 283 288 324Q288 339 287 349Q286 359 282.50 369.50Q279 380 271.50 385.50Q264 391 252 391Q228 391 205 358Q182 325 174 280Z"  horiz-adv-x="434" vert-adv-y="1000"  />

      
      <glyph glyph-name="uni71" unicode="&#x71;" d="M299-192L175-192L230 69L228 69Q184-8 120-8Q70-8 43 33.50Q16 75 16 146Q16 202 32 260.50Q48 319 79.50 373.50Q111 428 165.50 462.50Q220 497 289 497Q348 497 425 469L299-192M253 201L288 395Q280 400 263 400Q228 400 198.50 360Q169 320 154.50 266.50Q140 213 139 164Q139 95 177 95Q204 95 224 129Q244 163 253 201Z"  horiz-adv-x="427" vert-adv-y="1000"  />

      
      <glyph glyph-name="uni72" unicode="&#x72;" d="M124 0L-1 0L62 332Q67 355 87 489L194 489Q190 437 186 407L190 407Q242 497 311 497Q319 497 331 495L307 369Q299 371 287 371Q247 371 212.50 329.50Q178 288 166 226L124 0Z"  horiz-adv-x="294" vert-adv-y="1000"  />

      
      <glyph glyph-name="uni73" unicode="&#x73;" d="M-13 19L17 107Q55 86 96 87Q122 88 137 103Q152 118 152 141Q152 177 105 214Q43 263 43 333Q43 402 93 449.50Q143 497 224 497Q285 497 316 478L289 387Q261 402 231 402Q201 402 183.50 387.50Q166 373 166 348Q166 319 203 290Q276 234 276 162Q276 82 225.50 38Q175-6 89-6Q22-6-13 19Z"  horiz-adv-x="317" vert-adv-y="1000"  />

      
      <glyph glyph-name="uni74" unicode="&#x74;" d="M119 575L252 616L227 489L319 489L302 400L210 400L167 175Q163 154 163 134Q163 93 201 93Q223 93 235 95L220 2Q197-6 145-6Q90-6 61.50 22.50Q33 51 33 101Q33 130 42 175L85 400L28 400L44 489L102 489L119 575Z"  horiz-adv-x="283" vert-adv-y="1000"  />

      
      <glyph glyph-name="uni75" unicode="&#x75;" d="M312 489L437 489L375 159Q361 87 350 0L242 0L246 66L244 67Q192-8 117-8Q70-8 47 23Q24 54 24 105Q24 143 36 206L89 489L214 489L161 211Q152 157 152 133Q152 94 182 94Q206 94 228 124Q250 154 260 206L312 489Z"  horiz-adv-x="439" vert-adv-y="1000"  />

      
      <glyph glyph-name="uni76" unicode="&#x76;" d="M47 489L178 489L172 265Q170 231 168 189.50Q166 148 165 126L167 126Q185 187 210 256L295 489L420 489L200 0L75 0L47 489Z"  horiz-adv-x="380" vert-adv-y="1000"  />

      
      <glyph glyph-name="uni77" unicode="&#x77;" d="M50 489L180 489L168 271Q160 164 154 122L157 122Q176 187 205 261L300 489L396 489L398 264Q398 182 391 122L394 122Q408 181 439 274L514 489L636 489L421 0L312 0L305 179Q304 233 312 331L309 331Q282 236 258 179L182 0L72 0L50 489Z"  horiz-adv-x="596" vert-adv-y="1000"  />

      
      <glyph glyph-name="uni78" unicode="&#x78;" d="M40 489L170 489L184 401Q185 395 193 318L195 318Q199 327 211 353Q223 379 230 394L279 489L407 489L247 245L312 0L183 0L167 85Q160 126 156 172L154 172Q151 166 145.50 153Q140 140 133.50 125.50Q127 111 119 94L71 0L-57 0L104 248L40 489Z"  horiz-adv-x="352" vert-adv-y="1000"  />

      
      <glyph glyph-name="uni79" unicode="&#x79;" d="M47 489L177 489L180 254Q182 169 181 138L183 138Q194 181 219 263L294 489L419 489L260 104Q181-79 97-158Q55-197 13-215L-37-113Q6-89 28-72Q77-35 95 6Q99 18 98 27L47 489Z"  horiz-adv-x="381" vert-adv-y="1000"  />

      
      <glyph glyph-name="uni7a" unicode="&#x7a;" d="M-34 0L-21 84L123 291Q164 349 195 384L196 386L52 386L72 489L346 489L331 397L192 200Q156 149 118 105L118 103L279 103L259 0L-34 0Z"  horiz-adv-x="320" vert-adv-y="1000"  />

      
      <glyph glyph-name="uni7b" unicode="&#x7b;" d="M15 247L31 329Q95 329 107 384Q112 410 116 461.50Q120 513 125 541Q152 686 290 686L318 686L302 607L287 607Q234 604 221 538Q215 509 211 464Q207 419 206 412Q193 316 113 290L113 288Q162 270 162 207Q162 188 141 106Q121 30 121 15Q121-32 167-33L180-33L166-112L143-112Q24-112 24-12Q24 29 48 111Q73 188 73 204Q73 216 70.50 224Q68 232 54 239.50Q40 247 15 247Z"  horiz-adv-x="258" vert-adv-y="1000"  />

      
      <glyph glyph-name="uni7c" unicode="&#x7c;" d="M82 750L169 750L169-250L82-250L82 750Z"  horiz-adv-x="216" vert-adv-y="1000"  />

      
      <glyph glyph-name="uni7d" unicode="&#x7d;" d="M263 327L247 245Q182 245 170 190Q165 164 161 112.50Q157 61 152 33Q125-112-13-112L-41-112L-25-33L-10-33Q43-30 56 36Q62 65 66 110Q70 155 71 162Q84 257 164 285L164 287Q115 304 115 368Q116 392 136 468Q156 544 156 559Q156 606 110 607L97 607L112 686L134 686Q254 686 254 586Q254 542 229 463Q205 385 205 370Q205 358 207.50 350Q210 342 224 334.50Q238 327 263 327Z"  horiz-adv-x="258" vert-adv-y="1000"  />

      
      <glyph glyph-name="uni7e" unicode="&#x7e;" d="M144 202L60 202Q59 289 99 329.50Q139 370 195 370Q246 371 328 320Q358 302 369.50 296Q381 290 393 285Q405 280 415 280Q459 280 459 362L542 362Q546 280 514 235.50Q482 191 420 191Q359 191 276 245Q214 284 190 284Q165 284 155 263Q145 242 144 202Z"  horiz-adv-x="596" vert-adv-y="1000"  />

      
      <glyph glyph-name="unia1" unicode="&#xa1;" d="M106-192L-35-192L68 263L178 263L106-192M156 493L157 493Q188 493 206.50 471.50Q225 450 225 417Q225 386 201 358.50Q177 331 148 331Q113 331 94 352Q75 373 75 405Q75 443 99 468Q123 493 156 493Z"  horiz-adv-x="236" vert-adv-y="1000"  />

      
      <glyph glyph-name="unia2" unicode="&#xa2;" d="M245-7L171-7L190 94Q136 103 104 149Q74 191 74 260Q74 375 132.50 456Q191 537 281 557L300 656L374 656L355 562Q394 561 417 547L385 453Q362 465 322 465Q270 465 233.50 407.50Q197 350 197 274Q197 236 217 210Q237 184 276 184Q311 184 347 196L341 102Q310 90 263 90L245-7Z"  horiz-adv-x="429" vert-adv-y="1000"  />

      
      <glyph glyph-name="unia3" unicode="&#xa3;" d="M355 0L7 0L22 81Q67 99 98 140Q129 181 138 225Q144 272 145 283L66 283L82 370L148 370Q146 419 156 472Q171 556 222.50 607Q274 658 361 658Q402 658 434 640L404 543Q382 555 352 555Q290 555 274 470Q266 427 266 370L365 370L349 283L261 283Q255 245 246 214Q221 141 171 107L171 105L376 105L355 0Z"  horiz-adv-x="429" vert-adv-y="1000"  />

      
      <glyph glyph-name="unia4" unicode="&#xa4;" d="M230 536L231 536Q289 536 317 504L386 576L440 518L362 441Q384 394 384 328Q384 263 363 211L440 133L387 76L316 149Q302 134 276 125Q250 116 226 116Q169 116 136 147L72 76L17 133L93 208Q69 254 69 322Q69 392 96 441L17 517L74 576L140 502Q172 536 230 536M226 454L225 454Q195 454 177.50 418Q160 382 160 324Q160 268 178.50 233Q197 198 228 198Q260 198 276.50 232.50Q293 267 293 326Q293 381 276.50 417.50Q260 454 226 454Z"  horiz-adv-x="429" vert-adv-y="1000"  />

      
      <glyph glyph-name="unia5" unicode="&#xa5;" d="M221 0L107 0L139 165L17 165L29 232L151 232L163 291L41 291L54 358L152 358L89 650L212 650L228 469Q236 391 236 361L238 361Q258 410 287 471L374 650L490 650L318 358L412 358L399 291L276 291L265 232L388 232L375 165L253 165L221 0Z"  horiz-adv-x="429" vert-adv-y="1000"  />

      
      <glyph glyph-name="unia6" unicode="&#xa6;" d="M82 174L169 174L169-176L82-176L82 174M82 674L169 674L169 324L82 324L82 674Z"  horiz-adv-x="216" vert-adv-y="1000"  />

      
      <glyph glyph-name="unia7" unicode="&#xa7;" d="M158 340L158 339Q158 317 168.50 301Q179 285 209 269Q248 250 269 234Q305 257 305 302Q305 347 261 370Q246 378 204 404Q186 395 172 376.50Q158 358 158 340M428 656L396 580Q356 600 313 600Q278 600 258 583Q238 566 238 541Q238 522 251 508Q264 494 298 479Q405 434 405 339Q405 245 328 184Q342 156 342 125Q342 46 289.50-2Q237-50 154-50Q74-50 27-20L58 60Q109 32 161 32Q198 32 218 49Q238 66 238 91Q238 114 220 132Q202 150 159 171Q108 196 83 231.50Q58 267 58 304Q58 395 152 458Q134 482 134 520Q134 589 185 635.50Q236 682 320 682Q383 682 428 656Z"  horiz-adv-x="433" vert-adv-y="1000"  />

      
      <glyph glyph-name="unia8" unicode="&#xa8;" d="M176 553L175 553Q150 553 133 571Q116 589 116 618Q116 646 134 665Q152 684 177 684Q204 684 220.50 666Q237 648 237 620Q237 591 220 572Q203 553 176 553M348 553L347 553Q322 553 305 571Q288 589 288 618Q288 646 306 665Q324 684 349 684Q376 684 392.50 666Q409 648 409 620Q409 591 392 572Q375 553 348 553Z"  horiz-adv-x="379" vert-adv-y="1000"  />

      
      <glyph glyph-name="unia9" unicode="&#xa9;" d="M355 648L356 648Q480 648 568 557.50Q656 467 656 340Q656 211 568 120.50Q480 30 355 30Q229 30 140 120.50Q51 211 51 340Q51 467 140.50 557.50Q230 648 355 648M354 594L353 594Q252 594 181.50 520Q111 446 112 338Q112 230 182.50 156Q253 82 354 83Q455 82 525 156.50Q595 231 595 339Q595 446 525 520Q455 594 354 594M489 494L474 435Q435 459 378 459Q323 459 291 426Q259 393 259 336Q259 283 291 248.50Q323 214 375 214Q437 214 476 239L491 183Q441 153 367 153Q285 153 236 204.50Q187 256 187 334Q187 417 243.50 468.50Q300 520 381 520Q415 520 446.50 511.50Q478 503 489 494Z"  horiz-adv-x="661" vert-adv-y="1000"  />

      
      <glyph glyph-name="uniaa" unicode="&#xaa;" d="M285 263L214 263Q214 294 215 312L213 312Q182 258 131 258Q98 258 80 285Q62 312 62 358Q62 450 111 519Q160 588 247 588Q292 588 330 575L293 362Q287 324 285 263M220 399L240 518Q236 521 223 521Q187 521 165.50 471Q144 421 144 376Q142 330 170 330Q186 330 200.50 351.50Q215 373 220 399Z"  horiz-adv-x="309" vert-adv-y="1000"  />

      
      <glyph glyph-name="uniab" unicode="&#xab;" d="M241 436L104 245L184 67L95 67L14 252L145 436L241 436M403 437L266 245L346 67L257 67L176 252L307 437L403 437Z"  horiz-adv-x="383" vert-adv-y="1000"  />

      
      <glyph glyph-name="uniac" unicode="&#xac;" d="M45 421L561 421L561 107L480 107L480 339L45 339L45 421Z"  horiz-adv-x="596" vert-adv-y="1000"  />

      
      <glyph glyph-name="uniae" unicode="&#xae;" d="M221 502L221 449L180 449L180 596Q207 602 240 602Q276 602 295 590Q310 580 310 558Q310 547 301 537.50Q292 528 277 524L277 522Q300 515 307 484Q312 460 316 449L271 449Q269 452 260 480Q257 502 235 502L221 502M223 569L223 533L236 533Q263 533 263 551Q263 570 238 570Q235 570 229.50 569.50Q224 569 223 569M241 685L242 685Q308 685 354.50 638Q401 591 401 525Q401 458 354.50 411Q308 364 241 364Q174 364 127.50 411Q81 458 81 525Q81 591 127.50 638Q174 685 241 685M241 645L240 645Q192 645 160 610Q128 575 128 524Q128 473 160.50 438.50Q193 404 241 404Q289 403 321.50 438Q354 473 354 524Q354 575 321.50 610Q289 645 241 645Z"  horiz-adv-x="368" vert-adv-y="1000"  />

      
      <glyph glyph-name="uniaf" unicode="&#xaf;" d="M166 653L370 653L354 585L150 585L166 653Z"  horiz-adv-x="379" vert-adv-y="1000"  />

      
      <glyph glyph-name="uni02C9" unicode="&#x02C9;" d="M166 653L370 653L354 585L150 585L166 653Z"  horiz-adv-x="379" vert-adv-y="1000"  />

      
      <glyph glyph-name="unib0" unicode="&#xb0;" d="M201 683L202 683Q255 683 287.50 648.50Q320 614 320 564Q320 508 281 474Q242 440 196 440Q145 440 111.50 473Q78 506 78 557Q78 610 115 646.50Q152 683 201 683M199 632L198 632Q174 632 155.50 610Q137 588 137 558Q137 530 155 510.50Q173 491 199 491Q225 491 243 510.50Q261 530 261 560Q261 590 245 611Q229 632 199 632Z"  horiz-adv-x="287" vert-adv-y="1000"  />

      
      <glyph glyph-name="unib1" unicode="&#xb1;" d="M261 566L345 566L345 394L561 394L561 312L345 312L345 136L261 136L261 312L45 312L45 394L261 394L261 566M45 82L561 82L561 0L45 0L45 82Z"  horiz-adv-x="596" vert-adv-y="1000"  />

      
      <glyph glyph-name="unib2" unicode="&#xb2;" d="M271 403L39 403L50 460L120 530Q155 565 170.50 582Q186 599 205 628.50Q224 658 224 681Q224 720 180 720Q156 720 118 702L113 773Q161 798 209 798Q273 798 297 769Q321 740 321 704Q321 618 189 504L169 486L169 482L286 482L271 403Z"  horiz-adv-x="259" vert-adv-y="1000"  />

      
      <glyph glyph-name="unib3" unicode="&#xb3;" d="M120 714L117 777Q153 798 204 798Q257 798 281 772Q305 746 305 714Q305 641 230 612L230 610Q257 602 273 579.50Q289 557 288 528Q287 472 242 435Q197 398 122 398Q70 398 42 415L63 481Q93 467 124 467Q155 467 174 483.50Q193 500 193 527Q193 552 175 565.50Q157 579 125 579L110 579L121 640L133 640Q164 640 187.50 653Q211 666 211 692Q211 729 171 729Q146 729 120 714Z"  horiz-adv-x="246" vert-adv-y="1000"  />

      
      <glyph glyph-name="unib4" unicode="&#xb4;" d="M288 687L406 687L284 547L198 547L288 687Z"  horiz-adv-x="379" vert-adv-y="1000"  />

      
      <glyph glyph-name="unib5" unicode="&#xb5;" d="M217 489L155 175Q139 92 187 92Q215 92 242 139Q252 156 257 183L316 489L441 489L377 156Q370 117 374 104Q378 91 397 91L368-2Q352-8 333-8Q272-8 260 56L257 56Q223-1 170-1Q138-1 122 22L115-19Q96-120 96-192L-15-192Q-31-143 0 13L92 489L217 489Z"  horiz-adv-x="443" vert-adv-y="1000"  />

      
      <glyph glyph-name="unib6" unicode="&#xb6;" d="M194-50L132-50L193 264L189 264Q150 265 111.50 305Q73 345 73 422Q73 536 148.50 605Q224 674 358 674Q417 674 452 669L314-50L252-50L381 621L323 621L194-50Z"  horiz-adv-x="433" vert-adv-y="1000"  />

      
      <glyph glyph-name="unib7" unicode="&#xb7;" d="M108 184L107 184Q73 184 54.50 206.50Q36 229 36 265Q36 301 60 329.50Q84 358 116 358Q152 358 171.50 336Q191 314 191 278Q191 236 166.50 210Q142 184 108 184Z"  horiz-adv-x="225" vert-adv-y="1000"  />

      
      <glyph glyph-name="uni2219" unicode="&#x2219;" d="M108 184L107 184Q73 184 54.50 206.50Q36 229 36 265Q36 301 60 329.50Q84 358 116 358Q152 358 171.50 336Q191 314 191 278Q191 236 166.50 210Q142 184 108 184Z"  horiz-adv-x="225" vert-adv-y="1000"  />

      
      <glyph glyph-name="unib8" unicode="&#xb8;" d="M124 5L182 5L148-44Q173-50 187.50-69Q202-88 202-109Q202-157 166.50-180.50Q131-204 89-204Q45-204 23-186L44-135Q70-148 95-148Q110-148 121-140Q132-132 132-117Q134-83 69-77L124 5Z"  horiz-adv-x="379" vert-adv-y="1000"  />

      
      <glyph glyph-name="unib9" unicode="&#xb9;" d="M203 403L112 403L171 709L169 709L96 675L92 745L197 793L278 793L203 403Z"  horiz-adv-x="216" vert-adv-y="1000"  />

      
      <glyph glyph-name="uniba" unicode="&#xba;" d="M216 588L217 588Q271 588 295 553.50Q319 519 319 475Q319 379 273 318.50Q227 258 167 258Q113 258 86.50 291Q60 324 60 371Q60 459 104 523.50Q148 588 216 588M206 519L205 519Q179 519 160.50 471.50Q142 424 142 373Q142 326 176 326Q201 326 218 372.50Q235 419 235 472Q235 519 206 519Z"  horiz-adv-x="311" vert-adv-y="1000"  />

      
      <glyph glyph-name="unibb" unicode="&#xbb;" d="M123 263L43 436L132 436L213 252L83 67L-14 67L123 263M285 263L205 436L294 436L375 252L245 67L148 67L285 263Z"  horiz-adv-x="383" vert-adv-y="1000"  />

      
      <glyph glyph-name="unibc" unicode="&#xbc;" d="M537 0L451 0L469 88L317 88L328 153L510 391L611 391L567 158L609 158L596 88L554 88L537 0M482 158L495 228Q501 262 511 295L509 295Q483 260 470 243L408 159L408 158L482 158M186 263L95 263L154 569L152 569L79 535L75 605L180 653L261 653L186 263M130-8L52-8L525 658L602 658L130-8Z"  horiz-adv-x="659" vert-adv-y="1000"  />

      
      <glyph glyph-name="unibd" unicode="&#xbd;" d="M188 263L97 263L156 569L154 569L81 535L77 605L182 653L263 653L188 263M118-8L40-8L513 658L590 658L118-8M570 0L346 0L357 57L423 127Q427 131 440.50 145Q454 159 459.50 164.50Q465 170 476.50 183Q488 196 493 203Q498 210 506 221.50Q514 233 517.50 241Q521 249 524 259Q527 269 527 278Q527 317 484 317Q453 317 425 297L420 370Q466 395 517 395Q577 395 600.50 366Q624 337 624 301Q624 272 612 243.50Q600 215 576.50 187Q553 159 536 142Q519 125 492 101L472 83L472 79L585 79L570 0Z"  horiz-adv-x="659" vert-adv-y="1000"  />

      
      <glyph glyph-name="unibe" unicode="&#xbe;" d="M150-8L73-8L545 658L622 658L150-8M105 574L103 637Q139 658 190 658Q243 658 267 632Q291 606 291 574Q291 537 270 511Q249 485 215 472L216 470Q242 462 257.50 439.50Q273 417 273 389Q272 333 226.50 295.50Q181 258 107 258Q55 258 27 275L48 341Q78 327 109 327Q140 327 159 343.50Q178 360 178 387Q178 412 160 425.50Q142 439 110 439L96 439L107 500L119 500Q150 500 173.50 513Q197 526 197 552Q197 589 157 589Q133 589 105 574M548 0L463 0L480 88L329 88L340 153L522 391L622 391L578 158L620 158L607 88L565 88L548 0M493 158L507 228Q511 253 523 295L521 295Q518 290 481 243L419 159L419 158L493 158Z"  horiz-adv-x="659" vert-adv-y="1000"  />

      
      <glyph glyph-name="unibf" unicode="&#xbf;" d="M134 275L246 275Q246 269 244 257Q237 179 162 85Q99 11 99-37Q99-62 113-76.50Q127-91 154-91Q194-91 225-72L228-173Q178-200 111-200Q67-200 35.50-186.50Q4-173-10-151Q-24-129-29.50-109Q-35-89-35-68Q-35 24 62 132Q119 195 129 253L134 275M226 493L227 493Q257 493 275 471Q293 449 293 417Q293 386 269.50 358.50Q246 331 214 331Q181 331 162 352.50Q143 374 143 405Q143 443 167.50 468Q192 493 226 493Z"  horiz-adv-x="325" vert-adv-y="1000"  />

      
      <glyph glyph-name="unic0" unicode="&#xc0;" d="M270 156L144 156L86 0L-36 0L237 674L382 674L389 0L268 0L270 156M174 248L273 248L276 397Q282 527 283 560L281 560Q237 420 229 398L174 248M171 835L298 835L372 710L285 710L171 835Z"  horiz-adv-x="445" vert-adv-y="1000"  />

      
      <glyph glyph-name="unic1" unicode="&#xc1;" d="M270 156L144 156L86 0L-36 0L237 674L382 674L389 0L268 0L270 156M174 248L273 248L276 397Q282 527 283 560L281 560Q237 420 229 398L174 248M371 835L501 835L348 710L257 710L371 835Z"  horiz-adv-x="445" vert-adv-y="1000"  />

      
      <glyph glyph-name="unic2" unicode="&#xc2;" d="M270 156L144 156L86 0L-36 0L237 674L382 674L389 0L268 0L270 156M174 248L273 248L276 397Q282 527 283 560L281 560Q237 420 229 398L174 248M297 835L379 835L446 710L357 710L330 770L328 770L278 710L183 710L297 835Z"  horiz-adv-x="445" vert-adv-y="1000"  />

      
      <glyph glyph-name="unic3" unicode="&#xc3;" d="M270 156L144 156L86 0L-36 0L237 674L382 674L389 0L268 0L270 156M174 248L273 248L276 397Q282 527 283 560L281 560Q237 420 229 398L174 248M247 712L183 712Q192 767 216 794Q240 821 272 821Q300 821 325 804Q350 786 361 786Q379 786 391 826L454 826Q435 717 362 717Q333 717 307 733Q284 749 272 749Q251 749 247 712Z"  horiz-adv-x="445" vert-adv-y="1000"  />

      
      <glyph glyph-name="unic4" unicode="&#xc4;" d="M270 156L144 156L86 0L-36 0L237 674L382 674L389 0L268 0L270 156M174 248L273 248L276 397Q282 527 283 560L281 560Q237 420 229 398L174 248M232 715L231 715Q208 715 190.50 733.50Q173 752 173 777Q173 804 191 822.50Q209 841 233 841Q258 841 275 822.50Q292 804 292 778Q292 753 274 734Q256 715 232 715M409 715L408 715Q385 715 367.50 733.50Q350 752 350 777Q350 804 368 822.50Q386 841 410 841Q435 841 452 822.50Q469 804 469 778Q469 753 451 734Q433 715 409 715Z"  horiz-adv-x="445" vert-adv-y="1000"  />

      
      <glyph glyph-name="unic5" unicode="&#xc5;" d="M270 156L144 156L86 0L-36 0L237 674L382 674L389 0L268 0L270 156M174 248L273 248L276 397Q282 527 283 560L281 560Q237 420 229 398L174 248M319 864L320 864Q370 864 396.50 841Q423 818 422 782Q422 746 393.50 721Q365 696 317 696Q267 696 240.50 719.50Q214 743 214 776Q214 812 242.50 838Q271 864 319 864M318 825L317 825Q299 825 288.50 811Q278 797 278 778Q280 736 317 736Q336 736 346.50 748.50Q357 761 357 781Q357 799 347 812Q337 825 318 825Z"  horiz-adv-x="445" vert-adv-y="1000"  />

      
      <glyph glyph-name="unic6" unicode="&#xc6;" d="M63 0L-60 0L260 674L608 674L590 564L429 564L406 392L560 392L544 287L396 287L373 111L544 111L526 0L243 0L266 183L143 183L63 0M185 282L274 282L299 453Q307 518 316 583L313 583Q300 550 273.50 488Q247 426 246 424L185 282Z"  horiz-adv-x="565" vert-adv-y="1000"  />

      
      <glyph glyph-name="unic7" unicode="&#xc7;" d="M331 118L326 8Q298-2 255-4L228-44Q252-49 266.50-67Q281-85 281-109Q281-156 245.50-179.50Q210-203 168-203Q130-203 103-185L123-132Q146-145 173-145Q212-145 212-115Q212-85 148-79L197-4Q149 2 115 27.50Q81 53 65.50 90Q50 127 44 159.50Q38 192 38 225Q38 344 72 439Q106 534 166 596Q251 680 368 680Q425 680 444 666L409 556Q386 566 351 566Q294 566 250 510Q171 410 171 252Q171 107 262 107Q300 107 331 118Z"  horiz-adv-x="387" vert-adv-y="1000"  />

      
      <glyph glyph-name="unic8" unicode="&#xc8;" d="M365 403L345 298L196 298L159 111L330 111L308 0L14 0L143 674L425 674L403 564L248 564L215 403L365 403M146 835L273 835L347 710L260 710L146 835Z"  horiz-adv-x="387" vert-adv-y="1000"  />

      
      <glyph glyph-name="unic9" unicode="&#xc9;" d="M365 403L345 298L196 298L159 111L330 111L308 0L14 0L143 674L425 674L403 564L248 564L215 403L365 403M345 835L475 835L322 710L231 710L345 835Z"  horiz-adv-x="387" vert-adv-y="1000"  />

      
      <glyph glyph-name="unica" unicode="&#xca;" d="M365 403L345 298L196 298L159 111L330 111L308 0L14 0L143 674L425 674L403 564L248 564L215 403L365 403M276 835L358 835L425 710L336 710L309 770L307 770L257 710L162 710L276 835Z"  horiz-adv-x="387" vert-adv-y="1000"  />

      
      <glyph glyph-name="unicb" unicode="&#xcb;" d="M365 403L345 298L196 298L159 111L330 111L308 0L14 0L143 674L425 674L403 564L248 564L215 403L365 403M207 715L206 715Q183 715 165.50 733.50Q148 752 148 777Q148 804 166 822.50Q184 841 208 841Q233 841 250 822.50Q267 804 267 778Q267 753 249 734Q231 715 207 715M384 715L383 715Q360 715 342.50 733.50Q325 752 325 777Q325 804 343 822.50Q361 841 385 841Q410 841 427 822.50Q444 804 444 778Q444 753 426 734Q408 715 384 715Z"  horiz-adv-x="387" vert-adv-y="1000"  />

      
      <glyph glyph-name="unicc" unicode="&#xcc;" d="M143 674L268 674L139 0L14 0L143 674M64 835L191 835L265 710L178 710L64 835Z"  horiz-adv-x="245" vert-adv-y="1000"  />

      
      <glyph glyph-name="unicd" unicode="&#xcd;" d="M143 674L268 674L139 0L14 0L143 674M270 835L400 835L247 710L156 710L270 835Z"  horiz-adv-x="245" vert-adv-y="1000"  />

      
      <glyph glyph-name="unice" unicode="&#xce;" d="M143 674L268 674L139 0L14 0L143 674M192 835L274 835L341 710L252 710L225 770L223 770L173 710L78 710L192 835Z"  horiz-adv-x="245" vert-adv-y="1000"  />

      
      <glyph glyph-name="unicf" unicode="&#xcf;" d="M143 674L268 674L139 0L14 0L143 674M124 715L123 715Q100 715 82.50 733.50Q65 752 65 777Q65 804 83 822.50Q101 841 125 841Q150 841 167 822.50Q184 804 184 778Q184 753 166 734Q148 715 124 715M301 715L300 715Q277 715 259.50 733.50Q242 752 242 777Q242 804 260 822.50Q278 841 302 841Q327 841 344 822.50Q361 804 361 778Q361 753 343 734Q325 715 301 715Z"  horiz-adv-x="245" vert-adv-y="1000"  />

      
      <glyph glyph-name="unid0" unicode="&#xd0;" d="M14 303L31 394L91 394L142 664Q201 677 270 677Q389 677 441 606Q487 542 487 426Q487 301 444 205Q401 109 342 61Q265-3 138-3Q68-3 18 10L74 303L14 303M288 394L271 303L194 303L156 108Q171 103 190 103Q221 103 253 127.50Q285 152 306 196Q359 307 359 437Q359 497 339.50 536.50Q320 576 275 576Q254 576 247 571L212 394L288 394Z"  horiz-adv-x="484" vert-adv-y="1000"  />

      
      <glyph glyph-name="unid1" unicode="&#xd1;" d="M121 0L14 0L143 674L257 674L308 406Q335 270 342 197L344 197Q365 394 385 499L419 674L526 674L397 0L291 0L237 251Q213 357 202 475L200 475Q182 324 155 179L121 0M282 720L218 720Q227 775 251 802Q275 829 307 829Q335 829 360 812Q385 794 396 794Q414 794 426 834L489 834Q470 725 397 725Q368 725 342 741Q319 757 307 757Q286 757 282 720Z"  horiz-adv-x="503" vert-adv-y="1000"  />

      
      <glyph glyph-name="unid2" unicode="&#xd2;" d="M201-8L200-8Q148-8 112.50 15Q77 38 61 75.50Q45 113 39 145.50Q33 178 33 212Q33 323 70 439Q107 555 173 620Q237 682 321 682Q485 682 485 467Q485 353 449 236.50Q413 120 349 56Q285-8 201-8M218 102L219 102Q242 102 260 122Q304 166 330 284Q356 402 356 478Q356 572 304 572Q280 572 259 551Q216 508 189 397.50Q162 287 162 200Q162 102 218 102M180 835L307 835L381 710L294 710L180 835Z"  horiz-adv-x="481" vert-adv-y="1000"  />

      
      <glyph glyph-name="unid3" unicode="&#xd3;" d="M201-8L200-8Q148-8 112.50 15Q77 38 61 75.50Q45 113 39 145.50Q33 178 33 212Q33 323 70 439Q107 555 173 620Q237 682 321 682Q485 682 485 467Q485 353 449 236.50Q413 120 349 56Q285-8 201-8M218 102L219 102Q242 102 260 122Q304 166 330 284Q356 402 356 478Q356 572 304 572Q280 572 259 551Q216 508 189 397.50Q162 287 162 200Q162 102 218 102M381 835L511 835L358 710L267 710L381 835Z"  horiz-adv-x="481" vert-adv-y="1000"  />

      
      <glyph glyph-name="unid4" unicode="&#xd4;" d="M201-8L200-8Q148-8 112.50 15Q77 38 61 75.50Q45 113 39 145.50Q33 178 33 212Q33 323 70 439Q107 555 173 620Q237 682 321 682Q485 682 485 467Q485 353 449 236.50Q413 120 349 56Q285-8 201-8M218 102L219 102Q242 102 260 122Q304 166 330 284Q356 402 356 478Q356 572 304 572Q280 572 259 551Q216 508 189 397.50Q162 287 162 200Q162 102 218 102M309 835L391 835L458 710L369 710L342 770L340 770L290 710L195 710L309 835Z"  horiz-adv-x="481" vert-adv-y="1000"  />

      
      <glyph glyph-name="unid5" unicode="&#xd5;" d="M201-8L200-8Q148-8 112.50 15Q77 38 61 75.50Q45 113 39 145.50Q33 178 33 212Q33 323 70 439Q107 555 173 620Q237 682 321 682Q485 682 485 467Q485 353 449 236.50Q413 120 349 56Q285-8 201-8M218 102L219 102Q242 102 260 122Q304 166 330 284Q356 402 356 478Q356 572 304 572Q280 572 259 551Q216 508 189 397.50Q162 287 162 200Q162 102 218 102M260 720L196 720Q205 775 229 802Q253 829 285 829Q313 829 338 812Q363 794 374 794Q392 794 404 834L467 834Q448 725 375 725Q346 725 320 741Q297 757 285 757Q264 757 260 720Z"  horiz-adv-x="481" vert-adv-y="1000"  />

      
      <glyph glyph-name="unid6" unicode="&#xd6;" d="M201-8L200-8Q148-8 112.50 15Q77 38 61 75.50Q45 113 39 145.50Q33 178 33 212Q33 323 70 439Q107 555 173 620Q237 682 321 682Q485 682 485 467Q485 353 449 236.50Q413 120 349 56Q285-8 201-8M218 102L219 102Q242 102 260 122Q304 166 330 284Q356 402 356 478Q356 572 304 572Q280 572 259 551Q216 508 189 397.50Q162 287 162 200Q162 102 218 102M246 715L245 715Q222 715 204.50 733.50Q187 752 187 777Q187 804 205 822.50Q223 841 247 841Q272 841 289 822.50Q306 804 306 778Q306 753 288 734Q270 715 246 715M423 715L422 715Q399 715 381.50 733.50Q364 752 364 777Q364 804 382 822.50Q400 841 424 841Q449 841 466 822.50Q483 804 483 778Q483 753 465 734Q447 715 423 715Z"  horiz-adv-x="481" vert-adv-y="1000"  />

      
      <glyph glyph-name="unid7" unicode="&#xd7;" d="M49 466L105 526L309 320L505 526L564 466L363 262L564 61L505 0L306 202L108 0L53 61L250 261L49 466Z"  horiz-adv-x="596" vert-adv-y="1000"  />

      
      <glyph glyph-name="unid8" unicode="&#xd8;" d="M52-51L2-17L59 78Q27 128 27 220Q27 336 63.50 444.50Q100 553 160 613Q226 682 311 682Q373 682 409 649L451 725L508 698L451 600Q476 557 478 475Q479 353 445 241.50Q411 130 353 67Q287-8 196-8Q133-8 100 28L52-51M153 215L340 544Q329 576 292 576Q253 576 221 523.50Q189 471 170 395Q150 321 146 215L153 215M351 455L163 130Q174 98 216 98Q253 98 283 149Q313 200 333 278Q351 348 357 455L351 455Z"  horiz-adv-x="468" vert-adv-y="1000"  />

      
      <glyph glyph-name="unid9" unicode="&#xd9;" d="M136 674L262 674L178 236Q169 191 169 162Q169 103 219 103Q251 103 271 131Q291 159 305 231L390 674L515 674L434 248Q410 121 356 56.50Q302-8 205-8Q124-8 84.50 33.50Q45 75 45 151Q45 196 57 257L136 674M192 835L319 835L393 710L306 710L192 835Z"  horiz-adv-x="486" vert-adv-y="1000"  />

      
      <glyph glyph-name="unida" unicode="&#xda;" d="M136 674L262 674L178 236Q169 191 169 162Q169 103 219 103Q251 103 271 131Q291 159 305 231L390 674L515 674L434 248Q410 121 356 56.50Q302-8 205-8Q124-8 84.50 33.50Q45 75 45 151Q45 196 57 257L136 674M384 835L514 835L361 710L270 710L384 835Z"  horiz-adv-x="486" vert-adv-y="1000"  />

      
      <glyph glyph-name="unidb" unicode="&#xdb;" d="M136 674L262 674L178 236Q169 191 169 162Q169 103 219 103Q251 103 271 131Q291 159 305 231L390 674L515 674L434 248Q410 121 356 56.50Q302-8 205-8Q124-8 84.50 33.50Q45 75 45 151Q45 196 57 257L136 674M317 835L399 835L466 710L377 710L350 770L348 770L298 710L203 710L317 835Z"  horiz-adv-x="486" vert-adv-y="1000"  />

      
      <glyph glyph-name="unidc" unicode="&#xdc;" d="M136 674L262 674L178 236Q169 191 169 162Q169 103 219 103Q251 103 271 131Q291 159 305 231L390 674L515 674L434 248Q410 121 356 56.50Q302-8 205-8Q124-8 84.50 33.50Q45 75 45 151Q45 196 57 257L136 674M255 715L254 715Q231 715 213.50 733.50Q196 752 196 777Q196 804 214 822.50Q232 841 256 841Q281 841 298 822.50Q315 804 315 778Q315 753 297 734Q279 715 255 715M432 715L431 715Q408 715 390.50 733.50Q373 752 373 777Q373 804 391 822.50Q409 841 433 841Q458 841 475 822.50Q492 804 492 778Q492 753 474 734Q456 715 432 715Z"  horiz-adv-x="486" vert-adv-y="1000"  />

      
      <glyph glyph-name="unidd" unicode="&#xdd;" d="M210 0L85 0L134 258L68 674L201 674L216 513Q221 440 221 369L223 369Q252 452 276 505L355 674L485 674L257 257L210 0M343 835L473 835L320 710L229 710L343 835Z"  horiz-adv-x="390" vert-adv-y="1000"  />

      
      <glyph glyph-name="unide" unicode="&#xde;" d="M14 0L143 674L265 674L242 559Q255 561 279 561Q360 561 407 513Q450 470 450 399Q450 279 376.50 209Q303 139 199 139Q174 139 163 140L136 0L14 0M223 457L182 241Q190 240 208 240Q264 240 295 283Q326 326 326 381Q326 460 254 460Q235 460 223 457Z"  horiz-adv-x="449" vert-adv-y="1000"  />

      
      <glyph glyph-name="unidf" unicode="&#xdf;" d="M124 0L-1 0L80 426Q106 561 162.50 630.50Q219 700 328 700Q372 700 404.50 686Q437 672 453.50 649.50Q470 627 477.50 604Q485 581 485 558Q485 491 445 453Q383 420 383 373Q383 341 407 301Q444 239 444 175Q444 87 390 39.50Q336-8 253-8Q197-8 168 5L193 97Q219 85 249 85Q279 85 299 104Q319 123 319 156Q319 190 296 233Q274 273 266 295.50Q258 318 258 346Q258 390 283.50 424.50Q309 459 344 479Q365 505 365 551Q365 570 353 586.50Q341 603 315 603Q239 603 210 455L124 0Z"  horiz-adv-x="478" vert-adv-y="1000"  />

      
      <glyph glyph-name="unie0" unicode="&#xe0;" d="M354 0L246 0Q246 12 247.50 39Q249 66 250 82L247 82Q193-8 122-8Q70-8 43 32Q16 72 16 138Q16 198 31.50 257.50Q47 317 78.50 372.50Q110 428 167.50 462.50Q225 497 300 497Q373 497 429 477L374 204Q354 111 354 0M259 240L291 401Q276 404 265 404Q227 404 196.50 359Q166 314 152.50 261.50Q139 209 138 168Q138 95 175 95Q201 95 223.50 134Q246 173 259 240M177 687L291 687L338 547L256 547L177 687Z"  horiz-adv-x="426" vert-adv-y="1000"  />

      
      <glyph glyph-name="unie1" unicode="&#xe1;" d="M354 0L246 0Q246 12 247.50 39Q249 66 250 82L247 82Q193-8 122-8Q70-8 43 32Q16 72 16 138Q16 198 31.50 257.50Q47 317 78.50 372.50Q110 428 167.50 462.50Q225 497 300 497Q373 497 429 477L374 204Q354 111 354 0M259 240L291 401Q276 404 265 404Q227 404 196.50 359Q166 314 152.50 261.50Q139 209 138 168Q138 95 175 95Q201 95 223.50 134Q246 173 259 240M325 687L443 687L321 547L235 547L325 687Z"  horiz-adv-x="426" vert-adv-y="1000"  />

      
      <glyph glyph-name="unie2" unicode="&#xe2;" d="M354 0L246 0Q246 12 247.50 39Q249 66 250 82L247 82Q193-8 122-8Q70-8 43 32Q16 72 16 138Q16 198 31.50 257.50Q47 317 78.50 372.50Q110 428 167.50 462.50Q225 497 300 497Q373 497 429 477L374 204Q354 111 354 0M259 240L291 401Q276 404 265 404Q227 404 196.50 359Q166 314 152.50 261.50Q139 209 138 168Q138 95 175 95Q201 95 223.50 134Q246 173 259 240M279 687L356 687L416 547L335 547L310 618L308 618L257 547L171 547L279 687Z"  horiz-adv-x="426" vert-adv-y="1000"  />

      
      <glyph glyph-name="unie3" unicode="&#xe3;" d="M354 0L246 0Q246 12 247.50 39Q249 66 250 82L247 82Q193-8 122-8Q70-8 43 32Q16 72 16 138Q16 198 31.50 257.50Q47 317 78.50 372.50Q110 428 167.50 462.50Q225 497 300 497Q373 497 429 477L374 204Q354 111 354 0M259 240L291 401Q276 404 265 404Q227 404 196.50 359Q166 314 152.50 261.50Q139 209 138 168Q138 95 175 95Q201 95 223.50 134Q246 173 259 240M227 562L166 562Q179 674 247 674Q270 674 300 657Q325 638 331 638Q347 638 355 678L414 678Q399 569 333 569Q306 569 283 584Q258 604 249 604Q233 604 227 562Z"  horiz-adv-x="426" vert-adv-y="1000"  />

      
      <glyph glyph-name="unie4" unicode="&#xe4;" d="M354 0L246 0Q246 12 247.50 39Q249 66 250 82L247 82Q193-8 122-8Q70-8 43 32Q16 72 16 138Q16 198 31.50 257.50Q47 317 78.50 372.50Q110 428 167.50 462.50Q225 497 300 497Q373 497 429 477L374 204Q354 111 354 0M259 240L291 401Q276 404 265 404Q227 404 196.50 359Q166 314 152.50 261.50Q139 209 138 168Q138 95 175 95Q201 95 223.50 134Q246 173 259 240M204 553L203 553Q178 553 161 571Q144 589 144 618Q144 646 162 665Q180 684 205 684Q232 684 248.50 666Q265 648 265 620Q265 591 248 572Q231 553 204 553M376 553L375 553Q350 553 333 571Q316 589 316 618Q316 646 334 665Q352 684 377 684Q404 684 420.50 666Q437 648 437 620Q437 591 420 572Q403 553 376 553Z"  horiz-adv-x="426" vert-adv-y="1000"  />

      
      <glyph glyph-name="unie5" unicode="&#xe5;" d="M354 0L246 0Q246 12 247.50 39Q249 66 250 82L247 82Q193-8 122-8Q70-8 43 32Q16 72 16 138Q16 198 31.50 257.50Q47 317 78.50 372.50Q110 428 167.50 462.50Q225 497 300 497Q373 497 429 477L374 204Q354 111 354 0M259 240L291 401Q276 404 265 404Q227 404 196.50 359Q166 314 152.50 261.50Q139 209 138 168Q138 95 175 95Q201 95 223.50 134Q246 173 259 240M292 721L293 721Q339 721 364.50 697Q390 673 390 632Q390 591 362 565Q334 539 290 539Q244 539 217.50 563.50Q191 588 191 626Q191 668 218 694.50Q245 721 292 721M291 678L290 678Q270 678 259 662.50Q248 647 248 627Q248 611 258 596.50Q268 582 289 582Q311 582 322 597Q333 612 333 631Q333 678 291 678Z"  horiz-adv-x="426" vert-adv-y="1000"  />

      
      <glyph glyph-name="unie6" unicode="&#xe6;" d="M526 112L533 21Q480-8 391-8Q346-8 310.50 13Q275 34 260 71L257 71Q208-8 116-8Q62-8 30.50 29Q-1 66-1 117Q-1 214 72 263.50Q145 313 241 308L245 331Q250 361 232.50 382.50Q215 404 181 404Q131 404 82 375L65 461Q128 497 199 497Q298 497 325 420L328 420Q379 497 468 497Q526 497 558.50 461Q591 425 591 373Q591 288 526 247Q461 206 347 212Q337 160 347 132Q364 89 428 89Q473 89 526 112M216 165L228 225Q180 229 145.50 207Q111 185 111 135Q111 115 121.50 101Q132 87 149 87Q200 87 216 165M479 357L479 358Q479 374 469.50 386.50Q460 399 442 399Q413 399 390 368Q367 337 360 296Q479 289 479 357Z"  horiz-adv-x="588" vert-adv-y="1000"  />

      
      <glyph glyph-name="unie7" unicode="&#xe7;" d="M268 107L260 8Q235-2 198-5L170-44Q195-50 209.50-69Q224-88 224-109Q224-156 189-179.50Q154-203 112-203Q68-203 46-185L67-134Q93-147 118-147Q132-147 143-139.50Q154-132 154-117Q156-83 92-77L141-3Q81 8 50.50 56.50Q20 105 20 169Q20 303 94.50 399Q169 495 282 495Q322 495 344 486L313 383Q294 389 277 389Q223 389 184.50 327.50Q146 266 146 187Q146 144 162 120Q178 96 208 96Q233 96 268 107Z"  horiz-adv-x="310" vert-adv-y="1000"  />

      
      <glyph glyph-name="unie8" unicode="&#xe8;" d="M319 116L327 21Q262-6 187-6Q101-6 60.50 44Q20 94 20 178Q20 233 35 288Q50 343 78.50 390.50Q107 438 153 467.50Q199 497 255 497Q318 497 350.50 457.50Q383 418 384 363Q384 268 317 224.50Q250 181 141 184Q141 147 153 127Q172 92 220 92Q268 92 319 116M274 352L274 353Q274 396 239 396Q211 396 187.50 363.50Q164 331 153 278Q205 276 239.50 295.50Q274 315 274 352M154 687L268 687L315 547L233 547L154 687Z"  horiz-adv-x="384" vert-adv-y="1000"  />

      
      <glyph glyph-name="unie9" unicode="&#xe9;" d="M319 116L327 21Q262-6 187-6Q101-6 60.50 44Q20 94 20 178Q20 233 35 288Q50 343 78.50 390.50Q107 438 153 467.50Q199 497 255 497Q318 497 350.50 457.50Q383 418 384 363Q384 268 317 224.50Q250 181 141 184Q141 147 153 127Q172 92 220 92Q268 92 319 116M274 352L274 353Q274 396 239 396Q211 396 187.50 363.50Q164 331 153 278Q205 276 239.50 295.50Q274 315 274 352M307 687L425 687L303 547L217 547L307 687Z"  horiz-adv-x="384" vert-adv-y="1000"  />

      
      <glyph glyph-name="uniea" unicode="&#xea;" d="M319 116L327 21Q262-6 187-6Q101-6 60.50 44Q20 94 20 178Q20 233 35 288Q50 343 78.50 390.50Q107 438 153 467.50Q199 497 255 497Q318 497 350.50 457.50Q383 418 384 363Q384 268 317 224.50Q250 181 141 184Q141 147 153 127Q172 92 220 92Q268 92 319 116M274 352L274 353Q274 396 239 396Q211 396 187.50 363.50Q164 331 153 278Q205 276 239.50 295.50Q274 315 274 352M252 687L329 687L389 547L308 547L283 618L281 618L230 547L144 547L252 687Z"  horiz-adv-x="384" vert-adv-y="1000"  />

      
      <glyph glyph-name="unieb" unicode="&#xeb;" d="M319 116L327 21Q262-6 187-6Q101-6 60.50 44Q20 94 20 178Q20 233 35 288Q50 343 78.50 390.50Q107 438 153 467.50Q199 497 255 497Q318 497 350.50 457.50Q383 418 384 363Q384 268 317 224.50Q250 181 141 184Q141 147 153 127Q172 92 220 92Q268 92 319 116M274 352L274 353Q274 396 239 396Q211 396 187.50 363.50Q164 331 153 278Q205 276 239.50 295.50Q274 315 274 352M198 553L197 553Q172 553 155 571Q138 589 138 618Q138 646 156 665Q174 684 199 684Q226 684 242.50 666Q259 648 259 620Q259 591 242 572Q225 553 198 553M370 553L369 553Q344 553 327 571Q310 589 310 618Q310 646 328 665Q346 684 371 684Q398 684 414.50 666Q431 648 431 620Q431 591 414 572Q397 553 370 553Z"  horiz-adv-x="384" vert-adv-y="1000"  />

      
      <glyph glyph-name="uniec" unicode="&#xec;" d="M124 0L-1 0L93 489L218 489L124 0M51 687L165 687L212 547L130 547L51 687Z"  horiz-adv-x="218" vert-adv-y="1000"  />

      
      <glyph glyph-name="unied" unicode="&#xed;" d="M124 0L-1 0L93 489L218 489L124 0M208 687L326 687L204 547L118 547L208 687Z"  horiz-adv-x="218" vert-adv-y="1000"  />

      
      <glyph glyph-name="uniee" unicode="&#xee;" d="M124 0L-1 0L93 489L218 489L124 0M153 687L230 687L290 547L209 547L184 618L182 618L131 547L45 547L153 687Z"  horiz-adv-x="218" vert-adv-y="1000"  />

      
      <glyph glyph-name="unief" unicode="&#xef;" d="M124 0L-1 0L93 489L218 489L124 0M96 553L95 553Q70 553 53 571Q36 589 36 618Q36 646 54 665Q72 684 97 684Q124 684 140.50 666Q157 648 157 620Q157 591 140 572Q123 553 96 553M268 553L267 553Q242 553 225 571Q208 589 208 618Q208 646 226 665Q244 684 269 684Q296 684 312.50 666Q329 648 329 620Q329 591 312 572Q295 553 268 553Z"  horiz-adv-x="218" vert-adv-y="1000"  />

      
      <glyph glyph-name="unif0" unicode="&#xf0;" d="M180 86L181 86Q244 86 271 265Q282 334 282 358Q280 398 243 398Q213 398 189 357.50Q165 317 153.50 262Q142 207 143 155Q143 86 180 86M140 497L116 544L220 594Q204 615 164 653L238 712Q289 681 318 639L404 684L426 636L346 597Q404 506 404 369Q404 214 341 103Q278-8 178-8Q20-8 20 174Q20 243 40.50 307.50Q61 372 108 422.50Q155 473 219 482Q252 487 276 476L275 481Q268 523 249 552L140 497Z"  horiz-adv-x="419" vert-adv-y="1000"  />

      
      <glyph glyph-name="unif1" unicode="&#xf1;" d="M125 0L0 0L63 330Q69 360 88 489L195 489L190 426L192 426Q246 497 324 497Q373 497 396 467.50Q419 438 419 390Q419 359 408 297L352 0L227 0L284 304Q290 330 290 356Q290 395 260 395Q236 395 211 359.50Q186 324 174 259L125 0M222 562L161 562Q174 674 242 674Q265 674 295 657Q320 638 326 638Q342 638 350 678L409 678Q394 569 328 569Q300 569 278 584Q253 604 244 604Q228 604 222 562Z"  horiz-adv-x="443" vert-adv-y="1000"  />

      
      <glyph glyph-name="unif2" unicode="&#xf2;" d="M171-8L170-8Q126-8 95 7.50Q64 23 48.50 50Q33 77 26.50 104Q20 131 20 161Q20 245 48 321Q76 397 132 447Q188 497 259 497Q400 497 400 325Q400 246 374.50 171Q349 96 295 44Q241-8 171-8M182 87L183 87Q224 87 250.50 174Q277 261 277 341Q277 402 238 402Q200 402 171 320Q142 238 143 166Q143 143 144.50 129Q146 115 155.50 101Q165 87 182 87M152 687L266 687L313 547L231 547L152 687Z"  horiz-adv-x="417" vert-adv-y="1000"  />

      
      <glyph glyph-name="unif3" unicode="&#xf3;" d="M171-8L170-8Q126-8 95 7.50Q64 23 48.50 50Q33 77 26.50 104Q20 131 20 161Q20 245 48 321Q76 397 132 447Q188 497 259 497Q400 497 400 325Q400 246 374.50 171Q349 96 295 44Q241-8 171-8M182 87L183 87Q224 87 250.50 174Q277 261 277 341Q277 402 238 402Q200 402 171 320Q142 238 143 166Q143 143 144.50 129Q146 115 155.50 101Q165 87 182 87M297 687L415 687L293 547L207 547L297 687Z"  horiz-adv-x="417" vert-adv-y="1000"  />

      
      <glyph glyph-name="unif4" unicode="&#xf4;" d="M171-8L170-8Q126-8 95 7.50Q64 23 48.50 50Q33 77 26.50 104Q20 131 20 161Q20 245 48 321Q76 397 132 447Q188 497 259 497Q400 497 400 325Q400 246 374.50 171Q349 96 295 44Q241-8 171-8M182 87L183 87Q224 87 250.50 174Q277 261 277 341Q277 402 238 402Q200 402 171 320Q142 238 143 166Q143 143 144.50 129Q146 115 155.50 101Q165 87 182 87M254 687L331 687L391 547L310 547L285 618L283 618L232 547L146 547L254 687Z"  horiz-adv-x="417" vert-adv-y="1000"  />

      
      <glyph glyph-name="unif5" unicode="&#xf5;" d="M171-8L170-8Q126-8 95 7.50Q64 23 48.50 50Q33 77 26.50 104Q20 131 20 161Q20 245 48 321Q76 397 132 447Q188 497 259 497Q400 497 400 325Q400 246 374.50 171Q349 96 295 44Q241-8 171-8M182 87L183 87Q224 87 250.50 174Q277 261 277 341Q277 402 238 402Q200 402 171 320Q142 238 143 166Q143 143 144.50 129Q146 115 155.50 101Q165 87 182 87M209 562L148 562Q161 674 229 674Q252 674 282 657Q307 638 313 638Q329 638 337 678L396 678Q381 569 315 569Q288 569 265 584Q240 604 231 604Q215 604 209 562Z"  horiz-adv-x="417" vert-adv-y="1000"  />

      
      <glyph glyph-name="unif6" unicode="&#xf6;" d="M171-8L170-8Q126-8 95 7.50Q64 23 48.50 50Q33 77 26.50 104Q20 131 20 161Q20 245 48 321Q76 397 132 447Q188 497 259 497Q400 497 400 325Q400 246 374.50 171Q349 96 295 44Q241-8 171-8M182 87L183 87Q224 87 250.50 174Q277 261 277 341Q277 402 238 402Q200 402 171 320Q142 238 143 166Q143 143 144.50 129Q146 115 155.50 101Q165 87 182 87M195 553L194 553Q169 553 152 571Q135 589 135 618Q135 646 153 665Q171 684 196 684Q223 684 239.50 666Q256 648 256 620Q256 591 239 572Q222 553 195 553M367 553L366 553Q341 553 324 571Q307 589 307 618Q307 646 325 665Q343 684 368 684Q395 684 411.50 666Q428 648 428 620Q428 591 411 572Q394 553 367 553Z"  horiz-adv-x="417" vert-adv-y="1000"  />

      
      <glyph glyph-name="unif7" unicode="&#xf7;" d="M302 378L301 378Q276 378 260 395.50Q244 413 244 439Q244 465 260.50 482.50Q277 500 303 500Q329 500 345 483Q361 466 361 439Q361 412 345.50 395Q330 378 302 378M560 226L44 226L44 308L560 308L560 226M302 34L301 34Q276 34 260 51.50Q244 69 244 95Q244 121 260.50 138.50Q277 156 303 156Q329 156 345 139Q361 122 361 95Q361 68 345.50 51Q330 34 302 34Z"  horiz-adv-x="596" vert-adv-y="1000"  />

      
      <glyph glyph-name="unif8" unicode="&#xf8;" d="M32-41L-7-6L43 64Q19 109 19 165Q19 294 85 395.50Q151 497 254 497Q306 497 341 471L386 530L430 500L378 430Q400 384 400 325Q400 193 335 92.50Q270-8 174-8Q112-8 79 21L32-41M144 175L273 379Q266 406 237 406Q200 406 175 348Q150 290 145 229Q143 211 141 177L144 175M275 303L150 112Q155 83 185 83Q220 83 244.50 137Q269 191 274 253Q275 261 276.50 278Q278 295 279 303L275 303Z"  horiz-adv-x="418" vert-adv-y="1000"  />

      
      <glyph glyph-name="unif9" unicode="&#xf9;" d="M312 489L437 489L375 159Q361 87 350 0L242 0L246 66L244 67Q192-8 117-8Q70-8 47 23Q24 54 24 105Q24 143 36 206L89 489L214 489L161 211Q152 157 152 133Q152 94 182 94Q206 94 228 124Q250 154 260 206L312 489M164 687L278 687L325 547L243 547L164 687Z"  horiz-adv-x="439" vert-adv-y="1000"  />

      
      <glyph glyph-name="unifa" unicode="&#xfa;" d="M312 489L437 489L375 159Q361 87 350 0L242 0L246 66L244 67Q192-8 117-8Q70-8 47 23Q24 54 24 105Q24 143 36 206L89 489L214 489L161 211Q152 157 152 133Q152 94 182 94Q206 94 228 124Q250 154 260 206L312 489M311 687L429 687L307 547L221 547L311 687Z"  horiz-adv-x="439" vert-adv-y="1000"  />

      
      <glyph glyph-name="unifb" unicode="&#xfb;" d="M312 489L437 489L375 159Q361 87 350 0L242 0L246 66L244 67Q192-8 117-8Q70-8 47 23Q24 54 24 105Q24 143 36 206L89 489L214 489L161 211Q152 157 152 133Q152 94 182 94Q206 94 228 124Q250 154 260 206L312 489M263 687L340 687L400 547L319 547L294 618L292 618L241 547L155 547L263 687Z"  horiz-adv-x="439" vert-adv-y="1000"  />

      
      <glyph glyph-name="unifc" unicode="&#xfc;" d="M312 489L437 489L375 159Q361 87 350 0L242 0L246 66L244 67Q192-8 117-8Q70-8 47 23Q24 54 24 105Q24 143 36 206L89 489L214 489L161 211Q152 157 152 133Q152 94 182 94Q206 94 228 124Q250 154 260 206L312 489M195 553L194 553Q169 553 152 571Q135 589 135 618Q135 646 153 665Q171 684 196 684Q223 684 239.50 666Q256 648 256 620Q256 591 239 572Q222 553 195 553M367 553L366 553Q341 553 324 571Q307 589 307 618Q307 646 325 665Q343 684 368 684Q395 684 411.50 666Q428 648 428 620Q428 591 411 572Q394 553 367 553Z"  horiz-adv-x="439" vert-adv-y="1000"  />

      
      <glyph glyph-name="unifd" unicode="&#xfd;" d="M47 489L177 489L180 254Q182 169 181 138L183 138Q194 181 219 263L294 489L419 489L260 104Q181-79 97-158Q55-197 13-215L-37-113Q6-89 28-72Q77-35 95 6Q99 18 98 27L47 489M287 687L405 687L283 547L197 547L287 687Z"  horiz-adv-x="381" vert-adv-y="1000"  />

      
      <glyph glyph-name="unife" unicode="&#xfe;" d="M-38-192L127 671L251 671L201 427L203 427Q253 497 314 497Q367 497 392 456Q417 415 416 347Q413 199 345 95.50Q277-8 187-8Q147-8 124 1L121 1L86-192L-38-192M169 261L138 92Q150 81 175 81Q210 81 237.50 126.50Q265 172 276.50 225.50Q288 279 288 323Q288 345 286 357.50Q284 370 276 380.50Q268 391 252 391Q228 391 204 356.50Q180 322 169 261Z"  horiz-adv-x="434" vert-adv-y="1000"  />

      
      <glyph glyph-name="uniff" unicode="&#xff;" d="M47 489L177 489L180 254Q182 169 181 138L183 138Q194 181 219 263L294 489L419 489L260 104Q181-79 97-158Q55-197 13-215L-37-113Q6-89 28-72Q77-35 95 6Q99 18 98 27L47 489M167 553L166 553Q141 553 124 571Q107 589 107 618Q107 646 125 665Q143 684 168 684Q195 684 211.50 666Q228 648 228 620Q228 591 211 572Q194 553 167 553M339 553L338 553Q313 553 296 571Q279 589 279 618Q279 646 297 665Q315 684 340 684Q367 684 383.50 666Q400 648 400 620Q400 591 383 572Q366 553 339 553Z"  horiz-adv-x="381" vert-adv-y="1000"  />

      
      <glyph glyph-name="uni0100" unicode="&#x0100;" d="M270 156L144 156L86 0L-36 0L237 674L382 674L389 0L268 0L270 156M174 248L273 248L276 397Q282 527 283 560L281 560Q237 420 229 398L174 248M219 808L440 808L425 736L204 736L219 808Z"  horiz-adv-x="445" vert-adv-y="1000"  />

      
      <glyph glyph-name="uni0101" unicode="&#x0101;" d="M354 0L246 0Q246 12 247.50 39Q249 66 250 82L247 82Q193-8 122-8Q70-8 43 32Q16 72 16 138Q16 198 31.50 257.50Q47 317 78.50 372.50Q110 428 167.50 462.50Q225 497 300 497Q373 497 429 477L374 204Q354 111 354 0M259 240L291 401Q276 404 265 404Q227 404 196.50 359Q166 314 152.50 261.50Q139 209 138 168Q138 95 175 95Q201 95 223.50 134Q246 173 259 240M193 653L397 653L381 585L177 585L193 653Z"  horiz-adv-x="426" vert-adv-y="1000"  />

      
      <glyph glyph-name="uni0102" unicode="&#x0102;" d="M270 156L144 156L86 0L-36 0L237 674L382 674L389 0L268 0L270 156M174 248L273 248L276 397Q282 527 283 560L281 560Q237 420 229 398L174 248M209 825L276 825Q274 807 287 792Q300 777 324 777Q350 777 366.50 791.50Q383 806 386 825L458 825Q437 711 318 711Q259 711 230 743Q201 775 209 825Z"  horiz-adv-x="445" vert-adv-y="1000"  />

      
      <glyph glyph-name="uni0103" unicode="&#x0103;" d="M354 0L246 0Q246 12 247.50 39Q249 66 250 82L247 82Q193-8 122-8Q70-8 43 32Q16 72 16 138Q16 198 31.50 257.50Q47 317 78.50 372.50Q110 428 167.50 462.50Q225 497 300 497Q373 497 429 477L374 204Q354 111 354 0M259 240L291 401Q276 404 265 404Q227 404 196.50 359Q166 314 152.50 261.50Q139 209 138 168Q138 95 175 95Q201 95 223.50 134Q246 173 259 240M182 674L243 674Q248 618 289 618Q335 618 347 674L413 674Q406 615 372 583.50Q338 552 285 552Q228 552 201 585Q174 618 182 674Z"  horiz-adv-x="426" vert-adv-y="1000"  />

      
      <glyph glyph-name="uni0104" unicode="&#x0104;" d="M383 674L389 0L347 0Q308-56 308-89Q308-105 317.50-113.50Q327-122 341-122Q366-122 386-114L401-177Q368-206 310-206Q266-206 242-183Q218-160 218-116Q218-68 268 4L270 156L145 156L86 0L-36 0L237 674L383 674M175 248L274 248L277 397Q277 415 279.50 474Q282 533 283 560L281 560Q237 420 229 398L175 248Z"  horiz-adv-x="445" vert-adv-y="1000"  />

      
      <glyph glyph-name="uni0105" unicode="&#x0105;" d="M429 477L374 204Q354 111 354 0L326 0Q286-48 286-89Q286-122 320-122Q344-122 364-114L380-177Q346-206 288-206Q244-206 220-183Q196-160 196-116Q196-68 246 4Q246 15 247.50 41Q249 67 250 82L247 82Q193-8 122-8Q70-8 43 32Q16 72 16 138Q16 198 31.50 257.50Q47 317 78.50 372.50Q110 428 167.50 462.50Q225 497 300 497Q373 497 429 477M259 239L291 401Q276 404 265 404Q227 404 196.50 359Q166 314 152.50 261.50Q139 209 138 168Q138 95 175 95Q201 95 223.50 134Q246 173 259 239Z"  horiz-adv-x="426" vert-adv-y="1000"  />

      
      <glyph glyph-name="uni0106" unicode="&#x0106;" d="M330 118L326 7Q290-6 233-6Q173-6 131.50 18Q90 42 71 81Q52 120 45 154Q38 188 38 224Q38 465 166 595Q248 680 367 680Q424 680 443 666L408 556Q386 566 350 566Q294 566 249 510Q171 412 171 252Q171 107 262 107Q305 107 330 118M370 835L500 835L347 710L256 710L370 835Z"  horiz-adv-x="384" vert-adv-y="1000"  />

      
      <glyph glyph-name="uni0107" unicode="&#x0107;" d="M269 107L261 7Q228-6 173-6Q97-6 58.50 45Q20 96 20 169Q20 303 95 399Q170 495 283 495Q323 495 345 486L314 384Q292 389 278 389Q224 389 185 327.50Q146 266 146 187Q146 144 162.50 120Q179 96 209 96Q234 96 269 107M280 687L398 687L276 547L190 547L280 687Z"  horiz-adv-x="308" vert-adv-y="1000"  />

      
      <glyph glyph-name="uni0108" unicode="&#x0108;" d="M330 118L326 7Q290-6 233-6Q173-6 131.50 18Q90 42 71 81Q52 120 45 154Q38 188 38 224Q38 465 166 595Q248 680 367 680Q424 680 443 666L408 556Q386 566 350 566Q294 566 249 510Q171 412 171 252Q171 107 262 107Q305 107 330 118M306 835L388 835L455 710L366 710L339 770L337 770L287 710L192 710L306 835Z"  horiz-adv-x="384" vert-adv-y="1000"  />

      
      <glyph glyph-name="uni0109" unicode="&#x0109;" d="M269 107L261 7Q228-6 173-6Q97-6 58.50 45Q20 96 20 169Q20 303 95 399Q170 495 283 495Q323 495 345 486L314 384Q292 389 278 389Q224 389 185 327.50Q146 266 146 187Q146 144 162.50 120Q179 96 209 96Q234 96 269 107M219 687L296 687L356 547L275 547L250 618L248 618L197 547L111 547L219 687Z"  horiz-adv-x="308" vert-adv-y="1000"  />

      
      <glyph glyph-name="uni010A" unicode="&#x010A;" d="M330 118L326 7Q290-6 233-6Q173-6 131.50 18Q90 42 71 81Q52 120 45 154Q38 188 38 224Q38 465 166 595Q248 680 367 680Q424 680 443 666L408 556Q386 566 350 566Q294 566 249 510Q171 412 171 252Q171 107 262 107Q305 107 330 118M335 714L334 714Q309 714 290.50 733.50Q272 753 272 779Q272 806 291.50 825.50Q311 845 337 845Q364 845 382 826Q400 807 400 781Q400 754 381 734Q362 714 335 714Z"  horiz-adv-x="384" vert-adv-y="1000"  />

      
      <glyph glyph-name="uni010B" unicode="&#x010B;" d="M269 107L261 7Q228-6 173-6Q97-6 58.50 45Q20 96 20 169Q20 303 95 399Q170 495 283 495Q323 495 345 486L314 384Q292 389 278 389Q224 389 185 327.50Q146 266 146 187Q146 144 162.50 120Q179 96 209 96Q234 96 269 107M266 553L265 553Q240 553 223 571Q206 589 206 618Q206 646 224 665Q242 684 267 684Q294 684 310.50 666Q327 648 327 620Q327 591 310 572Q293 553 266 553Z"  horiz-adv-x="308" vert-adv-y="1000"  />

      
      <glyph glyph-name="uni010C" unicode="&#x010C;" d="M330 118L326 7Q290-6 233-6Q173-6 131.50 18Q90 42 71 81Q52 120 45 154Q38 188 38 224Q38 465 166 595Q248 680 367 680Q424 680 443 666L408 556Q386 566 350 566Q294 566 249 510Q171 412 171 252Q171 107 262 107Q305 107 330 118M365 710L282 710L216 834L305 834L332 775L334 775L383 834L479 834L365 710Z"  horiz-adv-x="384" vert-adv-y="1000"  />

      
      <glyph glyph-name="uni010D" unicode="&#x010D;" d="M269 107L261 7Q228-6 173-6Q97-6 58.50 45Q20 96 20 169Q20 303 95 399Q170 495 283 495Q323 495 345 486L314 384Q292 389 278 389Q224 389 185 327.50Q146 266 146 187Q146 144 162.50 120Q179 96 209 96Q234 96 269 107M283 547L206 547L146 687L227 687L252 616L254 616L305 687L391 687L283 547Z"  horiz-adv-x="308" vert-adv-y="1000"  />

      
      <glyph glyph-name="uni010E" unicode="&#x010E;" d="M16 10L140 665Q208 677 269 677Q380 677 436 608Q485 546 485 433Q485 313 441 210Q397 107 340 61Q263-3 137-3Q61-3 16 10M245 574L154 106Q181 103 187 103Q219 103 251 127.50Q283 152 304 196Q357 305 357 445Q357 501 337 538.50Q317 576 273 576Q251 576 245 574M328 710L245 710L179 834L268 834L295 775L297 775L346 834L442 834L328 710Z"  horiz-adv-x="481" vert-adv-y="1000"  />

      
      <glyph glyph-name="uni010F" unicode="&#x010F;" d="M343 692L468 692L367 161Q350 72 343 0L240 0L246 71L244 71Q222 34 190 13Q158-8 126-8Q74-8 45 33.50Q16 75 16 144Q16 231 44.50 311Q73 391 130 444Q187 497 259 497Q283 497 304 485L343 692M250 185L287 390Q275 402 256 402Q230 402 207.50 376.50Q185 351 170.50 314Q156 277 148 237.50Q140 198 140 167Q140 95 181 95Q224 95 250 185M500 517L476 569Q520 592 520 636Q520 666 502 684L586 700Q611 679 611 641Q611 589 574 556Q537 523 500 517Z"  horiz-adv-x="430" vert-adv-y="1000"  />

      
      <glyph glyph-name="uni0110" unicode="&#x0110;" d="M14 303L31 394L91 394L142 664Q201 677 270 677Q389 677 441 606Q487 542 487 426Q487 301 444 205Q401 109 342 61Q265-3 138-3Q68-3 18 10L74 303L14 303M288 394L271 303L194 303L156 108Q171 103 190 103Q221 103 253 127.50Q285 152 306 196Q359 307 359 437Q359 497 339.50 536.50Q320 576 275 576Q254 576 247 571L212 394L288 394Z"  horiz-adv-x="484" vert-adv-y="1000"  />

      
      <glyph glyph-name="uni0111" unicode="&#x0111;" d="M249 184L287 390Q275 402 256 402Q230 402 207.50 376.50Q185 351 170.50 314Q156 277 148 237.50Q140 198 140 167Q140 95 181 95Q202 95 220 119.50Q238 144 249 184M203 615L328 615L342 692L467 692L453 615L513 615L499 537L438 537L366 161Q353 93 342 0L240 0L246 71L244 71Q222 34 190 13Q158-8 126-8Q74-8 45 33.50Q16 75 16 144Q16 231 44.50 311Q73 391 130 444Q187 497 259 497Q284 497 303 485L313 537L188 537L203 615Z"  horiz-adv-x="428" vert-adv-y="1000"  />

      
      <glyph glyph-name="uni0112" unicode="&#x0112;" d="M365 403L345 298L196 298L159 111L330 111L308 0L14 0L143 674L425 674L403 564L248 564L215 403L365 403M190 808L411 808L396 736L175 736L190 808Z"  horiz-adv-x="387" vert-adv-y="1000"  />

      
      <glyph glyph-name="uni0113" unicode="&#x0113;" d="M319 116L327 21Q262-6 187-6Q101-6 60.50 44Q20 94 20 178Q20 233 35 288Q50 343 78.50 390.50Q107 438 153 467.50Q199 497 255 497Q318 497 350.50 457.50Q383 418 384 363Q384 268 317 224.50Q250 181 141 184Q141 147 153 127Q172 92 220 92Q268 92 319 116M274 352L274 353Q274 396 239 396Q211 396 187.50 363.50Q164 331 153 278Q205 276 239.50 295.50Q274 315 274 352M169 653L373 653L357 585L153 585L169 653Z"  horiz-adv-x="384" vert-adv-y="1000"  />

      
      <glyph glyph-name="uni0114" unicode="&#x0114;" d="M365 403L345 298L196 298L159 111L330 111L308 0L14 0L143 674L425 674L403 564L248 564L215 403L365 403M181 826L248 826Q246 808 259 793Q272 778 296 778Q322 778 338.50 792.50Q355 807 358 826L430 826Q409 712 290 712Q231 712 202 744Q173 776 181 826Z"  horiz-adv-x="387" vert-adv-y="1000"  />

      
      <glyph glyph-name="uni0115" unicode="&#x0115;" d="M319 116L327 21Q262-6 187-6Q101-6 60.50 44Q20 94 20 178Q20 233 35 288Q50 343 78.50 390.50Q107 438 153 467.50Q199 497 255 497Q318 497 350.50 457.50Q383 418 384 363Q384 268 317 224.50Q250 181 141 184Q141 147 153 127Q172 92 220 92Q268 92 319 116M274 352L274 353Q274 396 239 396Q211 396 187.50 363.50Q164 331 153 278Q205 276 239.50 295.50Q274 315 274 352M158 674L219 674Q224 618 265 618Q311 618 323 674L389 674Q382 615 348 583.50Q314 552 261 552Q204 552 177 585Q150 618 158 674Z"  horiz-adv-x="384" vert-adv-y="1000"  />

      
      <glyph glyph-name="uni0116" unicode="&#x0116;" d="M365 403L345 298L196 298L159 111L330 111L308 0L14 0L143 674L425 674L403 564L248 564L215 403L365 403M290 714L289 714Q264 714 245.50 733.50Q227 753 227 779Q227 806 246.50 825.50Q266 845 292 845Q319 845 337 826Q355 807 355 781Q355 754 336 734Q317 714 290 714Z"  horiz-adv-x="387" vert-adv-y="1000"  />

      
      <glyph glyph-name="uni0117" unicode="&#x0117;" d="M319 116L327 21Q262-6 187-6Q101-6 60.50 44Q20 94 20 178Q20 233 35 288Q50 343 78.50 390.50Q107 438 153 467.50Q199 497 255 497Q318 497 350.50 457.50Q383 418 384 363Q384 268 317 224.50Q250 181 141 184Q141 147 153 127Q172 92 220 92Q268 92 319 116M274 352L274 353Q274 396 239 396Q211 396 187.50 363.50Q164 331 153 278Q205 276 239.50 295.50Q274 315 274 352M266 553L265 553Q240 553 223 571Q206 589 206 618Q206 646 224 665Q242 684 267 684Q294 684 310.50 666Q327 648 327 620Q327 591 310 572Q293 553 266 553Z"  horiz-adv-x="384" vert-adv-y="1000"  />

      
      <glyph glyph-name="uni0118" unicode="&#x0118;" d="M15 0L143 674L426 674L404 564L249 564L216 403L366 403L346 298L197 298L160 111L330 111L308 0L292 0Q233-56 233-90Q233-105 242.50-113.50Q252-122 266-122Q288-122 311-115L327-178Q290-206 233-206Q190-206 166.50-184.50Q143-163 143-124Q143-63 211 0L15 0Z"  horiz-adv-x="387" vert-adv-y="1000"  />

      
      <glyph glyph-name="uni0119" unicode="&#x0119;" d="M274 352L274 353Q274 396 239 396Q211 396 187.50 363.50Q164 331 153 278Q205 276 239.50 295.50Q274 315 274 352M264-111L281-174Q244-203 187-203Q144-203 120.50-181Q97-159 97-120Q97-87 120-56Q143-25 175-6L175-5Q165-5 160-4Q88 2 54 51Q20 100 20 178Q20 233 35 288Q50 343 78.50 390.50Q107 438 153 467.50Q199 497 255 497Q318 497 351 457.50Q384 418 384 363Q385 268 318 224.50Q251 181 141 184Q139 150 153 128Q172 92 220 92Q269 92 319 117L327 22Q303 12 278 6Q187-45 187-86Q187-119 220-119Q246-119 264-111Z"  horiz-adv-x="384" vert-adv-y="1000"  />

      
      <glyph glyph-name="uni011A" unicode="&#x011A;" d="M365 403L345 298L196 298L159 111L330 111L308 0L14 0L143 674L425 674L403 564L248 564L215 403L365 403M323 710L240 710L174 834L263 834L290 775L292 775L341 834L437 834L323 710Z"  horiz-adv-x="387" vert-adv-y="1000"  />

      
      <glyph glyph-name="uni011B" unicode="&#x011B;" d="M319 116L327 21Q262-6 187-6Q101-6 60.50 44Q20 94 20 178Q20 233 35 288Q50 343 78.50 390.50Q107 438 153 467.50Q199 497 255 497Q318 497 350.50 457.50Q383 418 384 363Q384 268 317 224.50Q250 181 141 184Q141 147 153 127Q172 92 220 92Q268 92 319 116M274 352L274 353Q274 396 239 396Q211 396 187.50 363.50Q164 331 153 278Q205 276 239.50 295.50Q274 315 274 352M294 547L217 547L157 687L238 687L263 616L265 616L316 687L402 687L294 547Z"  horiz-adv-x="384" vert-adv-y="1000"  />

      
      <glyph glyph-name="uni011C" unicode="&#x011C;" d="M452 374L385 19Q319-6 252-6Q143-6 89 64Q39 126 39 232Q39 336 72.50 430Q106 524 166 588Q253 680 384 680Q442 680 491 663L452 552Q422 566 378 566Q311 566 266 521Q223 478 196.50 401.50Q170 325 170 234Q170 102 251 102Q272 102 287 106L318 273L258 273L278 374L452 374M335 835L417 835L484 710L395 710L368 770L366 770L316 710L221 710L335 835Z"  horiz-adv-x="469" vert-adv-y="1000"  />

      
      <glyph glyph-name="uni011D" unicode="&#x011D;" d="M-7-178L25-83Q61-103 103-103Q198-103 222 14L234 72L232 72Q186 1 122 1Q73 1 47 40.50Q21 80 19 141Q18 200 35 261.50Q52 323 84 376.50Q116 430 169.50 463.50Q223 497 287 497Q368 497 426 467L347 51Q322-84 263-142Q205-200 98-200Q28-200-7-178M256 207L291 395Q282 400 265 400Q215 400 179.50 324.50Q144 249 143 177Q143 100 181 100Q207 100 228 135Q249 170 256 207M260 687L337 687L397 547L316 547L291 618L289 618L238 547L152 547L260 687Z"  horiz-adv-x="428" vert-adv-y="1000"  />

      
      <glyph glyph-name="uni011E" unicode="&#x011E;" d="M452 374L385 19Q319-6 252-6Q143-6 89 64Q39 126 39 232Q39 336 72.50 430Q106 524 166 588Q253 680 384 680Q442 680 491 663L452 552Q422 566 378 566Q311 566 266 521Q223 478 196.50 401.50Q170 325 170 234Q170 102 251 102Q272 102 287 106L318 273L258 273L278 374L452 374M245 837L312 837Q310 819 323 804Q336 789 360 789Q386 789 402.50 803.50Q419 818 422 837L494 837Q473 723 354 723Q295 723 266 755Q237 787 245 837Z"  horiz-adv-x="469" vert-adv-y="1000"  />

      
      <glyph glyph-name="uni011F" unicode="&#x011F;" d="M-7-178L25-83Q61-103 103-103Q198-103 222 14L234 72L232 72Q186 1 122 1Q73 1 47 40.50Q21 80 19 141Q18 200 35 261.50Q52 323 84 376.50Q116 430 169.50 463.50Q223 497 287 497Q368 497 426 467L347 51Q322-84 263-142Q205-200 98-200Q28-200-7-178M256 207L291 395Q282 400 265 400Q215 400 179.50 324.50Q144 249 143 177Q143 100 181 100Q207 100 228 135Q249 170 256 207M180 674L241 674Q246 618 287 618Q333 618 345 674L411 674Q404 615 370 583.50Q336 552 283 552Q226 552 199 585Q172 618 180 674Z"  horiz-adv-x="428" vert-adv-y="1000"  />

      
      <glyph glyph-name="uni0120" unicode="&#x0120;" d="M452 374L385 19Q319-6 252-6Q143-6 89 64Q39 126 39 232Q39 336 72.50 430Q106 524 166 588Q253 680 384 680Q442 680 491 663L452 552Q422 566 378 566Q311 566 266 521Q223 478 196.50 401.50Q170 325 170 234Q170 102 251 102Q272 102 287 106L318 273L258 273L278 374L452 374M362 714L361 714Q336 714 317.50 733.50Q299 753 299 779Q299 806 318.50 825.50Q338 845 364 845Q391 845 409 826Q427 807 427 781Q427 754 408 734Q389 714 362 714Z"  horiz-adv-x="469" vert-adv-y="1000"  />

      
      <glyph glyph-name="uni0121" unicode="&#x0121;" d="M-7-178L25-83Q61-103 103-103Q198-103 222 14L234 72L232 72Q186 1 122 1Q73 1 47 40.50Q21 80 19 141Q18 200 35 261.50Q52 323 84 376.50Q116 430 169.50 463.50Q223 497 287 497Q368 497 426 467L347 51Q322-84 263-142Q205-200 98-200Q28-200-7-178M256 207L291 395Q282 400 265 400Q215 400 179.50 324.50Q144 249 143 177Q143 100 181 100Q207 100 228 135Q249 170 256 207M288 553L287 553Q262 553 245 571Q228 589 228 618Q228 646 246 665Q264 684 289 684Q316 684 332.50 666Q349 648 349 620Q349 591 332 572Q315 553 288 553Z"  horiz-adv-x="428" vert-adv-y="1000"  />

      
      <glyph glyph-name="uni0122" unicode="&#x0122;" d="M452 374L385 19Q319-6 252-6Q143-6 89 64Q39 126 39 232Q39 336 72.50 430Q106 524 166 588Q253 680 384 680Q442 680 491 663L452 552Q422 566 378 566Q311 566 266 521Q223 478 196.50 401.50Q170 325 170 234Q170 102 251 102Q272 102 287 106L318 273L258 273L278 374L452 374M140-224L124-172Q149-165 166.50-147.50Q184-130 184-106Q184-82 163-57L250-41Q275-62 275-99Q275-152 233-185Q191-218 140-224Z"  horiz-adv-x="469" vert-adv-y="1000"  />

      
      <glyph glyph-name="uni0123" unicode="&#x0123;" d="M-7-178L25-83Q61-103 103-103Q199-103 223 14L235 72L233 72Q187 1 122 1Q73 1 47 40.50Q21 80 19 141Q18 200 35 261.50Q52 323 84 376.50Q116 430 169.50 463.50Q223 497 288 497Q368 497 426 467L348 51Q323-85 263-142Q205-200 98-200Q28-200-7-178M256 207L292 395Q282 400 265 400Q231 400 202 361Q173 322 158.50 271.50Q144 221 143 177Q143 100 181 100Q207 100 228 135Q249 170 256 207M366 709L378 657Q347 651 328.50 633.50Q310 616 310 590Q310 565 331 542L244 526Q219 549 219 584Q219 638 263.50 670.50Q308 703 366 709Z"  horiz-adv-x="428" vert-adv-y="1000"  />

      
      <glyph glyph-name="uni0124" unicode="&#x0124;" d="M143 674L268 674L215 400L352 400L404 674L529 674L400 0L275 0L328 286L193 286L139 0L14 0L143 674M324 835L406 835L473 710L384 710L357 770L355 770L305 710L210 710L324 835Z"  horiz-adv-x="506" vert-adv-y="1000"  />

      
      <glyph glyph-name="uni0125" unicode="&#x0125;" d="M125 0L0 0L131 692L256 692L206 429L208 428Q258 497 331 497Q375 497 397 468Q419 439 419 390Q419 352 408 294L352 0L227 0L283 294Q289 332 289 356Q289 395 260 395Q237 395 213 363.50Q189 332 178 279L125 0M184 843L266 843L333 718L244 718L217 778L215 778L165 718L70 718L184 843Z"  horiz-adv-x="443" vert-adv-y="1000"  />

      
      <glyph glyph-name="uni0126" unicode="&#x0126;" d="M365 469L229 469L212 384L348 384L365 469M67 556L120 556L143 674L268 674L245 556L381 556L404 674L529 674L506 556L552 556L534 469L490 469L400 0L275 0L325 270L190 270L139 0L14 0L104 469L49 469L67 556Z"  horiz-adv-x="506" vert-adv-y="1000"  />

      
      <glyph glyph-name="uni0127" unicode="&#x0127;" d="M57 615L117 615L131 692L256 692L242 616L371 616L356 538L226 538L206 429L208 428Q258 497 331 497Q375 497 397 468Q419 439 419 390Q419 352 408 294L352 0L227 0L283 294Q289 322 289 356Q289 395 260 395Q237 395 213 363.50Q189 332 178 279L125 0L0 0L102 537L43 537L57 615Z"  horiz-adv-x="443" vert-adv-y="1000"  />

      
      <glyph glyph-name="uni0128" unicode="&#x0128;" d="M143 674L268 674L139 0L14 0L143 674M152 712L88 712Q97 767 121 794Q145 821 177 821Q205 821 230 804Q255 786 266 786Q284 786 296 826L359 826Q340 717 267 717Q238 717 212 733Q189 749 177 749Q156 749 152 712Z"  horiz-adv-x="245" vert-adv-y="1000"  />

      
      <glyph glyph-name="uni0129" unicode="&#x0129;" d="M124 0L-1 0L93 489L218 489L124 0M120 562L59 562Q72 674 140 674Q163 674 193 657Q218 638 224 638Q240 638 248 678L307 678Q292 569 226 569Q198 569 176 584Q151 604 142 604Q126 604 120 562Z"  horiz-adv-x="218" vert-adv-y="1000"  />

      
      <glyph glyph-name="uni012A" unicode="&#x012A;" d="M143 674L268 674L139 0L14 0L143 674M115 808L336 808L321 736L100 736L115 808Z"  horiz-adv-x="245" vert-adv-y="1000"  />

      
      <glyph glyph-name="uni012B" unicode="&#x012B;" d="M124 0L-1 0L93 489L218 489L124 0M86 653L290 653L274 585L70 585L86 653Z"  horiz-adv-x="218" vert-adv-y="1000"  />

      
      <glyph glyph-name="uni012C" unicode="&#x012C;" d="M143 674L268 674L139 0L14 0L143 674M109 827L176 827Q174 809 187 794Q200 779 224 779Q250 779 266.50 793.50Q283 808 286 827L358 827Q337 713 218 713Q159 713 130 745Q101 777 109 827Z"  horiz-adv-x="245" vert-adv-y="1000"  />

      
      <glyph glyph-name="uni012D" unicode="&#x012D;" d="M124 0L-1 0L93 489L218 489L124 0M75 674L136 674Q141 618 182 618Q228 618 240 674L306 674Q299 615 265 583.50Q231 552 178 552Q121 552 94 585Q67 618 75 674Z"  horiz-adv-x="218" vert-adv-y="1000"  />

      
      <glyph glyph-name="uni012E" unicode="&#x012E;" d="M268 674L139 0L93 0Q54-49 54-89Q54-105 63.50-113.50Q73-122 87-122Q112-122 132-114L147-177Q114-206 56-206Q12-206-12-183Q-36-160-36-116Q-36-68 14 4L142 674L268 674Z"  horiz-adv-x="245" vert-adv-y="1000"  />

      
      <glyph glyph-name="uni012F" unicode="&#x012F;" d="M174 555L173 555Q141 555 124.50 575.50Q108 596 109 629Q109 662 131 689Q153 716 188 716Q222 716 239 695Q256 674 255 643Q254 603 230.50 579Q207 555 174 555M218 489L124 0L79 0Q39-48 39-89Q39-122 73-122Q97-122 117-114L133-177Q100-206 41-206Q-3-206-27-183Q-51-160-51-116Q-51-68-1 4L93 489L218 489Z"  horiz-adv-x="218" vert-adv-y="1000"  />

      
      <glyph glyph-name="uni0130" unicode="&#x0130;" d="M143 674L268 674L139 0L14 0L143 674M225 714L224 714Q199 714 180.50 733.50Q162 753 162 779Q162 806 181.50 825.50Q201 845 227 845Q254 845 272 826Q290 807 290 781Q290 754 271 734Q252 714 225 714Z"  horiz-adv-x="245" vert-adv-y="1000"  />

      
      <glyph glyph-name="uni0131" unicode="&#x0131;" d="M124 0L-1 0L93 489L218 489L124 0Z"  horiz-adv-x="218" vert-adv-y="1000"  />

      
      <glyph glyph-name="uni0132" unicode="&#x0132;" d="M143 674L268 674L139 0L14 0L143 674M347 196L439 674L564 674L474 201Q451 84 401.50 38Q352-8 264-8Q226-8 203-1L223 110Q243 106 270 106Q330 106 347 196Z"  horiz-adv-x="531" vert-adv-y="1000"  />

      
      <glyph glyph-name="uni0133" unicode="&#x0133;" d="M124 0L-1 0L93 489L218 489L124 0M173 548L172 548Q144 548 130 566.50Q116 585 116 614Q117 644 136 667.50Q155 691 186 691Q215 691 230.50 672Q246 653 245 626Q244 590 223 569Q202 548 173 548M309 489L434 489L347 34Q325-80 296-129Q254-200 154-200Q127-200 100-194L112-101Q128-103 137-103Q168-103 187-78Q206-53 219 17L309 489M388 548L387 548Q359 548 345 566.50Q331 585 331 614Q332 644 351 667.50Q370 691 401 691Q430 691 445.50 672Q461 653 460 626Q459 590 438 569Q417 548 388 548Z"  horiz-adv-x="426" vert-adv-y="1000"  />

      
      <glyph glyph-name="uni0134" unicode="&#x0134;" d="M102 196L194 674L319 674L229 201Q206 84 156.50 38Q107-8 19-8Q-19-8-42-1L-22 110Q-2 106 25 106Q85 106 102 196M238 835L320 835L387 710L298 710L271 770L269 770L219 710L124 710L238 835Z"  horiz-adv-x="286" vert-adv-y="1000"  />

      
      <glyph glyph-name="uni0135" unicode="&#x0135;" d="M91 489L216 489L129 34Q107-80 78-129Q36-200-64-200Q-91-200-118-194L-105-101Q-89-103-80-103Q-50-103-31-78Q-12-53 1 17L91 489M144 687L209 687L269 547L194 547L169 621L167 621L117 547L37 547L144 687Z"  horiz-adv-x="208" vert-adv-y="1000"  />

      
      <glyph glyph-name="uni0136" unicode="&#x0136;" d="M14 0L143 674L264 674L204 358L207 358Q219 383 263 459L389 674L525 674L321 376L398 0L267 0L224 286L180 225L136 0L14 0M101-224L85-172Q110-165 127.50-147.50Q145-130 145-106Q145-82 124-57L211-41Q236-62 236-99Q236-152 194-185Q152-218 101-224Z"  horiz-adv-x="443" vert-adv-y="1000"  />

      
      <glyph glyph-name="uni0137" unicode="&#x0137;" d="M122 0L0 0L132 692L253 692L177 287L179 287Q203 327 213 345L303 489L437 489L280 273L354 0L226 0L183 211L154 169L122 0M77-224L61-172Q86-165 103.50-147.50Q121-130 121-106Q121-82 100-57L187-41Q212-62 212-99Q212-152 170-185Q128-218 77-224Z"  horiz-adv-x="394" vert-adv-y="1000"  />

      
      <glyph glyph-name="uni0138" unicode="&#x0138;" d="M122 0L0 0L93 489L215 489L177 287L179 287Q203 327 213 345L303 489L437 489L280 273L354 0L226 0L183 211L154 169L122 0Z"  horiz-adv-x="394" vert-adv-y="1000"  />

      
      <glyph glyph-name="uni0139" unicode="&#x0139;" d="M14 0L142 674L268 674L159 109L324 109L303 0L14 0M281 835L411 835L258 710L167 710L281 835Z"  horiz-adv-x="351" vert-adv-y="1000"  />

      
      <glyph glyph-name="uni013A" unicode="&#x013A;" d="M124 0L-1 0L131 692L256 692L124 0M256 848L386 848L233 723L142 723L256 848Z"  horiz-adv-x="217" vert-adv-y="1000"  />

      
      <glyph glyph-name="uni013B" unicode="&#x013B;" d="M14 0L142 674L268 674L159 109L324 109L303 0L14 0M64-224L48-172Q73-165 90.50-147.50Q108-130 108-106Q108-82 87-57L174-41Q199-62 199-99Q199-152 157-185Q115-218 64-224Z"  horiz-adv-x="351" vert-adv-y="1000"  />

      
      <glyph glyph-name="uni013C" unicode="&#x013C;" d="M124 0L-1 0L131 692L256 692L124 0M-12-224L-28-172Q-3-165 14.50-147.50Q32-130 32-106Q32-82 11-57L98-41Q123-62 123-99Q123-152 81-185Q39-218-12-224Z"  horiz-adv-x="217" vert-adv-y="1000"  />

      
      <glyph glyph-name="uni013D" unicode="&#x013D;" d="M14 0L142 674L268 674L159 109L324 109L303 0L14 0M285 496L269 548Q294 555 311.50 572.50Q329 590 329 614Q329 638 308 663L395 679Q420 658 420 621Q420 568 378 535Q336 502 285 496Z"  horiz-adv-x="351" vert-adv-y="1000"  />

      
      <glyph glyph-name="uni013E" unicode="&#x013E;" d="M125 0L0 0L131 692L256 692L125 0M294 517L270 569Q314 592 314 636Q314 665 297 684L380 700Q405 679 405 641Q405 590 368 557Q331 524 294 517Z"  horiz-adv-x="217" vert-adv-y="1000"  />

      
      <glyph glyph-name="uni013F" unicode="&#x013F;" d="M14 0L142 674L268 674L159 109L324 109L303 0L14 0M324 302L323 302Q298 302 279.50 321.50Q261 341 261 367Q261 394 280.50 413.50Q300 433 326 433Q353 433 371 414Q389 395 389 369Q389 342 370 322Q351 302 324 302Z"  horiz-adv-x="363" vert-adv-y="1000"  />

      
      <glyph glyph-name="uni0140" unicode="&#x0140;" d="M124 0L-1 0L131 692L256 692L124 0M278 263L277 263Q252 263 235 281Q218 299 218 328Q218 356 236 375Q254 394 279 394Q306 394 322.50 376Q339 358 339 330Q339 301 322 282Q305 263 278 263Z"  horiz-adv-x="319" vert-adv-y="1000"  />

      
      <glyph glyph-name="uni0141" unicode="&#x0141;" d="M306 0L17 0L61 235L-8 188L13 298L82 345L145 674L270 674L224 432L331 508L310 397L202 321L162 109L326 109L306 0Z"  horiz-adv-x="353" vert-adv-y="1000"  />

      
      <glyph glyph-name="uni0142" unicode="&#x0142;" d="M127 0L3 0L55 275L-9 229L12 337L76 384L134 692L259 692L215 462L280 509L259 400L194 353L127 0Z"  horiz-adv-x="222" vert-adv-y="1000"  />

      
      <glyph glyph-name="uni0143" unicode="&#x0143;" d="M121 0L14 0L143 674L257 674L308 406Q335 270 342 197L344 197Q365 394 385 499L419 674L526 674L397 0L291 0L237 251Q213 357 202 475L200 475Q182 324 155 179L121 0M396 835L526 835L373 710L282 710L396 835Z"  horiz-adv-x="503" vert-adv-y="1000"  />

      
      <glyph glyph-name="uni0144" unicode="&#x0144;" d="M125 0L0 0L63 330Q69 360 88 489L195 489L190 426L192 426Q246 497 324 497Q373 497 396 467.50Q419 438 419 390Q419 359 408 297L352 0L227 0L284 304Q290 330 290 356Q290 395 260 395Q236 395 211 359.50Q186 324 174 259L125 0M320 687L438 687L316 547L230 547L320 687Z"  horiz-adv-x="443" vert-adv-y="1000"  />

      
      <glyph glyph-name="uni0145" unicode="&#x0145;" d="M121 0L14 0L143 674L257 674L308 406Q335 270 342 197L344 197Q365 394 385 499L419 674L526 674L397 0L291 0L237 251Q213 357 202 475L200 475Q182 324 155 179L121 0M131-224L115-172Q140-165 157.50-147.50Q175-130 175-106Q175-82 154-57L241-41Q266-62 266-99Q266-152 224-185Q182-218 131-224Z"  horiz-adv-x="503" vert-adv-y="1000"  />

      
      <glyph glyph-name="uni0146" unicode="&#x0146;" d="M125 0L0 0L63 330Q69 360 88 489L195 489L190 426L192 426Q246 497 324 497Q373 497 396 467.50Q419 438 419 390Q419 359 408 297L352 0L227 0L284 304Q290 330 290 356Q290 395 260 395Q236 395 211 359.50Q186 324 174 259L125 0M101-224L85-172Q110-165 127.50-147.50Q145-130 145-106Q145-82 124-57L211-41Q236-62 236-99Q236-152 194-185Q152-218 101-224Z"  horiz-adv-x="443" vert-adv-y="1000"  />

      
      <glyph glyph-name="uni0147" unicode="&#x0147;" d="M121 0L14 0L143 674L257 674L308 406Q335 270 342 197L344 197Q365 394 385 499L419 674L526 674L397 0L291 0L237 251Q213 357 202 475L200 475Q182 324 155 179L121 0M369 710L286 710L220 834L309 834L336 775L338 775L387 834L483 834L369 710Z"  horiz-adv-x="503" vert-adv-y="1000"  />

      
      <glyph glyph-name="uni0148" unicode="&#x0148;" d="M125 0L0 0L63 330Q69 360 88 489L195 489L190 426L192 426Q246 497 324 497Q373 497 396 467.50Q419 438 419 390Q419 359 408 297L352 0L227 0L284 304Q290 330 290 356Q290 395 260 395Q236 395 211 359.50Q186 324 174 259L125 0M300 547L223 547L163 687L244 687L269 616L271 616L322 687L408 687L300 547Z"  horiz-adv-x="443" vert-adv-y="1000"  />

      
      <glyph glyph-name="uni0149" unicode="&#x0149;" d="M124 0L0 0L62 330Q72 383 88 489L195 489L189 426L191 426Q246 497 324 497Q373 497 396 467.50Q419 438 419 390Q419 359 408 297L352 0L226 0L284 304Q290 330 290 356Q290 395 260 395Q235 395 210.50 359.50Q186 324 173 259L124 0M55 529L31 581Q75 602 75 647Q75 677 58 696L141 712Q166 691 166 653Q166 601 129 568Q92 535 55 529Z"  horiz-adv-x="443" vert-adv-y="1000"  />

      
      <glyph glyph-name="uni014A" unicode="&#x014A;" d="M201-187L181-92Q264-81 288 1L236 251Q213 358 202 475L200 475Q182 324 155 179L121 0L14 0L143 674L257 674L308 406Q335 270 342 197L344 197Q365 390 385 499L419 674L526 674L407 48Q383-79 331-130.50Q279-182 201-187Z"  horiz-adv-x="503" vert-adv-y="1000"  />

      
      <glyph glyph-name="uni014B" unicode="&#x014B;" d="M151-180L136-81Q178-75 200.50-49Q223-23 232 25L284 304Q290 330 290 356Q290 395 260 395Q236 395 211 359.50Q186 324 174 258L125 0L0 0L63 330Q69 360 88 489L195 489L190 426L192 426Q246 497 320 497Q370 497 394.50 466.50Q419 436 419 386Q419 359 408 297L357 30Q336-81 285-128Q234-175 151-180Z"  horiz-adv-x="443" vert-adv-y="1000"  />

      
      <glyph glyph-name="uni014C" unicode="&#x014C;" d="M201-8L200-8Q148-8 112.50 15Q77 38 61 75.50Q45 113 39 145.50Q33 178 33 212Q33 323 70 439Q107 555 173 620Q237 682 321 682Q485 682 485 467Q485 353 449 236.50Q413 120 349 56Q285-8 201-8M218 102L219 102Q242 102 260 122Q304 166 330 284Q356 402 356 478Q356 572 304 572Q280 572 259 551Q216 508 189 397.50Q162 287 162 200Q162 102 218 102M233 808L454 808L439 736L218 736L233 808Z"  horiz-adv-x="481" vert-adv-y="1000"  />

      
      <glyph glyph-name="uni014D" unicode="&#x014D;" d="M171-8L170-8Q126-8 95 7.50Q64 23 48.50 50Q33 77 26.50 104Q20 131 20 161Q20 245 48 321Q76 397 132 447Q188 497 259 497Q400 497 400 325Q400 246 374.50 171Q349 96 295 44Q241-8 171-8M182 87L183 87Q224 87 250.50 174Q277 261 277 341Q277 402 238 402Q200 402 171 320Q142 238 143 166Q143 143 144.50 129Q146 115 155.50 101Q165 87 182 87M185 653L389 653L373 585L169 585L185 653Z"  horiz-adv-x="417" vert-adv-y="1000"  />

      
      <glyph glyph-name="uni014E" unicode="&#x014E;" d="M201-8L200-8Q148-8 112.50 15Q77 38 61 75.50Q45 113 39 145.50Q33 178 33 212Q33 323 70 439Q107 555 173 620Q237 682 321 682Q485 682 485 467Q485 353 449 236.50Q413 120 349 56Q285-8 201-8M218 102L219 102Q242 102 260 122Q304 166 330 284Q356 402 356 478Q356 572 304 572Q280 572 259 551Q216 508 189 397.50Q162 287 162 200Q162 102 218 102M227 829L294 829Q292 811 305 796Q318 781 342 781Q368 781 384.50 795.50Q401 810 404 829L476 829Q455 715 336 715Q277 715 248 747Q219 779 227 829Z"  horiz-adv-x="481" vert-adv-y="1000"  />

      
      </font>
</defs>
</svg>
