<?xml version="1.0" standalone="no"?>
  <!DOCTYPE svg PUBLIC "-//W3C//DTD SVG 1.1//EN" "http://www.w3.org/Graphics/SVG/1.1/DTD/svg11.dtd" >
  <svg>
  <metadata>
  Created by font-carrier
  </metadata>
  <defs>
  <font id="MyriadPro-Black" horiz-adv-x="1340" vert-adv-y="1340" >
    <font-face
      
      font-family="Myriad Pro Black"
      
      font-weight="400"
      
      font-stretch="normal"
      
      units-per-em="1000"
      
      ascent="750"
      
      descent="-250"
      
    />
      <missing-glyph />

      

      
      <glyph glyph-name="uni21" unicode="&#x21;" d="M209 233L75 233L49 674L235 674L209 233M142-11L141-11Q96-11 67.50 18Q39 47 39 92Q39 138 67.50 167Q96 196 141 196Q187 196 215 167.50Q243 139 244 92Q244 47 215.50 18Q187-11 142-11Z"  horiz-adv-x="284" vert-adv-y="1000"  />

      
      <glyph glyph-name="uni22" unicode="&#x22;" d="M29 693L185 693L159 408L55 408L29 693M239 693L395 693L369 408L265 408L239 693Z"  horiz-adv-x="423" vert-adv-y="1000"  />

      
      <glyph glyph-name="uni23" unicode="&#x23;" d="M239 278L324 278L339 376L253 376L239 278M195 0L92 0L118 171L37 171L37 278L137 278L152 376L68 376L68 483L168 483L193 650L295 650L269 483L356 483L381 650L483 650L458 483L537 483L537 376L441 376L426 278L507 278L507 171L408 171L383 0L280 0L306 171L220 171L195 0Z"  horiz-adv-x="573" vert-adv-y="1000"  />

      
      <glyph glyph-name="uni24" unicode="&#x24;" d="M342-88L228-88L228 5Q124 9 51 47L84 186Q174 142 259 142Q345 142 345 188Q345 211 321.50 227.50Q298 244 241 261Q152 290 104 333.50Q56 377 56 448Q56 517 102.50 567Q149 617 233 634L233 726L347 726L347 642Q432 638 498 610L466 477Q383 511 315 511Q238 511 238 468Q238 450 264.50 433.50Q291 417 356 394Q449 364 488.50 319.50Q528 275 528 205Q528 134 479 81.50Q430 29 342 14L342-88Z"  horiz-adv-x="573" vert-adv-y="1000"  />

      
      <glyph glyph-name="uni25" unicode="&#x25;" d="M218 661L219 661Q306 661 355 606Q404 551 404 468Q404 371 348 315.50Q292 260 213 260Q132 260 79 314.50Q26 369 26 456Q26 543 78 602Q130 661 218 661M216 565L215 565Q158 565 158 460Q158 356 217 356Q272 356 272 460Q272 565 216 565M320-11L227-11L597 659L689 659L320-11M706 391L707 391Q794 391 843 336Q892 281 892 198Q892 101 836 45.50Q780-10 701-10Q620-10 567 44.50Q514 99 514 187Q514 273 566 332Q618 391 706 391M704 295L703 295Q646 295 646 190Q646 86 705 86Q760 86 760 191Q760 295 704 295Z"  horiz-adv-x="919" vert-adv-y="1000"  />

      
      <glyph glyph-name="uni26" unicode="&#x26;" d="M702 0L495 0Q469 26 458 41Q387-11 278-11Q155-11 93 46Q31 103 31 180Q31 308 158 373L158 376Q137 397 122.50 431.50Q108 466 108 501Q108 573 165.50 629Q223 685 325 685Q411 685 466.50 640Q522 595 522 520Q522 414 395 350L395 346Q402 338 435 300.50Q468 263 484 247Q525 310 539 397L698 397Q669 232 580 138Q673 31 702 0M302 119L303 119Q348 119 375 141Q344 170 239 286Q201 256 201 211Q201 173 228.50 146Q256 119 302 119M320 574L319 574Q296 574 282.50 557Q269 540 269 518Q269 476 313 432Q370 475 370 516Q370 539 356.50 556.50Q343 574 320 574Z"  horiz-adv-x="710" vert-adv-y="1000"  />

      
      <glyph glyph-name="uni27" unicode="&#x27;" d="M29 693L185 693L159 408L55 408L29 693Z"  horiz-adv-x="213" vert-adv-y="1000"  />

      
      <glyph glyph-name="uni28" unicode="&#x28;" d="M164 690L286 690Q196 525 196 287Q196 52 286-115L164-115Q57 51 57 287Q58 528 164 690Z"  horiz-adv-x="328" vert-adv-y="1000"  />

      
      <glyph glyph-name="uni29" unicode="&#x29;" d="M163-115L41-115Q131 50 131 288Q131 525 41 690L163 690Q270 526 270 288Q269 51 163-115Z"  horiz-adv-x="328" vert-adv-y="1000"  />

      
      <glyph glyph-name="uni2a" unicode="&#x2a;" d="M292 685L391 628L278 500L279 497L442 535L442 420L277 450L276 448L391 323L291 265L234 426L232 425L178 265L79 323L192 450L191 451L30 420L30 535L189 497L190 500L79 628L180 685L233 526L236 526L292 685Z"  horiz-adv-x="471" vert-adv-y="1000"  />

      
      <glyph glyph-name="uni2b" unicode="&#x2b;" d="M242 532L355 532L355 321L557 321L557 213L355 213L355 0L242 0L242 213L40 213L40 321L242 321L242 532Z"  horiz-adv-x="596" vert-adv-y="1000"  />

      
      <glyph glyph-name="uni2c" unicode="&#x2c;" d="M114-108L-5-118Q50 38 74 186L253 196Q195 25 114-108Z"  horiz-adv-x="283" vert-adv-y="1000"  />

      
      <glyph glyph-name="uni2d" unicode="&#x2d;" d="M30 318L298 318L298 201L30 201L30 318Z"  horiz-adv-x="328" vert-adv-y="1000"  />

      
      <glyph glyph-name="uniad" unicode="&#xad;" d="M30 318L298 318L298 201L30 201L30 318Z"  horiz-adv-x="328" vert-adv-y="1000"  />

      
      <glyph glyph-name="uni2e" unicode="&#x2e;" d="M152-11L151-11Q106-11 77.50 18.50Q49 48 49 94Q49 140 78 169.50Q107 199 152 199Q198 199 226 170Q254 141 255 94Q255 47 226.50 18Q198-11 152-11Z"  horiz-adv-x="283" vert-adv-y="1000"  />

      
      <glyph glyph-name="uni2f" unicode="&#x2f;" d="M139-40L24-40L210 685L325 685L139-40Z"  horiz-adv-x="326" vert-adv-y="1000"  />

      
      <glyph glyph-name="uni30" unicode="&#x30;" d="M287-11L286-11Q219-11 168 17Q117 45 88 93Q59 141 45 199Q31 257 31 324Q31 392 45.50 451Q60 510 90 558Q120 606 170.50 633.50Q221 661 287 661Q355 661 406.50 632.50Q458 604 486.50 555Q515 506 528.50 449Q542 392 542 326Q542 175 477 82Q412-11 287-11M287 124L288 124Q362 124 362 325Q362 525 287 525Q211 525 211 325Q210 124 287 124Z"  horiz-adv-x="573" vert-adv-y="1000"  />

      
      <glyph glyph-name="uni31" unicode="&#x31;" d="M236 0L236 491L234 491L106 433L77 568L263 650L410 650L410 0L236 0Z"  horiz-adv-x="573" vert-adv-y="1000"  />

      
      <glyph glyph-name="uni32" unicode="&#x32;" d="M522 0L41 0L41 109L131 188Q239 281 284.50 335Q330 389 331 436Q331 473 306.50 495Q282 517 234 517Q168 517 95 464L46 593Q138 661 270 661Q383 661 447 604.50Q511 548 511 451Q511 324 360 200L296 150L296 148L522 148L522 0Z"  horiz-adv-x="573" vert-adv-y="1000"  />

      
      <glyph glyph-name="uni33" unicode="&#x33;" d="M36 35L70 170Q148 131 225 131Q274 131 302.50 148.50Q331 166 331 200Q331 238 298 258Q265 278 217 278L149 278L149 406L213 406Q253 406 284 420Q315 434 315 465Q315 490 292 505Q269 520 228 520Q158 520 89 483L55 612Q88 632 146.50 646.50Q205 661 269 661Q374 661 436 614.50Q498 568 498 496Q498 388 379 346L379 344Q439 334 478.50 292Q518 250 518 190Q518 100 442 44.50Q366-11 240-11Q111-11 36 35Z"  horiz-adv-x="573" vert-adv-y="1000"  />

      
      <glyph glyph-name="uni34" unicode="&#x34;" d="M479 0L309 0L309 146L27 146L27 263L253 650L479 650L479 280L551 280L551 146L479 146L479 0M191 280L309 280L309 391Q309 406 314 521L310 521Q252 399 247 390L192 282L191 280Z"  horiz-adv-x="573" vert-adv-y="1000"  />

      
      <glyph glyph-name="uni35" unicode="&#x35;" d="M494 650L494 502L240 502L231 432Q245 434 268 434Q384 434 453 382Q526 327 526 220Q526 125 446.50 57Q367-11 231-11Q114-11 42 25L72 160Q136 129 221 129Q269 129 305 148.50Q341 168 341 210Q341 302 160 302Q115 302 73 296L116 650L494 650Z"  horiz-adv-x="573" vert-adv-y="1000"  />

      
      <glyph glyph-name="uni36" unicode="&#x36;" d="M475 658L475 521Q451 522 418 521Q246 513 213 398L216 398Q264 439 345 439Q429 439 488.50 382.50Q548 326 548 226Q548 126 477 57.50Q406-11 299-11Q166-11 97.50 72Q29 155 29 276Q29 364 60 439Q91 514 146 564Q252 656 414 659Q438 661 475 658M296 120L297 120Q329 120 347.50 147.50Q366 175 366 217Q366 256 346 284.50Q326 313 286 313Q261 313 241 299.50Q221 286 212 265Q207 255 207 227Q210 182 232.50 151Q255 120 296 120Z"  horiz-adv-x="573" vert-adv-y="1000"  />

      
      <glyph glyph-name="uni37" unicode="&#x37;" d="M46 650L526 650L526 538L265 0L73 0L335 500L335 502L46 502L46 650Z"  horiz-adv-x="573" vert-adv-y="1000"  />

      
      <glyph glyph-name="uni38" unicode="&#x38;" d="M290 661L291 661Q405 661 462 609.50Q519 558 519 491Q519 448 495.50 410.50Q472 373 429 351L429 349Q477 331 510.50 290.50Q544 250 544 190Q544 99 473.50 44Q403-11 282-11Q158-11 94 44Q30 99 30 171Q30 281 140 330L140 332Q50 382 50 474Q50 558 118 609.50Q186 661 290 661M288 111L289 111Q320 111 340 130Q360 149 360 178Q360 212 336.50 236Q313 260 276 269Q247 262 230.50 240.50Q214 219 214 189Q214 158 235 134.50Q256 111 288 111M285 541L284 541Q253 541 236.50 523Q220 505 220 478Q220 454 242 434.50Q264 415 298 404Q318 409 334 428.50Q350 448 350 471Q350 500 333.50 520.50Q317 541 285 541Z"  horiz-adv-x="573" vert-adv-y="1000"  />

      
      <glyph glyph-name="uni39" unicode="&#x39;" d="M87-8L87 130Q110 128 151 129Q225 131 276 159Q337 194 356 257L354 258Q314 221 233 221Q148 221 87 275.50Q26 330 26 425Q26 524 98.50 592.50Q171 661 281 661Q409 661 474.50 579.50Q540 498 540 379Q540 184 426 82Q327-7 151-10Q132-11 87-8M277 531L276 531Q245 531 224.50 505Q204 479 205 437Q205 399 224.50 373Q244 347 283 347Q330 347 349 378Q356 392 356 419Q357 464 337.50 497.50Q318 531 277 531Z"  horiz-adv-x="573" vert-adv-y="1000"  />

      
      <glyph glyph-name="uni3a" unicode="&#x3a;" d="M152 299L151 299Q106 299 78 328.50Q50 358 50 403Q50 448 78.50 477.50Q107 507 152 507Q198 507 225.50 478.50Q253 450 254 403Q254 357 226 328Q198 299 152 299M152-11L151-11Q106-11 78 18.50Q50 48 50 93Q50 138 78.50 167.50Q107 197 152 197Q198 197 225.50 168.50Q253 140 254 93Q254 47 226 18Q198-11 152-11Z"  horiz-adv-x="283" vert-adv-y="1000"  />

      
      <glyph glyph-name="uni3b" unicode="&#x3b;" d="M113-108L-4-118Q51 41 74 186L252 196Q194 25 113-108M156 299L155 299Q110 299 82 328.50Q54 358 54 403Q54 448 82.50 477.50Q111 507 156 507Q202 507 229.50 478.50Q257 450 258 403Q258 357 230 328Q202 299 156 299Z"  horiz-adv-x="283" vert-adv-y="1000"  />

      
      <glyph glyph-name="uni3c" unicode="&#x3c;" d="M54 216L54 315L542 531L542 409L190 266L190 264L542 122L542 0L54 216Z"  horiz-adv-x="596" vert-adv-y="1000"  />

      
      <glyph glyph-name="uni3d" unicode="&#x3d;" d="M556 319L40 319L40 427L556 427L556 319M556 107L40 107L40 215L556 215L556 107Z"  horiz-adv-x="596" vert-adv-y="1000"  />

      
      <glyph glyph-name="uni3e" unicode="&#x3e;" d="M542 319L542 211L54 0L54 121L416 264L416 266L54 410L54 531L542 319Z"  horiz-adv-x="596" vert-adv-y="1000"  />

      
      <glyph glyph-name="uni3f" unicode="&#x3f;" d="M294 231L136 231L136 257Q133 336 193 406Q212 428 220 438.50Q228 449 237 466Q246 483 246 497Q246 544 184 545Q127 545 85 516L47 645Q123 686 224 686Q324 686 376 640.50Q428 595 428 527Q428 514 426.50 501.50Q425 489 421 477Q417 465 414 456Q411 447 403 435.50Q395 424 392 418.50Q389 413 379 401.50Q369 390 366.50 387Q364 384 353.50 372.50Q343 361 342 360Q295 309 294 246L294 231M212-11L211-11Q166-11 137.50 18Q109 47 109 92Q109 138 137.50 167Q166 196 211 196Q257 196 285 167.50Q313 139 314 92Q314 47 285.50 18Q257-11 212-11Z"  horiz-adv-x="463" vert-adv-y="1000"  />

      
      <glyph glyph-name="uni40" unicode="&#x40;" d="M440 248L452 334Q440 337 429 337Q387 337 358.50 300Q330 263 330 212Q330 157 372 157Q394 157 414 182.50Q434 208 440 248M537-6L555-70Q474-104 370-104Q240-104 147-17Q54 70 54 212Q54 369 160.50 480.50Q267 592 432 592Q565 592 652 510Q739 428 739 302Q739 195 684.50 129.50Q630 64 544 64Q465 64 453 137L451 137Q406 64 328 64Q277 64 245.50 100Q214 136 214 197Q214 292 277.50 359.50Q341 427 446 427Q525 427 570 401L542 214Q536 177 541.50 158.50Q547 140 566 139Q600 137 628.50 179.50Q657 222 657 301Q657 398 594.50 461Q532 524 420 524Q304 524 221.50 441Q139 358 139 223Q139 100 209 32.50Q279-35 394-35Q476-35 537-6Z"  horiz-adv-x="784" vert-adv-y="1000"  />

      
      <glyph glyph-name="uni41" unicode="&#x41;" d="M413 156L239 156L201 0L14 0L210 674L450 674L651 0L456 0L413 156M263 289L388 289L357 410Q351 432 338.50 483.50Q326 535 324 543L322 543Q317 524 307 477Q297 430 292 410L263 289Z"  horiz-adv-x="675" vert-adv-y="1000"  />

      
      <glyph glyph-name="uni42" unicode="&#x42;" d="M62 4L62 664Q139 679 275 679Q415 679 481 646Q572 603 572 507Q572 408 462 366L462 364Q524 347 559 303.50Q594 260 594 200Q594 109 518 52Q439-8 240-8Q124-8 62 4M241 545L241 415L277 415Q391 415 391 485Q391 515 368 532Q345 549 300 549Q265 549 241 545M241 287L241 126Q254 124 293 124Q342 124 373 145Q404 166 404 208Q404 287 284 287L241 287Z"  horiz-adv-x="631" vert-adv-y="1000"  />

      
      <glyph glyph-name="uni43" unicode="&#x43;" d="M541 159L566 18Q512-10 397-10Q305-10 234 17Q163 44 120.50 91Q78 138 56 197.50Q34 257 34 326Q34 440 86.50 523Q139 606 222.50 645Q306 684 409 684Q519 684 577 655L542 512Q484 536 417 536Q334 536 279 485.50Q224 435 224 338Q224 246 276 193Q328 140 421 140Q493 140 541 159Z"  horiz-adv-x="602" vert-adv-y="1000"  />

      
      <glyph glyph-name="uni44" unicode="&#x44;" d="M62 4L62 664Q149 679 277 679Q458 679 554 612Q676 528 676 353Q676 167 559 75Q453-8 242-8Q132-8 62 4M243 537L243 134Q252 132 281 132Q374 130 429.50 184Q485 238 485 347Q485 442 434 491.50Q383 541 298 541Q261 541 243 537Z"  horiz-adv-x="710" vert-adv-y="1000"  />

      
      <glyph glyph-name="uni45" unicode="&#x45;" d="M485 418L485 272L243 272L243 148L514 148L514 0L62 0L62 674L500 674L500 526L243 526L243 418L485 418Z"  horiz-adv-x="552" vert-adv-y="1000"  />

      
      <glyph glyph-name="uni46" unicode="&#x46;" d="M62 0L62 674L495 674L495 526L243 526L243 402L480 402L480 256L243 256L243 0L62 0Z"  horiz-adv-x="545" vert-adv-y="1000"  />

      
      <glyph glyph-name="uni47" unicode="&#x47;" d="M646 400L646 31Q532-7 413-7Q226-7 130 84Q34 175 34 327Q35 497 146 589Q257 681 428 681Q555 681 623 648L587 503Q522 532 427 532Q338 532 281 483.50Q224 435 224 337Q224 244 277 191Q330 138 415 138Q458 138 472 144L472 260L382 260L382 400L646 400Z"  horiz-adv-x="697" vert-adv-y="1000"  />

      
      <glyph glyph-name="uni48" unicode="&#x48;" d="M62 674L243 674L243 424L462 424L462 674L643 674L643 0L462 0L462 266L243 266L243 0L62 0L62 674Z"  horiz-adv-x="705" vert-adv-y="1000"  />

      
      <glyph glyph-name="uni49" unicode="&#x49;" d="M62 674L243 674L243 0L62 0L62 674Z"  horiz-adv-x="305" vert-adv-y="1000"  />

      
      <glyph glyph-name="uni4a" unicode="&#x4a;" d="M191 258L191 674L372 674L372 258Q372 116 307 52.50Q242-11 116-11Q45-11-3 5L16 150Q56 139 95 139Q142 139 166.50 165.50Q191 192 191 258Z"  horiz-adv-x="429" vert-adv-y="1000"  />

      
      <glyph glyph-name="uni4b" unicode="&#x4b;" d="M62 0L62 674L241 674L241 388L243 388Q247 395 286 462L416 674L638 674L424 387L646 0L437 0L295 273L241 204L241 0L62 0Z"  horiz-adv-x="646" vert-adv-y="1000"  />

      
      <glyph glyph-name="uni4c" unicode="&#x4c;" d="M62 0L62 674L243 674L243 151L502 151L502 0L62 0Z"  horiz-adv-x="528" vert-adv-y="1000"  />

      
      <glyph glyph-name="uni4d" unicode="&#x4d;" d="M641 0L633 242Q629 343 629 513L626 513Q597 391 555 249L488 14L347 14L291 249Q264 355 237 513L235 513Q233 460 229.50 365.50Q226 271 225 242L214 0L48 0L90 674L333 674L377 492Q410 364 430 246L433 246Q474 423 494 494L545 674L782 674L816 0L641 0Z"  horiz-adv-x="865" vert-adv-y="1000"  />

      
      <glyph glyph-name="uni4e" unicode="&#x4e;" d="M227 0L62 0L62 674L275 674L382 467Q434 372 488 231L491 231Q477 356 477 514L477 674L642 674L642 0L452 0L337 224Q267 359 224 467L220 467Q227 340 227 166L227 0Z"  horiz-adv-x="705" vert-adv-y="1000"  />

      
      <glyph glyph-name="uni4f" unicode="&#x4f;" d="M359-11L358-11Q207-11 120.50 87.50Q34 186 34 333Q34 484 125.50 584.50Q217 685 369 685Q524 685 610 586.50Q696 488 696 344Q696 181 605 85Q514-11 359-11M365 132L367 132Q431 132 468 188.50Q505 245 505 338Q505 427 467.50 484.50Q430 542 365 542Q301 542 263 484.50Q225 427 225 337Q224 245 262 188.50Q300 132 365 132Z"  horiz-adv-x="730" vert-adv-y="1000"  />

      
      <glyph glyph-name="uni50" unicode="&#x50;" d="M62 0L62 664Q154 679 284 679Q428 679 498 625Q575 568 575 463Q575 357 509 297Q430 227 285 227Q275 227 260.50 228Q246 229 241 229L241 0L62 0M241 539L241 367Q261 365 282 365Q335 365 365.50 390.50Q396 416 396 459Q396 498 370 520.50Q344 543 294 543Q259 543 241 539Z"  horiz-adv-x="602" vert-adv-y="1000"  />

      
      <glyph glyph-name="uni51" unicode="&#x51;" d="M698 14L647-124Q524-86 377-22Q356-13 328-11Q206-2 120 86.50Q34 175 34 331Q34 483 125.50 584Q217 685 371 685Q474 685 549.50 636.50Q625 588 660.50 512.50Q696 437 696 345Q696 242 654.50 164Q613 86 551 54L551 50Q588 38 698 14M365 132L367 132Q431 132 468 188Q505 244 505 338Q505 428 467.50 485Q430 542 365 542Q302 542 263.50 484.50Q225 427 225 337Q224 245 262 188.50Q300 132 365 132Z"  horiz-adv-x="730" vert-adv-y="1000"  />

      
      <glyph glyph-name="uni52" unicode="&#x52;" d="M62 0L62 664Q158 679 280 679Q439 679 508 626Q574 575 574 480Q574 422 539 378Q504 334 459 317L459 314Q517 287 545 193Q552 168 564 121Q576 74 585 42.50Q594 11 600 0L416 0Q395 43 369 156Q356 214 335 233.50Q314 253 270 253L241 253L241 0L62 0M241 541L241 383L288 383Q338 383 366.50 405.50Q395 428 395 466Q395 504 371 524.50Q347 545 302 545Q259 545 241 541Z"  horiz-adv-x="617" vert-adv-y="1000"  />

      
      <glyph glyph-name="uni53" unicode="&#x53;" d="M40 31L74 180Q156 138 249 138Q341 138 341 193Q341 217 317.50 233.50Q294 250 235 270Q45 338 45 473Q45 565 118 624.50Q191 684 316 684Q419 684 498 650L460 505Q389 537 314 537Q273 537 251 523.50Q229 510 229 487Q229 464 251 450.50Q273 437 346 410Q349 409 350 408Q440 374 482.50 325Q525 276 525 205Q525 112 452 51Q379-10 238-10Q181-10 126 2.50Q71 15 40 31Z"  horiz-adv-x="561" vert-adv-y="1000"  />

      
      <glyph glyph-name="uni54" unicode="&#x54;" d="M193 0L193 522L21 522L21 674L549 674L549 522L374 522L374 0L193 0Z"  horiz-adv-x="570" vert-adv-y="1000"  />

      
      <glyph glyph-name="uni55" unicode="&#x55;" d="M61 674L242 674L242 291Q242 132 348 132Q455 132 455 291L455 674L636 674L636 302Q636 147 561 68Q486-11 343-11Q61-11 61 306L61 674Z"  horiz-adv-x="697" vert-adv-y="1000"  />

      
      <glyph glyph-name="uni56" unicode="&#x56;" d="M440 0L226 0L12 674L210 674L282 409Q315 290 338 173L340 173Q362 285 395 406L468 674L660 674L440 0Z"  horiz-adv-x="671" vert-adv-y="1000"  />

      
      <glyph glyph-name="uni57" unicode="&#x57;" d="M370 0L170 0L15 674L209 674L248 424Q250 411 282 187L284 187Q298 281 324 427L367 674L560 674L602 415Q618 314 632 192L634 192Q643 260 668 427L708 674L891 674L725 0L528 0L483 264Q467 357 455 466L453 466Q433 324 421 264L370 0Z"  horiz-adv-x="906" vert-adv-y="1000"  />

      
      <glyph glyph-name="uni58" unicode="&#x58;" d="M619 0L410 0L361 110Q345 144 309 227L307 227Q306 224 263 111L218 0L13 0L203 341L20 674L227 674L273 567Q293 519 318 455L320 455Q338 508 360 566L401 674L607 674L424 345L619 0Z"  horiz-adv-x="631" vert-adv-y="1000"  />

      
      <glyph glyph-name="uni59" unicode="&#x59;" d="M400 0L219 0L219 272L7 674L214 674L271 522Q302 442 317 397L319 397Q338 458 362 522L417 674L621 674L400 279L400 0Z"  horiz-adv-x="629" vert-adv-y="1000"  />

      
      <glyph glyph-name="uni5a" unicode="&#x5a;" d="M21 0L21 96L319 521L319 525L49 525L49 674L553 674L553 571L264 153L264 149L558 149L558 0L21 0Z"  horiz-adv-x="588" vert-adv-y="1000"  />

      
      <glyph glyph-name="uni5b" unicode="&#x5b;" d="M276-112L63-112L63 686L276 686L276 589L190 589L190-15L276-15L276-112Z"  horiz-adv-x="328" vert-adv-y="1000"  />

      
      <glyph glyph-name="uni5c" unicode="&#x5c;" d="M302-40L187-40L16 685L131 685L302-40Z"  horiz-adv-x="326" vert-adv-y="1000"  />

      
      <glyph glyph-name="uni5d" unicode="&#x5d;" d="M52 686L265 686L265-112L52-112L52-15L138-15L138 589L52 589L52 686Z"  horiz-adv-x="328" vert-adv-y="1000"  />

      
      <glyph glyph-name="uni5e" unicode="&#x5e;" d="M562 172L436 172L299 514L296 514L159 172L35 172L246 650L351 650L562 172Z"  horiz-adv-x="596" vert-adv-y="1000"  />

      
      <glyph glyph-name="uni5f" unicode="&#x5f;" d="M0-75L500-75L500-125L0-125L0-75Z"  horiz-adv-x="500" vert-adv-y="1000"  />

      
      <glyph glyph-name="uni60" unicode="&#x60;" d="M-4 706L156 706L241 550L118 550L-4 706Z"  horiz-adv-x="300" vert-adv-y="1000"  />

      
      <glyph glyph-name="uni61" unicode="&#x61;" d="M493 286L493 120Q493 40 501 0L338 0L329 43L325 43Q278-11 189-11Q116-11 71 34.50Q26 80 26 144Q26 239 103.50 287Q181 335 312 335L312 339Q312 381 231 381Q158 381 92 345L61 458Q143 503 265 503Q385 503 439 444.50Q493 386 493 286M318 185L318 225Q203 225 203 161Q203 114 254 114Q274 114 291.50 126.50Q309 139 316 159Q318 167 318 185Z"  horiz-adv-x="548" vert-adv-y="1000"  />

      
      <glyph glyph-name="uni62" unicode="&#x62;" d="M55 155L55 711L236 711L236 442L238 442Q284 503 378 503Q466 503 523 435.50Q580 368 579 256Q579 130 512 59.50Q445-11 353-11Q257-11 213 63L211 63L204 0L51 0Q55 64 55 155M236 280L236 214Q236 203 238 189Q243 164 263 147Q283 130 309 130Q350 130 373 160.50Q396 191 396 248Q396 301 374 333Q352 365 309 365Q283 365 263 347.50Q243 330 238 304Q236 288 236 280Z"  horiz-adv-x="610" vert-adv-y="1000"  />

      
      <glyph glyph-name="uni63" unicode="&#x63;" d="M414 143L433 11Q390-10 298-10Q175-10 103 57.50Q31 125 31 242Q31 353 106.50 427.50Q182 502 320 502Q383 502 433 485L408 353Q379 365 330 365Q279 365 247 333Q215 301 216 248Q216 191 250 160.50Q284 130 335 130Q381 130 414 143Z"  horiz-adv-x="452" vert-adv-y="1000"  />

      
      <glyph glyph-name="uni64" unicode="&#x64;" d="M373 711L554 711L554 155Q554 66 558 0L397 0L390 66L388 66Q343-11 240-11Q152-11 91.50 59Q31 129 31 242Q30 362 94.50 432.50Q159 503 251 503Q338 503 371 455L373 455L373 711M373 224L373 279Q373 295 372 302Q367 329 348 347Q329 365 301 365Q258 365 236 331.50Q214 298 214 247Q214 192 238 162Q262 132 300 132Q327 132 346 149Q365 166 370 191Q373 201 373 224Z"  horiz-adv-x="610" vert-adv-y="1000"  />

      
      <glyph glyph-name="uni65" unicode="&#x65;" d="M506 183L202 183Q206 155 242.50 138.50Q279 122 329 122Q403 122 463 141L486 21Q406-10 302-10Q173-10 102 56.50Q31 123 31 241Q31 286 46 330.50Q61 375 90 414.50Q119 454 170 478.50Q221 503 286 503Q399 503 456 431.50Q513 360 513 251Q513 211 506 183M200 305L347 305Q347 334 331 359.50Q315 385 277 385Q241 385 222 359.50Q203 334 200 305Z"  horiz-adv-x="539" vert-adv-y="1000"  />

      
      <glyph glyph-name="uni66" unicode="&#x66;" d="M258 0L77 0L77 360L14 360L14 492L77 492L77 508Q77 553 93 597Q109 641 141 670Q196 721 284 721Q326 721 367 712L364 574Q341 579 318 579Q289 579 272.50 561Q256 543 256 516L256 492L346 492L346 360L258 360L258 0Z"  horiz-adv-x="363" vert-adv-y="1000"  />

      
      <glyph glyph-name="uni67" unicode="&#x67;" d="M540 341L540 72Q540-81 463-148Q392-209 256-209Q144-209 73-172L107-36Q171-72 249-72Q300-72 331.50-44Q363-16 363 39L363 61L361 61Q316 6 238 6Q147 6 89 72.50Q31 139 31 245Q31 359 95.50 431Q160 503 254 503Q340 503 381 439L383 439L389 492L544 492Q540 430 540 341M360 223L360 289Q360 298 358 312Q346 368 294 368Q260 368 237 336Q214 304 214 248Q214 199 235.50 168Q257 137 294 137Q318 137 335 151Q352 165 357 186Q360 196 360 223Z"  horiz-adv-x="596" vert-adv-y="1000"  />

      
      <glyph glyph-name="uni68" unicode="&#x68;" d="M55 0L55 711L236 711L236 440L238 440Q261 468 296 486Q330 503 371 503Q454 503 499 446Q544 389 544 285L544 0L363 0L363 265Q363 358 299 358Q258 358 240 319Q236 308 236 290L236 0L55 0Z"  horiz-adv-x="599" vert-adv-y="1000"  />

      
      <glyph glyph-name="uni69" unicode="&#x69;" d="M236 0L55 0L55 492L236 492L236 0M146 543L145 543Q104 543 79 567.50Q54 592 54 628Q54 666 79 690Q104 714 146 714Q187 714 212 690Q237 666 238 628Q238 592 212.50 567.50Q187 543 146 543Z"  horiz-adv-x="292" vert-adv-y="1000"  />

      
      <glyph glyph-name="uni6a" unicode="&#x6a;" d="M-20-216L-37-76Q25-71 50-46Q66-30 72.50 3Q79 36 79 104L79 492L260 492L260 66Q260-89 186-154Q115-216-20-216M169 543L168 543Q127 543 102 567.50Q77 592 77 628Q77 666 102 690Q127 714 169 714Q210 714 235 690Q260 666 261 628Q261 592 235.50 567.50Q210 543 169 543Z"  horiz-adv-x="312" vert-adv-y="1000"  />

      
      <glyph glyph-name="uni6b" unicode="&#x6b;" d="M236 711L236 292L238 292Q259 334 270 352L351 492L566 492L396 294L591 0L369 0L272 188L236 140L236 0L55 0L55 711L236 711Z"  horiz-adv-x="575" vert-adv-y="1000"  />

      
      <glyph glyph-name="uni6c" unicode="&#x6c;" d="M55 0L55 711L236 711L236 0L55 0Z"  horiz-adv-x="292" vert-adv-y="1000"  />

      
      <glyph glyph-name="uni6d" unicode="&#x6d;" d="M56 0L56 324Q56 400 52 492L203 492L210 430L214 430Q267 503 360 503Q407 503 442 482Q477 461 493 424L495 424Q522 461 563 483Q601 503 650 503Q730 503 773.50 447.50Q817 392 817 289L817 0L642 0L642 262Q642 358 584 358Q543 358 529 316Q524 303 524 280L524 0L349 0L349 267Q349 358 291 358Q254 358 236 318Q231 303 231 281L231 0L56 0Z"  horiz-adv-x="871" vert-adv-y="1000"  />

      
      <glyph glyph-name="uni6e" unicode="&#x6e;" d="M55 0L55 324Q55 400 51 492L207 492L215 429L218 429Q237 456 274.50 479.50Q312 503 366 503Q452 503 498 447.50Q544 392 544 290L544 0L363 0L363 268Q363 358 300 358Q259 358 241 315Q236 304 236 279L236 0L55 0Z"  horiz-adv-x="599" vert-adv-y="1000"  />

      
      <glyph glyph-name="uni6f" unicode="&#x6f;" d="M293-11L292-11Q178-11 104.50 57Q31 125 31 242Q31 361 104 432Q177 503 302 503Q417 503 487.50 433Q558 363 558 251Q558 124 481 56.50Q404-11 293-11M296 116L297 116Q333 116 352.50 151Q372 186 372 246Q372 302 353 339Q334 376 297 376Q255 376 236 338.50Q217 301 217 246Q217 187 237 151.50Q257 116 296 116Z"  horiz-adv-x="589" vert-adv-y="1000"  />

      
      <glyph glyph-name="uni70" unicode="&#x70;" d="M55-198L55 324Q55 400 51 492L207 492L215 429L217 429Q273 503 377 503Q458 503 518.50 434.50Q579 366 579 252Q579 126 511.50 57.50Q444-11 355-11Q315-11 283.50 2.50Q252 16 238 36L236 36L236-198L55-198M236 276L236 215Q236 198 239 185Q244 160 263.50 143Q283 126 309 126Q349 126 372.50 157.50Q396 189 396 243Q396 297 374.50 329.50Q353 362 311 362Q284 362 263.50 344Q243 326 238 299Q236 292 236 276Z"  horiz-adv-x="610" vert-adv-y="1000"  />

      
      <glyph glyph-name="uni71" unicode="&#x71;" d="M374-198L374 56L372 56Q325-11 232-11Q150-11 90.50 57.50Q31 126 31 240Q31 362 95.50 432.50Q160 503 246 503Q336 503 377 441L379 441L383 492L558 492Q558 475 557 443.50Q556 412 555.50 386.50Q555 361 555 339L555-198L374-198M374 217L374 282Q374 296 372 302Q367 328 348 345.50Q329 363 301 363Q258 363 236 330.50Q214 298 214 246Q214 191 238 160.50Q262 130 300 130Q327 130 346.50 147Q366 164 371 188Q374 197 374 217Z"  horiz-adv-x="610" vert-adv-y="1000"  />

      
      <glyph glyph-name="uni72" unicode="&#x72;" d="M55 0L55 326Q55 437 51 492L205 492L212 403L216 403Q234 454 271.50 478.50Q309 503 347 503Q370 503 383 500L383 331Q361 336 337 336Q254 336 238 274Q236 258 236 243L236 0L55 0Z"  horiz-adv-x="403" vert-adv-y="1000"  />

      
      <glyph glyph-name="uni73" unicode="&#x73;" d="M29 25L60 152Q82 138 123.50 126.50Q165 115 196 115Q250 115 250 142Q250 155 238 163Q226 171 186 184Q39 230 41 334Q41 408 100 455.50Q159 503 255 503Q337 503 401 475L372 353Q316 380 263 380Q214 380 214 352Q214 340 229.50 330.50Q245 321 288 307Q359 284 390.50 246.50Q422 209 423 155Q423 81 365.50 35.50Q308-10 198-10Q97-10 29 25Z"  horiz-adv-x="451" vert-adv-y="1000"  />

      
      <glyph glyph-name="uni74" unicode="&#x74;" d="M77 584L253 632L253 492L355 492L355 360L253 360L253 219Q253 174 265.50 155.50Q278 137 310 137Q338 137 353 141L353 4Q316-10 246-10Q168-10 123 35Q77 81 77 188L77 360L16 360L16 492L77 492L77 584Z"  horiz-adv-x="383" vert-adv-y="1000"  />

      
      <glyph glyph-name="uni75" unicode="&#x75;" d="M541 492L541 168Q541 84 545 0L389 0L381 65L378 65Q327-11 229-11Q145-11 99.50 43Q54 97 54 202L54 492L235 492L235 231Q235 134 298 134Q341 134 356 176Q360 185 360 202L360 492L541 492Z"  horiz-adv-x="598" vert-adv-y="1000"  />

      
      <glyph glyph-name="uni76" unicode="&#x76;" d="M8 492L204 492L257 283Q270 233 280 167L283 167Q293 234 305 283L354 492L543 492L364 0L183 0L8 492Z"  horiz-adv-x="551" vert-adv-y="1000"  />

      
      <glyph glyph-name="uni77" unicode="&#x77;" d="M8 492L192 492L220 311Q237 209 244 148L246 148Q250 173 279 310L318 492L459 492L497 317Q525 177 529 148L531 148Q539 222 556 319L585 492L761 492L614 0L444 0L410 146Q398 200 383 296L381 296Q372 215 356 148L319 0L149 0L8 492Z"  horiz-adv-x="769" vert-adv-y="1000"  />

      
      <glyph glyph-name="uni78" unicode="&#x78;" d="M3 492L204 492L243 419Q256 395 279 349L282 349Q304 402 314 422L347 492L542 492L383 259L543 0L339 0L300 79Q279 119 268 150L265 150Q260 138 249.50 114.50Q239 91 234 79L198 0L1 0L164 251L3 492Z"  horiz-adv-x="544" vert-adv-y="1000"  />

      
      <glyph glyph-name="uni79" unicode="&#x79;" d="M5 492L205 492L264 271Q268 255 276.50 220Q285 185 285 183L289 183Q292 195 298 226Q304 257 307 270L352 492L544 492L439 179Q387 33 347-39Q307-111 264-149Q194-211 100-221L63-69Q95-64 125-50Q159-37 183-5Q192 8 192 17Q192 29 185 43L5 492Z"  horiz-adv-x="545" vert-adv-y="1000"  />

      
      <glyph glyph-name="uni7a" unicode="&#x7a;" d="M24 0L24 103L150 256Q194 306 234 347L234 349L40 349L40 492L454 492L454 384L336 241Q278 173 249 145L249 143L463 143L463 0L24 0Z"  horiz-adv-x="486" vert-adv-y="1000"  />

      
      <glyph glyph-name="uni7b" unicode="&#x7b;" d="M31 243L32 331Q77 334 91 351.50Q105 369 105 397Q105 429 100 472Q95 517 95 549Q95 686 250 686L292 686L292 588L274 588Q221 587 221 524Q221 511 225 473Q229 437 229 408Q230 350 208 323.50Q186 297 138 288L138 286Q186 277 208 251Q230 225 229 167Q229 138 225 100Q221 62 221 51Q221-14 274-15L292-15L292-112L250-112Q95-112 95 24Q95 60 101 101Q105 155 105 178Q105 195 101.50 206.50Q98 218 80.50 229.50Q63 241 31 243Z"  horiz-adv-x="328" vert-adv-y="1000"  />

      
      <glyph glyph-name="uni7c" unicode="&#x7c;" d="M89 750L212 750L212-250L89-250L89 750Z"  horiz-adv-x="302" vert-adv-y="1000"  />

      
      <glyph glyph-name="uni7d" unicode="&#x7d;" d="M297 331L296 243Q251 240 237 222Q223 204 223 178Q223 155 227 101Q232 56 232 24Q232-112 77-112L35-112L35-15L53-15Q106-14 106 51Q106 59 104.50 76.50Q103 94 103 100Q99 138 99 167Q98 225 120 251Q142 277 190 286L190 288Q142 297 120 323.50Q98 350 99 408Q99 419 102 473Q106 511 106 524Q106 587 53 588L35 588L35 686L77 686Q232 686 232 549Q232 517 227 472Q223 420 223 397Q223 379 226.50 367.50Q230 356 247.50 344.50Q265 333 297 331Z"  horiz-adv-x="328" vert-adv-y="1000"  />

      
      <glyph glyph-name="uni7e" unicode="&#x7e;" d="M151 184L40 184Q40 388 189 388Q225 388 254.50 376.50Q284 365 327 339Q393 300 411 300Q441 300 445 381L556 381Q564 175 415 175Q356 175 277 224Q210 266 193 266Q157 266 151 184Z"  horiz-adv-x="596" vert-adv-y="1000"  />

      
      <glyph glyph-name="unia1" unicode="&#xa1;" d="M236-189L50-189L76 252L210 252L236-189M142 497L143 497Q188 497 216.50 468Q245 439 245 393Q244 348 216 319Q188 290 143 290Q97 290 68.50 319Q40 348 40 393Q40 439 68.50 468Q97 497 142 497Z"  horiz-adv-x="284" vert-adv-y="1000"  />

      
      <glyph glyph-name="unia2" unicode="&#xa2;" d="M397-10L284-10L284 86Q188 103 134 166Q79 229 79 328Q79 420 132.50 489.50Q186 559 284 579L284 672L398 672L398 585Q449 581 487 568L462 436Q427 451 379 451Q325 451 294.50 420.50Q264 390 264 335Q264 277 297.50 247.50Q331 218 382 218Q435 218 474 233L494 104Q459 88 397 83L397-10Z"  horiz-adv-x="573" vert-adv-y="1000"  />

      
      <glyph glyph-name="unia3" unicode="&#xa3;" d="M523 0L49 0L49 94Q91 110 125.50 147Q160 184 160 229Q160 248 158 256L63 256L63 377L136 377Q130 410 130 446Q130 542 196.50 601.50Q263 661 371 661Q448 661 492 637L466 501Q434 518 383 518Q336 518 316.50 494.50Q297 471 297 437Q297 412 305 377L440 377L440 256L321 256Q319 227 310 203Q294 170 270 148L270 146L523 146L523 0Z"  horiz-adv-x="573" vert-adv-y="1000"  />

      
      <glyph glyph-name="unia4" unicode="&#xa4;" d="M287 557L288 557Q357 557 404 524L483 611L559 532L468 451Q499 391 499 336Q499 266 464 217L553 132L478 57L403 148Q356 110 285 110Q213 110 169 148L94 57L20 132L107 215Q72 269 72 334Q72 398 105 451L14 532L90 611L170 521Q217 557 287 557M286 438L285 438Q251 438 227.50 410Q204 382 204 335Q204 286 229 257.50Q254 229 286 229Q319 229 343 257Q367 285 367 335Q367 381 343 409.50Q319 438 286 438Z"  horiz-adv-x="573" vert-adv-y="1000"  />

      
      <glyph glyph-name="unia5" unicode="&#xa5;" d="M367 0L198 0L198 153L42 153L42 234L198 234L198 294L42 294L42 375L157 375L-4 650L190 650L245 510Q257 481 288 394L289 394Q297 412 311 452Q325 492 333 511L388 650L578 650L410 375L525 375L525 294L367 294L367 234L525 234L525 153L367 153L367 0Z"  horiz-adv-x="573" vert-adv-y="1000"  />

      
      <glyph glyph-name="unia6" unicode="&#xa6;" d="M89 174L212 174L212-176L89-176L89 174M89 674L212 674L212 324L89 324L89 674Z"  horiz-adv-x="302" vert-adv-y="1000"  />

      
      <glyph glyph-name="unia7" unicode="&#xa7;" d="M177 339L177 338Q177 295 256 269Q275 262 319.50 248Q364 234 376 229Q402 241 402 270Q402 309 341 333Q321 340 272.50 357Q224 374 209 380Q196 376 186.50 364.50Q177 353 177 339M485 656L460 549Q398 575 322 575Q239 575 239 539Q239 508 338 480Q387 466 419.50 452Q452 438 482 417Q512 396 526.50 366.50Q541 337 541 298Q541 221 464 175Q511 140 511 80Q511 34 488 0Q465-34 427.50-51Q390-68 352.50-76Q315-84 276-84Q151-84 76-38L107 68Q186 26 267 26Q348 26 348 64Q348 84 326 97Q304 110 249 126Q202 140 170 153Q138 166 105 187Q72 208 55.50 237.50Q39 267 39 305Q39 342 62 377Q85 412 126 430Q109 444 97 470Q85 496 85 524Q85 601 150 643Q215 685 319 685Q416 685 485 656Z"  horiz-adv-x="579" vert-adv-y="1000"  />

      
      <glyph glyph-name="unia8" unicode="&#xa8;" d="M41 551L40 551Q6 551-17 574Q-40 597-40 630Q-40 664-17 686.50Q6 709 41 709Q73 709 95 686.50Q117 664 117 630Q117 597 95 574Q73 551 41 551M262 551L260 551Q227 551 204.50 574Q182 597 182 630Q182 664 204.50 686.50Q227 709 262 709Q295 709 317 686.50Q339 664 339 630Q339 597 317 574Q295 551 262 551Z"  horiz-adv-x="300" vert-adv-y="1000"  />

      
      <glyph glyph-name="unia9" unicode="&#xa9;" d="M340 648L341 648Q468 648 557.50 558Q647 468 647 340Q647 211 557.50 120.50Q468 30 340 30Q211 30 120.50 120.50Q30 211 30 340Q30 468 120.50 558Q211 648 340 648M339 584L338 584Q241 584 172 512Q103 440 103 339Q103 237 172 165.50Q241 94 339 94Q436 93 505 165Q574 237 574 339Q574 440 505 512Q436 584 339 584M474 492L458 432Q420 454 364 454Q310 454 278 424Q246 394 246 337Q246 285 278.50 252Q311 219 362 219Q423 219 461 243L477 185Q428 153 354 153Q267 153 217.50 204Q168 255 168 334Q168 417 225.50 468.50Q283 520 364 520Q399 520 432 511.50Q465 503 474 492Z"  horiz-adv-x="677" vert-adv-y="1000"  />

      
      <glyph glyph-name="uniaa" unicode="&#xaa;" d="M357 266L248 266L241 296L239 296Q198 260 140 261Q92 261 62 289Q32 317 32 360Q32 417 85 446.50Q138 476 229 477L229 482Q229 487 226 493Q223 499 209 505Q195 511 173 511Q122 511 78 485L56 559Q115 591 196 591Q276 591 314 552Q352 513 352 451L352 344Q352 294 357 266M233 385L233 411Q196 411 173.50 400.50Q151 390 151 371Q151 357 162 347.50Q173 338 189 338Q202 338 214.50 345.50Q227 353 231 365Q233 371 233 385Z"  horiz-adv-x="392" vert-adv-y="1000"  />

      
      <glyph glyph-name="uniab" unicode="&#xab;" d="M255 446L142 253L255 59L134 59L26 253L134 446L255 446M462 446L349 253L462 59L341 59L233 253L341 446L462 446Z"  horiz-adv-x="484" vert-adv-y="1000"  />

      
      <glyph glyph-name="uniac" unicode="&#xac;" d="M40 433L556 433L556 100L444 100L444 325L40 325L40 433Z"  horiz-adv-x="596" vert-adv-y="1000"  />

      
      <glyph glyph-name="uniae" unicode="&#xae;" d="M219 484L219 430L164 430L164 586Q194 592 238 592Q286 592 305 579Q322 569 322 545Q322 534 311.50 524Q301 514 284 510L284 508Q311 499 318 467Q323 445 329 430L268 430Q264 435 257 462Q253 484 233 484L219 484M221 554L221 520L233 520Q259 520 259 537Q259 555 235 555Q232 555 227.50 554.50Q223 554 221 554M239 686L240 686Q315 686 367.50 634.50Q420 583 420 510Q420 437 367.50 385.50Q315 334 239 334Q163 334 109.50 385.50Q56 437 56 510Q56 583 109.50 634.50Q163 686 239 686M238 639L237 639Q185 639 149.50 601Q114 563 114 509Q114 455 149.50 418Q185 381 238 381Q291 380 327 417.50Q363 455 363 510Q363 564 327 601.50Q291 639 238 639Z"  horiz-adv-x="476" vert-adv-y="1000"  />

      
      <glyph glyph-name="uniaf" unicode="&#xaf;" d="M20 675L281 675L281 579L20 579L20 675Z"  horiz-adv-x="300" vert-adv-y="1000"  />

      
      <glyph glyph-name="uni02C9" unicode="&#x02C9;" d="M20 675L281 675L281 579L20 579L20 675Z"  horiz-adv-x="300" vert-adv-y="1000"  />

      
      <glyph glyph-name="unib0" unicode="&#xb0;" d="M187 685L188 685Q256 685 301.50 640.50Q347 596 347 533Q347 467 299.50 423Q252 379 186 379Q117 379 71.50 423Q26 467 26 531Q25 595 72.50 640Q120 685 187 685M187 606L186 606Q157 606 137.50 584Q118 562 118 531Q118 500 137.50 479Q157 458 187 458Q216 458 235.50 479Q255 500 255 531Q255 563 236.50 584.50Q218 606 187 606Z"  horiz-adv-x="373" vert-adv-y="1000"  />

      
      <glyph glyph-name="unib1" unicode="&#xb1;" d="M242 583L355 583L355 419L557 419L557 311L355 311L355 145L242 145L242 311L40 311L40 419L242 419L242 583M40 108L557 108L557 0L40 0L40 108Z"  horiz-adv-x="596" vert-adv-y="1000"  />

      
      <glyph glyph-name="unib2" unicode="&#xb2;" d="M17 443L17 508L78 561Q87 569 101 581Q115 593 122 599Q129 605 139.50 614.50Q150 624 155 629.50Q160 635 167 642.50Q174 650 177.50 655.50Q181 661 184.50 667.50Q188 674 189 680Q190 686 190 693Q190 711 176 721.50Q162 732 139 732Q92 732 52 706L17 795Q82 838 173 838Q248 838 291 804Q334 770 334 714Q334 681 316 651Q298 621 280 604.50Q262 588 227 561L206 545L206 543L341 543L341 443L17 443Z"  horiz-adv-x="369" vert-adv-y="1000"  />

      
      <glyph glyph-name="unib3" unicode="&#xb3;" d="M48 722L24 806Q79 838 175 838Q248 838 288.50 810Q329 782 329 738Q329 674 244 649L244 647Q287 643 315.50 619Q344 595 344 557Q344 503 291.50 470.50Q239 438 153 438Q61 438 10 466L35 556Q83 530 135 530Q162 530 180.50 539Q199 548 199 566Q199 585 176 596Q153 607 121 607L89 607L89 685L118 685Q189 685 189 717Q189 746 141 746Q94 746 48 722Z"  horiz-adv-x="366" vert-adv-y="1000"  />

      
      <glyph glyph-name="unib4" unicode="&#xb4;" d="M149 706L309 706L186 550L64 550L149 706Z"  horiz-adv-x="300" vert-adv-y="1000"  />

      
      <glyph glyph-name="unib5" unicode="&#xb5;" d="M386 64L382 64Q370 35 340.50 14.50Q311-6 270-6Q239-6 217 13L217-22Q217-145 227-198L68-198Q55-166 55-22L55 492L236 492L236 224Q236 132 294 132Q316 132 333.50 145.50Q351 159 357 174Q361 185 361 202L361 492L542 492L542 170Q542 144 551.50 134Q561 124 581 123L572 1Q552-11 507-11Q415-11 386 64Z"  horiz-adv-x="598" vert-adv-y="1000"  />

      
      <glyph glyph-name="unib6" unicode="&#xb6;" d="M306-46L195-46L195 264L189 264Q169 264 144 275.50Q119 287 93 308.50Q67 330 49.50 367.50Q32 405 31 450Q30 484 37.50 514.50Q45 545 65.50 576Q86 607 119 629Q152 651 207.50 665Q263 679 335 679Q440 679 489 667L489-46L378-46L378 570L306 570L306-46Z"  horiz-adv-x="556" vert-adv-y="1000"  />

      
      <glyph glyph-name="unib7" unicode="&#xb7;" d="M142 153L141 153Q96 153 67.50 182.50Q39 212 39 258Q39 304 68 333.50Q97 363 142 363Q188 363 216 334Q244 305 245 258Q245 211 216.50 182Q188 153 142 153Z"  horiz-adv-x="283" vert-adv-y="1000"  />

      
      <glyph glyph-name="uni2219" unicode="&#x2219;" d="M142 153L141 153Q96 153 67.50 182.50Q39 212 39 258Q39 304 68 333.50Q97 363 142 363Q188 363 216 334Q244 305 245 258Q245 211 216.50 182Q188 153 142 153Z"  horiz-adv-x="283" vert-adv-y="1000"  />

      
      <glyph glyph-name="unib8" unicode="&#xb8;" d="M115 5L208 5L184-41Q214-45 235.50-65Q257-85 257-115Q257-162 221-183.50Q185-205 129-205Q75-205 43-184L65-122Q96-139 120-139Q152-139 152-116Q152-87 74-82L115 5Z"  horiz-adv-x="300" vert-adv-y="1000"  />

      
      <glyph glyph-name="unib9" unicode="&#xb9;" d="M260 443L122 443L122 723L121 723L38 688L21 784L141 833L260 833L260 443Z"  horiz-adv-x="324" vert-adv-y="1000"  />

      
      <glyph glyph-name="uniba" unicode="&#xba;" d="M201 591L202 591Q279 591 325.50 545.50Q372 500 372 430Q372 349 321.50 305Q271 261 197 261Q124 261 75 305.50Q26 350 26 423Q26 498 74 544.50Q122 591 201 591M199 506L198 506Q174 506 162.50 481Q151 456 151 424Q151 391 163.50 368.50Q176 346 200 346Q247 346 247 427Q247 458 233.50 482Q220 506 199 506Z"  horiz-adv-x="399" vert-adv-y="1000"  />

      
      <glyph glyph-name="unibb" unicode="&#xbb;" d="M136 253L23 446L142 446L252 253L142 59L23 59L136 253M340 253L227 446L346 446L456 253L346 59L227 59L340 253Z"  horiz-adv-x="484" vert-adv-y="1000"  />

      
      <glyph glyph-name="unibc" unicode="&#xbc;" d="M271 266L133 266L133 546L132 546L49 511L32 607L152 656L271 656L271 266M283-11L188-11L552 661L646 661L283-11M777 0L651 0L651 85L457 85L457 158L618 394L777 394L777 170L827 170L827 85L777 85L777 0M651 170L651 225Q651 237 656 304L653 304Q625 247 616 234L577 171L580 170L651 170Z"  horiz-adv-x="863" vert-adv-y="1000"  />

      
      <glyph glyph-name="unibd" unicode="&#xbd;" d="M260 266L122 266L122 546L121 546L38 511L21 607L141 656L260 656L260 266M257-11L163-11L526 661L620 661L257-11M504 0L504 65L565 118Q574 126 588 138Q602 150 609 156Q616 162 626.50 171.50Q637 181 642 186.50Q647 192 654 199.50Q661 207 664.50 212.50Q668 218 671.50 224.50Q675 231 676 237Q677 243 677 250Q677 268 663 278.50Q649 289 626 289Q579 289 539 263L504 352Q568 395 660 395Q735 395 778 361Q821 327 821 271Q821 238 803 208Q785 178 767 161.50Q749 145 714 118L693 102L693 100L828 100L828 0L504 0Z"  horiz-adv-x="863" vert-adv-y="1000"  />

      
      <glyph glyph-name="unibe" unicode="&#xbe;" d="M63 545L40 629Q95 661 191 661Q264 661 304.50 633Q345 605 345 561Q345 497 259 472L259 470Q302 466 330.50 442Q359 418 359 381Q359 326 306.50 293.50Q254 261 168 261Q76 261 25 289L50 379Q100 354 150 354Q177 354 195.50 363Q214 372 214 389Q214 408 191.50 419Q169 430 137 430L105 430L105 508L134 508Q205 508 205 540Q205 569 157 569Q111 569 63 545M313-11L219-11L581 661L676 661L313-11M786 0L660 0L660 85L466 85L466 158L627 394L786 394L786 170L836 170L836 85L786 85L786 0M660 170L660 225Q660 237 665 304L662 304Q634 247 625 234L586 171L589 170L660 170Z"  horiz-adv-x="863" vert-adv-y="1000"  />

      
      <glyph glyph-name="unibf" unicode="&#xbf;" d="M253 497L254 497Q299 497 327 468Q355 439 355 393Q355 348 327 319Q299 290 253 290Q207 290 178.50 319Q150 348 150 393Q150 439 178.50 468Q207 497 253 497M170 256L327 256L327 231Q330 151 270 81Q251 59 243 48.50Q235 38 226 21Q217 4 217-10Q217-57 279-58Q336-58 378-29L416-158Q340-199 239-199Q140-199 88-153.50Q36-108 36-40Q36-3 53 33.50Q70 70 82 84Q94 98 122 127Q169 178 170 242L170 256Z"  horiz-adv-x="463" vert-adv-y="1000"  />

      
      <glyph glyph-name="unic0" unicode="&#xc0;" d="M413 156L239 156L201 0L14 0L210 674L450 674L651 0L456 0L413 156M263 289L388 289L357 410Q351 432 338.50 483.50Q326 535 324 543L322 543Q317 524 307 477Q297 430 292 410L263 289M149 836L332 836L413 712L269 712L149 836Z"  horiz-adv-x="675" vert-adv-y="1000"  />

      
      <glyph glyph-name="unic1" unicode="&#xc1;" d="M413 156L239 156L201 0L14 0L210 674L450 674L651 0L456 0L413 156M263 289L388 289L357 410Q351 432 338.50 483.50Q326 535 324 543L322 543Q317 524 307 477Q297 430 292 410L263 289M334 836L517 836L397 710L253 710L334 836Z"  horiz-adv-x="675" vert-adv-y="1000"  />

      
      <glyph glyph-name="unic2" unicode="&#xc2;" d="M413 156L239 156L201 0L14 0L210 674L450 674L651 0L456 0L413 156M263 289L388 289L357 410Q351 432 338.50 483.50Q326 535 324 543L322 543Q317 524 307 477Q297 430 292 410L263 289M269 836L404 836L503 710L382 710L337 769L335 769L291 710L170 710L269 836Z"  horiz-adv-x="675" vert-adv-y="1000"  />

      
      <glyph glyph-name="unic3" unicode="&#xc3;" d="M413 156L239 156L201 0L14 0L210 674L450 674L651 0L456 0L413 156M263 289L388 289L357 410Q351 432 338.50 483.50Q326 535 324 543L322 543Q317 524 307 477Q297 430 292 410L263 289M274 714L194 714Q192 783 214 818Q236 853 275 853Q307 853 341 833Q372 813 384 813Q397 813 402.50 822Q408 831 411 857L489 857Q491 784 469.50 752.50Q448 721 405 721Q370 721 338 739Q307 757 297 757Q277 757 274 714Z"  horiz-adv-x="675" vert-adv-y="1000"  />

      
      <glyph glyph-name="unic4" unicode="&#xc4;" d="M413 156L239 156L201 0L14 0L210 674L450 674L651 0L456 0L413 156M263 289L388 289L357 410Q351 432 338.50 483.50Q326 535 324 543L322 543Q317 524 307 477Q297 430 292 410L263 289M234 709L233 709Q201 709 178.50 731.50Q156 754 156 786Q156 818 178.50 840Q201 862 234 862Q265 862 286.50 840Q308 818 308 786Q308 754 286.50 731.50Q265 709 234 709M451 709L450 709Q418 709 396 731.50Q374 754 374 786Q374 818 396 840Q418 862 451 862Q483 862 504.50 840Q526 818 526 786Q526 754 504 731.50Q482 709 451 709Z"  horiz-adv-x="675" vert-adv-y="1000"  />

      
      <glyph glyph-name="unic5" unicode="&#xc5;" d="M413 156L239 156L201 0L14 0L210 674L450 674L651 0L456 0L413 156M263 289L388 289L357 410Q351 432 338.50 483.50Q326 535 324 543L322 543Q317 524 307 477Q297 430 292 410L263 289M333 905L334 905Q392 905 423 876.50Q454 848 454 803Q454 759 422 731Q390 703 333 703Q276 703 243.50 731.50Q211 760 211 802Q211 846 243 875.50Q275 905 333 905M331 848L330 848Q311 848 300 834.50Q289 821 289 803Q289 785 300.50 772.50Q312 760 331 760Q352 760 363.50 772Q375 784 375 803Q375 821 363 834.50Q351 848 331 848Z"  horiz-adv-x="675" vert-adv-y="1000"  />

      
      <glyph glyph-name="unic6" unicode="&#xc6;" d="M190 0L4 0L282 674L835 674L835 526L563 526L577 414L833 414L833 268L600 268L617 148L876 148L876 0L462 0L441 161L248 161L190 0M301 305L420 305L401 455Q396 494 389 547L386 547Q380 529 369.50 496Q359 463 356 452L301 305Z"  horiz-adv-x="902" vert-adv-y="1000"  />

      
      <glyph glyph-name="unic7" unicode="&#xc7;" d="M542 158L567 17Q519-7 416-10L400-42Q474-61 474-126Q474-177 436.50-200.50Q399-224 347-224Q291-224 255-204L277-135Q303-149 334-149Q367-149 367-126Q367-99 287-91L326-5Q181 15 107.50 106Q34 197 34 326Q34 496 142 590Q250 684 410 684Q520 684 578 655L543 512Q485 536 418 536Q334 536 279 485.50Q224 435 224 337Q224 245 276 192Q328 139 421 139Q494 139 542 158Z"  horiz-adv-x="602" vert-adv-y="1000"  />

      
      <glyph glyph-name="unic8" unicode="&#xc8;" d="M485 418L485 272L243 272L243 148L514 148L514 0L62 0L62 674L500 674L500 526L243 526L243 418L485 418M107 836L290 836L371 712L227 712L107 836Z"  horiz-adv-x="552" vert-adv-y="1000"  />

      
      <glyph glyph-name="unic9" unicode="&#xc9;" d="M485 418L485 272L243 272L243 148L514 148L514 0L62 0L62 674L500 674L500 526L243 526L243 418L485 418M284 836L467 836L347 710L203 710L284 836Z"  horiz-adv-x="552" vert-adv-y="1000"  />

      
      <glyph glyph-name="unica" unicode="&#xca;" d="M485 418L485 272L243 272L243 148L514 148L514 0L62 0L62 674L500 674L500 526L243 526L243 418L485 418M221 836L356 836L455 710L334 710L289 769L287 769L243 710L122 710L221 836Z"  horiz-adv-x="552" vert-adv-y="1000"  />

      
      <glyph glyph-name="unicb" unicode="&#xcb;" d="M485 418L485 272L243 272L243 148L514 148L514 0L62 0L62 674L500 674L500 526L243 526L243 418L485 418M172 709L171 709Q139 709 116.50 731.50Q94 754 94 786Q94 818 116.50 840Q139 862 172 862Q203 862 224.50 840Q246 818 246 786Q246 754 224.50 731.50Q203 709 172 709M389 709L388 709Q356 709 334 731.50Q312 754 312 786Q312 818 334 840Q356 862 389 862Q421 862 442.50 840Q464 818 464 786Q464 754 442 731.50Q420 709 389 709Z"  horiz-adv-x="552" vert-adv-y="1000"  />

      
      <glyph glyph-name="unicc" unicode="&#xcc;" d="M62 674L243 674L243 0L62 0L62 674M-30 836L153 836L234 712L90 712L-30 836Z"  horiz-adv-x="305" vert-adv-y="1000"  />

      
      <glyph glyph-name="unicd" unicode="&#xcd;" d="M62 674L243 674L243 0L62 0L62 674M151 836L334 836L214 710L70 710L151 836Z"  horiz-adv-x="305" vert-adv-y="1000"  />

      
      <glyph glyph-name="unice" unicode="&#xce;" d="M62 674L243 674L243 0L62 0L62 674M86 836L221 836L320 710L199 710L154 769L152 769L108 710L-13 710L86 836Z"  horiz-adv-x="305" vert-adv-y="1000"  />

      
      <glyph glyph-name="unicf" unicode="&#xcf;" d="M62 674L243 674L243 0L62 0L62 674M46 709L45 709Q13 709-9.50 731.50Q-32 754-32 786Q-32 818-9.50 840Q13 862 46 862Q77 862 98.50 840Q120 818 120 786Q120 754 98.50 731.50Q77 709 46 709M263 709L262 709Q230 709 208 731.50Q186 754 186 786Q186 818 208 840Q230 862 263 862Q295 862 316.50 840Q338 818 338 786Q338 754 316 731.50Q294 709 263 709Z"  horiz-adv-x="305" vert-adv-y="1000"  />

      
      <glyph glyph-name="unid0" unicode="&#xd0;" d="M4 274L4 415L71 415L71 667Q158 682 286 682Q472 682 563 617Q685 533 685 355Q685 166 568 74Q463-10 251-10Q158-10 71 0L71 274L4 274M366 415L366 274L252 274L252 132Q261 130 290 130Q385 130 439.50 183Q494 236 494 349Q494 449 443.50 496.50Q393 544 307 544Q270 544 252 540L252 415L366 415Z"  horiz-adv-x="719" vert-adv-y="1000"  />

      
      <glyph glyph-name="unid1" unicode="&#xd1;" d="M227 0L62 0L62 674L275 674L382 467Q434 372 488 231L491 231Q477 356 477 514L477 674L642 674L642 0L452 0L337 224Q267 359 224 467L220 467Q227 340 227 166L227 0M287 714L207 714Q205 783 227 818Q249 853 288 853Q320 853 354 833Q385 813 397 813Q410 813 415.50 822Q421 831 424 857L502 857Q504 784 482.50 752.50Q461 721 418 721Q383 721 351 739Q320 757 310 757Q290 757 287 714Z"  horiz-adv-x="705" vert-adv-y="1000"  />

      
      <glyph glyph-name="unid2" unicode="&#xd2;" d="M359-11L358-11Q207-11 120.50 87.50Q34 186 34 333Q34 484 125.50 584.50Q217 685 369 685Q524 685 610 586.50Q696 488 696 344Q696 181 605 85Q514-11 359-11M365 132L367 132Q431 132 468 188.50Q505 245 505 338Q505 427 467.50 484.50Q430 542 365 542Q301 542 263 484.50Q225 427 225 337Q224 245 262 188.50Q300 132 365 132M183 836L366 836L447 712L303 712L183 836Z"  horiz-adv-x="730" vert-adv-y="1000"  />

      
      <glyph glyph-name="unid3" unicode="&#xd3;" d="M359-11L358-11Q207-11 120.50 87.50Q34 186 34 333Q34 484 125.50 584.50Q217 685 369 685Q524 685 610 586.50Q696 488 696 344Q696 181 605 85Q514-11 359-11M365 132L367 132Q431 132 468 188.50Q505 245 505 338Q505 427 467.50 484.50Q430 542 365 542Q301 542 263 484.50Q225 427 225 337Q224 245 262 188.50Q300 132 365 132M369 836L552 836L432 710L288 710L369 836Z"  horiz-adv-x="730" vert-adv-y="1000"  />

      
      <glyph glyph-name="unid4" unicode="&#xd4;" d="M359-11L358-11Q207-11 120.50 87.50Q34 186 34 333Q34 484 125.50 584.50Q217 685 369 685Q524 685 610 586.50Q696 488 696 344Q696 181 605 85Q514-11 359-11M365 132L367 132Q431 132 468 188.50Q505 245 505 338Q505 427 467.50 484.50Q430 542 365 542Q301 542 263 484.50Q225 427 225 337Q224 245 262 188.50Q300 132 365 132M298 836L433 836L532 710L411 710L366 769L364 769L320 710L199 710L298 836Z"  horiz-adv-x="730" vert-adv-y="1000"  />

      
      <glyph glyph-name="unid5" unicode="&#xd5;" d="M359-11L358-11Q207-11 120.50 87.50Q34 186 34 333Q34 484 125.50 584.50Q217 685 369 685Q524 685 610 586.50Q696 488 696 344Q696 181 605 85Q514-11 359-11M365 132L367 132Q431 132 468 188.50Q505 245 505 338Q505 427 467.50 484.50Q430 542 365 542Q301 542 263 484.50Q225 427 225 337Q224 245 262 188.50Q300 132 365 132M298 712L218 712Q216 781 238 816Q260 851 299 851Q331 851 365 831Q396 811 408 811Q421 811 426.50 820Q432 829 435 855L513 855Q515 782 493.50 750.50Q472 719 429 719Q394 719 362 737Q331 755 321 755Q301 755 298 712Z"  horiz-adv-x="730" vert-adv-y="1000"  />

      
      <glyph glyph-name="unid6" unicode="&#xd6;" d="M359-11L358-11Q207-11 120.50 87.50Q34 186 34 333Q34 484 125.50 584.50Q217 685 369 685Q524 685 610 586.50Q696 488 696 344Q696 181 605 85Q514-11 359-11M365 132L367 132Q431 132 468 188.50Q505 245 505 338Q505 427 467.50 484.50Q430 542 365 542Q301 542 263 484.50Q225 427 225 337Q224 245 262 188.50Q300 132 365 132M258 709L257 709Q225 709 202.50 731.50Q180 754 180 786Q180 818 202.50 840Q225 862 258 862Q289 862 310.50 840Q332 818 332 786Q332 754 310.50 731.50Q289 709 258 709M475 709L474 709Q442 709 420 731.50Q398 754 398 786Q398 818 420 840Q442 862 475 862Q507 862 528.50 840Q550 818 550 786Q550 754 528 731.50Q506 709 475 709Z"  horiz-adv-x="730" vert-adv-y="1000"  />

      
      <glyph glyph-name="unid7" unicode="&#xd7;" d="M40 450L115 526L298 339L481 526L556 450L373 263L556 77L481 0L298 187L115 0L40 77L223 263L40 450Z"  horiz-adv-x="596" vert-adv-y="1000"  />

      
      <glyph glyph-name="unid8" unicode="&#xd8;" d="M172-76L75 0L130 84Q34 180 34 338Q34 485 125.50 585Q217 685 366 685Q441 685 506 658L560 738L661 671L607 587Q696 492 696 341Q696 181 605 85Q514-11 365-11Q294-11 232 14L172-76M232 238L423 530Q399 545 365 545Q297 545 256 489Q215 433 215 338Q215 286 231 238L232 238M502 427L315 142Q334 129 365 129Q434 129 474.50 184.50Q515 240 515 338Q515 379 504 426L502 427Z"  horiz-adv-x="730" vert-adv-y="1000"  />

      
      <glyph glyph-name="unid9" unicode="&#xd9;" d="M61 674L242 674L242 291Q242 132 348 132Q455 132 455 291L455 674L636 674L636 302Q636 147 561 68Q486-11 343-11Q61-11 61 306L61 674M170 836L353 836L434 712L290 712L170 836Z"  horiz-adv-x="697" vert-adv-y="1000"  />

      
      <glyph glyph-name="unida" unicode="&#xda;" d="M61 674L242 674L242 291Q242 132 348 132Q455 132 455 291L455 674L636 674L636 302Q636 147 561 68Q486-11 343-11Q61-11 61 306L61 674M341 836L524 836L404 710L260 710L341 836Z"  horiz-adv-x="697" vert-adv-y="1000"  />

      
      <glyph glyph-name="unidb" unicode="&#xdb;" d="M61 674L242 674L242 291Q242 132 348 132Q455 132 455 291L455 674L636 674L636 302Q636 147 561 68Q486-11 343-11Q61-11 61 306L61 674M295 836L430 836L529 710L408 710L363 769L361 769L317 710L196 710L295 836Z"  horiz-adv-x="697" vert-adv-y="1000"  />

      
      <glyph glyph-name="unidc" unicode="&#xdc;" d="M61 674L242 674L242 291Q242 132 348 132Q455 132 455 291L455 674L636 674L636 302Q636 147 561 68Q486-11 343-11Q61-11 61 306L61 674M250 709L249 709Q217 709 194.50 731.50Q172 754 172 786Q172 818 194.50 840Q217 862 250 862Q281 862 302.50 840Q324 818 324 786Q324 754 302.50 731.50Q281 709 250 709M467 709L466 709Q434 709 412 731.50Q390 754 390 786Q390 818 412 840Q434 862 467 862Q499 862 520.50 840Q542 818 542 786Q542 754 520 731.50Q498 709 467 709Z"  horiz-adv-x="697" vert-adv-y="1000"  />

      
      <glyph glyph-name="unidd" unicode="&#xdd;" d="M400 0L219 0L219 272L7 674L214 674L271 522Q302 442 317 397L319 397Q338 458 362 522L417 674L621 674L400 279L400 0M320 836L503 836L383 710L239 710L320 836Z"  horiz-adv-x="629" vert-adv-y="1000"  />

      
      <glyph glyph-name="unide" unicode="&#xde;" d="M62 0L62 674L240 674L240 557Q285 560 317 560Q439 560 505 507Q574 451 574 354Q574 231 499 174Q424 117 305 117Q268 117 240 122L240 0L62 0M240 420L240 261Q260 256 297 256Q347 256 371.50 279.50Q396 303 396 341Q396 380 370.50 402Q345 424 297 424Q260 424 240 420Z"  horiz-adv-x="601" vert-adv-y="1000"  />

      
      <glyph glyph-name="unidf" unicode="&#xdf;" d="M236 0L55 0L55 422Q55 578 134 652Q208 721 330 721Q431 721 496 667.50Q561 614 561 528Q561 476 537 447Q485 419 485 382Q485 354 513 325Q538 297 549 284Q560 271 575.50 236.50Q591 202 591 167Q591 87 535 38Q479-11 379-11Q310-11 272 3L292 135Q316 124 355 124Q380 124 394.50 134Q409 144 409 161Q409 182 380 214Q378 216 369 226Q360 236 356 240.50Q352 245 343.50 255.50Q335 266 331 273Q327 280 320.50 291.50Q314 303 311 312.50Q308 322 305.50 334.50Q303 347 303 359Q303 441 381 484Q387 499 387 516Q387 544 369 564Q351 584 320 584Q236 584 236 439L236 0Z"  horiz-adv-x="622" vert-adv-y="1000"  />

      
      <glyph glyph-name="unie0" unicode="&#xe0;" d="M493 286L493 120Q493 40 501 0L338 0L329 43L325 43Q278-11 189-11Q116-11 71 34.50Q26 80 26 144Q26 239 103.50 287Q181 335 312 335L312 339Q312 381 231 381Q158 381 92 345L61 458Q143 503 265 503Q385 503 439 444.50Q493 386 493 286M318 185L318 225Q203 225 203 161Q203 114 254 114Q274 114 291.50 126.50Q309 139 316 159Q318 167 318 185M102 706L262 706L347 550L224 550L102 706Z"  horiz-adv-x="548" vert-adv-y="1000"  />

      
      <glyph glyph-name="unie1" unicode="&#xe1;" d="M493 286L493 120Q493 40 501 0L338 0L329 43L325 43Q278-11 189-11Q116-11 71 34.50Q26 80 26 144Q26 239 103.50 287Q181 335 312 335L312 339Q312 381 231 381Q158 381 92 345L61 458Q143 503 265 503Q385 503 439 444.50Q493 386 493 286M318 185L318 225Q203 225 203 161Q203 114 254 114Q274 114 291.50 126.50Q309 139 316 159Q318 167 318 185M283 706L443 706L320 550L198 550L283 706Z"  horiz-adv-x="548" vert-adv-y="1000"  />

      
      <glyph glyph-name="unie2" unicode="&#xe2;" d="M493 286L493 120Q493 40 501 0L338 0L329 43L325 43Q278-11 189-11Q116-11 71 34.50Q26 80 26 144Q26 239 103.50 287Q181 335 312 335L312 339Q312 381 231 381Q158 381 92 345L61 458Q143 503 265 503Q385 503 439 444.50Q493 386 493 286M318 185L318 225Q203 225 203 161Q203 114 254 114Q274 114 291.50 126.50Q309 139 316 159Q318 167 318 185M211 706L331 706L432 550L319 550L272 634L270 634L223 550L109 550L211 706Z"  horiz-adv-x="548" vert-adv-y="1000"  />

      
      <glyph glyph-name="unie3" unicode="&#xe3;" d="M493 286L493 120Q493 40 501 0L338 0L329 43L325 43Q278-11 189-11Q116-11 71 34.50Q26 80 26 144Q26 239 103.50 287Q181 335 312 335L312 339Q312 381 231 381Q158 381 92 345L61 458Q143 503 265 503Q385 503 439 444.50Q493 386 493 286M318 185L318 225Q203 225 203 161Q203 114 254 114Q274 114 291.50 126.50Q309 139 316 159Q318 167 318 185M195 553L113 553Q110 621 134.50 659Q159 697 201 697Q231 697 267 677Q301 657 310 657Q322 657 327.50 666Q333 675 335 702L415 702Q420 562 327 562Q297 562 255 584Q227 599 219 599Q196 599 195 553Z"  horiz-adv-x="548" vert-adv-y="1000"  />

      
      <glyph glyph-name="unie4" unicode="&#xe4;" d="M493 286L493 120Q493 40 501 0L338 0L329 43L325 43Q278-11 189-11Q116-11 71 34.50Q26 80 26 144Q26 239 103.50 287Q181 335 312 335L312 339Q312 381 231 381Q158 381 92 345L61 458Q143 503 265 503Q385 503 439 444.50Q493 386 493 286M318 185L318 225Q203 225 203 161Q203 114 254 114Q274 114 291.50 126.50Q309 139 316 159Q318 167 318 185M165 551L164 551Q130 551 107 574Q84 597 84 630Q84 664 107 686.50Q130 709 165 709Q197 709 219 686.50Q241 664 241 630Q241 597 219 574Q197 551 165 551M386 551L384 551Q351 551 328.50 574Q306 597 306 630Q306 664 328.50 686.50Q351 709 386 709Q419 709 441 686.50Q463 664 463 630Q463 597 441 574Q419 551 386 551Z"  horiz-adv-x="548" vert-adv-y="1000"  />

      
      <glyph glyph-name="unie5" unicode="&#xe5;" d="M493 286L493 120Q493 40 501 0L338 0L329 43L325 43Q278-11 189-11Q116-11 71 34.50Q26 80 26 144Q26 239 103.50 287Q181 335 312 335L312 339Q312 381 231 381Q158 381 92 345L61 458Q143 503 265 503Q385 503 439 444.50Q493 386 493 286M318 185L318 225Q203 225 203 161Q203 114 254 114Q274 114 291.50 126.50Q309 139 316 159Q318 167 318 185M277 741L278 741Q335 741 366 713Q397 685 397 640Q397 596 364.50 568Q332 540 277 540Q221 540 188.50 568Q156 596 156 639Q156 684 188 712.50Q220 741 277 741M277 686L276 686Q256 686 245 672Q234 658 234 639Q234 622 245.50 608.50Q257 595 276 595Q297 595 308.50 608Q320 621 320 640Q320 659 309 672.50Q298 686 277 686Z"  horiz-adv-x="548" vert-adv-y="1000"  />

      
      <glyph glyph-name="unie6" unicode="&#xe6;" d="M785 190L482 190Q486 160 519 140.50Q552 121 604 121Q677 121 743 147L766 27Q691-11 577-11Q516-11 466.50 9.50Q417 30 390 68L386 68Q316-11 203-11Q123-11 75 34.50Q27 80 27 149Q27 238 105.50 284.50Q184 331 314 331L314 343Q314 349 308 356.50Q302 364 281 372Q260 380 229 380Q163 380 96 343L63 456Q160 503 244 503Q357 503 408 434L410 434Q474 503 576 503Q679 503 734 431Q789 359 789 251Q789 239 787 217Q785 195 785 190M319 180L319 223Q203 223 203 162Q203 138 218 126Q233 114 256 114Q294 114 315 152Q319 159 319 180M481 310L624 310Q624 321 621.50 332.50Q619 344 612.50 357Q606 370 591 378.50Q576 387 555 387Q519 387 500 361.50Q481 336 481 310Z"  horiz-adv-x="816" vert-adv-y="1000"  />

      
      <glyph glyph-name="unie7" unicode="&#xe7;" d="M414 142L433 10Q398-7 327-10L311-42Q343-50 364-71.50Q385-93 385-127Q385-178 347.50-201Q310-224 258-224Q203-224 167-204L188-135Q214-149 245-149Q278-149 278-126Q278-100 199-91L237-5Q140 11 85.50 75.50Q31 140 31 241Q31 353 106.50 427.50Q182 502 320 502Q383 502 433 485L408 353Q379 365 330 365Q279 365 247 333Q215 301 216 248Q216 190 250 159.50Q284 129 335 129Q381 129 414 142Z"  horiz-adv-x="452" vert-adv-y="1000"  />

      
      <glyph glyph-name="unie8" unicode="&#xe8;" d="M506 183L202 183Q206 155 242.50 138.50Q279 122 329 122Q403 122 463 141L486 21Q406-10 302-10Q173-10 102 56.50Q31 123 31 241Q31 286 46 330.50Q61 375 90 414.50Q119 454 170 478.50Q221 503 286 503Q399 503 456 431.50Q513 360 513 251Q513 211 506 183M200 305L347 305Q347 334 331 359.50Q315 385 277 385Q241 385 222 359.50Q203 334 200 305M113 706L273 706L358 550L235 550L113 706Z"  horiz-adv-x="539" vert-adv-y="1000"  />

      
      <glyph glyph-name="unie9" unicode="&#xe9;" d="M506 183L202 183Q206 155 242.50 138.50Q279 122 329 122Q403 122 463 141L486 21Q406-10 302-10Q173-10 102 56.50Q31 123 31 241Q31 286 46 330.50Q61 375 90 414.50Q119 454 170 478.50Q221 503 286 503Q399 503 456 431.50Q513 360 513 251Q513 211 506 183M200 305L347 305Q347 334 331 359.50Q315 385 277 385Q241 385 222 359.50Q203 334 200 305M299 706L459 706L336 550L214 550L299 706Z"  horiz-adv-x="539" vert-adv-y="1000"  />

      
      <glyph glyph-name="uniea" unicode="&#xea;" d="M506 183L202 183Q206 155 242.50 138.50Q279 122 329 122Q403 122 463 141L486 21Q406-10 302-10Q173-10 102 56.50Q31 123 31 241Q31 286 46 330.50Q61 375 90 414.50Q119 454 170 478.50Q221 503 286 503Q399 503 456 431.50Q513 360 513 251Q513 211 506 183M200 305L347 305Q347 334 331 359.50Q315 385 277 385Q241 385 222 359.50Q203 334 200 305M221 706L341 706L442 550L329 550L282 634L280 634L233 550L119 550L221 706Z"  horiz-adv-x="539" vert-adv-y="1000"  />

      
      <glyph glyph-name="unieb" unicode="&#xeb;" d="M506 183L202 183Q206 155 242.50 138.50Q279 122 329 122Q403 122 463 141L486 21Q406-10 302-10Q173-10 102 56.50Q31 123 31 241Q31 286 46 330.50Q61 375 90 414.50Q119 454 170 478.50Q221 503 286 503Q399 503 456 431.50Q513 360 513 251Q513 211 506 183M200 305L347 305Q347 334 331 359.50Q315 385 277 385Q241 385 222 359.50Q203 334 200 305M177 551L176 551Q142 551 119 574Q96 597 96 630Q96 664 119 686.50Q142 709 177 709Q209 709 231 686.50Q253 664 253 630Q253 597 231 574Q209 551 177 551M398 551L396 551Q363 551 340.50 574Q318 597 318 630Q318 664 340.50 686.50Q363 709 398 709Q431 709 453 686.50Q475 664 475 630Q475 597 453 574Q431 551 398 551Z"  horiz-adv-x="539" vert-adv-y="1000"  />

      
      <glyph glyph-name="uniec" unicode="&#xec;" d="M236 0L55 0L55 492L236 492L236 0M-32 706L128 706L213 550L90 550L-32 706Z"  horiz-adv-x="292" vert-adv-y="1000"  />

      
      <glyph glyph-name="unied" unicode="&#xed;" d="M236 0L55 0L55 492L236 492L236 0M160 706L320 706L197 550L75 550L160 706Z"  horiz-adv-x="292" vert-adv-y="1000"  />

      
      <glyph glyph-name="uniee" unicode="&#xee;" d="M236 0L55 0L55 492L236 492L236 0M87 706L207 706L308 550L195 550L148 634L146 634L99 550L-15 550L87 706Z"  horiz-adv-x="292" vert-adv-y="1000"  />

      
      <glyph glyph-name="unief" unicode="&#xef;" d="M236 0L55 0L55 492L236 492L236 0M37 551L36 551Q2 551-21 574Q-44 597-44 630Q-44 664-21 686.50Q2 709 37 709Q69 709 91 686.50Q113 664 113 630Q113 597 91 574Q69 551 37 551M258 551L256 551Q223 551 200.50 574Q178 597 178 630Q178 664 200.50 686.50Q223 709 258 709Q291 709 313 686.50Q335 664 335 630Q335 597 313 574Q291 551 258 551Z"  horiz-adv-x="292" vert-adv-y="1000"  />

      
      <glyph glyph-name="unif0" unicode="&#xf0;" d="M296 116L297 116Q334 116 353 149.50Q372 183 372 241Q372 310 353 335Q332 361 297 361Q255 361 236 323.50Q217 286 217 238Q217 185 236.50 150.50Q256 116 296 116M104 465L73 532L173 576Q135 598 84 618L162 717Q244 690 326 638L469 697L503 632L398 588Q473 530 517 441Q558 362 558 259Q558 128 481 58.50Q404-11 295-11Q181-11 106 57Q31 125 31 238Q31 338 98.50 401.50Q166 465 267 468Q296 470 320 459L322 461Q285 503 248 525L104 465Z"  horiz-adv-x="589" vert-adv-y="1000"  />

      
      <glyph glyph-name="unif1" unicode="&#xf1;" d="M55 0L55 324Q55 400 51 492L207 492L215 429L218 429Q237 456 274.50 479.50Q312 503 366 503Q452 503 498 447.50Q544 392 544 290L544 0L363 0L363 268Q363 358 300 358Q259 358 241 315Q236 304 236 279L236 0L55 0M233 553L151 553Q148 621 172.50 659Q197 697 239 697Q269 697 305 677Q339 657 348 657Q360 657 365.50 666Q371 675 373 702L453 702Q458 562 365 562Q335 562 293 584Q265 599 257 599Q234 599 233 553Z"  horiz-adv-x="599" vert-adv-y="1000"  />

      
      <glyph glyph-name="unif2" unicode="&#xf2;" d="M293-11L292-11Q178-11 104.50 57Q31 125 31 242Q31 361 104 432Q177 503 302 503Q417 503 487.50 433Q558 363 558 251Q558 124 481 56.50Q404-11 293-11M296 116L297 116Q333 116 352.50 151Q372 186 372 246Q372 302 353 339Q334 376 297 376Q255 376 236 338.50Q217 301 217 246Q217 187 237 151.50Q257 116 296 116M128 706L288 706L373 550L250 550L128 706Z"  horiz-adv-x="589" vert-adv-y="1000"  />

      
      <glyph glyph-name="unif3" unicode="&#xf3;" d="M293-11L292-11Q178-11 104.50 57Q31 125 31 242Q31 361 104 432Q177 503 302 503Q417 503 487.50 433Q558 363 558 251Q558 124 481 56.50Q404-11 293-11M296 116L297 116Q333 116 352.50 151Q372 186 372 246Q372 302 353 339Q334 376 297 376Q255 376 236 338.50Q217 301 217 246Q217 187 237 151.50Q257 116 296 116M307 706L467 706L344 550L222 550L307 706Z"  horiz-adv-x="589" vert-adv-y="1000"  />

      
      <glyph glyph-name="unif4" unicode="&#xf4;" d="M293-11L292-11Q178-11 104.50 57Q31 125 31 242Q31 361 104 432Q177 503 302 503Q417 503 487.50 433Q558 363 558 251Q558 124 481 56.50Q404-11 293-11M296 116L297 116Q333 116 352.50 151Q372 186 372 246Q372 302 353 339Q334 376 297 376Q255 376 236 338.50Q217 301 217 246Q217 187 237 151.50Q257 116 296 116M236 706L356 706L457 550L344 550L297 634L295 634L248 550L134 550L236 706Z"  horiz-adv-x="589" vert-adv-y="1000"  />

      
      <glyph glyph-name="unif5" unicode="&#xf5;" d="M293-11L292-11Q178-11 104.50 57Q31 125 31 242Q31 361 104 432Q177 503 302 503Q417 503 487.50 433Q558 363 558 251Q558 124 481 56.50Q404-11 293-11M296 116L297 116Q333 116 352.50 151Q372 186 372 246Q372 302 353 339Q334 376 297 376Q255 376 236 338.50Q217 301 217 246Q217 187 237 151.50Q257 116 296 116M227 553L145 553Q142 621 166.50 659Q191 697 233 697Q263 697 299 677Q333 657 342 657Q354 657 359.50 666Q365 675 367 702L447 702Q452 562 359 562Q329 562 287 584Q259 599 251 599Q228 599 227 553Z"  horiz-adv-x="589" vert-adv-y="1000"  />

      
      <glyph glyph-name="unif6" unicode="&#xf6;" d="M293-11L292-11Q178-11 104.50 57Q31 125 31 242Q31 361 104 432Q177 503 302 503Q417 503 487.50 433Q558 363 558 251Q558 124 481 56.50Q404-11 293-11M296 116L297 116Q333 116 352.50 151Q372 186 372 246Q372 302 353 339Q334 376 297 376Q255 376 236 338.50Q217 301 217 246Q217 187 237 151.50Q257 116 296 116M186 551L185 551Q151 551 128 574Q105 597 105 630Q105 664 128 686.50Q151 709 186 709Q218 709 240 686.50Q262 664 262 630Q262 597 240 574Q218 551 186 551M407 551L405 551Q372 551 349.50 574Q327 597 327 630Q327 664 349.50 686.50Q372 709 407 709Q440 709 462 686.50Q484 664 484 630Q484 597 462 574Q440 551 407 551Z"  horiz-adv-x="589" vert-adv-y="1000"  />

      
      <glyph glyph-name="unif7" unicode="&#xf7;" d="M298 361L297 361Q262 361 239.50 383.50Q217 406 217 443Q217 480 239.50 502.50Q262 525 299 525Q335 525 357 502.50Q379 480 380 443Q380 406 357.50 383.50Q335 361 298 361M556 213L40 213L40 321L556 321L556 213M298 9L297 9Q262 9 239.50 31.50Q217 54 217 91Q217 128 239.50 150.50Q262 173 299 173Q335 173 357 150.50Q379 128 380 91Q380 54 357.50 31.50Q335 9 298 9Z"  horiz-adv-x="596" vert-adv-y="1000"  />

      
      <glyph glyph-name="unif8" unicode="&#xf8;" d="M294 503L295 503Q362 503 411 480L460 553L519 512L472 442Q558 373 558 246Q558 124 481 56.50Q404-11 296-11Q231-11 183 11L132-64L75-19L121 48Q31 116 31 245Q31 360 103 431.50Q175 503 294 503M216 186L334 363Q316 376 294 376Q248 376 226 337Q204 298 204 246Q204 208 214 187L216 186M375 301L258 129Q271 116 296 116Q338 116 361.50 150Q385 184 385 242Q385 276 378 300L375 301Z"  horiz-adv-x="589" vert-adv-y="1000"  />

      
      <glyph glyph-name="unif9" unicode="&#xf9;" d="M541 492L541 168Q541 84 545 0L389 0L381 65L378 65Q327-11 229-11Q145-11 99.50 43Q54 97 54 202L54 492L235 492L235 231Q235 134 298 134Q341 134 356 176Q360 185 360 202L360 492L541 492M128 706L288 706L373 550L250 550L128 706Z"  horiz-adv-x="598" vert-adv-y="1000"  />

      
      <glyph glyph-name="unifa" unicode="&#xfa;" d="M541 492L541 168Q541 84 545 0L389 0L381 65L378 65Q327-11 229-11Q145-11 99.50 43Q54 97 54 202L54 492L235 492L235 231Q235 134 298 134Q341 134 356 176Q360 185 360 202L360 492L541 492M313 706L473 706L350 550L228 550L313 706Z"  horiz-adv-x="598" vert-adv-y="1000"  />

      
      <glyph glyph-name="unifb" unicode="&#xfb;" d="M541 492L541 168Q541 84 545 0L389 0L381 65L378 65Q327-11 229-11Q145-11 99.50 43Q54 97 54 202L54 492L235 492L235 231Q235 134 298 134Q341 134 356 176Q360 185 360 202L360 492L541 492M240 706L360 706L461 550L348 550L301 634L299 634L252 550L138 550L240 706Z"  horiz-adv-x="598" vert-adv-y="1000"  />

      
      <glyph glyph-name="unifc" unicode="&#xfc;" d="M541 492L541 168Q541 84 545 0L389 0L381 65L378 65Q327-11 229-11Q145-11 99.50 43Q54 97 54 202L54 492L235 492L235 231Q235 134 298 134Q341 134 356 176Q360 185 360 202L360 492L541 492M193 551L192 551Q158 551 135 574Q112 597 112 630Q112 664 135 686.50Q158 709 193 709Q225 709 247 686.50Q269 664 269 630Q269 597 247 574Q225 551 193 551M414 551L412 551Q379 551 356.50 574Q334 597 334 630Q334 664 356.50 686.50Q379 709 414 709Q447 709 469 686.50Q491 664 491 630Q491 597 469 574Q447 551 414 551Z"  horiz-adv-x="598" vert-adv-y="1000"  />

      
      <glyph glyph-name="unifd" unicode="&#xfd;" d="M5 492L205 492L264 271Q268 255 276.50 220Q285 185 285 183L289 183Q292 195 298 226Q304 257 307 270L352 492L544 492L439 179Q387 33 347-39Q307-111 264-149Q194-211 100-221L63-69Q95-64 125-50Q159-37 183-5Q192 8 192 17Q192 29 185 43L5 492M302 706L462 706L339 550L217 550L302 706Z"  horiz-adv-x="545" vert-adv-y="1000"  />

      
      <glyph glyph-name="unife" unicode="&#xfe;" d="M55 680L236 680L236 439L238 439Q283 503 376 503Q457 505 518 436.50Q579 368 579 249Q579 184 558.50 132Q538 80 505 50Q472 20 434.50 4.50Q397-11 359-11Q278-11 238 38L236 38L236-198L55-198L55 680M236 285L236 203Q236 174 252 155Q277 126 309 126Q349 126 372.50 158.50Q396 191 396 246Q396 297 374 329.50Q352 362 314 362Q268 362 246 323Q236 305 236 285Z"  horiz-adv-x="610" vert-adv-y="1000"  />

      
      <glyph glyph-name="uniff" unicode="&#xff;" d="M5 492L205 492L264 271Q268 255 276.50 220Q285 185 285 183L289 183Q292 195 298 226Q304 257 307 270L352 492L544 492L439 179Q387 33 347-39Q307-111 264-149Q194-211 100-221L63-69Q95-64 125-50Q159-37 183-5Q192 8 192 17Q192 29 185 43L5 492M176 551L175 551Q141 551 118 574Q95 597 95 630Q95 664 118 686.50Q141 709 176 709Q208 709 230 686.50Q252 664 252 630Q252 597 230 574Q208 551 176 551M397 551L395 551Q362 551 339.50 574Q317 597 317 630Q317 664 339.50 686.50Q362 709 397 709Q430 709 452 686.50Q474 664 474 630Q474 597 452 574Q430 551 397 551Z"  horiz-adv-x="545" vert-adv-y="1000"  />

      
      <glyph glyph-name="uni0100" unicode="&#x0100;" d="M413 156L239 156L201 0L14 0L210 674L450 674L651 0L456 0L413 156M263 289L388 289L357 410Q351 432 338.50 483.50Q326 535 324 543L322 543Q317 524 307 477Q297 430 292 410L263 289M199 827L467 827L467 735L199 735L199 827Z"  horiz-adv-x="675" vert-adv-y="1000"  />

      
      <glyph glyph-name="uni0101" unicode="&#x0101;" d="M493 286L493 120Q493 40 501 0L338 0L329 43L325 43Q278-11 189-11Q116-11 71 34.50Q26 80 26 144Q26 239 103.50 287Q181 335 312 335L312 339Q312 381 231 381Q158 381 92 345L61 458Q143 503 265 503Q385 503 439 444.50Q493 386 493 286M318 185L318 225Q203 225 203 161Q203 114 254 114Q274 114 291.50 126.50Q309 139 316 159Q318 167 318 185M144 675L405 675L405 579L144 579L144 675Z"  horiz-adv-x="548" vert-adv-y="1000"  />

      
      <glyph glyph-name="uni0102" unicode="&#x0102;" d="M413 156L239 156L201 0L14 0L210 674L450 674L651 0L456 0L413 156M263 289L388 289L357 410Q351 432 338.50 483.50Q326 535 324 543L322 543Q317 524 307 477Q297 430 292 410L263 289M188 841L281 841Q285 796 334 796Q384 796 393 841L482 841Q481 779 444 742.50Q407 706 335 706Q261 706 225.50 742Q190 778 188 841Z"  horiz-adv-x="675" vert-adv-y="1000"  />

      
      <glyph glyph-name="uni0103" unicode="&#x0103;" d="M493 286L493 120Q493 40 501 0L338 0L329 43L325 43Q278-11 189-11Q116-11 71 34.50Q26 80 26 144Q26 239 103.50 287Q181 335 312 335L312 339Q312 381 231 381Q158 381 92 345L61 458Q143 503 265 503Q385 503 439 444.50Q493 386 493 286M318 185L318 225Q203 225 203 161Q203 114 254 114Q274 114 291.50 126.50Q309 139 316 159Q318 167 318 185M129 697L220 697Q228 639 273 639Q301 639 314.50 655.50Q328 672 329 697L419 697Q418 628 381 587Q344 546 274 546Q204 546 167 587Q130 628 129 697Z"  horiz-adv-x="548" vert-adv-y="1000"  />

      
      <glyph glyph-name="uni0104" unicode="&#x0104;" d="M450 674L651 0L551 0Q538-30 538-57Q538-82 554-98.50Q570-115 594-115Q619-115 637-109L661-190Q615-225 550-225Q493-225 461-196Q429-167 429-110Q429-94 433-75Q437-56 440.50-44Q444-32 450-16.50Q456-1 456 0L413 156L239 156L201 0L14 0L210 674L450 674M263 289L388 289L357 410Q351 432 338.50 483.50Q326 535 324 543L322 543Q317 524 307 477Q297 430 292 410L263 289Z"  horiz-adv-x="675" vert-adv-y="1000"  />

      
      <glyph glyph-name="uni0105" unicode="&#x0105;" d="M493 286L493 120Q493 40 501 0L434 0Q421-32 421-60Q421-84 434-98Q447-112 468-112Q492-112 512-103L537-185Q486-224 421-224Q372-224 342-195.50Q312-167 312-115Q312-97 315.50-77.50Q319-58 322.50-46.50Q326-35 332-18.50Q338-2 338 0L329 43L325 43Q278-11 189-11Q116-11 71 34.50Q26 80 26 144Q26 239 103.50 287Q181 335 312 335L312 339Q312 381 231 381Q158 381 92 345L61 458Q143 503 265 503Q385 503 439 444.50Q493 386 493 286M318 185L318 225Q203 225 203 161Q203 114 254 114Q274 114 291.50 126.50Q309 139 316 159Q318 167 318 185Z"  horiz-adv-x="548" vert-adv-y="1000"  />

      
      <glyph glyph-name="uni0106" unicode="&#x0106;" d="M541 159L566 18Q512-10 397-10Q305-10 234 17Q163 44 120.50 91Q78 138 56 197.50Q34 257 34 326Q34 440 86.50 523Q139 606 222.50 645Q306 684 409 684Q519 684 577 655L542 512Q484 536 417 536Q334 536 279 485.50Q224 435 224 338Q224 246 276 193Q328 140 421 140Q493 140 541 159M368 836L551 836L431 710L287 710L368 836Z"  horiz-adv-x="602" vert-adv-y="1000"  />

      
      <glyph glyph-name="uni0107" unicode="&#x0107;" d="M414 143L433 11Q390-10 298-10Q175-10 103 57.50Q31 125 31 242Q31 353 106.50 427.50Q182 502 320 502Q383 502 433 485L408 353Q379 365 330 365Q279 365 247 333Q215 301 216 248Q216 191 250 160.50Q284 130 335 130Q381 130 414 143M286 706L446 706L323 550L201 550L286 706Z"  horiz-adv-x="452" vert-adv-y="1000"  />

      
      <glyph glyph-name="uni0108" unicode="&#x0108;" d="M541 159L566 18Q512-10 397-10Q305-10 234 17Q163 44 120.50 91Q78 138 56 197.50Q34 257 34 326Q34 440 86.50 523Q139 606 222.50 645Q306 684 409 684Q519 684 577 655L542 512Q484 536 417 536Q334 536 279 485.50Q224 435 224 338Q224 246 276 193Q328 140 421 140Q493 140 541 159M296 840L431 840L530 714L409 714L364 773L362 773L318 714L197 714L296 840Z"  horiz-adv-x="602" vert-adv-y="1000"  />

      
      <glyph glyph-name="uni0109" unicode="&#x0109;" d="M414 143L433 11Q390-10 298-10Q175-10 103 57.50Q31 125 31 242Q31 353 106.50 427.50Q182 502 320 502Q383 502 433 485L408 353Q379 365 330 365Q279 365 247 333Q215 301 216 248Q216 191 250 160.50Q284 130 335 130Q381 130 414 143M208 706L328 706L429 550L316 550L269 634L267 634L220 550L106 550L208 706Z"  horiz-adv-x="452" vert-adv-y="1000"  />

      
      <glyph glyph-name="uni010A" unicode="&#x010A;" d="M541 159L566 18Q512-10 397-10Q305-10 234 17Q163 44 120.50 91Q78 138 56 197.50Q34 257 34 326Q34 440 86.50 523Q139 606 222.50 645Q306 684 409 684Q519 684 577 655L542 512Q484 536 417 536Q334 536 279 485.50Q224 435 224 338Q224 246 276 193Q328 140 421 140Q493 140 541 159M365 709L364 709Q331 709 308.50 731.50Q286 754 286 785Q286 818 309 840Q332 862 365 862Q397 862 418.50 840Q440 818 440 785Q440 754 418 731.50Q396 709 365 709Z"  horiz-adv-x="602" vert-adv-y="1000"  />

      
      <glyph glyph-name="uni010B" unicode="&#x010B;" d="M414 143L433 11Q390-10 298-10Q175-10 103 57.50Q31 125 31 242Q31 353 106.50 427.50Q182 502 320 502Q383 502 433 485L408 353Q379 365 330 365Q279 365 247 333Q215 301 216 248Q216 191 250 160.50Q284 130 335 130Q381 130 414 143M284 551L283 551Q249 551 226 574Q203 597 203 630Q203 664 226 686.50Q249 709 284 709Q316 709 338 686.50Q360 664 360 630Q360 597 338 574Q316 551 284 551Z"  horiz-adv-x="452" vert-adv-y="1000"  />

      
      <glyph glyph-name="uni010C" unicode="&#x010C;" d="M541 159L566 18Q512-10 397-10Q305-10 234 17Q163 44 120.50 91Q78 138 56 197.50Q34 257 34 326Q34 440 86.50 523Q139 606 222.50 645Q306 684 409 684Q519 684 577 655L542 512Q484 536 417 536Q334 536 279 485.50Q224 435 224 338Q224 246 276 193Q328 140 421 140Q493 140 541 159M433 710L298 710L199 836L320 836L365 777L367 777L411 836L532 836L433 710Z"  horiz-adv-x="602" vert-adv-y="1000"  />

      
      <glyph glyph-name="uni010D" unicode="&#x010D;" d="M414 143L433 11Q390-10 298-10Q175-10 103 57.50Q31 125 31 242Q31 353 106.50 427.50Q182 502 320 502Q383 502 433 485L408 353Q379 365 330 365Q279 365 247 333Q215 301 216 248Q216 191 250 160.50Q284 130 335 130Q381 130 414 143M332 550L212 550L111 706L224 706L271 622L273 622L320 706L434 706L332 550Z"  horiz-adv-x="452" vert-adv-y="1000"  />

      
      <glyph glyph-name="uni010E" unicode="&#x010E;" d="M62 4L62 664Q149 679 277 679Q458 679 554 612Q676 528 676 353Q676 167 559 75Q453-8 242-8Q132-8 62 4M243 537L243 134Q252 132 281 132Q374 130 429.50 184Q485 238 485 347Q485 442 434 491.50Q383 541 298 541Q261 541 243 537M395 710L260 710L161 836L282 836L327 777L329 777L373 836L494 836L395 710Z"  horiz-adv-x="710" vert-adv-y="1000"  />

      
      <glyph glyph-name="uni010F" unicode="&#x010F;" d="M373 711L554 711L554 155Q554 66 558 0L397 0L390 66L388 66Q343-11 240-11Q152-11 91.50 59Q31 129 31 242Q30 362 94.50 432.50Q159 503 251 503Q338 503 371 455L373 455L373 711M373 224L373 279Q373 295 372 302Q367 329 348 347Q329 365 301 365Q258 365 236 331.50Q214 298 214 247Q214 192 238 162Q262 132 300 132Q327 132 346 149Q365 166 370 191Q373 201 373 224M669 484L592 529Q616 577 616 636Q616 671 601 705L711 723Q723 713 732 691.50Q741 670 741 647Q741 548 669 484Z"  horiz-adv-x="620" vert-adv-y="1000"  />

      
      <glyph glyph-name="uni0110" unicode="&#x0110;" d="M4 274L4 415L71 415L71 667Q158 682 286 682Q472 682 563 617Q685 533 685 355Q685 166 568 74Q463-10 251-10Q158-10 71 0L71 274L4 274M366 415L366 274L252 274L252 132Q261 130 290 130Q385 130 439.50 183Q494 236 494 349Q494 449 443.50 496.50Q393 544 307 544Q270 544 252 540L252 415L366 415Z"  horiz-adv-x="719" vert-adv-y="1000"  />

      
      <glyph glyph-name="uni0111" unicode="&#x0111;" d="M636 535L554 535L554 155Q554 66 558 0L397 0L390 66L388 66Q343-11 240-11Q152-11 91.50 59Q31 129 31 242Q30 362 94.50 432.50Q159 503 251 503Q338 503 371 455L373 455L373 535L200 535L200 631L373 631L373 711L554 711L554 631L636 631L636 535M373 224L373 279Q373 295 372 302Q367 329 348 347Q329 365 301 365Q258 365 236 331.50Q214 298 214 247Q214 192 238 162Q262 132 300 132Q327 132 346 149Q365 166 370 191Q373 201 373 224Z"  horiz-adv-x="610" vert-adv-y="1000"  />

      
      <glyph glyph-name="uni0112" unicode="&#x0112;" d="M485 418L485 272L243 272L243 148L514 148L514 0L62 0L62 674L500 674L500 526L243 526L243 418L485 418M143 827L411 827L411 735L143 735L143 827Z"  horiz-adv-x="552" vert-adv-y="1000"  />

      
      <glyph glyph-name="uni0113" unicode="&#x0113;" d="M506 183L202 183Q206 155 242.50 138.50Q279 122 329 122Q403 122 463 141L486 21Q406-10 302-10Q173-10 102 56.50Q31 123 31 241Q31 286 46 330.50Q61 375 90 414.50Q119 454 170 478.50Q221 503 286 503Q399 503 456 431.50Q513 360 513 251Q513 211 506 183M200 305L347 305Q347 334 331 359.50Q315 385 277 385Q241 385 222 359.50Q203 334 200 305M144 675L405 675L405 579L144 579L144 675Z"  horiz-adv-x="539" vert-adv-y="1000"  />

      
      <glyph glyph-name="uni0114" unicode="&#x0114;" d="M485 418L485 272L243 272L243 148L514 148L514 0L62 0L62 674L500 674L500 526L243 526L243 418L485 418M139 842L232 842Q236 797 285 797Q335 797 344 842L433 842Q432 780 395 743.50Q358 707 286 707Q212 707 176.50 743Q141 779 139 842Z"  horiz-adv-x="552" vert-adv-y="1000"  />

      
      <glyph glyph-name="uni0115" unicode="&#x0115;" d="M506 183L202 183Q206 155 242.50 138.50Q279 122 329 122Q403 122 463 141L486 21Q406-10 302-10Q173-10 102 56.50Q31 123 31 241Q31 286 46 330.50Q61 375 90 414.50Q119 454 170 478.50Q221 503 286 503Q399 503 456 431.50Q513 360 513 251Q513 211 506 183M200 305L347 305Q347 334 331 359.50Q315 385 277 385Q241 385 222 359.50Q203 334 200 305M130 697L221 697Q229 639 274 639Q302 639 315.50 655.50Q329 672 330 697L420 697Q419 628 382 587Q345 546 275 546Q205 546 168 587Q131 628 130 697Z"  horiz-adv-x="539" vert-adv-y="1000"  />

      
      <glyph glyph-name="uni0116" unicode="&#x0116;" d="M485 418L485 272L243 272L243 148L514 148L514 0L62 0L62 674L500 674L500 526L243 526L243 418L485 418M278 709L277 709Q244 709 221.50 731.50Q199 754 199 785Q199 818 222 840Q245 862 278 862Q310 862 331.50 840Q353 818 353 785Q353 754 331 731.50Q309 709 278 709Z"  horiz-adv-x="552" vert-adv-y="1000"  />

      
      <glyph glyph-name="uni0117" unicode="&#x0117;" d="M506 183L202 183Q206 155 242.50 138.50Q279 122 329 122Q403 122 463 141L486 21Q406-10 302-10Q173-10 102 56.50Q31 123 31 241Q31 286 46 330.50Q61 375 90 414.50Q119 454 170 478.50Q221 503 286 503Q399 503 456 431.50Q513 360 513 251Q513 211 506 183M200 305L347 305Q347 334 331 359.50Q315 385 277 385Q241 385 222 359.50Q203 334 200 305M279 551L278 551Q244 551 221 574Q198 597 198 630Q198 664 221 686.50Q244 709 279 709Q311 709 333 686.50Q355 664 355 630Q355 597 333 574Q311 551 279 551Z"  horiz-adv-x="539" vert-adv-y="1000"  />

      
      <glyph glyph-name="uni0118" unicode="&#x0118;" d="M497-107L522-189Q476-225 402-225Q351-225 322-199Q293-173 293-127Q293-54 360 0L62 0L62 674L499 674L499 526L243 526L243 418L485 418L485 272L243 272L243 148L513 148L513 0L484 0Q459-17 440.50-41Q422-65 422-86Q422-99 431.50-107Q441-115 456-115Q476-115 497-107Z"  horiz-adv-x="552" vert-adv-y="1000"  />

      
      <glyph glyph-name="uni0119" unicode="&#x0119;" d="M437-105L463-187Q416-225 346-225Q295-225 266.50-201Q238-177 238-136Q238-71 303-11L303-10L296-10Q171-9 101 57.50Q31 124 31 241Q31 286 46 330.50Q61 375 90 414.50Q119 454 170 478.50Q221 503 286 503Q399 503 456 431.50Q513 360 513 251Q513 211 506 183L202 183Q206 155 242.50 138.50Q279 122 329 122Q403 122 463 141L486 21Q478 18 463.50 13Q449 8 444 6Q416-8 389-36Q362-64 362-86Q362-100 371.50-107.50Q381-115 394-115Q416-115 437-105M200 305L347 305Q347 334 331 359.50Q315 385 278 385Q242 385 222.50 359.50Q203 334 200 305Z"  horiz-adv-x="539" vert-adv-y="1000"  />

      
      <glyph glyph-name="uni011A" unicode="&#x011A;" d="M485 418L485 272L243 272L243 148L514 148L514 0L62 0L62 674L500 674L500 526L243 526L243 418L485 418M344 710L209 710L110 836L231 836L276 777L278 777L322 836L443 836L344 710Z"  horiz-adv-x="552" vert-adv-y="1000"  />

      
      <glyph glyph-name="uni011B" unicode="&#x011B;" d="M506 183L202 183Q206 155 242.50 138.50Q279 122 329 122Q403 122 463 141L486 21Q406-10 302-10Q173-10 102 56.50Q31 123 31 241Q31 286 46 330.50Q61 375 90 414.50Q119 454 170 478.50Q221 503 286 503Q399 503 456 431.50Q513 360 513 251Q513 211 506 183M200 305L347 305Q347 334 331 359.50Q315 385 277 385Q241 385 222 359.50Q203 334 200 305M334 550L214 550L113 706L226 706L273 622L275 622L322 706L436 706L334 550Z"  horiz-adv-x="539" vert-adv-y="1000"  />

      
      <glyph glyph-name="uni011C" unicode="&#x011C;" d="M646 400L646 31Q532-7 413-7Q226-7 130 84Q34 175 34 327Q35 497 146 589Q257 681 428 681Q555 681 623 648L587 503Q522 532 427 532Q338 532 281 483.50Q224 435 224 337Q224 244 277 191Q330 138 415 138Q458 138 472 144L472 260L382 260L382 400L646 400M313 840L448 840L547 714L426 714L381 773L379 773L335 714L214 714L313 840Z"  horiz-adv-x="697" vert-adv-y="1000"  />

      
      <glyph glyph-name="uni011D" unicode="&#x011D;" d="M540 341L540 72Q540-81 463-148Q392-209 256-209Q144-209 73-172L107-36Q171-72 249-72Q300-72 331.50-44Q363-16 363 39L363 61L361 61Q316 6 238 6Q147 6 89 72.50Q31 139 31 245Q31 359 95.50 431Q160 503 254 503Q340 503 381 439L383 439L389 492L544 492Q540 430 540 341M360 223L360 289Q360 298 358 312Q346 368 294 368Q260 368 237 336Q214 304 214 248Q214 199 235.50 168Q257 137 294 137Q318 137 335 151Q352 165 357 186Q360 196 360 223M241 706L361 706L462 550L349 550L302 634L300 634L253 550L139 550L241 706Z"  horiz-adv-x="596" vert-adv-y="1000"  />

      
      <glyph glyph-name="uni011E" unicode="&#x011E;" d="M646 400L646 31Q532-7 413-7Q226-7 130 84Q34 175 34 327Q35 497 146 589Q257 681 428 681Q555 681 623 648L587 503Q522 532 427 532Q338 532 281 483.50Q224 435 224 337Q224 244 277 191Q330 138 415 138Q458 138 472 144L472 260L382 260L382 400L646 400M241 847L334 847Q338 802 387 802Q437 802 446 847L535 847Q534 785 497 748.50Q460 712 388 712Q314 712 278.50 748Q243 784 241 847Z"  horiz-adv-x="697" vert-adv-y="1000"  />

      
      <glyph glyph-name="uni011F" unicode="&#x011F;" d="M540 341L540 72Q540-81 463-148Q392-209 256-209Q144-209 73-172L107-36Q171-72 249-72Q300-72 331.50-44Q363-16 363 39L363 61L361 61Q316 6 238 6Q147 6 89 72.50Q31 139 31 245Q31 359 95.50 431Q160 503 254 503Q340 503 381 439L383 439L389 492L544 492Q540 430 540 341M360 223L360 289Q360 298 358 312Q346 368 294 368Q260 368 237 336Q214 304 214 248Q214 199 235.50 168Q257 137 294 137Q318 137 335 151Q352 165 357 186Q360 196 360 223M156 697L247 697Q255 639 300 639Q328 639 341.50 655.50Q355 672 356 697L446 697Q445 628 408 587Q371 546 301 546Q231 546 194 587Q157 628 156 697Z"  horiz-adv-x="596" vert-adv-y="1000"  />

      
      <glyph glyph-name="uni0120" unicode="&#x0120;" d="M646 400L646 31Q532-7 413-7Q226-7 130 84Q34 175 34 327Q35 497 146 589Q257 681 428 681Q555 681 623 648L587 503Q522 532 427 532Q338 532 281 483.50Q224 435 224 337Q224 244 277 191Q330 138 415 138Q458 138 472 144L472 260L382 260L382 400L646 400M383 709L382 709Q349 709 326.50 731.50Q304 754 304 785Q304 818 327 840Q350 862 383 862Q415 862 436.50 840Q458 818 458 785Q458 754 436 731.50Q414 709 383 709Z"  horiz-adv-x="697" vert-adv-y="1000"  />

      
      <glyph glyph-name="uni0121" unicode="&#x0121;" d="M540 341L540 72Q540-81 463-148Q392-209 256-209Q144-209 73-172L107-36Q171-72 249-72Q300-72 331.50-44Q363-16 363 39L363 61L361 61Q316 6 238 6Q147 6 89 72.50Q31 139 31 245Q31 359 95.50 431Q160 503 254 503Q340 503 381 439L383 439L389 492L544 492Q540 430 540 341M360 223L360 289Q360 298 358 312Q346 368 294 368Q260 368 237 336Q214 304 214 248Q214 199 235.50 168Q257 137 294 137Q318 137 335 151Q352 165 357 186Q360 196 360 223M297 551L296 551Q262 551 239 574Q216 597 216 630Q216 664 239 686.50Q262 709 297 709Q329 709 351 686.50Q373 664 373 630Q373 597 351 574Q329 551 297 551Z"  horiz-adv-x="596" vert-adv-y="1000"  />

      
      <glyph glyph-name="uni0122" unicode="&#x0122;" d="M646 400L646 31Q532-7 413-7Q226-7 130 84Q34 175 34 327Q35 497 146 589Q257 681 428 681Q555 681 623 648L587 503Q522 532 427 532Q338 532 281 483.50Q224 435 224 337Q224 244 277 191Q330 138 415 138Q458 138 472 144L472 260L382 260L382 400L646 400M284-250L259-175Q284-169 302.50-153.50Q321-138 321-116Q321-94 294-57L417-38Q456-67 456-119Q456-182 409-215Q362-248 284-250Z"  horiz-adv-x="697" vert-adv-y="1000"  />

      
      <glyph glyph-name="uni0123" unicode="&#x0123;" d="M540 341L540 72Q540-81 463-148Q392-209 256-209Q144-209 73-172L107-36Q171-72 249-72Q300-72 331.50-44Q363-16 363 39L363 61L361 61Q318 6 239 6Q148 6 89.50 72Q31 138 31 245Q31 359 95.50 431Q160 503 255 503Q340 503 381 439L383 439L389 492L544 492Q540 430 540 341M360 223L360 289Q360 298 358 312Q346 368 294 368Q261 368 237.50 336Q214 304 214 248Q214 199 236 168Q258 137 294 137Q318 137 335 151Q352 165 357 186Q360 196 360 223M378 730L403 669Q333 658 333 611Q333 588 361 558L246 541Q207 568 207 613Q207 670 253.50 699Q300 728 378 730Z"  horiz-adv-x="596" vert-adv-y="1000"  />

      
      <glyph glyph-name="uni0124" unicode="&#x0124;" d="M62 674L243 674L243 424L462 424L462 674L643 674L643 0L462 0L462 266L243 266L243 0L62 0L62 674M286 836L421 836L520 710L399 710L354 769L352 769L308 710L187 710L286 836Z"  horiz-adv-x="705" vert-adv-y="1000"  />

      
      <glyph glyph-name="uni0125" unicode="&#x0125;" d="M55 0L55 711L236 711L236 440L238 440Q261 468 296 486Q330 503 371 503Q454 503 499 446Q544 389 544 285L544 0L363 0L363 265Q363 358 299 358Q258 358 240 319Q236 308 236 290L236 0L55 0M84 863L219 863L318 737L197 737L152 796L150 796L106 737L-15 737L84 863Z"  horiz-adv-x="599" vert-adv-y="1000"  />

      
      <glyph glyph-name="uni0126" unicode="&#x0126;" d="M717 468L650 468L650 0L469 0L469 236L251 236L251 0L70 0L70 468L3 468L3 572L70 572L70 674L251 674L251 572L469 572L469 674L650 674L650 572L717 572L717 468M469 394L469 468L251 468L251 394L469 394Z"  horiz-adv-x="720" vert-adv-y="1000"  />

      
      <glyph glyph-name="uni0127" unicode="&#x0127;" d="M544 0L363 0L363 265Q363 358 299 358Q258 358 240 319Q236 308 236 290L236 0L55 0L55 535L-24 535L-24 631L55 631L55 711L236 711L236 631L414 631L414 535L236 535L236 440L238 440Q261 468 296 486Q333 503 371 503Q454 503 499 446Q544 389 544 285L544 0Z"  horiz-adv-x="599" vert-adv-y="1000"  />

      
      <glyph glyph-name="uni0128" unicode="&#x0128;" d="M62 674L243 674L243 0L62 0L62 674M86 714L6 714Q4 783 26 818Q48 853 87 853Q119 853 153 833Q184 813 196 813Q209 813 214.50 822Q220 831 223 857L301 857Q303 784 281.50 752.50Q260 721 217 721Q182 721 150 739Q119 757 109 757Q89 757 86 714Z"  horiz-adv-x="305" vert-adv-y="1000"  />

      
      <glyph glyph-name="uni0129" unicode="&#x0129;" d="M236 0L55 0L55 492L236 492L236 0M78 553L-4 553Q-7 621 17.50 659Q42 697 84 697Q114 697 150 677Q184 657 193 657Q205 657 210.50 666Q216 675 218 702L298 702Q303 562 210 562Q180 562 138 584Q110 599 102 599Q79 599 78 553Z"  horiz-adv-x="292" vert-adv-y="1000"  />

      
      <glyph glyph-name="uni012A" unicode="&#x012A;" d="M62 674L243 674L243 0L62 0L62 674M20 827L288 827L288 735L20 735L20 827Z"  horiz-adv-x="305" vert-adv-y="1000"  />

      
      <glyph glyph-name="uni012B" unicode="&#x012B;" d="M236 0L55 0L55 492L236 492L236 0M16 675L277 675L277 579L16 579L16 675Z"  horiz-adv-x="292" vert-adv-y="1000"  />

      
      <glyph glyph-name="uni012C" unicode="&#x012C;" d="M62 674L243 674L243 0L62 0L62 674M6 846L99 846Q103 801 152 801Q202 801 211 846L300 846Q299 784 262 747.50Q225 711 153 711Q79 711 43.50 747Q8 783 6 846Z"  horiz-adv-x="305" vert-adv-y="1000"  />

      
      <glyph glyph-name="uni012D" unicode="&#x012D;" d="M236 0L55 0L55 492L236 492L236 0M1 697L92 697Q100 639 145 639Q173 639 186.50 655.50Q200 672 201 697L291 697Q290 628 253 587Q216 546 146 546Q76 546 39 587Q2 628 1 697Z"  horiz-adv-x="292" vert-adv-y="1000"  />

      
      <glyph glyph-name="uni012E" unicode="&#x012E;" d="M243 674L243 0L157 0Q144-30 144-56Q144-82 160-98.50Q176-115 200-115Q225-115 243-109L268-190Q221-225 156-225Q99-225 67-196Q35-167 35-111Q35-95 39-75.50Q43-56 46.50-44Q50-32 56-16L62 0L62 674L243 674Z"  horiz-adv-x="305" vert-adv-y="1000"  />

      
      <glyph glyph-name="uni012F" unicode="&#x012F;" d="M145 542L144 542Q102 542 76 567.50Q50 593 50 631Q50 670 76 695Q102 720 145 720Q189 720 215 695Q241 670 241 631Q241 593 214.50 567.50Q188 542 145 542M236 492L236 0L150 0Q137-30 137-57Q137-82 153-98.50Q169-115 193-115Q218-115 236-109L261-190Q214-225 149-225Q92-225 60.50-196Q29-167 29-110Q29-89 34-66.50Q39-44 47-22.50Q55-1 55 0L55 492L236 492Z"  horiz-adv-x="292" vert-adv-y="1000"  />

      
      <glyph glyph-name="uni0130" unicode="&#x0130;" d="M62 674L243 674L243 0L62 0L62 674M155 709L154 709Q121 709 98.50 731.50Q76 754 76 785Q76 818 99 840Q122 862 155 862Q187 862 208.50 840Q230 818 230 785Q230 754 208 731.50Q186 709 155 709Z"  horiz-adv-x="305" vert-adv-y="1000"  />

      
      <glyph glyph-name="uni0131" unicode="&#x0131;" d="M236 0L55 0L55 492L236 492L236 0Z"  horiz-adv-x="292" vert-adv-y="1000"  />

      
      <glyph glyph-name="uni0132" unicode="&#x0132;" d="M62 674L243 674L243 0L62 0L62 674M496 258L496 674L677 674L677 258Q677 116 612 52.50Q547-11 421-11Q350-11 302 5L321 150Q361 139 400 139Q447 139 471.50 165.50Q496 192 496 258Z"  horiz-adv-x="734" vert-adv-y="1000"  />

      
      <glyph glyph-name="uni0133" unicode="&#x0133;" d="M236 0L55 0L55 492L236 492L236 0M146 543L145 543Q104 543 79 567.50Q54 592 54 628Q54 666 79 690Q104 714 146 714Q187 714 212 690Q237 666 238 628Q238 592 212.50 567.50Q187 543 146 543M272-216L255-76Q317-71 342-46Q358-30 364.50 3Q371 36 371 104L371 492L552 492L552 66Q552-89 478-154Q407-216 272-216M461 543L460 543Q419 543 394 567.50Q369 592 369 628Q369 666 394 690Q419 714 461 714Q502 714 527 690Q552 666 553 628Q553 592 527.50 567.50Q502 543 461 543Z"  horiz-adv-x="604" vert-adv-y="1000"  />

      
      <glyph glyph-name="uni0134" unicode="&#x0134;" d="M191 258L191 674L372 674L372 258Q372 116 307 52.50Q242-11 116-11Q45-11-3 5L16 150Q56 139 95 139Q142 139 166.50 165.50Q191 192 191 258M214 836L349 836L448 710L327 710L282 769L280 769L236 710L115 710L214 836Z"  horiz-adv-x="429" vert-adv-y="1000"  />

      
      <glyph glyph-name="uni0135" unicode="&#x0135;" d="M-20-216L-37-76Q25-71 50-46Q66-30 72.50 3Q79 36 79 104L79 492L260 492L260 66Q260-89 186-154Q115-216-20-216M105 706L217 706L318 550L209 550L162 633L160 633L114 550L5 550L105 706Z"  horiz-adv-x="312" vert-adv-y="1000"  />

      
      <glyph glyph-name="uni0136" unicode="&#x0136;" d="M62 0L62 674L241 674L241 388L243 388Q247 395 286 462L416 674L638 674L424 387L646 0L437 0L295 273L241 204L241 0L62 0M252-250L227-175Q252-169 270.50-153.50Q289-138 289-116Q289-94 262-57L385-38Q424-67 424-119Q424-182 377-215Q330-248 252-250Z"  horiz-adv-x="646" vert-adv-y="1000"  />

      
      <glyph glyph-name="uni0137" unicode="&#x0137;" d="M236 711L236 292L238 292Q259 334 270 352L351 492L566 492L396 294L591 0L369 0L272 188L236 140L236 0L55 0L55 711L236 711M214-251L189-176Q214-171 232.50-155.50Q251-140 251-117Q251-95 224-58L347-39Q386-68 386-120Q386-183 339-216Q292-249 214-251Z"  horiz-adv-x="575" vert-adv-y="1000"  />

      
      <glyph glyph-name="uni0138" unicode="&#x0138;" d="M236 492L236 292L238 292Q259 334 270 352L351 492L566 492L396 294L591 0L369 0L272 188L236 140L236 0L55 0L55 492L236 492Z"  horiz-adv-x="575" vert-adv-y="1000"  />

      
      <glyph glyph-name="uni0139" unicode="&#x0139;" d="M62 0L62 674L243 674L243 151L502 151L502 0L62 0M159 836L342 836L222 710L78 710L159 836Z"  horiz-adv-x="528" vert-adv-y="1000"  />

      
      <glyph glyph-name="uni013A" unicode="&#x013A;" d="M55 0L55 711L236 711L236 0L55 0M142 866L325 866L205 740L61 740L142 866Z"  horiz-adv-x="292" vert-adv-y="1000"  />

      
      <glyph glyph-name="uni013B" unicode="&#x013B;" d="M62 0L62 674L243 674L243 151L502 151L502 0L62 0M191-250L166-175Q191-169 209.50-153.50Q228-138 228-116Q228-94 201-57L324-38Q363-67 363-119Q363-182 316-215Q269-248 191-250Z"  horiz-adv-x="528" vert-adv-y="1000"  />

      
      <glyph glyph-name="uni013C" unicode="&#x013C;" d="M55 0L55 711L236 711L236 0L55 0M61-251L36-176Q61-171 79.50-155.50Q98-140 98-117Q98-95 71-58L194-39Q233-68 233-120Q233-183 186-216Q139-249 61-251Z"  horiz-adv-x="292" vert-adv-y="1000"  />

      
      <glyph glyph-name="uni013D" unicode="&#x013D;" d="M62 0L62 674L243 674L243 151L502 151L502 0L62 0M309 477L284 552Q309 558 327.50 573.50Q346 589 346 611Q346 633 319 670L442 689Q481 660 481 608Q481 545 434 512Q387 479 309 477Z"  horiz-adv-x="528" vert-adv-y="1000"  />

      
      <glyph glyph-name="uni013E" unicode="&#x013E;" d="M55 0L55 711L236 711L236 0L55 0M355 484L271 529Q295 584 295 636Q295 671 280 705L390 723Q420 697 420 641Q420 557 355 484Z"  horiz-adv-x="302" vert-adv-y="1000"  />

      
      <glyph glyph-name="uni013F" unicode="&#x013F;" d="M62 0L62 674L243 674L243 151L502 151L502 0L62 0M403 305L402 305Q369 305 346.50 327.50Q324 350 324 381Q324 414 347 436Q370 458 403 458Q435 458 456.50 436Q478 414 478 381Q478 350 456 327.50Q434 305 403 305Z"  horiz-adv-x="528" vert-adv-y="1000"  />

      
      <glyph glyph-name="uni0140" unicode="&#x0140;" d="M55 0L55 711L236 711L236 0L55 0M343 324L342 324Q312 324 291 346Q270 368 270 400Q270 433 291 454.50Q312 476 343 476Q372 476 392 454.50Q412 433 412 400Q412 368 392 346Q372 324 343 324Z"  horiz-adv-x="389" vert-adv-y="1000"  />

      
      <glyph glyph-name="uni0141" unicode="&#x0141;" d="M510 0L70 0L70 220L-2 173L-2 295L70 342L70 674L251 674L251 461L373 541L373 419L251 339L251 151L510 151L510 0Z"  horiz-adv-x="535" vert-adv-y="1000"  />

      
      <glyph glyph-name="uni0142" unicode="&#x0142;" d="M244 0L63 0L63 204L0 155L0 281L63 330L63 711L244 711L244 463L315 518L315 392L244 337L244 0Z"  horiz-adv-x="307" vert-adv-y="1000"  />

      
      <glyph glyph-name="uni0143" unicode="&#x0143;" d="M227 0L62 0L62 674L275 674L382 467Q434 372 488 231L491 231Q477 356 477 514L477 674L642 674L642 0L452 0L337 224Q267 359 224 467L220 467Q227 340 227 166L227 0M346 836L529 836L409 710L265 710L346 836Z"  horiz-adv-x="705" vert-adv-y="1000"  />

      
      <glyph glyph-name="uni0144" unicode="&#x0144;" d="M55 0L55 324Q55 400 51 492L207 492L215 429L218 429Q237 456 274.50 479.50Q312 503 366 503Q452 503 498 447.50Q544 392 544 290L544 0L363 0L363 268Q363 358 300 358Q259 358 241 315Q236 304 236 279L236 0L55 0M299 706L459 706L336 550L214 550L299 706Z"  horiz-adv-x="599" vert-adv-y="1000"  />

      
      <glyph glyph-name="uni0145" unicode="&#x0145;" d="M227 0L62 0L62 674L275 674L382 467Q434 372 488 231L491 231Q477 356 477 514L477 674L642 674L642 0L452 0L337 224Q267 359 224 467L220 467Q227 340 227 166L227 0M280-247L255-172Q280-166 298.50-150.50Q317-135 317-113Q317-91 290-54L413-35Q452-64 452-116Q452-179 405-212Q358-245 280-247Z"  horiz-adv-x="705" vert-adv-y="1000"  />

      
      <glyph glyph-name="uni0146" unicode="&#x0146;" d="M55 0L55 324Q55 400 51 492L207 492L215 429L218 429Q237 456 274.50 479.50Q312 503 366 503Q452 503 498 447.50Q544 392 544 290L544 0L363 0L363 268Q363 358 300 358Q259 358 241 315Q236 304 236 279L236 0L55 0M226-251L201-176Q226-171 244.50-155.50Q263-140 263-117Q263-95 236-58L359-39Q398-68 398-120Q398-183 351-216Q304-249 226-251Z"  horiz-adv-x="599" vert-adv-y="1000"  />

      
      <glyph glyph-name="uni0147" unicode="&#x0147;" d="M227 0L62 0L62 674L275 674L382 467Q434 372 488 231L491 231Q477 356 477 514L477 674L642 674L642 0L452 0L337 224Q267 359 224 467L220 467Q227 340 227 166L227 0M425 710L290 710L191 836L312 836L357 777L359 777L403 836L524 836L425 710Z"  horiz-adv-x="705" vert-adv-y="1000"  />

      
      <glyph glyph-name="uni0148" unicode="&#x0148;" d="M55 0L55 324Q55 400 51 492L207 492L215 429L218 429Q237 456 274.50 479.50Q312 503 366 503Q452 503 498 447.50Q544 392 544 290L544 0L363 0L363 268Q363 358 300 358Q259 358 241 315Q236 304 236 279L236 0L55 0M359 550L239 550L138 706L251 706L298 622L300 622L347 706L461 706L359 550Z"  horiz-adv-x="599" vert-adv-y="1000"  />

      
      <glyph glyph-name="uni0149" unicode="&#x0149;" d="M55 0L55 324Q55 400 51 492L207 492L215 429L218 429Q237 456 274.50 479.50Q312 503 366 503Q452 503 498 447.50Q544 392 544 290L544 0L363 0L363 268Q363 358 300 358Q259 358 241 315Q236 304 236 279L236 0L55 0M84 519L4 565Q32 613 32 654Q32 683 17 707L129 736Q140 728 149.50 707Q159 686 159 659Q159 583 84 519Z"  horiz-adv-x="599" vert-adv-y="1000"  />

      
      <glyph glyph-name="uni014A" unicode="&#x014A;" d="M227 0L62 0L62 674L275 674L382 467Q434 372 488 231L491 231Q477 356 477 514L477 674L642 674L642 53Q642-79 577-145Q512-211 399-222L359-86Q450-62 464-19L337 224Q267 359 224 467L220 467Q227 340 227 166L227 0Z"  horiz-adv-x="705" vert-adv-y="1000"  />

      
      <glyph glyph-name="uni014B" unicode="&#x014B;" d="M55 0L55 324Q55 400 51 492L207 492L215 429L218 429Q237 456 274.50 479.50Q312 503 366 503Q452 503 498 447.50Q544 392 544 290L544 59Q544-179 329-202L293-63Q331-57 347-36.50Q363-16 363 28L363 268Q363 358 300 358Q259 358 241 315Q236 304 236 279L236 0L55 0Z"  horiz-adv-x="599" vert-adv-y="1000"  />

      
      <glyph glyph-name="uni014C" unicode="&#x014C;" d="M359-11L358-11Q207-11 120.50 87.50Q34 186 34 333Q34 484 125.50 584.50Q217 685 369 685Q524 685 610 586.50Q696 488 696 344Q696 181 605 85Q514-11 359-11M365 132L367 132Q431 132 468 188.50Q505 245 505 338Q505 427 467.50 484.50Q430 542 365 542Q301 542 263 484.50Q225 427 225 337Q224 245 262 188.50Q300 132 365 132M232 827L500 827L500 735L232 735L232 827Z"  horiz-adv-x="730" vert-adv-y="1000"  />

      
      </font>
</defs>
</svg>
