<?xml version="1.0" standalone="no"?>
  <!DOCTYPE svg PUBLIC "-//W3C//DTD SVG 1.1//EN" "http://www.w3.org/Graphics/SVG/1.1/DTD/svg11.dtd" >
  <svg>
  <metadata>
  Created by font-carrier
  </metadata>
  <defs>
  <font id="Lato-Regular" horiz-adv-x="2751" vert-adv-y="2751" >
    <font-face
      
      font-family="Lato"
      
      font-weight="400"
      
      font-stretch="normal"
      
      units-per-em="2000"
      
      ascent="1974"
      
      descent="-426"
      
    />
      <missing-glyph />

      

      
      <glyph glyph-name="uni41" unicode="&#x41;" d="M944 532L719 1115Q709 1141 698 1175.50Q687 1210 677 1249Q656 1168 634 1114L409 532L944 532M1348 0L1198 0Q1172 0 1156 13Q1140 26 1132 46L998 392L355 392L221 46Q215 28 198 14Q181 0 156 0L6 0L579 1433L775 1433L1348 0Z"  horiz-adv-x="1354" vert-adv-y="2000"  />

      
      <glyph glyph-name="uni0104" unicode="&#x0104;" d="M943 532L718 1115Q708 1141 697 1175.50Q686 1210 676 1249Q655 1168 633 1114L408 532L943 532M1421-290Q1391-313 1344.50-327.50Q1298-342 1247-342Q1159-342 1108.50-302.50Q1058-263 1058-197Q1058-140 1097.50-89Q1137-38 1197 0Q1171 0 1155 13Q1139 26 1131 46L997 392L354 392L220 46Q214 28 197 14Q180 0 155 0L5 0L578 1433L774 1433L1347 0L1311 0Q1291-11 1270-26.50Q1249-42 1232-61.50Q1215-81 1204-104.50Q1193-128 1193-154Q1193-192 1217.50-213.50Q1242-235 1284-235Q1307-235 1322-231.50Q1337-228 1347-223.50Q1357-219 1363.50-215Q1370-211 1375-211Q1382-211 1386.50-215Q1391-219 1393-224L1421-290Z"  horiz-adv-x="1352" vert-adv-y="2000"  />

      
      <glyph glyph-name="unic6" unicode="&#xc6;" d="M934 532L839 1288Q826 1246 812 1211Q798 1176 784 1144L467 532L934 532M1773 158L1772 0L1000 0L951 392L395 392L215 45Q205 25 186 12.50Q167 0 141 0L-6 0L750 1433L1772 1433L1772 1275L1024 1275L1083 799L1641 799L1641 647L1102 647L1162 158L1773 158Z"  horiz-adv-x="1861" vert-adv-y="2000"  />

      
      <glyph glyph-name="uni42" unicode="&#x42;" d="M686 154Q769 154 829 173Q889 192 927.50 226.50Q966 261 984 308.50Q1002 356 1002 413Q1002 524 923 588.50Q844 653 686 653L376 653L376 154L686 154M376 1280L376 791L632 791Q714 791 774.50 809Q835 827 874.50 859Q914 891 933 936.50Q952 982 952 1036Q952 1163 876 1221.50Q800 1280 640 1280L376 1280M640 1433Q772 1433 867.50 1407Q963 1381 1024.50 1333Q1086 1285 1115 1215.50Q1144 1146 1144 1059Q1144 1006 1127.50 957.50Q1111 909 1078 867Q1045 825 994.50 791.50Q944 758 876 737Q1034 707 1113.50 624.50Q1193 542 1193 408Q1193 317 1159.50 242Q1126 167 1061.50 113Q997 59 903 29.50Q809 0 689 0L183 0L183 1433L640 1433Z"  horiz-adv-x="1293" vert-adv-y="2000"  />

      
      <glyph glyph-name="uni43" unicode="&#x43;" d="M1189 296Q1205 296 1217 283L1294 200Q1206 98 1080.50 41Q955-16 777-16Q623-16 497 37.50Q371 91 282 187.50Q193 284 144 419Q95 554 95 716Q95 878 146 1013Q197 1148 289.50 1245Q382 1342 511 1395.50Q640 1449 796 1449Q949 1449 1066 1400Q1183 1351 1272 1267L1208 1178Q1202 1168 1192.50 1161.50Q1183 1155 1167 1155Q1149 1155 1123 1174.50Q1097 1194 1055 1218Q1013 1242 950 1261.50Q887 1281 795 1281Q684 1281 592 1242.50Q500 1204 433.50 1131Q367 1058 330 953Q293 848 293 716Q293 582 331.50 477Q370 372 436.50 299.50Q503 227 593.50 189Q684 151 789 151Q853 151 904.50 158.50Q956 166 999.50 182Q1043 198 1080.50 222.50Q1118 247 1155 281Q1172 296 1189 296Z"  horiz-adv-x="1336" vert-adv-y="2000"  />

      
      <glyph glyph-name="unic7" unicode="&#xc7;" d="M1294 200Q1212 105 1098.50 49Q985-7 827-15L810-75Q903-94 944-129Q985-164 985-218Q985-250 969-276Q953-302 924.50-320Q896-338 856-347.50Q816-357 768-357Q727-357 690-348.50Q653-340 622-326L639-271Q645-253 662-253Q668-253 676-256.50Q684-260 695.50-264.50Q707-269 722.50-272.50Q738-276 759-276Q801-276 822.50-259Q844-242 844-216Q844-178 802-162.50Q760-147 683-137L724-14Q581-5 465 52Q349 109 266.50 205Q184 301 139.50 431Q95 561 95 716Q95 878 146 1013Q197 1148 289.50 1245Q382 1342 511 1395.50Q640 1449 796 1449Q949 1449 1066 1400Q1183 1351 1272 1267L1208 1178Q1202 1168 1192.50 1161.50Q1183 1155 1167 1155Q1149 1155 1123 1174.50Q1097 1194 1055 1218Q1013 1242 950 1261.50Q887 1281 795 1281Q684 1281 592 1242.50Q500 1204 433.50 1131Q367 1058 330 953Q293 848 293 716Q293 582 331.50 477Q370 372 436.50 299.50Q503 227 593.50 189Q684 151 789 151Q853 151 904.50 158.50Q956 166 999.50 182Q1043 198 1080.50 222.50Q1118 247 1155 281Q1172 296 1189 296Q1205 296 1217 283L1294 200Z"  horiz-adv-x="1336" vert-adv-y="2000"  />

      
      <glyph glyph-name="uni44" unicode="&#x44;" d="M1425 716Q1425 555 1374 423Q1323 291 1230 197Q1137 103 1006.50 51.50Q876 0 718 0L183 0L183 1433L718 1433Q876 1433 1006.50 1381.50Q1137 1330 1230 1235.50Q1323 1141 1374 1009Q1425 877 1425 716M1226 716Q1226 848 1190 952Q1154 1056 1088 1128Q1022 1200 928 1238Q834 1276 718 1276L377 1276L377 157L718 157Q834 157 928 195Q1022 233 1088 304.50Q1154 376 1190 480Q1226 584 1226 716Z"  horiz-adv-x="1521" vert-adv-y="2000"  />

      
      <glyph glyph-name="unid0" unicode="&#xd0;" d="M735 157Q850 157 944 195Q1038 233 1104 304.50Q1170 376 1206 480Q1242 584 1242 716Q1242 848 1206 952Q1170 1056 1104 1128Q1038 1200 944 1238Q850 1276 735 1276L394 1276L394 780L684 780L684 666L394 666L394 157L735 157M735 1433Q893 1433 1023 1381.50Q1153 1330 1246 1235.50Q1339 1141 1390 1009Q1441 877 1441 716Q1441 555 1390 423Q1339 291 1246 197Q1153 103 1023 51.50Q893 0 735 0L199 0L199 666L3 666L3 780L199 780L199 1433L735 1433Z"  horiz-adv-x="1537" vert-adv-y="2000"  />

      
      <glyph glyph-name="uni45" unicode="&#x45;" d="M1067 158L1066 0L183 0L183 1433L1066 1433L1066 1275L377 1275L377 799L935 799L935 647L377 647L377 158L1067 158Z"  horiz-adv-x="1155" vert-adv-y="2000"  />

      
      <glyph glyph-name="uni0118" unicode="&#x0118;" d="M1085-290Q1055-313 1008.50-327.50Q962-342 911-342Q823-342 772.50-302.50Q722-263 722-197Q722-140 761.50-89Q801-38 861 0L183 0L183 1433L1066 1433L1066 1275L377 1275L377 799L935 799L935 647L377 647L377 158L1067 158L1066 0L975 0Q955-11 934-26.50Q913-42 896-61.50Q879-81 868-104.50Q857-128 857-154Q857-192 881.50-213.50Q906-235 948-235Q971-235 986-231.50Q1001-228 1011-223.50Q1021-219 1027.50-215Q1034-211 1039-211Q1046-211 1050.50-215Q1055-219 1057-224L1085-290Z"  horiz-adv-x="1155" vert-adv-y="2000"  />

      
      <glyph glyph-name="uni46" unicode="&#x46;" d="M377 1275L377 774L966 774L966 616L377 616L377 0L183 0L183 1433L1066 1433L1066 1275L377 1275Z"  horiz-adv-x="1131" vert-adv-y="2000"  />

      
      <glyph glyph-name="uni47" unicode="&#x47;" d="M1347 689L1347 139Q1239 61 1116.50 22.50Q994-16 848-16Q675-16 536 37.50Q397 91 298.50 187.50Q200 284 147 419Q94 554 94 716Q94 880 145.50 1015Q197 1150 292 1246.50Q387 1343 523 1396Q659 1449 827 1449Q912 1449 985 1436.50Q1058 1424 1120 1400.50Q1182 1377 1235 1343.50Q1288 1310 1334 1268L1279 1180Q1266 1160 1245.50 1154.50Q1225 1149 1200 1164Q1176 1178 1145 1198Q1114 1218 1069.50 1236.50Q1025 1255 964.50 1268Q904 1281 821 1281Q700 1281 602 1241.50Q504 1202 435 1128.50Q366 1055 329 950.50Q292 846 292 716Q292 581 330.50 474.50Q369 368 440.50 293.50Q512 219 614 180Q716 141 843 141Q943 141 1020.50 163.50Q1098 186 1172 226L1172 541L949 541Q930 541 918.50 552Q907 563 907 579L907 689L1347 689Z"  horiz-adv-x="1461" vert-adv-y="2000"  />

      
      <glyph glyph-name="uni48" unicode="&#x48;" d="M1344 1433L1344 0L1150 0L1150 652L377 652L377 0L183 0L183 1433L377 1433L377 794L1150 794L1150 1433L1344 1433Z"  horiz-adv-x="1527" vert-adv-y="2000"  />

      
      <glyph glyph-name="uni0126" unicode="&#x0126;" d="M1157 1038L384 1038L384 794L1157 794L1157 1038M1515 1038L1351 1038L1351 0L1157 0L1157 652L384 652L384 0L190 0L190 1038L27 1038L27 1153L190 1153L190 1433L384 1433L384 1153L1157 1153L1157 1433L1351 1433L1351 1153L1515 1153L1515 1038Z"  horiz-adv-x="1542" vert-adv-y="2000"  />

      
      <glyph glyph-name="uni49" unicode="&#x49;" d="M377 0L183 0L183 1433L377 1433L377 0Z"  horiz-adv-x="560" vert-adv-y="2000"  />

      
      <glyph glyph-name="uni012E" unicode="&#x012E;" d="M461-290Q431-313 384.50-327.50Q338-342 287-342Q199-342 148.50-302.50Q98-263 98-197Q98-140 137.50-89Q177-38 237 0L184 0L184 1433L378 1433L378 0L351 0Q331-11 310-26.50Q289-42 272-61.50Q255-81 244-104.50Q233-128 233-154Q233-192 257.50-213.50Q282-235 324-235Q347-235 362-231.50Q377-228 387-223.50Q397-219 403.50-215Q410-211 415-211Q422-211 426.50-215Q431-219 433-224L461-290Z"  horiz-adv-x="561" vert-adv-y="2000"  />

      
      <glyph glyph-name="uni4a" unicode="&#x4a;" d="M677 495Q677 375 647.50 280Q618 185 560.50 119.50Q503 54 419 19Q335-16 226-16Q127-16 24 12Q26 41 29 69.50Q32 98 34 126Q36 143 46.50 153.50Q57 164 79 164Q97 164 126.50 155Q156 146 206 146Q272 146 324 166Q376 186 411 228Q446 270 464.50 335.50Q483 401 483 491L483 1433L677 1433L677 495Z"  horiz-adv-x="845" vert-adv-y="2000"  />

      
      <glyph glyph-name="uni4b" unicode="&#x4b;" d="M376 805L449 805Q487 805 510 814.50Q533 824 552 847L1029 1387Q1049 1413 1071 1423Q1093 1433 1125 1433L1289 1433L743 816Q723 792 704.50 776.50Q686 761 665 751Q692 742 714 724.50Q736 707 757 679L1327 0L1159 0Q1140 0 1126.50 2.50Q1113 5 1103 10.50Q1093 16 1085.50 23.50Q1078 31 1071 41L577 610Q557 635 534 645.50Q511 656 464 656L376 656L376 0L183 0L183 1433L376 1433L376 805Z"  horiz-adv-x="1325" vert-adv-y="2000"  />

      
      <glyph glyph-name="uni4c" unicode="&#x4c;" d="M996 163L996 0L183 0L183 1433L376 1433L376 163L996 163Z"  horiz-adv-x="1027" vert-adv-y="2000"  />

      
      <glyph glyph-name="uni0141" unicode="&#x0141;" d="M1025 163L1025 0L212 0L212 553L25 458L25 592Q25 620 49 631L212 717L212 1433L405 1433L405 805L790 1001L790 870Q790 837 762 826L405 640L405 163L1025 163Z"  horiz-adv-x="1056" vert-adv-y="2000"  />

      
      <glyph glyph-name="uni013D" unicode="&#x013D;" d="M996 163L996 0L183 0L183 1433L376 1433L376 163L996 163M737 1475Q759 1475 764.50 1464.50Q770 1454 770 1442Q770 1432 766.50 1415.50Q763 1399 754 1369.50Q745 1340 729 1295Q713 1250 688 1184Q678 1162 663.50 1155Q649 1148 624 1148L562 1148L619 1475L737 1475Z"  horiz-adv-x="1027" vert-adv-y="2000"  />

      
      <glyph glyph-name="uni4d" unicode="&#x4d;" d="M1674 1433L1674 0L1504 0L1504 1053Q1504 1074 1505.50 1098Q1507 1122 1509 1147L1017 251Q994 206 947 206L919 206Q872 206 849 251L347 1151Q353 1098 353 1053L353 0L183 0L183 1433L326 1433Q352 1433 366 1428Q380 1423 393 1400L888 518Q900 494 911.50 468Q923 442 933 415Q943 442 954 468.50Q965 495 978 519L1464 1400Q1476 1423 1490.50 1428Q1505 1433 1531 1433L1674 1433Z"  horiz-adv-x="1857" vert-adv-y="2000"  />

      
      <glyph glyph-name="uni4e" unicode="&#x4e;" d="M1344 1433L1344 0L1247 0Q1224 0 1208.50 8Q1193 16 1178 35L349 1115Q351 1090 352 1066Q353 1042 353 1021L353 0L183 0L183 1433L283 1433Q296 1433 305 1431.50Q314 1430 321 1426.50Q328 1423 335 1416.50Q342 1410 350 1400L1179 321Q1177 347 1175.50 371.50Q1174 396 1174 418L1174 1433L1344 1433Z"  horiz-adv-x="1527" vert-adv-y="2000"  />

      
      <glyph glyph-name="uni014A" unicode="&#x014A;" d="M1344 1433L1344 7Q1344-75 1325.50-142Q1307-209 1267.50-257Q1228-305 1166.50-331.50Q1105-358 1019-358Q971-358 932-349.50Q893-341 849-322L868-244Q874-222 885-215.50Q896-209 909-209Q922-209 943-216Q964-223 1002-223Q1087-223 1130.50-171.50Q1174-120 1174-13L1174 40L349 1115Q351 1090 352 1066Q353 1042 353 1021L353 0L183 0L183 1433L283 1433Q296 1433 305 1431.50Q314 1430 321 1426.50Q328 1423 335 1416.50Q342 1410 350 1400L1179 321Q1177 347 1175.50 371.50Q1174 396 1174 418L1174 1433L1344 1433Z"  horiz-adv-x="1527" vert-adv-y="2000"  />

      
      <glyph glyph-name="uni4f" unicode="&#x4f;" d="M1507 716Q1507 555 1456 420.50Q1405 286 1312 189Q1219 92 1088.50 38.50Q958-15 800-15Q642-15 512 38.50Q382 92 289 189Q196 286 145 420.50Q94 555 94 716Q94 877 145 1011.50Q196 1146 289 1243.50Q382 1341 512 1395Q642 1449 800 1449Q958 1449 1088.50 1395Q1219 1341 1312 1243.50Q1405 1146 1456 1011.50Q1507 877 1507 716M1308 716Q1308 848 1272 953Q1236 1058 1170 1130.50Q1104 1203 1010 1242Q916 1281 800 1281Q685 1281 591 1242Q497 1203 430.50 1130.50Q364 1058 328 953Q292 848 292 716Q292 584 328 479.50Q364 375 430.50 302.50Q497 230 591 191.50Q685 153 800 153Q916 153 1010 191.50Q1104 230 1170 302.50Q1236 375 1272 479.50Q1308 584 1308 716Z"  horiz-adv-x="1601" vert-adv-y="2000"  />

      
      <glyph glyph-name="unid8" unicode="&#xd8;" d="M528 223Q644 153 800 153Q916 153 1010 191.50Q1104 230 1170 302.50Q1236 375 1272 479.50Q1308 584 1308 716Q1308 842 1275.50 942.50Q1243 1043 1183 1115L528 223M1095 1196Q1035 1238 961 1259.50Q887 1281 800 1281Q685 1281 591 1242Q497 1203 430.50 1130.50Q364 1058 328 953Q292 848 292 716Q292 581 329.50 475.50Q367 370 436 297L1095 1196M1292 1263Q1395 1165 1451 1026Q1507 887 1507 716Q1507 555 1456 420.50Q1405 286 1312 189Q1219 92 1088.50 38.50Q958-15 800-15Q693-15 599 10Q505 35 425 82L325-54Q304-84 274.50-96.50Q245-109 216-109L138-109L329 151Q217 249 155.50 393Q94 537 94 716Q94 877 145 1011.50Q196 1146 289 1243.50Q382 1341 512 1395Q642 1449 800 1449Q915 1449 1015.50 1420Q1116 1391 1199 1337L1280 1448Q1300 1475 1316 1486.50Q1332 1498 1364 1498L1464 1498L1292 1263Z"  horiz-adv-x="1601" vert-adv-y="2000"  />

      
      <glyph glyph-name="uni0152" unicode="&#x0152;" d="M753 148Q857 148 941.50 187Q1026 226 1085.50 299.50Q1145 373 1177 478.50Q1209 584 1209 716Q1209 848 1177 953.50Q1145 1059 1085.50 1133Q1026 1207 941.50 1246.50Q857 1286 753 1286Q648 1286 563.50 1246.50Q479 1207 419 1133Q359 1059 326.50 953.50Q294 848 294 716Q294 584 326.50 478.50Q359 373 419 299.50Q479 226 563.50 187Q648 148 753 148M2092 158L2091 0L1231 0L1231 239Q1147 119 1020 52.50Q893-14 732-14Q590-14 473 39.50Q356 93 272 189.50Q188 286 142 420.50Q96 555 96 716Q96 877 142 1011.50Q188 1146 272 1243.50Q356 1341 473 1395Q590 1449 732 1449Q893 1449 1020 1381.50Q1147 1314 1231 1194L1231 1433L2091 1433L2091 1275L1403 1275L1403 799L1961 799L1961 647L1403 647L1403 158L2092 158Z"  horiz-adv-x="2181" vert-adv-y="2000"  />

      
      <glyph glyph-name="uni50" unicode="&#x50;" d="M606 690Q689 690 752.50 712Q816 734 859.50 773.50Q903 813 925 868Q947 923 947 989Q947 1126 862.50 1203Q778 1280 606 1280L376 1280L376 690L606 690M606 1433Q742 1433 842.50 1401.50Q943 1370 1009 1312Q1075 1254 1107.50 1172Q1140 1090 1140 989Q1140 889 1105 806Q1070 723 1002.50 663Q935 603 835.50 569.50Q736 536 606 536L376 536L376 0L183 0L183 1433L606 1433Z"  horiz-adv-x="1201" vert-adv-y="2000"  />

      
      <glyph glyph-name="unide" unicode="&#xde;" d="M606 426Q689 426 752.50 448Q816 470 859.50 509.50Q903 549 925 604Q947 659 947 725Q947 862 862.50 939Q778 1016 606 1016L376 1016L376 426L606 426M606 1169Q742 1169 842.50 1137.50Q943 1106 1009 1048Q1075 990 1107.50 908Q1140 826 1140 725Q1140 625 1105 542Q1070 459 1002.50 399Q935 339 835.50 305.50Q736 272 606 272L376 272L376 0L183 0L183 1433L376 1433L376 1169L606 1169Z"  horiz-adv-x="1197" vert-adv-y="2000"  />

      
      <glyph glyph-name="uni51" unicode="&#x51;" d="M293 716Q293 584 329 479.50Q365 375 431.50 302.50Q498 230 592 191.50Q686 153 801 153Q917 153 1011 191.50Q1105 230 1171 302.50Q1237 375 1273 479.50Q1309 584 1309 716Q1309 848 1273 953Q1237 1058 1171 1130.50Q1105 1203 1011 1242Q917 1281 801 1281Q686 1281 592 1242Q498 1203 431.50 1130.50Q365 1058 329 953Q293 848 293 716M1574-296L1414-296Q1378-296 1350-286Q1322-276 1299-251L1048 23Q934-15 801-15Q643-15 513 38.50Q383 92 290 189Q197 286 146 420.50Q95 555 95 716Q95 877 146 1011.50Q197 1146 290 1243.50Q383 1341 513 1395Q643 1449 801 1449Q959 1449 1089.50 1395Q1220 1341 1313 1243.50Q1406 1146 1457 1011.50Q1508 877 1508 716Q1508 615 1487.50 524Q1467 433 1428 354.50Q1389 276 1333 212Q1277 148 1207 101L1574-296Z"  horiz-adv-x="1601" vert-adv-y="2000"  />

      
      <glyph glyph-name="uni52" unicode="&#x52;" d="M580 739Q664 739 728.50 759.50Q793 780 836.50 817.50Q880 855 902 907Q924 959 924 1022Q924 1150 840 1215Q756 1280 588 1280L376 1280L376 739L580 739M1242 0L1070 0Q1017 0 992 41L620 553Q603 577 583.50 587.50Q564 598 523 598L376 598L376 0L183 0L183 1433L588 1433Q724 1433 823 1405.50Q922 1378 986.50 1326Q1051 1274 1082 1200.50Q1113 1127 1113 1036Q1113 960 1089 894Q1065 828 1019.50 775.50Q974 723 908.50 686Q843 649 760 630Q797 609 824 569L1242 0Z"  horiz-adv-x="1253" vert-adv-y="2000"  />

      
      <glyph glyph-name="uni53" unicode="&#x53;" d="M916 1209Q907 1194 896.50 1186.50Q886 1179 871 1179Q854 1179 831 1196Q808 1213 773.50 1233.50Q739 1254 690.50 1271Q642 1288 573 1288Q508 1288 458.50 1270.50Q409 1253 375.50 1223Q342 1193 325 1152.50Q308 1112 308 1065Q308 1005 337.50 965.50Q367 926 415.50 898Q464 870 525.50 849.50Q587 829 651.50 807Q716 785 777.50 757.50Q839 730 887.50 688Q936 646 965.50 585Q995 524 995 435Q995 341 963 258.50Q931 176 869.50 115Q808 54 718.50 19Q629-16 515-16Q375-16 261 34.50Q147 85 66 171L122 263Q130 274 141.50 281.50Q153 289 167 289Q180 289 196.50 278.50Q213 268 234 252Q255 236 282 217Q309 198 343.50 182Q378 166 422 155.50Q466 145 521 145Q590 145 644 164Q698 183 735.50 217.50Q773 252 793 300Q813 348 813 407Q813 472 783.50 513.50Q754 555 706 583Q658 611 596 630.50Q534 650 470 670.50Q406 691 344 718Q282 745 234 788Q186 831 156.50 895.50Q127 960 127 1055Q127 1131 156.50 1202Q186 1273 242.50 1328Q299 1383 381.50 1416Q464 1449 571 1449Q691 1449 789.50 1411Q888 1373 963 1301L916 1209Z"  horiz-adv-x="1085" vert-adv-y="2000"  />

      
      <glyph glyph-name="uni015E" unicode="&#x015E;" d="M916 1209Q907 1194 896.50 1186.50Q886 1179 871 1179Q854 1179 831 1196Q808 1213 773.50 1233.50Q739 1254 690.50 1271Q642 1288 573 1288Q508 1288 458.50 1270.50Q409 1253 375.50 1223Q342 1193 325 1152.50Q308 1112 308 1065Q308 1005 337.50 965.50Q367 926 415.50 898Q464 870 525.50 849.50Q587 829 651.50 807Q716 785 777.50 757.50Q839 730 887.50 688Q936 646 965.50 585Q995 524 995 435Q995 350 968.50 274.50Q942 199 892 140Q842 81 768.50 42Q695 3 601-10L583-75Q676-94 717-129Q758-164 758-218Q758-250 742-276Q726-302 697.50-320Q669-338 629-347.50Q589-357 541-357Q500-357 463-348.50Q426-340 395-326L412-271Q418-253 435-253Q441-253 449-256.50Q457-260 468.50-264.50Q480-269 495.50-272.50Q511-276 532-276Q574-276 595.50-259Q617-242 617-216Q617-178 575-162.50Q533-147 456-137L496-16Q362-12 253 38Q144 88 66 171L122 263Q130 274 141.50 281.50Q153 289 167 289Q180 289 196.50 278.50Q213 268 234 252Q255 236 282 217Q309 198 343.50 182Q378 166 422 155.50Q466 145 521 145Q590 145 644 164Q698 183 735.50 217.50Q773 252 793 300Q813 348 813 407Q813 472 783.50 513.50Q754 555 706 583Q658 611 596 630.50Q534 650 470 670.50Q406 691 344 718Q282 745 234 788Q186 831 156.50 895.50Q127 960 127 1055Q127 1131 156.50 1202Q186 1273 242.50 1328Q299 1383 381.50 1416Q464 1449 571 1449Q691 1449 789.50 1411Q888 1373 963 1301L916 1209Z"  horiz-adv-x="1085" vert-adv-y="2000"  />

      
      <glyph glyph-name="uni54" unicode="&#x54;" d="M1152 1270L688 1270L688 0L495 0L495 1270L30 1270L30 1433L1152 1433L1152 1270Z"  horiz-adv-x="1181" vert-adv-y="2000"  />

      
      <glyph glyph-name="uni0166" unicode="&#x0166;" d="M703 1270L703 851L1029 851L1029 738L703 738L703 0L510 0L510 738L182 738L182 851L510 851L510 1270L45 1270L45 1433L1167 1433L1167 1270L703 1270Z"  horiz-adv-x="1210" vert-adv-y="2000"  />

      
      <glyph glyph-name="uni55" unicode="&#x55;" d="M736 154Q825 154 895 184Q965 214 1013.50 268Q1062 322 1087.50 397Q1113 472 1113 562L1113 1433L1306 1433L1306 562Q1306 438 1266.50 332Q1227 226 1153.50 148.50Q1080 71 974 27Q868-17 736-17Q604-17 498 27Q392 71 318 148.50Q244 226 204.50 332Q165 438 165 562L165 1433L358 1433L358 563Q358 473 383.50 398Q409 323 457.50 269Q506 215 576.50 184.50Q647 154 736 154Z"  horiz-adv-x="1471" vert-adv-y="2000"  />

      
      <glyph glyph-name="uni0172" unicode="&#x0172;" d="M1306 1433L1306 562Q1306 449 1273.50 351.50Q1241 254 1179.50 178Q1118 102 1029.50 53Q941 4 829-11Q810-22 790.50-37.50Q771-53 755.50-72Q740-91 730.50-113Q721-135 721-159Q721-197 745.50-218.50Q770-240 812-240Q835-240 850-236.50Q865-233 875-228.50Q885-224 891.50-220Q898-216 903-216Q910-216 914.50-220Q919-224 921-229L949-295Q919-318 872.50-332.50Q826-347 775-347Q687-347 636.50-307.50Q586-268 586-202Q586-148 620-101Q654-54 708-16Q582-12 481 34Q380 80 310 157Q240 234 202.50 338Q165 442 165 562L165 1433L358 1433L358 563Q358 473 383.50 398Q409 323 457.50 269Q506 215 576.50 184.50Q647 154 736 154Q825 154 895 184Q965 214 1013.50 268Q1062 322 1087.50 397Q1113 472 1113 562L1113 1433L1306 1433Z"  horiz-adv-x="1471" vert-adv-y="2000"  />

      
      <glyph glyph-name="uni56" unicode="&#x56;" d="M1348 1433L764 0L590 0L6 1433L161 1433Q187 1433 203 1420Q219 1407 227 1387L631 376Q644 342 656.50 302Q669 262 679 218Q689 262 700 302Q711 342 724 376L1127 1387Q1133 1404 1150.50 1418.50Q1168 1433 1193 1433L1348 1433Z"  horiz-adv-x="1354" vert-adv-y="2000"  />

      
      <glyph glyph-name="uni57" unicode="&#x57;" d="M2040 1433L1593 0L1419 0L1056 1093Q1051 1109 1046.50 1127Q1042 1145 1037 1165Q1032 1145 1027 1127Q1022 1109 1017 1093L652 0L478 0L31 1433L192 1433Q218 1433 235.50 1420Q253 1407 258 1387L554 391Q561 364 567.50 333Q574 302 580 267Q587 302 594.50 333.50Q602 365 611 391L948 1387Q954 1404 971.50 1418.50Q989 1433 1014 1433L1070 1433Q1096 1433 1112 1420Q1128 1407 1136 1387L1472 391Q1481 365 1488.50 335Q1496 305 1503 272Q1508 305 1514 335Q1520 365 1527 391L1824 1387Q1829 1405 1846.50 1419Q1864 1433 1889 1433L2040 1433Z"  horiz-adv-x="2071" vert-adv-y="2000"  />

      
      <glyph glyph-name="uni58" unicode="&#x58;" d="M1276 0L1084 0Q1062 0 1049.50 11.50Q1037 23 1029 37L645 639Q637 615 627 598L253 37Q243 23 231.50 11.50Q220 0 200 0L20 0L513 736L40 1433L233 1433Q254 1433 264 1426Q274 1419 282 1406L656 832Q663 853 677 878L1030 1402Q1038 1416 1049 1424.50Q1060 1433 1075 1433L1260 1433L785 745L1276 0Z"  horiz-adv-x="1298" vert-adv-y="2000"  />

      
      <glyph glyph-name="uni59" unicode="&#x59;" d="M721 571L721 0L527 0L527 571L2 1433L172 1433Q198 1433 213 1420.50Q228 1408 239 1388L567 831Q585 796 600 765.50Q615 735 626 704Q637 735 651 765.50Q665 796 682 831L1009 1388Q1018 1405 1034 1419Q1050 1433 1075 1433L1246 1433L721 571Z"  horiz-adv-x="1248" vert-adv-y="2000"  />

      
      <glyph glyph-name="uni5a" unicode="&#x5a;" d="M1139 1361Q1139 1328 1119 1297L308 158L1127 158L1127 0L53 0L53 76Q53 92 58.50 106Q64 120 72 133L885 1275L91 1275L91 1433L1139 1433L1139 1361Z"  horiz-adv-x="1204" vert-adv-y="2000"  />

      
      <glyph glyph-name="uni61" unicode="&#x61;" d="M690 456Q567 452 480.50 436.50Q394 421 339.50 396Q285 371 260.50 337Q236 303 236 261Q236 221 249 192Q262 163 284.50 144.50Q307 126 337.50 117.50Q368 109 403 109Q450 109 489 118.50Q528 128 562.50 146Q597 164 628.50 189Q660 214 690 246L690 456M115 870Q199 951 296 991Q393 1031 511 1031Q596 1031 662 1003Q728 975 773 925Q818 875 841 804Q864 733 864 648L864 0L785 0Q759 0 745 8.50Q731 17 723 42L703 138Q663 101 625 72.50Q587 44 545 24.50Q503 5 455.50-5.50Q408-16 350-16Q291-16 239 0.50Q187 17 148.50 50Q110 83 87.50 133.50Q65 184 65 253Q65 313 98 368.50Q131 424 205 467Q279 510 398 537.50Q517 565 690 569L690 648Q690 766 639 826.50Q588 887 490 887Q424 887 379.50 870.50Q335 854 302.50 833.50Q270 813 246.50 796.50Q223 780 200 780Q182 780 169 789.50Q156 799 147 813L115 870Z"  horiz-adv-x="994" vert-adv-y="2000"  />

      
      <glyph glyph-name="uni0105" unicode="&#x0105;" d="M690 456Q567 452 480.50 436.50Q394 421 339.50 396Q285 371 260.50 337Q236 303 236 261Q236 221 249 192Q262 163 284.50 144.50Q307 126 337.50 117.50Q368 109 403 109Q450 109 489 118.50Q528 128 562.50 146Q597 164 628.50 189Q660 214 690 246L690 456M974-290Q944-313 897.50-327.50Q851-342 800-342Q712-342 661.50-302.50Q611-263 611-197Q611-168 622-140Q633-112 652.50-86.50Q672-61 698.50-38.50Q725-16 756 3Q744 8 736 16.50Q728 25 723 42L703 138Q663 101 625 72.50Q587 44 545 24.50Q503 5 455.50-5.50Q408-16 350-16Q291-16 239 0.50Q187 17 148.50 50Q110 83 87.50 133.50Q65 184 65 253Q65 313 98 368.50Q131 424 205 467Q279 510 398 537.50Q517 565 690 569L690 648Q690 766 639 826.50Q588 887 490 887Q424 887 379.50 870.50Q335 854 302.50 833.50Q270 813 246.50 796.50Q223 780 200 780Q182 780 169 789.50Q156 799 147 813L115 870Q199 951 296 991Q393 1031 511 1031Q596 1031 662 1003Q728 975 773 925Q818 875 841 804Q864 733 864 648L864 0Q844-11 823-26.50Q802-42 785-61.50Q768-81 757-104.50Q746-128 746-154Q746-192 770.50-213.50Q795-235 837-235Q860-235 875-231.50Q890-228 900-223.50Q910-219 916.50-215Q923-211 928-211Q935-211 939.50-215Q944-219 946-224L974-290Z"  horiz-adv-x="994" vert-adv-y="2000"  />

      
      <glyph glyph-name="unie6" unicode="&#xe6;" d="M1372 597Q1372 662 1356 717.50Q1340 773 1309.50 813Q1279 853 1235 875.50Q1191 898 1136 898Q1075 898 1027 877.50Q979 857 944.50 818Q910 779 889 723Q868 667 861 597L1372 597M692 486Q569 481 482.50 463.50Q396 446 342 418.50Q288 391 263.50 354.50Q239 318 239 276Q239 189 289 149Q339 109 420 109Q477 109 526.50 127Q576 145 613 182Q650 219 671 274Q692 329 692 403L692 486M117 870Q201 951 291.50 991Q382 1031 495 1031Q615 1031 688 980Q761 929 794 839Q848 927 935 978Q1022 1029 1142 1029Q1224 1029 1295 997Q1366 965 1418 904Q1470 843 1500 755.50Q1530 668 1530 556Q1530 515 1522 500.50Q1514 486 1489 486L859 486Q863 396 886 328.50Q909 261 947.50 216Q986 171 1038.50 148.50Q1091 126 1156 126Q1225 126 1271 140.50Q1317 155 1347.50 173Q1378 191 1397.50 205.50Q1417 220 1433 220Q1447 220 1455.50 215.50Q1464 211 1470 203L1517 142Q1484 102 1440.50 72.50Q1397 43 1347.50 24Q1298 5 1245-4.50Q1192-14 1140-14Q1022-14 927.50 42.50Q833 99 777 215Q750 153 707 109Q664 65 610.50 37Q557 9 497.50-3.50Q438-16 379-16Q310-16 253 1.50Q196 19 154.50 54Q113 89 90.50 142Q68 195 68 267Q68 327 101 385Q134 443 207.50 489Q281 535 400 564.50Q519 594 692 598L692 648Q692 766 641 829Q590 892 492 892Q426 892 381.50 874.50Q337 857 304.50 836Q272 815 248.50 797.50Q225 780 202 780Q184 780 171 789.50Q158 799 149 813L117 870Z"  horiz-adv-x="1610" vert-adv-y="2000"  />

      
      <glyph glyph-name="uni62" unicode="&#x62;" d="M320 244Q369 178 427.50 151Q486 124 556 124Q699 124 775 225Q851 326 851 526Q851 712 783.50 799.50Q716 887 591 887Q504 887 439.50 847Q375 807 320 734L320 244M320 867Q384 941 464.50 985Q545 1029 650 1029Q739 1029 810.50 995Q882 961 932 896.50Q982 832 1008.50 740Q1035 648 1035 533Q1035 410 1005 309Q975 208 918.50 136.50Q862 65 781 25.50Q700-14 599-14Q499-14 430.50 23.50Q362 61 311 130L302 38Q294 0 256 0L141 0L141 1473L320 1473L320 867Z"  horiz-adv-x="1120" vert-adv-y="2000"  />

      
      <glyph glyph-name="uni63" unicode="&#x63;" d="M846 833Q838 822 830 816Q822 810 808 810Q793 810 775 822.50Q757 835 730.50 850Q704 865 665.50 877.50Q627 890 571 890Q496 890 439 863.50Q382 837 343.50 787Q305 737 285.50 666Q266 595 266 507Q266 415 287 343.50Q308 272 346.50 223.50Q385 175 439.50 149.50Q494 124 562 124Q627 124 669 139.50Q711 155 738.50 174Q766 193 784.50 208.50Q803 224 821 224Q843 224 855 207L905 142Q872 101 830 72Q788 43 739.50 23.50Q691 4 638-5Q585-14 530-14Q435-14 353.50 21Q272 56 212 122.50Q152 189 118 286Q84 383 84 507Q84 620 115.50 716Q147 812 207.50 881.50Q268 951 356.50 990Q445 1029 560 1029Q667 1029 748.50 994.50Q830 960 893 897L846 833Z"  horiz-adv-x="955" vert-adv-y="2000"  />

      
      <glyph glyph-name="unie7" unicode="&#xe7;" d="M905 142Q848 71 765 34Q682-3 588-11L570-75Q663-94 704-129Q745-164 745-218Q745-250 729-276Q713-302 684.50-320Q656-338 616.50-347.50Q577-357 529-357Q488-357 450.50-348.50Q413-340 383-326L399-271Q405-253 422-253Q428-253 436-256.50Q444-260 455.50-264.50Q467-269 482.50-272.50Q498-276 520-276Q562-276 583-259Q604-242 604-216Q604-178 562-162.50Q520-147 444-137L485-12Q398-4 324.50 34.50Q251 73 197.50 139.50Q144 206 114 298.50Q84 391 84 507Q84 620 115.50 716Q147 812 207.50 881.50Q268 951 356.50 990Q445 1029 560 1029Q667 1029 748.50 994.50Q830 960 893 897L846 833Q838 822 830 816Q822 810 808 810Q793 810 775 822.50Q757 835 730.50 850Q704 865 665.50 877.50Q627 890 571 890Q496 890 439 863.50Q382 837 343.50 787Q305 737 285.50 666Q266 595 266 507Q266 415 287 343.50Q308 272 346.50 223.50Q385 175 439.50 149.50Q494 124 562 124Q627 124 669 139.50Q711 155 738.50 174Q766 193 784.50 208.50Q803 224 821 224Q843 224 855 207L905 142Z"  horiz-adv-x="956" vert-adv-y="2000"  />

      
      <glyph glyph-name="uni64" unicode="&#x64;" d="M801 772Q751 839 693 865.50Q635 892 563 892Q422 892 346 791Q270 690 270 503Q270 404 287 333.50Q304 263 337 217.50Q370 172 418 151Q466 130 527 130Q615 130 680.50 170Q746 210 801 283L801 772M979 1473L979 0L873 0Q835 0 825 37L809 160Q744 82 661 34Q578-14 469-14Q382-14 311 19.50Q240 53 190 118Q140 183 113 280Q86 377 86 503Q86 615 116 711.50Q146 808 202 879Q258 950 339.50 990.50Q421 1031 523 1031Q616 1031 682.50 999.50Q749 968 801 912L801 1473L979 1473Z"  horiz-adv-x="1120" vert-adv-y="2000"  />

      
      <glyph glyph-name="uni010F" unicode="&#x010F;" d="M801 772Q751 839 693 865.50Q635 892 563 892Q422 892 346 791Q270 690 270 503Q270 404 287 333.50Q304 263 337 217.50Q370 172 418 151Q466 130 527 130Q615 130 680.50 170Q746 210 801 283L801 772M979 1473L979 0L873 0Q835 0 825 37L809 160Q744 82 661 34Q578-14 469-14Q382-14 311 19.50Q240 53 190 118Q140 183 113 280Q86 377 86 503Q86 615 116 711.50Q146 808 202 879Q258 950 339.50 990.50Q421 1031 523 1031Q616 1031 682.50 999.50Q749 968 801 912L801 1473L979 1473M1257 1475Q1279 1475 1284.50 1464.50Q1290 1454 1290 1442Q1290 1432 1286.50 1415.50Q1283 1399 1274 1369.50Q1265 1340 1249 1295Q1233 1250 1208 1184Q1198 1162 1183.50 1155Q1169 1148 1144 1148L1082 1148L1139 1475L1257 1475Z"  horiz-adv-x="1120" vert-adv-y="2000"  />

      
      <glyph glyph-name="uni0111" unicode="&#x0111;" d="M802 750Q752 817 694 844Q636 871 564 871Q423 871 347 775Q271 679 271 492Q271 393 288 324Q305 255 338 212Q371 169 419 149.50Q467 130 528 130Q616 130 681.50 170Q747 210 802 283L802 750M1128 1143L980 1143L980 0L874 0Q836 0 826 37L810 161Q746 82 662.50 34Q579-14 470-14Q383-14 312 18Q241 50 191 113Q141 176 114 271Q87 366 87 492Q87 604 117 699Q147 794 203 863Q259 932 340.50 970.50Q422 1009 524 1009Q617 1009 683.50 977.50Q750 946 802 890L802 1143L565 1143L565 1256L802 1256L802 1473L980 1473L980 1256L1128 1256L1128 1143Z"  horiz-adv-x="1121" vert-adv-y="2000"  />

      
      <glyph glyph-name="unif0" unicode="&#xf0;" d="M551 125Q622 125 679.50 152Q737 179 778 234Q819 289 842 371Q865 453 868 564Q852 607 825.50 647.50Q799 688 761.50 719.50Q724 751 675 769.50Q626 788 564 788Q489 788 432 763Q375 738 337 694.50Q299 651 279.50 591.50Q260 532 260 464Q260 383 283 319.50Q306 256 346 213Q386 170 438.50 147.50Q491 125 551 125M767 1227Q827 1178 876.50 1116Q926 1054 961.50 976.50Q997 899 1016 806.50Q1035 714 1035 604Q1035 461 1004 347Q973 233 911.50 153Q850 73 758.50 30Q667-13 547-13Q449-13 364.50 20Q280 53 217 114.50Q154 176 118 265Q82 354 82 466Q82 560 113 643.50Q144 727 202 790Q260 853 342.50 890Q425 927 529 927Q630 927 718.50 884.50Q807 842 871 755Q851 891 793 985.50Q735 1080 640 1145L456 1009L423 1065Q411 1083 415 1100Q419 1117 437 1128L540 1200Q451 1240 337 1267Q314 1274 300 1295Q286 1316 299 1352L319 1414Q415 1399 505.50 1368.50Q596 1338 677 1290L843 1412L878 1355Q889 1338 885 1321.50Q881 1305 864 1294L767 1227Z"  horiz-adv-x="1132" vert-adv-y="2000"  />

      
      <glyph glyph-name="uni65" unicode="&#x65;" d="M819 617Q819 679 801.50 730.50Q784 782 750.50 819.50Q717 857 669 877.50Q621 898 560 898Q432 898 357.50 823.50Q283 749 265 617L819 617M963 142Q930 102 884 72.50Q838 43 785.50 24Q733 5 677-4.50Q621-14 566-14Q461-14 372.50 21.50Q284 57 219.50 125.50Q155 194 119 295Q83 396 83 527Q83 633 115.50 725Q148 817 209 884.50Q270 952 358 990.50Q446 1029 556 1029Q647 1029 724.50 998.50Q802 968 858.50 910.50Q915 853 947 768.50Q979 684 979 576Q979 534 970 520Q961 506 936 506L259 506Q262 410 285.50 339Q309 268 351 220.50Q393 173 451 149.50Q509 126 581 126Q648 126 696.50 141.50Q745 157 780 175Q815 193 838.50 208.50Q862 224 879 224Q901 224 913 207L963 142Z"  horiz-adv-x="1056" vert-adv-y="2000"  />

      
      <glyph glyph-name="uni0119" unicode="&#x0119;" d="M819 617Q819 679 801.50 730.50Q784 782 750.50 819.50Q717 857 669 877.50Q621 898 560 898Q432 898 357.50 823.50Q283 749 265 617L819 617M796-290Q766-313 719.50-327.50Q673-342 622-342Q534-342 483.50-302.50Q433-263 433-197Q433-145 466-98Q499-51 551-14Q449-11 363 25.50Q277 62 215 130.50Q153 199 118 298.50Q83 398 83 527Q83 633 115.50 725Q148 817 209 884.50Q270 952 358 990.50Q446 1029 556 1029Q647 1029 724.50 998.50Q802 968 858.50 910.50Q915 853 947 768.50Q979 684 979 576Q979 534 970 520Q961 506 936 506L259 506Q262 410 285.50 339Q309 268 351 220.50Q393 173 451 149.50Q509 126 581 126Q648 126 696.50 141.50Q745 157 780 175Q815 193 838.50 208.50Q862 224 879 224Q901 224 913 207L963 142Q912 82 837 45.50Q762 9 678-5Q659-16 639.50-31.50Q620-47 604-65.50Q588-84 578-106.50Q568-129 568-154Q568-192 592.50-213.50Q617-235 659-235Q682-235 697-231.50Q712-228 722-223.50Q732-219 738.50-215Q745-211 750-211Q757-211 761.50-215Q766-219 768-224L796-290Z"  horiz-adv-x="1056" vert-adv-y="2000"  />

      
      <glyph glyph-name="uni66" unicode="&#x66;" d="M207 0L207 861L95 874Q74 879 60.50 889.50Q47 900 47 920L47 993L207 993L207 1091Q207 1178 231.50 1245.50Q256 1313 301.50 1359.50Q347 1406 411 1430Q475 1454 555 1454Q623 1454 680 1434L676 1345Q674 1321 649.50 1319Q625 1317 584 1317Q538 1317 500.50 1305Q463 1293 436 1266Q409 1239 394.50 1195Q380 1151 380 1086L380 993L672 993L672 864L386 864L386 0L207 0Z"  horiz-adv-x="701" vert-adv-y="2000"  />

      
      <glyph glyph-name="uniFB00" unicode="&#xFB00;" d="M207 0L207 861L95 874Q74 879 60.50 889.50Q47 900 47 920L47 993L207 993L207 1076Q207 1163 231.50 1230.50Q256 1298 301.50 1344.50Q347 1391 411 1415Q475 1439 555 1439Q623 1439 680 1419L676 1329Q674 1305 649.50 1303Q625 1301 584 1301Q538 1301 500.50 1289.50Q463 1278 436 1251Q409 1224 394.50 1179.50Q380 1135 380 1070L380 993L837 993L837 1102Q837 1189 861.50 1256.50Q886 1324 931.50 1370.50Q977 1417 1041 1441Q1105 1465 1185 1465Q1252 1465 1310 1445L1306 1356Q1304 1332 1279.50 1330Q1255 1328 1214 1328Q1168 1328 1130.50 1316Q1093 1304 1066 1277Q1039 1250 1024.50 1206Q1010 1162 1010 1097L1010 993L1302 993L1302 864L1016 864L1016 0L837 0L837 864L386 864L386 0L207 0Z"  horiz-adv-x="1331" vert-adv-y="2000"  />

      
      <glyph glyph-name="uniFB01" unicode="&#xFB01;" d="M209 0L209 861L97 874Q75 879 62 889.50Q49 900 49 920L49 993L209 993L209 1049Q209 1142 238 1219.50Q267 1297 325 1353Q383 1409 469.50 1440Q556 1471 670 1471Q708 1471 748 1466Q788 1461 817 1451L810 1358Q809 1348 802.50 1344Q796 1340 785 1339Q774 1338 757.50 1338.50Q741 1339 720 1339Q542 1339 462 1265.50Q382 1192 382 1044L382 993L994 993L994 0L815 0L815 864L387 864L387 0L209 0Z"  horiz-adv-x="1145" vert-adv-y="2000"  />

      
      <glyph glyph-name="uniFB03" unicode="&#xFB03;" d="M209 0L209 861L97 874Q75 879 62 889.50Q49 900 49 920L49 993L209 993L209 1076Q209 1163 233.50 1230.50Q258 1298 303 1344.50Q348 1391 412 1415Q476 1439 556 1439Q624 1439 682 1419L677 1329Q675 1305 651 1303Q627 1301 585 1301Q539 1301 501.50 1289.50Q464 1278 437.50 1251Q411 1224 396.50 1179.50Q382 1135 382 1070L382 993L839 993L839 1049Q839 1142 868 1219.50Q897 1297 955 1353Q1013 1409 1099.50 1440Q1186 1471 1300 1471Q1338 1471 1378 1466Q1418 1461 1447 1451L1440 1358Q1439 1348 1432.50 1344Q1426 1340 1415 1339Q1404 1338 1387.50 1338.50Q1371 1339 1350 1339Q1172 1339 1092 1265.50Q1012 1192 1012 1044L1012 993L1624 993L1624 0L1445 0L1445 864L1017 864L1017 0L839 0L839 864L387 864L387 0L209 0Z"  horiz-adv-x="1775" vert-adv-y="2000"  />

      
      <glyph glyph-name="uniFB02" unicode="&#xFB02;" d="M209 0L209 861L97 874Q75 879 62 889.50Q49 900 49 920L49 993L209 993L209 1047Q209 1131 234.50 1206.50Q260 1282 312 1338Q364 1394 442 1427Q520 1460 624 1460Q701 1460 772.50 1454Q844 1448 911 1447L1032 1447L1032 0L855 0L855 1322Q801 1324 746.50 1327Q692 1330 651 1330Q521 1330 451.50 1255.50Q382 1181 382 1047L382 993L645 993L645 864L387 864L387 0L209 0Z"  horiz-adv-x="1179" vert-adv-y="2000"  />

      
      <glyph glyph-name="uniFB04" unicode="&#xFB04;" d="M207 0L207 861L95 874Q74 879 60.50 889.50Q47 900 47 920L47 993L207 993L207 1076Q207 1163 231.50 1230.50Q256 1298 301.50 1344.50Q347 1391 411 1415Q475 1439 555 1439Q623 1439 680 1419L676 1329Q674 1305 649.50 1303Q625 1301 584 1301Q538 1301 500.50 1289.50Q463 1278 436 1251Q409 1224 394.50 1179.50Q380 1135 380 1070L380 993L837 993L837 1047Q837 1131 863 1206.50Q889 1282 941 1338Q993 1394 1071 1427Q1149 1460 1253 1460Q1329 1460 1400.50 1454Q1472 1448 1539 1447L1661 1447L1661 0L1483 0L1483 1322Q1429 1324 1374.50 1327Q1320 1330 1280 1330Q1150 1330 1080 1255.50Q1010 1181 1010 1047L1010 993L1302 993L1302 864L1016 864L1016 0L837 0L837 864L386 864L386 0L207 0Z"  horiz-adv-x="1808" vert-adv-y="2000"  />

      
      <glyph glyph-name="uni67" unicode="&#x67;" d="M494 495Q548 495 589 510Q630 525 658 552Q686 579 700 616.50Q714 654 714 699Q714 792 657.50 847Q601 902 494 902Q386 902 329.50 847Q273 792 273 699Q273 654 287.50 616.50Q302 579 330 552Q358 525 399 510Q440 495 494 495M815-55Q815-18 794 5Q773 28 737.50 41Q702 54 655 59.50Q608 65 555.50 68Q503 71 449 74Q395 77 345 84Q289 58 253.50 18.50Q218-21 218-74Q218-108 235.50-137.50Q253-167 289-188.50Q325-210 379.50-222.50Q434-235 508-235Q580-235 637-222Q694-209 733.50-185Q773-161 794-128Q815-95 815-55M996 973L996 907Q996 874 954 865L839 850Q873 784 873 704Q873 630 844.50 569.50Q816 509 766 466Q716 423 646 400Q576 377 494 377Q423 377 360 394Q328 374 311 351.50Q294 329 294 306Q294 270 323.50 251.50Q353 233 401 225Q449 217 510.50 215Q572 213 636.50 208.50Q701 204 762.50 193Q824 182 872 157Q920 132 949.50 88Q979 44 979-26Q979-91 946.50-152Q914-213 853-260.50Q792-308 703.50-336.50Q615-365 504-365Q393-365 310-343Q227-321 172-284Q117-247 89.50-198.50Q62-150 62-97Q62-22 109 30Q156 82 238 113Q193 133 166.50 166.50Q140 200 140 257Q140 279 148 302.50Q156 326 172.50 349.50Q189 373 213 394Q237 415 269 431Q194 473 152 542.50Q110 612 110 704Q110 778 138.50 838.50Q167 899 218 941.50Q269 984 339.50 1007Q410 1030 494 1030Q560 1030 617 1015.50Q674 1001 721 973L996 973Z"  horiz-adv-x="1040" vert-adv-y="2000"  />

      
      <glyph glyph-name="uni68" unicode="&#x68;" d="M320 878Q385 947 464 988Q543 1029 646 1029Q729 1029 792.50 1001.50Q856 974 898.50 923.50Q941 873 963 802Q985 731 985 645L985 0L806 0L806 645Q806 760 753.50 823.50Q701 887 594 887Q515 887 446.50 849Q378 811 320 746L320 0L141 0L141 1473L320 1473L320 878Z"  horiz-adv-x="1116" vert-adv-y="2000"  />

      
      <glyph glyph-name="uni0125" unicode="&#x0125;" d="M548 1546L418 1546Q406 1546 389.50 1550.50Q373 1555 356 1575L239 1716L227 1734L215 1716L98 1575Q81 1555 64.50 1550.50Q48 1546 36 1546L-89 1546L150 1817L310 1817L548 1546M320 878Q385 947 464 988Q543 1029 646 1029Q729 1029 792.50 1001.50Q856 974 898.50 923.50Q941 873 963 802Q985 731 985 645L985 0L806 0L806 645Q806 760 753.50 823.50Q701 887 594 887Q515 887 446.50 849Q378 811 320 746L320 0L141 0L141 1473L320 1473L320 878Z"  horiz-adv-x="1116" vert-adv-y="2000"  />

      
      <glyph glyph-name="uni0127" unicode="&#x0127;" d="M319 855Q383 923 463 965Q543 1007 645 1007Q728 1007 791.50 979.50Q855 952 897.50 901.50Q940 851 962 780.50Q984 710 984 624L984 0L806 0L806 624Q806 738 753.50 801.50Q701 865 593 865Q514 865 445.50 827.50Q377 790 319 724L319 0L141 0L141 1157L-13 1157L-13 1270L141 1270L141 1473L319 1473L319 1270L612 1270L612 1157L319 1157L319 855Z"  horiz-adv-x="1116" vert-adv-y="2000"  />

      
      <glyph glyph-name="uni69" unicode="&#x69;" d="M329 1013L329 0L151 0L151 1013L329 1013M367 1331Q367 1305 356.50 1282.50Q346 1260 328.50 1242.50Q311 1225 287.50 1215Q264 1205 238 1205Q212 1205 189.50 1215Q167 1225 150 1242.50Q133 1260 123 1282.50Q113 1305 113 1331Q113 1357 123 1380.50Q133 1404 150 1421.50Q167 1439 189.50 1449Q212 1459 238 1459Q264 1459 287.50 1449Q311 1439 328.50 1421.50Q346 1404 356.50 1380.50Q367 1357 367 1331Z"  horiz-adv-x="480" vert-adv-y="2000"  />

      
      <glyph glyph-name="uni012F" unicode="&#x012F;" d="M238 1205Q212 1205 189.50 1215Q167 1225 150 1242.50Q133 1260 123 1282.50Q113 1305 113 1331Q113 1357 123 1380.50Q133 1404 150 1421.50Q167 1439 189.50 1449Q212 1459 238 1459Q264 1459 287.50 1449Q311 1439 328.50 1421.50Q346 1404 356.50 1380.50Q367 1357 367 1331Q367 1305 356.50 1282.50Q346 1260 328.50 1242.50Q311 1225 287.50 1215Q264 1205 238 1205M424-290Q394-313 347.50-327.50Q301-342 250-342Q162-342 111.50-302.50Q61-263 61-197Q61-140 100.50-89Q140-38 200 0L151 0L151 1013L329 1013L329 0L314 0Q294-11 273-26.50Q252-42 235-61.50Q218-81 207-104.50Q196-128 196-154Q196-192 220.50-213.50Q245-235 287-235Q310-235 325-231.50Q340-228 350-223.50Q360-219 366.50-215Q373-211 378-211Q385-211 389.50-215Q394-219 396-224L424-290Z"  horiz-adv-x="480" vert-adv-y="2000"  />

      
      <glyph glyph-name="uni0131" unicode="&#x0131;" d="M330 1013L330 0L151 0L151 1013L330 1013Z"  horiz-adv-x="481" vert-adv-y="2000"  />

      
      <glyph glyph-name="uni6a" unicode="&#x6a;" d="M329 1013L329-75Q329-136 313-188.50Q297-241 262-280Q227-319 172.50-341.50Q118-364 42-364Q10-364-17-359Q-44-354-71-344L-64-248Q-62-239-57.50-234.50Q-53-230-45-229Q-37-228-24.50-228.50Q-12-229 7-229Q85-229 118-192.50Q151-156 151-75L151 1013L329 1013M366 1331Q366 1305 355.50 1282.50Q345 1260 327.50 1242.50Q310 1225 287 1215Q264 1205 238 1205Q212 1205 189.50 1215Q167 1225 150 1242.50Q133 1260 123 1282.50Q113 1305 113 1331Q113 1357 123 1380.50Q133 1404 150 1421.50Q167 1439 189.50 1449Q212 1459 238 1459Q264 1459 287 1449Q310 1439 327.50 1421.50Q345 1404 355.50 1380.50Q366 1357 366 1331Z"  horiz-adv-x="480" vert-adv-y="2000"  />

      
      <glyph glyph-name="uni0237" unicode="&#x0237;" d="M330 1013L330-75Q330-136 313.50-188.50Q297-241 262.50-280Q228-319 173.50-341.50Q119-364 43-364Q10-364-16.50-359Q-43-354-70-344L-63-248Q-61-239-57-234.50Q-53-230-45-229Q-37-228-24.50-228.50Q-12-229 7-229Q85-229 118-192.50Q151-156 151-75L151 1013L330 1013Z"  horiz-adv-x="481" vert-adv-y="2000"  />

      
      <glyph glyph-name="uni6b" unicode="&#x6b;" d="M320 1473L320 606L366 606Q386 606 399.50 611.50Q413 617 428 634L748 977Q762 994 777.50 1003.50Q793 1013 819 1013L980 1013L607 616Q580 582 549 563Q567 551 581.50 535.50Q596 520 609 500L1005 0L846 0Q823 0 806.50 7.50Q790 15 778 35L445 450Q430 471 415.50 477.50Q401 484 371 484L320 484L320 0L141 0L141 1473L320 1473Z"  horiz-adv-x="1016" vert-adv-y="2000"  />

      
      <glyph glyph-name="uni0138" unicode="&#x0138;" d="M320 1013L320 606L366 606Q386 606 399.50 611.50Q413 617 428 634L748 977Q762 994 777.50 1003.50Q793 1013 819 1013L980 1013L607 616Q580 582 549 563Q567 551 581.50 535.50Q596 520 609 500L1005 0L846 0Q823 0 806.50 7.50Q790 15 778 35L445 450Q430 471 415.50 477.50Q401 484 371 484L320 484L320 0L141 0L141 1013L320 1013Z"  horiz-adv-x="1016" vert-adv-y="2000"  />

      
      <glyph glyph-name="uni0142" unicode="&#x0142;" d="M590 1008L590 907Q590 874 563 863L402 792L402 0L224 0L224 727L43 648L43 753Q43 780 68 793L224 863L224 1473L402 1473L402 929L590 1008Z"  horiz-adv-x="617" vert-adv-y="2000"  />

      
      <glyph glyph-name="uni013E" unicode="&#x013E;" d="M325 1473L325 0L147 0L147 1473L325 1473M615 1475Q637 1475 642.50 1464.50Q648 1454 648 1442Q648 1432 644.50 1415.50Q641 1399 632 1369.50Q623 1340 607 1295Q591 1250 566 1184Q556 1162 541.50 1155Q527 1148 502 1148L440 1148L497 1475L615 1475Z"  horiz-adv-x="472" vert-adv-y="2000"  />

      
      <glyph glyph-name="uni6d" unicode="&#x6d;" d="M141 0L141 1013L248 1013Q286 1013 295 976L308 872Q364 941 434 985Q504 1029 596 1029Q698 1029 761.50 972Q825 915 853 818Q875 873 909.50 913Q944 953 987 979Q1030 1005 1078.50 1017Q1127 1029 1177 1029Q1257 1029 1319.50 1003.50Q1382 978 1425.50 929Q1469 880 1492 808.50Q1515 737 1515 645L1515 0L1336 0L1336 645Q1336 764 1284 825.50Q1232 887 1134 887Q1090 887 1050.50 871.50Q1011 856 981 826Q951 796 933.50 750.50Q916 705 916 645L916 0L737 0L737 645Q737 767 688 827Q639 887 545 887Q479 887 423 851.50Q367 816 320 755L320 0L141 0Z"  horiz-adv-x="1645" vert-adv-y="2000"  />

      
      <glyph glyph-name="uni6e" unicode="&#x6e;" d="M309 866Q342 903 379 933Q416 963 457.50 984.50Q499 1006 545.50 1017.50Q592 1029 646 1029Q729 1029 792.50 1001.50Q856 974 898.50 923.50Q941 873 963 802Q985 731 985 645L985 0L806 0L806 645Q806 760 753.50 823.50Q701 887 594 887Q515 887 446.50 849Q378 811 320 746L320 0L141 0L141 1013L248 1013Q286 1013 295 976L309 866Z"  horiz-adv-x="1116" vert-adv-y="2000"  />

      
      <glyph glyph-name="uni014B" unicode="&#x014B;" d="M309 866Q342 903 379 933Q416 963 457.50 984.50Q499 1006 545.50 1017.50Q592 1029 646 1029Q729 1029 792.50 1001.50Q856 974 898.50 923.50Q941 873 963 802Q985 731 985 645L985 0Q985-82 965-149Q945-216 904-264Q863-312 800-338.50Q737-365 651-365Q603-365 564.50-356.50Q526-348 482-329L501-252Q507-229 518-222.50Q529-216 542-216Q554-216 575.50-223.50Q597-231 635-231Q719-231 762.50-179Q806-127 806-20L806 645Q806 760 753.50 823.50Q701 887 594 887Q515 887 446.50 849Q378 811 320 746L320 0L141 0L141 1013L248 1013Q286 1013 295 976L309 866Z"  horiz-adv-x="1116" vert-adv-y="2000"  />

      
      <glyph glyph-name="uni6f" unicode="&#x6f;" d="M568 1029Q679 1029 768 992Q857 955 920 887Q983 819 1016.50 722.50Q1050 626 1050 507Q1050 387 1016.50 291Q983 195 920 127Q857 59 768 22.50Q679-14 568-14Q456-14 366.50 22.50Q277 59 214 127Q151 195 117.50 291Q84 387 84 507Q84 626 117.50 722.50Q151 819 214 887Q277 955 366.50 992Q456 1029 568 1029M568 125Q718 125 792 225.50Q866 326 866 506Q866 687 792 788Q718 889 568 889Q492 889 435.50 863Q379 837 341.50 788Q304 739 285.50 667.50Q267 596 267 506Q267 326 341.50 225.50Q416 125 568 125Z"  horiz-adv-x="1134" vert-adv-y="2000"  />

      
      <glyph glyph-name="unif8" unicode="&#xf8;" d="M392 168Q462 120 568 120Q643 120 700.50 146.50Q758 173 797.50 223Q837 273 857 344.50Q877 416 877 506Q877 657 825 753L392 168M752 839Q679 895 568 895Q492 895 434 868Q376 841 336.50 791Q297 741 277 668.50Q257 596 257 506Q257 346 316 249L752 839M922 885Q984 816 1017 721Q1050 626 1050 507Q1050 387 1016.50 291Q983 195 920 127Q857 59 768 22.50Q679-14 568-14Q492-14 426.50 3Q361 20 307 52L252-22Q232-52 201.50-64Q171-76 142-76L75-76L220 120Q154 189 119 286.50Q84 384 84 507Q84 626 117.50 722.50Q151 819 214 887Q277 955 366.50 992Q456 1029 568 1029Q647 1029 714.50 1010Q782 991 838 956L906 1047Q924 1075 940.50 1086Q957 1097 990 1097L1079 1097L922 885Z"  horiz-adv-x="1133" vert-adv-y="2000"  />

      
      <glyph glyph-name="uni0153" unicode="&#x0153;" d="M1507 597Q1507 662 1491.50 717.50Q1476 773 1446 813Q1416 853 1372.50 875.50Q1329 898 1274 898Q1213 898 1165 877.50Q1117 857 1082.50 818Q1048 779 1027.50 723Q1007 667 1000 597L1507 597M546 125Q685 125 753 225.50Q821 326 821 506Q821 596 804 667.50Q787 739 753 788Q719 837 667 863Q615 889 546 889Q475 889 423 863Q371 837 336.50 788Q302 739 285 667.50Q268 596 268 506Q268 326 336.50 225.50Q405 125 546 125M998 486Q1002 396 1024.50 328.50Q1047 261 1085.50 216Q1124 171 1176.50 148.50Q1229 126 1294 126Q1355 126 1399.50 141.50Q1444 157 1476 175Q1508 193 1530.50 208.50Q1553 224 1571 224Q1592 224 1604 207L1655 142Q1622 102 1578.50 72.50Q1535 43 1485.50 24Q1436 5 1383-4.50Q1330-14 1278-14Q1160-14 1064 44Q968 102 913 221Q860 109 763 47.50Q666-14 529-14Q429-14 347 22.50Q265 59 206.50 127Q148 195 116 291Q84 387 84 507Q84 626 116 722.50Q148 819 207.50 887Q267 955 350.50 992Q434 1029 536 1029Q667 1029 762 968.50Q857 908 911 799Q936 851 972 893.50Q1008 936 1054.50 966Q1101 996 1158 1012.50Q1215 1029 1281 1029Q1363 1029 1433 997Q1503 965 1554.50 904Q1606 843 1635.50 755.50Q1665 668 1665 556Q1665 515 1657 500.50Q1649 486 1624 486L998 486Z"  horiz-adv-x="1746" vert-adv-y="2000"  />

      
      <glyph glyph-name="uni70" unicode="&#x70;" d="M320 244Q369 178 427 151Q485 124 557 124Q699 124 775 225Q851 326 851 513Q851 612 833.50 683Q816 754 783 799.50Q750 845 702 866Q654 887 593 887Q506 887 440.50 847Q375 807 320 734L320 244M311 856Q375 935 459 983Q543 1031 651 1031Q739 1031 810 997.50Q881 964 931 898.50Q981 833 1008 736Q1035 639 1035 513Q1035 401 1005 304.50Q975 208 918.50 137.50Q862 67 780.50 26.50Q699-14 597-14Q504-14 437.50 17.50Q371 49 320 105L320-343L141-343L141 1013L248 1013Q286 1013 295 976L311 856Z"  horiz-adv-x="1121" vert-adv-y="2000"  />

      
      <glyph glyph-name="unife" unicode="&#xfe;" d="M320 244Q369 178 427 151Q485 124 557 124Q699 124 775 225Q851 326 851 513Q851 612 833.50 683Q816 754 783 799.50Q750 845 702 866Q654 887 593 887Q506 887 440.50 847Q375 807 320 734L320 244M320 867Q384 941 465 985Q546 1029 651 1029Q739 1029 810 996Q881 963 931 897.50Q981 832 1008 735.50Q1035 639 1035 513Q1035 401 1005 304.50Q975 208 918.50 137.50Q862 67 780.50 26.50Q699-14 597-14Q503-14 437 20.50Q371 55 320 118L320-343L141-343L141 1473L320 1473L320 867Z"  horiz-adv-x="1121" vert-adv-y="2000"  />

      
      <glyph glyph-name="uni71" unicode="&#x71;" d="M801 773Q753 837 694 864.50Q635 892 563 892Q422 892 346 791Q270 690 270 503Q270 404 287 333.50Q304 263 337 217.50Q370 172 418 151Q466 130 527 130Q615 130 680.50 170Q746 210 801 283L801 773M979 1013L979-343L801-343L801 151Q738 77 656 31.50Q574-14 469-14Q382-14 311 19.50Q240 53 190 118Q140 183 113 280Q86 377 86 503Q86 615 116 711.50Q146 808 202 879Q258 950 339.50 990.50Q421 1031 523 1031Q622 1031 691 996Q760 961 813 898L825 976Q835 1013 873 1013L979 1013Z"  horiz-adv-x="1120" vert-adv-y="2000"  />

      
      <glyph glyph-name="uni72" unicode="&#x72;" d="M310 810Q358 914 428 972.50Q498 1031 599 1031Q631 1031 660.50 1024Q690 1017 713 1002L700 869Q694 844 670 844Q656 844 629 850Q602 856 568 856Q520 856 482.50 842Q445 828 415.50 800.50Q386 773 362.50 732.50Q339 692 320 640L320 0L141 0L141 1013L243 1013Q272 1013 283 1002Q294 991 298 964L310 810Z"  horiz-adv-x="728" vert-adv-y="2000"  />

      
      <glyph glyph-name="uni73" unicode="&#x73;" d="M731 846Q719 824 694 824Q679 824 660 835Q641 846 613.50 859.50Q586 873 548 884.50Q510 896 458 896Q413 896 377 884.50Q341 873 315.50 853Q290 833 276.50 806.50Q263 780 263 749Q263 710 285.50 684Q308 658 345 639Q382 620 429 605.50Q476 591 525.50 574.50Q575 558 622 538Q669 518 706 488Q743 458 765.50 414.50Q788 371 788 310Q788 240 763 180.50Q738 121 689 77.50Q640 34 569 9Q498-16 405-16Q299-16 213 18.50Q127 53 67 107L109 175Q117 188 128 195Q139 202 156 202Q174 202 194 188Q214 174 242.50 157Q271 140 312 126Q353 112 414 112Q466 112 505 125.50Q544 139 570 162Q596 185 608.50 215Q621 245 621 279Q621 321 598.50 348.50Q576 376 539 395.50Q502 415 454.50 429.50Q407 444 357.50 460Q308 476 260.50 496.50Q213 517 176 548Q139 579 116.50 624.50Q94 670 94 735Q94 793 118 846.50Q142 900 188 940.50Q234 981 301 1005Q368 1029 454 1029Q554 1029 633.50 997.50Q713 966 771 911L731 846Z"  horiz-adv-x="866" vert-adv-y="2000"  />

      
      <glyph glyph-name="uni015F" unicode="&#x015F;" d="M731 846Q719 824 694 824Q679 824 660 835Q641 846 613.50 859.50Q586 873 548 884.50Q510 896 458 896Q413 896 377 884.50Q341 873 315.50 853Q290 833 276.50 806.50Q263 780 263 749Q263 710 285.50 684Q308 658 345 639Q382 620 429 605.50Q476 591 525.50 574.50Q575 558 622 538Q669 518 706 488Q743 458 765.50 414.50Q788 371 788 310Q788 245 766.50 189.50Q745 134 703.50 91Q662 48 600.50 20.50Q539-7 460-14L443-75Q536-94 577-129Q618-164 618-218Q618-250 602-276Q586-302 557.50-320Q529-338 489-347.50Q449-357 401-357Q360-357 323-348.50Q286-340 255-326L272-271Q278-253 295-253Q301-253 309-256.50Q317-260 328.50-264.50Q340-269 355.50-272.50Q371-276 392-276Q434-276 455.50-259Q477-242 477-216Q477-178 435-162.50Q393-147 316-137L357-14Q267-6 194 26.50Q121 59 67 107L109 175Q117 188 128 195Q139 202 156 202Q174 202 194 188Q214 174 242.50 157Q271 140 312 126Q353 112 414 112Q466 112 505 125.50Q544 139 570 162Q596 185 608.50 215Q621 245 621 279Q621 321 598.50 348.50Q576 376 539 395.50Q502 415 454.50 429.50Q407 444 357.50 460Q308 476 260.50 496.50Q213 517 176 548Q139 579 116.50 624.50Q94 670 94 735Q94 793 118 846.50Q142 900 188 940.50Q234 981 301 1005Q368 1029 454 1029Q554 1029 633.50 997.50Q713 966 771 911L731 846Z"  horiz-adv-x="866" vert-adv-y="2000"  />

      
      <glyph glyph-name="unidf" unicode="&#xdf;" d="M628 1454Q731 1454 806 1424Q881 1394 930 1347.50Q979 1301 1002.50 1246Q1026 1191 1026 1140Q1026 1080 1004.50 1037Q983 994 951 961Q919 928 881.50 903Q844 878 812 854Q780 830 758.50 804.50Q737 779 737 747Q737 708 763.50 682Q790 656 830 633.50Q870 611 916.50 587.50Q963 564 1003 529Q1043 494 1069.50 443Q1096 392 1096 314Q1096 236 1067.50 175Q1039 114 989.50 71.50Q940 29 872 6.50Q804-16 726-16Q629-16 549.50 18.50Q470 53 410 107L452 175Q460 188 471 195Q482 202 500 202Q518 202 538 188Q558 174 585 157Q612 140 649.50 126Q687 112 741 112Q784 112 819 125.50Q854 139 879 162Q904 185 917 217Q930 249 930 286Q930 342 902 377Q874 412 832 437.50Q790 463 740.50 484Q691 505 649 534Q607 563 579 604.50Q551 646 551 712Q551 765 573.50 804.50Q596 844 629.50 875.50Q663 907 702.50 934Q742 961 775.50 991Q809 1021 831.50 1056.50Q854 1092 854 1140Q854 1172 841.50 1204.50Q829 1237 801 1263Q773 1289 728.50 1305.50Q684 1322 620 1322Q552 1322 497 1301Q442 1280 402 1238Q362 1196 340.50 1133Q319 1070 319 986L319 0L141 0L141 992Q141 1096 175.50 1181Q210 1266 274 1327Q338 1388 428 1421Q518 1454 628 1454Z"  horiz-adv-x="1160" vert-adv-y="2000"  />

      
      <glyph glyph-name="uni017F" unicode="&#x017F;" d="M209 1091Q209 1178 233.50 1245.50Q258 1313 303 1359.50Q348 1406 412.50 1430Q477 1454 557 1454Q625 1454 683 1434L676 1342Q675 1332 668 1327.50Q661 1323 649 1322Q637 1321 621 1321.50Q605 1322 586 1322Q540 1322 503 1309.50Q466 1297 440.50 1269Q415 1241 401 1196Q387 1151 387 1086L387 0L209 0L209 862L97 874Q75 879 62 889.50Q49 900 49 920L49 993L209 993L209 1091Z"  horiz-adv-x="568" vert-adv-y="2000"  />

      
      <glyph glyph-name="uni74" unicode="&#x74;" d="M452-16Q332-16 267.50 51Q203 118 203 244L203 864L81 864Q65 864 54 873.50Q43 883 43 903L43 974L209 995L250 1308Q253 1323 263.50 1332.50Q274 1342 291 1342L381 1342L381 993L674 993L674 864L381 864L381 256Q381 192 412 161Q443 130 492 130Q520 130 540.50 137.50Q561 145 576 154Q591 163 601.50 170.50Q612 178 620 178Q634 178 645 161L697 76Q651 33 586 8.50Q521-16 452-16Z"  horiz-adv-x="717" vert-adv-y="2000"  />

      
      <glyph glyph-name="uni0165" unicode="&#x0165;" d="M450-16Q330-16 265.50 51Q201 118 201 244L201 864L79 864Q63 864 52 873.50Q41 883 41 903L41 974L207 995L248 1308Q251 1323 261.50 1332.50Q272 1342 289 1342L379 1342L379 993L672 993L672 864L379 864L379 256Q379 192 410 161Q441 130 490 130Q518 130 538.50 137.50Q559 145 574 154Q589 163 599.50 170.50Q610 178 618 178Q632 178 643 161L695 76Q649 33 584 8.50Q519-16 450-16M771 1475Q793 1475 798.50 1464.50Q804 1454 804 1442Q804 1432 800.50 1415.50Q797 1399 788 1369.50Q779 1340 763 1295Q747 1250 722 1184Q712 1162 697.50 1155Q683 1148 658 1148L596 1148L653 1475L771 1475Z"  horiz-adv-x="715" vert-adv-y="2000"  />

      
      <glyph glyph-name="uni0167" unicode="&#x0167;" d="M64 692L206 692L206 864L84 864Q68 864 57 873.50Q46 883 46 903L46 974L212 995L253 1308Q256 1323 266.50 1332.50Q277 1342 294 1342L384 1342L384 993L677 993L677 864L384 864L384 692L679 692L679 579L384 579L384 256Q384 192 415 161Q446 130 495 130Q523 130 543.50 137.50Q564 145 579 154Q594 163 604.50 170.50Q615 178 623 178Q637 178 648 161L700 76Q654 33 589 8.50Q524-16 455-16Q335-16 270.50 51Q206 118 206 244L206 579L64 579L64 692Z"  horiz-adv-x="725" vert-adv-y="2000"  />

      
      <glyph glyph-name="uni75" unicode="&#x75;" d="M974 1013L974 0L868 0Q830 0 820 37L806 146Q740 73 658 28.50Q576-16 470-16Q387-16 323.50 11.50Q260 39 217 89Q174 139 152.50 210Q131 281 131 367L131 1013L309 1013L309 367Q309 252 361.50 189Q414 126 522 126Q601 126 669.50 163.50Q738 201 796 267L796 1013L974 1013Z"  horiz-adv-x="1115" vert-adv-y="2000"  />

      
      <glyph glyph-name="uni0173" unicode="&#x0173;" d="M1085-290Q1055-313 1008.50-327.50Q962-342 911-342Q823-342 772.50-302.50Q722-263 722-197Q722-140 761.50-89Q801-38 862 0Q829 3 820 37L806 146Q740 73 658 28.50Q576-16 470-16Q387-16 323.50 11.50Q260 39 217 89Q174 139 152.50 210Q131 281 131 367L131 1013L309 1013L309 367Q309 252 361.50 189Q414 126 522 126Q601 126 669.50 163.50Q738 201 796 267L796 1013L974 1013L974 0L975 0Q955-11 934-26.50Q913-42 896-61.50Q879-81 868-104.50Q857-128 857-154Q857-192 881.50-213.50Q906-235 948-235Q971-235 986-231.50Q1001-228 1011-223.50Q1021-219 1027.50-215Q1034-211 1039-211Q1046-211 1050.50-215Q1055-219 1057-224L1085-290Z"  horiz-adv-x="1115" vert-adv-y="2000"  />

      
      <glyph glyph-name="uni76" unicode="&#x76;" d="M1009 1013L596 0L436 0L23 1013L168 1013Q190 1013 204 1002Q218 991 223 976L480 324Q492 287 501 252Q510 217 518 182Q526 217 535 252Q544 287 557 324L817 976Q823 992 837 1002.50Q851 1013 870 1013L1009 1013Z"  horiz-adv-x="1032" vert-adv-y="2000"  />

      
      <glyph glyph-name="uni77" unicode="&#x77;" d="M1538 1013L1210 0L1069 0Q1043 0 1033 34L809 721Q801 744 796 767.50Q791 791 786 814Q781 791 776 767.50Q771 744 763 720L535 34Q526 0 495 0L361 0L33 1013L173 1013Q194 1013 208.50 1002Q223 991 228 976L422 324Q439 252 449 188Q458 221 467.50 255Q477 289 488 324L702 980Q707 995 719.50 1005Q732 1015 750 1015L828 1015Q848 1015 861 1005Q874 995 879 980L1088 324Q1099 289 1108 255Q1117 221 1125 188Q1130 221 1137.50 254.50Q1145 288 1154 324L1352 976Q1357 992 1371 1002.50Q1385 1013 1404 1013L1538 1013Z"  horiz-adv-x="1571" vert-adv-y="2000"  />

      
      <glyph glyph-name="uni78" unicode="&#x78;" d="M973 0L802 0Q780 0 767.50 11.50Q755 23 747 37L492 434Q488 420 483.50 406.50Q479 393 471 382L235 37Q225 23 213.50 11.50Q202 0 182 0L23 0L378 520L37 1013L208 1013Q230 1013 240 1006Q250 999 258 986L507 606Q515 635 532 662L750 982Q759 996 769.50 1004.50Q780 1013 795 1013L959 1013L618 529L973 0Z"  horiz-adv-x="996" vert-adv-y="2000"  />

      
      <glyph glyph-name="uni79" unicode="&#x79;" d="M1015 1013L450-299Q441-319 427.50-331Q414-343 386-343L254-343L439 59L21 1013L175 1013Q198 1013 211.50 1001.50Q225 990 230 976L501 338Q517 296 528 250Q542 297 558 339L821 976Q827 992 841.50 1002.50Q856 1013 874 1013L1015 1013Z"  horiz-adv-x="1031" vert-adv-y="2000"  />

      
      <glyph glyph-name="uni7a" unicode="&#x7a;" d="M840 937Q840 918 833.50 900Q827 882 816 869L267 139L821 139L821 0L58 0L58 74Q58 87 64 104.50Q70 122 82 138L634 873L89 873L89 1013L840 1013L840 937Z"  horiz-adv-x="904" vert-adv-y="2000"  />

      
      <glyph glyph-name="uniaa" unicode="&#xaa;" d="M477 1102Q407 1099 359 1090.50Q311 1082 281 1068.50Q251 1055 237.50 1037.50Q224 1020 224 999Q224 957 250.50 940Q277 923 317 923Q368 923 405 942Q442 961 477 996L477 1102M132 1355Q183 1404 244 1427Q305 1450 378 1450Q432 1450 474 1433Q516 1416 545 1386Q574 1356 589 1314Q604 1272 604 1221L604 840L544 840Q526 840 517 845.50Q508 851 500 869L488 918Q464 897 440.50 881Q417 865 392.50 853.50Q368 842 339.50 836.50Q311 831 277 831Q239 831 207 841Q175 851 151 871.50Q127 892 113.50 922Q100 952 100 993Q100 1027 119 1060.50Q138 1094 182.50 1121Q227 1148 299 1165Q371 1182 477 1184L477 1221Q477 1284 448.50 1314Q420 1344 363 1344Q325 1344 299.50 1335Q274 1326 255.50 1315.50Q237 1305 222.50 1296.50Q208 1288 192 1288Q178 1288 169 1296Q160 1304 154 1313L132 1355Z"  horiz-adv-x="735" vert-adv-y="2000"  />

      
      <glyph glyph-name="uniba" unicode="&#xba;" d="M404 1449Q474 1449 530.50 1427.50Q587 1406 627 1366Q667 1326 689 1268.50Q711 1211 711 1140Q711 1068 689 1010Q667 952 627 911.50Q587 871 530.50 849.50Q474 828 404 828Q333 828 276 849.50Q219 871 178.50 911.50Q138 952 116 1010Q94 1068 94 1140Q94 1211 116 1268.50Q138 1326 178.50 1366Q219 1406 276 1427.50Q333 1449 404 1449M404 934Q488 934 529.50 986.50Q571 1039 571 1139Q571 1239 529.50 1291Q488 1343 404 1343Q316 1343 275 1291Q234 1239 234 1139Q234 1039 275 986.50Q316 934 404 934Z"  horiz-adv-x="804" vert-adv-y="2000"  />

      
      <glyph glyph-name="uni207F" unicode="&#x207F;" d="M191 1360Q225 1396 264.50 1418.50Q304 1441 360 1441Q402 1441 434.50 1426.50Q467 1412 489 1385.50Q511 1359 522.50 1323Q534 1287 534 1244L534 915L408 915L408 1244Q408 1291 386.50 1316Q365 1341 321 1341Q289 1341 261.50 1326.50Q234 1312 209 1288L209 915L83 915L83 1433L149 1433Q163 1433 170.50 1427Q178 1421 183 1406L191 1360Z"  horiz-adv-x="610" vert-adv-y="2000"  />

      
      <glyph glyph-name="uni60" unicode="&#x60;" d="M300 1449Q333 1449 349 1438.50Q365 1428 379 1405L528 1163L426 1163Q405 1163 392 1169.50Q379 1176 365 1191L131 1449L300 1449Z"  horiz-adv-x="800" vert-adv-y="2000"  />

      
      <glyph glyph-name="unib4" unicode="&#xb4;" d="M691 1449L458 1191Q444 1176 430.50 1169.50Q417 1163 396 1163L290 1163L438 1405Q452 1428 468.50 1438.50Q485 1449 517 1449L691 1449Z"  horiz-adv-x="800" vert-adv-y="2000"  />

      
      <glyph glyph-name="uni02C6" unicode="&#x02C6;" d="M706 1169L587 1169Q576 1169 564.50 1173Q553 1177 542 1188L419 1320Q410 1328 403 1339Q398 1334 394 1329Q390 1324 386 1320L262 1188Q241 1169 217 1169L94 1169L317 1433L483 1433L706 1169Z"  horiz-adv-x="800" vert-adv-y="2000"  />

      
      <glyph glyph-name="uni02C7" unicode="&#x02C7;" d="M706 1433L483 1169L317 1169L94 1433L217 1433Q229 1433 240 1428Q251 1423 257 1418L385 1282Q390 1277 393.50 1272Q397 1267 402 1262Q407 1267 410.50 1272Q414 1277 419 1282L547 1418Q554 1423 565 1428Q576 1433 587 1433L706 1433Z"  horiz-adv-x="800" vert-adv-y="2000"  />

      
      <glyph glyph-name="uni0315" unicode="&#x0315;" d="M478 1475Q500 1475 505.50 1464.50Q511 1454 511 1442Q511 1432 507.50 1415.50Q504 1399 495 1369.50Q486 1340 470 1295Q454 1250 429 1184Q419 1162 404.50 1155Q390 1148 365 1148L303 1148L360 1475L478 1475Z"   vert-adv-y="2000"  />

      
      <glyph glyph-name="uni02DC" unicode="&#x02DC;" d="M510 1325Q546 1325 565.50 1346Q585 1367 586 1411L694 1411Q694 1364 681.50 1324.50Q669 1285 645.50 1257Q622 1229 589.50 1213.50Q557 1198 517 1198Q482 1198 451.50 1212.50Q421 1227 394 1244Q367 1261 343 1275.50Q319 1290 296 1290Q224 1290 222 1202L111 1202Q111 1250 124 1289.50Q137 1329 161 1357.50Q185 1386 218 1401.50Q251 1417 290 1417Q325 1417 355.50 1402.50Q386 1388 413 1371Q440 1354 463.50 1339.50Q487 1325 510 1325Z"  horiz-adv-x="800" vert-adv-y="2000"  />

      
      <glyph glyph-name="unia8" unicode="&#xa8;" d="M322 1289Q322 1266 313 1246Q304 1226 288 1211Q272 1196 251.50 1187Q231 1178 208 1178Q186 1178 166 1187Q146 1196 130.50 1211Q115 1226 106 1246Q97 1266 97 1289Q97 1312 106 1333Q115 1354 130.50 1369.50Q146 1385 166 1394Q186 1403 208 1403Q231 1403 251.50 1394Q272 1385 288 1369.50Q304 1354 313 1333Q322 1312 322 1289M703 1289Q703 1266 694 1246Q685 1226 669.50 1211Q654 1196 633.50 1187Q613 1178 590 1178Q567 1178 546.50 1187Q526 1196 511 1211Q496 1226 487 1246Q478 1266 478 1289Q478 1312 487 1333Q496 1354 511 1369.50Q526 1385 546.50 1394Q567 1403 590 1403Q613 1403 633.50 1394Q654 1385 669.50 1369.50Q685 1354 694 1333Q703 1312 703 1289Z"  horiz-adv-x="800" vert-adv-y="2000"  />

      
      <glyph glyph-name="uniaf" unicode="&#xaf;" d="M113 1348L687 1348L687 1231L113 1231L113 1348Z"  horiz-adv-x="800" vert-adv-y="2000"  />

      
      <glyph glyph-name="uni02C9" unicode="&#x02C9;" d="M113 1348L687 1348L687 1231L113 1231L113 1348Z"  horiz-adv-x="800" vert-adv-y="2000"  />

      
      <glyph glyph-name="uni02D8" unicode="&#x02D8;" d="M400 1164Q323 1164 271 1185.50Q219 1207 186.50 1243.50Q154 1280 140 1329Q126 1378 126 1433L252 1433Q252 1400 259 1371.50Q266 1343 283 1323Q300 1303 328.50 1291.50Q357 1280 400 1280Q443 1280 471.50 1291.50Q500 1303 517 1323Q534 1343 541 1371.50Q548 1400 548 1433L674 1433Q674 1378 660 1329Q646 1280 613.50 1243.50Q581 1207 528.50 1185.50Q476 1164 400 1164Z"  horiz-adv-x="800" vert-adv-y="2000"  />

      
      <glyph glyph-name="uni02DA" unicode="&#x02DA;" d="M200 1315Q200 1357 216 1391Q232 1425 259.50 1450Q287 1475 323 1488.50Q359 1502 399 1502Q440 1502 476.50 1488.50Q513 1475 541 1450Q569 1425 585 1391Q601 1357 601 1315Q601 1274 585 1240Q569 1206 541 1182Q513 1158 476.50 1144.50Q440 1131 399 1131Q359 1131 323 1144.50Q287 1158 259.50 1182Q232 1206 216 1240Q200 1274 200 1315M300 1315Q300 1271 327 1243Q354 1215 401 1215Q446 1215 473.50 1243Q501 1271 501 1315Q501 1360 473.50 1388Q446 1416 401 1416Q354 1416 327 1388Q300 1360 300 1315Z"  horiz-adv-x="800" vert-adv-y="2000"  />

      
      <glyph glyph-name="uni02DD" unicode="&#x02DD;" d="M522 1449L323 1191Q311 1175 296.50 1169Q282 1163 261 1163L187 1163L325 1405Q337 1428 354 1438.50Q371 1449 404 1449L522 1449M836 1449L593 1191Q579 1176 565.50 1169.50Q552 1163 532 1163L446 1163L626 1405Q642 1427 657 1438Q672 1449 705 1449L836 1449Z"  horiz-adv-x="800" vert-adv-y="2000"  />

      
      <glyph glyph-name="uni02D9" unicode="&#x02D9;" d="M527 1338Q527 1312 516.50 1289.50Q506 1267 488.50 1250Q471 1233 448 1223Q425 1213 399 1213Q373 1213 350.50 1223Q328 1233 311 1250Q294 1267 284 1289.50Q274 1312 274 1338Q274 1364 284 1387.50Q294 1411 311 1428.50Q328 1446 350.50 1456Q373 1466 399 1466Q425 1466 448 1456Q471 1446 488.50 1428.50Q506 1411 516.50 1387.50Q527 1364 527 1338Z"  horiz-adv-x="800" vert-adv-y="2000"  />

      
      <glyph glyph-name="unib8" unicode="&#xb8;" d="M430-75Q523-94 564-129Q605-164 605-218Q605-250 589-276Q573-302 544.50-320Q516-338 476-347.50Q436-357 388-357Q347-357 310-348.50Q273-340 242-326L259-271Q265-253 282-253Q288-253 296-256.50Q304-260 315.50-264.50Q327-269 342.50-272.50Q358-276 379-276Q421-276 442.50-259Q464-242 464-216Q464-178 422-162.50Q380-147 303-137L357 25L458 25L430-75Z"  horiz-adv-x="800" vert-adv-y="2000"  />

      
      <glyph glyph-name="uni02DB" unicode="&#x02DB;" d="M544-211Q551-211 555.50-215Q560-219 562-224L590-290Q560-313 513.50-327.50Q467-342 416-342Q328-342 277.50-302.50Q227-263 227-197Q227-166 239.50-136.50Q252-107 273.50-80Q295-53 324.50-29.50Q354-6 388 13L480 0Q460-11 439-26.50Q418-42 401-61.50Q384-81 373-104.50Q362-128 362-154Q362-192 386.50-213.50Q411-235 453-235Q476-235 491-231.50Q506-228 516-223.50Q526-219 532.50-215Q539-211 544-211Z"  horiz-adv-x="800" vert-adv-y="2000"  />

      
      <glyph glyph-name="uni0393" unicode="&#x0393;" d="M1066 1280L377 1280L377 0L183 0L183 1433L1066 1433L1066 1280Z"  horiz-adv-x="1096" vert-adv-y="2000"  />

      
      <glyph glyph-name="uni0394" unicode="&#x0394;" d="M228 156L1110 156L718 1115Q707 1144 695.50 1181.50Q684 1219 673 1263Q662 1218 650 1180.50Q638 1143 627 1114L228 156M1305 174Q1316 145 1322.50 116Q1329 87 1329 57L1329 0L27 0L27 55Q27 109 50 170L582 1433L778 1433L1305 174Z"  horiz-adv-x="1356" vert-adv-y="2000"  />

      
      <glyph glyph-name="uni0398" unicode="&#x0398;" d="M519 803L1081 803L1081 645L519 645L519 803M1507 716Q1507 555 1456 420.50Q1405 286 1312 189Q1219 92 1088.50 38.50Q958-15 800-15Q642-15 512 38.50Q382 92 289 189Q196 286 145 420.50Q94 555 94 716Q94 877 145 1011.50Q196 1146 289 1243.50Q382 1341 512 1395Q642 1449 800 1449Q958 1449 1088.50 1395Q1219 1341 1312 1243.50Q1405 1146 1456 1011.50Q1507 877 1507 716M1308 716Q1308 848 1272 953Q1236 1058 1170 1130.50Q1104 1203 1010 1242Q916 1281 800 1281Q685 1281 591 1242Q497 1203 430.50 1130.50Q364 1058 328 953Q292 848 292 716Q292 584 328 479.50Q364 375 430.50 302.50Q497 230 591 191.50Q685 153 800 153Q916 153 1010 191.50Q1104 230 1170 302.50Q1236 375 1272 479.50Q1308 584 1308 716Z"  horiz-adv-x="1601" vert-adv-y="2000"  />

      
      <glyph glyph-name="uni039B" unicode="&#x039B;" d="M1347 0L1181 0Q1155 0 1139 13Q1123 26 1115 46L710 1057Q697 1091 685 1131Q673 1171 662 1214Q653 1171 642 1131Q631 1091 618 1057L214 46Q208 28 191 14Q174 0 149 0L4 0L588 1433L763 1433L1347 0Z"  horiz-adv-x="1352" vert-adv-y="2000"  />

      
      <glyph glyph-name="uni039E" unicode="&#x039E;" d="M1158 1433L1158 1269L85 1269L85 1433L1158 1433M1158 163L1158 0L85 0L85 163L1158 163M333 809L907 809L907 640L333 640L333 809Z"  horiz-adv-x="1238" vert-adv-y="2000"  />

      
      <glyph glyph-name="uni03A0" unicode="&#x03A0;" d="M1344 0L1150 0L1150 1280L377 1280L377 0L183 0L183 1433L1344 1433L1344 0Z"  horiz-adv-x="1527" vert-adv-y="2000"  />

      
      <glyph glyph-name="uni03A3" unicode="&#x03A3;" d="M429 1280Q383 1280 346 1283.50Q309 1287 271 1294Q313 1272 344.50 1246.50Q376 1221 404 1188L693 826Q724 790 733 769.50Q742 749 743 733Q743 712 734 689Q725 666 693 630L368 229Q339 195 318.50 175.50Q298 156 277 143Q314 148 346 150Q378 152 407 152L1139 152L1139 0L66 0L66 73Q66 95 76.50 116.50Q87 138 102 154L573 715L90 1293Q80 1304 73 1319Q66 1334 66 1349L66 1433L1139 1433L1139 1280L429 1280Z"  horiz-adv-x="1216" vert-adv-y="2000"  />

      
      <glyph glyph-name="uni03A6" unicode="&#x03A6;" d="M925 230Q1035 231 1124 270.50Q1213 310 1276 376Q1339 442 1373 530.50Q1407 619 1407 720Q1407 820 1373 908.50Q1339 997 1276 1063.50Q1213 1130 1124 1169Q1035 1208 925 1210L925 230M741 1210Q630 1209 541 1170Q452 1131 389 1064Q326 997 292 908.50Q258 820 258 720Q258 619 292 530.50Q326 442 389 375.50Q452 309 541 270Q630 231 741 230L741 1210M925 1362Q1081 1361 1205 1309.50Q1329 1258 1415.50 1170.50Q1502 1083 1548.50 967Q1595 851 1595 720Q1595 589 1548.50 472.50Q1502 356 1415.50 269Q1329 182 1205 131Q1081 80 925 79L925-115L741-115L741 79Q585 80 461 131Q337 182 250 269Q163 356 117 472.50Q71 589 71 720Q71 851 118 967Q165 1083 252 1170.50Q339 1258 463 1309.50Q587 1361 741 1362L741 1547L925 1547L925 1362Z"  horiz-adv-x="1665" vert-adv-y="2000"  />

      
      <glyph glyph-name="uni03A8" unicode="&#x03A8;" d="M1531 1433L1531 921Q1531 794 1491 691Q1451 588 1373 514Q1295 440 1179.50 398Q1064 356 912 350L912 0L717 0L717 350Q565 356 449.50 398Q334 440 256 514Q178 588 138.50 691Q99 794 99 921L99 1433L228 1433Q260 1433 277 1413.50Q294 1394 294 1365L294 921Q294 825 318 750Q342 675 393.50 622.50Q445 570 525 541Q605 512 717 507L717 1433L912 1433L912 507Q1024 512 1104.50 541Q1185 570 1237 622.50Q1289 675 1313 750Q1337 825 1337 921L1337 1365Q1337 1394 1354 1413.50Q1371 1433 1402 1433L1531 1433Z"  horiz-adv-x="1632" vert-adv-y="2000"  />

      
      <glyph glyph-name="uni03A9" unicode="&#x03A9;" d="M1511 163L1511 63Q1511 35 1493 17.50Q1475 0 1445 0L925 0L925 224Q1006 239 1075.50 287.50Q1145 336 1196.50 409.50Q1248 483 1277 577Q1306 671 1306 777Q1306 903 1265.50 997Q1225 1091 1156.50 1154Q1088 1217 998 1248.50Q908 1280 808 1280Q708 1280 618 1248.50Q528 1217 459.50 1154Q391 1091 350.50 997Q310 903 310 777Q310 671 339 577Q368 483 419.50 409.50Q471 336 540.50 287.50Q610 239 691 224L691 0L171 0Q141 0 123 17.50Q105 35 105 63L105 163L391 163Q427 163 465.50 159Q504 155 542 150Q450 181 372 240.50Q294 300 237.50 381.50Q181 463 149 564Q117 665 117 779Q117 929 171.50 1052.50Q226 1176 319.50 1264Q413 1352 539 1400Q665 1448 808 1448Q951 1448 1077 1400Q1203 1352 1296.50 1264Q1390 1176 1444.50 1052.50Q1499 929 1499 779Q1499 665 1467 564Q1435 463 1378.50 381.50Q1322 300 1244 240.50Q1166 181 1074 150Q1112 155 1150.50 159Q1189 163 1225 163L1511 163Z"  horiz-adv-x="1616" vert-adv-y="2000"  />

      
      <glyph glyph-name="uni03B1" unicode="&#x03B1;" d="M823 710Q808 746 784.50 778.50Q761 811 728.50 836.50Q696 862 654.50 877Q613 892 563 892Q504 892 450.50 868.50Q397 845 356.50 796Q316 747 292 672Q268 597 268 494Q268 398 289 329.50Q310 261 345 216.50Q380 172 427 151Q474 130 526 130Q576 130 621.50 149.50Q667 169 703 208.50Q739 248 763.50 309.50Q788 371 796 455L823 710M1172 125L1172 53Q1172 30 1140 11Q1108-8 1051-8Q1012-8 975.50 3Q939 14 908 36.50Q877 59 854 94Q831 129 819 177Q787 126 748 90Q709 54 665.50 31Q622 8 576-3Q530-14 484-14Q400-14 327 20.50Q254 55 200 120Q146 185 115 278Q84 371 84 489Q84 613 118.50 713.50Q153 814 213.50 884.50Q274 955 355.50 993Q437 1031 532 1031Q586 1031 633.50 1019Q681 1007 720.50 985.50Q760 964 792.50 934.50Q825 905 849 871L868 976Q880 1013 916 1013L1022 1013L967 472Q965 423 960.50 375.50Q956 328 956 288Q956 244 968 213.50Q980 183 1001.50 163Q1023 143 1051.50 134Q1080 125 1113 125L1172 125Z"  horiz-adv-x="1184" vert-adv-y="2000"  />

      
      <glyph glyph-name="uni03B2" unicode="&#x03B2;" d="M319 248Q362 186 416.50 155.50Q471 125 552 125Q627 125 684 149Q741 173 779.50 215Q818 257 837.50 313Q857 369 857 434Q857 511 831.50 564.50Q806 618 762.50 652Q719 686 660.50 701Q602 716 536 716L475 716L475 857L515 857Q572 857 620 869.50Q668 882 703 909Q738 936 757.50 979Q777 1022 777 1084Q777 1197 718 1256.50Q659 1316 556 1316Q495 1316 450.50 1293.50Q406 1271 376.50 1222Q347 1173 333 1095Q319 1017 319 906L319 248M140 912Q140 1170 243.50 1308.50Q347 1447 559 1447Q658 1447 730.50 1418Q803 1389 851 1341Q899 1293 922 1230Q945 1167 945 1099Q945 985 886.50 906Q828 827 725 792Q799 775 857 740.50Q915 706 955 658Q995 610 1016 549Q1037 488 1037 417Q1037 330 1005.50 251.50Q974 173 916 114Q858 55 776.50 20.50Q695-14 595-14Q507-14 438.50 14Q370 42 319 101L319-367L140-367L140 912Z"  horiz-adv-x="1115" vert-adv-y="2000"  />

      
      <glyph glyph-name="uni03B3" unicode="&#x03B3;" d="M1057 1013Q1028 885 985.50 762Q943 639 889.50 521.50Q836 404 773.50 294Q711 184 642 83L642-342L464-342L464 86Q428 255 388 401.50Q348 548 301.50 655.50Q255 763 201 824.50Q147 886 81 886L43 886L43 952Q43 966 47 978Q51 990 61 999Q71 1008 89 1013.50Q107 1019 136 1019Q227 1019 297 967.50Q367 916 421 816Q475 716 514 569Q553 422 583 232Q632 309 673.50 396Q715 483 748 575Q781 667 807 762Q833 857 852 952Q857 987 872.50 1000Q888 1013 907 1013L1057 1013Z"  horiz-adv-x="1087" vert-adv-y="2000"  />

      
      <glyph glyph-name="uni03B4" unicode="&#x03B4;" d="M553 124Q617 124 671 146Q725 168 763 210Q801 252 822.50 311.50Q844 371 844 446Q844 527 820 589.50Q796 652 756.50 701Q717 750 666 788.50Q615 827 560 860Q501 839 447.50 806Q394 773 353 725Q312 677 288 612.50Q264 548 264 464Q264 395 281.50 333.50Q299 272 335 225.50Q371 179 425.50 151.50Q480 124 553 124M889 1297Q886 1273 874.50 1265Q863 1257 840 1257Q827 1257 796 1264Q765 1271 724 1279Q683 1287 637.50 1294Q592 1301 550 1301Q460 1301 423 1274Q386 1247 386 1208Q386 1172 413.50 1141.50Q441 1111 485.50 1081.50Q530 1052 587 1020Q644 988 704 950.50Q764 913 821 866Q878 819 922.50 759.50Q967 700 994.50 624.50Q1022 549 1022 453Q1022 349 989 263.50Q956 178 895 116.50Q834 55 747 21Q660-13 553-13Q440-13 352 23.50Q264 60 203.50 123.50Q143 187 111.50 273Q80 359 80 459Q80 629 171 747Q262 865 444 928Q398 955 357 983.50Q316 1012 285 1045Q254 1078 236 1117.50Q218 1157 218 1207Q218 1257 237.50 1300Q257 1343 298.50 1375Q340 1407 405 1425Q470 1443 561 1443Q595 1443 638.50 1440.50Q682 1438 727.50 1433Q773 1428 818.50 1421Q864 1414 903 1405L889 1297Z"  horiz-adv-x="1102" vert-adv-y="2000"  />

      
      <glyph glyph-name="uni03B5" unicode="&#x03B5;" d="M853 142Q820 101 778 72Q736 43 688.50 24Q641 5 590-4Q539-13 489-13Q406-13 333 8Q260 29 204.50 68.50Q149 108 117 164Q85 220 85 290Q85 377 137 438.50Q189 500 279 532Q232 550 199.50 576Q167 602 147 632Q127 662 117.50 694.50Q108 727 108 758Q108 811 132.50 860Q157 909 206 946.50Q255 984 328 1006.50Q401 1029 499 1029Q611 1029 692.50 996Q774 963 830 909L790 840Q779 824 770.50 819Q762 814 749 814Q736 814 718 826Q700 838 671.50 852Q643 866 601.50 878Q560 890 501 890Q445 890 404 878.50Q363 867 335.50 846.50Q308 826 294.50 799Q281 772 281 742Q281 709 297 681Q313 653 344 632.50Q375 612 419 600.50Q463 589 519 589L683 589L683 471L519 471Q391 471 328.50 425.50Q266 380 266 305Q266 266 282 233Q298 200 328.50 175.50Q359 151 402 137.50Q445 124 499 124Q565 124 609 139.50Q653 155 682.50 174Q712 193 731.50 208.50Q751 224 769 224Q791 224 803 207L853 142Z"  horiz-adv-x="907" vert-adv-y="2000"  />

      
      <glyph glyph-name="uni03B6" unicode="&#x03B6;" d="M805 1357Q807 1348 804.50 1336.50Q802 1325 790.50 1308.50Q779 1292 757.50 1268.50Q736 1245 700 1210Q654 1166 602.50 1116Q551 1066 501.50 1010.50Q452 955 407 893.50Q362 832 328 766.50Q294 701 274 630.50Q254 560 254 486Q254 418 272 370.50Q290 323 324.50 288.50Q359 254 409.50 230.50Q460 207 525 187Q619 159 676.50 128.50Q734 98 765.50 65Q797 32 808-3.50Q819-39 819-78Q819-145 796.50-207Q774-269 736-331L598-276Q617-244 635-201.50Q653-159 653-115Q653-96 646-76Q639-56 616.50-36.50Q594-17 551.50 2.50Q509 22 439 42Q353 67 287 101Q221 135 175 183Q129 231 105.50 296Q82 361 82 449Q82 566 122 673.50Q162 781 232.50 885Q303 989 399.50 1092Q496 1195 609 1303Q543 1295 470 1290.50Q397 1286 321 1286L209 1286Q169 1286 152.50 1305.50Q136 1325 136 1345L136 1433L789 1433L805 1357Z"  horiz-adv-x="784" vert-adv-y="2000"  />

      
      <glyph glyph-name="uni03B7" unicode="&#x03B7;" d="M18 961Q18 984 39.50 1003Q61 1022 114 1022Q196 1022 257 983Q318 944 341 861Q410 936 499 982.50Q588 1029 697 1029Q781 1029 844 1001.50Q907 974 950 923.50Q993 873 1014.50 802Q1036 731 1036 645L1036-343L858-343L858 645Q858 760 805.50 823.50Q753 887 645 887Q566 887 497.50 849Q429 811 371 746L371 0L193 0L193 738Q193 816 160 852.50Q127 889 61 889L18 889L18 961Z"  horiz-adv-x="1167" vert-adv-y="2000"  />

      
      <glyph glyph-name="uni03B8" unicode="&#x03B8;" d="M288 666Q294 390 373.50 258Q453 126 598 126Q742 126 821.50 258Q901 390 907 666L288 666M907 790Q897 1055 818 1182.50Q739 1310 598 1310Q456 1310 377 1182.50Q298 1055 288 790L907 790M598 1449Q709 1449 798.50 1401.50Q888 1354 951 1262Q1014 1170 1047.50 1033Q1081 896 1081 718Q1081 538 1047.50 401.50Q1014 265 951 172.50Q888 80 798.50 33Q709-14 598-14Q486-14 396.50 33Q307 80 244 172.50Q181 265 147 401.50Q113 538 113 718Q113 896 147 1033Q181 1170 244 1262Q307 1354 396.50 1401.50Q486 1449 598 1449Z"  horiz-adv-x="1194" vert-adv-y="2000"  />

      
      <glyph glyph-name="uni03B9" unicode="&#x03B9;" d="M134 1013L312 1013L312 277Q312 201 345 161.50Q378 122 451 122L533 122L533 66Q533 47 521 32.50Q509 18 488.50 8Q468-2 441-7Q414-12 383-12Q322-12 275.50 8Q229 28 197.50 65Q166 102 150 153.50Q134 205 134 267L134 1013Z"  horiz-adv-x="530" vert-adv-y="2000"  />

      
      <glyph glyph-name="uni03BB" unicode="&#x03BB;" d="M1081 123L1081 51Q1081 13 1058 1.50Q1035-10 990-10Q950-10 911.50-2.50Q873 5 838.50 26Q804 47 775 84Q746 121 725 180L543 649Q535 671 530.50 690Q526 709 523 726Q518 708 512.50 690Q507 672 499 652L251 37Q245 23 231.50 11.50Q218 0 195 0L44 0L437 927L336 1206Q325 1236 312 1256.50Q299 1277 281 1289.50Q263 1302 238 1307.50Q213 1313 178 1313L106 1313L106 1379Q106 1393 111 1405Q116 1417 128.50 1426Q141 1435 163 1440.50Q185 1446 219 1446Q262 1446 302 1438Q342 1430 377 1410.50Q412 1391 440 1358Q468 1325 486 1275L878 234Q900 175 931.50 149Q963 123 1020 123L1081 123Z"  horiz-adv-x="1078" vert-adv-y="2000"  />

      
      <glyph glyph-name="uni03BC" unicode="&#x03BC;" d="M1189 124L1189 52Q1189 29 1157.50 9.50Q1126-10 1069-10Q1027-10 988.50 2Q950 14 918.50 39.50Q887 65 864 103.50Q841 142 831 195Q771 105 694 55.50Q617 6 521 6Q446 6 390.50 30Q335 54 297 99Q304 57 306.50 14.50Q309-28 309-64L309-343L220-343Q182-343 161.50-323Q141-303 141-267L141 1013L319 1013L319 400Q319 286 372 219.50Q425 153 532 153Q623 153 691.50 202Q760 251 806 340L806 1013L985 1013L985 274Q985 196 1025 160Q1065 124 1131 124L1189 124Z"  horiz-adv-x="1195" vert-adv-y="2000"  />

      
      <glyph glyph-name="uni03BD" unicode="&#x03BD;" d="M996 1013Q932 729 817 472.50Q702 216 545 0L435 0L22 1013L168 1013Q189 1013 203.50 1002Q218 991 223 976L480 324Q492 289 500.50 255.50Q509 222 516 189Q568 268 610 360.50Q652 453 685.50 552Q719 651 745 753.50Q771 856 792 957Q797 988 812 1000.50Q827 1013 847 1013L996 1013Z"  horiz-adv-x="1027" vert-adv-y="2000"  />

      
      <glyph glyph-name="uni03BE" unicode="&#x03BE;" d="M767 1358Q767 1326 745 1307Q723 1288 697 1288L609 1288Q541 1288 485.50 1267.50Q430 1247 390.50 1212Q351 1177 329 1129Q307 1081 307 1026Q307 932 380.50 881Q454 830 594 830L682 830L682 688L551 688Q476 688 421 670Q366 652 330 620Q294 588 276.50 543Q259 498 259 443Q259 387 279 346Q299 305 339 273.50Q379 242 437.50 215.50Q496 189 574 162Q639 139 681.50 114.50Q724 90 748.50 62Q773 34 783 1.50Q793-31 793-69Q793-141 770.50-204.50Q748-268 710-331L571-275Q591-243 609-200.50Q627-158 627-115Q627-94 621.50-75Q616-56 599.50-39.50Q583-23 553.50-8Q524 7 477 21Q400 43 328.50 75Q257 107 202 154Q147 201 114.50 267.50Q82 334 82 427Q82 475 94 525Q106 575 134 621Q162 667 207 705.50Q252 744 317 769Q230 804 186 866.50Q142 929 142 1014Q142 1062 158.50 1104.50Q175 1147 203.50 1182.50Q232 1218 270.50 1246.50Q309 1275 354 1297Q340 1296 325 1296Q310 1296 294 1296L164 1296Q125 1296 108 1314.50Q91 1333 91 1365L91 1433L767 1433L767 1358Z"  horiz-adv-x="788" vert-adv-y="2000"  />

      
      <glyph glyph-name="uni03C0" unicode="&#x03C0;" d="M1167 919Q1167 895 1152.50 878.50Q1138 862 1109 862L962 862Q961 805 960 756Q959 707 959 657Q959 538 963 452.50Q967 367 974.50 308Q982 249 994 213Q1006 177 1022 158Q1038 139 1058 132.50Q1078 126 1103 126L1141 126L1141 54Q1141 25 1107.50 9.50Q1074-6 1023-6Q964-6 919.50 14Q875 34 846 76Q817 118 802.50 184.50Q788 251 788 344Q788 389 792 441.50Q796 494 801 557Q806 620 811 695.50Q816 771 819 862L449 862Q446 690 434 558Q422 426 403 329.50Q384 233 358.50 168Q333 103 302.50 64Q272 25 236 8.50Q200-8 161-8Q149-8 136-6Q123-4 111.50 0.50Q100 5 93 12Q86 19 86 28L86 149L106 149Q136 149 167 187.50Q198 226 224 310.50Q250 395 269 531Q288 667 293 862L74 862L74 937Q74 948 78.50 959.50Q83 971 92 981Q101 991 113.50 997Q126 1003 143 1003L1167 1003L1167 919Z"  horiz-adv-x="1231" vert-adv-y="2000"  />

      
      <glyph glyph-name="uni03C1" unicode="&#x03C1;" d="M306 264Q357 191 424.50 157.50Q492 124 564 124Q705 124 781 225Q857 326 857 513Q857 612 836.50 683Q816 754 779.50 799.50Q743 845 691.50 866Q640 887 578 887Q521 887 471.50 866.50Q422 846 385.50 806.50Q349 767 327.50 710Q306 653 306 580L306 264M128 580Q128 683 159 766Q190 849 248 907.50Q306 966 389.50 997.50Q473 1029 578 1029Q674 1029 758.50 995Q843 961 905.50 895Q968 829 1004.50 733Q1041 637 1041 513Q1041 401 1011 304.50Q981 208 925 137.50Q869 67 787.50 26.50Q706-14 604-14Q513-14 438 19.50Q363 53 306 112L306-343L128-343L128 580Z"  horiz-adv-x="1125" vert-adv-y="2000"  />

      
      <glyph glyph-name="uni03C3" unicode="&#x03C3;" d="M638 870Q539 870 468.50 845Q398 820 353 772Q308 724 287.50 653.50Q267 583 267 492Q267 312 344.50 218.50Q422 125 568 125Q719 125 792.50 222.50Q866 320 866 504Q866 570 855 630Q844 690 822.50 738.50Q801 787 767.50 821Q734 855 689 870L638 870M1187 1008L1187 924Q1187 915 1183 905.50Q1179 896 1171.50 888Q1164 880 1153 875Q1142 870 1128 870L887 870Q964 814 1006.50 721Q1049 628 1049 497Q1049 384 1016 290.50Q983 197 921 129Q859 61 770 23.50Q681-14 569-14Q460-14 370.50 20.50Q281 55 217.50 121Q154 187 119 281.50Q84 376 84 496Q84 615 120 710Q156 805 226.50 871Q297 937 400.50 972.50Q504 1008 638 1008L1187 1008Z"  horiz-adv-x="1196" vert-adv-y="2000"  />

      
      <glyph glyph-name="uni03C2" unicode="&#x03C2;" d="M845 833Q837 822 829 816Q821 810 807 810Q792 810 774 822.50Q756 835 729.50 850Q703 865 664.50 877.50Q626 890 570 890Q495 890 438 864Q381 838 342.50 792.50Q304 747 284.50 685.50Q265 624 265 553Q265 455 290.50 393Q316 331 364 289Q412 247 481.50 219Q551 191 639 162Q705 139 747 114Q789 89 814 61Q839 33 848.50 0.50Q858-32 858-69Q858-141 835.50-205Q813-269 775-331L636-276Q656-244 674.50-201.50Q693-159 693-116Q693-95 687-76Q681-57 664.50-40Q648-23 618.50-8Q589 7 542 21Q447 49 363.50 85Q280 121 217.50 178.50Q155 236 118.50 323.50Q82 411 82 543Q82 643 113.50 731.50Q145 820 205.50 886Q266 952 355 990.50Q444 1029 559 1029Q666 1029 747.50 994.50Q829 960 892 897L845 833Z"  horiz-adv-x="928" vert-adv-y="2000"  />

      
      <glyph glyph-name="uni03C4" unicode="&#x03C4;" d="M900 932Q900 901 883.50 884Q867 867 836 867L517 867L517 281Q517 205 550 165.50Q583 126 656 126L738 126L738 71Q738 52 726 37.50Q714 23 693.50 13Q673 3 646-2Q619-7 588-7Q527-7 480.50 13Q434 33 402.50 70Q371 107 355 158Q339 209 339 271L339 867L26 867L26 945Q26 968 41.50 985.50Q57 1003 87 1003L900 1003L900 932Z"  horiz-adv-x="934" vert-adv-y="2000"  />

      
      <glyph glyph-name="uni03C5" unicode="&#x03C5;" d="M939 1013Q950 950 960 892.50Q970 835 977.50 778.50Q985 722 989.50 664Q994 606 994 543Q994 397 956 291Q918 185 854.50 117Q791 49 708 16.50Q625-16 536-16Q440-16 365 10.50Q290 37 237.50 86.50Q185 136 157.50 207Q130 278 130 367L130 1013L309 1013L309 367Q309 310 326 265Q343 220 374.50 189.50Q406 159 449.50 142.50Q493 126 547 126Q596 126 645 146.50Q694 167 733 215.50Q772 264 796.50 344Q821 424 821 543Q821 646 802.50 747.50Q784 849 767 952Q764 985 781 999Q798 1013 817 1013L939 1013Z"  horiz-adv-x="1105" vert-adv-y="2000"  />

      
      <glyph glyph-name="uni03C6" unicode="&#x03C6;" d="M816 120Q914 121 988 151Q1062 181 1112 235.50Q1162 290 1187.50 366.50Q1213 443 1213 537Q1213 616 1191.50 681.50Q1170 747 1134.50 794.50Q1099 842 1052.50 868.50Q1006 895 956 895Q889 895 852.50 852.50Q816 810 816 714L816 120M649 714Q649 877 730 953Q811 1029 956 1029Q1053 1029 1133 991Q1213 953 1270.50 887Q1328 821 1360 731Q1392 641 1392 537Q1392 414 1351.50 312.50Q1311 211 1236 139Q1161 67 1054.50 27Q948-13 816-14L816-342L649-342L649-14Q518-13 412.50 27Q307 67 233.50 136.50Q160 206 120.50 300.50Q81 395 81 507Q81 597 106.50 676.50Q132 756 178.50 822Q225 888 290.50 938.50Q356 989 436 1022L481 950Q494 929 486 905.50Q478 882 462 875Q364 824 312 727.50Q260 631 260 506Q260 424 285 354Q310 284 359 232.50Q408 181 480.50 151Q553 121 649 120L649 714Z"  horiz-adv-x="1474" vert-adv-y="2000"  />

      
      <glyph glyph-name="uni03C7" unicode="&#x03C7;" d="M977-223L977-295Q977-314 973.50-326Q970-338 962-345Q954-352 939.50-354.50Q925-357 903-357Q862-357 825-349.50Q788-342 755-321Q722-300 692.50-263Q663-226 638-166L460 236Q455 205 447.50 176.50Q440 148 432 126L218-303Q213-317 200-328.50Q187-340 164-340L37-340L380 371L198 783Q184 813 170 833Q156 853 137 866Q118 879 93 884.50Q68 890 33 890L-2 890L-2 957Q-2 971-1 983Q0 995 6.50 1004Q13 1013 28.50 1018.50Q44 1024 74 1024Q175 1024 241 985Q307 946 348 852L518 467Q523 497 530.50 525Q538 553 546 575L740 976Q746 990 758.50 1001.50Q771 1013 794 1013L921 1013L596 334L795-113Q821-171 852.50-197Q884-223 941-223L977-223Z"  horiz-adv-x="957" vert-adv-y="2000"  />

      
      <glyph glyph-name="uni03C8" unicode="&#x03C8;" d="M1361 1013Q1373 950 1383.50 892.50Q1394 835 1401 778.50Q1408 722 1412 664Q1416 606 1416 543Q1416 394 1370 291.50Q1324 189 1247 124.50Q1170 60 1068 28Q966-4 854-12L854-342L676-342L676-14Q540-6 437 31Q334 68 265 130.50Q196 193 161 280Q126 367 126 476L126 1013L249 1013Q260 1013 270 1006Q280 999 287.50 988.50Q295 978 299.50 966Q304 954 304 943L304 476Q304 399 330 339Q356 279 404 235.50Q452 192 521 165.50Q590 139 676 130L676 1433L854 1433L854 130Q934 137 1004 161Q1074 185 1126 233Q1178 281 1208 357Q1238 433 1238 543Q1238 613 1231.50 668.50Q1225 724 1216.50 771.50Q1208 819 1199 862Q1190 905 1184 952Q1183 985 1199 999Q1215 1013 1234 1013L1361 1013Z"  horiz-adv-x="1527" vert-adv-y="2000"  />

      
      <glyph glyph-name="uni03C9" unicode="&#x03C9;" d="M1301 1013Q1361 896 1400.50 768Q1440 640 1440 502Q1440 382 1411 286.50Q1382 191 1330.50 123.50Q1279 56 1208 20Q1137-16 1054-16Q1000-16 955.50-3Q911 10 875 34Q839 58 811 91Q783 124 763 164Q743 124 714.50 91Q686 58 650 34Q614 10 570-3Q526-16 474-16Q391-16 320 20Q249 56 197.50 123.50Q146 191 117 286.50Q88 382 88 502Q88 640 127 768Q166 896 226 1013L353 1013Q362 1013 373.50 1008.50Q385 1004 392.50 994.50Q400 985 402 970Q404 955 395 933Q377 901 354.50 852.50Q332 804 312.50 746Q293 688 279.50 625Q266 562 266 502Q266 389 288.50 316Q311 243 344.50 201Q378 159 418.50 142.50Q459 126 495 126Q540 126 574 146.50Q608 167 630 204Q652 241 663 293Q674 345 674 408L674 677L853 677L853 408Q853 345 864 293Q875 241 897.50 204Q920 167 954 146.50Q988 126 1033 126Q1069 126 1109 142.50Q1149 159 1182.50 201Q1216 243 1238.50 316Q1261 389 1261 502Q1261 562 1247.50 625Q1234 688 1214.50 746Q1195 804 1172.50 852.50Q1150 901 1132 933Q1123 955 1125 970Q1127 985 1135 994.50Q1143 1004 1154.50 1008.50Q1166 1013 1175 1013L1301 1013Z"  horiz-adv-x="1527" vert-adv-y="2000"  />

      
      <glyph glyph-name="uni0384" unicode="&#x0384;" d="M345 1148L413 1493L524 1493Q551 1493 561 1475.50Q571 1458 561 1429L451 1148L345 1148Z"  horiz-adv-x="800" vert-adv-y="2000"  />

      
      <glyph glyph-name="uni0385" unicode="&#x0385;" d="M343 1154L411 1499L522 1499Q549 1499 558.50 1481.50Q568 1464 558 1435L449 1154L343 1154M788 1282Q788 1263 780.50 1246Q773 1229 760 1216.50Q747 1204 729.50 1196.50Q712 1189 693 1189Q673 1189 656 1196.50Q639 1204 626 1216.50Q613 1229 605.50 1246Q598 1263 598 1282Q598 1302 605.50 1319.50Q613 1337 626 1350.50Q639 1364 656 1371.50Q673 1379 693 1379Q712 1379 729.50 1371.50Q747 1364 760 1350.50Q773 1337 780.50 1319.50Q788 1302 788 1282M286 1282Q286 1263 278 1246Q270 1229 257 1216.50Q244 1204 226 1196.50Q208 1189 189 1189Q170 1189 153 1196.50Q136 1204 123.50 1216.50Q111 1229 103.50 1246Q96 1263 96 1282Q96 1302 103.50 1319.50Q111 1337 123.50 1350.50Q136 1364 153 1371.50Q170 1379 189 1379Q208 1379 226 1371.50Q244 1364 257 1350.50Q270 1337 278 1319.50Q286 1302 286 1282Z"  horiz-adv-x="800" vert-adv-y="2000"  />

      
      <glyph glyph-name="uni0374" unicode="&#x0374;" d="M310 1512Q337 1368 302 1229.50Q267 1091 160 975L105 1011Q89 1022 88 1036Q87 1050 95 1061Q121 1097 141 1132Q161 1167 170.50 1203.50Q180 1240 176 1278.50Q172 1317 150 1359L150 1463Q150 1484 161.50 1498Q173 1512 199 1512L310 1512Z"  horiz-adv-x="425" vert-adv-y="2000"  />

      
      <glyph glyph-name="uni0375" unicode="&#x0375;" d="M310 329Q337 185 302 46.50Q267-92 160-208L105-172Q89-161 88-147Q87-133 95-122Q121-86 141-51Q161-16 170.50 20.50Q180 57 176 95.50Q172 134 150 176L150 280Q150 301 161.50 315Q173 329 199 329L310 329Z"  horiz-adv-x="425" vert-adv-y="2000"  />

      
      <glyph glyph-name="uni0411" unicode="&#x0411;" d="M654 154Q737 154 796.50 173Q856 192 893.50 225.50Q931 259 948.50 306.50Q966 354 966 411Q966 471 948.50 517.50Q931 564 893.50 596.50Q856 629 797 645.50Q738 662 655 662L376 662L376 154L654 154M655 816Q786 816 881 787.50Q976 759 1037.50 707.50Q1099 656 1128.50 585Q1158 514 1158 430Q1158 331 1124.50 251.50Q1091 172 1026.50 116Q962 60 868 30Q774 0 654 0L183 0L183 1433L1109 1433L1109 1280L376 1280L376 816L655 816Z"  horiz-adv-x="1240" vert-adv-y="2000"  />

      
      <glyph glyph-name="uni0413" unicode="&#x0413;" d="M1046 1280L377 1280L377 0L183 0L183 1433L1046 1433L1046 1280Z"  horiz-adv-x="1076" vert-adv-y="2000"  />

      
      <glyph glyph-name="uni0490" unicode="&#x0490;" d="M1046 1280L377 1280L377 0L183 0L183 1433L895 1433L895 1756L1046 1756L1046 1280Z"  horiz-adv-x="1076" vert-adv-y="2000"  />

      
      <glyph glyph-name="uni0414" unicode="&#x0414;" d="M1095 152L1095 1280L621 1280Q609 1035 587 850Q565 665 535 529Q505 393 468 301.50Q431 210 388 152L1095 152M1524 152L1524-291Q1524-317 1507-333Q1490-349 1462-349L1347-349L1347 0L192 0L192-291Q192-317 174.50-333Q157-349 130-349L14-349L14 152L160 152Q191 167 222 200.50Q253 234 281.50 296.50Q310 359 335 454Q360 549 380.50 686.50Q401 824 416 1008Q431 1192 439 1433L1290 1433L1290 152L1524 152Z"  horiz-adv-x="1572" vert-adv-y="2000"  />

      
      <glyph glyph-name="uni0416" unicode="&#x0416;" d="M2060 0L1931 0Q1889 0 1858 18.50Q1827 37 1808 69L1445 577Q1418 619 1383.50 637.50Q1349 656 1296 656L1130 656L1130 0L947 0L947 656L782 656Q728 656 693.50 637.50Q659 619 632 577L269 69Q251 37 220 18.50Q189 0 147 0L17 0L443 621Q475 673 512.50 704Q550 735 599 750Q556 764 526 791Q496 818 468 860L51 1433L202 1433Q233 1433 258.50 1417.50Q284 1402 300 1375L659 878Q690 834 724.50 819.50Q759 805 805 805L947 805L947 1433L1130 1433L1130 805L1273 805Q1318 805 1352 819.50Q1386 834 1418 878L1777 1375Q1793 1402 1819 1417.50Q1845 1433 1875 1433L2027 1433L1609 860Q1581 818 1551 791Q1521 764 1479 750Q1527 734 1565 703.50Q1603 673 1635 621L2060 0Z"  horiz-adv-x="2077" vert-adv-y="2000"  />

      
      <glyph glyph-name="uni0417" unicode="&#x0417;" d="M100 1299Q181 1371 288 1409Q395 1447 531 1447Q642 1447 730.50 1420Q819 1393 881 1344Q943 1295 976.50 1228Q1010 1161 1010 1081Q1010 973 956.50 891Q903 809 806 764Q861 741 906 707.50Q951 674 983.50 632Q1016 590 1033.50 540Q1051 490 1051 435Q1051 341 1016 259Q981 177 914.50 116.50Q848 56 751 21Q654-14 530-14Q376-14 253 36.50Q130 87 42 173L98 265Q106 276 118 283.50Q130 291 144 291Q165 291 194 268.50Q223 246 268 219Q313 192 377.50 169.50Q442 147 535 147Q614 147 676.50 166Q739 185 781.50 221Q824 257 846.50 309Q869 361 869 426Q869 482 847.50 529Q826 576 785 609.50Q744 643 685 661.50Q626 680 552 680L356 680L356 839L544 839Q605 839 657.50 854Q710 869 747.50 898Q785 927 806.50 969Q828 1011 828 1065Q828 1114 808 1155Q788 1196 750 1225.50Q712 1255 657 1271Q602 1287 532 1287Q451 1287 394 1270Q337 1253 298 1232.50Q259 1212 234.50 1195Q210 1178 192 1178Q176 1178 166 1185Q156 1192 147 1208L100 1299Z"  horiz-adv-x="1151" vert-adv-y="2000"  />

      
      <glyph glyph-name="uni0418" unicode="&#x0418;" d="M1344 1433L1344 0L1150 0L1150 1018Q1150 1061 1152 1107.50Q1154 1154 1161 1206Q1144 1161 1125 1122Q1106 1083 1086 1054L414 61Q400 38 378 19Q356 0 327 0L183 0L183 1433L377 1433L377 414Q377 371 375 324.50Q373 278 366 225Q383 271 402.50 310Q422 349 441 379L1113 1372Q1127 1395 1149 1414Q1171 1433 1200 1433L1344 1433Z"  horiz-adv-x="1527" vert-adv-y="2000"  />

      
      <glyph glyph-name="uni041A" unicode="&#x041A;" d="M1327 0L1153 0Q1124 0 1103.50 15.50Q1083 31 1065 61L686 586Q660 625 630 640.50Q600 656 548 656L376 656L376 0L183 0L183 1433L376 1433L376 805L525 805Q570 805 601.50 819Q633 833 664 874L1039 1378Q1054 1402 1075.50 1417.50Q1097 1433 1126 1433L1289 1433L856 844Q807 775 730 749Q783 735 819.50 704.50Q856 674 889 620L1327 0Z"  horiz-adv-x="1341" vert-adv-y="2000"  />

      
      <glyph glyph-name="uni041B" unicode="&#x041B;" d="M1268 0L1074 0L1074 1280L600 1280Q586 1004 562.50 801Q539 598 505.50 454Q472 310 429.50 219.50Q387 129 336.50 77Q286 25 228 6Q170-13 105-13Q51-13 22-3.50Q-7 6-7 25L-7 148L63 148Q103 148 142 163.50Q181 179 217 226Q253 273 285 360Q317 447 343 590Q369 733 388 939.50Q407 1146 417 1433L1268 1433L1268 0Z"  horiz-adv-x="1451" vert-adv-y="2000"  />

      
      <glyph glyph-name="uni0409" unicode="&#x0409;" d="M1546 154Q1629 154 1688 173Q1747 192 1785 225.50Q1823 259 1840.50 306.50Q1858 354 1858 411Q1858 471 1840.50 517.50Q1823 564 1785.50 596.50Q1748 629 1689 645.50Q1630 662 1547 662L1268 662L1268 154L1546 154M1547 816Q1678 816 1772.50 787.50Q1867 759 1928.50 707.50Q1990 656 2019.50 585Q2049 514 2049 430Q2049 331 2015.50 251.50Q1982 172 1918 116Q1854 60 1760 30Q1666 0 1546 0L1074 0L1074 1280L600 1280Q586 1004 562.50 801Q539 598 505.50 454Q472 310 429.50 219.50Q387 129 336.50 77Q286 25 228 6Q170-13 105-13Q51-13 22-3.50Q-7 6-7 25L-7 148L63 148Q103 148 142 163.50Q181 179 217 226Q253 273 285 360Q317 447 343 590Q369 733 388 939.50Q407 1146 417 1433L1268 1433L1268 816L1547 816Z"  horiz-adv-x="2108" vert-adv-y="2000"  />

      
      <glyph glyph-name="uni040A" unicode="&#x040A;" d="M1622 154Q1705 154 1764.50 173Q1824 192 1861.50 225.50Q1899 259 1916.50 306.50Q1934 354 1934 411Q1934 471 1916.50 517.50Q1899 564 1861.50 596.50Q1824 629 1765 645.50Q1706 662 1623 662L1344 662L1344 154L1622 154M1623 816Q1754 816 1849 787.50Q1944 759 2005.50 707.50Q2067 656 2096.50 585Q2126 514 2126 430Q2126 331 2092.50 251.50Q2059 172 1994.50 116Q1930 60 1836 30Q1742 0 1622 0L1150 0L1150 652L377 652L377 0L183 0L183 1433L377 1433L377 794L1150 794L1150 1433L1344 1433L1344 816L1623 816Z"  horiz-adv-x="2184" vert-adv-y="2000"  />

      
      <glyph glyph-name="uni0472" unicode="&#x0472;" d="M294 656Q302 537 341.50 444Q381 351 447 286Q513 221 602.50 187Q692 153 800 153Q909 153 998.50 187Q1088 221 1153.50 286Q1219 351 1258.50 444Q1298 537 1306 656L294 656M1304 803Q1292 915 1252 1004Q1212 1093 1146.50 1154.50Q1081 1216 993.50 1248.50Q906 1281 800 1281Q695 1281 607 1248.50Q519 1216 454 1154.50Q389 1093 348.50 1004Q308 915 296 803L1304 803M800 1449Q958 1449 1088.50 1395Q1219 1341 1312 1243.50Q1405 1146 1456 1011.50Q1507 877 1507 716Q1507 555 1456 420.50Q1405 286 1312 189Q1219 92 1088.50 38.50Q958-15 800-15Q642-15 512 38.50Q382 92 289 189Q196 286 145 420.50Q94 555 94 716Q94 877 145 1011.50Q196 1146 289 1243.50Q382 1341 512 1395Q642 1449 800 1449Z"  horiz-adv-x="1601" vert-adv-y="2000"  />

      
      <glyph glyph-name="uni041F" unicode="&#x041F;" d="M1288 0L1093 0L1093 1280L377 1280L377 0L183 0L183 1433L1288 1433L1288 0Z"  horiz-adv-x="1471" vert-adv-y="2000"  />

      
      <glyph glyph-name="uni0423" unicode="&#x0423;" d="M1251 1433L669 187Q642 128 610.50 89.50Q579 51 543 28.50Q507 6 465-3.50Q423-13 375-13Q321-13 292-3.50Q263 6 263 25L263 148L333 148Q358 148 383 153.50Q408 159 431 173Q454 187 475 210.50Q496 234 513 270L583 416L7 1433L188 1433Q214 1433 229 1420.50Q244 1408 255 1388L609 738Q646 667 669 594Q680 630 693.50 666Q707 702 724 738L1025 1388Q1033 1405 1049.50 1419Q1066 1433 1091 1433L1251 1433Z"  horiz-adv-x="1251" vert-adv-y="2000"  />

      
      <glyph glyph-name="uni0474" unicode="&#x0474;" d="M1018 1247Q1050 1344 1116 1391.50Q1182 1439 1279 1439Q1332 1439 1353 1430Q1374 1421 1374 1401L1374 1280L1320 1280Q1276 1280 1242.50 1253.50Q1209 1227 1189 1174L761 0L587 0L3 1433L158 1433Q184 1433 200 1420Q216 1407 224 1387L629 376Q642 342 654 302.50Q666 263 677 220Q686 263 697 302.50Q708 342 721 376L1018 1247Z"  horiz-adv-x="1396" vert-adv-y="2000"  />

      
      <glyph glyph-name="uni0424" unicode="&#x0424;" d="M875 326Q970 327 1047.50 361Q1125 395 1180 453Q1235 511 1265 588Q1295 665 1295 753Q1295 840 1265 917Q1235 994 1180 1051.50Q1125 1109 1047.50 1143Q970 1177 875 1179L875 326M691 1179Q596 1178 518.50 1144Q441 1110 386 1052Q331 994 301 917Q271 840 271 753Q271 665 301 588Q331 511 386 453Q441 395 518.50 361Q596 327 691 326L691 1179M875 1330Q1012 1327 1125 1280.50Q1238 1234 1318.50 1155.50Q1399 1077 1443.50 973.50Q1488 870 1488 753Q1488 635 1443.50 531Q1399 427 1318.50 348.50Q1238 270 1125 223Q1012 176 875 173L875 0L691 0L691 173Q553 176 440 223Q327 270 246.50 348.50Q166 427 121.50 531Q77 635 77 753Q77 870 122 973.50Q167 1077 248 1155.50Q329 1234 442 1280.50Q555 1327 691 1330L691 1498L875 1498L875 1330Z"  horiz-adv-x="1565" vert-adv-y="2000"  />

      
      <glyph glyph-name="uni0426" unicode="&#x0426;" d="M1507 152L1507-291Q1507-317 1489.50-333Q1472-349 1445-349L1329-349L1329 0L183 0L183 1433L377 1433L377 152L1093 152L1093 1433L1288 1433L1288 152L1507 152Z"  horiz-adv-x="1560" vert-adv-y="2000"  />

      
      <glyph glyph-name="uni040F" unicode="&#x040F;" d="M1288 1433L1288 0L824 0L824-291Q824-317 806.50-333Q789-349 762-349L646-349L646 0L183 0L183 1433L377 1433L377 152L1093 152L1093 1433L1288 1433Z"  horiz-adv-x="1471" vert-adv-y="2000"  />

      
      <glyph glyph-name="uni0427" unicode="&#x0427;" d="M1140 1433L1140 0L945 0L945 620Q831 590 723 572.50Q615 555 520.50 556Q426 557 347 579Q268 601 211.50 649.50Q155 698 123.50 775.50Q92 853 92 965L92 1433L286 1433L286 964Q286 865 326 804Q366 743 448 719Q530 695 653.50 706Q777 717 945 761L945 1433L1140 1433Z"  horiz-adv-x="1322" vert-adv-y="2000"  />

      
      <glyph glyph-name="uni0428" unicode="&#x0428;" d="M1970 1433L1970 0L183 0L183 1433L377 1433L377 152L977 152L977 1433L1171 1433L1171 152L1775 152L1775 1433L1970 1433Z"  horiz-adv-x="2153" vert-adv-y="2000"  />

      
      <glyph glyph-name="uni0429" unicode="&#x0429;" d="M2189 152L2189-291Q2189-317 2171.50-333Q2154-349 2127-349L2011-349L2011 0L183 0L183 1433L377 1433L377 152L977 152L977 1433L1171 1433L1171 152L1775 152L1775 1433L1970 1433L1970 152L2189 152Z"  horiz-adv-x="2242" vert-adv-y="2000"  />

      
      <glyph glyph-name="uni042A" unicode="&#x042A;" d="M912 154Q995 154 1054.50 173Q1114 192 1151.50 225.50Q1189 259 1206.50 306.50Q1224 354 1224 411Q1224 471 1206.50 517.50Q1189 564 1151.50 596.50Q1114 629 1055 645.50Q996 662 913 662L634 662L634 154L912 154M913 816Q1044 816 1139 787.50Q1234 759 1295.50 707.50Q1357 656 1386.50 585Q1416 514 1416 430Q1416 331 1382.50 251.50Q1349 172 1284.50 116Q1220 60 1126 30Q1032 0 912 0L441 0L441 1275L29 1275L29 1433L634 1433L634 816L913 816Z"  horiz-adv-x="1474" vert-adv-y="2000"  />

      
      <glyph glyph-name="uni042B" unicode="&#x042B;" d="M654 154Q737 154 796.50 173Q856 192 893.50 225.50Q931 259 948.50 306.50Q966 354 966 411Q966 471 948.50 517.50Q931 564 893.50 596.50Q856 629 797 645.50Q738 662 655 662L376 662L376 154L654 154M655 816Q786 816 881 787.50Q976 759 1037.50 707.50Q1099 656 1128.50 585Q1158 514 1158 430Q1158 331 1124.50 251.50Q1091 172 1026.50 116Q962 60 868 30Q774 0 654 0L183 0L183 1433L376 1433L376 816L655 816M1615 0L1421 0L1421 1433L1615 1433L1615 0Z"  horiz-adv-x="1799" vert-adv-y="2000"  />

      
      </font>
</defs>
</svg>
