<?xml version="1.0" standalone="no"?>
  <!DOCTYPE svg PUBLIC "-//W3C//DTD SVG 1.1//EN" "http://www.w3.org/Graphics/SVG/1.1/DTD/svg11.dtd" >
  <svg>
  <metadata>
  Created by font-carrier
  </metadata>
  <defs>
  <font id="MyriadPro-SemiboldSemiExtIt" horiz-adv-x="1278" vert-adv-y="1278" >
    <font-face
      
      font-family="Myriad Pro Light SemiExt"
      
      font-weight="400"
      
      font-stretch="normal"
      
      units-per-em="1000"
      
      ascent="750"
      
      descent="-250"
      
    />
      <missing-glyph />

      

      
      <glyph glyph-name="uni21" unicode="&#x21;" d="M172 210L80 210L149 674L281 674L172 210M93-12L92-12Q61-12 40.50 9Q20 30 20 61Q20 99 44 124.50Q68 150 106 150Q138 150 159 129Q180 108 180 74Q180 37 156 12.50Q132-12 93-12Z"  horiz-adv-x="265" vert-adv-y="1000"  />

      
      <glyph glyph-name="uni22" unicode="&#x22;" d="M122 695L242 695L170 429L91 429L122 695M302 695L422 695L350 429L271 429L302 695Z"  horiz-adv-x="369" vert-adv-y="1000"  />

      
      <glyph glyph-name="uni23" unicode="&#x23;" d="M224 263L318 263L358 390L265 390L224 263M141 0L61 0L119 183L32 183L45 263L145 263L186 390L96 390L109 470L211 470L268 650L346 650L289 470L383 470L441 650L519 650L462 470L548 470L535 390L437 390L397 263L485 263L472 183L370 183L313 0L233 0L291 183L198 183L141 0Z"  horiz-adv-x="555" vert-adv-y="1000"  />

      
      <glyph glyph-name="uni24" unicode="&#x24;" d="M254-87L170-87L188 9Q145 10 99 27Q53 44 27 65L68 158Q138 104 233 104Q284 104 319 127.50Q354 151 354 191Q354 245 261 285Q106 351 106 453Q106 529 164 581.50Q222 634 311 641L329 734L414 734L396 641Q478 637 529 602L488 512Q420 550 345 550Q297 550 268.50 527.50Q240 505 240 472Q240 446 263.50 426Q287 406 349 378Q489 317 489 209Q489 123 427.50 71Q366 19 273 9L254-87Z"  horiz-adv-x="555" vert-adv-y="1000"  />

      
      <glyph glyph-name="uni25" unicode="&#x25;" d="M282 662L283 662Q348 662 386.50 620.50Q425 579 425 515Q425 406 365.50 333.50Q306 261 216 261Q151 261 110.50 302.50Q70 344 70 416Q70 516 129.50 589Q189 662 282 662M269 589L268 589Q225 589 196 534Q167 479 167 414Q167 379 182 356Q197 333 228 333Q272 333 300 389Q328 445 328 511Q328 544 314 566.50Q300 589 269 589M247-12L169-12L661 661L738 661L247-12M698 392L699 392Q764 392 802.50 350.50Q841 309 841 245Q841 136 781.50 63.50Q722-9 632-9Q567-9 526.50 32.50Q486 74 486 146Q486 247 545.50 319.50Q605 392 698 392M685 320L684 320Q641 320 612 265Q583 210 583 145Q583 110 598 87Q613 64 644 64Q688 64 716 120Q744 176 744 241Q744 275 730 297.50Q716 320 685 320Z"  horiz-adv-x="881" vert-adv-y="1000"  />

      
      <glyph glyph-name="uni26" unicode="&#x26;" d="M617 0L470 0Q462 8 454.50 17Q447 26 438.50 37Q430 48 425 54Q343-12 229-12Q133-12 75.50 37Q18 86 18 167Q18 239 66 291.50Q114 344 188 376L189 379Q150 442 150 496Q150 576 207.50 631Q265 686 355 686Q428 686 473.50 646Q519 606 519 539Q519 428 346 353L346 350Q372 308 457 199Q520 268 562 385L677 385Q643 296 606.50 234Q570 172 516 122Q566 54 617 0M263 81L264 81Q325 81 373 125Q285 235 233 313Q206 294 192.50 283.50Q179 273 161 245.50Q143 218 143 188Q143 142 174.50 111.50Q206 81 263 81M344 605L343 605Q308 605 284 578Q260 551 260 509Q260 463 294 415Q409 462 409 537Q409 565 392.50 585Q376 605 344 605Z"  horiz-adv-x="672" vert-adv-y="1000"  />

      
      <glyph glyph-name="uni27" unicode="&#x27;" d="M126 695L246 695L174 429L95 429L126 695Z"  horiz-adv-x="198" vert-adv-y="1000"  />

      
      <glyph glyph-name="uni28" unicode="&#x28;" d="M274 689L368 689Q169 443 169 154Q169 17 218-117L129-117Q69 9 69 152Q69 317 126.50 453.50Q184 590 274 689Z"  horiz-adv-x="316" vert-adv-y="1000"  />

      
      <glyph glyph-name="uni29" unicode="&#x29;" d="M62-117L-32-117Q167 131 167 419Q167 557 118 689L207 689Q267 563 267 421Q267 256 209.50 119.50Q152-17 62-117Z"  horiz-adv-x="316" vert-adv-y="1000"  />

      
      <glyph glyph-name="uni2a" unicode="&#x2a;" d="M357 686L428 642L307 513L308 511L474 538L456 450L302 474L302 471L392 346L309 301L266 452L264 452L184 301L115 346L234 472L234 474L71 450L88 538L238 511L238 513L150 641L233 686L277 535L279 535L357 686Z"  horiz-adv-x="456" vert-adv-y="1000"  />

      
      <glyph glyph-name="uni2b" unicode="&#x2b;" d="M259 532L343 532L343 307L552 307L552 227L343 227L343 0L259 0L259 227L50 227L50 307L259 307L259 532Z"  horiz-adv-x="596" vert-adv-y="1000"  />

      
      <glyph glyph-name="uni2c" unicode="&#x2c;" d="M40-112L-49-120Q23 22 58 148L194 158Q123-2 40-112Z"  horiz-adv-x="247" vert-adv-y="1000"  />

      
      <glyph glyph-name="uni2d" unicode="&#x2d;" d="M47 309L311 309L294 222L30 222L47 309Z"  horiz-adv-x="331" vert-adv-y="1000"  />

      
      <glyph glyph-name="uniad" unicode="&#xad;" d="M47 309L311 309L294 222L30 222L47 309Z"  horiz-adv-x="331" vert-adv-y="1000"  />

      
      <glyph glyph-name="uni2e" unicode="&#x2e;" d="M93-11L92-11Q61-11 40.50 10Q20 31 20 62Q20 100 44 125.50Q68 151 106 151Q138 151 159 130Q180 109 180 75Q180 38 156 13.50Q132-11 93-11Z"  horiz-adv-x="247" vert-adv-y="1000"  />

      
      <glyph glyph-name="uni2f" unicode="&#x2f;" d="M49-40L-40-40L335 686L425 686L49-40Z"  horiz-adv-x="341" vert-adv-y="1000"  />

      
      <glyph glyph-name="uni30" unicode="&#x30;" d="M237-12L236-12Q139-12 91.50 52Q44 116 44 227Q44 336 80 434Q116 532 189 597Q262 662 356 662Q452 662 498.50 599.50Q545 537 545 439Q545 327 510.50 225.50Q476 124 403.50 56Q331-12 237-12M249 83L250 83Q304 83 346 148Q388 213 406 290Q424 367 424 430Q424 567 341 567Q291 567 249 508Q207 449 186 371Q165 293 165 224Q165 83 249 83Z"  horiz-adv-x="555" vert-adv-y="1000"  />

      
      <glyph glyph-name="uni31" unicode="&#x31;" d="M199 0L300 534L298 534L175 478L167 573L339 650L438 650L315 0L199 0Z"  horiz-adv-x="555" vert-adv-y="1000"  />

      
      <glyph glyph-name="uni32" unicode="&#x32;" d="M454 0L0 0L15 78L153 179Q292 287 347.50 347.50Q403 408 403 470Q403 507 377.50 533Q352 559 303 559Q220 559 150 512L120 598Q161 627 217.50 644.50Q274 662 329 662Q424 662 477 612.50Q530 563 530 486Q530 396 466.50 321.50Q403 247 274 153L205 105L205 103L473 103L454 0Z"  horiz-adv-x="555" vert-adv-y="1000"  />

      
      <glyph glyph-name="uni33" unicode="&#x33;" d="M13 39L53 132Q124 90 207 90Q278 90 317 123.50Q356 157 356 202Q356 300 210 300L177 300L195 393L228 393Q287 393 337.50 419.50Q388 446 388 494Q388 525 366 543Q344 561 299 561Q212 561 150 522L125 611Q212 662 316 662Q402 662 459.50 622Q517 582 517 511Q517 452 474 409Q431 366 365 350L364 348Q420 338 452.50 297.50Q485 257 485 201Q485 106 401 47Q317-12 203-12Q140-12 87.50 3Q35 18 13 39Z"  horiz-adv-x="555" vert-adv-y="1000"  />

      
      <glyph glyph-name="uni34" unicode="&#x34;" d="M396 0L280 0L312 167L11 167L27 248L368 650L519 650L445 261L532 261L514 167L428 167L396 0M156 261L329 261L367 444Q371 463 380.50 501Q390 539 394 556L390 556Q331 469 309 440L156 263L156 261Z"  horiz-adv-x="555" vert-adv-y="1000"  />

      
      <glyph glyph-name="uni35" unicode="&#x35;" d="M546 650L525 547L275 547L236 422Q249 424 272 424Q350 424 405 393Q446 371 468.50 330Q491 289 491 242Q491 123 404 55.50Q317-12 193-12Q135-12 86 1Q37 14 16 32L50 127Q109 90 198 90Q262 90 312.50 126.50Q363 163 363 219Q363 330 189 330Q176 330 101 325L195 650L546 650Z"  horiz-adv-x="555" vert-adv-y="1000"  />

      
      <glyph glyph-name="uni36" unicode="&#x36;" d="M524 660L506 560Q472 562 439 557Q346 546 279 494.50Q212 443 184 369L186 368Q250 437 344 437Q423 437 472.50 385Q522 333 522 248Q522 144 445.50 66Q369-12 256-12Q151-12 93.50 51Q36 114 36 218Q36 323 83 416Q130 509 202 564Q311 648 460 658Q495 662 524 660M261 84L262 84Q319 84 357 130Q395 176 395 235Q395 287 367.50 315.50Q340 344 293 344Q256 344 223.50 323.50Q191 303 170 269Q158 250 158 233Q156 219 156 206Q156 151 184 117.50Q212 84 261 84Z"  horiz-adv-x="555" vert-adv-y="1000"  />

      
      <glyph glyph-name="uni37" unicode="&#x37;" d="M131 650L580 650L564 568Q491 460 357 263Q223 66 178 0L41 0Q386 491 424 545L423 547L111 547L131 650Z"  horiz-adv-x="555" vert-adv-y="1000"  />

      
      <glyph glyph-name="uni38" unicode="&#x38;" d="M343 662L344 662Q425 662 480.50 621Q536 580 536 505Q536 401 412 348L412 345Q460 321 485 281Q510 241 510 197Q510 98 430.50 43Q351-12 246-12Q143-11 83 35.50Q23 82 23 156Q23 222 64.50 270Q106 318 172 342L172 344Q102 391 102 468Q102 554 173 608Q244 662 343 662M260 79L261 79Q310 79 345.50 107.50Q381 136 381 184Q381 266 272 296Q221 287 186.50 255Q152 223 152 173Q152 134 181 106.50Q210 79 260 79M327 571L326 571Q282 571 251 542.50Q220 514 220 477Q220 409 315 383Q357 393 387 421Q417 449 417 488Q417 522 394.50 546.50Q372 571 327 571Z"  horiz-adv-x="555" vert-adv-y="1000"  />

      
      <glyph glyph-name="uni39" unicode="&#x39;" d="M55-10L70 89Q90 87 136 90Q219 96 284 143Q363 195 400 285L398 286Q341 223 251 223Q168 223 118.50 273.50Q69 324 69 403Q69 509 148 585.50Q227 662 338 662Q441 662 495.50 599Q550 536 550 431Q550 323 499.50 227Q449 131 379 77Q277-1 137-9Q75-12 55-10M326 566L325 566Q273 566 233.50 522.50Q194 479 194 418Q194 374 220 345Q246 316 290 316Q364 316 407 376Q419 391 421 400Q426 420 426 451Q426 502 401 534Q376 566 326 566Z"  horiz-adv-x="555" vert-adv-y="1000"  />

      
      <glyph glyph-name="uni3a" unicode="&#x3a;" d="M156 322L155 322Q124 322 103.50 343Q83 364 83 395Q83 433 107 458.50Q131 484 169 484Q201 484 222 463Q243 442 243 408Q243 371 219 346.50Q195 322 156 322M93-12L92-12Q61-12 40.50 9Q20 30 20 61Q20 99 44 124.50Q68 150 106 150Q138 150 159 129Q180 108 180 74Q180 37 156 12.50Q132-12 93-12Z"  horiz-adv-x="247" vert-adv-y="1000"  />

      
      <glyph glyph-name="uni3b" unicode="&#x3b;" d="M40-112L-50-119Q22 23 57 149L193 159Q128 9 40-112M162 322L161 322Q130 322 109.50 343Q89 364 89 395Q89 433 113 458.50Q137 484 175 484Q207 484 228 463Q249 442 249 408Q249 371 225 346.50Q201 322 162 322Z"  horiz-adv-x="247" vert-adv-y="1000"  />

      
      <glyph glyph-name="uni3c" unicode="&#x3c;" d="M63 228L63 304L524 532L524 442L158 267L158 265L524 90L524 0L63 228Z"  horiz-adv-x="596" vert-adv-y="1000"  />

      
      <glyph glyph-name="uni3d" unicode="&#x3d;" d="M550 332L47 332L47 412L550 412L550 332M550 124L47 124L47 204L550 204L550 124Z"  horiz-adv-x="596" vert-adv-y="1000"  />

      
      <glyph glyph-name="uni3e" unicode="&#x3e;" d="M546 304L546 228L85 0L85 90L451 265L451 267L85 442L85 532L546 304Z"  horiz-adv-x="596" vert-adv-y="1000"  />

      
      <glyph glyph-name="uni3f" unicode="&#x3f;" d="M261 209L141 209L144 239Q157 323 242 408Q247 413 261 427Q275 441 279.50 446Q284 451 294.50 462.50Q305 474 309 480.50Q313 487 319 496.50Q325 506 327 514.50Q329 523 329 531Q329 587 260 588Q193 588 144 558L122 642Q198 686 292 686Q362 686 408 649Q454 612 454 553Q454 516 437.50 482Q421 448 401.50 425.50Q382 403 342 364Q279 304 266 237Q265 230 261 209M169-12L168-12Q137-12 116.50 9Q96 30 96 61Q96 99 120 124.50Q144 150 182 150Q214 150 235 129Q256 108 256 74Q256 37 232 12.50Q208-12 169-12Z"  horiz-adv-x="445" vert-adv-y="1000"  />

      
      <glyph glyph-name="uni40" unicode="&#x40;" d="M464 259L479 350Q459 356 435 356Q375 356 333 312.50Q291 269 291 208Q291 176 307.50 156.50Q324 137 355 137Q392 137 424 174Q456 211 464 259M538-13L556-69Q477-106 370-106Q229-106 134-17Q39 72 39 215Q39 372 146 482Q253 592 425 592Q564 592 655 507Q746 422 746 290Q746 190 689.50 127.50Q633 65 553 65Q518 65 493.50 85.50Q469 106 467 147L464 147Q411 65 321 65Q271 65 236.50 101.50Q202 138 202 198Q202 293 271 360.50Q340 428 446 428Q520 428 570 404L540 223Q522 128 568 127Q608 125 641.50 169Q675 213 675 289Q675 396 605 464.50Q535 533 415 533Q287 533 199.50 448.50Q112 364 112 225Q112 101 188 27Q264-47 387-47Q476-47 538-13Z"  horiz-adv-x="781" vert-adv-y="1000"  />

      
      <glyph glyph-name="uni41" unicode="&#x41;" d="M441 197L205 197L105 0L-27 0L331 674L487 674L596 0L467 0L441 197M246 292L432 292L407 462Q406 465 391 580L389 580Q383 569 364.50 527Q346 485 334 463L246 292Z"  horiz-adv-x="649" vert-adv-y="1000"  />

      
      <glyph glyph-name="uni42" unicode="&#x42;" d="M30 7L154 663Q241 679 331 679Q439 679 500 640Q573 600 573 522Q573 460 532 418.50Q491 377 430 362L430 359Q479 345 511 307Q543 269 543 210Q543 110 452 49Q370-5 200-5Q88-5 30 7M260 577L226 399L290 399Q359 399 403 427Q447 455 447 504Q447 583 331 583Q280 583 260 577M206 309L166 94Q187 91 235 91Q311 91 362 119Q413 147 413 212Q413 309 271 309L206 309Z"  horiz-adv-x="591" vert-adv-y="1000"  />

      
      <glyph glyph-name="uni43" unicode="&#x43;" d="M563 121L579 24Q499-12 374-12Q232-12 142.50 65Q53 142 53 288Q53 389 98 472Q143 555 222 607Q337 686 491 686Q551 686 597 675Q643 664 663 650L628 554Q576 583 478 583Q364 583 286 519Q185 441 185 300Q185 206 241 148.50Q297 91 406 91Q500 91 563 121Z"  horiz-adv-x="637" vert-adv-y="1000"  />

      
      <glyph glyph-name="uni44" unicode="&#x44;" d="M30 6L156 664Q249 679 354 679Q538 679 630 594Q717 523 717 387Q717 206 582 95Q457-5 227-5Q122-5 30 6M262 575L171 97Q208 93 258 93Q416 93 500 175Q584 255 584 380Q584 581 351 581Q296 581 262 575Z"  horiz-adv-x="734" vert-adv-y="1000"  />

      
      <glyph glyph-name="uni45" unicode="&#x45;" d="M496 400L476 297L206 297L169 103L472 103L453 0L28 0L156 674L565 674L545 571L258 571L225 400L496 400Z"  horiz-adv-x="538" vert-adv-y="1000"  />

      
      <glyph glyph-name="uni46" unicode="&#x46;" d="M28 0L156 674L562 674L542 571L258 571L223 388L486 388L466 285L203 285L150 0L28 0Z"  horiz-adv-x="532" vert-adv-y="1000"  />

      
      <glyph glyph-name="uni47" unicode="&#x47;" d="M681 372L617 34Q496-7 384-7Q227-7 139 74Q52 155 52 289Q52 375 88 450Q124 525 189 578Q316 681 504 681Q571 681 623.50 670Q676 659 698 646L661 545Q593 578 495 578Q370 578 285 507Q239 469 212.50 414Q186 359 186 299Q186 202 243.50 149Q301 96 409 96Q470 96 511 114L542 275L407 275L426 372L681 372Z"  horiz-adv-x="717" vert-adv-y="1000"  />

      
      <glyph glyph-name="uni48" unicode="&#x48;" d="M156 674L278 674L226 405L538 405L590 674L712 674L584 0L462 0L518 298L206 298L150 0L28 0L156 674Z"  horiz-adv-x="704" vert-adv-y="1000"  />

      
      <glyph glyph-name="uni49" unicode="&#x49;" d="M153 674L274 674L146 0L25 0L153 674Z"  horiz-adv-x="267" vert-adv-y="1000"  />

      
      <glyph glyph-name="uni4a" unicode="&#x4a;" d="M232 250L312 674L434 674L350 232Q326 104 265.50 46Q205-12 90-12Q9-12-31 8L-5 110Q38 94 89 94Q147 94 181 128.50Q215 163 232 250Z"  horiz-adv-x="420" vert-adv-y="1000"  />

      
      <glyph glyph-name="uni4b" unicode="&#x4b;" d="M28 0L156 674L276 674L218 363L222 363Q237 382 287 434L518 674L675 674L375 385L565 0L431 0L279 312L194 238L149 0L28 0Z"  horiz-adv-x="602" vert-adv-y="1000"  />

      
      <glyph glyph-name="uni4c" unicode="&#x4c;" d="M28 0L156 674L278 674L170 106L465 106L445 0L28 0Z"  horiz-adv-x="510" vert-adv-y="1000"  />

      
      <glyph glyph-name="uni4d" unicode="&#x4d;" d="M762 0L641 0L685 316Q711 488 729 579L727 579Q624 368 604 330L428 8L331 8L289 322Q275 453 267 579L265 579Q257 545 236.50 450Q216 355 206 316L127 0L13 0L186 674L354 674L396 371Q413 189 414 167L417 167Q450 249 511 370L679 674L851 674L762 0Z"  horiz-adv-x="868" vert-adv-y="1000"  />

      
      <glyph glyph-name="uni4e" unicode="&#x4e;" d="M144 0L28 0L156 674L303 674L441 360Q480 264 510 146L513 147Q514 222 540 360L599 674L716 674L588 0L459 0L318 327Q266 461 244 543L240 542Q231 457 201 303L144 0Z"  horiz-adv-x="708" vert-adv-y="1000"  />

      
      <glyph glyph-name="uni4f" unicode="&#x4f;" d="M355-12L354-12Q215-12 133.50 70Q52 152 52 286Q52 464 174 581Q284 686 444 686Q587 686 666.50 604Q746 522 746 386Q746 210 629 95Q520-12 355-12M371 88L372 88Q463 88 530 157Q616 243 616 379Q616 420 607 454.50Q598 489 578.50 519.50Q559 550 521 568Q483 586 430 586Q339 586 270 517Q182 429 182 295Q182 201 229.50 144.50Q277 88 371 88Z"  horiz-adv-x="763" vert-adv-y="1000"  />

      
      <glyph glyph-name="uni50" unicode="&#x50;" d="M28 0L154 662Q225 679 330 679Q448 679 512 632Q582 586 582 492Q582 380 493 312Q410 248 267 248Q236 248 196 254L147 0L28 0M257 576L214 354Q245 347 285 347Q361 347 410.50 383.50Q460 420 460 482Q460 583 332 583Q282 583 257 576Z"  horiz-adv-x="573" vert-adv-y="1000"  />

      
      <glyph glyph-name="uni51" unicode="&#x51;" d="M681-14L643-113Q470-72 368-28Q324-10 313-10Q203-3 127.50 75.50Q52 154 52 288Q52 457 167 574Q220 628 293 657Q366 686 445 686Q586 686 665.50 604Q745 522 745 387Q745 214 634 103Q577 44 500 19L500 16Q663-12 681-14M368 88L369 88Q460 88 529 155Q616 244 616 382Q616 420 607 454Q598 488 578.50 519Q559 550 521 568Q483 586 431 586Q340 586 272 518Q230 476 206 416.50Q182 357 182 294Q182 202 228.50 145Q275 88 368 88Z"  horiz-adv-x="763" vert-adv-y="1000"  />

      
      <glyph glyph-name="uni52" unicode="&#x52;" d="M29 0L155 662Q225 679 335 679Q454 679 516 636Q587 592 587 509Q587 438 541.50 389.50Q496 341 425 320L425 317Q485 294 497 193Q499 174 502.50 144Q506 114 508 96Q510 78 513 57Q516 36 519 22Q522 8 525 0L399 0Q390 27 377 160Q372 223 346.50 250Q321 277 271 277L203 277L150 0L29 0M260 576L220 368L298 368Q370 368 415 402.50Q460 437 460 490Q460 538 424 560.50Q388 583 331 583Q286 583 260 576Z"  horiz-adv-x="598" vert-adv-y="1000"  />

      
      <glyph glyph-name="uni53" unicode="&#x53;" d="M8 43L52 141Q129 92 225 92Q278 92 316 117.50Q354 143 354 190Q354 221 330 245.50Q306 270 251 295Q95 365 95 475Q95 571 171.50 628.50Q248 686 358 686Q457 686 526 648L484 548Q423 584 346 583Q290 583 257 557Q224 531 224 498Q224 465 251 442.50Q278 420 336 392Q410 358 447 315Q484 272 484 208Q484 108 406 48Q328-12 207-12Q144-11 90 4.50Q36 20 8 43Z"  horiz-adv-x="533" vert-adv-y="1000"  />

      
      <glyph glyph-name="uni54" unicode="&#x54;" d="M166 0L273 570L65 570L86 674L626 674L606 570L395 570L288 0L166 0Z"  horiz-adv-x="552" vert-adv-y="1000"  />

      
      <glyph glyph-name="uni55" unicode="&#x55;" d="M155 674L277 674L206 298Q198 260 198 214Q198 156 232 122.50Q266 89 325 89Q473 89 513 298L585 674L707 674L635 297Q604 137 524.50 62.50Q445-12 309-12Q202-13 139 44Q76 101 76 214Q76 254 85 306L155 674Z"  horiz-adv-x="697" vert-adv-y="1000"  />

      
      <glyph glyph-name="uni56" unicode="&#x56;" d="M326 0L185 0L81 674L204 674L256 305Q274 175 278 121L280 121Q317 207 371 311L564 674L700 674L326 0Z"  horiz-adv-x="630" vert-adv-y="1000"  />

      
      <glyph glyph-name="uni57" unicode="&#x57;" d="M276 0L139 0L96 674L217 674L231 327Q234 239 234 127L236 127Q299 287 316 325L471 674L610 674L619 335Q622 207 619 130L621 130Q659 236 697 328L851 674L981 674L658 0L525 0L512 334Q508 435 514 549L511 549Q465 414 435 345L276 0Z"  horiz-adv-x="913" vert-adv-y="1000"  />

      
      <glyph glyph-name="uni58" unicode="&#x58;" d="M548 0L417 0L354 147Q329 206 306 267L304 267Q257 193 225 147L120 0L-32 0L246 343L103 674L233 674L294 522Q321 452 333 417L336 417Q401 516 406 523L518 674L668 674L395 344L548 0Z"  horiz-adv-x="603" vert-adv-y="1000"  />

      
      <glyph glyph-name="uni59" unicode="&#x59;" d="M296 0L175 0L228 279L76 674L206 674L270 477Q300 379 303 364L305 364Q358 447 380 481L511 674L660 674L350 282L296 0Z"  horiz-adv-x="598" vert-adv-y="1000"  />

      
      <glyph glyph-name="uni5a" unicode="&#x5a;" d="M-20 0L-7 70L451 567L450 570L121 570L141 674L641 674L627 603L174 107L175 104L540 104L520 0L-20 0Z"  horiz-adv-x="599" vert-adv-y="1000"  />

      
      <glyph glyph-name="uni5b" unicode="&#x5b;" d="M212-112L15-112L167 686L364 686L351 615L247 615L121-41L225-41L212-112Z"  horiz-adv-x="316" vert-adv-y="1000"  />

      
      <glyph glyph-name="uni5c" unicode="&#x5c;" d="M326-40L238-40L58 686L146 686L326-40Z"  horiz-adv-x="351" vert-adv-y="1000"  />

      
      <glyph glyph-name="uni5d" unicode="&#x5d;" d="M122 686L319 686L167-112L-30-112L-17-41L87-41L213 615L109 615L122 686Z"  horiz-adv-x="316" vert-adv-y="1000"  />

      
      <glyph glyph-name="uni5e" unicode="&#x5e;" d="M538 182L446 182L294 552L292 552L141 182L50 182L254 650L334 650L538 182Z"  horiz-adv-x="596" vert-adv-y="1000"  />

      
      <glyph glyph-name="uni5f" unicode="&#x5f;" d="M-50-75L450-75L440-125L-60-125L-50-75Z"  horiz-adv-x="500" vert-adv-y="1000"  />

      
      <glyph glyph-name="uni60" unicode="&#x60;" d="M129 698L255 698L331 547L242 547L129 698Z"  horiz-adv-x="400" vert-adv-y="1000"  />

      
      <glyph glyph-name="uni61" unicode="&#x61;" d="M488 0L374 0Q374 38 383 117L381 117Q313-12 190-12Q120-12 75.50 37Q31 86 31 162Q31 300 129.50 399.50Q228 499 397 499Q476 499 557 476L508 229Q484 108 488 0M397 286L420 399Q396 405 365 405Q282 405 220.50 338Q159 271 159 182Q159 140 179 113Q199 86 239 86Q288 86 334 138.50Q380 191 397 286Z"  horiz-adv-x="584" vert-adv-y="1000"  />

      
      <glyph glyph-name="uni62" unicode="&#x62;" d="M158 716L280 716L217 412L219 412Q250 453 297 476Q344 499 395 499Q475 499 517 446.50Q559 394 559 316Q559 258 537.50 201Q516 144 476.50 96Q437 48 371.50 18Q306-12 227-12Q141-12 93.50 23.50Q46 59 47 131Q47 164 58 221L158 716M182 226L179 209Q172 180 173 149Q175 82 248 82Q326 82 378.50 149.50Q431 217 431 298Q431 342 408.50 371.50Q386 401 343 401Q290 401 244.50 353Q199 305 182 226Z"  horiz-adv-x="589" vert-adv-y="1000"  />

      
      <glyph glyph-name="uni63" unicode="&#x63;" d="M401 112L408 20Q342-12 249-12Q152-12 93.50 42.50Q35 97 35 189Q35 320 128 409.50Q221 499 362 499Q426 499 477 477L445 384Q409 402 359 402Q271 402 217 342Q163 282 163 203Q163 147 195.50 116Q228 85 282 85Q343 85 401 112Z"  horiz-adv-x="473" vert-adv-y="1000"  />

      
      <glyph glyph-name="uni64" unicode="&#x64;" d="M488 716L609 716L506 176Q489 85 484 0L370 0L381 91L379 91Q309-12 196-12Q124-12 78.50 40Q33 92 33 179Q33 310 126.50 404.50Q220 499 360 499Q407 499 444 485L488 716M400 258L426 386Q396 405 349 405Q270 405 215.50 345Q161 285 161 197Q161 148 183 117Q205 86 249 86Q296 86 341 133Q386 180 400 258Z"  horiz-adv-x="589" vert-adv-y="1000"  />

      
      <glyph glyph-name="uni65" unicode="&#x65;" d="M423 117L435 30Q356-12 248-12Q144-12 88.50 44.50Q33 101 33 198Q33 316 116.50 407.50Q200 499 325 499Q402 499 449.50 461Q497 423 497 358Q497 269 407 233Q317 197 151 201Q147 165 166 134Q198 83 276 83Q357 83 423 117M380 360L380 361Q380 383 360.50 397Q341 411 310 411Q253 411 214 373.50Q175 336 163 291Q274 290 327 305Q380 320 380 360Z"  horiz-adv-x="518" vert-adv-y="1000"  />

      
      <glyph glyph-name="uni66" unicode="&#x66;" d="M160 0L39 0L113 392L49 392L67 487L131 487L135 513Q155 627 220 683Q273 728 353 728Q404 728 428 714L407 617Q387 627 356 627Q277 627 256 511L252 487L356 487L338 392L234 392L160 0Z"  horiz-adv-x="326" vert-adv-y="1000"  />

      
      <glyph glyph-name="uni67" unicode="&#x67;" d="M17-176L46-83Q97-114 191-114Q256-114 299.50-80Q343-46 361 41L373 93L370 93Q306 3 204 3Q126 3 80 57Q34 111 34 185Q34 316 126.50 407.50Q219 499 371 499Q471 499 557 463L484 66Q453-97 377-157Q308-212 186-212Q76-212 17-176M400 264L424 391Q391 405 350 405Q270 405 216.50 344.50Q163 284 163 200Q163 156 185.50 126.50Q208 97 253 97Q301 97 343.50 144Q386 191 400 264Z"  horiz-adv-x="588" vert-adv-y="1000"  />

      
      <glyph glyph-name="uni68" unicode="&#x68;" d="M147 0L26 0L162 716L283 716L224 411L226 411Q299 499 403 499Q460 499 499 464Q538 429 538 359Q538 321 530 275L478 0L356 0L406 263Q412 299 412 327Q412 401 342 401Q294 401 248.50 349.50Q203 298 188 217L147 0Z"  horiz-adv-x="593" vert-adv-y="1000"  />

      
      <glyph glyph-name="uni69" unicode="&#x69;" d="M147 0L26 0L118 487L240 487L147 0M200 559L199 559Q172 559 154 577Q136 595 136 623Q136 655 157.50 674.50Q179 694 209 694Q237 694 256 676.50Q275 659 275 630Q275 598 253.50 578.50Q232 559 200 559Z"  horiz-adv-x="265" vert-adv-y="1000"  />

      
      <glyph glyph-name="uni6a" unicode="&#x6a;" d="M132 487L252 487L162 7Q139-116 91-166Q46-212-31-212Q-70-212-98-204L-84-111Q-69-114-46-114Q-15-114 6-90Q27-66 39-2L132 487M207 559L206 559Q179 559 161 577Q143 595 143 623Q143 655 164.50 674.50Q186 694 216 694Q244 694 263 676.50Q282 659 282 630Q282 598 260.50 578.50Q239 559 207 559Z"  horiz-adv-x="273" vert-adv-y="1000"  />

      
      <glyph glyph-name="uni6b" unicode="&#x6b;" d="M148 0L26 0L162 716L283 716L199 274L201 274Q212 286 249 326L408 487L563 487L337 289L496 0L358 0L244 222L179 166L148 0Z"  horiz-adv-x="538" vert-adv-y="1000"  />

      
      <glyph glyph-name="uni6c" unicode="&#x6c;" d="M148 0L26 0L163 716L285 716L148 0Z"  horiz-adv-x="265" vert-adv-y="1000"  />

      
      <glyph glyph-name="uni6d" unicode="&#x6d;" d="M143 0L26 0L89 340Q106 432 112 487L218 487L206 399L208 399Q279 499 389 499Q449 499 481 468.50Q513 438 515 393Q584 497 702 499Q758 499 794.50 464Q831 429 831 361Q831 320 824 281L772 0L654 0L703 264Q709 298 709 321Q709 401 641 401Q595 401 553.50 351Q512 301 498 223L457 0L340 0L390 269Q396 307 396 321Q396 401 329 401Q283 401 239.50 348Q196 295 183 220L143 0Z"  horiz-adv-x="886" vert-adv-y="1000"  />

      
      <glyph glyph-name="uni6e" unicode="&#x6e;" d="M147 0L25 0L89 340Q101 396 114 487L223 487L211 394L213 394Q284 499 402 499Q461 499 499.50 463.50Q538 428 538 355Q538 321 530 277L477 0L356 0L405 264Q411 298 411 322Q411 401 342 401Q295 401 248.50 349.50Q202 298 186 213L147 0Z"  horiz-adv-x="593" vert-adv-y="1000"  />

      
      <glyph glyph-name="uni6f" unicode="&#x6f;" d="M257-12L256-12Q159-12 97.50 46.50Q36 105 36 200Q36 328 121 413.50Q206 499 335 499Q436 499 497 438.50Q558 378 558 285Q558 156 472.50 72Q387-12 257-12M273 82L274 82Q340 82 385.50 142.50Q431 203 431 281Q431 329 404.50 367Q378 405 322 405Q250 405 206.50 341.50Q163 278 163 202Q163 147 193.50 114.50Q224 82 273 82Z"  horiz-adv-x="592" vert-adv-y="1000"  />

      
      <glyph glyph-name="uni70" unicode="&#x70;" d="M105-200L-17-200L78 300Q95 398 106 490L217 490L205 405L207 405Q278 499 386 499Q468 499 513 443.50Q558 388 558 307Q558 174 471.50 81Q385-12 256-12Q185-12 147 12L145 12L105-200M181 206L165 110Q196 82 255 82Q324 82 377 146Q430 210 430 300Q430 340 408 370.50Q386 401 342 401Q290 401 244 349Q198 297 181 206Z"  horiz-adv-x="590" vert-adv-y="1000"  />

      
      <glyph glyph-name="uni71" unicode="&#x71;" d="M436-200L313-200L374 81L372 81Q342 37 294 12.50Q246-12 197-12Q122-12 77.50 42.50Q33 97 33 179Q33 310 126 404.50Q219 499 374 499Q466 499 560 467L436-200M401 260L426 389Q396 405 347 405Q269 405 215 341.50Q161 278 161 193Q161 142 183.50 114Q206 86 242 86Q295 86 340.50 134Q386 182 401 260Z"  horiz-adv-x="591" vert-adv-y="1000"  />

      
      <glyph glyph-name="uni72" unicode="&#x72;" d="M148 0L26 0L81 291Q87 323 92 360.50Q97 398 101 436Q105 474 107 487L213 487L201 379L204 379Q231 433 272.50 466Q314 499 367 499Q372 499 381.50 498.50Q391 498 395 498L371 380Q364 381 346 381Q281 381 240 326.50Q199 272 182 182L148 0Z"  horiz-adv-x="371" vert-adv-y="1000"  />

      
      <glyph glyph-name="uni73" unicode="&#x73;" d="M7 28L38 114Q105 78 168 78Q204 78 225.50 94.50Q247 111 247 136Q247 157 232 173.50Q217 190 178 208Q70 259 70 338Q70 409 128.50 454Q187 499 278 499Q358 499 402 472L370 385Q322 409 268 409Q235 409 214 394Q193 379 193 355Q193 336 210 320.50Q227 305 263 288Q374 236 374 156Q374 77 312.50 32Q251-13 156-12Q58-10 7 28Z"  horiz-adv-x="429" vert-adv-y="1000"  />

      
      <glyph glyph-name="uni74" unicode="&#x74;" d="M156 580L280 613L257 487L372 487L353 392L238 392L203 212Q193 166 193 137Q193 92 239 92Q263 92 281 95L270-1Q245-12 191-12Q130-12 99.50 16.50Q69 45 69 90Q69 134 80 186L120 392L52 392L70 487L138 487L156 580Z"  horiz-adv-x="356" vert-adv-y="1000"  />

      
      <glyph glyph-name="uni75" unicode="&#x75;" d="M441 487L562 487L498 147Q483 72 473 0L365 0L377 90L375 90Q298-12 192-12Q130-12 91 22.50Q52 57 52 137Q52 173 62 222L112 487L234 487L185 230Q178 188 178 165Q178 88 249 88Q295 88 339 137.50Q383 187 398 266L441 487Z"  horiz-adv-x="587" vert-adv-y="1000"  />

      
      <glyph glyph-name="uni76" unicode="&#x76;" d="M48 487L172 487L214 247Q217 226 222 198Q227 170 229.50 152Q232 134 234 121L237 121Q267 190 294 244L422 487L561 487L272 0L149 0L48 487Z"  horiz-adv-x="528" vert-adv-y="1000"  />

      
      <glyph glyph-name="uni77" unicode="&#x77;" d="M57 487L178 487L191 252Q194 197 192 105L194 105Q213 159 254 245L376 487L479 487L504 252Q512 166 512 105L514 105Q534 171 566 249L676 487L800 487L553 0L437 0L410 210Q403 297 402 356L400 356Q348 234 339 216L226 0L110 0L57 487Z"  horiz-adv-x="770" vert-adv-y="1000"  />

      
      <glyph glyph-name="uni78" unicode="&#x78;" d="M58 487L193 487L236 402Q270 330 274 322L277 322Q325 387 334 398L409 487L552 487L332 252L462 0L327 0L282 91Q263 130 242 179L239 179Q212 135 187 101L103 0L-41 0L188 253L58 487Z"  horiz-adv-x="517" vert-adv-y="1000"  />

      
      <glyph glyph-name="uni79" unicode="&#x79;" d="M45 487L173 487L220 258Q241 151 244 135L246 135Q248 140 264.50 178.50Q281 217 296 249L406 487L536 487L353 138Q257-46 169-134Q126-177 77.50-200Q29-223-3-227L-26-122Q29-107 66-80Q120-42 156 19Q161 27 158 42L45 487Z"  horiz-adv-x="509" vert-adv-y="1000"  />

      
      <glyph glyph-name="uni7a" unicode="&#x7a;" d="M-20 0L-7 71L196 274Q258 334 322 386L322 389L71 389L91 487L492 487L477 412L278 213Q207 143 155 101L154 98L426 98L406 0L-20 0Z"  horiz-adv-x="476" vert-adv-y="1000"  />

      
      <glyph glyph-name="uni7b" unicode="&#x7b;" d="M35 256L46 320Q95 321 114 341Q133 361 140 394Q144 418 148 473Q152 528 157 554Q183 686 328 686L361 686L347 614L328 614Q292 614 272 594Q252 574 243 533Q240 516 237 472Q234 428 229 399Q221 347 197 322Q173 297 130 288L130 286Q159 280 176.50 261.50Q194 243 194 215Q194 177 171 110Q147 40 147 15Q147-40 203-40L222-40L209-112L182-112Q53-112 53-5Q53 31 78 106Q102 182 102 204Q102 226 85.50 241Q69 256 35 256Z"  horiz-adv-x="316" vert-adv-y="1000"  />

      
      <glyph glyph-name="uni7c" unicode="&#x7c;" d="M95 750L179 750L179-250L95-250L95 750Z"  horiz-adv-x="238" vert-adv-y="1000"  />

      
      <glyph glyph-name="uni7d" unicode="&#x7d;" d="M292 318L280 254Q232 253 213 233Q194 213 187 180Q183 156 179 101Q175 46 170 20Q144-112-1-112L-34-112L-20-40L-1-40Q35-40 55-20Q75 0 84 41Q87 58 90 102Q93 146 98 175Q106 226 130 251.50Q154 277 197 286L197 288Q168 294 150.50 313Q133 332 133 360Q133 389 157 463Q180 538 180 559Q180 614 124 614L105 614L118 686L145 686Q274 686 274 579Q274 540 250 468Q225 401 225 370Q225 348 241.50 333Q258 318 292 318Z"  horiz-adv-x="316" vert-adv-y="1000"  />

      
      <glyph glyph-name="uni7e" unicode="&#x7e;" d="M132 198L50 198Q49 285 84.50 328.50Q120 372 182 372Q237 372 319 328Q396 287 430 287Q474 287 477 368L559 368Q563 273 526.50 233Q490 193 430 193Q375 193 286 242Q212 280 184 280Q137 280 132 198Z"  horiz-adv-x="596" vert-adv-y="1000"  />

      
      <glyph glyph-name="unia1" unicode="&#xa1;" d="M116-193L-16-193L92 268L184 268L116-193M171 490L172 490Q203 490 223.50 469Q244 448 244 417Q244 379 220 353.50Q196 328 158 328Q126 328 105 349Q84 370 84 404Q84 441 108 465.50Q132 490 171 490Z"  horiz-adv-x="265" vert-adv-y="1000"  />

      
      <glyph glyph-name="unia2" unicode="&#xa2;" d="M321-14L237-14L256 85Q173 99 128 155Q86 209 86 289Q86 404 163 484.50Q240 565 352 581L370 679L454 679L437 584Q497 582 534 560L495 468Q455 490 396 490Q324 490 271 438Q218 386 218 304Q218 246 253 212.50Q288 179 346 179Q396 179 452 202L462 112Q413 86 339 84L321-14Z"  horiz-adv-x="555" vert-adv-y="1000"  />

      
      <glyph glyph-name="unia3" unicode="&#xa3;" d="M480 0L23 0L34 69Q77 88 113 125Q149 162 165 205Q176 232 174 277L78 277L95 366L174 366Q176 440 187 483Q208 567 269 614.50Q330 662 421 662Q493 662 532 636L497 543Q463 561 415 561Q366 561 335.50 533Q305 505 296 457Q288 410 290 366L445 366L428 277L286 277Q284 244 274 211Q256 146 201 105L201 103L496 103L480 0Z"  horiz-adv-x="555" vert-adv-y="1000"  />

      
      <glyph glyph-name="unia4" unicode="&#xa4;" d="M290 546L291 546Q366 546 413 507L490 590L549 528L464 453Q502 409 502 336Q502 261 462 215L545 138L486 78L412 163Q364 121 290 121Q216 121 170 161L97 78L38 138L119 213Q78 260 78 333Q78 406 119 453L34 528L94 590L170 507Q218 546 290 546M290 461L289 461Q239 461 205.50 424.50Q172 388 172 334Q172 271 209 238.50Q246 206 290 206Q336 206 372 238Q408 270 408 335Q408 388 375 424.50Q342 461 290 461Z"  horiz-adv-x="555" vert-adv-y="1000"  />

      
      <glyph glyph-name="unia5" unicode="&#xa5;" d="M283 0L168 0L199 165L42 165L54 227L211 227L224 296L66 296L79 358L203 358L84 650L212 650L267 471Q294 372 294 371L298 371Q339 440 360 472L486 650L625 650L386 358L509 358L497 296L338 296L325 227L484 227L472 165L314 165L283 0Z"  horiz-adv-x="555" vert-adv-y="1000"  />

      
      <glyph glyph-name="unia6" unicode="&#xa6;" d="M95 174L179 174L179-176L95-176L95 174M95 674L179 674L179 324L95 324L95 674Z"  horiz-adv-x="238" vert-adv-y="1000"  />

      
      <glyph glyph-name="unia7" unicode="&#xa7;" d="M178 343L178 342Q178 316 196.50 296Q215 276 263 255Q342 224 367 207Q417 238 417 281Q417 330 349 364Q237 415 234 417Q210 405 194 385Q178 365 178 343M534 649L503 573Q445 606 368 606Q326 606 296.50 587.50Q267 569 267 539Q267 514 290 498Q313 482 373 459Q447 429 485.50 396.50Q524 364 524 308Q524 219 426 165Q455 136 455 91Q455 34 419-5.50Q383-45 334.50-60Q286-75 230-75Q114-75 46-27L81 50Q151 5 228 5Q276 5 306.50 24Q337 43 337 76Q337 99 315.50 118Q294 137 238 160Q201 175 176 187.50Q151 200 124.50 218.50Q98 237 84.50 260.50Q71 284 71 313Q71 358 101.50 396Q132 434 181 456Q155 486 155 524Q155 577 189.50 615Q224 653 273.50 669.50Q323 686 379 686Q475 686 534 649Z"  horiz-adv-x="569" vert-adv-y="1000"  />

      
      <glyph glyph-name="unia8" unicode="&#xa8;" d="M168 563L167 563Q142 563 124.50 579.50Q107 596 107 622Q107 652 127 671Q147 690 176 690Q202 690 218.50 673Q235 656 235 630Q235 601 215.50 582Q196 563 168 563M374 563L373 563Q348 563 331 579.50Q314 596 314 622Q314 652 333.50 671Q353 690 383 690Q409 690 425 673Q441 656 441 630Q441 600 422 581.50Q403 563 374 563Z"  horiz-adv-x="400" vert-adv-y="1000"  />

      
      <glyph glyph-name="unia9" unicode="&#xa9;" d="M365 648L366 648Q492 648 579.50 558Q667 468 667 340Q667 211 579.50 120.50Q492 30 365 30Q237 30 148 120.50Q59 211 59 340Q59 468 148 558Q237 648 365 648M364 598L363 598Q261 598 189.50 522.50Q118 447 118 338Q118 230 189.50 155Q261 80 364 80Q466 79 537 154.50Q608 230 608 339Q608 447 537 522.50Q466 598 364 598M498 492L485 445Q448 468 388 468Q326 468 292 432.50Q258 397 258 337Q258 279 293.50 242Q329 205 389 205Q454 205 491 231L504 186Q458 153 380 153Q295 153 245.50 204Q196 255 196 334Q196 416 253 468Q310 520 387 520Q423 520 455.50 511Q488 502 498 492Z"  horiz-adv-x="677" vert-adv-y="1000"  />

      
      <glyph glyph-name="uniaa" unicode="&#xaa;" d="M375 269L289 269Q289 298 292 327L290 326Q243 262 167 262Q120 262 89.50 295Q59 328 59 384Q59 471 120 531.50Q181 592 293 592Q361 592 417 570L382 371Q375 326 375 269M300 416L318 519Q298 526 272 526Q222 526 188 489.50Q154 453 154 400Q154 371 168 351.50Q182 332 210 332Q240 332 266 356.50Q292 381 300 416Z"  horiz-adv-x="403" vert-adv-y="1000"  />

      
      <glyph glyph-name="uniab" unicode="&#xab;" d="M272 442L120 251L225 62L136 62L30 252L175 442L272 442M461 442L309 251L414 62L325 62L219 252L363 442L461 442Z"  horiz-adv-x="461" vert-adv-y="1000"  />

      
      <glyph glyph-name="uniac" unicode="&#xac;" d="M39 412L542 412L542 112L457 112L457 332L39 332L39 412Z"  horiz-adv-x="596" vert-adv-y="1000"  />

      
      <glyph glyph-name="uniae" unicode="&#xae;" d="M238 490L238 428L191 428L191 591Q219 597 261 597Q306 597 324 584Q342 573 342 549Q342 521 305 511L305 509Q330 501 337 468Q343 438 349 428L299 428Q293 435 286 465Q282 490 255 490L238 490M239 564L239 521L256 521Q290 521 290 543Q290 565 258 565Q254 565 247 564.50Q240 564 239 564M262 684L263 684Q337 684 388.50 634Q440 584 440 513Q440 440 388.50 389.50Q337 339 262 339Q188 339 135.50 389.50Q83 440 83 513Q83 584 135.50 634Q188 684 262 684M262 645L261 645Q207 645 170 606.50Q133 568 133 512Q133 456 170 417.50Q207 379 262 379Q318 378 354.50 417Q391 456 391 512Q391 568 354.50 606.50Q318 645 262 645Z"  horiz-adv-x="415" vert-adv-y="1000"  />

      
      <glyph glyph-name="uniaf" unicode="&#xaf;" d="M158 659L404 659L391 589L145 589L158 659Z"  horiz-adv-x="400" vert-adv-y="1000"  />

      
      <glyph glyph-name="uni02C9" unicode="&#x02C9;" d="M158 659L404 659L391 589L145 589L158 659Z"  horiz-adv-x="400" vert-adv-y="1000"  />

      
      <glyph glyph-name="unib0" unicode="&#xb0;" d="M240 686L241 686Q306 686 346 645.50Q386 605 386 547Q386 484 340 441Q294 398 233 398Q170 398 129 438.50Q88 479 88 538Q88 598 132.50 642Q177 686 240 686M239 622L238 622Q205 622 183.50 596Q162 570 162 539Q162 505 183.50 483.50Q205 462 237 462Q269 462 290.50 486.50Q312 511 312 546Q312 576 293.50 599Q275 622 239 622Z"  horiz-adv-x="357" vert-adv-y="1000"  />

      
      <glyph glyph-name="unib1" unicode="&#xb1;" d="M255 578L339 578L339 395L548 395L548 315L339 315L339 128L255 128L255 315L46 315L46 395L255 395L255 578M46 80L548 80L548 0L46 0L46 80Z"  horiz-adv-x="596" vert-adv-y="1000"  />

      
      <glyph glyph-name="unib2" unicode="&#xb2;" d="M353 407L47 407L56 457L135 514Q221 576 256.50 611Q292 646 292 680Q292 699 278.50 712Q265 725 235 725Q186 725 141 692L120 753Q186 802 269 802Q324 802 361.50 774.50Q399 747 399 695Q399 667 387.50 642Q376 617 349 592Q322 567 301.50 551Q281 535 239 506L206 483L206 481L367 481L353 407Z"  horiz-adv-x="345" vert-adv-y="1000"  />

      
      <glyph glyph-name="unib3" unicode="&#xb3;" d="M138 701L127 763Q184 802 266 802Q321 802 359 777Q397 752 397 712Q397 644 296 617L296 615Q329 609 353 585.50Q377 562 377 529Q377 469 325 435.50Q273 402 195 402Q103 402 55 437L88 502Q132 471 188 471Q226 471 249.50 488Q273 505 273 529Q273 555 246.50 569.50Q220 584 181 584L161 584L173 643L194 643Q230 643 260.50 657.50Q291 672 291 696Q291 733 237 733Q184 733 138 701Z"  horiz-adv-x="341" vert-adv-y="1000"  />

      
      <glyph glyph-name="unib4" unicode="&#xb4;" d="M288 698L418 698L282 547L189 547L288 698Z"  horiz-adv-x="400" vert-adv-y="1000"  />

      
      <glyph glyph-name="unib5" unicode="&#xb5;" d="M232 487L183 219Q159 87 258 87Q290 87 321 114Q352 141 372 180Q384 205 389 229L439 487L561 487L498 152Q491 114 499 99.50Q507 85 531 83L508-6Q484-12 466-12Q386-12 383 90L380 90Q323-10 234-10Q165-10 140 38L131-16Q106-147 109-200L-1-200Q-9-155 16-21L112 487L232 487Z"  horiz-adv-x="585" vert-adv-y="1000"  />

      
      <glyph glyph-name="unib6" unicode="&#xb6;" d="M248-52L161-52L221 258Q219 258 214.50 259Q210 260 207 261Q150 277 111.50 321Q73 365 73 431Q73 544 162.50 609Q252 674 406 674Q503 674 548 664L411-52L324-52L446 590L370 590L248-52Z"  horiz-adv-x="551" vert-adv-y="1000"  />

      
      <glyph glyph-name="unib7" unicode="&#xb7;" d="M120 176L119 176Q88 176 67.50 197Q47 218 47 249Q47 287 71 312.50Q95 338 133 338Q165 338 186 317Q207 296 207 262Q207 225 183 200.50Q159 176 120 176Z"  horiz-adv-x="247" vert-adv-y="1000"  />

      
      <glyph glyph-name="uni2219" unicode="&#x2219;" d="M120 176L119 176Q88 176 67.50 197Q47 218 47 249Q47 287 71 312.50Q95 338 133 338Q165 338 186 317Q207 296 207 262Q207 225 183 200.50Q159 176 120 176Z"  horiz-adv-x="247" vert-adv-y="1000"  />

      
      <glyph glyph-name="unib8" unicode="&#xb8;" d="M130 3L202 3L166-46Q192-52 208.50-69Q225-86 225-110Q225-157 188.50-181Q152-205 102-205Q54-205 27-185L50-133Q76-149 104-149Q120-149 132-140.50Q144-132 144-117Q144-86 73-81L130 3Z"  horiz-adv-x="400" vert-adv-y="1000"  />

      
      <glyph glyph-name="unib9" unicode="&#xb9;" d="M243 407L142 407L201 714L199 714L124 684L115 752L229 797L317 797L243 407Z"  horiz-adv-x="269" vert-adv-y="1000"  />

      
      <glyph glyph-name="uniba" unicode="&#xba;" d="M247 592L248 592Q320 592 363.50 552.50Q407 513 407 447Q407 365 350 313.50Q293 262 204 262Q137 262 94 303Q51 344 51 404Q51 489 107.50 540.50Q164 592 247 592M243 527L242 527Q200 527 173 489Q146 451 146 403Q146 369 165.50 348Q185 327 214 327Q254 327 282.50 363.50Q311 400 311 454Q311 484 295 505.50Q279 527 243 527Z"  horiz-adv-x="385" vert-adv-y="1000"  />

      
      <glyph glyph-name="unibb" unicode="&#xbb;" d="M163 253L58 442L147 442L253 252L108 61L11 61L163 253M352 253L247 442L336 442L442 252L297 61L200 61L352 253Z"  horiz-adv-x="459" vert-adv-y="1000"  />

      
      <glyph glyph-name="unibc" unicode="&#xbc;" d="M703 0L608 0L626 96L418 96L429 149L663 395L778 395L734 160L792 160L780 96L722 96L703 0M639 160L657 257Q659 269 674 326L671 326Q639 280 624 263L528 161L530 160L639 160M241 267L140 267L198 574L197 574L122 544L113 612L227 657L315 657L241 267M209-12L128-12L622 662L703 662L209-12Z"  horiz-adv-x="842" vert-adv-y="1000"  />

      
      <glyph glyph-name="unibd" unicode="&#xbd;" d="M234 267L133 267L191 574L190 574L115 544L105 612L220 657L308 657L234 267M184-12L107-12L605 662L682 662L184-12M751 0L445 0L454 50L533 107Q620 171 655 205Q690 239 690 273Q690 292 676.50 305Q663 318 633 318Q586 318 539 286L518 346Q584 395 667 395Q722 395 759.50 367.50Q797 340 797 288Q797 260 785.50 235Q774 210 747 185Q720 160 699.50 144Q679 128 637 99L604 76L604 74L765 74L751 0Z"  horiz-adv-x="842" vert-adv-y="1000"  />

      
      <glyph glyph-name="unibe" unicode="&#xbe;" d="M244-12L164-12L657 662L738 662L244-12M119 561L108 623Q165 662 247 662Q302 662 340 637Q378 612 378 572Q378 504 277 477L277 475Q310 469 334 445.50Q358 422 358 389Q358 329 306 295.50Q254 262 176 262Q84 262 36 297L69 362Q113 331 169 331Q207 331 230.50 348Q254 365 254 389Q254 415 227.50 429.50Q201 444 162 444L142 444L154 503L175 503Q211 503 241.50 517.50Q272 532 272 556Q272 593 218 593Q165 593 119 561M716 0L620 0L638 96L430 96L441 149L674 395L790 395L745 160L803 160L791 96L733 96L716 0M650 160L668 257Q670 267 673 278.50Q676 290 680 304Q684 318 686 326L683 326Q648 277 636 263L540 161L542 160L650 160Z"  horiz-adv-x="842" vert-adv-y="1000"  />

      
      <glyph glyph-name="unibf" unicode="&#xbf;" d="M194 270L314 270L311 240Q300 159 212 71Q180 39 167.50 26Q155 13 141-10Q127-33 127-51Q127-108 195-109Q262-109 311-79L333-163Q259-207 165-207Q94-207 48-169Q2-131 2-70Q2-21 29 20Q56 61 113 116Q176 176 189 242L194 270M285 490L286 490Q317 490 337.50 469Q358 448 358 417Q358 379 334 353.50Q310 328 272 328Q240 328 219 349Q198 370 198 404Q198 441 222 465.50Q246 490 285 490Z"  horiz-adv-x="445" vert-adv-y="1000"  />

      
      <glyph glyph-name="unic0" unicode="&#xc0;" d="M441 197L205 197L105 0L-27 0L331 674L487 674L596 0L467 0L441 197M246 292L432 292L407 462Q406 465 391 580L389 580Q383 569 364.50 527Q346 485 334 463L246 292M249 834L390 834L464 712L360 712L249 834Z"  horiz-adv-x="649" vert-adv-y="1000"  />

      
      <glyph glyph-name="unic1" unicode="&#xc1;" d="M441 197L205 197L105 0L-27 0L331 674L487 674L596 0L467 0L441 197M246 292L432 292L407 462Q406 465 391 580L389 580Q383 569 364.50 527Q346 485 334 463L246 292M437 834L583 834L452 710L344 710L437 834Z"  horiz-adv-x="649" vert-adv-y="1000"  />

      
      <glyph glyph-name="unic2" unicode="&#xc2;" d="M441 197L205 197L105 0L-27 0L331 674L487 674L596 0L467 0L441 197M246 292L432 292L407 462Q406 465 391 580L389 580Q383 569 364.50 527Q346 485 334 463L246 292M384 834L479 834L564 710L474 710L426 777L424 777L356 710L257 710L384 834Z"  horiz-adv-x="649" vert-adv-y="1000"  />

      
      <glyph glyph-name="unic3" unicode="&#xc3;" d="M441 197L205 197L105 0L-27 0L331 674L487 674L596 0L467 0L441 197M246 292L432 292L407 462Q406 465 391 580L389 580Q383 569 364.50 527Q346 485 334 463L246 292M331 714L269 714Q278 770 303 801.50Q328 833 363 833Q396 833 429 812Q458 793 473 793Q495 793 508 836L569 836Q550 721 473 721Q442 721 409 740Q377 760 365 759Q343 759 331 714Z"  horiz-adv-x="649" vert-adv-y="1000"  />

      
      <glyph glyph-name="unic4" unicode="&#xc4;" d="M441 197L205 197L105 0L-27 0L331 674L487 674L596 0L467 0L441 197M246 292L432 292L407 462Q406 465 391 580L389 580Q383 569 364.50 527Q346 485 334 463L246 292M309 714L308 714Q284 714 267 730Q250 746 250 771Q250 800 269.50 819Q289 838 317 838Q343 838 359 821Q375 804 375 780Q375 751 356 732.50Q337 714 309 714M516 714L515 714Q491 714 474 730Q457 746 457 771Q457 800 476.50 819Q496 838 524 838Q550 838 566 821Q582 804 582 780Q582 751 563 732.50Q544 714 516 714Z"  horiz-adv-x="649" vert-adv-y="1000"  />

      
      <glyph glyph-name="unic5" unicode="&#xc5;" d="M441 197L205 197L105 0L-27 0L331 674L487 674L596 0L467 0L441 197M246 292L432 292L407 462Q406 465 391 580L389 580Q383 569 364.50 527Q346 485 334 463L246 292M432 887L433 887Q476 887 506 862.50Q536 838 536 796Q535 750 501.50 723.50Q468 697 418 697Q376 697 346 721Q316 745 315 784Q314 830 347 858.50Q380 887 432 887M428 842L427 842Q406 842 392.50 827Q379 812 379 788Q379 769 391 755.50Q403 742 422 742Q444 742 458 757Q472 772 472 793Q472 815 460 828.50Q448 842 428 842Z"  horiz-adv-x="649" vert-adv-y="1000"  />

      
      <glyph glyph-name="unic6" unicode="&#xc6;" d="M83 0L-49 0L415 674L891 674L871 571L589 571L574 399L842 399L822 296L571 296L556 103L838 103L818 0L432 0L448 212L227 212L83 0M291 314L454 314L468 489Q469 504 471 536.50Q473 569 474 582L471 582Q441 533 416 497L291 314Z"  horiz-adv-x="899" vert-adv-y="1000"  />

      
      <glyph glyph-name="unic7" unicode="&#xc7;" d="M562 124L578 28Q499-10 398-11L371-46Q398-52 414-69.50Q430-87 430-112Q430-156 393-179Q356-202 308-202Q258-202 233-182L255-133Q279-148 308-148Q325-148 336.50-140.50Q348-133 348-118Q348-86 278-81L329-9Q202 3 127.50 79.50Q53 156 53 288Q53 389 98 472Q143 555 222 607Q337 686 491 686Q551 686 597 675Q643 664 663 650L627 554Q575 583 477 583Q364 583 286 519Q239 482 212 425Q185 368 185 300Q185 206 240.50 148.50Q296 91 405 91Q498 91 562 124Z"  horiz-adv-x="637" vert-adv-y="1000"  />

      
      <glyph glyph-name="unic8" unicode="&#xc8;" d="M496 400L476 297L206 297L169 103L472 103L453 0L28 0L156 674L565 674L545 571L258 571L225 400L496 400M224 834L365 834L439 712L335 712L224 834Z"  horiz-adv-x="538" vert-adv-y="1000"  />

      
      <glyph glyph-name="unic9" unicode="&#xc9;" d="M496 400L476 297L206 297L169 103L472 103L453 0L28 0L156 674L565 674L545 571L258 571L225 400L496 400M389 834L535 834L404 710L296 710L389 834Z"  horiz-adv-x="538" vert-adv-y="1000"  />

      
      <glyph glyph-name="unica" unicode="&#xca;" d="M496 400L476 297L206 297L169 103L472 103L453 0L28 0L156 674L565 674L545 571L258 571L225 400L496 400M337 834L432 834L517 710L427 710L379 777L377 777L309 710L210 710L337 834Z"  horiz-adv-x="538" vert-adv-y="1000"  />

      
      <glyph glyph-name="unicb" unicode="&#xcb;" d="M496 400L476 297L206 297L169 103L472 103L453 0L28 0L156 674L565 674L545 571L258 571L225 400L496 400M273 714L272 714Q248 714 231 730Q214 746 214 771Q214 800 233.50 819Q253 838 281 838Q307 838 323 821Q339 804 339 780Q339 751 320 732.50Q301 714 273 714M480 714L479 714Q455 714 438 730Q421 746 421 771Q421 800 440.50 819Q460 838 488 838Q514 838 530 821Q546 804 546 780Q546 751 527 732.50Q508 714 480 714Z"  horiz-adv-x="538" vert-adv-y="1000"  />

      
      <glyph glyph-name="unicc" unicode="&#xcc;" d="M153 674L274 674L146 0L25 0L153 674M74 834L215 834L289 712L185 712L74 834Z"  horiz-adv-x="267" vert-adv-y="1000"  />

      
      <glyph glyph-name="unicd" unicode="&#xcd;" d="M153 674L274 674L146 0L25 0L153 674M243 834L389 834L258 710L150 710L243 834Z"  horiz-adv-x="267" vert-adv-y="1000"  />

      
      <glyph glyph-name="unice" unicode="&#xce;" d="M153 674L274 674L146 0L25 0L153 674M186 834L281 834L366 710L276 710L228 777L226 777L158 710L59 710L186 834Z"  horiz-adv-x="267" vert-adv-y="1000"  />

      
      <glyph glyph-name="unicf" unicode="&#xcf;" d="M153 674L274 674L146 0L25 0L153 674M122 714L121 714Q97 714 80 730Q63 746 63 771Q63 800 82.50 819Q102 838 130 838Q156 838 172 821Q188 804 188 780Q188 751 169 732.50Q150 714 122 714M329 714L328 714Q304 714 287 730Q270 746 270 771Q270 800 289.50 819Q309 838 337 838Q363 838 379 821Q395 804 395 780Q395 751 376 732.50Q357 714 329 714Z"  horiz-adv-x="267" vert-adv-y="1000"  />

      
      <glyph glyph-name="unid0" unicode="&#xd0;" d="M11 297L32 401L117 401L167 664Q265 679 365 679Q551 679 638 599Q728 529 728 390Q728 305 692 227.50Q656 150 589 97Q464-4 238-4Q133-4 41 7L97 297L11 297M405 401L385 297L220 297L182 98Q219 94 272 94Q421 94 508 176Q595 257 595 381Q595 477 538.50 529Q482 581 365 581Q306 581 274 576L240 401L405 401Z"  horiz-adv-x="745" vert-adv-y="1000"  />

      
      <glyph glyph-name="unid1" unicode="&#xd1;" d="M144 0L28 0L156 674L303 674L441 360Q480 264 510 146L513 147Q514 222 540 360L599 674L716 674L588 0L459 0L318 327Q266 461 244 543L240 542Q231 457 201 303L144 0M369 714L307 714Q316 770 341 801.50Q366 833 401 833Q434 833 467 812Q495 793 511 793Q533 793 546 836L607 836Q588 721 511 721Q480 721 447 740Q415 760 403 759Q381 759 369 714Z"  horiz-adv-x="708" vert-adv-y="1000"  />

      
      <glyph glyph-name="unid2" unicode="&#xd2;" d="M355-12L354-12Q215-12 133.50 70Q52 152 52 286Q52 464 174 581Q284 686 444 686Q587 686 666.50 604Q746 522 746 386Q746 210 629 95Q520-12 355-12M371 88L372 88Q463 88 530 157Q616 243 616 379Q616 420 607 454.50Q598 489 578.50 519.50Q559 550 521 568Q483 586 430 586Q339 586 270 517Q182 429 182 295Q182 201 229.50 144.50Q277 88 371 88M309 834L450 834L524 712L420 712L309 834Z"  horiz-adv-x="763" vert-adv-y="1000"  />

      
      <glyph glyph-name="unid3" unicode="&#xd3;" d="M355-12L354-12Q215-12 133.50 70Q52 152 52 286Q52 464 174 581Q284 686 444 686Q587 686 666.50 604Q746 522 746 386Q746 210 629 95Q520-12 355-12M371 88L372 88Q463 88 530 157Q616 243 616 379Q616 420 607 454.50Q598 489 578.50 519.50Q559 550 521 568Q483 586 430 586Q339 586 270 517Q182 429 182 295Q182 201 229.50 144.50Q277 88 371 88M488 837L634 837L503 713L395 713L488 837Z"  horiz-adv-x="763" vert-adv-y="1000"  />

      
      <glyph glyph-name="unid4" unicode="&#xd4;" d="M355-12L354-12Q215-12 133.50 70Q52 152 52 286Q52 464 174 581Q284 686 444 686Q587 686 666.50 604Q746 522 746 386Q746 210 629 95Q520-12 355-12M371 88L372 88Q463 88 530 157Q616 243 616 379Q616 420 607 454.50Q598 489 578.50 519.50Q559 550 521 568Q483 586 430 586Q339 586 270 517Q182 429 182 295Q182 201 229.50 144.50Q277 88 371 88M430 834L525 834L610 710L520 710L472 777L470 777L402 710L303 710L430 834Z"  horiz-adv-x="763" vert-adv-y="1000"  />

      
      <glyph glyph-name="unid5" unicode="&#xd5;" d="M355-12L354-12Q215-12 133.50 70Q52 152 52 286Q52 464 174 581Q284 686 444 686Q587 686 666.50 604Q746 522 746 386Q746 210 629 95Q520-12 355-12M371 88L372 88Q463 88 530 157Q616 243 616 379Q616 420 607 454.50Q598 489 578.50 519.50Q559 550 521 568Q483 586 430 586Q339 586 270 517Q182 429 182 295Q182 201 229.50 144.50Q277 88 371 88M387 714L325 714Q334 770 359 801.50Q384 833 419 833Q452 833 485 812Q513 793 529 793Q551 793 564 836L625 836Q606 721 529 721Q498 721 465 740Q433 760 421 759Q399 759 387 714Z"  horiz-adv-x="763" vert-adv-y="1000"  />

      
      <glyph glyph-name="unid6" unicode="&#xd6;" d="M355-12L354-12Q215-12 133.50 70Q52 152 52 286Q52 464 174 581Q284 686 444 686Q587 686 666.50 604Q746 522 746 386Q746 210 629 95Q520-12 355-12M371 88L372 88Q463 88 530 157Q616 243 616 379Q616 420 607 454.50Q598 489 578.50 519.50Q559 550 521 568Q483 586 430 586Q339 586 270 517Q182 429 182 295Q182 201 229.50 144.50Q277 88 371 88M368 714L367 714Q343 714 326 730Q309 746 309 771Q309 800 328.50 819Q348 838 376 838Q402 838 418 821Q434 804 434 780Q434 751 415 732.50Q396 714 368 714M575 714L574 714Q550 714 533 730Q516 746 516 771Q516 800 535.50 819Q555 838 583 838Q609 838 625 821Q641 804 641 780Q641 751 622 732.50Q603 714 575 714Z"  horiz-adv-x="763" vert-adv-y="1000"  />

      
      <glyph glyph-name="unid7" unicode="&#xd7;" d="M47 468L105 526L298 318L492 526L549 469L353 263L549 58L491 0L297 208L103 0L47 59L241 263L47 468Z"  horiz-adv-x="596" vert-adv-y="1000"  />

      
      <glyph glyph-name="unid8" unicode="&#xd8;" d="M98-59L38 1L118 86Q53 170 53 292Q53 460 173 577Q226 628 296 657Q366 686 441 686Q556 686 623 634L708 724L773 668L687 577Q746 502 746 381Q746 299 715 224.50Q684 150 628 95Q577 45 506.50 16.50Q436-12 362-12Q255-12 187 36L98-59M204 180L549 552Q507 586 435 586Q353 586 287.50 533.50Q222 481 195 398Q176 348 177.50 287.50Q179 227 202 180L204 180M600 481L262 118Q302 88 372 88Q448 88 510.50 136.50Q573 185 602 265Q644 380 602 481L600 481Z"  horiz-adv-x="763" vert-adv-y="1000"  />

      
      <glyph glyph-name="unid9" unicode="&#xd9;" d="M155 674L277 674L206 298Q198 260 198 214Q198 156 232 122.50Q266 89 325 89Q473 89 513 298L585 674L707 674L635 297Q604 137 524.50 62.50Q445-12 309-12Q202-13 139 44Q76 101 76 214Q76 254 85 306L155 674M290 834L431 834L505 712L401 712L290 834Z"  horiz-adv-x="697" vert-adv-y="1000"  />

      
      <glyph glyph-name="unida" unicode="&#xda;" d="M155 674L277 674L206 298Q198 260 198 214Q198 156 232 122.50Q266 89 325 89Q473 89 513 298L585 674L707 674L635 297Q604 137 524.50 62.50Q445-12 309-12Q202-13 139 44Q76 101 76 214Q76 254 85 306L155 674M457 834L603 834L472 710L364 710L457 834Z"  horiz-adv-x="697" vert-adv-y="1000"  />

      
      <glyph glyph-name="unidb" unicode="&#xdb;" d="M155 674L277 674L206 298Q198 260 198 214Q198 156 232 122.50Q266 89 325 89Q473 89 513 298L585 674L707 674L635 297Q604 137 524.50 62.50Q445-12 309-12Q202-13 139 44Q76 101 76 214Q76 254 85 306L155 674M412 834L507 834L592 710L502 710L454 777L452 777L384 710L285 710L412 834Z"  horiz-adv-x="697" vert-adv-y="1000"  />

      
      <glyph glyph-name="unidc" unicode="&#xdc;" d="M155 674L277 674L206 298Q198 260 198 214Q198 156 232 122.50Q266 89 325 89Q473 89 513 298L585 674L707 674L635 297Q604 137 524.50 62.50Q445-12 309-12Q202-13 139 44Q76 101 76 214Q76 254 85 306L155 674M338 714L337 714Q313 714 296 730Q279 746 279 771Q279 800 298.50 819Q318 838 346 838Q372 838 388 821Q404 804 404 780Q404 751 385 732.50Q366 714 338 714M545 714L544 714Q520 714 503 730Q486 746 486 771Q486 800 505.50 819Q525 838 553 838Q579 838 595 821Q611 804 611 780Q611 751 592 732.50Q573 714 545 714Z"  horiz-adv-x="697" vert-adv-y="1000"  />

      
      <glyph glyph-name="unidd" unicode="&#xdd;" d="M296 0L175 0L228 279L76 674L206 674L270 477Q300 379 303 364L305 364Q358 447 380 481L511 674L660 674L350 282L296 0M394 834L540 834L409 710L301 710L394 834Z"  horiz-adv-x="598" vert-adv-y="1000"  />

      
      <glyph glyph-name="unide" unicode="&#xde;" d="M28 0L156 674L275 674L251 547Q281 553 335 553Q446 553 502 503Q559 455 559 377Q559 296 515 239.50Q471 183 404.50 158.50Q338 134 256 134Q204 134 174 140L147 0L28 0M232 450L192 240Q221 233 266 233Q336 233 386 267.50Q436 302 436 361Q436 457 306 457Q265 457 232 450Z"  horiz-adv-x="573" vert-adv-y="1000"  />

      
      <glyph glyph-name="unidf" unicode="&#xdf;" d="M148 0L26 0L113 460Q136 584 204.50 656Q273 728 392 728Q470 728 523 685.50Q576 643 576 569Q576 541 564.50 512Q553 483 535 466Q455 433 455 380Q455 349 489 301Q539 233 539 173Q539 83 478.50 35.50Q418-12 325-12Q256-12 213 14L243 103Q281 83 323 83Q364 83 389.50 103.50Q415 124 415 160Q415 195 381 240Q329 308 329 357Q329 404 359.50 441Q390 478 437 500Q456 521 456 554Q456 586 435 607.50Q414 629 375 629Q324 629 287.50 588Q251 547 236 465L148 0Z"  horiz-adv-x="598" vert-adv-y="1000"  />

      
      <glyph glyph-name="unie0" unicode="&#xe0;" d="M488 0L374 0Q374 38 383 117L381 117Q313-12 190-12Q120-12 75.50 37Q31 86 31 162Q31 300 129.50 399.50Q228 499 397 499Q476 499 557 476L508 229Q484 108 488 0M397 286L420 399Q396 405 365 405Q282 405 220.50 338Q159 271 159 182Q159 140 179 113Q199 86 239 86Q288 86 334 138.50Q380 191 397 286M227 698L353 698L429 547L340 547L227 698Z"  horiz-adv-x="584" vert-adv-y="1000"  />

      
      <glyph glyph-name="unie1" unicode="&#xe1;" d="M488 0L374 0Q374 38 383 117L381 117Q313-12 190-12Q120-12 75.50 37Q31 86 31 162Q31 300 129.50 399.50Q228 499 397 499Q476 499 557 476L508 229Q484 108 488 0M397 286L420 399Q396 405 365 405Q282 405 220.50 338Q159 271 159 182Q159 140 179 113Q199 86 239 86Q288 86 334 138.50Q380 191 397 286M418 698L548 698L412 547L319 547L418 698Z"  horiz-adv-x="584" vert-adv-y="1000"  />

      
      <glyph glyph-name="unie2" unicode="&#xe2;" d="M488 0L374 0Q374 38 383 117L381 117Q313-12 190-12Q120-12 75.50 37Q31 86 31 162Q31 300 129.50 399.50Q228 499 397 499Q476 499 557 476L508 229Q484 108 488 0M397 286L420 399Q396 405 365 405Q282 405 220.50 338Q159 271 159 182Q159 140 179 113Q199 86 239 86Q288 86 334 138.50Q380 191 397 286M349 698L435 698L512 547L429 547L384 634L382 634L316 547L225 547L349 698Z"  horiz-adv-x="584" vert-adv-y="1000"  />

      
      <glyph glyph-name="unie3" unicode="&#xe3;" d="M488 0L374 0Q374 38 383 117L381 117Q313-12 190-12Q120-12 75.50 37Q31 86 31 162Q31 300 129.50 399.50Q228 499 397 499Q476 499 557 476L508 229Q484 108 488 0M397 286L420 399Q396 405 365 405Q282 405 220.50 338Q159 271 159 182Q159 140 179 113Q199 86 239 86Q288 86 334 138.50Q380 191 397 286M284 563L222 563Q230 619 254 650Q278 681 314 681Q340 681 379 659Q409 641 421 641Q434 641 441 650.50Q448 660 454 686L515 686Q498 570 423 570Q387 570 356 592Q331 609 315 609Q295 609 284 563Z"  horiz-adv-x="584" vert-adv-y="1000"  />

      
      <glyph glyph-name="unie4" unicode="&#xe4;" d="M488 0L374 0Q374 38 383 117L381 117Q313-12 190-12Q120-12 75.50 37Q31 86 31 162Q31 300 129.50 399.50Q228 499 397 499Q476 499 557 476L508 229Q484 108 488 0M397 286L420 399Q396 405 365 405Q282 405 220.50 338Q159 271 159 182Q159 140 179 113Q199 86 239 86Q288 86 334 138.50Q380 191 397 286M260 563L259 563Q234 563 216.50 579.50Q199 596 199 622Q199 652 219 671Q239 690 268 690Q294 690 310.50 673Q327 656 327 630Q327 601 307.50 582Q288 563 260 563M466 563L465 563Q440 563 423 579.50Q406 596 406 622Q406 652 425.50 671Q445 690 475 690Q501 690 517 673Q533 656 533 630Q533 600 514 581.50Q495 563 466 563Z"  horiz-adv-x="584" vert-adv-y="1000"  />

      
      <glyph glyph-name="unie5" unicode="&#xe5;" d="M488 0L374 0Q374 38 383 117L381 117Q313-12 190-12Q120-12 75.50 37Q31 86 31 162Q31 300 129.50 399.50Q228 499 397 499Q476 499 557 476L508 229Q484 108 488 0M397 286L420 399Q396 405 365 405Q282 405 220.50 338Q159 271 159 182Q159 140 179 113Q199 86 239 86Q288 86 334 138.50Q380 191 397 286M376 733L377 733Q421 733 451 708Q481 683 481 638Q480 591 445.50 563.50Q411 536 361 536Q318 536 288 561Q258 586 257 627Q256 674 290 703.50Q324 733 376 733M371 687L370 687Q348 687 334 671Q320 655 320 631Q320 610 333 596Q346 582 366 582Q388 582 403 598Q418 614 418 638Q418 659 405 673Q392 687 371 687Z"  horiz-adv-x="584" vert-adv-y="1000"  />

      
      <glyph glyph-name="unie6" unicode="&#xe6;" d="M710 118L717 32Q640-12 534-12Q473-12 427 14.50Q381 41 362 88L359 88Q325 41 273 14.50Q221-12 159-12Q90-12 48 25.50Q6 63 6 121Q6 188 55.50 234Q105 280 180 300Q255 320 347 318L349 328Q354 357 332 384.50Q310 412 257 412Q181 412 111 366L89 443Q174 499 271 499Q392 499 421 407L423 407Q454 451 505 475Q556 499 615 499Q696 499 739 460Q782 421 782 368Q782 326 763.50 295.50Q745 265 713 248.50Q681 232 637.50 223Q594 214 543 213.50Q492 213 436 214Q429 169 446 137Q478 84 559 84Q633 84 710 118M327 193L334 236Q303 237 272 233.50Q241 230 207 221Q173 212 152 191Q131 170 131 140Q131 112 149 97Q167 82 199 82Q244 82 280.50 112Q317 142 327 193M662 358L662 359Q662 381 643.50 396Q625 411 593 411Q538 411 499 374.50Q460 338 450 300Q551 295 606.50 305.50Q662 316 662 358Z"  horiz-adv-x="803" vert-adv-y="1000"  />

      
      <glyph glyph-name="unie7" unicode="&#xe7;" d="M399 112L406 21Q350-7 292-10L265-47Q291-53 307.50-71Q324-89 324-114Q324-158 288-181.50Q252-205 205-205Q151-205 126-185L148-133Q175-149 204-149Q220-149 231.50-141Q243-133 243-118Q243-87 171-82L222-10Q131-4 82 51Q33 106 33 189Q33 320 126.50 409.50Q220 499 361 499Q424 499 475 477L444 384Q406 402 358 402Q270 402 215.50 342Q161 282 161 202Q161 147 194 116Q227 85 281 85Q338 85 399 112Z"  horiz-adv-x="472" vert-adv-y="1000"  />

      
      <glyph glyph-name="unie8" unicode="&#xe8;" d="M423 117L435 30Q356-12 248-12Q144-12 88.50 44.50Q33 101 33 198Q33 316 116.50 407.50Q200 499 325 499Q402 499 449.50 461Q497 423 497 358Q497 269 407 233Q317 197 151 201Q147 165 166 134Q198 83 276 83Q357 83 423 117M380 360L380 361Q380 383 360.50 397Q341 411 310 411Q253 411 214 373.50Q175 336 163 291Q274 290 327 305Q380 320 380 360M189 698L315 698L391 547L302 547L189 698Z"  horiz-adv-x="518" vert-adv-y="1000"  />

      
      <glyph glyph-name="unie9" unicode="&#xe9;" d="M423 117L435 30Q356-12 248-12Q144-12 88.50 44.50Q33 101 33 198Q33 316 116.50 407.50Q200 499 325 499Q402 499 449.50 461Q497 423 497 358Q497 269 407 233Q317 197 151 201Q147 165 166 134Q198 83 276 83Q357 83 423 117M380 360L380 361Q380 383 360.50 397Q341 411 310 411Q253 411 214 373.50Q175 336 163 291Q274 290 327 305Q380 320 380 360M369 698L499 698L363 547L270 547L369 698Z"  horiz-adv-x="518" vert-adv-y="1000"  />

      
      <glyph glyph-name="uniea" unicode="&#xea;" d="M423 117L435 30Q356-12 248-12Q144-12 88.50 44.50Q33 101 33 198Q33 316 116.50 407.50Q200 499 325 499Q402 499 449.50 461Q497 423 497 358Q497 269 407 233Q317 197 151 201Q147 165 166 134Q198 83 276 83Q357 83 423 117M380 360L380 361Q380 383 360.50 397Q341 411 310 411Q253 411 214 373.50Q175 336 163 291Q274 290 327 305Q380 320 380 360M308 698L394 698L471 547L388 547L343 634L341 634L275 547L184 547L308 698Z"  horiz-adv-x="518" vert-adv-y="1000"  />

      
      <glyph glyph-name="unieb" unicode="&#xeb;" d="M423 117L435 30Q356-12 248-12Q144-12 88.50 44.50Q33 101 33 198Q33 316 116.50 407.50Q200 499 325 499Q402 499 449.50 461Q497 423 497 358Q497 269 407 233Q317 197 151 201Q147 165 166 134Q198 83 276 83Q357 83 423 117M380 360L380 361Q380 383 360.50 397Q341 411 310 411Q253 411 214 373.50Q175 336 163 291Q274 290 327 305Q380 320 380 360M236 563L235 563Q210 563 192.50 579.50Q175 596 175 622Q175 652 195 671Q215 690 244 690Q270 690 286.50 673Q303 656 303 630Q303 601 283.50 582Q264 563 236 563M442 563L441 563Q416 563 399 579.50Q382 596 382 622Q382 652 401.50 671Q421 690 451 690Q477 690 493 673Q509 656 509 630Q509 600 490 581.50Q471 563 442 563Z"  horiz-adv-x="518" vert-adv-y="1000"  />

      
      <glyph glyph-name="uniec" unicode="&#xec;" d="M147 0L26 0L119 487L240 487L147 0M39 698L165 698L241 547L152 547L39 698Z"  horiz-adv-x="265" vert-adv-y="1000"  />

      
      <glyph glyph-name="unied" unicode="&#xed;" d="M147 0L26 0L119 487L240 487L147 0M229 698L359 698L223 547L130 547L229 698Z"  horiz-adv-x="265" vert-adv-y="1000"  />

      
      <glyph glyph-name="uniee" unicode="&#xee;" d="M147 0L26 0L119 487L240 487L147 0M167 698L253 698L330 547L247 547L202 634L200 634L134 547L43 547L167 698Z"  horiz-adv-x="265" vert-adv-y="1000"  />

      
      <glyph glyph-name="unief" unicode="&#xef;" d="M147 0L26 0L119 487L240 487L147 0M96 563L95 563Q70 563 52.50 579.50Q35 596 35 622Q35 652 55 671Q75 690 104 690Q130 690 146.50 673Q163 656 163 630Q163 601 143.50 582Q124 563 96 563M302 563L301 563Q276 563 259 579.50Q242 596 242 622Q242 652 261.50 671Q281 690 311 690Q337 690 353 673Q369 656 369 630Q369 600 350 581.50Q331 563 302 563Z"  horiz-adv-x="265" vert-adv-y="1000"  />

      
      <glyph glyph-name="unif0" unicode="&#xf0;" d="M264 82L265 82Q333 82 377.50 140.50Q422 199 422 282Q422 324 405 347Q375 386 316 386Q249 386 204 329.50Q159 273 159 200Q159 149 187 115.50Q215 82 264 82M163 488L146 543L277 598Q239 628 182 650L233 721Q311 695 385 641L538 703L557 648L437 600Q552 492 552 323Q552 167 466 77.50Q380-12 253-12Q152-12 92 46Q32 104 32 198Q32 317 114 396.50Q196 476 309 476Q377 476 413 434L416 435Q388 508 331 558L163 488Z"  horiz-adv-x="586" vert-adv-y="1000"  />

      
      <glyph glyph-name="unif1" unicode="&#xf1;" d="M147 0L25 0L89 340Q101 396 114 487L223 487L211 394L213 394Q284 499 402 499Q461 499 499.50 463.50Q538 428 538 355Q538 321 530 277L477 0L356 0L405 264Q411 298 411 322Q411 401 342 401Q295 401 248.50 349.50Q202 298 186 213L147 0M279 563L217 563Q225 619 249 650Q273 681 309 681Q336 681 374 659Q404 641 416 641Q429 641 436 650.50Q443 660 449 686L510 686Q493 570 418 570Q382 570 351 592Q326 609 310 609Q290 609 279 563Z"  horiz-adv-x="593" vert-adv-y="1000"  />

      
      <glyph glyph-name="unif2" unicode="&#xf2;" d="M257-12L256-12Q159-12 97.50 46.50Q36 105 36 200Q36 328 121 413.50Q206 499 335 499Q436 499 497 438.50Q558 378 558 285Q558 156 472.50 72Q387-12 257-12M273 82L274 82Q340 82 385.50 142.50Q431 203 431 281Q431 329 404.50 367Q378 405 322 405Q250 405 206.50 341.50Q163 278 163 202Q163 147 193.50 114.50Q224 82 273 82M200 698L326 698L402 547L313 547L200 698Z"  horiz-adv-x="592" vert-adv-y="1000"  />

      
      <glyph glyph-name="unif3" unicode="&#xf3;" d="M257-12L256-12Q159-12 97.50 46.50Q36 105 36 200Q36 328 121 413.50Q206 499 335 499Q436 499 497 438.50Q558 378 558 285Q558 156 472.50 72Q387-12 257-12M273 82L274 82Q340 82 385.50 142.50Q431 203 431 281Q431 329 404.50 367Q378 405 322 405Q250 405 206.50 341.50Q163 278 163 202Q163 147 193.50 114.50Q224 82 273 82M386 698L516 698L380 547L287 547L386 698Z"  horiz-adv-x="592" vert-adv-y="1000"  />

      
      <glyph glyph-name="unif4" unicode="&#xf4;" d="M257-12L256-12Q159-12 97.50 46.50Q36 105 36 200Q36 328 121 413.50Q206 499 335 499Q436 499 497 438.50Q558 378 558 285Q558 156 472.50 72Q387-12 257-12M273 82L274 82Q340 82 385.50 142.50Q431 203 431 281Q431 329 404.50 367Q378 405 322 405Q250 405 206.50 341.50Q163 278 163 202Q163 147 193.50 114.50Q224 82 273 82M329 698L415 698L492 547L409 547L364 634L362 634L296 547L205 547L329 698Z"  horiz-adv-x="592" vert-adv-y="1000"  />

      
      <glyph glyph-name="unif5" unicode="&#xf5;" d="M257-12L256-12Q159-12 97.50 46.50Q36 105 36 200Q36 328 121 413.50Q206 499 335 499Q436 499 497 438.50Q558 378 558 285Q558 156 472.50 72Q387-12 257-12M273 82L274 82Q340 82 385.50 142.50Q431 203 431 281Q431 329 404.50 367Q378 405 322 405Q250 405 206.50 341.50Q163 278 163 202Q163 147 193.50 114.50Q224 82 273 82M265 563L203 563Q211 619 235 650Q259 681 295 681Q322 681 360 659Q390 641 402 641Q415 641 422 650.50Q429 660 435 686L496 686Q479 570 404 570Q368 570 337 592Q312 609 296 609Q276 609 265 563Z"  horiz-adv-x="592" vert-adv-y="1000"  />

      
      <glyph glyph-name="unif6" unicode="&#xf6;" d="M257-12L256-12Q159-12 97.50 46.50Q36 105 36 200Q36 328 121 413.50Q206 499 335 499Q436 499 497 438.50Q558 378 558 285Q558 156 472.50 72Q387-12 257-12M273 82L274 82Q340 82 385.50 142.50Q431 203 431 281Q431 329 404.50 367Q378 405 322 405Q250 405 206.50 341.50Q163 278 163 202Q163 147 193.50 114.50Q224 82 273 82M255 563L254 563Q229 563 211.50 579.50Q194 596 194 622Q194 652 214 671Q234 690 263 690Q289 690 305.50 673Q322 656 322 630Q322 601 302.50 582Q283 563 255 563M461 563L460 563Q435 563 418 579.50Q401 596 401 622Q401 652 420.50 671Q440 690 470 690Q496 690 512 673Q528 656 528 630Q528 600 509 581.50Q490 563 461 563Z"  horiz-adv-x="592" vert-adv-y="1000"  />

      
      <glyph glyph-name="unif7" unicode="&#xf7;" d="M302 374L301 374Q271 374 252.50 393.50Q234 413 234 443Q234 475 253 494Q272 513 302 513Q333 513 351 494Q369 475 370 443Q370 413 351 393.50Q332 374 302 374M553 227L50 227L50 307L553 307L553 227M302 21L301 21Q271 21 252.50 40.50Q234 60 234 90Q234 122 253 141Q272 160 302 160Q333 160 351 141Q369 122 370 90Q370 60 351 40.50Q332 21 302 21Z"  horiz-adv-x="596" vert-adv-y="1000"  />

      
      <glyph glyph-name="unif8" unicode="&#xf8;" d="M63-51L28-14L90 55Q36 110 36 205Q36 330 121 414.50Q206 499 334 499Q410 499 460 466L524 536L563 499L502 433Q559 375 559 286Q559 151 472.50 69.50Q386-12 266-12Q183-12 131 24L63-51M176 149L389 388Q363 409 319 409Q250 409 205 344.50Q160 280 160 212Q160 172 174 149L176 149M418 338L202 101Q231 78 276 78Q339 78 386.50 138.50Q434 199 434 274Q434 309 421 338L418 338Z"  horiz-adv-x="592" vert-adv-y="1000"  />

      
      <glyph glyph-name="unif9" unicode="&#xf9;" d="M441 487L562 487L498 147Q483 72 473 0L365 0L377 90L375 90Q298-12 192-12Q130-12 91 22.50Q52 57 52 137Q52 173 62 222L112 487L234 487L185 230Q178 188 178 165Q178 88 249 88Q295 88 339 137.50Q383 187 398 266L441 487M198 698L324 698L400 547L311 547L198 698Z"  horiz-adv-x="587" vert-adv-y="1000"  />

      
      <glyph glyph-name="unifa" unicode="&#xfa;" d="M441 487L562 487L498 147Q483 72 473 0L365 0L377 90L375 90Q298-12 192-12Q130-12 91 22.50Q52 57 52 137Q52 173 62 222L112 487L234 487L185 230Q178 188 178 165Q178 88 249 88Q295 88 339 137.50Q383 187 398 266L441 487M380 698L510 698L374 547L281 547L380 698Z"  horiz-adv-x="587" vert-adv-y="1000"  />

      
      <glyph glyph-name="unifb" unicode="&#xfb;" d="M441 487L562 487L498 147Q483 72 473 0L365 0L377 90L375 90Q298-12 192-12Q130-12 91 22.50Q52 57 52 137Q52 173 62 222L112 487L234 487L185 230Q178 188 178 165Q178 88 249 88Q295 88 339 137.50Q383 187 398 266L441 487M333 698L419 698L496 547L413 547L368 634L366 634L300 547L209 547L333 698Z"  horiz-adv-x="587" vert-adv-y="1000"  />

      
      <glyph glyph-name="unifc" unicode="&#xfc;" d="M441 487L562 487L498 147Q483 72 473 0L365 0L377 90L375 90Q298-12 192-12Q130-12 91 22.50Q52 57 52 137Q52 173 62 222L112 487L234 487L185 230Q178 188 178 165Q178 88 249 88Q295 88 339 137.50Q383 187 398 266L441 487M254 563L253 563Q228 563 210.50 579.50Q193 596 193 622Q193 652 213 671Q233 690 262 690Q288 690 304.50 673Q321 656 321 630Q321 601 301.50 582Q282 563 254 563M460 563L459 563Q434 563 417 579.50Q400 596 400 622Q400 652 419.50 671Q439 690 469 690Q495 690 511 673Q527 656 527 630Q527 600 508 581.50Q489 563 460 563Z"  horiz-adv-x="587" vert-adv-y="1000"  />

      
      <glyph glyph-name="unifd" unicode="&#xfd;" d="M45 487L173 487L220 258Q241 151 244 135L246 135Q248 140 264.50 178.50Q281 217 296 249L406 487L536 487L353 138Q257-46 169-134Q126-177 77.50-200Q29-223-3-227L-26-122Q29-107 66-80Q120-42 156 19Q161 27 158 42L45 487M343 698L473 698L337 547L244 547L343 698Z"  horiz-adv-x="509" vert-adv-y="1000"  />

      
      <glyph glyph-name="unife" unicode="&#xfe;" d="M-17-200L148 675L270 675L220 414L222 414Q248 452 291 475.50Q334 499 385 499Q468 499 513.50 444Q559 389 559 306Q559 173 472 80.50Q385-12 257-12Q187-12 148 12L145 12L105-200L-17-200M182 205L163 109Q198 82 254 82Q324 82 377 144.50Q430 207 430 298Q430 339 408.50 370Q387 401 343 401Q291 401 245 349.50Q199 298 182 205Z"  horiz-adv-x="592" vert-adv-y="1000"  />

      
      <glyph glyph-name="uniff" unicode="&#xff;" d="M45 487L173 487L220 258Q241 151 244 135L246 135Q248 140 264.50 178.50Q281 217 296 249L406 487L536 487L353 138Q257-46 169-134Q126-177 77.50-200Q29-223-3-227L-26-122Q29-107 66-80Q120-42 156 19Q161 27 158 42L45 487M207 563L206 563Q181 563 163.50 579.50Q146 596 146 622Q146 652 166 671Q186 690 215 690Q241 690 257.50 673Q274 656 274 630Q274 601 254.50 582Q235 563 207 563M413 563L412 563Q387 563 370 579.50Q353 596 353 622Q353 652 372.50 671Q392 690 422 690Q448 690 464 673Q480 656 480 630Q480 600 461 581.50Q442 563 413 563Z"  horiz-adv-x="509" vert-adv-y="1000"  />

      
      <glyph glyph-name="uni0100" unicode="&#x0100;" d="M441 197L205 197L105 0L-27 0L331 674L487 674L596 0L467 0L441 197M246 292L432 292L407 462Q406 465 391 580L389 580Q383 569 364.50 527Q346 485 334 463L246 292M303 803L558 803L545 733L290 733L303 803Z"  horiz-adv-x="649" vert-adv-y="1000"  />

      
      <glyph glyph-name="uni0101" unicode="&#x0101;" d="M488 0L374 0Q374 38 383 117L381 117Q313-12 190-12Q120-12 75.50 37Q31 86 31 162Q31 300 129.50 399.50Q228 499 397 499Q476 499 557 476L508 229Q484 108 488 0M397 286L420 399Q396 405 365 405Q282 405 220.50 338Q159 271 159 182Q159 140 179 113Q199 86 239 86Q288 86 334 138.50Q380 191 397 286M258 659L504 659L491 589L245 589L258 659Z"  horiz-adv-x="584" vert-adv-y="1000"  />

      
      <glyph glyph-name="uni0102" unicode="&#x0102;" d="M441 197L205 197L105 0L-27 0L331 674L487 674L596 0L467 0L441 197M246 292L432 292L407 462Q406 465 391 580L389 580Q383 569 364.50 527Q346 485 334 463L246 292M294 834L365 834Q365 782 423 782Q481 782 495 834L567 834Q558 781 520.50 748.50Q483 716 417 716Q348 716 318 748.50Q288 781 294 834Z"  horiz-adv-x="649" vert-adv-y="1000"  />

      
      <glyph glyph-name="uni0103" unicode="&#x0103;" d="M488 0L374 0Q374 38 383 117L381 117Q313-12 190-12Q120-12 75.50 37Q31 86 31 162Q31 300 129.50 399.50Q228 499 397 499Q476 499 557 476L508 229Q484 108 488 0M397 286L420 399Q396 405 365 405Q282 405 220.50 338Q159 271 159 182Q159 140 179 113Q199 86 239 86Q288 86 334 138.50Q380 191 397 286M249 693L315 693Q314 665 326.50 647.50Q339 630 366 630Q423 630 440 693L508 693Q497 634 459 599Q421 564 362 564Q295 564 268.50 600.50Q242 637 249 693Z"  horiz-adv-x="584" vert-adv-y="1000"  />

      
      <glyph glyph-name="uni0104" unicode="&#x0104;" d="M487 674L596 0L535 0Q491-53 491-93Q491-112 502-123.50Q513-135 534-135Q554-135 580-125L587-186Q550-216 490-216Q447-216 422.50-193.50Q398-171 398-132Q398-76 466 2L441 197L204 197L105 0L-27 0L331 674L487 674M245 292L432 292L406 462Q398 530 391 580L389 580Q382 566 363.50 525.50Q345 485 334 463L245 292Z"  horiz-adv-x="649" vert-adv-y="1000"  />

      
      <glyph glyph-name="uni0105" unicode="&#x0105;" d="M558 476L511 229Q487 108 491 0L457 0Q402-55 402-99Q402-115 412.50-125Q423-135 441-135Q467-135 491-125L498-186Q462-216 401-216Q358-216 333.50-193.50Q309-171 309-132Q309-76 377 2Q378 33 386 117L384 117Q315-12 192-12Q122-12 77.50 37Q33 86 33 162Q33 300 131.50 399.50Q230 499 399 499Q479 499 558 476M400 286L420 399Q396 405 367 405Q284 405 222.50 338Q161 271 161 182Q161 140 180.50 113Q200 86 240 86Q290 86 336.50 138.50Q383 191 400 286Z"  horiz-adv-x="584" vert-adv-y="1000"  />

      
      <glyph glyph-name="uni0106" unicode="&#x0106;" d="M563 121L579 24Q499-12 374-12Q232-12 142.50 65Q53 142 53 288Q53 389 98 472Q143 555 222 607Q337 686 491 686Q551 686 597 675Q643 664 663 650L628 554Q576 583 478 583Q364 583 286 519Q185 441 185 300Q185 206 241 148.50Q297 91 406 91Q500 91 563 121M481 839L627 839L496 715L388 715L481 839Z"  horiz-adv-x="637" vert-adv-y="1000"  />

      
      <glyph glyph-name="uni0107" unicode="&#x0107;" d="M401 112L408 20Q342-12 249-12Q152-12 93.50 42.50Q35 97 35 189Q35 320 128 409.50Q221 499 362 499Q426 499 477 477L445 384Q409 402 359 402Q271 402 217 342Q163 282 163 203Q163 147 195.50 116Q228 85 282 85Q343 85 401 112M361 698L491 698L355 547L262 547L361 698Z"  horiz-adv-x="473" vert-adv-y="1000"  />

      
      <glyph glyph-name="uni0108" unicode="&#x0108;" d="M563 121L579 24Q499-12 374-12Q232-12 142.50 65Q53 142 53 288Q53 389 98 472Q143 555 222 607Q337 686 491 686Q551 686 597 675Q643 664 663 650L628 554Q576 583 478 583Q364 583 286 519Q185 441 185 300Q185 206 241 148.50Q297 91 406 91Q500 91 563 121M426 837L521 837L606 713L516 713L468 780L466 780L398 713L299 713L426 837Z"  horiz-adv-x="637" vert-adv-y="1000"  />

      
      <glyph glyph-name="uni0109" unicode="&#x0109;" d="M401 112L408 20Q342-12 249-12Q152-12 93.50 42.50Q35 97 35 189Q35 320 128 409.50Q221 499 362 499Q426 499 477 477L445 384Q409 402 359 402Q271 402 217 342Q163 282 163 203Q163 147 195.50 116Q228 85 282 85Q343 85 401 112M296 698L382 698L459 547L376 547L331 634L329 634L263 547L172 547L296 698Z"  horiz-adv-x="473" vert-adv-y="1000"  />

      
      <glyph glyph-name="uni010A" unicode="&#x010A;" d="M563 121L579 24Q499-12 374-12Q232-12 142.50 65Q53 142 53 288Q53 389 98 472Q143 555 222 607Q337 686 491 686Q551 686 597 675Q643 664 663 650L628 554Q576 583 478 583Q364 583 286 519Q185 441 185 300Q185 206 241 148.50Q297 91 406 91Q500 91 563 121M472 717L471 717Q447 717 430 733Q413 749 413 774Q413 803 432.50 822Q452 841 480 841Q506 841 522 824Q538 807 538 783Q538 754 519 735.50Q500 717 472 717Z"  horiz-adv-x="637" vert-adv-y="1000"  />

      
      <glyph glyph-name="uni010B" unicode="&#x010B;" d="M401 112L408 20Q342-12 249-12Q152-12 93.50 42.50Q35 97 35 189Q35 320 128 409.50Q221 499 362 499Q426 499 477 477L445 384Q409 402 359 402Q271 402 217 342Q163 282 163 203Q163 147 195.50 116Q228 85 282 85Q343 85 401 112M339 562L338 562Q313 562 295.50 578.50Q278 595 278 621Q278 651 298 670.50Q318 690 347 690Q374 690 390.50 673Q407 656 407 630Q407 600 387.50 581Q368 562 339 562Z"  horiz-adv-x="473" vert-adv-y="1000"  />

      
      <glyph glyph-name="uni010C" unicode="&#x010C;" d="M563 121L579 24Q499-12 374-12Q232-12 142.50 65Q53 142 53 288Q53 389 98 472Q143 555 222 607Q337 686 491 686Q551 686 597 675Q643 664 663 650L628 554Q576 583 478 583Q364 583 286 519Q185 441 185 300Q185 206 241 148.50Q297 91 406 91Q500 91 563 121M499 715L404 715L319 839L410 839L456 770L459 770L527 839L626 839L499 715Z"  horiz-adv-x="637" vert-adv-y="1000"  />

      
      <glyph glyph-name="uni010D" unicode="&#x010D;" d="M401 112L408 20Q342-12 249-12Q152-12 93.50 42.50Q35 97 35 189Q35 320 128 409.50Q221 499 362 499Q426 499 477 477L445 384Q409 402 359 402Q271 402 217 342Q163 282 163 203Q163 147 195.50 116Q228 85 282 85Q343 85 401 112M367 547L280 547L203 698L286 698L331 610L334 610L402 698L492 698L367 547Z"  horiz-adv-x="473" vert-adv-y="1000"  />

      
      <glyph glyph-name="uni010E" unicode="&#x010E;" d="M30 6L156 664Q249 679 354 679Q538 679 630 594Q717 523 717 387Q717 206 582 95Q457-5 227-5Q122-5 30 6M262 575L171 97Q208 93 258 93Q416 93 500 175Q584 255 584 380Q584 581 351 581Q296 581 262 575M455 710L360 710L275 834L366 834L412 765L415 765L483 834L582 834L455 710Z"  horiz-adv-x="734" vert-adv-y="1000"  />

      
      <glyph glyph-name="uni010F" unicode="&#x010F;" d="M487 716L608 716L505 176Q487 81 484 0L370 0L381 91L379 91Q309-12 196-12Q124-12 78.50 40Q33 92 33 179Q33 310 126.50 404.50Q220 499 359 499Q407 499 444 485L487 716M400 258L426 386Q396 405 349 405Q270 405 215.50 345Q161 285 161 197Q161 148 183 117Q205 86 249 86Q296 86 340.50 133Q385 180 400 258M652 512L605 559Q661 601 661 666Q661 691 648 710L734 726Q757 705 757 663Q757 617 726.50 575.50Q696 534 652 512Z"  horiz-adv-x="599" vert-adv-y="1000"  />

      
      <glyph glyph-name="uni0110" unicode="&#x0110;" d="M11 297L32 401L117 401L167 664Q265 679 365 679Q551 679 638 599Q728 529 728 390Q728 305 692 227.50Q656 150 589 97Q464-4 238-4Q133-4 41 7L97 297L11 297M405 401L385 297L220 297L182 98Q219 94 272 94Q421 94 508 176Q595 257 595 381Q595 477 538.50 529Q482 581 365 581Q306 581 274 576L240 401L405 401Z"  horiz-adv-x="745" vert-adv-y="1000"  />

      
      <glyph glyph-name="uni0111" unicode="&#x0111;" d="M400 258L426 386Q396 405 349 405Q270 405 215.50 345Q161 285 161 197Q161 148 183 117Q205 86 249 86Q296 86 340 133Q384 180 400 258M259 619L470 619L488 716L609 716L590 619L675 619L661 551L577 551L506 176Q489 85 484 0L370 0L381 91L379 91Q309-12 196-12Q124-12 78.50 40Q33 92 33 179Q33 310 126.50 404.50Q220 499 360 499Q407 499 444 485L456 551L245 551L259 619Z"  horiz-adv-x="589" vert-adv-y="1000"  />

      
      <glyph glyph-name="uni0112" unicode="&#x0112;" d="M496 400L476 297L206 297L169 103L472 103L453 0L28 0L156 674L565 674L545 571L258 571L225 400L496 400M253 803L508 803L495 733L240 733L253 803Z"  horiz-adv-x="538" vert-adv-y="1000"  />

      
      <glyph glyph-name="uni0113" unicode="&#x0113;" d="M423 117L435 30Q356-12 248-12Q144-12 88.50 44.50Q33 101 33 198Q33 316 116.50 407.50Q200 499 325 499Q402 499 449.50 461Q497 423 497 358Q497 269 407 233Q317 197 151 201Q147 165 166 134Q198 83 276 83Q357 83 423 117M380 360L380 361Q380 383 360.50 397Q341 411 310 411Q253 411 214 373.50Q175 336 163 291Q274 290 327 305Q380 320 380 360M217 659L463 659L450 589L204 589L217 659Z"  horiz-adv-x="518" vert-adv-y="1000"  />

      
      <glyph glyph-name="uni0114" unicode="&#x0114;" d="M496 400L476 297L206 297L169 103L472 103L453 0L28 0L156 674L565 674L545 571L258 571L225 400L496 400M242 840L313 840Q313 788 371 788Q429 788 443 840L515 840Q506 787 468.50 754.50Q431 722 365 722Q296 722 266 754.50Q236 787 242 840Z"  horiz-adv-x="538" vert-adv-y="1000"  />

      
      <glyph glyph-name="uni0115" unicode="&#x0115;" d="M423 117L435 30Q356-12 248-12Q144-12 88.50 44.50Q33 101 33 198Q33 316 116.50 407.50Q200 499 325 499Q402 499 449.50 461Q497 423 497 358Q497 269 407 233Q317 197 151 201Q147 165 166 134Q198 83 276 83Q357 83 423 117M380 360L380 361Q380 383 360.50 397Q341 411 310 411Q253 411 214 373.50Q175 336 163 291Q274 290 327 305Q380 320 380 360M216 693L282 693Q281 665 293.50 647.50Q306 630 333 630Q390 630 407 693L475 693Q464 634 426 599Q388 564 329 564Q262 564 235.50 600.50Q209 637 216 693Z"  horiz-adv-x="518" vert-adv-y="1000"  />

      
      <glyph glyph-name="uni0116" unicode="&#x0116;" d="M496 400L476 297L206 297L169 103L472 103L453 0L28 0L156 674L565 674L545 571L258 571L225 400L496 400M372 714L371 714Q347 714 330 730Q313 746 313 771Q313 800 332.50 819Q352 838 380 838Q406 838 422 821Q438 804 438 780Q438 751 419 732.50Q400 714 372 714Z"  horiz-adv-x="538" vert-adv-y="1000"  />

      
      <glyph glyph-name="uni0117" unicode="&#x0117;" d="M423 117L435 30Q356-12 248-12Q144-12 88.50 44.50Q33 101 33 198Q33 316 116.50 407.50Q200 499 325 499Q402 499 449.50 461Q497 423 497 358Q497 269 407 233Q317 197 151 201Q147 165 166 134Q198 83 276 83Q357 83 423 117M380 360L380 361Q380 383 360.50 397Q341 411 310 411Q253 411 214 373.50Q175 336 163 291Q274 290 327 305Q380 320 380 360M336 562L335 562Q310 562 292.50 578.50Q275 595 275 621Q275 651 295 670.50Q315 690 344 690Q371 690 387.50 673Q404 656 404 630Q404 600 384.50 581Q365 562 336 562Z"  horiz-adv-x="518" vert-adv-y="1000"  />

      
      <glyph glyph-name="uni0118" unicode="&#x0118;" d="M29 0L157 674L566 674L546 571L259 571L226 400L497 400L477 297L207 297L170 103L473 103L454 0L434 0Q398-22 374-52Q350-82 350-108Q350-137 378-137Q400-137 424-126L440-188Q396-217 341-217Q301-217 278-195.50Q255-174 255-140Q255-102 282.50-64Q310-26 348 0L29 0Z"  horiz-adv-x="538" vert-adv-y="1000"  />

      
      <glyph glyph-name="uni0119" unicode="&#x0119;" d="M380 360L380 361Q380 383 360.50 397Q341 411 310 411Q254 411 214.50 373Q175 335 164 291Q274 290 327 305Q380 320 380 360M362-122L376-184Q330-211 275-211Q236-211 214.50-190Q193-169 193-134Q193-67 267-11L267-10Q256-11 236-11Q137-7 85 49Q33 105 33 198Q33 316 116.50 407.50Q200 499 326 499Q402 499 449.50 461Q497 423 497 358Q497 269 407 233Q317 197 151 201Q147 167 166 134Q198 84 276 84Q357 84 423 118L435 30Q422 23 384 7Q288-49 288-101Q288-132 317-132Q338-132 362-122Z"  horiz-adv-x="518" vert-adv-y="1000"  />

      
      <glyph glyph-name="uni011A" unicode="&#x011A;" d="M496 400L476 297L206 297L169 103L472 103L453 0L28 0L156 674L565 674L545 571L258 571L225 400L496 400M411 710L316 710L231 834L322 834L368 765L371 765L439 834L538 834L411 710Z"  horiz-adv-x="538" vert-adv-y="1000"  />

      
      <glyph glyph-name="uni011B" unicode="&#x011B;" d="M423 117L435 30Q356-12 248-12Q144-12 88.50 44.50Q33 101 33 198Q33 316 116.50 407.50Q200 499 325 499Q402 499 449.50 461Q497 423 497 358Q497 269 407 233Q317 197 151 201Q147 165 166 134Q198 83 276 83Q357 83 423 117M380 360L380 361Q380 383 360.50 397Q341 411 310 411Q253 411 214 373.50Q175 336 163 291Q274 290 327 305Q380 320 380 360M365 547L278 547L201 698L284 698L329 610L332 610L400 698L490 698L365 547Z"  horiz-adv-x="518" vert-adv-y="1000"  />

      
      <glyph glyph-name="uni011C" unicode="&#x011C;" d="M681 372L617 34Q496-7 384-7Q227-7 139 74Q52 155 52 289Q52 375 88 450Q124 525 189 578Q316 681 504 681Q571 681 623.50 670Q676 659 698 646L661 545Q593 578 495 578Q370 578 285 507Q239 469 212.50 414Q186 359 186 299Q186 202 243.50 149Q301 96 409 96Q470 96 511 114L542 275L407 275L426 372L681 372M452 834L547 834L632 710L542 710L494 777L492 777L424 710L325 710L452 834Z"  horiz-adv-x="717" vert-adv-y="1000"  />

      
      <glyph glyph-name="uni011D" unicode="&#x011D;" d="M17-176L46-83Q97-114 191-114Q256-114 299.50-80Q343-46 361 41L373 93L370 93Q306 3 204 3Q126 3 80 57Q34 111 34 185Q34 316 126.50 407.50Q219 499 371 499Q471 499 557 463L484 66Q453-97 377-157Q308-212 186-212Q76-212 17-176M400 264L424 391Q391 405 350 405Q270 405 216.50 344.50Q163 284 163 200Q163 156 185.50 126.50Q208 97 253 97Q301 97 343.50 144Q386 191 400 264M333 698L419 698L496 547L413 547L368 634L366 634L300 547L209 547L333 698Z"  horiz-adv-x="588" vert-adv-y="1000"  />

      
      <glyph glyph-name="uni011E" unicode="&#x011E;" d="M681 372L617 34Q496-7 384-7Q227-7 139 74Q52 155 52 289Q52 375 88 450Q124 525 189 578Q316 681 504 681Q571 681 623.50 670Q676 659 698 646L661 545Q593 578 495 578Q370 578 285 507Q239 469 212.50 414Q186 359 186 299Q186 202 243.50 149Q301 96 409 96Q470 96 511 114L542 275L407 275L426 372L681 372M344 838L415 838Q415 786 473 786Q531 786 545 838L617 838Q608 785 570.50 752.50Q533 720 467 720Q398 720 368 752.50Q338 785 344 838Z"  horiz-adv-x="717" vert-adv-y="1000"  />

      
      <glyph glyph-name="uni011F" unicode="&#x011F;" d="M17-176L46-83Q97-114 191-114Q256-114 299.50-80Q343-46 361 41L373 93L370 93Q306 3 204 3Q126 3 80 57Q34 111 34 185Q34 316 126.50 407.50Q219 499 371 499Q471 499 557 463L484 66Q453-97 377-157Q308-212 186-212Q76-212 17-176M400 264L424 391Q391 405 350 405Q270 405 216.50 344.50Q163 284 163 200Q163 156 185.50 126.50Q208 97 253 97Q301 97 343.50 144Q386 191 400 264M251 693L317 693Q316 665 328.50 647.50Q341 630 368 630Q425 630 442 693L510 693Q499 634 461 599Q423 564 364 564Q297 564 270.50 600.50Q244 637 251 693Z"  horiz-adv-x="588" vert-adv-y="1000"  />

      
      <glyph glyph-name="uni0120" unicode="&#x0120;" d="M681 372L617 34Q496-7 384-7Q227-7 139 74Q52 155 52 289Q52 375 88 450Q124 525 189 578Q316 681 504 681Q571 681 623.50 670Q676 659 698 646L661 545Q593 578 495 578Q370 578 285 507Q239 469 212.50 414Q186 359 186 299Q186 202 243.50 149Q301 96 409 96Q470 96 511 114L542 275L407 275L426 372L681 372M489 714L488 714Q464 714 447 730Q430 746 430 771Q430 800 449.50 819Q469 838 497 838Q523 838 539 821Q555 804 555 780Q555 751 536 732.50Q517 714 489 714Z"  horiz-adv-x="717" vert-adv-y="1000"  />

      
      <glyph glyph-name="uni0121" unicode="&#x0121;" d="M17-176L46-83Q97-114 191-114Q256-114 299.50-80Q343-46 361 41L373 93L370 93Q306 3 204 3Q126 3 80 57Q34 111 34 185Q34 316 126.50 407.50Q219 499 371 499Q471 499 557 463L484 66Q453-97 377-157Q308-212 186-212Q76-212 17-176M400 264L424 391Q391 405 350 405Q270 405 216.50 344.50Q163 284 163 200Q163 156 185.50 126.50Q208 97 253 97Q301 97 343.50 144Q386 191 400 264M370 562L369 562Q344 562 326.50 578.50Q309 595 309 621Q309 651 329 670.50Q349 690 378 690Q405 690 421.50 673Q438 656 438 630Q438 600 418.50 581Q399 562 370 562Z"  horiz-adv-x="588" vert-adv-y="1000"  />

      
      <glyph glyph-name="uni0122" unicode="&#x0122;" d="M681 372L617 34Q496-7 384-7Q227-7 139 74Q52 155 52 289Q52 375 88 450Q124 525 189 578Q316 681 504 681Q571 681 623.50 670Q676 659 698 646L661 545Q593 578 495 578Q370 578 285 507Q239 469 212.50 414Q186 359 186 299Q186 202 243.50 149Q301 96 409 96Q470 96 511 114L542 275L407 275L426 372L681 372M241-235L228-177Q263-173 289-155Q315-137 315-106Q315-78 294-57L387-41Q414-62 414-103Q414-166 362-199Q310-232 241-235Z"  horiz-adv-x="717" vert-adv-y="1000"  />

      
      <glyph glyph-name="uni0123" unicode="&#x0123;" d="M17-176L46-83Q97-114 191-114Q256-114 299.50-80Q343-46 362 41L373 93L371 93Q307 3 205 3Q127 3 80.50 56.50Q34 110 34 185Q34 316 126.50 407.50Q219 499 372 499Q471 499 557 463L484 66Q455-96 377-157Q308-212 187-212Q76-212 17-176M400 264L425 391Q390 405 350 405Q270 405 216.50 344Q163 283 163 200Q163 156 185.50 126.50Q208 97 253 97Q301 97 343.50 144Q386 191 400 264M475 728L488 669Q453 665 427 647Q401 629 401 598Q401 569 422 550L335 534Q308 555 308 596Q308 659 359 692Q410 725 475 728Z"  horiz-adv-x="588" vert-adv-y="1000"  />

      
      <glyph glyph-name="uni0124" unicode="&#x0124;" d="M156 674L278 674L226 405L538 405L590 674L712 674L584 0L462 0L518 298L206 298L150 0L28 0L156 674M415 834L510 834L595 710L505 710L457 777L455 777L387 710L288 710L415 834Z"  horiz-adv-x="704" vert-adv-y="1000"  />

      
      <glyph glyph-name="uni0125" unicode="&#x0125;" d="M147 0L26 0L162 716L283 716L224 411L226 411Q299 499 403 499Q460 499 499 464Q538 429 538 359Q538 321 530 275L478 0L356 0L406 263Q412 299 412 327Q412 401 342 401Q294 401 248.50 349.50Q203 298 188 217L147 0M200 870L295 870L380 746L290 746L242 813L240 813L172 746L73 746L200 870Z"  horiz-adv-x="593" vert-adv-y="1000"  />

      
      <glyph glyph-name="uni0126" unicode="&#x0126;" d="M552 476L240 476L223 384L535 384L552 476M49 551L134 551L157 674L278 674L255 551L567 551L590 674L712 674L689 551L766 551L751 476L675 476L585 0L463 0L515 277L202 277L151 0L29 0L119 476L34 476L49 551Z"  horiz-adv-x="704" vert-adv-y="1000"  />

      
      <glyph glyph-name="uni0127" unicode="&#x0127;" d="M46 617L143 617L162 716L283 716L264 617L453 617L441 549L251 549L224 411L226 411Q299 499 403 499Q460 499 499 464Q538 429 538 359Q538 321 530 275L478 0L356 0L406 263Q412 299 412 327Q412 401 342 401Q294 401 248.50 349.50Q203 298 188 217L147 0L26 0L130 549L33 549L46 617Z"  horiz-adv-x="593" vert-adv-y="1000"  />

      
      <glyph glyph-name="uni0128" unicode="&#x0128;" d="M153 674L274 674L146 0L25 0L153 674M143 714L81 714Q90 770 115 801.50Q140 833 175 833Q208 833 241 812Q269 793 285 793Q307 793 320 836L381 836Q362 721 285 721Q254 721 221 740Q189 760 177 759Q155 759 143 714Z"  horiz-adv-x="267" vert-adv-y="1000"  />

      
      <glyph glyph-name="uni0129" unicode="&#x0129;" d="M147 0L26 0L119 487L240 487L147 0M125 563L63 563Q71 619 95 650Q119 681 155 681Q182 681 220 659Q250 641 262 641Q275 641 282 650.50Q289 660 295 686L356 686Q339 570 264 570Q228 570 197 592Q172 609 156 609Q136 609 125 563Z"  horiz-adv-x="265" vert-adv-y="1000"  />

      
      <glyph glyph-name="uni012A" unicode="&#x012A;" d="M153 674L274 674L146 0L25 0L153 674M114 803L369 803L356 733L101 733L114 803Z"  horiz-adv-x="267" vert-adv-y="1000"  />

      
      <glyph glyph-name="uni012B" unicode="&#x012B;" d="M147 0L26 0L119 487L240 487L147 0M91 659L337 659L324 589L78 589L91 659Z"  horiz-adv-x="265" vert-adv-y="1000"  />

      
      <glyph glyph-name="uni012C" unicode="&#x012C;" d="M153 674L274 674L146 0L25 0L153 674M107 843L178 843Q178 791 236 791Q294 791 308 843L380 843Q371 790 333.50 757.50Q296 725 230 725Q161 725 131 757.50Q101 790 107 843Z"  horiz-adv-x="267" vert-adv-y="1000"  />

      
      <glyph glyph-name="uni012D" unicode="&#x012D;" d="M147 0L26 0L119 487L240 487L147 0M90 693L156 693Q155 665 167.50 647.50Q180 630 207 630Q264 630 281 693L349 693Q338 634 300 599Q262 564 203 564Q136 564 109.50 600.50Q83 637 90 693Z"  horiz-adv-x="265" vert-adv-y="1000"  />

      
      <glyph glyph-name="uni012E" unicode="&#x012E;" d="M274 674L146 0L95 0Q51-53 51-93Q51-112 62-123.50Q73-135 94-135Q114-135 140-125L147-186Q110-216 50-216Q7-216-17.50-193.50Q-42-171-42-132Q-42-76 26 2L153 674L274 674Z"  horiz-adv-x="267" vert-adv-y="1000"  />

      
      <glyph glyph-name="uni012F" unicode="&#x012F;" d="M199 562L198 562Q171 562 152 580.50Q133 599 133 628Q133 661 155.50 682Q178 703 209 703Q239 703 258.50 684.50Q278 666 278 636Q278 603 255.50 582.50Q233 562 199 562M239 487L147 0L95 0Q52-54 52-93Q52-112 63-123.50Q74-135 95-135Q116-135 140-125L148-186Q111-216 51-216Q8-216-16.50-193.50Q-41-171-41-132Q-41-76 27 2L118 487L239 487Z"  horiz-adv-x="265" vert-adv-y="1000"  />

      
      <glyph glyph-name="uni0130" unicode="&#x0130;" d="M153 674L274 674L146 0L25 0L153 674M233 714L232 714Q208 714 191 730Q174 746 174 771Q174 800 193.50 819Q213 838 241 838Q267 838 283 821Q299 804 299 780Q299 751 280 732.50Q261 714 233 714Z"  horiz-adv-x="267" vert-adv-y="1000"  />

      
      <glyph glyph-name="uni0131" unicode="&#x0131;" d="M147 0L26 0L119 487L240 487L147 0Z"  horiz-adv-x="265" vert-adv-y="1000"  />

      
      <glyph glyph-name="uni0132" unicode="&#x0132;" d="M153 674L274 674L146 0L25 0L153 674M499 250L579 674L701 674L617 232Q593 104 532.50 46Q472-12 357-12Q276-12 236 8L262 110Q305 94 356 94Q414 94 448 128.50Q482 163 499 250Z"  horiz-adv-x="687" vert-adv-y="1000"  />

      
      <glyph glyph-name="uni0133" unicode="&#x0133;" d="M147 0L26 0L118 487L240 487L147 0M200 559L199 559Q172 559 154 577Q136 595 136 623Q136 655 157.50 674.50Q179 694 209 694Q237 694 256 676.50Q275 659 275 630Q275 598 253.50 578.50Q232 559 200 559M397 487L517 487L427 7Q404-116 356-166Q311-212 234-212Q195-212 167-204L181-111Q196-114 219-114Q250-114 271-90Q292-66 304-2L397 487M472 559L471 559Q444 559 426 577Q408 595 408 623Q408 655 429.50 674.50Q451 694 481 694Q509 694 528 676.50Q547 659 547 630Q547 598 525.50 578.50Q504 559 472 559Z"  horiz-adv-x="537" vert-adv-y="1000"  />

      
      <glyph glyph-name="uni0134" unicode="&#x0134;" d="M232 250L312 674L434 674L350 232Q326 104 265.50 46Q205-12 90-12Q9-12-31 8L-5 110Q38 94 89 94Q147 94 181 128.50Q215 163 232 250M354 834L449 834L534 710L444 710L396 777L394 777L326 710L227 710L354 834Z"  horiz-adv-x="420" vert-adv-y="1000"  />

      
      <glyph glyph-name="uni0135" unicode="&#x0135;" d="M132 487L253 487L163 7Q140-117 91-166Q46-212-31-212Q-70-212-98-204L-84-111Q-68-114-46-114Q-15-114 6-90Q27-66 39-2L132 487M174 698L260 698L337 547L254 547L209 640L207 640L140 547L50 547L174 698Z"  horiz-adv-x="273" vert-adv-y="1000"  />

      
      <glyph glyph-name="uni0136" unicode="&#x0136;" d="M28 0L156 674L276 674L218 363L222 363Q237 382 287 434L518 674L675 674L375 385L565 0L431 0L279 312L194 238L149 0L28 0M150-235L137-177Q172-173 198-155Q224-137 224-106Q224-78 203-57L296-41Q323-62 323-103Q323-166 271-199Q219-232 150-235Z"  horiz-adv-x="602" vert-adv-y="1000"  />

      
      <glyph glyph-name="uni0137" unicode="&#x0137;" d="M148 0L26 0L162 716L283 716L199 274L201 274Q212 286 249 326L408 487L563 487L337 289L496 0L358 0L244 222L179 166L148 0M118-235L105-177Q140-173 166-155Q192-137 192-106Q192-78 171-57L264-41Q291-62 291-103Q291-166 239-199Q187-232 118-235Z"  horiz-adv-x="538" vert-adv-y="1000"  />

      
      <glyph glyph-name="uni0138" unicode="&#x0138;" d="M148 0L26 0L119 487L240 487L199 274L201 274Q212 286 249 326L408 487L563 487L337 289L496 0L358 0L244 222L179 166L148 0Z"  horiz-adv-x="538" vert-adv-y="1000"  />

      
      <glyph glyph-name="uni0139" unicode="&#x0139;" d="M28 0L156 674L278 674L170 106L465 106L445 0L28 0M276 834L422 834L291 710L183 710L276 834Z"  horiz-adv-x="510" vert-adv-y="1000"  />

      
      <glyph glyph-name="uni013A" unicode="&#x013A;" d="M148 0L26 0L163 716L285 716L148 0M255 877L401 877L270 753L162 753L255 877Z"  horiz-adv-x="265" vert-adv-y="1000"  />

      
      <glyph glyph-name="uni013B" unicode="&#x013B;" d="M28 0L156 674L278 674L170 106L465 106L445 0L28 0M115-235L102-177Q137-173 163-155Q189-137 189-106Q189-78 168-57L261-41Q288-62 288-103Q288-166 236-199Q184-232 115-235Z"  horiz-adv-x="510" vert-adv-y="1000"  />

      
      <glyph glyph-name="uni013C" unicode="&#x013C;" d="M148 0L26 0L163 716L285 716L148 0M-25-235L-38-177Q-3-173 23-155Q49-137 49-106Q49-78 28-57L121-41Q148-62 148-103Q148-166 96-199Q44-232-25-235Z"  horiz-adv-x="265" vert-adv-y="1000"  />

      
      <glyph glyph-name="uni013D" unicode="&#x013D;" d="M28 0L156 674L278 674L170 106L465 106L445 0L28 0M327 485L314 543Q349 547 375 565Q401 583 401 614Q401 642 380 663L473 679Q500 658 500 617Q500 554 448 521Q396 488 327 485Z"  horiz-adv-x="510" vert-adv-y="1000"  />

      
      <glyph glyph-name="uni013E" unicode="&#x013E;" d="M148 0L26 0L163 716L285 716L148 0M332 512L283 555Q305 573 322 603Q339 633 339 666Q339 691 326 710L412 726Q435 705 435 663Q435 610 403.50 569Q372 528 332 512Z"  horiz-adv-x="275" vert-adv-y="1000"  />

      
      <glyph glyph-name="uni013F" unicode="&#x013F;" d="M28 0L156 674L278 674L170 106L465 106L445 0L28 0M386 312L385 312Q361 312 344 328Q327 344 327 369Q327 398 346.50 417Q366 436 394 436Q420 436 436 419Q452 402 452 378Q452 349 433 330.50Q414 312 386 312Z"  horiz-adv-x="510" vert-adv-y="1000"  />

      
      <glyph glyph-name="uni0140" unicode="&#x0140;" d="M148 0L26 0L163 716L285 716L148 0M318 308L317 308Q294 308 278 323.50Q262 339 262 365Q262 394 280.50 412.50Q299 431 326 431Q350 431 365.50 414.50Q381 398 381 373Q381 344 363 326Q345 308 318 308Z"  horiz-adv-x="328" vert-adv-y="1000"  />

      
      <glyph glyph-name="uni0141" unicode="&#x0141;" d="M455 0L39 0L86 253L-8 197L10 284L103 340L166 674L288 674L240 424L388 512L372 424L224 336L181 106L475 106L455 0Z"  horiz-adv-x="520" vert-adv-y="1000"  />

      
      <glyph glyph-name="uni0142" unicode="&#x0142;" d="M153 0L32 0L79 242L2 192L19 282L96 332L169 716L290 716L236 431L319 487L302 397L218 341L153 0Z"  horiz-adv-x="276" vert-adv-y="1000"  />

      
      <glyph glyph-name="uni0143" unicode="&#x0143;" d="M144 0L28 0L156 674L303 674L441 360Q480 264 510 146L513 147Q514 222 540 360L599 674L716 674L588 0L459 0L318 327Q266 461 244 543L240 542Q231 457 201 303L144 0M460 834L606 834L475 710L367 710L460 834Z"  horiz-adv-x="708" vert-adv-y="1000"  />

      
      <glyph glyph-name="uni0144" unicode="&#x0144;" d="M147 0L25 0L89 340Q101 396 114 487L223 487L211 394L213 394Q284 499 402 499Q461 499 499.50 463.50Q538 428 538 355Q538 321 530 277L477 0L356 0L405 264Q411 298 411 322Q411 401 342 401Q295 401 248.50 349.50Q202 298 186 213L147 0M395 698L525 698L389 547L296 547L395 698Z"  horiz-adv-x="593" vert-adv-y="1000"  />

      
      <glyph glyph-name="uni0145" unicode="&#x0145;" d="M144 0L28 0L156 674L303 674L441 360Q480 264 510 146L513 147Q514 222 540 360L599 674L716 674L588 0L459 0L318 327Q266 461 244 543L240 542Q231 457 201 303L144 0M209-235L196-177Q231-173 257-155Q283-137 283-106Q283-78 262-57L355-41Q382-62 382-103Q382-166 330-199Q278-232 209-235Z"  horiz-adv-x="708" vert-adv-y="1000"  />

      
      <glyph glyph-name="uni0146" unicode="&#x0146;" d="M147 0L25 0L89 340Q101 396 114 487L223 487L211 394L213 394Q284 499 402 499Q461 499 499.50 463.50Q538 428 538 355Q538 321 530 277L477 0L356 0L405 264Q411 298 411 322Q411 401 342 401Q295 401 248.50 349.50Q202 298 186 213L147 0M146-235L133-177Q168-173 194-155Q220-137 220-106Q220-78 199-57L292-41Q319-62 319-103Q319-166 267-199Q215-232 146-235Z"  horiz-adv-x="593" vert-adv-y="1000"  />

      
      <glyph glyph-name="uni0147" unicode="&#x0147;" d="M144 0L28 0L156 674L303 674L441 360Q480 264 510 146L513 147Q514 222 540 360L599 674L716 674L588 0L459 0L318 327Q266 461 244 543L240 542Q231 457 201 303L144 0M496 710L401 710L316 834L407 834L453 765L456 765L524 834L623 834L496 710Z"  horiz-adv-x="708" vert-adv-y="1000"  />

      
      <glyph glyph-name="uni0148" unicode="&#x0148;" d="M147 0L25 0L89 340Q101 396 114 487L223 487L211 394L213 394Q284 499 402 499Q461 499 499.50 463.50Q538 428 538 355Q538 321 530 277L477 0L356 0L405 264Q411 298 411 322Q411 401 342 401Q295 401 248.50 349.50Q202 298 186 213L147 0M385 547L298 547L221 698L304 698L349 610L352 610L420 698L510 698L385 547Z"  horiz-adv-x="593" vert-adv-y="1000"  />

      
      <glyph glyph-name="uni0149" unicode="&#x0149;" d="M147 0L26 0L90 340Q101 396 114 487L223 487L211 394L213 394Q284 499 402 499Q461 499 499.50 463.50Q538 428 538 355Q538 321 530 277L477 0L356 0L405 264Q411 298 411 322Q411 401 342 401Q295 401 249 349.50Q203 298 187 213L147 0M83 548L71 606Q91 611 107 630.50Q123 650 123 675Q123 706 102 725L189 742Q216 721 216 678Q216 617 174 584Q132 551 83 548Z"  horiz-adv-x="593" vert-adv-y="1000"  />

      
      <glyph glyph-name="uni014A" unicode="&#x014A;" d="M322-213L314-114Q435-103 460-7L318 327Q269 449 244 543L240 542Q231 457 201 303L144 0L28 0L156 674L303 674L441 360Q480 264 510 146L513 147Q514 222 540 361L599 674L716 674L595 35Q570-98 499.50-154Q429-210 322-213Z"  horiz-adv-x="708" vert-adv-y="1000"  />

      
      <glyph glyph-name="uni014B" unicode="&#x014B;" d="M240-187L230-86Q287-79 319.50-49.50Q352-20 367 57L405 264Q411 298 411 322Q411 401 342 401Q295 401 248.50 349.50Q202 298 186 213L147 0L25 0L89 340Q104 415 114 487L223 487L211 394L213 394Q284 499 402 499Q461 499 499.50 463.50Q538 428 538 355Q538 321 530 277L489 60Q464-72 401.50-127Q339-182 240-187Z"  horiz-adv-x="593" vert-adv-y="1000"  />

      
      <glyph glyph-name="uni014C" unicode="&#x014C;" d="M355-12L354-12Q215-12 133.50 70Q52 152 52 286Q52 464 174 581Q284 686 444 686Q587 686 666.50 604Q746 522 746 386Q746 210 629 95Q520-12 355-12M371 88L372 88Q463 88 530 157Q616 243 616 379Q616 420 607 454.50Q598 489 578.50 519.50Q559 550 521 568Q483 586 430 586Q339 586 270 517Q182 429 182 295Q182 201 229.50 144.50Q277 88 371 88M353 803L608 803L595 733L340 733L353 803Z"  horiz-adv-x="763" vert-adv-y="1000"  />

      
      </font>
</defs>
</svg>
