<?xml version="1.0" standalone="no"?>
  <!DOCTYPE svg PUBLIC "-//W3C//DTD SVG 1.1//EN" "http://www.w3.org/Graphics/SVG/1.1/DTD/svg11.dtd" >
  <svg>
  <metadata>
  Created by font-carrier
  </metadata>
  <defs>
  <font id="MyriadPro-BlackSemiExtIt" horiz-adv-x="1428" vert-adv-y="1428" >
    <font-face
      
      font-family="Myriad Pro Black SemiExt"
      
      font-weight="400"
      
      font-stretch="normal"
      
      units-per-em="1000"
      
      ascent="750"
      
      descent="-250"
      
    />
      <missing-glyph />

      

      
      <glyph glyph-name="uni21" unicode="&#x21;" d="M207 233L76 233L132 674L319 674L207 233M106-12L105-12Q63-12 36.50 14.50Q10 41 10 82Q10 133 43 167.50Q76 202 129 202Q171 202 198.50 175Q226 148 226 104Q226 53 192.50 20.50Q159-12 106-12Z"  horiz-adv-x="295" vert-adv-y="1000"  />

      
      <glyph glyph-name="uni22" unicode="&#x22;" d="M113 695L280 695L196 395L81 395L113 695M337 695L504 695L420 395L305 395L337 695Z"  horiz-adv-x="451" vert-adv-y="1000"  />

      
      <glyph glyph-name="uni23" unicode="&#x23;" d="M249 276L340 276L372 376L281 376L249 276M161 0L52 0L103 164L20 164L38 276L141 276L174 376L88 376L105 488L208 488L260 650L367 650L315 488L407 488L459 650L567 650L515 488L597 488L580 376L480 376L448 276L531 276L513 164L410 164L360 0L251 0L302 164L211 164L161 0Z"  horiz-adv-x="600" vert-adv-y="1000"  />

      
      <glyph glyph-name="uni24" unicode="&#x24;" d="M293-90L176-90L192 0Q139 3 85 24Q31 45 2 69L62 204Q141 139 258 139Q299 139 325 151Q351 163 351 186Q351 207 330 223Q309 239 256 259Q222 272 196 286.50Q170 301 141.50 323Q113 345 97.50 375Q82 405 82 441Q82 527 145.50 581.50Q209 636 312 645L329 727L446 727L431 645Q526 641 588 600L529 469Q457 514 359 514Q322 514 301.50 501.50Q281 489 281 471Q281 453 306.50 437Q332 421 396 395Q554 332 554 210Q554 116 484 63.50Q414 11 311 0L293-90Z"  horiz-adv-x="600" vert-adv-y="1000"  />

      
      <glyph glyph-name="uni25" unicode="&#x25;" d="M305 662L306 662Q380 662 426.50 619Q473 576 473 499Q473 396 405.50 328Q338 260 237 260Q162 260 113.50 304Q65 348 65 424Q65 526 131.50 594Q198 662 305 662M286 560L285 560Q248 560 225.50 515Q203 470 203 426Q203 398 216 380Q229 362 252 362Q291 362 313 407.50Q335 453 335 499Q335 560 286 560M316-12L213-12L691 660L793 660L316-12M777 390L778 390Q852 390 898.50 347Q945 304 945 227Q945 124 877.50 56Q810-12 709-12Q634-12 585.50 32Q537 76 537 152Q537 254 603.50 322Q670 390 777 390M758 288L757 288Q720 288 697.50 243Q675 198 675 154Q675 126 688 108Q701 90 724 90Q763 90 785 135.50Q807 181 807 227Q807 288 758 288Z"  horiz-adv-x="988" vert-adv-y="1000"  />

      
      <glyph glyph-name="uni26" unicode="&#x26;" d="M692 0L475 0Q467 8 454.50 22.50Q442 37 439 40Q359-12 253-12Q148-12 83 37Q18 86 18 178Q18 306 181 379L182 381Q144 433 144 488Q144 572 208.50 629Q273 686 379 686Q461 686 518.50 643.50Q576 601 576 523Q576 466 533 424.50Q490 383 409 348L409 346Q420 330 448.50 297Q477 264 489 248Q550 312 589 410L757 410Q724 325 683 260Q642 195 577 136Q623 72 692 0M305 122L306 122Q333 122 365 141Q279 242 245 288Q202 251 202 210Q202 172 228 147Q254 122 305 122M362 572L361 572Q337 572 320 553.50Q303 535 303 508Q303 469 335 435Q368 447 392.50 469Q417 491 417 520Q417 542 402.50 557Q388 572 362 572Z"  horiz-adv-x="752" vert-adv-y="1000"  />

      
      <glyph glyph-name="uni27" unicode="&#x27;" d="M113 695L280 695L196 396L81 396L113 695Z"  horiz-adv-x="227" vert-adv-y="1000"  />

      
      <glyph glyph-name="uni28" unicode="&#x28;" d="M254 689L381 689Q299 577 252 438.50Q205 300 205 159Q205 9 236-113L111-113Q63 10 63 147Q63 480 254 689Z"  horiz-adv-x="350" vert-adv-y="1000"  />

      
      <glyph glyph-name="uni29" unicode="&#x29;" d="M111-113L-16-113Q66-1 113 137.50Q160 276 160 417Q160 567 129 689L254 689Q302 566 302 429Q302 96 111-113Z"  horiz-adv-x="350" vert-adv-y="1000"  />

      
      <glyph glyph-name="uni2a" unicode="&#x2a;" d="M369 686L463 628L331 495L332 493L511 533L488 414L324 445L324 443L425 314L316 254L279 418L277 418L202 254L107 314L238 443L238 445L62 414L85 533L242 493L241 495L145 628L255 686L290 522L292 522L369 686Z"  horiz-adv-x="498" vert-adv-y="1000"  />

      
      <glyph glyph-name="uni2b" unicode="&#x2b;" d="M235 532L353 532L353 323L552 323L552 211L353 211L353 0L235 0L235 211L36 211L36 323L235 323L235 532Z"  horiz-adv-x="596" vert-adv-y="1000"  />

      
      <glyph glyph-name="uni2c" unicode="&#x2c;" d="M64-105L-63-115Q15 47 55 196L245 206Q169 36 64-105Z"  horiz-adv-x="294" vert-adv-y="1000"  />

      
      <glyph glyph-name="uni2d" unicode="&#x2d;" d="M40 312L334 312L311 192L17 192L40 312Z"  horiz-adv-x="354" vert-adv-y="1000"  />

      
      <glyph glyph-name="uniad" unicode="&#xad;" d="M40 312L334 312L311 192L17 192L40 312Z"  horiz-adv-x="354" vert-adv-y="1000"  />

      
      <glyph glyph-name="uni2e" unicode="&#x2e;" d="M113-10L112-10Q70-10 43.50 16.50Q17 43 17 84Q17 135 50 169.50Q83 204 136 204Q178 204 205.50 177Q233 150 233 106Q233 55 199.50 22.50Q166-10 113-10Z"  horiz-adv-x="294" vert-adv-y="1000"  />

      
      <glyph glyph-name="uni2f" unicode="&#x2f;" d="M106-40L-15-40L291 686L412 686L106-40Z"  horiz-adv-x="341" vert-adv-y="1000"  />

      
      <glyph glyph-name="uni30" unicode="&#x30;" d="M255-12L254-12Q147-12 93 55.50Q39 123 39 238Q39 311 59 383.50Q79 456 118 519.50Q157 583 222.50 622.50Q288 662 370 662Q477 662 530 596.50Q583 531 583 422Q583 346 562.50 271Q542 196 503 131.50Q464 67 399.50 27.50Q335-12 255-12M273 126L274 126Q308 126 335 161Q362 196 376.50 246Q391 296 398.50 340.50Q406 385 406 415Q406 524 348 524Q314 524 287 489Q260 454 245 404.50Q230 355 222.50 310Q215 265 215 236Q215 126 273 126Z"  horiz-adv-x="600" vert-adv-y="1000"  />

      
      <glyph glyph-name="uni31" unicode="&#x31;" d="M203 0L294 486L292 486L148 427L145 566L354 650L495 650L373 0L203 0Z"  horiz-adv-x="600" vert-adv-y="1000"  />

      
      <glyph glyph-name="uni32" unicode="&#x32;" d="M499 0L-3 0L18 110L205 243Q302 312 345.50 355.50Q389 399 389 442Q389 476 364 494.50Q339 513 300 513Q210 513 143 474L104 599Q209 662 341 662Q444 662 509 611.50Q574 561 574 468Q574 382 523 322Q472 262 379 202L301 152L301 150L527 150L499 0Z"  horiz-adv-x="600" vert-adv-y="1000"  />

      
      <glyph glyph-name="uni33" unicode="&#x33;" d="M4 42L59 179Q139 136 233 136Q286 136 318 153Q350 170 350 201Q350 275 208 275L184 275L210 408L231 408Q293 408 335 425.50Q377 443 377 473Q377 492 358 504Q339 516 300 516Q206 516 138 481L109 610Q204 662 329 662Q371 662 409.50 654.50Q448 647 485 630Q522 613 544 579.50Q566 546 566 499Q566 442 523.50 401.50Q481 361 411 346L410 344Q466 336 501.50 298.50Q537 261 537 201Q537 131 488 81Q439 31 371.50 9.50Q304-12 229-12Q155-12 93 3Q31 18 4 42Z"  horiz-adv-x="600" vert-adv-y="1000"  />

      
      <glyph glyph-name="uni34" unicode="&#x34;" d="M449 0L279 0L307 148L10 148L33 266L332 650L571 650L502 283L576 283L551 148L477 148L449 0M213 283L332 283L358 394Q362 412 374.50 461Q387 510 393 535L389 535Q337 455 288 387L214 285L213 283Z"  horiz-adv-x="600" vert-adv-y="1000"  />

      
      <glyph glyph-name="uni35" unicode="&#x35;" d="M589 650L559 500L300 500L280 435Q293 437 313 437Q409 437 471 397Q550 345 550 243Q550 120 456 54Q362-12 220-12Q150-12 93.50 1.50Q37 15 13 35L58 174Q82 159 127 147.50Q172 136 218 136Q273 136 317.50 155Q362 174 362 214Q362 255 323 278.50Q284 302 181 302Q159 302 84 297L183 650L589 650Z"  horiz-adv-x="600" vert-adv-y="1000"  />

      
      <glyph glyph-name="uni36" unicode="&#x36;" d="M565 658L538 517Q521 519 483 519Q390 517 329.50 485.50Q269 454 246 410L247 408Q302 443 380 443Q455 443 510.50 391Q566 339 566 246Q566 139 486.50 63.50Q407-12 283-12Q164-12 97.50 55.50Q31 123 31 233Q31 334 73 421.50Q115 509 190 565Q318 662 509 662Q537 662 565 658M286 126L287 126Q331 126 355.50 156.50Q380 187 380 224Q380 265 356.50 288Q333 311 298 311Q246 311 219 267Q207 249 207 229L207 219Q207 179 229 152.50Q251 126 286 126Z"  horiz-adv-x="600" vert-adv-y="1000"  />

      
      <glyph glyph-name="uni37" unicode="&#x37;" d="M114 650L615 650L593 535Q347 179 224 0L21 0Q265 332 386 498L386 500L85 500L114 650Z"  horiz-adv-x="600" vert-adv-y="1000"  />

      
      <glyph glyph-name="uni38" unicode="&#x38;" d="M359 662L360 662Q450 662 513 620Q576 578 576 497Q576 400 464 352L463 350Q504 329 529.50 290.50Q555 252 555 210Q555 138 509.50 86Q464 34 398.50 11Q333-12 258-12Q146-11 81 36Q16 83 16 159Q16 221 53.50 266.50Q91 312 153 335L154 337Q88 383 88 457Q88 552 168 607Q248 662 359 662M284 120L285 120Q315 120 339.50 138.50Q364 157 364 190Q364 248 287 272Q252 266 229.50 242.50Q207 219 207 187Q207 157 228.50 138.50Q250 120 284 120M338 530L337 530Q306 530 283.50 511.50Q261 493 261 469Q261 443 283.50 425.50Q306 408 337 400Q361 405 382 424.50Q403 444 403 471Q403 498 384 514Q365 530 338 530Z"  horiz-adv-x="600" vert-adv-y="1000"  />

      
      <glyph glyph-name="uni39" unicode="&#x39;" d="M44-8L64 134Q71 133 127 131Q208 133 267 160Q344 198 372 254L371 256Q330 218 251 218Q166 218 109 267Q52 316 52 407Q52 515 136.50 588.50Q221 662 343 662Q460 662 524.50 595Q589 528 589 410Q589 311 545 224Q501 137 427 80Q308-12 127-12Q72-12 44-8M327 524L326 524Q291 524 263.50 496Q236 468 236 431Q236 394 258 372.50Q280 351 312 351Q364 351 388 379Q398 391 402 400Q407 411 407 439Q407 475 386 499.50Q365 524 327 524Z"  horiz-adv-x="600" vert-adv-y="1000"  />

      
      <glyph glyph-name="uni3a" unicode="&#x3a;" d="M171 298L170 298Q128 298 101.50 324.50Q75 351 75 392Q75 443 108 477.50Q141 512 194 512Q236 512 263.50 485Q291 458 291 414Q291 363 257.50 330.50Q224 298 171 298M113-12L112-12Q70-12 43.50 14.50Q17 41 17 82Q17 133 50 167.50Q83 202 136 202Q178 202 205.50 175Q233 148 233 104Q233 53 199.50 20.50Q166-12 113-12Z"  horiz-adv-x="294" vert-adv-y="1000"  />

      
      <glyph glyph-name="uni3b" unicode="&#x3b;" d="M64-105L-63-115Q15 47 55 196L245 206Q169 36 64-105M176 298L175 298Q133 298 106.50 324.50Q80 351 80 392Q80 443 113 477.50Q146 512 199 512Q241 512 268.50 485Q296 458 296 414Q296 363 262.50 330.50Q229 298 176 298Z"  horiz-adv-x="294" vert-adv-y="1000"  />

      
      <glyph glyph-name="uni3c" unicode="&#x3c;" d="M34 211L34 321L522 532L522 408L165 267L165 265L522 124L522 0L34 211Z"  horiz-adv-x="596" vert-adv-y="1000"  />

      
      <glyph glyph-name="uni3d" unicode="&#x3d;" d="M546 321L30 321L30 433L546 433L546 321M546 101L30 101L30 213L546 213L546 101Z"  horiz-adv-x="596" vert-adv-y="1000"  />

      
      <glyph glyph-name="uni3e" unicode="&#x3e;" d="M557 321L557 211L69 0L69 124L426 265L426 267L69 408L69 532L557 321Z"  horiz-adv-x="596" vert-adv-y="1000"  />

      
      <glyph glyph-name="uni3f" unicode="&#x3f;" d="M324 234L147 234Q149 252 151 262Q166 342 239 419Q252 434 276.50 454.50Q301 475 313 488Q325 501 325 513Q325 544 273 547Q197 547 147 516L120 634Q202 686 323 686Q368 686 407 674Q446 662 476 628.50Q506 595 506 544Q506 527 503.50 512.50Q501 498 493 482.50Q485 467 481 458.50Q477 450 461.50 433Q446 416 442 411.50Q438 407 416.50 386.50Q395 366 392 363Q345 318 329 256Q328 252 326.50 244.50Q325 237 324 234M200-12L199-12Q157-12 130.50 14.50Q104 41 104 82Q104 133 137 167.50Q170 202 223 202Q265 202 292.50 175Q320 148 320 104Q320 53 286.50 20.50Q253-12 200-12Z"  horiz-adv-x="502" vert-adv-y="1000"  />

      
      <glyph glyph-name="uni40" unicode="&#x40;" d="M451 253L460 328Q444 330 438 330Q392 330 362.50 296Q333 262 333 218Q333 161 378 161Q402 161 423.50 186Q445 211 451 253M551-4L570-74Q488-106 378-106Q238-106 140-17.50Q42 71 42 214Q42 372 153 482Q264 592 437 592Q575 592 669.50 509.50Q764 427 764 295Q764 193 705.50 128.50Q647 64 557 64Q477 64 463 132L461 132Q412 64 333 64Q278 64 244 100Q210 136 210 200Q210 293 276.50 360Q343 427 453 427Q489 427 527.50 419.50Q566 412 584 401L557 210Q552 177 556.50 160.50Q561 144 578 143Q613 141 643.50 181.50Q674 222 674 297Q674 393 607.50 455Q541 517 426 517Q305 517 220.50 438Q136 359 136 228Q136 106 209.50 37.50Q283-31 405-31Q489-31 551-4Z"  horiz-adv-x="805" vert-adv-y="1000"  />

      
      <glyph glyph-name="uni41" unicode="&#x41;" d="M443 166L244 166L171 0L-25 0L312 674L551 674L647 0L455 0L443 166M297 302L433 302L421 421Q411 515 407 547L405 547Q397 530 378.50 485.50Q360 441 350 420L297 302Z"  horiz-adv-x="702" vert-adv-y="1000"  />

      
      <glyph glyph-name="uni42" unicode="&#x42;" d="M15 10L137 661Q229 679 345 679Q451 679 519 655Q566 639 596.50 602.50Q627 566 627 516Q627 404 494 364L494 362Q545 346 574 308Q603 270 603 215Q603 111 498 47Q411-5 214-5Q79-5 15 10M292 535L269 416L320 416Q376 416 409 433Q442 450 442 482Q442 539 350 539Q314 539 292 535M241 287L213 136Q230 134 271 134Q331 134 371 153.50Q411 173 411 215Q411 245 391.50 262Q372 279 346.50 283Q321 287 281 287L241 287Z"  horiz-adv-x="648" vert-adv-y="1000"  />

      
      <glyph glyph-name="uni43" unicode="&#x43;" d="M584 161L603 21Q532-12 396-12Q248-12 150.50 65.50Q53 143 53 297Q53 412 106.50 497.50Q160 583 252 631Q359 686 508 686Q616 686 679 656L633 514Q573 536 496 536Q401 536 343 498Q248 437 248 312Q248 230 301 184Q354 138 445 138Q527 138 584 161Z"  horiz-adv-x="662" vert-adv-y="1000"  />

      
      <glyph glyph-name="uni44" unicode="&#x44;" d="M15 10L140 663Q232 679 352 679Q527 679 621 615Q737 535 737 378Q737 197 601 92Q475-5 230-5Q85-5 15 10M297 533L222 140Q240 137 282 137Q406 137 473 202Q540 266 540 372Q540 537 353 537Q323 537 297 533Z"  horiz-adv-x="761" vert-adv-y="1000"  />

      
      <glyph glyph-name="uni45" unicode="&#x45;" d="M540 417L511 267L242 267L220 150L521 150L493 0L13 0L140 674L605 674L576 524L290 524L270 417L540 417Z"  horiz-adv-x="582" vert-adv-y="1000"  />

      
      <glyph glyph-name="uni46" unicode="&#x46;" d="M13 0L140 674L599 674L570 524L290 524L267 403L531 403L502 253L238 253L191 0L13 0Z"  horiz-adv-x="572" vert-adv-y="1000"  />

      
      <glyph glyph-name="uni47" unicode="&#x47;" d="M731 402L661 36Q518-7 401-7Q251-7 156 62Q51 138 51 290Q51 475 196 584Q325 681 528 681Q670 681 738 648L687 500Q614 531 521 531Q417 531 348 488Q250 425 250 306Q250 223 301 183Q352 143 435 143Q480 143 506 154L527 261L422 261L450 402L731 402Z"  horiz-adv-x="764" vert-adv-y="1000"  />

      
      <glyph glyph-name="uni48" unicode="&#x48;" d="M141 674L319 674L272 425L522 425L569 674L748 674L621 0L442 0L493 267L242 267L192 0L14 0L141 674Z"  horiz-adv-x="734" vert-adv-y="1000"  />

      
      <glyph glyph-name="uni49" unicode="&#x49;" d="M135 674L313 674L186 0L8 0L135 674Z"  horiz-adv-x="300" vert-adv-y="1000"  />

      
      <glyph glyph-name="uni4a" unicode="&#x4a;" d="M218 276L293 674L471 674L389 245Q363 109 296 48.50Q229-12 98-12Q9-12-35 7L0 157Q46 143 89 143Q143 143 173.50 172Q204 201 218 276Z"  horiz-adv-x="453" vert-adv-y="1000"  />

      
      <glyph glyph-name="uni4b" unicode="&#x4b;" d="M13 0L140 674L316 674L263 391L265 391Q271 399 324 460L509 674L739 674L447 386L623 0L427 0L306 280L230 213L189 0L13 0Z"  horiz-adv-x="674" vert-adv-y="1000"  />

      
      <glyph glyph-name="uni4c" unicode="&#x4c;" d="M13 0L140 674L318 674L221 156L507 156L478 0L13 0Z"  horiz-adv-x="555" vert-adv-y="1000"  />

      
      <glyph glyph-name="uni4d" unicode="&#x4d;" d="M802 0L624 0L665 251Q697 445 717 545L715 545Q621 339 581 258L462 14L320 14L305 257Q301 316 290 545L288 545Q277 494 256.50 393.50Q236 293 226 251L169 0L3 0L168 674L423 674L431 504Q431 498 437 403.50Q443 309 443 250L448 250Q487 358 558 506L639 674L898 674L802 0Z"  horiz-adv-x="905" vert-adv-y="1000"  />

      
      <glyph glyph-name="uni4e" unicode="&#x4e;" d="M182 0L13 0L140 674L366 674L432 478Q472 359 504 219L507 219Q508 303 535 448L577 674L747 674L620 0L424 0L349 224Q293 395 271 484L267 484Q260 414 221 209L182 0Z"  horiz-adv-x="733" vert-adv-y="1000"  />

      
      <glyph glyph-name="uni4f" unicode="&#x4f;" d="M369-12L368-12Q228-12 140 69.50Q52 151 52 292Q52 466 169 577Q284 686 456 686Q598 686 684.50 605.50Q771 525 771 379Q771 205 657 96Q544-12 369-12M393 134L394 134Q459 134 509 184Q579 254 579 368Q579 447 545 493.50Q511 540 436 540Q368 540 316 488Q244 416 244 304Q244 223 282.50 178.50Q321 134 393 134Z"  horiz-adv-x="795" vert-adv-y="1000"  />

      
      <glyph glyph-name="uni50" unicode="&#x50;" d="M13 0L137 659Q208 679 339 679Q460 679 530 643Q627 592 627 479Q627 359 531 289Q445 225 295 225Q283 225 270 226Q257 227 245.50 228.50Q234 230 231 230L187 0L13 0M288 535L257 374Q285 368 319 368Q374 368 411 394Q448 420 448 462Q448 539 349 539Q312 539 288 535Z"  horiz-adv-x="616" vert-adv-y="1000"  />

      
      <glyph glyph-name="uni51" unicode="&#x51;" d="M712 1L658-140Q508-96 370-30Q329-10 313-8Q202 1 127 82.50Q52 164 52 295Q52 457 158 566Q275 686 458 686Q597 686 683.50 605Q770 524 770 381Q770 212 663 105Q618 60 562 34L562 32Q666 9 712 1M393 134L394 134Q459 134 509 184Q579 256 579 372Q579 445 544.50 492.50Q510 540 438 540Q369 540 317 488Q283 454 263.50 404Q244 354 244 302Q244 222 282.50 178Q321 134 393 134Z"  horiz-adv-x="795" vert-adv-y="1000"  />

      
      <glyph glyph-name="uni52" unicode="&#x52;" d="M14 0L140 659Q212 679 351 679Q476 679 543 649Q641 604 641 500Q641 429 601 385.50Q561 342 487 316L486 312Q533 288 549 196Q553 174 558.50 125Q564 76 569.50 44.50Q575 13 582 0L398 0Q385 36 372 157Q366 213 343.50 232.50Q321 252 275 252L239 252L191 0L14 0M293 535L264 383L326 383Q382 383 418.50 406Q455 429 455 471Q455 539 350 539Q317 539 293 535Z"  horiz-adv-x="651" vert-adv-y="1000"  />

      
      <glyph glyph-name="uni53" unicode="&#x53;" d="M-6 45L57 189Q142 140 247 140Q286 140 312 153.50Q338 167 338 194Q338 216 316.50 232Q295 248 243 270Q80 339 80 457Q80 563 165.50 624.50Q251 686 378 686Q490 686 568 650L511 502Q445 537 363 534Q317 534 294 520.50Q271 507 271 488Q271 477 277.50 467Q284 457 302.50 446Q321 435 329 431Q337 427 364 415Q373 411 377 409Q531 342 531 226Q531 107 442 47.50Q353-12 224-12Q73-9-6 45Z"  horiz-adv-x="576" vert-adv-y="1000"  />

      
      <glyph glyph-name="uni54" unicode="&#x54;" d="M162 0L259 522L72 522L102 674L658 674L629 522L437 522L340 0L162 0Z"  horiz-adv-x="606" vert-adv-y="1000"  />

      
      <glyph glyph-name="uni55" unicode="&#x55;" d="M138 674L316 674L247 308Q240 275 240 228Q241 191 267 162.50Q293 134 342 134Q403 134 440 176Q477 218 494 308L563 674L741 674L673 313Q641 143 560.50 65.50Q480-12 320-12Q198-14 130 47.50Q62 109 62 228Q62 266 71 318L138 674Z"  horiz-adv-x="725" vert-adv-y="1000"  />

      
      <glyph glyph-name="uni56" unicode="&#x56;" d="M400 0L187 0L82 674L262 674L297 414Q315 276 324 174L326 174Q358 253 436 409L566 674L766 674L400 0Z"  horiz-adv-x="710" vert-adv-y="1000"  />

      
      <glyph glyph-name="uni57" unicode="&#x57;" d="M336 0L132 0L92 674L270 674L272 422L272 184L274 184Q299 245 363 425L452 674L659 674L652 409Q649 282 645 190L647 190Q714 377 731 425L823 674L1014 674L705 0L508 0L509 254Q509 359 514 489L512 489Q449 300 428 244L336 0Z"  horiz-adv-x="950" vert-adv-y="1000"  />

      
      <glyph glyph-name="uni58" unicode="&#x58;" d="M600 0L407 0L363 117Q355 139 340.50 181Q326 223 321 236L319 236Q306 214 283.50 173.50Q261 133 248 110L184 0L-40 0L230 344L91 674L282 674L320 565Q351 472 358 449L361 449Q378 477 398.50 515Q419 553 428 568L489 674L710 674L452 346L600 0Z"  horiz-adv-x="658" vert-adv-y="1000"  />

      
      <glyph glyph-name="uni59" unicode="&#x59;" d="M348 0L170 0L223 281L67 674L258 674L300 521Q333 405 333 404L335 404Q381 479 408 525L496 674L717 674L403 288L348 0Z"  horiz-adv-x="660" vert-adv-y="1000"  />

      
      <glyph glyph-name="uni5a" unicode="&#x5a;" d="M-25 0L-7 98L383 518L383 522L103 522L132 674L664 674L645 575L262 156L262 152L572 152L544 0L-25 0Z"  horiz-adv-x="628" vert-adv-y="1000"  />

      
      <glyph glyph-name="uni5b" unicode="&#x5b;" d="M217-112L-1-112L151 686L369 686L351 590L264 590L148-16L235-16L217-112Z"  horiz-adv-x="350" vert-adv-y="1000"  />

      
      <glyph glyph-name="uni5c" unicode="&#x5c;" d="M333-40L212-40L44 686L165 686L333-40Z"  horiz-adv-x="361" vert-adv-y="1000"  />

      
      <glyph glyph-name="uni5d" unicode="&#x5d;" d="M143 686L361 686L209-112L-9-112L9-16L96-16L212 590L125 590L143 686Z"  horiz-adv-x="350" vert-adv-y="1000"  />

      
      <glyph glyph-name="uni5e" unicode="&#x5e;" d="M547 172L418 172L283 512L281 512L146 172L19 172L229 650L337 650L547 172Z"  horiz-adv-x="596" vert-adv-y="1000"  />

      
      <glyph glyph-name="uni5f" unicode="&#x5f;" d="M-59-75L441-75L431-125L-69-125L-59-75Z"  horiz-adv-x="500" vert-adv-y="1000"  />

      
      <glyph glyph-name="uni60" unicode="&#x60;" d="M92 710L261 710L353 550L222 550L92 710Z"  horiz-adv-x="400" vert-adv-y="1000"  />

      
      <glyph glyph-name="uni61" unicode="&#x61;" d="M517 0L351 0Q355 58 356 87L354 87Q298-12 189-12Q118-12 71 38Q24 88 24 171Q24 236 46.50 294Q69 352 113.50 400Q158 448 232.50 476Q307 504 403 504Q497 504 588 475L536 222Q514 103 517 0M370 285L387 366Q371 369 353 369Q294 369 253.50 316Q213 263 213 202Q213 167 228.50 148.50Q244 130 267 130Q298 130 326 165Q354 200 370 285Z"  horiz-adv-x="608" vert-adv-y="1000"  />

      
      <glyph glyph-name="uni62" unicode="&#x62;" d="M146 716L325 716L270 451L272 451Q332 504 424 504Q499 504 543 454Q587 404 587 325Q587 266 566.50 208.50Q546 151 506 100.50Q466 50 396 19Q326-12 237-12Q134-12 84.50 28.50Q35 69 36 139Q36 182 49 242L146 716M230 236L228 223Q221 189 223 170Q224 147 238 135Q252 123 273 123Q323 123 361 175.50Q399 228 399 290Q399 323 383 342.50Q367 362 340 362Q303 362 272.50 329Q242 296 230 236Z"  horiz-adv-x="616" vert-adv-y="1000"  />

      
      <glyph glyph-name="uni63" unicode="&#x63;" d="M413 149L415 16Q358-12 261-12Q162-12 95.50 42Q29 96 29 205Q29 335 126.50 419.50Q224 504 377 504Q440 504 486 488L444 355Q417 366 377 366Q303 366 260.50 324Q218 282 218 222Q218 175 246 152Q274 129 313 129Q366 129 413 149Z"  horiz-adv-x="481" vert-adv-y="1000"  />

      
      <glyph glyph-name="uni64" unicode="&#x64;" d="M467 716L644 716L550 222Q528 105 526 0L358 0L362 73L360 73Q302-12 194-12Q127-12 77 39Q27 90 27 187Q27 318 119 411Q211 504 359 504Q393 504 423 494L467 716M380 265L398 351Q378 369 343 369Q287 369 251 324.50Q215 280 215 217Q215 172 234 151Q253 130 279 130Q310 130 338 161.50Q366 193 380 265Z"  horiz-adv-x="617" vert-adv-y="1000"  />

      
      <glyph glyph-name="uni65" unicode="&#x65;" d="M462 157L472 31Q388-12 266-12Q152-12 90 44Q28 100 28 208Q28 327 113.50 415.50Q199 504 338 504Q422 504 478 462.50Q534 421 534 343Q534 172 196 181Q201 163 215 151Q245 125 310 125Q395 125 462 157M365 349L365 350Q365 361 351.50 370Q338 379 317 379Q270 379 243.50 356Q217 333 213 309Q300 309 332.50 318Q365 327 365 349Z"  horiz-adv-x="562" vert-adv-y="1000"  />

      
      <glyph glyph-name="uni66" unicode="&#x66;" d="M205 0L28 0L94 354L33 354L59 492L120 492L125 520Q143 625 211 679Q270 728 367 728Q419 728 447 715L421 573Q400 581 374 581Q346 581 326 563.50Q306 546 301 518L296 492L386 492L360 354L271 354L205 0Z"  horiz-adv-x="364" vert-adv-y="1000"  />

      
      <glyph glyph-name="uni67" unicode="&#x67;" d="M19-179L57-44Q77-55 122-62.50Q167-70 202-70Q257-70 292-45.50Q327-21 340 43L344 63L342 63Q286 6 208 6Q129 6 79 59.50Q29 113 29 196Q29 257 51.50 312Q74 367 117 410Q160 453 229.50 478.50Q299 504 385 504Q498 504 590 469L518 68Q487-98 407-158Q333-212 203-212Q82-212 19-179M378 264L397 363Q382 369 351 369Q295 369 257.50 324Q220 279 220 216Q220 178 238 159.50Q256 141 282 141Q313 141 339.50 170Q366 199 378 264Z"  horiz-adv-x="615" vert-adv-y="1000"  />

      
      <glyph glyph-name="uni68" unicode="&#x68;" d="M187 0L9 0L144 716L322 716L270 440L272 440Q342 504 428 504Q495 504 529.50 466Q564 428 564 363Q564 323 555 276L503 0L325 0L373 256Q379 286 379 313Q379 362 336 362Q297 362 267.50 317Q238 272 224 195L187 0Z"  horiz-adv-x="612" vert-adv-y="1000"  />

      
      <glyph glyph-name="uni69" unicode="&#x69;" d="M187 0L9 0L102 492L280 492L187 0M208 542L207 542Q172 542 148 563.50Q124 585 124 622Q124 665 154 690.50Q184 716 224 716Q261 716 286 694.50Q311 673 311 635Q311 592 281 567Q251 542 208 542Z"  horiz-adv-x="296" vert-adv-y="1000"  />

      
      <glyph glyph-name="uni6a" unicode="&#x6a;" d="M129 492L306 492L218 15Q196-110 140-165Q93-212 2-212Q-45-212-78-203L-58-68Q-46-70-26-70Q-2-70 14-52.50Q30-35 40 17L129 492M228 542L227 542Q192 542 168 563.50Q144 585 144 622Q144 665 174 690.50Q204 716 244 716Q281 716 306 694.50Q331 673 331 635Q331 592 301 567Q271 542 228 542Z"  horiz-adv-x="322" vert-adv-y="1000"  />

      
      <glyph glyph-name="uni6b" unicode="&#x6b;" d="M187 0L9 0L144 716L322 716L242 295L244 295Q253 305 268 324Q283 343 290 351L406 492L634 492L409 295L564 0L360 0L273 196L214 142L187 0Z"  horiz-adv-x="610" vert-adv-y="1000"  />

      
      <glyph glyph-name="uni6c" unicode="&#x6c;" d="M188 0L10 0L147 716L325 716L188 0Z"  horiz-adv-x="297" vert-adv-y="1000"  />

      
      <glyph glyph-name="uni6d" unicode="&#x6d;" d="M180 0L9 0L67 321Q81 396 94 492L246 492L238 413L239 413Q306 504 415 504Q476 504 508 474.50Q540 445 543 413Q610 504 717 504Q783 504 814.50 466Q846 428 846 363Q846 326 839 284L787 0L616 0L662 256Q668 290 668 309Q668 332 657 347Q646 362 626 362Q590 362 561 315Q532 268 519 195L483 0L312 0L359 256Q365 290 365 306Q365 362 326 362Q288 362 258 315Q228 268 215 195L180 0Z"  horiz-adv-x="895" vert-adv-y="1000"  />

      
      <glyph glyph-name="uni6e" unicode="&#x6e;" d="M187 0L9 0L69 321Q78 365 98 492L256 492L247 411L249 411Q319 504 428 504Q497 504 530.50 466Q564 428 564 363Q564 326 557 284L503 0L325 0L373 256Q378 284 378 310Q378 362 337 362Q300 362 269.50 317.50Q239 273 224 195L187 0Z"  horiz-adv-x="613" vert-adv-y="1000"  />

      
      <glyph glyph-name="uni6f" unicode="&#x6f;" d="M264-12L263-12Q164-12 97 43Q30 98 30 203Q30 333 119 418.50Q208 504 350 504Q451 504 518.50 447Q586 390 586 294Q586 150 495 69Q404-12 264-12M289 123L290 123Q342 123 370.50 175Q399 227 399 285Q399 322 381.50 345.50Q364 369 328 369Q289 369 262.50 338Q236 307 226.50 272Q217 237 217 205Q217 165 236.50 144Q256 123 289 123Z"  horiz-adv-x="621" vert-adv-y="1000"  />

      
      <glyph glyph-name="uni70" unicode="&#x70;" d="M150-200L-28-200L63 282Q81 383 93 498L254 498L247 431L249 431Q310 504 408 504Q489 504 537.50 447.50Q586 391 586 303Q586 171 503.50 79.50Q421-12 286-12Q226-12 193 11L191 11L150-200M228 213L219 149Q243 123 281 123Q329 123 363.50 175.50Q398 228 398 294Q398 323 383 342.50Q368 362 341 362Q299 362 269.50 322Q240 282 228 213Z"  horiz-adv-x="618" vert-adv-y="1000"  />

      
      <glyph glyph-name="uni71" unicode="&#x71;" d="M472-200L293-200L355 63L353 63Q299-12 196-12Q124-12 75.50 42Q27 96 27 187Q27 248 48.50 303.50Q70 359 112.50 404.50Q155 450 227 477Q299 504 391 504Q462 504 597 477L472-200M381 266L400 360Q381 369 346 369Q288 369 251.50 319Q215 269 215 210Q215 172 231 151Q247 130 273 130Q307 130 337 163Q367 196 381 266Z"  horiz-adv-x="619" vert-adv-y="1000"  />

      
      <glyph glyph-name="uni72" unicode="&#x72;" d="M187 0L9 0L59 265Q66 304 71 349.50Q76 395 79.50 440Q83 485 84 492L238 492Q234 422 231 387L234 387Q262 439 306.50 471.50Q351 504 406 504L436 504L401 332L379 332Q337 332 307 317.50Q277 303 259.50 275Q242 247 232.50 220Q223 193 216 153L187 0Z"  horiz-adv-x="418" vert-adv-y="1000"  />

      
      <glyph glyph-name="uni73" unicode="&#x73;" d="M-8 34L34 157Q124 116 191 116Q240 116 240 141Q240 165 178 188Q51 239 51 325Q51 409 119 456.50Q187 504 296 504Q391 504 445 476L403 353Q346 376 284 376Q232 376 232 351Q232 332 296 307Q322 297 339 288.50Q356 280 379.50 263.50Q403 247 415.50 223Q428 199 428 168Q428 81 357 33.50Q286-14 172-12Q49-9-8 34Z"  horiz-adv-x="470" vert-adv-y="1000"  />

      
      <glyph glyph-name="uni74" unicode="&#x74;" d="M140 586L321 634L295 492L397 492L370 354L268 354L244 241Q235 203 235 178Q235 141 275 141Q303 141 316 142L293 1Q262-12 196-12Q126-12 89.50 17Q53 46 53 95Q53 137 64 192L96 354L35 354L61 492L122 492L140 586Z"  horiz-adv-x="384" vert-adv-y="1000"  />

      
      <glyph glyph-name="uni75" unicode="&#x75;" d="M418 492L596 492L536 171Q527 127 507 0L349 0L358 79L356 79Q278-12 175-12Q41-12 41 129Q41 169 50 217L102 492L280 492L232 236Q226 202 226 180Q226 132 267 132Q305 132 335.50 176Q366 220 381 297L418 492Z"  horiz-adv-x="613" vert-adv-y="1000"  />

      
      <glyph glyph-name="uni76" unicode="&#x76;" d="M42 492L225 492L248 309Q252 275 259 229Q266 183 267 172L271 172Q290 221 331 315L410 492L616 492L325 0L142 0L42 492Z"  horiz-adv-x="583" vert-adv-y="1000"  />

      
      <glyph glyph-name="uni77" unicode="&#x77;" d="M47 492L226 492L224 317Q225 258 220 148L222 148Q231 176 243 206.50Q255 237 268.50 269Q282 301 288 316L361 492L506 492L512 325Q516 213 514 148L516 148Q527 185 577 327L640 492L821 492L577 0L406 0L399 126Q397 163 393 295L391 295Q378 262 360 212.50Q342 163 331 137L272 0L101 0L47 492Z"  horiz-adv-x="788" vert-adv-y="1000"  />

      
      <glyph glyph-name="uni78" unicode="&#x78;" d="M45 492L244 492L269 440L309 355L312 355Q317 362 371 438L409 492L619 492L396 256L526 0L327 0L300 61Q284 96 263 152L260 152Q256 146 237 115Q218 84 204 63L162 0L-50 0L179 257L45 492Z"  horiz-adv-x="576" vert-adv-y="1000"  />

      
      <glyph glyph-name="uni79" unicode="&#x79;" d="M40 492L228 492L258 308Q267 254 277 197L279 197Q280 198 293.50 236Q307 274 320 305L397 492L587 492L412 160Q305-46 203-139Q157-181 103.50-204Q50-227 14-230L-16-75Q33-65 71-41Q121-10 148 35Q154 45 150 61L40 492Z"  horiz-adv-x="563" vert-adv-y="1000"  />

      
      <glyph glyph-name="uni7a" unicode="&#x7a;" d="M-25 0L-6 103L121 220Q200 294 267 346L268 348L56 348L84 492L518 492L498 386L374 271Q268 175 231 146L230 144L463 144L435 0L-25 0Z"  horiz-adv-x="510" vert-adv-y="1000"  />

      
      <glyph glyph-name="uni7b" unicode="&#x7b;" d="M38 244L54 330Q88 332 108.50 345Q129 358 134.50 370Q140 382 144 401Q148 422 154 476Q160 530 165 555Q190 686 342 686L390 686L371 588L352 588Q323 588 308 572Q293 556 285 523Q282 509 277 470Q272 431 268 406Q259 344 233.50 320Q208 296 155 288L155 286Q233 274 233 212Q233 181 214 116Q194 48 194 24Q194-14 237-14L256-14L238-112L201-112Q133-112 96.50-89Q60-66 60-3Q60 24 82 101Q103 174 103 195Q103 240 38 244Z"  horiz-adv-x="350" vert-adv-y="1000"  />

      
      <glyph glyph-name="uni7c" unicode="&#x7c;" d="M84 750L202 750L202-250L84-250L84 750Z"  horiz-adv-x="256" vert-adv-y="1000"  />

      
      <glyph glyph-name="uni7d" unicode="&#x7d;" d="M322 330L306 244Q272 242 251.50 229Q231 216 225.50 204Q220 192 216 173Q212 152 206 98Q200 44 195 19Q170-112 18-112L-30-112L-11-14L8-14Q37-14 52 2Q67 18 75 51Q78 65 83 104Q88 143 92 168Q101 230 126.50 254Q152 278 205 286L205 288Q127 300 127 362Q127 385 147 458Q166 530 166 550Q166 588 123 588L104 588L122 686L159 686Q227 686 263.50 663Q300 640 300 577Q300 541 279 474Q257 404 257 379Q257 334 322 330Z"  horiz-adv-x="350" vert-adv-y="1000"  />

      
      <glyph glyph-name="uni7e" unicode="&#x7e;" d="M152 181L37 181Q37 389 186 389Q245 389 326 342Q392 304 411 304Q438 304 443 383L559 383Q566 173 414 173Q354 173 264 229Q213 261 192 261Q161 261 152 181Z"  horiz-adv-x="596" vert-adv-y="1000"  />

      
      <glyph glyph-name="unia1" unicode="&#xa1;" d="M156-188L-31-188L81 253L212 253L156-188M182 498L183 498Q225 498 251.50 471.50Q278 445 278 404Q278 353 245 318.50Q212 284 159 284Q117 284 89.50 311Q62 338 62 382Q62 433 95.50 465.50Q129 498 182 498Z"  horiz-adv-x="295" vert-adv-y="1000"  />

      
      <glyph glyph-name="unia2" unicode="&#xa2;" d="M363-11L245-11L263 83Q179 100 135 154Q89 211 89 297Q89 411 165.50 488.50Q242 566 358 587L374 677L492 677L476 592Q531 590 567 574L514 440Q480 456 430 456Q365 456 325 418.50Q285 381 285 322Q285 270 317 244.50Q349 219 395 219Q438 219 485 239L496 108Q440 82 379 80L363-11Z"  horiz-adv-x="600" vert-adv-y="1000"  />

      
      <glyph glyph-name="unia3" unicode="&#xa3;" d="M507 0L9 0L24 94Q56 105 94 133.50Q132 162 150 195Q166 221 161 251L60 251L84 379L158 379Q160 442 173 485Q199 569 266 615.50Q333 662 432 662Q519 662 560 633L512 498Q481 515 431 515Q348 515 332 441Q326 414 329 379L472 379L448 251L325 251Q322 229 310 205Q293 171 262 152L262 150L529 150L507 0Z"  horiz-adv-x="600" vert-adv-y="1000"  />

      
      <glyph glyph-name="unia4" unicode="&#xa4;" d="M304 563L305 563Q377 563 426 528L510 621L591 537L495 453Q531 405 531 339Q531 270 490 220L584 133L504 53L425 150Q375 110 304 110Q233 110 183 150L104 53L24 133L118 220Q77 270 77 339Q77 405 113 453L17 537L98 621L182 528Q231 563 304 563M304 442L303 442Q267 442 237.50 414.50Q208 387 208 339Q208 287 238 259Q268 231 304 231Q340 231 370 259Q400 287 400 339Q400 387 370.50 414.50Q341 442 304 442Z"  horiz-adv-x="600" vert-adv-y="1000"  />

      
      <glyph glyph-name="unia5" unicode="&#xa5;" d="M327 0L160 0L188 152L27 152L43 234L204 234L215 297L53 297L69 379L187 379L65 650L254 650L288 522Q290 514 300.50 470.50Q311 427 316 403L319 403Q328 417 351 458Q374 499 389 522L471 650L677 650L444 379L563 379L547 297L382 297L371 234L536 234L520 152L356 152L327 0Z"  horiz-adv-x="600" vert-adv-y="1000"  />

      
      <glyph glyph-name="unia6" unicode="&#xa6;" d="M84 174L202 174L202-176L84-176L84 174M84 674L202 674L202 324L84 324L84 674Z"  horiz-adv-x="256" vert-adv-y="1000"  />

      
      <glyph glyph-name="unia7" unicode="&#xa7;" d="M200 328L200 327Q200 283 278 258Q367 230 395 214Q436 234 436 265Q436 307 383 329Q364 337 312 356Q260 375 245 382Q228 377 214 362.50Q200 348 200 328M592 644L551 537Q481 572 391 572Q349 572 325.50 560Q302 548 302 528Q302 512 325 499.50Q348 487 406 469Q439 458 462 449.50Q485 441 511.50 426Q538 411 554 395Q570 379 581 355Q592 331 592 302Q592 254 560 216.50Q528 179 481 158Q517 129 517 80Q517 33 493-3Q469-39 429-58Q389-77 346-86Q303-95 258-95Q116-95 29-34L77 74Q109 51 158 35Q207 19 252 19Q341 19 341 59Q341 77 319.50 90.50Q298 104 245 121Q212 131 193 138Q174 145 142 160.50Q110 176 92.50 191.50Q75 207 60.50 231.50Q46 256 46 285Q46 336 81 376Q116 416 169 433Q138 466 138 506Q138 554 162.50 590Q187 626 227.50 646Q268 666 313 676Q358 686 405 686Q523 686 592 644Z"  horiz-adv-x="624" vert-adv-y="1000"  />

      
      <glyph glyph-name="unia8" unicode="&#xa8;" d="M150 546L149 546Q117 546 94.50 565.50Q72 585 72 619Q72 659 98.50 683.50Q125 708 164 708Q198 708 218.50 687Q239 666 239 634Q239 594 213 570Q187 546 150 546M377 546L376 546Q344 546 321.50 565.50Q299 585 299 619Q299 659 325.50 683.50Q352 708 391 708Q425 708 445.50 687Q466 666 466 634Q466 594 440 570Q414 546 377 546Z"  horiz-adv-x="400" vert-adv-y="1000"  />

      
      <glyph glyph-name="unia9" unicode="&#xa9;" d="M355 648L356 648Q483 648 572.50 558Q662 468 662 340Q662 211 572.50 120.50Q483 30 355 30Q226 30 135.50 120.50Q45 211 45 340Q45 468 135.50 558Q226 648 355 648M354 584L353 584Q256 584 187 512Q118 440 118 339Q118 237 187 165.50Q256 94 354 94Q451 93 520 165Q589 237 589 339Q589 440 520 512Q451 584 354 584M489 491L473 432Q435 454 378 454Q324 454 292.50 424Q261 394 261 337Q261 285 294 252Q327 219 378 219Q442 219 479 244L495 186Q447 153 370 153Q283 153 233 204Q183 255 183 334Q183 417 241.50 468.50Q300 520 377 520Q413 520 446.50 511Q480 502 489 491Z"  horiz-adv-x="677" vert-adv-y="1000"  />

      
      <glyph glyph-name="uniaa" unicode="&#xaa;" d="M419 270L297 270L297 315L296 315Q253 262 178 262Q130 262 96 294.50Q62 327 62 388Q62 474 123.50 533Q185 592 310 592Q395 592 460 563L426 369Q419 328 419 270M303 403L317 496Q300 503 282 503Q244 503 221 474.50Q198 446 198 413Q198 386 211 372Q224 358 244 358Q284 358 303 403Z"  horiz-adv-x="458" vert-adv-y="1000"  />

      
      <glyph glyph-name="uniab" unicode="&#xab;" d="M280 447L140 252L237 57L118 57L20 252L148 447L280 447M498 447L358 252L455 57L336 57L238 252L366 447L498 447Z"  horiz-adv-x="514" vert-adv-y="1000"  />

      
      <glyph glyph-name="uniac" unicode="&#xac;" d="M20 433L536 433L536 100L418 100L418 321L20 321L20 433Z"  horiz-adv-x="596" vert-adv-y="1000"  />

      
      <glyph glyph-name="uniae" unicode="&#xae;" d="M250 479L250 424L192 424L192 584Q222 590 270 590Q320 590 340 577Q358 566 358 542Q358 531 347.50 520.50Q337 510 319 506L319 504Q347 495 354 462Q359 439 365 424L301 424Q297 429 290 456Q286 479 265 479L250 479M252 551L252 516L265 516Q292 516 292 534Q292 552 267 552Q264 552 259 551.50Q254 551 252 551M271 686L272 686Q350 686 404.50 633Q459 580 459 506Q459 431 404.50 378Q350 325 271 325Q192 325 136.50 378Q81 431 81 506Q81 580 136.50 633Q192 686 271 686M270 638L269 638Q215 638 178 599.50Q141 561 141 505Q141 450 178 411.50Q215 373 270 373Q326 372 363 411Q400 450 400 506Q400 561 363 599.50Q326 638 270 638Z"  horiz-adv-x="430" vert-adv-y="1000"  />

      
      <glyph glyph-name="uniaf" unicode="&#xaf;" d="M141 672L416 672L398 579L123 579L141 672Z"  horiz-adv-x="400" vert-adv-y="1000"  />

      
      <glyph glyph-name="uni02C9" unicode="&#x02C9;" d="M141 672L416 672L398 579L123 579L141 672Z"  horiz-adv-x="400" vert-adv-y="1000"  />

      
      <glyph glyph-name="unib0" unicode="&#xb0;" d="M255 686L256 686Q329 686 376.50 640Q424 594 424 526Q424 457 371.50 406.50Q319 356 245 356Q171 356 123.50 401.50Q76 447 76 516Q75 584 128 635Q181 686 255 686M255 599L254 599Q223 599 200 574Q177 549 177 516Q177 483 197.50 463Q218 443 250 443Q282 443 302.50 467.50Q323 492 323 526Q323 559 305 579Q287 599 255 599Z"  horiz-adv-x="400" vert-adv-y="1000"  />

      
      <glyph glyph-name="unib1" unicode="&#xb1;" d="M219 587L337 587L337 423L536 423L536 311L337 311L337 145L219 145L219 311L20 311L20 423L219 423L219 587M20 112L536 112L536 0L20 0L20 112Z"  horiz-adv-x="596" vert-adv-y="1000"  />

      
      <glyph glyph-name="unib2" unicode="&#xb2;" d="M394 407L45 407L57 472L133 522Q211 573 246.50 604Q282 635 282 660Q282 694 234 694Q182 694 134 662L110 747Q183 802 286 802Q323 802 354 794Q385 786 411.50 758.50Q438 731 438 687Q438 664 429 643.50Q420 623 411 610Q402 597 378 579Q354 561 343.50 554Q333 547 302 528L276 512L276 510L414 510L394 407Z"  horiz-adv-x="390" vert-adv-y="1000"  />

      
      <glyph glyph-name="unib3" unicode="&#xb3;" d="M130 672L117 758Q184 802 287 802Q346 802 394 777.50Q442 753 442 706Q442 639 333 615L333 613Q368 609 396.50 588Q425 567 425 529Q425 466 365 434Q305 402 222 402Q109 402 48 444L95 535Q114 521 146 509.50Q178 498 207 498Q234 498 253 507.50Q272 517 272 533Q272 550 248 560.50Q224 571 185 571L168 571L184 651L199 651Q235 651 261 659Q287 667 287 683Q287 706 243 706Q214 706 181.50 695.50Q149 685 130 672Z"  horiz-adv-x="388" vert-adv-y="1000"  />

      
      <glyph glyph-name="unib4" unicode="&#xb4;" d="M249 710L418 710L288 550L157 550L249 710Z"  horiz-adv-x="400" vert-adv-y="1000"  />

      
      <glyph glyph-name="unib5" unicode="&#xb5;" d="M275 492L228 236Q217 178 229.50 155Q242 132 275 132Q300 132 322 156.50Q344 181 356 212Q360 220 363 234L413 492L591 492L531 171Q522 127 564 125L533-1Q509-12 471-12Q383-12 367 85L363 85Q339 40 310.50 16Q282-8 239-8Q195-8 173 11L166-27Q143-154 144-200L-16-200Q-24-166 0-36L98 492L275 492Z"  horiz-adv-x="609" vert-adv-y="1000"  />

      
      <glyph glyph-name="unib6" unicode="&#xb6;" d="M266-52L145-52L205 258L187 264Q129 288 98.50 331Q68 374 68 427Q68 551 164 612.50Q260 674 421 674Q550 674 600 662L463-52L342-52L458 556L382 556L266-52Z"  horiz-adv-x="593" vert-adv-y="1000"  />

      
      <glyph glyph-name="unib7" unicode="&#xb7;" d="M132 145L131 145Q89 145 62.50 171.50Q36 198 36 239Q36 290 69 324.50Q102 359 155 359Q197 359 224.50 332Q252 305 252 261Q252 210 218.50 177.50Q185 145 132 145Z"  horiz-adv-x="294" vert-adv-y="1000"  />

      
      <glyph glyph-name="uni2219" unicode="&#x2219;" d="M132 145L131 145Q89 145 62.50 171.50Q36 198 36 239Q36 290 69 324.50Q102 359 155 359Q197 359 224.50 332Q252 305 252 261Q252 210 218.50 177.50Q185 145 132 145Z"  horiz-adv-x="294" vert-adv-y="1000"  />

      
      <glyph glyph-name="unib8" unicode="&#xb8;" d="M113 5L211 5L180-41Q209-48 228-65Q247-82 247-107Q247-162 205-186Q163-210 109-210Q51-210 21-186L49-121Q77-139 105-139Q138-139 138-116Q138-87 60-82L113 5Z"  horiz-adv-x="400" vert-adv-y="1000"  />

      
      <glyph glyph-name="unib9" unicode="&#xb9;" d="M292 407L145 407L197 682L196 682L112 651L100 747L240 797L366 797L292 407Z"  horiz-adv-x="316" vert-adv-y="1000"  />

      
      <glyph glyph-name="uniba" unicode="&#xba;" d="M264 592L265 592Q338 592 387.50 554Q437 516 437 442Q437 360 378 311Q319 262 217 262Q150 262 101.50 302Q53 342 53 409Q53 494 111 543Q169 592 264 592M258 505L257 505Q224 505 206.50 472.50Q189 440 189 405Q189 381 201.50 365Q214 349 234 349Q267 349 284.50 381.50Q302 414 302 451Q302 505 258 505Z"  horiz-adv-x="427" vert-adv-y="1000"  />

      
      <glyph glyph-name="unibb" unicode="&#xbb;" d="M152 252L55 447L174 447L272 252L144 57L12 57L152 252M370 252L273 447L392 447L490 252L362 57L230 57L370 252Z"  horiz-adv-x="512" vert-adv-y="1000"  />

      
      <glyph glyph-name="unibc" unicode="&#xbc;" d="M781 0L645 0L661 86L452 86L467 160L679 395L856 395L814 173L867 173L850 86L797 86L781 0M678 173L688 227Q691 241 698.50 268.50Q706 296 709 311L706 311Q674 262 649 233L601 174L605 173L678 173M293 267L146 267L198 542L197 542L113 511L101 607L241 657L367 657L293 267M265-12L159-12L648 662L754 662L265-12Z"  horiz-adv-x="920" vert-adv-y="1000"  />

      
      <glyph glyph-name="unibd" unicode="&#xbd;" d="M280 267L133 267L185 542L184 542L100 511L88 607L228 657L354 657L280 267M234-12L134-12L629 662L729 662L234-12M834 0L485 0L497 65L573 115Q653 169 687.50 198.50Q722 228 722 253Q722 287 674 287Q622 287 574 255L550 340Q623 395 726 395Q763 395 794 387Q825 379 851.50 351.50Q878 324 878 280Q878 257 869 236.50Q860 216 851 203Q842 190 818 172Q794 154 783.50 147Q773 140 742 121L716 105L716 103L854 103L834 0Z"  horiz-adv-x="920" vert-adv-y="1000"  />

      
      <glyph glyph-name="unibe" unicode="&#xbe;" d="M298-12L192-12L681 662L787 662L298-12M108 532L95 618Q162 662 265 662Q324 662 372 637.50Q420 613 420 566Q420 498 312 475L311 473Q346 469 374.50 448Q403 427 403 389Q403 326 343 294Q283 262 200 262Q88 262 26 304L73 395Q92 381 124 369.50Q156 358 185 358Q212 358 231 367.50Q250 377 250 393Q250 410 226 420.50Q202 431 163 431L146 431L162 511L177 511Q213 511 239 519Q265 527 265 543Q265 566 221 566Q192 566 159.50 555.50Q127 545 108 532M791 0L655 0L671 86L462 86L477 160L689 395L866 395L824 173L877 173L860 86L807 86L791 0M688 173L698 227Q701 241 708.50 268.50Q716 296 719 311L716 311Q684 262 659 233L611 174L615 173L688 173Z"  horiz-adv-x="920" vert-adv-y="1000"  />

      
      <glyph glyph-name="unibf" unicode="&#xbf;" d="M174 253L351 253Q349 235 347 225Q332 145 259 67Q245 52 221 32Q197 12 185-1.50Q173-15 173-27Q173-58 225-61Q301-61 351-30L378-148Q296-200 175-200Q130-200 91-188Q52-176 22-142.50Q-8-109-8-58Q-8-41-5.50-26Q-3-11 4.50 4Q12 19 17 28Q22 37 36.50 53Q51 69 56 75Q61 81 81 100Q101 119 106 124Q153 169 169 231L174 253M298 498L299 498Q341 498 367.50 471.50Q394 445 394 404Q394 353 361 318.50Q328 284 275 284Q233 284 205.50 311Q178 338 178 382Q178 433 211.50 465.50Q245 498 298 498Z"  horiz-adv-x="502" vert-adv-y="1000"  />

      
      <glyph glyph-name="unic0" unicode="&#xc0;" d="M443 166L244 166L171 0L-25 0L312 674L551 674L647 0L455 0L443 166M297 302L433 302L421 421Q411 515 407 547L405 547Q397 530 378.50 485.50Q360 441 350 420L297 302M236 840L430 840L512 713L356 713L236 840Z"  horiz-adv-x="702" vert-adv-y="1000"  />

      
      <glyph glyph-name="unic1" unicode="&#xc1;" d="M443 166L244 166L171 0L-25 0L312 674L551 674L647 0L455 0L443 166M297 302L433 302L421 421Q411 515 407 547L405 547Q397 530 378.50 485.50Q360 441 350 420L297 302M428 840L622 840L502 710L346 710L428 840Z"  horiz-adv-x="702" vert-adv-y="1000"  />

      
      <glyph glyph-name="unic2" unicode="&#xc2;" d="M443 166L244 166L171 0L-25 0L312 674L551 674L647 0L455 0L443 166M297 302L433 302L421 421Q411 515 407 547L405 547Q397 530 378.50 485.50Q360 441 350 420L297 302M388 840L528 840L612 710L492 710L451 767L449 767L394 710L261 710L388 840Z"  horiz-adv-x="702" vert-adv-y="1000"  />

      
      <glyph glyph-name="unic3" unicode="&#xc3;" d="M443 166L244 166L171 0L-25 0L312 674L551 674L647 0L455 0L443 166M297 302L433 302L421 421Q411 515 407 547L405 547Q397 530 378.50 485.50Q360 441 350 420L297 302M361 713L277 713Q299 856 387 856Q419 856 453 836Q484 815 494 815Q507 815 514.50 824.50Q522 834 530 861L612 861Q592 721 500 721Q465 721 433 740Q403 759 393 759Q372 759 361 713Z"  horiz-adv-x="702" vert-adv-y="1000"  />

      
      <glyph glyph-name="unic4" unicode="&#xc4;" d="M443 166L244 166L171 0L-25 0L312 674L551 674L647 0L455 0L443 166M297 302L433 302L421 421Q411 515 407 547L405 547Q397 530 378.50 485.50Q360 441 350 420L297 302M316 707L315 707Q285 707 263 726Q241 745 241 777Q241 816 266 839.50Q291 863 329 863Q362 863 382 843Q402 823 402 792Q402 753 377 730Q352 707 316 707M543 707L542 707Q512 707 490 726Q468 745 468 777Q468 816 493 839.50Q518 863 556 863Q589 863 609 843Q629 823 629 792Q629 753 604 730Q579 707 543 707Z"  horiz-adv-x="702" vert-adv-y="1000"  />

      
      <glyph glyph-name="unic5" unicode="&#xc5;" d="M443 166L244 166L171 0L-25 0L312 674L551 674L647 0L455 0L443 166M297 302L433 302L421 421Q411 515 407 547L405 547Q397 530 378.50 485.50Q360 441 350 420L297 302M464 906L465 906Q513 906 547 882Q581 858 581 810Q579 756 539 727.50Q499 699 439 699Q394 699 361 723Q328 747 326 790Q324 844 363.50 875Q403 906 464 906M457 847L456 847Q435 847 421 833Q407 819 407 797Q407 779 418 768Q429 757 448 757Q470 757 484.50 770.50Q499 784 499 804Q499 824 487.50 835.50Q476 847 457 847Z"  horiz-adv-x="702" vert-adv-y="1000"  />

      
      <glyph glyph-name="unic6" unicode="&#xc6;" d="M154 0L-40 0L385 674L965 674L937 524L644 524L640 417L917 417L888 267L638 267L636 150L917 150L888 0L456 0L461 161L247 161L154 0M336 310L467 310L473 460Q473 474 473.50 500.50Q474 527 475 541L472 541Q465 529 451 504.50Q437 480 430 468L336 310Z"  horiz-adv-x="976" vert-adv-y="1000"  />

      
      <glyph glyph-name="unic7" unicode="&#xc7;" d="M584 166L603 27Q523-12 420-12L400-41Q467-58 467-111Q467-160 425-182.50Q383-205 329-205Q271-205 241-181L269-123Q296-139 325-139Q358-139 358-116Q358-87 280-82L329-8Q202 10 127.50 87.50Q53 165 53 297Q53 412 106.50 497.50Q160 583 252 631Q359 686 508 686Q616 686 679 656L633 514Q573 536 496 536Q401 536 343 498Q248 437 248 312Q248 230 301 184Q354 138 445 138Q523 138 584 166Z"  horiz-adv-x="662" vert-adv-y="1000"  />

      
      <glyph glyph-name="unic8" unicode="&#xc8;" d="M540 417L511 267L242 267L220 150L521 150L493 0L13 0L140 674L605 674L576 524L290 524L270 417L540 417M198 840L392 840L474 713L318 713L198 840Z"  horiz-adv-x="582" vert-adv-y="1000"  />

      
      <glyph glyph-name="unic9" unicode="&#xc9;" d="M540 417L511 267L242 267L220 150L521 150L493 0L13 0L140 674L605 674L576 524L290 524L270 417L540 417M367 840L561 840L441 710L285 710L367 840Z"  horiz-adv-x="582" vert-adv-y="1000"  />

      
      <glyph glyph-name="unica" unicode="&#xca;" d="M540 417L511 267L242 267L220 150L521 150L493 0L13 0L140 674L605 674L576 524L290 524L270 417L540 417M328 840L468 840L552 710L432 710L391 767L389 767L334 710L201 710L328 840Z"  horiz-adv-x="582" vert-adv-y="1000"  />

      
      <glyph glyph-name="unicb" unicode="&#xcb;" d="M540 417L511 267L242 267L220 150L521 150L493 0L13 0L140 674L605 674L576 524L290 524L270 417L540 417M271 707L270 707Q240 707 218 726Q196 745 196 777Q196 816 221 839.50Q246 863 284 863Q317 863 337 843Q357 823 357 792Q357 753 332 730Q307 707 271 707M498 707L497 707Q467 707 445 726Q423 745 423 777Q423 816 448 839.50Q473 863 511 863Q544 863 564 843Q584 823 584 792Q584 753 559 730Q534 707 498 707Z"  horiz-adv-x="582" vert-adv-y="1000"  />

      
      <glyph glyph-name="unicc" unicode="&#xcc;" d="M135 674L313 674L186 0L8 0L135 674M47 840L241 840L323 713L167 713L47 840Z"  horiz-adv-x="300" vert-adv-y="1000"  />

      
      <glyph glyph-name="unicd" unicode="&#xcd;" d="M135 674L313 674L186 0L8 0L135 674M227 840L421 840L301 710L145 710L227 840Z"  horiz-adv-x="300" vert-adv-y="1000"  />

      
      <glyph glyph-name="unice" unicode="&#xce;" d="M135 674L313 674L186 0L8 0L135 674M177 840L317 840L401 710L281 710L240 767L238 767L183 710L50 710L177 840Z"  horiz-adv-x="300" vert-adv-y="1000"  />

      
      <glyph glyph-name="unicf" unicode="&#xcf;" d="M135 674L313 674L186 0L8 0L135 674M120 707L119 707Q89 707 67 726Q45 745 45 777Q45 816 70 839.50Q95 863 133 863Q166 863 186 843Q206 823 206 792Q206 753 181 730Q156 707 120 707M347 707L346 707Q316 707 294 726Q272 745 272 777Q272 816 297 839.50Q322 863 360 863Q393 863 413 843Q433 823 433 792Q433 753 408 730Q383 707 347 707Z"  horiz-adv-x="300" vert-adv-y="1000"  />

      
      <glyph glyph-name="unid0" unicode="&#xd0;" d="M6 267L36 419L114 419L160 663Q252 679 365 679Q550 679 637 623Q757 546 757 381Q757 197 621 92Q495-5 250-5Q105-5 35 10L85 267L6 267M426 419L397 267L266 267L242 140Q260 137 302 137Q426 137 493 202Q560 266 560 369Q560 537 378 537Q343 537 317 533L295 419L426 419Z"  horiz-adv-x="781" vert-adv-y="1000"  />

      
      <glyph glyph-name="unid1" unicode="&#xd1;" d="M182 0L13 0L140 674L366 674L432 478Q472 359 504 219L507 219Q508 303 535 448L577 674L747 674L620 0L424 0L349 224Q293 395 271 484L267 484Q260 414 221 209L182 0M385 713L301 713Q323 856 411 856Q443 856 477 836Q508 815 518 815Q531 815 538.50 824.50Q546 834 554 861L636 861Q616 721 524 721Q489 721 457 740Q427 759 417 759Q396 759 385 713Z"  horiz-adv-x="733" vert-adv-y="1000"  />

      
      <glyph glyph-name="unid2" unicode="&#xd2;" d="M369-12L368-12Q228-12 140 69.50Q52 151 52 292Q52 466 169 577Q284 686 456 686Q598 686 684.50 605.50Q771 525 771 379Q771 205 657 96Q544-12 369-12M393 134L394 134Q459 134 509 184Q579 254 579 368Q579 447 545 493.50Q511 540 436 540Q368 540 316 488Q244 416 244 304Q244 223 282.50 178.50Q321 134 393 134M278 840L472 840L554 713L398 713L278 840Z"  horiz-adv-x="795" vert-adv-y="1000"  />

      
      <glyph glyph-name="unid3" unicode="&#xd3;" d="M369-12L368-12Q228-12 140 69.50Q52 151 52 292Q52 466 169 577Q284 686 456 686Q598 686 684.50 605.50Q771 525 771 379Q771 205 657 96Q544-12 369-12M393 134L394 134Q459 134 509 184Q579 254 579 368Q579 447 545 493.50Q511 540 436 540Q368 540 316 488Q244 416 244 304Q244 223 282.50 178.50Q321 134 393 134M465 845L659 845L539 715L383 715L465 845Z"  horiz-adv-x="795" vert-adv-y="1000"  />

      
      <glyph glyph-name="unid4" unicode="&#xd4;" d="M369-12L368-12Q228-12 140 69.50Q52 151 52 292Q52 466 169 577Q284 686 456 686Q598 686 684.50 605.50Q771 525 771 379Q771 205 657 96Q544-12 369-12M393 134L394 134Q459 134 509 184Q579 254 579 368Q579 447 545 493.50Q511 540 436 540Q368 540 316 488Q244 416 244 304Q244 223 282.50 178.50Q321 134 393 134M415 840L555 840L639 710L519 710L478 767L476 767L421 710L288 710L415 840Z"  horiz-adv-x="795" vert-adv-y="1000"  />

      
      <glyph glyph-name="unid5" unicode="&#xd5;" d="M369-12L368-12Q228-12 140 69.50Q52 151 52 292Q52 466 169 577Q284 686 456 686Q598 686 684.50 605.50Q771 525 771 379Q771 205 657 96Q544-12 369-12M393 134L394 134Q459 134 509 184Q579 254 579 368Q579 447 545 493.50Q511 540 436 540Q368 540 316 488Q244 416 244 304Q244 223 282.50 178.50Q321 134 393 134M398 713L314 713Q336 856 424 856Q456 856 490 836Q521 815 531 815Q544 815 551.50 824.50Q559 834 567 861L649 861Q629 721 537 721Q502 721 470 740Q440 759 430 759Q410 759 398 713Z"  horiz-adv-x="795" vert-adv-y="1000"  />

      
      <glyph glyph-name="unid6" unicode="&#xd6;" d="M369-12L368-12Q228-12 140 69.50Q52 151 52 292Q52 466 169 577Q284 686 456 686Q598 686 684.50 605.50Q771 525 771 379Q771 205 657 96Q544-12 369-12M393 134L394 134Q459 134 509 184Q579 254 579 368Q579 447 545 493.50Q511 540 436 540Q368 540 316 488Q244 416 244 304Q244 223 282.50 178.50Q321 134 393 134M363 707L362 707Q332 707 310 726Q288 745 288 777Q288 816 313 839.50Q338 863 376 863Q409 863 429 843Q449 823 449 792Q449 753 424 730Q399 707 363 707M590 707L589 707Q559 707 537 726Q515 745 515 777Q515 816 540 839.50Q565 863 603 863Q636 863 656 843Q676 823 676 792Q676 753 651 730Q626 707 590 707Z"  horiz-adv-x="795" vert-adv-y="1000"  />

      
      <glyph glyph-name="unid7" unicode="&#xd7;" d="M16 447L94 526L278 339L462 526L540 447L354 263L540 79L462 0L278 187L94 0L16 79L202 263L16 447Z"  horiz-adv-x="596" vert-adv-y="1000"  />

      
      <glyph glyph-name="unid8" unicode="&#xd8;" d="M135-83L48 4L122 87Q52 170 52 301Q52 463 170 576Q283 686 446 686Q551 686 619 647L702 741L795 662L712 568Q771 495 771 365Q771 289 740.50 218.50Q710 148 656 96Q603 45 529.50 16.50Q456-12 379-12Q289-12 226 19L135-83M247 227L511 526Q484 540 442 540Q377 540 326.50 500Q276 460 252 398Q219 312 245 227L247 227M583 424L333 142Q356 134 389 134Q453 134 500 170.50Q547 207 570 266Q599 339 585 424L583 424Z"  horiz-adv-x="795" vert-adv-y="1000"  />

      
      <glyph glyph-name="unid9" unicode="&#xd9;" d="M138 674L316 674L247 308Q240 275 240 228Q241 191 267 162.50Q293 134 342 134Q403 134 440 176Q477 218 494 308L563 674L741 674L673 313Q641 143 560.50 65.50Q480-12 320-12Q198-14 130 47.50Q62 109 62 228Q62 266 71 318L138 674M260 840L454 840L536 713L380 713L260 840Z"  horiz-adv-x="725" vert-adv-y="1000"  />

      
      <glyph glyph-name="unida" unicode="&#xda;" d="M138 674L316 674L247 308Q240 275 240 228Q241 191 267 162.50Q293 134 342 134Q403 134 440 176Q477 218 494 308L563 674L741 674L673 313Q641 143 560.50 65.50Q480-12 320-12Q198-14 130 47.50Q62 109 62 228Q62 266 71 318L138 674M440 840L634 840L514 710L358 710L440 840Z"  horiz-adv-x="725" vert-adv-y="1000"  />

      
      <glyph glyph-name="unidb" unicode="&#xdb;" d="M138 674L316 674L247 308Q240 275 240 228Q241 191 267 162.50Q293 134 342 134Q403 134 440 176Q477 218 494 308L563 674L741 674L673 313Q641 143 560.50 65.50Q480-12 320-12Q198-14 130 47.50Q62 109 62 228Q62 266 71 318L138 674M397 840L537 840L621 710L501 710L460 767L458 767L403 710L270 710L397 840Z"  horiz-adv-x="725" vert-adv-y="1000"  />

      
      <glyph glyph-name="unidc" unicode="&#xdc;" d="M138 674L316 674L247 308Q240 275 240 228Q241 191 267 162.50Q293 134 342 134Q403 134 440 176Q477 218 494 308L563 674L741 674L673 313Q641 143 560.50 65.50Q480-12 320-12Q198-14 130 47.50Q62 109 62 228Q62 266 71 318L138 674M337 707L336 707Q306 707 284 726Q262 745 262 777Q262 816 287 839.50Q312 863 350 863Q383 863 403 843Q423 823 423 792Q423 753 398 730Q373 707 337 707M564 707L563 707Q533 707 511 726Q489 745 489 777Q489 816 514 839.50Q539 863 577 863Q610 863 630 843Q650 823 650 792Q650 753 625 730Q600 707 564 707Z"  horiz-adv-x="725" vert-adv-y="1000"  />

      
      <glyph glyph-name="unidd" unicode="&#xdd;" d="M348 0L170 0L223 281L67 674L258 674L300 521Q333 405 333 404L335 404Q381 479 408 525L496 674L717 674L403 288L348 0M384 840L578 840L458 710L302 710L384 840Z"  horiz-adv-x="660" vert-adv-y="1000"  />

      
      <glyph glyph-name="unide" unicode="&#xde;" d="M13 0L140 674L314 674L292 554Q328 557 363 557Q472 557 533 513Q606 461 606 369Q606 301 580 250Q554 199 508.50 170Q463 141 407.50 127Q352 113 286 113Q242 113 210 118L187 0L13 0M265 413L237 262Q259 256 299 256Q353 256 389.50 279Q426 302 426 344Q426 417 320 417Q289 417 265 413Z"  horiz-adv-x="616" vert-adv-y="1000"  />

      
      <glyph glyph-name="unidf" unicode="&#xdf;" d="M187 0L9 0L95 453Q120 585 197.50 656.50Q275 728 407 728Q493 728 556 683Q619 638 619 553Q619 492 576 454Q555 441 544.50 433.50Q534 426 523.50 410.50Q513 395 513 377Q513 350 537 309Q580 233 580 182Q580 81 517.50 34.50Q455-12 353-12Q274-12 229 15L270 144Q301 126 347 126Q398 126 398 161Q398 181 373 224Q328 301 328 344Q328 432 430 491Q443 509 443 528Q443 554 426.50 569.50Q410 585 383 585Q297 585 271 446L187 0Z"  horiz-adv-x="630" vert-adv-y="1000"  />

      
      <glyph glyph-name="unie0" unicode="&#xe0;" d="M517 0L351 0Q355 58 356 87L354 87Q298-12 189-12Q118-12 71 38Q24 88 24 171Q24 236 46.50 294Q69 352 113.50 400Q158 448 232.50 476Q307 504 403 504Q497 504 588 475L536 222Q514 103 517 0M370 285L387 366Q371 369 353 369Q294 369 253.50 316Q213 263 213 202Q213 167 228.50 148.50Q244 130 267 130Q298 130 326 165Q354 200 370 285M191 710L360 710L452 550L321 550L191 710Z"  horiz-adv-x="608" vert-adv-y="1000"  />

      
      <glyph glyph-name="unie1" unicode="&#xe1;" d="M517 0L351 0Q355 58 356 87L354 87Q298-12 189-12Q118-12 71 38Q24 88 24 171Q24 236 46.50 294Q69 352 113.50 400Q158 448 232.50 476Q307 504 403 504Q497 504 588 475L536 222Q514 103 517 0M370 285L387 366Q371 369 353 369Q294 369 253.50 316Q213 263 213 202Q213 167 228.50 148.50Q244 130 267 130Q298 130 326 165Q354 200 370 285M408 710L577 710L447 550L316 550L408 710Z"  horiz-adv-x="608" vert-adv-y="1000"  />

      
      <glyph glyph-name="unie2" unicode="&#xe2;" d="M517 0L351 0Q355 58 356 87L354 87Q298-12 189-12Q118-12 71 38Q24 88 24 171Q24 236 46.50 294Q69 352 113.50 400Q158 448 232.50 476Q307 504 403 504Q497 504 588 475L536 222Q514 103 517 0M370 285L387 366Q371 369 353 369Q294 369 253.50 316Q213 263 213 202Q213 167 228.50 148.50Q244 130 267 130Q298 130 326 165Q354 200 370 285M345 710L469 710L552 550L441 550L397 626L395 626L339 550L217 550L345 710Z"  horiz-adv-x="608" vert-adv-y="1000"  />

      
      <glyph glyph-name="unie3" unicode="&#xe3;" d="M517 0L351 0Q355 58 356 87L354 87Q298-12 189-12Q118-12 71 38Q24 88 24 171Q24 236 46.50 294Q69 352 113.50 400Q158 448 232.50 476Q307 504 403 504Q497 504 588 475L536 222Q514 103 517 0M370 285L387 366Q371 369 353 369Q294 369 253.50 316Q213 263 213 202Q213 167 228.50 148.50Q244 130 267 130Q298 130 326 165Q354 200 370 285M297 551L213 551Q223 623 252.50 658.50Q282 694 323 694Q356 694 388 674Q419 653 430 653Q443 653 450.50 662.50Q458 672 466 699L548 699Q528 559 435 559Q393 559 364 581Q343 597 327 597Q308 597 297 551Z"  horiz-adv-x="608" vert-adv-y="1000"  />

      
      <glyph glyph-name="unie4" unicode="&#xe4;" d="M517 0L351 0Q355 58 356 87L354 87Q298-12 189-12Q118-12 71 38Q24 88 24 171Q24 236 46.50 294Q69 352 113.50 400Q158 448 232.50 476Q307 504 403 504Q497 504 588 475L536 222Q514 103 517 0M370 285L387 366Q371 369 353 369Q294 369 253.50 316Q213 263 213 202Q213 167 228.50 148.50Q244 130 267 130Q298 130 326 165Q354 200 370 285M254 546L253 546Q221 546 198.50 565.50Q176 585 176 619Q176 659 202.50 683.50Q229 708 268 708Q302 708 322.50 687Q343 666 343 634Q343 594 317 570Q291 546 254 546M481 546L480 546Q448 546 425.50 565.50Q403 585 403 619Q403 659 429.50 683.50Q456 708 495 708Q529 708 549.50 687Q570 666 570 634Q570 594 544 570Q518 546 481 546Z"  horiz-adv-x="608" vert-adv-y="1000"  />

      
      <glyph glyph-name="unie5" unicode="&#xe5;" d="M517 0L351 0Q355 58 356 87L354 87Q298-12 189-12Q118-12 71 38Q24 88 24 171Q24 236 46.50 294Q69 352 113.50 400Q158 448 232.50 476Q307 504 403 504Q497 504 588 475L536 222Q514 103 517 0M370 285L387 366Q371 369 353 369Q294 369 253.50 316Q213 263 213 202Q213 167 228.50 148.50Q244 130 267 130Q298 130 326 165Q354 200 370 285M389 746L390 746Q438 746 472 722Q506 698 506 650Q504 596 463.50 567.50Q423 539 363 539Q318 539 285 563Q252 587 250 630Q248 684 287.50 715Q327 746 389 746M382 688L381 688Q360 688 346 674Q332 660 332 637Q332 619 343 608Q354 597 373 597Q395 597 409.50 611Q424 625 424 645Q424 665 412.50 676.50Q401 688 382 688Z"  horiz-adv-x="608" vert-adv-y="1000"  />

      
      <glyph glyph-name="unie6" unicode="&#xe6;" d="M743 159L744 35Q663-12 543-12Q487-12 441 8.50Q395 29 371 66L367 66Q285-12 174-12Q100-12 52 28Q4 68 4 131Q4 187 36.50 229.50Q69 272 121.50 294.50Q174 317 229 328Q284 339 341 340L342 344Q343 349 338 357Q333 365 313.50 373.50Q294 382 265 382Q183 382 112 334L85 443Q173 504 286 504Q400 504 438 436L441 436Q506 504 618 504Q713 504 762.50 459Q812 414 812 358Q812 302 785.50 265.50Q759 229 709 212Q659 195 602.50 190Q546 185 470 188Q471 171 483 159Q515 127 585 127Q666 127 743 159M319 192L325 226Q305 226 285 223Q265 220 241.50 213.50Q218 207 203 194Q188 181 188 162Q188 123 239 123Q267 123 289.50 141.50Q312 160 319 192M637 341L637 342Q637 357 623.50 368Q610 379 583 379Q543 379 517.50 355.50Q492 332 489 309Q637 299 637 341Z"  horiz-adv-x="840" vert-adv-y="1000"  />

      
      <glyph glyph-name="unie7" unicode="&#xe7;" d="M410 149L412 16Q360-9 310-11L290-41Q319-48 338-66.50Q357-85 357-113Q357-148 334-171Q311-194 283.50-202Q256-210 227-210Q161-210 131-186L159-121Q190-139 217-139Q248-139 248-116Q248-87 170-82L218-9Q128 1 77 57.50Q26 114 26 205Q26 335 123.50 419.50Q221 504 374 504Q437 504 483 488L441 355Q414 366 374 366Q300 366 257.50 324Q215 282 215 222Q215 175 243 152Q271 129 310 129Q363 129 410 149Z"  horiz-adv-x="478" vert-adv-y="1000"  />

      
      <glyph glyph-name="unie8" unicode="&#xe8;" d="M462 157L472 31Q388-12 266-12Q152-12 90 44Q28 100 28 208Q28 327 113.50 415.50Q199 504 338 504Q422 504 478 462.50Q534 421 534 343Q534 172 196 181Q201 163 215 151Q245 125 310 125Q395 125 462 157M365 349L365 350Q365 361 351.50 370Q338 379 317 379Q270 379 243.50 356Q217 333 213 309Q300 309 332.50 318Q365 327 365 349M156 710L325 710L417 550L286 550L156 710Z"  horiz-adv-x="562" vert-adv-y="1000"  />

      
      <glyph glyph-name="unie9" unicode="&#xe9;" d="M462 157L472 31Q388-12 266-12Q152-12 90 44Q28 100 28 208Q28 327 113.50 415.50Q199 504 338 504Q422 504 478 462.50Q534 421 534 343Q534 172 196 181Q201 163 215 151Q245 125 310 125Q395 125 462 157M365 349L365 350Q365 361 351.50 370Q338 379 317 379Q270 379 243.50 356Q217 333 213 309Q300 309 332.50 318Q365 327 365 349M365 710L534 710L404 550L273 550L365 710Z"  horiz-adv-x="562" vert-adv-y="1000"  />

      
      <glyph glyph-name="uniea" unicode="&#xea;" d="M462 157L472 31Q388-12 266-12Q152-12 90 44Q28 100 28 208Q28 327 113.50 415.50Q199 504 338 504Q422 504 478 462.50Q534 421 534 343Q534 172 196 181Q201 163 215 151Q245 125 310 125Q395 125 462 157M365 349L365 350Q365 361 351.50 370Q338 379 317 379Q270 379 243.50 356Q217 333 213 309Q300 309 332.50 318Q365 327 365 349M297 710L421 710L504 550L393 550L349 626L347 626L291 550L169 550L297 710Z"  horiz-adv-x="562" vert-adv-y="1000"  />

      
      <glyph glyph-name="unieb" unicode="&#xeb;" d="M462 157L472 31Q388-12 266-12Q152-12 90 44Q28 100 28 208Q28 327 113.50 415.50Q199 504 338 504Q422 504 478 462.50Q534 421 534 343Q534 172 196 181Q201 163 215 151Q245 125 310 125Q395 125 462 157M365 349L365 350Q365 361 351.50 370Q338 379 317 379Q270 379 243.50 356Q217 333 213 309Q300 309 332.50 318Q365 327 365 349M231 546L230 546Q198 546 175.50 565.50Q153 585 153 619Q153 659 179.50 683.50Q206 708 245 708Q279 708 299.50 687Q320 666 320 634Q320 594 294 570Q268 546 231 546M458 546L457 546Q425 546 402.50 565.50Q380 585 380 619Q380 659 406.50 683.50Q433 708 472 708Q506 708 526.50 687Q547 666 547 634Q547 594 521 570Q495 546 458 546Z"  horiz-adv-x="562" vert-adv-y="1000"  />

      
      <glyph glyph-name="uniec" unicode="&#xec;" d="M187 0L9 0L102 492L280 492L187 0M14 710L183 710L275 550L144 550L14 710Z"  horiz-adv-x="296" vert-adv-y="1000"  />

      
      <glyph glyph-name="unied" unicode="&#xed;" d="M187 0L9 0L102 492L280 492L187 0M221 710L390 710L260 550L129 550L221 710Z"  horiz-adv-x="296" vert-adv-y="1000"  />

      
      <glyph glyph-name="uniee" unicode="&#xee;" d="M187 0L9 0L102 492L280 492L187 0M164 710L288 710L371 550L260 550L216 626L214 626L158 550L36 550L164 710Z"  horiz-adv-x="296" vert-adv-y="1000"  />

      
      <glyph glyph-name="unief" unicode="&#xef;" d="M187 0L9 0L102 492L280 492L187 0M98 546L97 546Q65 546 42.50 565.50Q20 585 20 619Q20 659 46.50 683.50Q73 708 112 708Q146 708 166.50 687Q187 666 187 634Q187 594 161 570Q135 546 98 546M325 546L324 546Q292 546 269.50 565.50Q247 585 247 619Q247 659 273.50 683.50Q300 708 339 708Q373 708 393.50 687Q414 666 414 634Q414 594 388 570Q362 546 325 546Z"  horiz-adv-x="296" vert-adv-y="1000"  />

      
      <glyph glyph-name="unif0" unicode="&#xf0;" d="M284 123L285 123Q338 123 365 166Q392 209 392 261Q392 295 382 310Q363 335 318 335Q272 335 241.50 295.50Q211 256 211 208Q211 173 230.50 148Q250 123 284 123M144 456L124 527L247 575Q210 599 157 617L232 716Q325 688 406 635L573 697L595 627L474 582Q523 538 553.50 466Q584 394 584 309Q584 171 498.50 79.50Q413-12 264-12Q160-12 92 45.50Q24 103 24 206Q24 318 106.50 391Q189 464 305 464Q346 464 376 449L378 451Q355 499 320 524L144 456Z"  horiz-adv-x="621" vert-adv-y="1000"  />

      
      <glyph glyph-name="unif1" unicode="&#xf1;" d="M187 0L9 0L69 321Q78 365 98 492L256 492L247 411L249 411Q319 504 428 504Q497 504 530.50 466Q564 428 564 363Q564 326 557 284L503 0L325 0L373 256Q378 284 378 310Q378 362 337 362Q300 362 269.50 317.50Q239 273 224 195L187 0M290 551L206 551Q216 623 245 658.50Q274 694 316 694Q349 694 381 674Q412 653 423 653Q436 653 443.50 662.50Q451 672 459 699L541 699Q521 559 428 559Q386 559 357 581Q336 597 320 597Q301 597 290 551Z"  horiz-adv-x="613" vert-adv-y="1000"  />

      
      <glyph glyph-name="unif2" unicode="&#xf2;" d="M264-12L263-12Q164-12 97 43Q30 98 30 203Q30 333 119 418.50Q208 504 350 504Q451 504 518.50 447Q586 390 586 294Q586 150 495 69Q404-12 264-12M289 123L290 123Q342 123 370.50 175Q399 227 399 285Q399 322 381.50 345.50Q364 369 328 369Q289 369 262.50 338Q236 307 226.50 272Q217 237 217 205Q217 165 236.50 144Q256 123 289 123M170 710L339 710L431 550L300 550L170 710Z"  horiz-adv-x="621" vert-adv-y="1000"  />

      
      <glyph glyph-name="unif3" unicode="&#xf3;" d="M264-12L263-12Q164-12 97 43Q30 98 30 203Q30 333 119 418.50Q208 504 350 504Q451 504 518.50 447Q586 390 586 294Q586 150 495 69Q404-12 264-12M289 123L290 123Q342 123 370.50 175Q399 227 399 285Q399 322 381.50 345.50Q364 369 328 369Q289 369 262.50 338Q236 307 226.50 272Q217 237 217 205Q217 165 236.50 144Q256 123 289 123M375 710L544 710L414 550L283 550L375 710Z"  horiz-adv-x="621" vert-adv-y="1000"  />

      
      <glyph glyph-name="unif4" unicode="&#xf4;" d="M264-12L263-12Q164-12 97 43Q30 98 30 203Q30 333 119 418.50Q208 504 350 504Q451 504 518.50 447Q586 390 586 294Q586 150 495 69Q404-12 264-12M289 123L290 123Q342 123 370.50 175Q399 227 399 285Q399 322 381.50 345.50Q364 369 328 369Q289 369 262.50 338Q236 307 226.50 272Q217 237 217 205Q217 165 236.50 144Q256 123 289 123M317 710L441 710L524 550L413 550L369 626L367 626L311 550L189 550L317 710Z"  horiz-adv-x="621" vert-adv-y="1000"  />

      
      <glyph glyph-name="unif5" unicode="&#xf5;" d="M264-12L263-12Q164-12 97 43Q30 98 30 203Q30 333 119 418.50Q208 504 350 504Q451 504 518.50 447Q586 390 586 294Q586 150 495 69Q404-12 264-12M289 123L290 123Q342 123 370.50 175Q399 227 399 285Q399 322 381.50 345.50Q364 369 328 369Q289 369 262.50 338Q236 307 226.50 272Q217 237 217 205Q217 165 236.50 144Q256 123 289 123M279 551L195 551Q205 623 234.50 658.50Q264 694 305 694Q338 694 370 674Q401 653 412 653Q425 653 432.50 662.50Q440 672 448 699L530 699Q510 559 417 559Q375 559 346 581Q325 597 309 597Q290 597 279 551Z"  horiz-adv-x="621" vert-adv-y="1000"  />

      
      <glyph glyph-name="unif6" unicode="&#xf6;" d="M264-12L263-12Q164-12 97 43Q30 98 30 203Q30 333 119 418.50Q208 504 350 504Q451 504 518.50 447Q586 390 586 294Q586 150 495 69Q404-12 264-12M289 123L290 123Q342 123 370.50 175Q399 227 399 285Q399 322 381.50 345.50Q364 369 328 369Q289 369 262.50 338Q236 307 226.50 272Q217 237 217 205Q217 165 236.50 144Q256 123 289 123M246 546L245 546Q213 546 190.50 565.50Q168 585 168 619Q168 659 194.50 683.50Q221 708 260 708Q294 708 314.50 687Q335 666 335 634Q335 594 309 570Q283 546 246 546M473 546L472 546Q440 546 417.50 565.50Q395 585 395 619Q395 659 421.50 683.50Q448 708 487 708Q521 708 541.50 687Q562 666 562 634Q562 594 536 570Q510 546 473 546Z"  horiz-adv-x="621" vert-adv-y="1000"  />

      
      <glyph glyph-name="unif7" unicode="&#xf7;" d="M293 358L292 358Q254 358 230 382Q206 406 206 445Q206 485 230 508.50Q254 532 293 532Q332 532 355.50 508.50Q379 485 380 445Q380 405 356 381.50Q332 358 293 358M551 211L35 211L35 323L551 323L551 211M293 2L292 2Q254 2 230 26Q206 50 206 89Q206 129 230 152.50Q254 176 293 176Q332 176 355.50 152.50Q379 129 380 89Q380 49 356 25.50Q332 2 293 2Z"  horiz-adv-x="596" vert-adv-y="1000"  />

      
      <glyph glyph-name="unif8" unicode="&#xf8;" d="M67-70L22-22L89 53Q30 107 30 205Q30 333 119.50 418.50Q209 504 350 504Q417 504 467 479L538 558L587 511L523 440Q553 416 569.50 375.50Q586 335 586 292Q586 150 496.50 69Q407-12 274-12Q194-12 144 16L67-70M215 194L367 366Q350 376 326 376Q289 376 261.50 344.50Q234 313 223 278Q212 243 212 217Q212 201 213 195L215 194M400 301L245 128Q262 116 289 116Q327 116 355 145.50Q383 175 393.50 210Q404 245 404 276Q404 291 403 301L400 301Z"  horiz-adv-x="621" vert-adv-y="1000"  />

      
      <glyph glyph-name="unif9" unicode="&#xf9;" d="M418 492L596 492L536 171Q527 127 507 0L349 0L358 79L356 79Q278-12 175-12Q41-12 41 129Q41 169 50 217L102 492L280 492L232 236Q226 202 226 180Q226 132 267 132Q305 132 335.50 176Q366 220 381 297L418 492M170 710L339 710L431 550L300 550L170 710Z"  horiz-adv-x="613" vert-adv-y="1000"  />

      
      <glyph glyph-name="unifa" unicode="&#xfa;" d="M418 492L596 492L536 171Q527 127 507 0L349 0L358 79L356 79Q278-12 175-12Q41-12 41 129Q41 169 50 217L102 492L280 492L232 236Q226 202 226 180Q226 132 267 132Q305 132 335.50 176Q366 220 381 297L418 492M376 710L545 710L415 550L284 550L376 710Z"  horiz-adv-x="613" vert-adv-y="1000"  />

      
      <glyph glyph-name="unifb" unicode="&#xfb;" d="M418 492L596 492L536 171Q527 127 507 0L349 0L358 79L356 79Q278-12 175-12Q41-12 41 129Q41 169 50 217L102 492L280 492L232 236Q226 202 226 180Q226 132 267 132Q305 132 335.50 176Q366 220 381 297L418 492M323 710L447 710L530 550L419 550L375 626L373 626L317 550L195 550L323 710Z"  horiz-adv-x="613" vert-adv-y="1000"  />

      
      <glyph glyph-name="unifc" unicode="&#xfc;" d="M418 492L596 492L536 171Q527 127 507 0L349 0L358 79L356 79Q278-12 175-12Q41-12 41 129Q41 169 50 217L102 492L280 492L232 236Q226 202 226 180Q226 132 267 132Q305 132 335.50 176Q366 220 381 297L418 492M250 546L249 546Q217 546 194.50 565.50Q172 585 172 619Q172 659 198.50 683.50Q225 708 264 708Q298 708 318.50 687Q339 666 339 634Q339 594 313 570Q287 546 250 546M477 546L476 546Q444 546 421.50 565.50Q399 585 399 619Q399 659 425.50 683.50Q452 708 491 708Q525 708 545.50 687Q566 666 566 634Q566 594 540 570Q514 546 477 546Z"  horiz-adv-x="613" vert-adv-y="1000"  />

      
      <glyph glyph-name="unifd" unicode="&#xfd;" d="M40 492L228 492L258 308Q267 254 277 197L279 197Q280 198 293.50 236Q307 274 320 305L397 492L587 492L412 160Q305-46 203-139Q157-181 103.50-204Q50-227 14-230L-16-75Q33-65 71-41Q121-10 148 35Q154 45 150 61L40 492M346 710L515 710L385 550L254 550L346 710Z"  horiz-adv-x="563" vert-adv-y="1000"  />

      
      <glyph glyph-name="unife" unicode="&#xfe;" d="M-28-200L137 682L315 682L271 446L273 446Q290 469 325 486.50Q360 504 407 504Q491 504 539.50 448Q588 392 588 303Q588 171 505.50 79.50Q423-12 288-12Q227-12 193 12L191 12L150-200L-28-200M228 208L217 149Q248 124 279 124Q330 124 364 174Q398 224 398 293Q398 322 383 342Q368 362 341 362Q299 362 270 321Q241 280 228 208Z"  horiz-adv-x="622" vert-adv-y="1000"  />

      
      <glyph glyph-name="uniff" unicode="&#xff;" d="M40 492L228 492L258 308Q267 254 277 197L279 197Q280 198 293.50 236Q307 274 320 305L397 492L587 492L412 160Q305-46 203-139Q157-181 103.50-204Q50-227 14-230L-16-75Q33-65 71-41Q121-10 148 35Q154 45 150 61L40 492M212 546L211 546Q179 546 156.50 565.50Q134 585 134 619Q134 659 160.50 683.50Q187 708 226 708Q260 708 280.50 687Q301 666 301 634Q301 594 275 570Q249 546 212 546M439 546L438 546Q406 546 383.50 565.50Q361 585 361 619Q361 659 387.50 683.50Q414 708 453 708Q487 708 507.50 687Q528 666 528 634Q528 594 502 570Q476 546 439 546Z"  horiz-adv-x="563" vert-adv-y="1000"  />

      
      <glyph glyph-name="uni0100" unicode="&#x0100;" d="M443 166L244 166L171 0L-25 0L312 674L551 674L647 0L455 0L443 166M297 302L433 302L421 421Q411 515 407 547L405 547Q397 530 378.50 485.50Q360 441 350 420L297 302M322 827L597 827L579 734L304 734L322 827Z"  horiz-adv-x="702" vert-adv-y="1000"  />

      
      <glyph glyph-name="uni0101" unicode="&#x0101;" d="M517 0L351 0Q355 58 356 87L354 87Q298-12 189-12Q118-12 71 38Q24 88 24 171Q24 236 46.50 294Q69 352 113.50 400Q158 448 232.50 476Q307 504 403 504Q497 504 588 475L536 222Q514 103 517 0M370 285L387 366Q371 369 353 369Q294 369 253.50 316Q213 263 213 202Q213 167 228.50 148.50Q244 130 267 130Q298 130 326 165Q354 200 370 285M259 672L534 672L516 579L241 579L259 672Z"  horiz-adv-x="608" vert-adv-y="1000"  />

      
      <glyph glyph-name="uni0102" unicode="&#x0102;" d="M443 166L244 166L171 0L-25 0L312 674L551 674L647 0L455 0L443 166M297 302L433 302L421 421Q411 515 407 547L405 547Q397 530 378.50 485.50Q360 441 350 420L297 302M301 845L398 845Q398 797 449 797Q502 797 512 845L609 845Q599 784 557 748Q515 712 438 712Q360 712 327.50 748.50Q295 785 301 845Z"  horiz-adv-x="702" vert-adv-y="1000"  />

      
      <glyph glyph-name="uni0103" unicode="&#x0103;" d="M517 0L351 0Q355 58 356 87L354 87Q298-12 189-12Q118-12 71 38Q24 88 24 171Q24 236 46.50 294Q69 352 113.50 400Q158 448 232.50 476Q307 504 403 504Q497 504 588 475L536 222Q514 103 517 0M370 285L387 366Q371 369 353 369Q294 369 253.50 316Q213 263 213 202Q213 167 228.50 148.50Q244 130 267 130Q298 130 326 165Q354 200 370 285M247 699L335 699Q337 674 345.50 660.50Q354 647 378 647Q428 647 439 699L527 699Q505 561 368 561Q297 561 268.50 598Q240 635 247 699Z"  horiz-adv-x="608" vert-adv-y="1000"  />

      
      <glyph glyph-name="uni0104" unicode="&#x0104;" d="M551 674L647 0L547 0Q520-43 520-73Q520-116 567-116Q586-116 616-107L622-192Q573-230 501-230Q450-230 421.50-205.50Q393-181 393-135Q393-73 455 0L443 166L244 166L171 0L-25 0L312 674L551 674M297 302L433 302L421 421Q411 515 407 547L405 547Q397 530 378.50 485.50Q360 441 350 420L297 302Z"  horiz-adv-x="702" vert-adv-y="1000"  />

      
      <glyph glyph-name="uni0105" unicode="&#x0105;" d="M589 475L541 222Q519 103 522 0L468 0Q450-16 435.50-39.50Q421-63 421-83Q421-97 431.50-106.50Q442-116 461-116Q487-116 517-107L523-192Q474-230 402-230Q351-230 322.50-205.50Q294-181 294-135Q294-73 356 0Q360 58 361 87L359 87Q301-12 192-12Q121-12 74 38Q27 88 27 171Q27 236 49.50 294Q72 352 116.50 400Q161 448 235.50 476Q310 504 406 504Q502 504 589 475M374 285L388 366Q372 369 356 369Q297 369 256.50 316Q216 263 216 202Q216 167 231.50 148.50Q247 130 270 130Q301 130 330 165Q359 200 374 285Z"  horiz-adv-x="608" vert-adv-y="1000"  />

      
      <glyph glyph-name="uni0106" unicode="&#x0106;" d="M584 161L603 21Q532-12 396-12Q248-12 150.50 65.50Q53 143 53 297Q53 412 106.50 497.50Q160 583 252 631Q359 686 508 686Q616 686 679 656L633 514Q573 536 496 536Q401 536 343 498Q248 437 248 312Q248 230 301 184Q354 138 445 138Q527 138 584 161M458 845L652 845L532 715L376 715L458 845Z"  horiz-adv-x="662" vert-adv-y="1000"  />

      
      <glyph glyph-name="uni0107" unicode="&#x0107;" d="M413 149L415 16Q358-12 261-12Q162-12 95.50 42Q29 96 29 205Q29 335 126.50 419.50Q224 504 377 504Q440 504 486 488L444 355Q417 366 377 366Q303 366 260.50 324Q218 282 218 222Q218 175 246 152Q274 129 313 129Q366 129 413 149M346 710L515 710L385 550L254 550L346 710Z"  horiz-adv-x="481" vert-adv-y="1000"  />

      
      <glyph glyph-name="uni0108" unicode="&#x0108;" d="M584 161L603 21Q532-12 396-12Q248-12 150.50 65.50Q53 143 53 297Q53 412 106.50 497.50Q160 583 252 631Q359 686 508 686Q616 686 679 656L633 514Q573 536 496 536Q401 536 343 498Q248 437 248 312Q248 230 301 184Q354 138 445 138Q527 138 584 161M408 845L548 845L632 715L512 715L471 772L469 772L414 715L281 715L408 845Z"  horiz-adv-x="662" vert-adv-y="1000"  />

      
      <glyph glyph-name="uni0109" unicode="&#x0109;" d="M413 149L415 16Q358-12 261-12Q162-12 95.50 42Q29 96 29 205Q29 335 126.50 419.50Q224 504 377 504Q440 504 486 488L444 355Q417 366 377 366Q303 366 260.50 324Q218 282 218 222Q218 175 246 152Q274 129 313 129Q366 129 413 149M277 710L401 710L484 550L373 550L329 626L327 626L271 550L149 550L277 710Z"  horiz-adv-x="481" vert-adv-y="1000"  />

      
      <glyph glyph-name="uni010A" unicode="&#x010A;" d="M584 161L603 21Q532-12 396-12Q248-12 150.50 65.50Q53 143 53 297Q53 412 106.50 497.50Q160 583 252 631Q359 686 508 686Q616 686 679 656L633 514Q573 536 496 536Q401 536 343 498Q248 437 248 312Q248 230 301 184Q354 138 445 138Q527 138 584 161M476 713L475 713Q445 713 423 732Q401 751 401 783Q401 822 426 845.50Q451 869 489 869Q522 869 542 849Q562 829 562 798Q562 759 537 736Q512 713 476 713Z"  horiz-adv-x="662" vert-adv-y="1000"  />

      
      <glyph glyph-name="uni010B" unicode="&#x010B;" d="M413 149L415 16Q358-12 261-12Q162-12 95.50 42Q29 96 29 205Q29 335 126.50 419.50Q224 504 377 504Q440 504 486 488L444 355Q417 366 377 366Q303 366 260.50 324Q218 282 218 222Q218 175 246 152Q274 129 313 129Q366 129 413 149M332 544L331 544Q299 544 276 564Q253 584 253 618Q253 659 279.50 684Q306 709 346 709Q381 709 402 688Q423 667 423 634Q423 593 396.50 568.50Q370 544 332 544Z"  horiz-adv-x="481" vert-adv-y="1000"  />

      
      <glyph glyph-name="uni010C" unicode="&#x010C;" d="M584 161L603 21Q532-12 396-12Q248-12 150.50 65.50Q53 143 53 297Q53 412 106.50 497.50Q160 583 252 631Q359 686 508 686Q616 686 679 656L633 514Q573 536 496 536Q401 536 343 498Q248 437 248 312Q248 230 301 184Q354 138 445 138Q527 138 584 161M524 715L384 715L300 845L420 845L460 783L462 783L518 845L651 845L524 715Z"  horiz-adv-x="662" vert-adv-y="1000"  />

      
      <glyph glyph-name="uni010D" unicode="&#x010D;" d="M413 149L415 16Q358-12 261-12Q162-12 95.50 42Q29 96 29 205Q29 335 126.50 419.50Q224 504 377 504Q440 504 486 488L444 355Q417 366 377 366Q303 366 260.50 324Q218 282 218 222Q218 175 246 152Q274 129 313 129Q366 129 413 149M385 550L261 550L178 710L289 710L333 634L335 634L391 710L513 710L385 550Z"  horiz-adv-x="481" vert-adv-y="1000"  />

      
      <glyph glyph-name="uni010E" unicode="&#x010E;" d="M15 10L140 663Q232 679 352 679Q527 679 621 615Q737 535 737 378Q737 197 601 92Q475-5 230-5Q85-5 15 10M297 533L222 140Q240 137 282 137Q406 137 473 202Q540 266 540 372Q540 537 353 537Q323 537 297 533M479 710L339 710L255 840L375 840L415 778L417 778L473 840L606 840L479 710Z"  horiz-adv-x="761" vert-adv-y="1000"  />

      
      <glyph glyph-name="uni010F" unicode="&#x010F;" d="M467 716L644 716L550 222Q528 105 526 0L358 0L362 73L360 73Q302-12 194-12Q127-12 77 39Q27 90 27 187Q27 318 119 411Q211 504 359 504Q393 504 423 494L467 716M380 265L398 351Q378 369 343 369Q287 369 251 324.50Q215 280 215 217Q215 172 234 151Q253 130 279 130Q310 130 338 161.50Q366 193 380 265M708 483L632 545Q687 600 687 678Q687 699 684 714L803 733Q821 712 821 668Q821 621 789 568.50Q757 516 708 483Z"  horiz-adv-x="627" vert-adv-y="1000"  />

      
      <glyph glyph-name="uni0110" unicode="&#x0110;" d="M6 267L36 419L114 419L160 663Q252 679 365 679Q550 679 637 623Q757 546 757 381Q757 197 621 92Q495-5 250-5Q105-5 35 10L85 267L6 267M426 419L397 267L266 267L242 140Q260 137 302 137Q426 137 493 202Q560 266 560 369Q560 537 378 537Q343 537 317 533L295 419L426 419Z"  horiz-adv-x="781" vert-adv-y="1000"  />

      
      <glyph glyph-name="uni0111" unicode="&#x0111;" d="M380 265L398 351Q378 369 343 369Q287 369 251 324.50Q215 280 215 217Q215 172 234 151Q253 130 279 130Q309 130 337 162Q365 194 380 265M249 635L451 635L467 716L644 716L629 635L709 635L691 544L611 544L550 222Q528 105 526 0L358 0L362 73L360 73Q302-12 194-12Q127-12 77 39Q27 90 27 187Q27 318 119 411Q211 504 359 504Q393 504 423 494L433 544L231 544L249 635Z"  horiz-adv-x="617" vert-adv-y="1000"  />

      
      <glyph glyph-name="uni0112" unicode="&#x0112;" d="M540 417L511 267L242 267L220 150L521 150L493 0L13 0L140 674L605 674L576 524L290 524L270 417L540 417M262 827L537 827L519 734L244 734L262 827Z"  horiz-adv-x="582" vert-adv-y="1000"  />

      
      <glyph glyph-name="uni0113" unicode="&#x0113;" d="M462 157L472 31Q388-12 266-12Q152-12 90 44Q28 100 28 208Q28 327 113.50 415.50Q199 504 338 504Q422 504 478 462.50Q534 421 534 343Q534 172 196 181Q201 163 215 151Q245 125 310 125Q395 125 462 157M365 349L365 350Q365 361 351.50 370Q338 379 317 379Q270 379 243.50 356Q217 333 213 309Q300 309 332.50 318Q365 327 365 349M222 672L497 672L479 579L204 579L222 672Z"  horiz-adv-x="562" vert-adv-y="1000"  />

      
      <glyph glyph-name="uni0114" unicode="&#x0114;" d="M540 417L511 267L242 267L220 150L521 150L493 0L13 0L140 674L605 674L576 524L290 524L270 417L540 417M241 847L338 847Q338 799 389 799Q442 799 452 847L549 847Q539 786 497 750Q455 714 378 714Q300 714 267.50 750.50Q235 787 241 847Z"  horiz-adv-x="582" vert-adv-y="1000"  />

      
      <glyph glyph-name="uni0115" unicode="&#x0115;" d="M462 157L472 31Q388-12 266-12Q152-12 90 44Q28 100 28 208Q28 327 113.50 415.50Q199 504 338 504Q422 504 478 462.50Q534 421 534 343Q534 172 196 181Q201 163 215 151Q245 125 310 125Q395 125 462 157M365 349L365 350Q365 361 351.50 370Q338 379 317 379Q270 379 243.50 356Q217 333 213 309Q300 309 332.50 318Q365 327 365 349M224 699L312 699Q314 674 322.50 660.50Q331 647 355 647Q405 647 416 699L504 699Q482 561 345 561Q274 561 245.50 598Q217 635 224 699Z"  horiz-adv-x="562" vert-adv-y="1000"  />

      
      <glyph glyph-name="uni0116" unicode="&#x0116;" d="M540 417L511 267L242 267L220 150L521 150L493 0L13 0L140 674L605 674L576 524L290 524L270 417L540 417M386 707L385 707Q355 707 333 726Q311 745 311 777Q311 816 336 839.50Q361 863 399 863Q432 863 452 843Q472 823 472 792Q472 753 447 730Q422 707 386 707Z"  horiz-adv-x="582" vert-adv-y="1000"  />

      
      <glyph glyph-name="uni0117" unicode="&#x0117;" d="M462 157L472 31Q388-12 266-12Q152-12 90 44Q28 100 28 208Q28 327 113.50 415.50Q199 504 338 504Q422 504 478 462.50Q534 421 534 343Q534 172 196 181Q201 163 215 151Q245 125 310 125Q395 125 462 157M365 349L365 350Q365 361 351.50 370Q338 379 317 379Q270 379 243.50 356Q217 333 213 309Q300 309 332.50 318Q365 327 365 349M342 544L341 544Q309 544 286 564Q263 584 263 618Q263 659 289.50 684Q316 709 356 709Q391 709 412 688Q433 667 433 634Q433 593 406.50 568.50Q380 544 342 544Z"  horiz-adv-x="562" vert-adv-y="1000"  />

      
      <glyph glyph-name="uni0118" unicode="&#x0118;" d="M13 0L140 674L605 674L576 524L290 524L270 417L540 417L511 267L242 267L220 150L521 150L493 0L472 0Q395-48 395-92Q395-118 419-118Q437-118 466-107L487-192Q436-230 364-230Q316-230 289.50-205.50Q263-181 263-142Q263-106 288-68Q313-30 357 0L13 0Z"  horiz-adv-x="582" vert-adv-y="1000"  />

      
      <glyph glyph-name="uni0119" unicode="&#x0119;" d="M365 349L365 350Q365 361 351.50 370Q338 379 317 379Q270 379 243.50 356Q217 333 213 309Q300 309 332.50 318Q365 327 365 349M389-108L410-193Q351-231 280-231Q235-231 210.50-208Q186-185 186-145Q186-73 265-13L265-12Q261-12 254-11.50Q247-11 244-11Q140-5 84 50Q28 105 28 208Q28 327 113.50 415.50Q199 504 338 504Q422 504 478 462.50Q534 421 534 343Q534 172 196 181Q201 163 215 151Q245 125 310 125Q395 125 462 157L472 31Q465 27 400-1Q318-53 318-96Q318-106 325-112.50Q332-119 342-119Q360-119 389-108Z"  horiz-adv-x="562" vert-adv-y="1000"  />

      
      <glyph glyph-name="uni011A" unicode="&#x011A;" d="M540 417L511 267L242 267L220 150L521 150L493 0L13 0L140 674L605 674L576 524L290 524L270 417L540 417M454 710L314 710L230 840L350 840L390 778L392 778L448 840L581 840L454 710Z"  horiz-adv-x="582" vert-adv-y="1000"  />

      
      <glyph glyph-name="uni011B" unicode="&#x011B;" d="M462 157L472 31Q388-12 266-12Q152-12 90 44Q28 100 28 208Q28 327 113.50 415.50Q199 504 338 504Q422 504 478 462.50Q534 421 534 343Q534 172 196 181Q201 163 215 151Q245 125 310 125Q395 125 462 157M365 349L365 350Q365 361 351.50 370Q338 379 317 379Q270 379 243.50 356Q217 333 213 309Q300 309 332.50 318Q365 327 365 349M405 550L281 550L198 710L309 710L353 634L355 634L411 710L533 710L405 550Z"  horiz-adv-x="562" vert-adv-y="1000"  />

      
      <glyph glyph-name="uni011C" unicode="&#x011C;" d="M731 402L661 36Q518-7 401-7Q251-7 156 62Q51 138 51 290Q51 475 196 584Q325 681 528 681Q670 681 738 648L687 500Q614 531 521 531Q417 531 348 488Q250 425 250 306Q250 223 301 183Q352 143 435 143Q480 143 506 154L527 261L422 261L450 402L731 402M449 840L589 840L673 710L553 710L512 767L510 767L455 710L322 710L449 840Z"  horiz-adv-x="764" vert-adv-y="1000"  />

      
      <glyph glyph-name="uni011D" unicode="&#x011D;" d="M19-179L57-44Q77-55 122-62.50Q167-70 202-70Q257-70 292-45.50Q327-21 340 43L344 63L342 63Q286 6 208 6Q129 6 79 59.50Q29 113 29 196Q29 257 51.50 312Q74 367 117 410Q160 453 229.50 478.50Q299 504 385 504Q498 504 590 469L518 68Q487-98 407-158Q333-212 203-212Q82-212 19-179M378 264L397 363Q382 369 351 369Q295 369 257.50 324Q220 279 220 216Q220 178 238 159.50Q256 141 282 141Q313 141 339.50 170Q366 199 378 264M324 710L448 710L531 550L420 550L376 626L374 626L318 550L196 550L324 710Z"  horiz-adv-x="615" vert-adv-y="1000"  />

      
      <glyph glyph-name="uni011E" unicode="&#x011E;" d="M731 402L661 36Q518-7 401-7Q251-7 156 62Q51 138 51 290Q51 475 196 584Q325 681 528 681Q670 681 738 648L687 500Q614 531 521 531Q417 531 348 488Q250 425 250 306Q250 223 301 183Q352 143 435 143Q480 143 506 154L527 261L422 261L450 402L731 402M347 848L444 848Q444 800 495 800Q548 800 558 848L655 848Q645 787 603 751Q561 715 484 715Q406 715 373.50 751.50Q341 788 347 848Z"  horiz-adv-x="764" vert-adv-y="1000"  />

      
      <glyph glyph-name="uni011F" unicode="&#x011F;" d="M19-179L57-44Q77-55 122-62.50Q167-70 202-70Q257-70 292-45.50Q327-21 340 43L344 63L342 63Q286 6 208 6Q129 6 79 59.50Q29 113 29 196Q29 257 51.50 312Q74 367 117 410Q160 453 229.50 478.50Q299 504 385 504Q498 504 590 469L518 68Q487-98 407-158Q333-212 203-212Q82-212 19-179M378 264L397 363Q382 369 351 369Q295 369 257.50 324Q220 279 220 216Q220 178 238 159.50Q256 141 282 141Q313 141 339.50 170Q366 199 378 264M251 699L339 699Q341 674 349.50 660.50Q358 647 382 647Q432 647 443 699L531 699Q509 561 372 561Q301 561 272.50 598Q244 635 251 699Z"  horiz-adv-x="615" vert-adv-y="1000"  />

      
      <glyph glyph-name="uni0120" unicode="&#x0120;" d="M731 402L661 36Q518-7 401-7Q251-7 156 62Q51 138 51 290Q51 475 196 584Q325 681 528 681Q670 681 738 648L687 500Q614 531 521 531Q417 531 348 488Q250 425 250 306Q250 223 301 183Q352 143 435 143Q480 143 506 154L527 261L422 261L450 402L731 402M507 707L506 707Q476 707 454 726Q432 745 432 777Q432 816 457 839.50Q482 863 520 863Q553 863 573 843Q593 823 593 792Q593 753 568 730Q543 707 507 707Z"  horiz-adv-x="764" vert-adv-y="1000"  />

      
      <glyph glyph-name="uni0121" unicode="&#x0121;" d="M19-179L57-44Q77-55 122-62.50Q167-70 202-70Q257-70 292-45.50Q327-21 340 43L344 63L342 63Q286 6 208 6Q129 6 79 59.50Q29 113 29 196Q29 257 51.50 312Q74 367 117 410Q160 453 229.50 478.50Q299 504 385 504Q498 504 590 469L518 68Q487-98 407-158Q333-212 203-212Q82-212 19-179M378 264L397 363Q382 369 351 369Q295 369 257.50 324Q220 279 220 216Q220 178 238 159.50Q256 141 282 141Q313 141 339.50 170Q366 199 378 264M383 544L382 544Q350 544 327 564Q304 584 304 618Q304 659 330.50 684Q357 709 397 709Q432 709 453 688Q474 667 474 634Q474 593 447.50 568.50Q421 544 383 544Z"  horiz-adv-x="615" vert-adv-y="1000"  />

      
      <glyph glyph-name="uni0122" unicode="&#x0122;" d="M731 402L661 36Q518-7 401-7Q251-7 156 62Q51 138 51 290Q51 475 196 584Q325 681 528 681Q670 681 738 648L687 500Q614 531 521 531Q417 531 348 488Q250 425 250 306Q250 223 301 183Q352 143 435 143Q480 143 506 154L527 261L422 261L450 402L731 402M278-254L262-172Q291-168 315.50-151.50Q340-135 340-107Q340-78 322-60L455-40Q480-65 480-107Q480-180 419-217Q358-254 278-254Z"  horiz-adv-x="764" vert-adv-y="1000"  />

      
      <glyph glyph-name="uni0123" unicode="&#x0123;" d="M19-179L57-44Q77-55 122-62.50Q167-70 202-70Q257-70 292-45.50Q327-21 340 43L344 63L342 63Q286 6 208 6Q129 6 79 59.50Q29 113 29 196Q29 257 51.50 312Q74 367 117 410Q160 453 229.50 478.50Q299 504 385 504Q498 504 590 469L518 68Q489-97 407-158Q333-212 203-212Q82-212 19-179M378 264L397 363Q382 369 351 369Q295 369 257.50 324Q220 279 220 216Q220 178 238 159.50Q256 141 282 141Q313 141 339 170Q365 199 378 264M506 747L522 665Q493 661 468.50 644.50Q444 628 444 600Q444 571 462 553L339 533Q314 558 314 600Q314 672 373.50 709.50Q433 747 506 747Z"  horiz-adv-x="615" vert-adv-y="1000"  />

      
      <glyph glyph-name="uni0124" unicode="&#x0124;" d="M141 674L319 674L272 425L522 425L569 674L748 674L621 0L442 0L493 267L242 267L192 0L14 0L141 674M404 840L544 840L628 710L508 710L467 767L465 767L410 710L277 710L404 840Z"  horiz-adv-x="734" vert-adv-y="1000"  />

      
      <glyph glyph-name="uni0125" unicode="&#x0125;" d="M187 0L9 0L144 716L322 716L270 440L272 440Q342 504 428 504Q495 504 529.50 466Q564 428 564 363Q564 323 555 276L503 0L325 0L373 256Q379 286 379 313Q379 362 336 362Q297 362 267.50 317Q238 272 224 195L187 0M197 880L337 880L421 750L301 750L260 807L258 807L203 750L70 750L197 880Z"  horiz-adv-x="612" vert-adv-y="1000"  />

      
      <glyph glyph-name="uni0126" unicode="&#x0126;" d="M530 469L280 469L266 394L516 394L530 469M30 573L122 573L141 674L319 674L300 573L550 573L569 674L748 674L729 573L814 573L793 469L709 469L621 0L442 0L487 236L236 236L192 0L14 0L102 469L9 469L30 573Z"  horiz-adv-x="734" vert-adv-y="1000"  />

      
      <glyph glyph-name="uni0127" unicode="&#x0127;" d="M27 631L128 631L144 716L322 716L306 631L471 631L454 540L289 540L270 440L272 440Q342 504 428 504Q495 504 529.50 466Q564 428 564 363Q564 323 555 276L503 0L325 0L373 256Q379 286 379 313Q379 362 336 362Q297 362 267.50 317Q238 272 224 195L187 0L9 0L111 540L10 540L27 631Z"  horiz-adv-x="612" vert-adv-y="1000"  />

      
      <glyph glyph-name="uni0128" unicode="&#x0128;" d="M135 674L313 674L186 0L8 0L135 674M160 713L76 713Q98 856 186 856Q218 856 252 836Q283 815 293 815Q306 815 313.50 824.50Q321 834 329 861L411 861Q391 721 299 721Q264 721 232 740Q202 759 192 759Q172 759 160 713Z"  horiz-adv-x="300" vert-adv-y="1000"  />

      
      <glyph glyph-name="uni0129" unicode="&#x0129;" d="M187 0L9 0L102 492L280 492L187 0M141 551L57 551Q67 623 96.50 658.50Q126 694 167 694Q200 694 232 674Q263 653 274 653Q287 653 294.50 662.50Q302 672 310 699L392 699Q372 559 279 559Q237 559 208 581Q187 597 171 597Q152 597 141 551Z"  horiz-adv-x="296" vert-adv-y="1000"  />

      
      <glyph glyph-name="uni012A" unicode="&#x012A;" d="M135 674L313 674L186 0L8 0L135 674M121 827L396 827L378 734L103 734L121 827Z"  horiz-adv-x="300" vert-adv-y="1000"  />

      
      <glyph glyph-name="uni012B" unicode="&#x012B;" d="M187 0L9 0L102 492L280 492L187 0M89 672L364 672L346 579L71 579L89 672Z"  horiz-adv-x="296" vert-adv-y="1000"  />

      
      <glyph glyph-name="uni012C" unicode="&#x012C;" d="M135 674L313 674L186 0L8 0L135 674M100 853L197 853Q197 805 248 805Q301 805 311 853L408 853Q398 792 356 756Q314 720 237 720Q159 720 126.50 756.50Q94 793 100 853Z"  horiz-adv-x="300" vert-adv-y="1000"  />

      
      <glyph glyph-name="uni012D" unicode="&#x012D;" d="M187 0L9 0L102 492L280 492L187 0M91 699L179 699Q181 674 189.50 660.50Q198 647 222 647Q272 647 283 699L371 699Q349 561 212 561Q141 561 112.50 598Q84 635 91 699Z"  horiz-adv-x="296" vert-adv-y="1000"  />

      
      <glyph glyph-name="uni012E" unicode="&#x012E;" d="M313 674L186 0L101 0Q74-43 74-73Q74-116 121-116Q140-116 170-107L176-192Q127-230 55-230Q4-230-24.50-205.50Q-53-181-53-135Q-53-73 9 0L135 674L313 674Z"  horiz-adv-x="300" vert-adv-y="1000"  />

      
      <glyph glyph-name="uni012F" unicode="&#x012F;" d="M208 542L207 542Q171 542 145.50 565Q120 588 120 626Q120 672 151.50 698.50Q183 725 225 725Q264 725 290 702.50Q316 680 316 640Q316 595 285 568.50Q254 542 208 542M280 492L187 0L102 0Q75-43 75-73Q75-116 122-116Q141-116 171-107L177-192Q128-230 56-230Q5-230-23.50-205.50Q-52-181-52-135Q-52-73 10 0L102 492L280 492Z"  horiz-adv-x="296" vert-adv-y="1000"  />

      
      <glyph glyph-name="uni0130" unicode="&#x0130;" d="M135 674L313 674L186 0L8 0L135 674M245 707L244 707Q214 707 192 726Q170 745 170 777Q170 816 195 839.50Q220 863 258 863Q291 863 311 843Q331 823 331 792Q331 753 306 730Q281 707 245 707Z"  horiz-adv-x="300" vert-adv-y="1000"  />

      
      <glyph glyph-name="uni0131" unicode="&#x0131;" d="M187 0L9 0L102 492L280 492L187 0Z"  horiz-adv-x="296" vert-adv-y="1000"  />

      
      <glyph glyph-name="uni0132" unicode="&#x0132;" d="M135 674L313 674L186 0L8 0L135 674M518 276L593 674L771 674L689 245Q663 109 596 48.50Q529-12 398-12Q309-12 265 7L300 157Q346 143 389 143Q443 143 473.50 172Q504 201 518 276Z"  horiz-adv-x="753" vert-adv-y="1000"  />

      
      <glyph glyph-name="uni0133" unicode="&#x0133;" d="M187 0L9 0L102 492L280 492L187 0M208 542L207 542Q172 542 148 563.50Q124 585 124 622Q124 665 154 690.50Q184 716 224 716Q261 716 286 694.50Q311 673 311 635Q311 592 281 567Q251 542 208 542M425 492L602 492L514 15Q492-109 436-165Q389-212 298-212Q251-212 218-203L238-68Q250-70 270-70Q294-70 310-52.50Q326-35 336 17L425 492M524 542L523 542Q488 542 464 563.50Q440 585 440 622Q440 665 470 690.50Q500 716 540 716Q577 716 602 694.50Q627 673 627 635Q627 592 597 567Q567 542 524 542Z"  horiz-adv-x="618" vert-adv-y="1000"  />

      
      <glyph glyph-name="uni0134" unicode="&#x0134;" d="M218 276L293 674L471 674L389 245Q363 109 296 48.50Q229-12 98-12Q9-12-35 7L0 157Q46 143 89 143Q143 143 173.50 172Q204 201 218 276M338 840L478 840L562 710L442 710L401 767L399 767L344 710L211 710L338 840Z"  horiz-adv-x="453" vert-adv-y="1000"  />

      
      <glyph glyph-name="uni0135" unicode="&#x0135;" d="M129 492L306 492L218 15Q196-110 140-165Q93-212 2-212Q-45-212-78-203L-58-68Q-46-70-26-70Q-2-70 14-52.50Q30-35 40 17L129 492M173 710L297 710L380 550L269 550L225 636L223 636L167 550L45 550L173 710Z"  horiz-adv-x="322" vert-adv-y="1000"  />

      
      <glyph glyph-name="uni0136" unicode="&#x0136;" d="M13 0L140 674L316 674L263 391L265 391Q271 399 324 460L509 674L739 674L447 386L623 0L427 0L306 280L230 213L189 0L13 0M183-254L167-172Q196-168 220.50-151.50Q245-135 245-107Q245-78 227-60L360-40Q385-65 385-107Q385-180 324-217Q263-254 183-254Z"  horiz-adv-x="674" vert-adv-y="1000"  />

      
      <glyph glyph-name="uni0137" unicode="&#x0137;" d="M187 0L9 0L144 716L322 716L242 295L244 295Q253 305 268 324Q283 343 290 351L406 492L634 492L409 295L564 0L360 0L273 196L214 142L187 0M151-254L135-172Q164-168 188.50-151.50Q213-135 213-107Q213-78 195-60L328-40Q353-65 353-107Q353-180 292-217Q231-254 151-254Z"  horiz-adv-x="610" vert-adv-y="1000"  />

      
      <glyph glyph-name="uni0138" unicode="&#x0138;" d="M187 0L9 0L102 492L280 492L242 295L244 295Q253 305 268 324Q283 343 290 351L406 492L634 492L409 295L564 0L360 0L273 196L214 142L187 0Z"  horiz-adv-x="610" vert-adv-y="1000"  />

      
      <glyph glyph-name="uni0139" unicode="&#x0139;" d="M13 0L140 674L318 674L221 156L507 156L478 0L13 0M258 840L452 840L332 710L176 710L258 840Z"  horiz-adv-x="555" vert-adv-y="1000"  />

      
      <glyph glyph-name="uni013A" unicode="&#x013A;" d="M188 0L10 0L147 716L325 716L188 0M235 888L429 888L309 758L153 758L235 888Z"  horiz-adv-x="297" vert-adv-y="1000"  />

      
      <glyph glyph-name="uni013B" unicode="&#x013B;" d="M13 0L140 674L318 674L221 156L507 156L478 0L13 0M124-254L108-172Q137-168 161.50-151.50Q186-135 186-107Q186-78 168-60L301-40Q326-65 326-107Q326-180 265-217Q204-254 124-254Z"  horiz-adv-x="555" vert-adv-y="1000"  />

      
      <glyph glyph-name="uni013C" unicode="&#x013C;" d="M188 0L10 0L147 716L325 716L188 0M-16-254L-32-172Q-3-168 21.50-151.50Q46-135 46-107Q46-78 28-60L161-40Q186-65 186-107Q186-180 125-217Q64-254-16-254Z"  horiz-adv-x="297" vert-adv-y="1000"  />

      
      <glyph glyph-name="uni013D" unicode="&#x013D;" d="M13 0L140 674L318 674L221 156L507 156L478 0L13 0M364 466L348 548Q377 552 401.50 568.50Q426 585 426 613Q426 642 408 660L541 680Q566 655 566 613Q566 540 505 503Q444 466 364 466Z"  horiz-adv-x="555" vert-adv-y="1000"  />

      
      <glyph glyph-name="uni013E" unicode="&#x013E;" d="M188 0L10 0L147 716L325 716L188 0M400 483L319 540Q340 566 357 604.50Q374 643 374 678Q374 699 371 714L490 733Q508 712 508 668Q508 610 475 559Q442 508 400 483Z"  horiz-adv-x="307" vert-adv-y="1000"  />

      
      <glyph glyph-name="uni013F" unicode="&#x013F;" d="M13 0L140 674L318 674L221 156L507 156L478 0L13 0M429 307L428 307Q398 307 376 326Q354 345 354 377Q354 416 379 439.50Q404 463 442 463Q475 463 495 443Q515 423 515 392Q515 353 490 330Q465 307 429 307Z"  horiz-adv-x="555" vert-adv-y="1000"  />

      
      <glyph glyph-name="uni0140" unicode="&#x0140;" d="M188 0L10 0L147 716L325 716L188 0M368 288L367 288Q338 288 317.50 307Q297 326 297 358Q297 397 321 420.50Q345 444 381 444Q412 444 431 424Q450 404 450 373Q450 334 426 311Q402 288 368 288Z"  horiz-adv-x="407" vert-adv-y="1000"  />

      
      <glyph glyph-name="uni0141" unicode="&#x0141;" d="M496 0L31 0L72 219L-13 169L11 289L95 339L158 674L336 674L296 463L444 550L422 429L273 342L239 156L525 156L496 0Z"  horiz-adv-x="573" vert-adv-y="1000"  />

      
      <glyph glyph-name="uni0142" unicode="&#x0142;" d="M197 0L20 0L55 183L-22 131L2 257L79 309L157 716L334 716L284 457L373 517L349 391L260 331L197 0Z"  horiz-adv-x="317" vert-adv-y="1000"  />

      
      <glyph glyph-name="uni0143" unicode="&#x0143;" d="M182 0L13 0L140 674L366 674L432 478Q472 359 504 219L507 219Q508 303 535 448L577 674L747 674L620 0L424 0L349 224Q293 395 271 484L267 484Q260 414 221 209L182 0M434 840L628 840L508 710L352 710L434 840Z"  horiz-adv-x="733" vert-adv-y="1000"  />

      
      <glyph glyph-name="uni0144" unicode="&#x0144;" d="M187 0L9 0L69 321Q78 365 98 492L256 492L247 411L249 411Q319 504 428 504Q497 504 530.50 466Q564 428 564 363Q564 326 557 284L503 0L325 0L373 256Q378 284 378 310Q378 362 337 362Q300 362 269.50 317.50Q239 273 224 195L187 0M374 710L543 710L413 550L282 550L374 710Z"  horiz-adv-x="613" vert-adv-y="1000"  />

      
      <glyph glyph-name="uni0145" unicode="&#x0145;" d="M182 0L13 0L140 674L366 674L432 478Q472 359 504 219L507 219Q508 303 535 448L577 674L747 674L620 0L424 0L349 224Q293 395 271 484L267 484Q260 414 221 209L182 0M213-254L197-172Q226-168 250.50-151.50Q275-135 275-107Q275-78 257-60L390-40Q415-65 415-107Q415-180 354-217Q293-254 213-254Z"  horiz-adv-x="733" vert-adv-y="1000"  />

      
      <glyph glyph-name="uni0146" unicode="&#x0146;" d="M187 0L9 0L69 321Q78 365 98 492L256 492L247 411L249 411Q319 504 428 504Q497 504 530.50 466Q564 428 564 363Q564 326 557 284L503 0L325 0L373 256Q378 284 378 310Q378 362 337 362Q300 362 269.50 317.50Q239 273 224 195L187 0M153-254L137-172Q166-168 190.50-151.50Q215-135 215-107Q215-78 197-60L330-40Q355-65 355-107Q355-180 294-217Q233-254 153-254Z"  horiz-adv-x="613" vert-adv-y="1000"  />

      
      <glyph glyph-name="uni0147" unicode="&#x0147;" d="M182 0L13 0L140 674L366 674L432 478Q472 359 504 219L507 219Q508 303 535 448L577 674L747 674L620 0L424 0L349 224Q293 395 271 484L267 484Q260 414 221 209L182 0M530 710L390 710L306 840L426 840L466 778L468 778L524 840L657 840L530 710Z"  horiz-adv-x="733" vert-adv-y="1000"  />

      
      <glyph glyph-name="uni0148" unicode="&#x0148;" d="M187 0L9 0L69 321Q78 365 98 492L256 492L247 411L249 411Q319 504 428 504Q497 504 530.50 466Q564 428 564 363Q564 326 557 284L503 0L325 0L373 256Q378 284 378 310Q378 362 337 362Q300 362 269.50 317.50Q239 273 224 195L187 0M411 550L287 550L204 710L315 710L359 634L361 634L417 710L539 710L411 550Z"  horiz-adv-x="613" vert-adv-y="1000"  />

      
      <glyph glyph-name="uni0149" unicode="&#x0149;" d="M187 0L9 0L69 321Q78 365 98 492L256 492L247 411L249 411Q319 504 428 504Q497 504 530.50 466Q564 428 564 363Q564 326 557 284L503 0L325 0L373 256Q378 284 378 310Q378 362 337 362Q300 362 269.50 317.50Q239 273 224 195L187 0M76 546L60 628Q77 631 92.50 651Q108 671 108 693Q108 722 90 740L213 760Q238 735 238 693Q238 622 186 584Q134 546 76 546Z"  horiz-adv-x="613" vert-adv-y="1000"  />

      
      <glyph glyph-name="uni014A" unicode="&#x014A;" d="M314-227L299-82Q345-76 382-57Q419-38 427-15L349 224Q299 374 271 484L267 484Q260 414 221 209L182 0L13 0L140 674L366 674L432 478Q472 359 504 219L507 219Q508 303 535 448L577 674L747 674L630 53Q579-217 314-227Z"  horiz-adv-x="733" vert-adv-y="1000"  />

      
      <glyph glyph-name="uni014B" unicode="&#x014B;" d="M250-199L234-53Q277-51 300-29.50Q323-8 333 41L373 256Q378 284 378 310Q378 362 337 362Q300 362 269.50 317.50Q239 273 224 195L187 0L9 0L69 321Q82 388 98 492L256 492L247 411L249 411Q319 504 428 504Q497 504 530.50 466Q564 428 564 363Q564 326 557 284L515 61Q487-86 421-142.50Q355-199 250-199Z"  horiz-adv-x="613" vert-adv-y="1000"  />

      
      </font>
</defs>
</svg>
