<?xml version="1.0" standalone="no"?>
  <!DOCTYPE svg PUBLIC "-//W3C//DTD SVG 1.1//EN" "http://www.w3.org/Graphics/SVG/1.1/DTD/svg11.dtd" >
  <svg>
  <metadata>
  Created by font-carrier
  </metadata>
  <defs>
  <font id="MyriadPro-BoldSemiExtIt" horiz-adv-x="1354" vert-adv-y="1354" >
    <font-face
      
      font-family="Myriad Pro SemiExt"
      
      font-weight="400"
      
      font-stretch="normal"
      
      units-per-em="1000"
      
      ascent="750"
      
      descent="-250"
      
    />
      <missing-glyph />

      

      
      <glyph glyph-name="uni21" unicode="&#x21;" d="M189 221L78 221L140 674L300 674L189 221M99-12L98-12Q61-12 38 11.50Q15 35 15 72Q15 116 43.50 146Q72 176 118 176Q154 176 178.50 152Q203 128 203 89Q203 45 174 16.50Q145-12 99-12Z"  horiz-adv-x="280" vert-adv-y="1000"  />

      
      <glyph glyph-name="uni22" unicode="&#x22;" d="M117 695L262 695L183 411L86 411L117 695M320 695L464 695L386 411L288 411L320 695Z"  horiz-adv-x="411" vert-adv-y="1000"  />

      
      <glyph glyph-name="uni23" unicode="&#x23;" d="M237 269L329 269L365 383L273 383L237 269M151 0L57 0L111 173L26 173L42 269L143 269L180 383L92 383L107 479L209 479L264 650L357 650L302 479L395 479L450 650L544 650L489 479L573 479L558 383L459 383L423 269L509 269L493 173L390 173L337 0L242 0L297 173L205 173L151 0Z"  horiz-adv-x="578" vert-adv-y="1000"  />

      
      <glyph glyph-name="uni24" unicode="&#x24;" d="M274-88L173-88L190 5Q142 7 92 26.50Q42 46 14 68L65 182Q140 123 246 123Q292 123 322 140.50Q352 158 352 189Q352 213 331 232.50Q310 252 258 273Q94 340 94 447Q94 528 154.50 581.50Q215 635 311 643L329 730L430 730L413 643Q501 639 559 601L509 490Q438 532 352 532Q310 532 285.50 514.50Q261 497 261 472Q261 450 285.50 432Q310 414 373 387Q522 326 522 211Q522 121 456 68.50Q390 16 292 5L274-88Z"  horiz-adv-x="578" vert-adv-y="1000"  />

      
      <glyph glyph-name="uni25" unicode="&#x25;" d="M294 662L295 662Q364 662 407 619.50Q450 577 450 507Q450 401 386 330.50Q322 260 227 260Q158 260 113 303Q68 346 68 420Q68 521 131 591.50Q194 662 294 662M278 574L277 574Q237 574 211.50 524Q186 474 186 420Q186 389 200 368.50Q214 348 241 348Q282 348 307 398.50Q332 449 332 505Q332 535 319 554.50Q306 574 278 574M283-12L192-12L676 660L766 660L283-12M738 391L739 391Q808 391 851 348.50Q894 306 894 236Q894 130 830 60Q766-10 671-10Q602-10 557 33Q512 76 512 149Q512 250 575 320.50Q638 391 738 391M722 303L721 303Q681 303 655.50 253.50Q630 204 630 150Q630 118 644 98Q658 78 685 78Q726 78 751 128.50Q776 179 776 234Q776 264 763 283.50Q750 303 722 303Z"  horiz-adv-x="936" vert-adv-y="1000"  />

      
      <glyph glyph-name="uni26" unicode="&#x26;" d="M655 0L472 0Q462 10 432 47Q352-12 241-12Q141-12 79.50 37Q18 86 18 173Q18 304 185 378L185 380Q146 440 146 492Q146 573 207.50 629.50Q269 686 367 686Q444 686 496 644.50Q548 603 548 531Q548 473 505 429.50Q462 386 378 350L378 348Q390 329 406.50 307.50Q423 286 443 261.50Q463 237 473 224Q535 290 576 398L718 398Q652 225 547 129Q598 60 655 0M285 102L286 102Q331 102 369 133Q282 239 239 300Q174 251 174 199Q174 157 202.50 129.50Q231 102 285 102M353 588L352 588Q323 588 302.50 565.50Q282 543 282 508Q282 464 315 425Q413 465 413 528Q413 553 397.50 570.50Q382 588 353 588Z"  horiz-adv-x="713" vert-adv-y="1000"  />

      
      <glyph glyph-name="uni27" unicode="&#x27;" d="M120 695L264 695L186 412L88 412L120 695Z"  horiz-adv-x="213" vert-adv-y="1000"  />

      
      <glyph glyph-name="uni28" unicode="&#x28;" d="M264 690L374 690Q290 580 238.50 443Q187 306 187 158Q187 15 227-114L120-114Q66 11 66 150Q66 475 264 690Z"  horiz-adv-x="333" vert-adv-y="1000"  />

      
      <glyph glyph-name="uni29" unicode="&#x29;" d="M87-114L-23-114Q61-4 112.50 133.50Q164 271 164 419Q164 562 124 690L231 690Q285 566 285 426Q285 102 87-114Z"  horiz-adv-x="333" vert-adv-y="1000"  />

      
      <glyph glyph-name="uni2a" unicode="&#x2a;" d="M363 686L446 635L320 504L320 502L493 536L472 432L313 459L313 457L409 330L313 277L273 435L271 435L194 277L111 330L237 457L237 460L67 432L87 536L241 502L240 504L148 635L245 686L284 529L286 529L363 686Z"  horiz-adv-x="477" vert-adv-y="1000"  />

      
      <glyph glyph-name="uni2b" unicode="&#x2b;" d="M247 532L349 532L349 315L553 315L553 219L349 219L349 0L247 0L247 219L43 219L43 315L247 315L247 532Z"  horiz-adv-x="596" vert-adv-y="1000"  />

      
      <glyph glyph-name="uni2c" unicode="&#x2c;" d="M53-108L-56-117Q18 36 57 173L220 183Q148 21 53-108Z"  horiz-adv-x="271" vert-adv-y="1000"  />

      
      <glyph glyph-name="uni2d" unicode="&#x2d;" d="M44 310L323 310L303 206L24 206L44 310Z"  horiz-adv-x="343" vert-adv-y="1000"  />

      
      <glyph glyph-name="uniad" unicode="&#xad;" d="M44 310L323 310L303 206L24 206L44 310Z"  horiz-adv-x="343" vert-adv-y="1000"  />

      
      <glyph glyph-name="uni2e" unicode="&#x2e;" d="M103-10L102-10Q65-10 42 13.50Q19 37 19 74Q19 118 47.50 148Q76 178 122 178Q158 178 182.50 154Q207 130 207 91Q207 47 178 18.50Q149-10 103-10Z"  horiz-adv-x="271" vert-adv-y="1000"  />

      
      <glyph glyph-name="uni2f" unicode="&#x2f;" d="M78-40L-27-40L313 686L419 686L78-40Z"  horiz-adv-x="341" vert-adv-y="1000"  />

      
      <glyph glyph-name="uni30" unicode="&#x30;" d="M247-12L246-12Q143-12 92.50 54Q42 120 42 233Q42 310 63 385Q84 460 122.50 522.50Q161 585 224 623.50Q287 662 363 662Q465 662 515 598Q565 534 565 431Q565 351 544.50 273.50Q524 196 485.50 131.50Q447 67 385 27.50Q323-12 247-12M262 105L263 105Q300 105 331 141.50Q362 178 379 230.50Q396 283 405.50 334Q415 385 415 422Q415 545 345 545Q298 545 261 485.50Q224 426 207.50 355.50Q191 285 191 230Q191 105 262 105Z"  horiz-adv-x="578" vert-adv-y="1000"  />

      
      <glyph glyph-name="uni31" unicode="&#x31;" d="M201 0L297 509L295 509L161 452L156 569L346 650L467 650L345 0L201 0Z"  horiz-adv-x="578" vert-adv-y="1000"  />

      
      <glyph glyph-name="uni32" unicode="&#x32;" d="M477 0L-1 0L17 94L180 212Q297 300 346.50 352Q396 404 396 456Q396 492 371 514Q346 536 302 536Q217 536 147 493L112 599Q211 662 335 662Q434 662 493 612Q552 562 552 477Q552 431 535.50 389Q519 347 484.50 309.50Q450 272 415.50 243.50Q381 215 328 178L254 129L254 127L500 127L477 0Z"  horiz-adv-x="578" vert-adv-y="1000"  />

      
      <glyph glyph-name="uni33" unicode="&#x33;" d="M8 40L56 156Q131 113 220 113Q282 113 317.50 138Q353 163 353 201Q353 287 209 287L181 287L203 400L230 400Q291 400 337 422Q383 444 383 483Q383 538 300 538Q209 538 144 501L118 610Q209 662 323 662Q413 662 477.50 623.50Q542 585 542 505Q542 447 499.50 404.50Q457 362 388 347L387 345Q443 336 477 297.50Q511 259 511 201Q511 134 466.50 84.50Q422 35 356 11.50Q290-12 216-12Q148-12 91 3Q34 18 8 40Z"  horiz-adv-x="578" vert-adv-y="1000"  />

      
      <glyph glyph-name="uni34" unicode="&#x34;" d="M423 0L279 0L309 157L10 157L30 257L349 650L545 650L474 272L554 272L533 157L452 157L423 0M184 272L330 272L362 418Q366 434 377 478.50Q388 523 393 545L389 545Q311 430 298 413L185 274L184 272Z"  horiz-adv-x="578" vert-adv-y="1000"  />

      
      <glyph glyph-name="uni35" unicode="&#x35;" d="M568 650L542 523L288 523L259 429Q272 431 294 431Q379 431 439 395Q478 373 499.50 332Q521 291 521 243Q521 121 431 54.50Q341-12 207-12Q144-12 91 1.50Q38 15 15 33L55 150Q79 136 121.50 124.50Q164 113 208 113Q267 113 315 140.50Q363 168 363 216Q363 316 186 316Q168 316 93 311L190 650L568 650Z"  horiz-adv-x="578" vert-adv-y="1000"  />

      
      <glyph glyph-name="uni36" unicode="&#x36;" d="M546 659L523 538Q497 541 462 538Q369 532 305 490Q241 448 216 390L217 388Q278 440 363 440Q440 440 492.50 388Q545 336 545 247Q545 141 467 64.50Q389-12 270-12Q157-12 95 53Q33 118 33 225Q33 328 77.50 418.50Q122 509 196 565Q315 655 486 660Q507 662 546 659M274 105L275 105Q325 105 356.50 143Q388 181 388 229Q388 276 362.50 301.50Q337 327 296 327Q231 327 195 268Q183 250 183 231Q182 226 182 212Q182 165 207 135Q232 105 274 105Z"  horiz-adv-x="578" vert-adv-y="1000"  />

      
      <glyph glyph-name="uni37" unicode="&#x37;" d="M123 650L598 650L579 551Q505 444 368.50 244Q232 44 202 0L31 0Q370 472 405 521L405 523L98 523L123 650Z"  horiz-adv-x="578" vert-adv-y="1000"  />

      
      <glyph glyph-name="uni38" unicode="&#x38;" d="M351 662L352 662Q439 662 498 620.50Q557 579 557 501Q557 400 439 350L438 347Q483 325 508 286Q533 247 533 204Q533 134 490 83.50Q447 33 385 10.50Q323-12 252-12Q144-11 81.50 36Q19 83 19 157Q19 222 58.50 268.50Q98 315 162 338L163 341Q95 385 95 462Q95 553 170.50 607.50Q246 662 351 662M272 100L273 100Q312 100 342 123.50Q372 147 372 187Q372 257 280 284Q238 276 209 248.50Q180 221 180 180Q180 146 205 123Q230 100 272 100M332 550L331 550Q294 550 267.50 526.50Q241 503 241 473Q241 444 265 423Q289 402 327 392Q358 399 384 422.50Q410 446 410 479Q410 509 389 529.50Q368 550 332 550Z"  horiz-adv-x="578" vert-adv-y="1000"  />

      
      <glyph glyph-name="uni39" unicode="&#x39;" d="M49-9L67 112Q75 111 131 111Q214 116 275 152Q353 196 386 269L385 270Q336 220 251 220Q167 220 113.50 270Q60 320 60 405Q60 512 142 587Q224 662 341 662Q451 662 510.50 597Q570 532 570 421Q570 317 523 225.50Q476 134 404 79Q296-6 132-11Q75-12 49-9M327 545L326 545Q282 545 248.50 509.50Q215 474 215 425Q215 384 239 359Q263 334 301 334Q365 334 398 378Q409 391 412 400Q417 414 417 445Q417 488 393.50 516.50Q370 545 327 545Z"  horiz-adv-x="578" vert-adv-y="1000"  />

      
      <glyph glyph-name="uni3a" unicode="&#x3a;" d="M163 310L162 310Q125 310 102 333.50Q79 357 79 394Q79 438 107.50 468Q136 498 182 498Q218 498 242.50 474Q267 450 267 411Q267 367 238 338.50Q209 310 163 310M103-12L102-12Q65-12 42 11.50Q19 35 19 72Q19 116 47.50 146Q76 176 122 176Q158 176 182.50 152Q207 128 207 89Q207 45 178 16.50Q149-12 103-12Z"  horiz-adv-x="271" vert-adv-y="1000"  />

      
      <glyph glyph-name="uni3b" unicode="&#x3b;" d="M53-108L-56-117Q18 36 57 173L220 183Q148 21 53-108M169 310L168 310Q131 310 108 333.50Q85 357 85 394Q85 438 113.50 468Q142 498 188 498Q224 498 248.50 474Q273 450 273 411Q273 367 244 338.50Q215 310 169 310Z"  horiz-adv-x="271" vert-adv-y="1000"  />

      
      <glyph glyph-name="uni3c" unicode="&#x3c;" d="M48 219L48 313L522 532L522 425L161 267L161 265L522 107L522 0L48 219Z"  horiz-adv-x="596" vert-adv-y="1000"  />

      
      <glyph glyph-name="uni3d" unicode="&#x3d;" d="M548 327L38 327L38 423L548 423L548 327M548 113L38 113L38 209L548 209L548 113Z"  horiz-adv-x="596" vert-adv-y="1000"  />

      
      <glyph glyph-name="uni3e" unicode="&#x3e;" d="M551 313L551 219L77 0L77 107L438 265L438 267L77 425L77 532L551 313Z"  horiz-adv-x="596" vert-adv-y="1000"  />

      
      <glyph glyph-name="uni3f" unicode="&#x3f;" d="M293 222L145 222Q146 232 148 250Q162 333 240 413Q251 424 270.50 443Q290 462 300 472.50Q310 483 318.50 496.50Q327 510 327 522Q327 566 267 567Q196 567 146 537L122 638Q201 686 308 686Q378 686 429 650Q480 614 480 548Q480 520 473 496.50Q466 473 445.50 446.50Q425 420 413.50 408.50Q402 397 368 363Q312 310 298 246Q297 238 293 222M185-12L184-12Q147-12 124 11.50Q101 35 101 72Q101 116 129.50 146Q158 176 204 176Q240 176 264.50 152Q289 128 289 89Q289 45 260 16.50Q231-12 185-12Z"  horiz-adv-x="474" vert-adv-y="1000"  />

      
      <glyph glyph-name="uni40" unicode="&#x40;" d="M457 256L469 339Q451 343 436 343Q383 343 347.50 304Q312 265 312 213Q312 183 326 166Q340 149 366 149Q397 149 423.50 180Q450 211 457 256M545-9L563-72Q482-106 374-106Q234-106 137-17.50Q40 71 40 214Q40 372 149.50 482Q259 592 431 592Q569 592 662 508.50Q755 425 755 293Q755 191 697.50 127.50Q640 64 555 64Q519 64 494.50 83Q470 102 465 139L463 139Q412 64 327 64Q274 64 240 100.50Q206 137 206 199Q206 293 274 360.50Q342 428 450 428Q529 428 577 403L549 216Q536 136 573 135Q610 133 642 175Q674 217 674 293Q674 395 606.50 460Q539 525 421 525Q296 525 210 443.50Q124 362 124 227Q124 103 198.50 32Q273-39 396-39Q482-39 545-9Z"  horiz-adv-x="793" vert-adv-y="1000"  />

      
      <glyph glyph-name="uni41" unicode="&#x41;" d="M442 181L225 181L139 0L-26 0L321 674L520 674L622 0L461 0L442 181M272 297L432 297L414 441Q408 492 399 563L397 563Q390 549 371.50 506Q353 463 342 441L272 297Z"  horiz-adv-x="676" vert-adv-y="1000"  />

      
      <glyph glyph-name="uni42" unicode="&#x42;" d="M22 8L145 662Q235 679 338 679Q443 679 509 648Q550 631 575 597Q600 563 600 519Q600 459 561.50 419.50Q523 380 463 363L463 361Q513 346 543.50 308Q574 270 574 213Q574 111 475 48Q391-5 207-5Q85-5 22 8M276 556L247 408L305 408Q367 408 405.50 430.50Q444 453 444 493Q444 561 340 561Q296 561 276 556M224 298L190 116Q209 113 254 113Q322 113 367 137Q412 161 412 214Q412 298 276 298L224 298Z"  horiz-adv-x="620" vert-adv-y="1000"  />

      
      <glyph glyph-name="uni43" unicode="&#x43;" d="M574 141L591 23Q515-12 385-12Q240-12 146.50 65.50Q53 143 53 293Q53 401 102 485Q151 569 237 619Q347 686 500 686Q613 686 671 653L630 534Q578 559 487 559Q382 559 315 508Q217 439 217 306Q217 218 271.50 166.50Q326 115 426 115Q513 115 574 141Z"  horiz-adv-x="650" vert-adv-y="1000"  />

      
      <glyph glyph-name="uni44" unicode="&#x44;" d="M22 8L147 663Q235 679 352 679Q532 679 625 605Q727 530 727 382Q727 201 591 93Q464-5 228-5Q98-5 22 8M279 554L197 119Q222 115 270 115Q410 115 486 188Q561 260 561 376Q561 559 352 559Q309 559 279 554Z"  horiz-adv-x="748" vert-adv-y="1000"  />

      
      <glyph glyph-name="uni45" unicode="&#x45;" d="M518 409L494 282L224 282L195 127L497 127L473 0L20 0L147 674L585 674L560 547L274 547L248 409L518 409Z"  horiz-adv-x="561" vert-adv-y="1000"  />

      
      <glyph glyph-name="uni46" unicode="&#x46;" d="M21 0L148 674L581 674L556 547L275 547L246 396L509 396L485 269L221 269L171 0L21 0Z"  horiz-adv-x="553" vert-adv-y="1000"  />

      
      <glyph glyph-name="uni47" unicode="&#x47;" d="M706 387L639 35Q506-7 392-7Q240-7 147 68Q51 147 51 289Q51 470 192 581Q320 681 516 681Q583 681 638 670.50Q693 660 718 647L674 522Q604 554 508 554Q395 554 316 497Q218 425 218 302Q218 212 272 166Q326 120 422 120Q475 120 508 134L534 267L414 267L438 387L706 387Z"  horiz-adv-x="741" vert-adv-y="1000"  />

      
      <glyph glyph-name="uni48" unicode="&#x48;" d="M148 674L299 674L250 416L530 416L579 674L730 674L603 0L452 0L505 283L224 283L171 0L21 0L148 674Z"  horiz-adv-x="719" vert-adv-y="1000"  />

      
      <glyph glyph-name="uni49" unicode="&#x49;" d="M144 674L294 674L166 0L16 0L144 674Z"  horiz-adv-x="284" vert-adv-y="1000"  />

      
      <glyph glyph-name="uni4a" unicode="&#x4a;" d="M225 263L303 674L453 674L370 239Q345 107 281.50 47.50Q218-12 94-12Q10-12-33 7L-3 134Q42 119 89 119Q145 119 177.50 151Q210 183 225 263Z"  horiz-adv-x="437" vert-adv-y="1000"  />

      
      <glyph glyph-name="uni4b" unicode="&#x4b;" d="M20 0L147 674L296 674L240 377L243 377Q255 391 276 414.50Q297 438 305 447L513 674L707 674L411 385L594 0L428 0L292 296L212 225L169 0L20 0Z"  horiz-adv-x="639" vert-adv-y="1000"  />

      
      <glyph glyph-name="uni4c" unicode="&#x4c;" d="M20 0L147 674L298 674L196 131L486 131L461 0L20 0Z"  horiz-adv-x="533" vert-adv-y="1000"  />

      
      <glyph glyph-name="uni4d" unicode="&#x4d;" d="M783 0L632 0L675 283Q711 500 723 562L721 562Q620 348 592 293L445 11L325 11L297 289Q288 391 279 562L277 562Q267 520 246.50 422Q226 324 216 283L149 0L8 0L177 674L389 674L414 439Q429 240 429 209L433 209Q475 318 535 439L659 674L875 674L783 0Z"  horiz-adv-x="887" vert-adv-y="1000"  />

      
      <glyph glyph-name="uni4e" unicode="&#x4e;" d="M164 0L21 0L148 674L336 674L437 420Q477 309 507 183L510 183Q511 265 538 405L588 674L732 674L605 0L441 0L334 275Q280 426 258 513L254 513Q246 440 212 255L164 0Z"  horiz-adv-x="721" vert-adv-y="1000"  />

      
      <glyph glyph-name="uni4f" unicode="&#x4f;" d="M362-12L361-12Q222-12 137 70Q52 152 52 289Q52 464 172 578Q283 686 450 686Q592 686 675.50 604.50Q759 523 759 382Q759 207 643 96Q533-12 362-12M382 112L383 112Q462 112 519 171Q597 247 597 373Q597 456 559 509Q521 562 433 562Q354 562 294 502Q214 422 214 300Q214 212 256.50 162Q299 112 382 112Z"  horiz-adv-x="779" vert-adv-y="1000"  />

      
      <glyph glyph-name="uni50" unicode="&#x50;" d="M21 0L145 660Q215 679 334 679Q454 679 521 638Q605 588 605 485Q605 368 512 300Q429 236 282 236Q254 236 214 241L168 0L21 0M273 555L236 363Q272 357 302 357Q367 357 410.50 388.50Q454 420 454 471Q454 560 341 560Q295 560 273 555Z"  horiz-adv-x="595" vert-adv-y="1000"  />

      
      <glyph glyph-name="uni51" unicode="&#x51;" d="M697-6L651-126Q490-85 369-29Q328-11 313-9Q203-1 127.50 79Q52 159 52 292Q52 456 162 569Q277 686 452 686Q592 686 675 604Q758 522 758 384Q758 213 649 104Q599 54 532 27L532 25Q673-3 697-6M381 111L382 111Q459 111 519 169Q597 250 597 376Q597 455 558.50 508.50Q520 562 435 562Q355 562 295 502Q257 464 235.50 409.50Q214 355 214 298Q214 212 256.50 161.50Q299 111 381 111Z"  horiz-adv-x="779" vert-adv-y="1000"  />

      
      <glyph glyph-name="uni52" unicode="&#x52;" d="M21 0L147 660Q220 679 343 679Q463 679 529 643Q614 598 614 505Q614 369 456 318L456 314Q509 292 523 194Q526 172 532 121Q538 70 543 41.50Q548 13 554 0L398 0Q387 32 374 158Q368 218 344 241Q320 264 272 264L221 264L170 0L21 0M276 556L242 376L312 376Q375 376 416 404.50Q457 433 457 481Q457 561 340 561Q299 561 276 556Z"  horiz-adv-x="625" vert-adv-y="1000"  />

      
      <glyph glyph-name="uni53" unicode="&#x53;" d="M1 44L55 165Q138 116 236 116Q281 116 313.50 135.50Q346 155 346 192Q346 218 323 238.50Q300 259 247 282Q88 351 88 466Q88 567 169 626.50Q250 686 368 686Q475 686 547 649L498 525Q430 560 355 558Q304 558 276 538.50Q248 519 248 493Q248 478 256 465Q264 452 282 440Q300 428 314.50 420.50Q329 413 357 400Q508 334 508 217Q508 107 424.50 47.50Q341-12 216-12Q73-9 1 44Z"  horiz-adv-x="555" vert-adv-y="1000"  />

      
      <glyph glyph-name="uni54" unicode="&#x54;" d="M165 0L267 546L69 546L94 674L643 674L618 546L417 546L315 0L165 0Z"  horiz-adv-x="579" vert-adv-y="1000"  />

      
      <glyph glyph-name="uni55" unicode="&#x55;" d="M146 674L296 674L226 303Q219 266 219 221Q220 174 249.50 143Q279 112 333 112Q400 112 442.50 158Q485 204 503 303L573 674L724 674L654 305Q622 140 542 64Q462-12 314-12Q199-13 134 46Q69 105 69 221Q69 260 78 312L146 674Z"  horiz-adv-x="711" vert-adv-y="1000"  />

      
      <glyph glyph-name="uni56" unicode="&#x56;" d="M364 0L186 0L82 674L234 674L277 360Q294 230 302 148L304 148Q343 241 405 361L566 674L734 674L364 0Z"  horiz-adv-x="671" vert-adv-y="1000"  />

      
      <glyph glyph-name="uni57" unicode="&#x57;" d="M307 0L135 0L94 674L244 674L252 375Q254 211 253 156L255 156Q269 190 296.50 263Q324 336 340 376L462 674L635 674L636 373Q636 245 632 161L634 161Q667 253 714 378L837 674L998 674L682 0L516 0L510 293Q509 410 514 518L512 518Q446 330 432 294L307 0Z"  horiz-adv-x="932" vert-adv-y="1000"  />

      
      <glyph glyph-name="uni58" unicode="&#x58;" d="M574 0L411 0L358 132Q349 155 333.50 196Q318 237 313 251L311 251Q302 237 277.50 196.50Q253 156 236 128L152 0L-37 0L237 344L96 674L257 674L307 544Q334 467 345 433L348 433Q359 451 381.50 489.50Q404 528 416 546L503 674L689 674L423 345L574 0Z"  horiz-adv-x="631" vert-adv-y="1000"  />

      
      <glyph glyph-name="uni59" unicode="&#x59;" d="M323 0L173 0L226 280L72 674L233 674L285 499Q310 420 319 385L321 385Q348 429 395 503L504 674L689 674L377 285L323 0Z"  horiz-adv-x="629" vert-adv-y="1000"  />

      
      <glyph glyph-name="uni5a" unicode="&#x5a;" d="M-22 0L-6 84L417 542L416 546L112 546L137 674L653 674L636 589L219 132L220 128L556 128L533 0L-22 0Z"  horiz-adv-x="614" vert-adv-y="1000"  />

      
      <glyph glyph-name="uni5b" unicode="&#x5b;" d="M215-112L7-112L159 686L367 686L351 602L256 602L135-28L231-28L215-112Z"  horiz-adv-x="333" vert-adv-y="1000"  />

      
      <glyph glyph-name="uni5c" unicode="&#x5c;" d="M330-40L225-40L51 686L156 686L330-40Z"  horiz-adv-x="356" vert-adv-y="1000"  />

      
      <glyph glyph-name="uni5d" unicode="&#x5d;" d="M132 686L340 686L188-112L-20-112L-4-28L91-28L212 602L116 602L132 686Z"  horiz-adv-x="333" vert-adv-y="1000"  />

      
      <glyph glyph-name="uni5e" unicode="&#x5e;" d="M543 177L432 177L289 532L287 532L143 177L34 177L241 650L336 650L543 177Z"  horiz-adv-x="596" vert-adv-y="1000"  />

      
      <glyph glyph-name="uni5f" unicode="&#x5f;" d="M-55-75L445-75L435-125L-65-125L-55-75Z"  horiz-adv-x="500" vert-adv-y="1000"  />

      
      <glyph glyph-name="uni60" unicode="&#x60;" d="M110 704L258 704L342 548L232 548L110 704Z"  horiz-adv-x="400" vert-adv-y="1000"  />

      
      <glyph glyph-name="uni61" unicode="&#x61;" d="M503 0L363 0Q364 27 370 102L368 102Q306-12 190-12Q119-12 73.50 37.50Q28 87 28 166Q28 304 125.50 402.50Q223 501 401 501Q491 501 573 475L522 225Q500 104 503 0M384 285L404 382Q380 386 360 386Q289 386 238 326.50Q187 267 187 192Q187 154 204.50 131Q222 108 254 108Q294 108 330.50 151.50Q367 195 384 285Z"  horiz-adv-x="596" vert-adv-y="1000"  />

      
      <glyph glyph-name="uni62" unicode="&#x62;" d="M152 716L303 716L245 432L247 431Q309 501 410 501Q487 501 530 450Q573 399 573 321Q573 262 552 205Q531 148 491 98.50Q451 49 383.50 18.50Q316-12 232-12Q138-12 89.50 26.50Q41 65 42 135Q42 174 54 232L152 716M207 231L204 216Q197 181 199 160Q202 103 261 103Q325 103 370 163Q415 223 415 294Q415 332 396 356.50Q377 381 342 381Q297 381 259 340.50Q221 300 207 231Z"  horiz-adv-x="603" vert-adv-y="1000"  />

      
      <glyph glyph-name="uni63" unicode="&#x63;" d="M407 131L411 18Q351-12 255-12Q157-12 94.50 42.50Q32 97 32 197Q32 327 127.50 414Q223 501 370 501Q433 501 482 482L445 369Q412 383 368 383Q288 383 239.50 332.50Q191 282 191 213Q191 162 221.50 135Q252 108 298 108Q353 108 407 131Z"  horiz-adv-x="477" vert-adv-y="1000"  />

      
      <glyph glyph-name="uni64" unicode="&#x64;" d="M477 716L626 716L528 199Q508 101 505 0L363 0L371 82L369 82Q305-12 194-12Q125-12 77.50 39.50Q30 91 30 183Q30 314 122.50 407.50Q215 501 359 501Q401 501 433 489L477 716M390 261L411 367Q389 386 346 386Q278 386 233 334Q188 282 188 207Q188 160 208.50 134Q229 108 264 108Q303 108 339 147Q375 186 390 261Z"  horiz-adv-x="603" vert-adv-y="1000"  />

      
      <glyph glyph-name="uni65" unicode="&#x65;" d="M443 137L454 30Q374-12 257-12Q148-12 89.50 44Q31 100 31 203Q31 321 115.50 411Q200 501 332 501Q413 501 464.50 461.50Q516 422 516 350Q516 262 429 224Q342 186 174 191Q176 163 191 142Q223 104 294 104Q375 104 443 137M373 354L373 355Q373 372 357 383Q341 394 314 394Q263 394 229.50 363.50Q196 333 189 300Q287 299 330 311Q373 323 373 354Z"  horiz-adv-x="540" vert-adv-y="1000"  />

      
      <glyph glyph-name="uni66" unicode="&#x66;" d="M183 0L33 0L103 372L40 372L62 489L125 489L130 516Q149 627 215 680Q272 728 360 728Q410 728 438 714L414 594Q394 603 366 603Q331 603 309 578.50Q287 554 279 514L274 489L371 489L349 372L253 372L183 0Z"  horiz-adv-x="345" vert-adv-y="1000"  />

      
      <glyph glyph-name="uni67" unicode="&#x67;" d="M18-178L51-63Q72-76 115-84Q158-92 196-92Q256-92 295.50-62.50Q335-33 350 43L358 78L356 78Q295 5 206 5Q128 5 79.50 58.50Q31 112 31 191Q31 320 124 410.50Q217 501 378 501Q485 501 574 465L501 68Q470-98 392-158Q320-212 195-212Q80-212 18-178M389 264L410 376Q386 386 350 386Q282 386 237 333.50Q192 281 192 208Q192 168 212 144Q232 120 268 120Q307 120 341.50 158Q376 196 389 264Z"  horiz-adv-x="602" vert-adv-y="1000"  />

      
      <glyph glyph-name="uni68" unicode="&#x68;" d="M167 0L17 0L152 716L303 716L247 425L249 425Q320 501 416 501Q478 501 514.50 464Q551 427 551 360Q551 318 542 275L490 0L340 0L389 259Q395 288 395 319Q395 380 339 380Q295 380 258 332Q221 284 206 205L167 0Z"  horiz-adv-x="602" vert-adv-y="1000"  />

      
      <glyph glyph-name="uni69" unicode="&#x69;" d="M168 0L17 0L110 489L261 489L168 0M204 550L203 550Q173 550 151.50 569.50Q130 589 130 622Q130 660 156 682.50Q182 705 217 705Q250 705 272 685.50Q294 666 294 632Q294 595 268 572.50Q242 550 204 550Z"  horiz-adv-x="281" vert-adv-y="1000"  />

      
      <glyph glyph-name="uni6a" unicode="&#x6a;" d="M130 489L279 489L190 11Q167-113 116-166Q70-212-15-212Q-57-212-88-204L-71-89Q-60-92-36-92Q-9-92 10-71Q29-50 39 7L130 489M217 550L216 550Q186 550 164.50 569.50Q143 589 143 622Q143 660 169 682.50Q195 705 230 705Q263 705 285 685.50Q307 666 307 632Q307 595 281 572.50Q255 550 217 550Z"  horiz-adv-x="298" vert-adv-y="1000"  />

      
      <glyph glyph-name="uni6b" unicode="&#x6b;" d="M167 0L17 0L152 716L303 716L221 285L223 285Q232 295 247.50 313Q263 331 270 339L407 489L599 489L374 293L530 0L359 0L259 209L196 154L167 0Z"  horiz-adv-x="575" vert-adv-y="1000"  />

      
      <glyph glyph-name="uni6c" unicode="&#x6c;" d="M168 0L18 0L155 716L305 716L168 0Z"  horiz-adv-x="281" vert-adv-y="1000"  />

      
      <glyph glyph-name="uni6d" unicode="&#x6d;" d="M162 0L17 0L77 330Q91 405 103 489L232 489L222 405L223 405Q292 501 402 501Q462 501 494 471Q526 441 529 402Q596 499 709 501Q770 501 804.50 464Q839 427 839 361Q839 329 832 282L780 0L635 0L682 259Q688 293 688 314Q688 380 633 380Q592 380 557.50 331.50Q523 283 509 208L470 0L325 0L374 261Q380 299 380 313Q380 380 328 380Q286 380 249.50 330.50Q213 281 199 207L162 0Z"  horiz-adv-x="890" vert-adv-y="1000"  />

      
      <glyph glyph-name="uni6e" unicode="&#x6e;" d="M167 0L17 0L79 330Q87 370 106 489L240 489L229 402L231 402Q303 501 415 501Q479 501 515 464Q551 427 551 358Q551 320 543 280L490 0L340 0L389 259Q394 287 394 315Q394 380 339 380Q297 380 258.50 332Q220 284 205 203L167 0Z"  horiz-adv-x="603" vert-adv-y="1000"  />

      
      <glyph glyph-name="uni6f" unicode="&#x6f;" d="M261-12L260-12Q162-12 97.50 44.50Q33 101 33 201Q33 330 120 415.50Q207 501 343 501Q444 501 508.50 442Q573 383 573 289Q573 152 484 70Q395-12 261-12M281 103L282 103Q342 103 378.50 159Q415 215 415 283Q415 325 393 355.50Q371 386 325 386Q262 386 226.50 327Q191 268 191 203Q191 156 215.50 129.50Q240 103 281 103Z"  horiz-adv-x="607" vert-adv-y="1000"  />

      
      <glyph glyph-name="uni70" unicode="&#x70;" d="M128-200L-22-200L71 291Q86 380 100 494L236 494L227 418L229 418Q295 501 398 501Q479 501 526 445Q573 389 573 305Q573 173 488.50 80.50Q404-12 272-12Q209-12 171 11L169 11L128-200M205 210L193 130Q222 103 269 103Q327 103 370.50 161Q414 219 414 297Q414 331 396 356Q378 381 342 381Q295 381 257.50 335.50Q220 290 205 210Z"  horiz-adv-x="604" vert-adv-y="1000"  />

      
      <glyph glyph-name="uni71" unicode="&#x71;" d="M454-200L303-200L364 71L362 71Q333 30 288.50 9Q244-12 196-12Q123-12 76.50 42Q30 96 30 183Q30 245 52.50 301Q75 357 117 402Q159 447 228 474Q297 501 382 501Q460 501 578 472L454-200M390 263L412 374Q388 386 346 386Q278 386 233 329.50Q188 273 188 201Q188 157 207.50 132.50Q227 108 257 108Q301 108 338.50 148Q376 188 390 263Z"  horiz-adv-x="605" vert-adv-y="1000"  />

      
      <glyph glyph-name="uni72" unicode="&#x72;" d="M167 0L17 0L70 277Q76 312 81 354.50Q86 397 90 437Q94 477 95 489L225 489Q223 471 220 435.50Q217 400 216 383L219 383Q280 501 386 501Q406 501 415 500L385 355Q378 356 362 356Q290 356 252.50 305Q215 254 199 167L167 0Z"  horiz-adv-x="395" vert-adv-y="1000"  />

      
      <glyph glyph-name="uni73" unicode="&#x73;" d="M0 31L37 135Q113 97 180 97Q210 97 226.50 108.50Q243 120 243 138Q243 156 228.50 169Q214 182 178 197Q61 249 61 331Q61 409 124 455Q187 501 287 501Q373 501 423 474L387 369Q334 392 276 392Q247 392 230 381.50Q213 371 213 353Q213 327 280 297Q304 287 321.50 277Q339 267 359 251Q379 235 390 212.50Q401 190 401 162Q401 79 335 32.50Q269-14 165-12Q52-9 0 31Z"  horiz-adv-x="450" vert-adv-y="1000"  />

      
      <glyph glyph-name="uni74" unicode="&#x74;" d="M148 582L301 623L277 489L385 489L362 372L254 372L224 227Q215 182 215 158Q215 117 258 117Q287 117 299 119L282 0Q253-12 194-12Q128-12 94.50 17Q61 46 61 93Q61 131 72 189L108 372L44 372L66 489L130 489L148 582Z"  horiz-adv-x="370" vert-adv-y="1000"  />

      
      <glyph glyph-name="uni75" unicode="&#x75;" d="M429 489L579 489L517 159Q502 87 490 0L356 0L367 84L365 84Q286-12 183-12Q118-12 82 23.50Q46 59 46 132Q46 170 55 219L107 489L257 489L209 232Q202 197 202 172Q202 110 258 110Q300 110 337 156.50Q374 203 389 281L429 489Z"  horiz-adv-x="600" vert-adv-y="1000"  />

      
      <glyph glyph-name="uni76" unicode="&#x76;" d="M45 489L199 489L231 278Q235 253 238.50 228.50Q242 204 245.50 181Q249 158 251 147L254 147Q275 198 313 280L416 489L589 489L299 0L146 0L45 489Z"  horiz-adv-x="556" vert-adv-y="1000"  />

      
      <glyph glyph-name="uni77" unicode="&#x77;" d="M52 489L203 489L208 285Q210 236 206 127L208 127Q218 156 271 281L368 489L493 489L508 289Q514 202 513 127L515 127Q535 188 572 289L658 489L811 489L565 0L421 0L405 167Q400 231 397 325L395 325Q384 298 372.50 267Q361 236 353 216Q345 196 335 176L250 0L105 0L52 489Z"  horiz-adv-x="779" vert-adv-y="1000"  />

      
      <glyph glyph-name="uni78" unicode="&#x78;" d="M51 489L219 489L252 421Q290 343 292 339L295 339Q337 397 352 418L409 489L586 489L364 254L494 0L327 0L291 76Q270 120 253 165L250 165Q250 164 229.50 133Q209 102 195 82L133 0L-46 0L183 255L51 489Z"  horiz-adv-x="547" vert-adv-y="1000"  />

      
      <glyph glyph-name="uni79" unicode="&#x79;" d="M42 489L201 489L239 283Q258 185 261 166L263 166Q266 174 273.50 193Q281 212 289.50 233Q298 254 308 277L402 489L562 489L383 149Q280-49 186-137Q142-179 91-202Q40-225 6-229L-21-99Q34-85 69-61Q120-27 152 27Q158 36 154 51L42 489Z"  horiz-adv-x="536" vert-adv-y="1000"  />

      
      <glyph glyph-name="uni7a" unicode="&#x7a;" d="M-23 0L-7 88L158 246Q233 317 293 365L294 367L63 367L87 489L505 489L487 398L327 242Q241 162 193 124L192 122L444 122L421 0L-23 0Z"  horiz-adv-x="493" vert-adv-y="1000"  />

      
      <glyph glyph-name="uni7b" unicode="&#x7b;" d="M37 250L51 325Q85 326 105.50 339Q126 352 132 364.50Q138 377 142 397Q146 420 151.50 474.50Q157 529 162 555Q186 686 335 686L376 686L359 601L340 601Q308 601 290.50 583Q273 565 265 528Q261 512 257 470.50Q253 429 249 402Q240 346 215.50 321.50Q191 297 143 288L143 286Q174 280 194 262Q214 244 214 214Q214 178 193 113Q171 43 171 19Q171-27 220-27L239-27L224-112L192-112Q56-112 56-4Q56 27 80 103Q103 176 103 199Q103 223 85.50 236Q68 249 37 250Z"  horiz-adv-x="333" vert-adv-y="1000"  />

      
      <glyph glyph-name="uni7c" unicode="&#x7c;" d="M89 750L191 750L191-250L89-250L89 750Z"  horiz-adv-x="247" vert-adv-y="1000"  />

      
      <glyph glyph-name="uni7d" unicode="&#x7d;" d="M308 324L294 249Q260 248 239 235Q218 222 212 209Q206 196 202 177Q198 154 192.50 99.50Q187 45 182 19Q158-112 9-112L-32-112L-15-27L4-27Q36-27 53.50-9Q71 9 79 46Q83 62 87 103.50Q91 145 95 172Q104 229 128.50 253.50Q153 278 201 286L201 288Q130 301 130 361Q130 386 152 461Q173 532 173 555Q173 601 124 601L105 601L120 686L152 686Q288 686 288 578Q288 540 265 471Q242 404 242 375Q242 326 308 324Z"  horiz-adv-x="333" vert-adv-y="1000"  />

      
      <glyph glyph-name="uni7e" unicode="&#x7e;" d="M142 190L43 190Q42 381 184 381Q240 381 322 335Q393 296 420 296Q455 296 459 376L559 376Q567 183 421 183Q364 183 274 235Q216 270 188 270Q149 270 142 190Z"  horiz-adv-x="596" vert-adv-y="1000"  />

      
      <glyph glyph-name="unia1" unicode="&#xa1;" d="M136-191L-24-191L87 261L198 261L136-191M177 494L178 494Q215 494 238 470.50Q261 447 261 410Q261 366 232.50 336Q204 306 158 306Q122 306 97.50 330Q73 354 73 393Q73 437 102 465.50Q131 494 177 494Z"  horiz-adv-x="280" vert-adv-y="1000"  />

      
      <glyph glyph-name="unia2" unicode="&#xa2;" d="M342-12L241-12L259 84Q175 100 131 155Q87 211 87 294Q87 408 164 486.50Q241 565 355 584L372 678L473 678L456 588Q514 586 551 567L505 454Q465 473 413 473Q345 473 298.50 428Q252 383 252 313Q252 259 285.50 229.50Q319 200 371 200Q420 200 468 222L479 110Q425 84 359 82L342-12Z"  horiz-adv-x="578" vert-adv-y="1000"  />

      
      <glyph glyph-name="unia3" unicode="&#xa3;" d="M494 0L15 0L29 82Q67 97 103.50 130Q140 163 157 200Q170 226 167 263L69 263L89 372L166 372Q168 440 180 484Q204 568 267.50 615Q331 662 427 662Q508 662 546 634L505 520Q472 538 423 538Q377 538 350 514Q323 490 315 449Q308 416 310 372L458 372L438 263L306 263Q303 234 292 207Q275 158 232 129L232 127L513 127L494 0Z"  horiz-adv-x="578" vert-adv-y="1000"  />

      
      <glyph glyph-name="unia4" unicode="&#xa4;" d="M297 555L298 555Q372 555 420 518L500 606L571 533L480 454Q517 406 517 338Q517 265 476 218L565 136L495 66L419 157Q369 116 297 116Q224 116 176 156L100 66L30 136L118 217Q77 264 77 336Q77 405 115 454L25 533L96 606L176 518Q224 555 297 555M297 452L296 452Q253 452 221.50 420Q190 388 190 337Q190 279 223.50 249Q257 219 297 219Q338 219 371 249Q404 279 404 338Q404 388 373 420Q342 452 297 452Z"  horiz-adv-x="578" vert-adv-y="1000"  />

      
      <glyph glyph-name="unia5" unicode="&#xa5;" d="M305 0L164 0L193 158L34 158L48 230L207 230L219 297L59 297L73 369L194 369L74 650L233 650L277 497Q279 488 289.50 449Q300 410 305 387L308 387Q313 395 336.50 435.50Q360 476 374 498L478 650L651 650L415 369L536 369L522 297L360 297L348 230L510 230L496 158L335 158L305 0Z"  horiz-adv-x="578" vert-adv-y="1000"  />

      
      <glyph glyph-name="unia6" unicode="&#xa6;" d="M89 174L191 174L191-176L89-176L89 174M89 674L191 674L191 324L89 324L89 674Z"  horiz-adv-x="247" vert-adv-y="1000"  />

      
      <glyph glyph-name="unia7" unicode="&#xa7;" d="M189 335L189 334Q189 287 270 256Q355 227 381 210Q427 237 427 273Q427 317 366 346Q353 351 324.50 362.50Q296 374 273.50 383Q251 392 239 399Q189 377 189 335M564 646L528 555Q462 589 380 589Q337 589 310.50 574Q284 559 284 533Q284 513 307.50 498.50Q331 484 390 464Q472 435 515.50 400.50Q559 366 559 305Q559 214 454 161Q487 132 487 85Q487 39 464.50 4.50Q442-30 405-49Q368-68 327.50-77Q287-86 244-86Q116-86 37-31L79 62Q150 12 240 12Q285 12 312 26.50Q339 41 339 67Q339 87 317.50 103.50Q296 120 241 140Q209 151 190 159Q171 167 143 182Q115 197 98.50 212Q82 227 70 250Q58 273 58 299Q58 347 90.50 386Q123 425 175 444Q146 476 146 515Q146 599 220.50 642.50Q295 686 392 686Q502 686 564 646Z"  horiz-adv-x="597" vert-adv-y="1000"  />

      
      <glyph glyph-name="unia8" unicode="&#xa8;" d="M159 554L158 554Q129 554 109 572Q89 590 89 620Q89 655 112 677Q135 699 170 699Q200 699 218.50 680Q237 661 237 632Q237 597 214.50 575.50Q192 554 159 554M376 554L375 554Q346 554 326 572Q306 590 306 620Q306 655 329 677Q352 699 387 699Q417 699 435.50 680Q454 661 454 632Q454 597 431.50 575.50Q409 554 376 554Z"  horiz-adv-x="400" vert-adv-y="1000"  />

      
      <glyph glyph-name="unia9" unicode="&#xa9;" d="M360 648L361 648Q488 648 576.50 558Q665 468 665 340Q665 211 576 120.50Q487 30 360 30Q231 30 141.50 120.50Q52 211 52 340Q52 468 141.50 558Q231 648 360 648M359 591L358 591Q258 591 188 517.50Q118 444 118 338Q118 233 188 160Q258 87 359 87Q459 86 529 159.50Q599 233 599 339Q599 444 529 517.50Q459 591 359 591M494 491L479 438Q444 461 383 461Q324 461 291.50 428.50Q259 396 259 337Q259 282 293 247Q327 212 383 212Q449 212 485 238L500 186Q452 153 375 153Q288 153 238.50 204Q189 255 189 334Q189 417 246.50 468.50Q304 520 382 520Q418 520 451 511Q484 502 494 491Z"  horiz-adv-x="677" vert-adv-y="1000"  />

      
      <glyph glyph-name="uniaa" unicode="&#xaa;" d="M397 269L293 269Q293 304 294 321L293 320Q248 262 172 262Q124 262 92 294.50Q60 327 60 386Q60 472 121.50 532Q183 592 302 592Q378 592 439 566L404 370Q397 329 397 269M301 409L317 507Q300 514 277 514Q233 514 204.50 482Q176 450 176 407Q176 379 189.50 362Q203 345 227 345Q252 345 272.50 363.50Q293 382 301 409Z"  horiz-adv-x="431" vert-adv-y="1000"  />

      
      <glyph glyph-name="uniab" unicode="&#xab;" d="M276 445L130 252L231 59L127 59L25 252L161 445L276 445M480 445L334 252L435 59L331 59L229 252L365 445L480 445Z"  horiz-adv-x="488" vert-adv-y="1000"  />

      
      <glyph glyph-name="uniac" unicode="&#xac;" d="M29 422L539 422L539 106L437 106L437 326L29 326L29 422Z"  horiz-adv-x="596" vert-adv-y="1000"  />

      
      <glyph glyph-name="uniae" unicode="&#xae;" d="M245 484L245 426L192 426L192 587Q228 593 266 593Q312 593 332 580Q350 569 350 545Q350 533 339.50 522.50Q329 512 312 508L312 506Q339 497 346 465Q351 441 357 426L300 426Q297 430 288 460Q284 484 261 484L245 484M246 557L246 518L261 518Q291 518 291 538Q291 558 263 558Q260 558 254 557.50Q248 557 246 557M267 685L268 685Q344 685 397 633.50Q450 582 450 509Q450 435 396.50 383.50Q343 332 267 332Q190 332 136 384Q82 436 82 509Q82 582 136.50 633.50Q191 685 267 685M266 641L265 641Q211 641 174 602.50Q137 564 137 508Q137 453 174.50 414.50Q212 376 267 376Q322 375 359 414Q396 453 396 509Q396 564 359 602.50Q322 641 266 641Z"  horiz-adv-x="423" vert-adv-y="1000"  />

      
      <glyph glyph-name="uniaf" unicode="&#xaf;" d="M150 666L410 666L394 584L134 584L150 666Z"  horiz-adv-x="400" vert-adv-y="1000"  />

      
      <glyph glyph-name="uni02C9" unicode="&#x02C9;" d="M150 666L410 666L394 584L134 584L150 666Z"  horiz-adv-x="400" vert-adv-y="1000"  />

      
      <glyph glyph-name="unib0" unicode="&#xb0;" d="M248 686L249 686Q317 686 361 642.50Q405 599 405 536Q405 470 355.50 423Q306 376 239 376Q170 376 126 419Q82 462 82 527Q81 591 130 638.50Q179 686 248 686M247 610L246 610Q214 610 192 584.50Q170 559 170 527Q170 494 190.50 473Q211 452 243 452Q275 452 296 476.50Q317 501 317 536Q317 567 299 588.50Q281 610 247 610Z"  horiz-adv-x="379" vert-adv-y="1000"  />

      
      <glyph glyph-name="unib1" unicode="&#xb1;" d="M236 582L338 582L338 409L542 409L542 313L338 313L338 136L236 136L236 313L32 313L32 409L236 409L236 582M32 96L542 96L542 0L32 0L32 96Z"  horiz-adv-x="596" vert-adv-y="1000"  />

      
      <glyph glyph-name="unib2" unicode="&#xb2;" d="M374 407L46 407L57 465L134 518Q216 575 251.50 607.50Q287 640 287 670Q287 709 235 709Q184 709 137 677L115 750Q185 802 278 802Q335 802 377 775.50Q419 749 419 691Q419 668 409.50 646.50Q400 625 390.50 611.50Q381 598 354.50 577Q328 556 317 548Q306 540 271 517L242 498L242 496L391 496L374 407Z"  horiz-adv-x="368" vert-adv-y="1000"  />

      
      <glyph glyph-name="unib3" unicode="&#xb3;" d="M134 686L122 760Q184 802 277 802Q333 802 376.50 777Q420 752 420 709Q420 641 315 616L315 614Q350 609 376 586.50Q402 564 402 529Q402 467 346 434.50Q290 402 209 402Q107 402 52 441L92 519Q139 485 198 485Q230 485 251.50 498Q273 511 273 531Q273 552 248 564.50Q223 577 184 577L165 577L178 647L196 647Q232 647 260.50 658Q289 669 289 689Q289 719 240 719Q179 719 134 686Z"  horiz-adv-x="365" vert-adv-y="1000"  />

      
      <glyph glyph-name="unib4" unicode="&#xb4;" d="M268 704L418 704L285 548L173 548L268 704Z"  horiz-adv-x="400" vert-adv-y="1000"  />

      
      <glyph glyph-name="unib5" unicode="&#xb5;" d="M254 489L206 227Q184 110 267 110Q295 110 321.50 135.50Q348 161 364 196Q374 217 376 232L426 489L576 489L515 162Q509 131 517 118.50Q525 106 548 104L521-3Q498-12 469-12Q384-12 375 88L371 88Q319-9 236-9Q181-9 157 24L149-21Q124-147 127-200L-8-200Q-16-159 9-28L105 489L254 489Z"  horiz-adv-x="597" vert-adv-y="1000"  />

      
      <glyph glyph-name="unib6" unicode="&#xb6;" d="M257-52L153-52L212 258Q209 259 203.50 260.50Q198 262 196 263Q139 283 104.50 326.50Q70 370 70 429Q70 548 163 611Q256 674 413 674Q527 674 574 663L437-52L333-52L452 572L376 572L257-52Z"  horiz-adv-x="572" vert-adv-y="1000"  />

      
      <glyph glyph-name="unib7" unicode="&#xb7;" d="M125 161L124 161Q87 161 64 184.50Q41 208 41 245Q41 289 69.50 319Q98 349 144 349Q180 349 204.50 324.50Q229 300 229 262Q229 218 200 189.50Q171 161 125 161Z"  horiz-adv-x="271" vert-adv-y="1000"  />

      
      <glyph glyph-name="uni2219" unicode="&#x2219;" d="M125 161L124 161Q87 161 64 184.50Q41 208 41 245Q41 289 69.50 319Q98 349 144 349Q180 349 204.50 324.50Q229 300 229 262Q229 218 200 189.50Q171 161 125 161Z"  horiz-adv-x="271" vert-adv-y="1000"  />

      
      <glyph glyph-name="unib8" unicode="&#xb8;" d="M122 4L206 4L173-44Q201-50 218.50-67.50Q236-85 236-109Q236-160 197-184Q158-208 106-208Q54-208 24-186L50-127Q75-144 105-144Q141-144 141-117Q141-87 66-82L122 4Z"  horiz-adv-x="400" vert-adv-y="1000"  />

      
      <glyph glyph-name="unib9" unicode="&#xb9;" d="M268 407L143 407L199 698L197 698L118 667L107 749L235 797L342 797L268 407Z"  horiz-adv-x="293" vert-adv-y="1000"  />

      
      <glyph glyph-name="uniba" unicode="&#xba;" d="M256 592L257 592Q329 592 375.50 553Q422 514 422 444Q422 362 364 312Q306 262 210 262Q143 262 97.50 302.50Q52 343 52 406Q52 492 109.50 542Q167 592 256 592M250 516L249 516Q213 516 190.50 480.50Q168 445 168 404Q168 374 184 356Q200 338 224 338Q260 338 283 373Q306 408 306 452Q306 516 250 516Z"  horiz-adv-x="406" vert-adv-y="1000"  />

      
      <glyph glyph-name="unibb" unicode="&#xbb;" d="M157 253L56 445L160 445L262 252L126 60L11 60L157 253M361 253L260 445L364 445L466 252L330 60L215 60L361 253Z"  horiz-adv-x="486" vert-adv-y="1000"  />

      
      <glyph glyph-name="unibc" unicode="&#xbc;" d="M743 0L627 0L644 91L436 91L448 155L671 395L818 395L774 167L830 167L815 91L760 91L743 0M659 167L673 242Q675 256 682.50 283Q690 310 692 318L689 318Q657 272 637 248L565 168L568 167L659 167M268 267L143 267L198 558L197 558L118 527L107 609L234 657L342 657L268 267M238-12L144-12L635 662L729 662L238-12Z"  horiz-adv-x="882" vert-adv-y="1000"  />

      
      <glyph glyph-name="unibd" unicode="&#xbd;" d="M257 267L132 267L188 558L186 558L107 527L96 609L224 657L331 657L257 267M209-12L121-12L617 662L706 662L209-12M793 0L465 0L476 58L553 111Q611 152 637.50 172.50Q664 193 685 217.50Q706 242 706 263Q706 302 654 302Q603 302 556 270L534 343Q604 395 697 395Q754 395 796 368.50Q838 342 838 284Q838 261 828.50 239.50Q819 218 809.50 204.50Q800 191 773.50 170Q747 149 736 141Q725 133 690 110L661 91L661 89L810 89L793 0Z"  horiz-adv-x="882" vert-adv-y="1000"  />

      
      <glyph glyph-name="unibe" unicode="&#xbe;" d="M272-12L178-12L670 662L763 662L272-12M113 546L101 620Q163 662 256 662Q312 662 355.50 637Q399 612 399 569Q399 501 295 476L294 474Q329 469 355 446.50Q381 424 381 389Q381 327 325 294.50Q269 262 188 262Q86 262 31 301L71 379Q118 345 177 345Q209 345 230.50 358Q252 371 252 391Q252 412 227 424.50Q202 437 163 437L144 437L157 507L175 507Q211 507 239.50 518Q268 529 268 549Q268 579 219 579Q158 579 113 546M754 0L638 0L655 91L446 91L459 155L682 395L829 395L785 167L841 167L826 91L771 91L754 0M670 167L684 242Q686 256 693.50 283Q701 310 703 318L700 318Q668 272 648 248L576 168L579 167L670 167Z"  horiz-adv-x="882" vert-adv-y="1000"  />

      
      <glyph glyph-name="unibf" unicode="&#xbf;" d="M184 261L332 261Q332 246 329 233Q315 150 236 70Q225 58 206 39.50Q187 21 177 10.50Q167 0 158.50-13.50Q150-27 150-38Q150-83 210-84Q281-84 331-54L355-155Q276-203 170-203Q98-203 47.50-166.50Q-3-130-3-63Q-3-27 14.50 7Q32 41 50 60.50Q68 80 109 120Q165 173 179 237L184 261M292 494L293 494Q330 494 353 470.50Q376 447 376 410Q376 366 347.50 336Q319 306 273 306Q236 306 212 330Q188 354 188 393Q188 437 217 465.50Q246 494 292 494Z"  horiz-adv-x="474" vert-adv-y="1000"  />

      
      <glyph glyph-name="unic0" unicode="&#xc0;" d="M442 181L225 181L139 0L-26 0L321 674L520 674L622 0L461 0L442 181M272 297L432 297L414 441Q408 492 399 563L397 563Q390 549 371.50 506Q353 463 342 441L272 297M242 837L410 837L488 713L358 713L242 837Z"  horiz-adv-x="676" vert-adv-y="1000"  />

      
      <glyph glyph-name="unic1" unicode="&#xc1;" d="M442 181L225 181L139 0L-26 0L321 674L520 674L622 0L461 0L442 181M272 297L432 297L414 441Q408 492 399 563L397 563Q390 549 371.50 506Q353 463 342 441L272 297M433 837L603 837L478 710L345 710L433 837Z"  horiz-adv-x="676" vert-adv-y="1000"  />

      
      <glyph glyph-name="unic2" unicode="&#xc2;" d="M442 181L225 181L139 0L-26 0L321 674L520 674L622 0L461 0L442 181M272 297L432 297L414 441Q408 492 399 563L397 563Q390 549 371.50 506Q353 463 342 441L272 297M386 837L504 837L588 710L483 710L438 772L436 772L375 710L259 710L386 837Z"  horiz-adv-x="676" vert-adv-y="1000"  />

      
      <glyph glyph-name="unic3" unicode="&#xc3;" d="M442 181L225 181L139 0L-26 0L321 674L520 674L622 0L461 0L442 181M272 297L432 297L414 441Q408 492 399 563L397 563Q390 549 371.50 506Q353 463 342 441L272 297M346 714L273 714Q283 778 310 811.50Q337 845 375 845Q407 845 441 824Q470 804 484 804Q507 804 519 848L591 848Q571 721 487 721Q453 721 421 740Q389 759 379 759Q358 759 346 714Z"  horiz-adv-x="676" vert-adv-y="1000"  />

      
      <glyph glyph-name="unic4" unicode="&#xc4;" d="M442 181L225 181L139 0L-26 0L321 674L520 674L622 0L461 0L442 181M272 297L432 297L414 441Q408 492 399 563L397 563Q390 549 371.50 506Q353 463 342 441L272 297M312 711L311 711Q284 711 264.50 728.50Q245 746 245 775Q245 808 267.50 829.50Q290 851 323 851Q352 851 370 832.50Q388 814 388 787Q388 753 365.50 732Q343 711 312 711M529 711L528 711Q501 711 481.50 728.50Q462 746 462 775Q462 808 484.50 829.50Q507 851 540 851Q569 851 587 832.50Q605 814 605 787Q605 753 582.50 732Q560 711 529 711Z"  horiz-adv-x="676" vert-adv-y="1000"  />

      
      <glyph glyph-name="unic5" unicode="&#xc5;" d="M442 181L225 181L139 0L-26 0L321 674L520 674L622 0L461 0L442 181M272 297L432 297L414 441Q408 492 399 563L397 563Q390 549 371.50 506Q353 463 342 441L272 297M448 897L449 897Q495 897 527 873Q559 849 559 803Q558 753 520.50 725.50Q483 698 428 698Q385 698 353.50 722Q322 746 320 788Q319 838 355.50 867.50Q392 897 448 897M443 845L442 845Q420 845 406.50 830.50Q393 816 393 793Q393 774 404.50 762Q416 750 435 750Q457 750 471.50 764Q486 778 486 799Q486 819 474 832Q462 845 443 845Z"  horiz-adv-x="676" vert-adv-y="1000"  />

      
      <glyph glyph-name="unic6" unicode="&#xc6;" d="M120 0L-44 0L400 674L929 674L905 547L617 547L608 409L881 409L856 282L605 282L597 127L879 127L854 0L445 0L455 186L238 186L120 0M314 313L461 313L471 475Q473 537 475 561L472 561Q450 524 423 483L314 313Z"  horiz-adv-x="938" vert-adv-y="1000"  />

      
      <glyph glyph-name="unic7" unicode="&#xc7;" d="M574 144L591 27Q512-11 409-12L386-44Q414-51 431.50-68.50Q449-86 449-112Q449-159 409.50-181.50Q370-204 319-204Q266-204 237-182L262-129Q289-144 316-144Q353-144 353-117Q353-87 279-82L329-9Q202 6 127.50 83Q53 160 53 292Q53 401 102 485Q151 569 237 619Q347 686 500 686Q613 686 671 653L630 533Q578 559 487 559Q382 559 315 508Q217 439 217 306Q217 217 271 165.50Q325 114 425 114Q511 114 574 144Z"  horiz-adv-x="650" vert-adv-y="1000"  />

      
      <glyph glyph-name="unic8" unicode="&#xc8;" d="M518 409L494 282L224 282L195 127L497 127L473 0L20 0L147 674L585 674L560 547L274 547L248 409L518 409M211 837L379 837L457 713L327 713L211 837Z"  horiz-adv-x="561" vert-adv-y="1000"  />

      
      <glyph glyph-name="unic9" unicode="&#xc9;" d="M518 409L494 282L224 282L195 127L497 127L473 0L20 0L147 674L585 674L560 547L274 547L248 409L518 409M379 837L549 837L424 710L291 710L379 837Z"  horiz-adv-x="561" vert-adv-y="1000"  />

      
      <glyph glyph-name="unica" unicode="&#xca;" d="M518 409L494 282L224 282L195 127L497 127L473 0L20 0L147 674L585 674L560 547L274 547L248 409L518 409M334 837L452 837L536 710L431 710L386 772L384 772L323 710L207 710L334 837Z"  horiz-adv-x="561" vert-adv-y="1000"  />

      
      <glyph glyph-name="unicb" unicode="&#xcb;" d="M518 409L494 282L224 282L195 127L497 127L473 0L20 0L147 674L585 674L560 547L274 547L248 409L518 409M272 711L271 711Q244 711 224.50 728.50Q205 746 205 775Q205 808 227.50 829.50Q250 851 283 851Q312 851 330 832.50Q348 814 348 787Q348 753 325.50 732Q303 711 272 711M489 711L488 711Q461 711 441.50 728.50Q422 746 422 775Q422 808 444.50 829.50Q467 851 500 851Q529 851 547 832.50Q565 814 565 787Q565 753 542.50 732Q520 711 489 711Z"  horiz-adv-x="561" vert-adv-y="1000"  />

      
      <glyph glyph-name="unicc" unicode="&#xcc;" d="M144 674L294 674L166 0L16 0L144 674M60 837L228 837L306 713L176 713L60 837Z"  horiz-adv-x="284" vert-adv-y="1000"  />

      
      <glyph glyph-name="unicd" unicode="&#xcd;" d="M144 674L294 674L166 0L16 0L144 674M236 837L406 837L281 710L148 710L236 837Z"  horiz-adv-x="284" vert-adv-y="1000"  />

      
      <glyph glyph-name="unice" unicode="&#xce;" d="M144 674L294 674L166 0L16 0L144 674M182 837L300 837L384 710L279 710L234 772L232 772L171 710L55 710L182 837Z"  horiz-adv-x="284" vert-adv-y="1000"  />

      
      <glyph glyph-name="unicf" unicode="&#xcf;" d="M144 674L294 674L166 0L16 0L144 674M121 711L120 711Q93 711 73.50 728.50Q54 746 54 775Q54 808 76.50 829.50Q99 851 132 851Q161 851 179 832.50Q197 814 197 787Q197 753 174.50 732Q152 711 121 711M338 711L337 711Q310 711 290.50 728.50Q271 746 271 775Q271 808 293.50 829.50Q316 851 349 851Q378 851 396 832.50Q414 814 414 787Q414 753 391.50 732Q369 711 338 711Z"  horiz-adv-x="284" vert-adv-y="1000"  />

      
      <glyph glyph-name="unid0" unicode="&#xd0;" d="M8 282L34 410L115 410L163 663Q254 679 365 679Q549 679 638 611Q743 539 743 385Q743 298 707 221.50Q671 145 605 94Q479-5 244-5Q114-5 38 8L91 282L8 282M416 410L391 282L243 282L213 119Q238 115 287 115Q424 115 500 189Q577 261 577 375Q577 559 372 559Q328 559 296 554L268 410L416 410Z"  horiz-adv-x="763" vert-adv-y="1000"  />

      
      <glyph glyph-name="unid1" unicode="&#xd1;" d="M164 0L21 0L148 674L336 674L437 420Q477 309 507 183L510 183Q511 265 538 405L588 674L732 674L605 0L441 0L334 275Q280 426 258 513L254 513Q246 440 212 255L164 0M377 714L304 714Q314 778 341 811.50Q368 845 406 845Q438 845 472 824Q501 804 515 804Q538 804 550 848L622 848Q602 721 518 721Q484 721 452 740Q420 759 410 759Q389 759 377 714Z"  horiz-adv-x="721" vert-adv-y="1000"  />

      
      <glyph glyph-name="unid2" unicode="&#xd2;" d="M362-12L361-12Q222-12 137 70Q52 152 52 289Q52 464 172 578Q283 686 450 686Q592 686 675.50 604.50Q759 523 759 382Q759 207 643 96Q533-12 362-12M382 112L383 112Q462 112 519 171Q597 247 597 373Q597 456 559 509Q521 562 433 562Q354 562 294 502Q214 422 214 300Q214 212 256.50 162Q299 112 382 112M293 837L461 837L539 713L409 713L293 837Z"  horiz-adv-x="779" vert-adv-y="1000"  />

      
      <glyph glyph-name="unid3" unicode="&#xd3;" d="M362-12L361-12Q222-12 137 70Q52 152 52 289Q52 464 172 578Q283 686 450 686Q592 686 675.50 604.50Q759 523 759 382Q759 207 643 96Q533-12 362-12M382 112L383 112Q462 112 519 171Q597 247 597 373Q597 456 559 509Q521 562 433 562Q354 562 294 502Q214 422 214 300Q214 212 256.50 162Q299 112 382 112M477 841L647 841L522 714L389 714L477 841Z"  horiz-adv-x="779" vert-adv-y="1000"  />

      
      <glyph glyph-name="unid4" unicode="&#xd4;" d="M362-12L361-12Q222-12 137 70Q52 152 52 289Q52 464 172 578Q283 686 450 686Q592 686 675.50 604.50Q759 523 759 382Q759 207 643 96Q533-12 362-12M382 112L383 112Q462 112 519 171Q597 247 597 373Q597 456 559 509Q521 562 433 562Q354 562 294 502Q214 422 214 300Q214 212 256.50 162Q299 112 382 112M423 837L541 837L625 710L520 710L475 772L473 772L412 710L296 710L423 837Z"  horiz-adv-x="779" vert-adv-y="1000"  />

      
      <glyph glyph-name="unid5" unicode="&#xd5;" d="M362-12L361-12Q222-12 137 70Q52 152 52 289Q52 464 172 578Q283 686 450 686Q592 686 675.50 604.50Q759 523 759 382Q759 207 643 96Q533-12 362-12M382 112L383 112Q462 112 519 171Q597 247 597 373Q597 456 559 509Q521 562 433 562Q354 562 294 502Q214 422 214 300Q214 212 256.50 162Q299 112 382 112M392 714L319 714Q329 778 356 811.50Q383 845 421 845Q453 845 487 824Q516 804 530 804Q553 804 565 848L637 848Q617 721 533 721Q499 721 467 740Q435 759 425 759Q404 759 392 714Z"  horiz-adv-x="779" vert-adv-y="1000"  />

      
      <glyph glyph-name="unid6" unicode="&#xd6;" d="M362-12L361-12Q222-12 137 70Q52 152 52 289Q52 464 172 578Q283 686 450 686Q592 686 675.50 604.50Q759 523 759 382Q759 207 643 96Q533-12 362-12M382 112L383 112Q462 112 519 171Q597 247 597 373Q597 456 559 509Q521 562 433 562Q354 562 294 502Q214 422 214 300Q214 212 256.50 162Q299 112 382 112M365 711L364 711Q337 711 317.50 728.50Q298 746 298 775Q298 808 320.50 829.50Q343 851 376 851Q405 851 423 832.50Q441 814 441 787Q441 753 418.50 732Q396 711 365 711M582 711L581 711Q554 711 534.50 728.50Q515 746 515 775Q515 808 537.50 829.50Q560 851 593 851Q622 851 640 832.50Q658 814 658 787Q658 753 635.50 732Q613 711 582 711Z"  horiz-adv-x="779" vert-adv-y="1000"  />

      
      <glyph glyph-name="unid7" unicode="&#xd7;" d="M31 457L99 526L287 329L476 526L544 458L353 263L544 69L476 0L287 197L98 0L31 69L221 263L31 457Z"  horiz-adv-x="596" vert-adv-y="1000"  />

      
      <glyph glyph-name="unid8" unicode="&#xd8;" d="M117-71L43 3L120 87Q52 169 52 297Q52 462 171 576Q284 686 443 686Q553 686 621 640L705 733L784 665L700 573Q759 498 759 373Q759 294 728 222Q697 150 642 96Q590 45 518 16.50Q446-12 370-12Q274-12 207 28L117-71M226 204L530 538Q495 562 438 562Q364 562 306.50 515.50Q249 469 224 398Q187 293 224 204L226 204M591 452L298 131Q329 112 381 112Q450 112 505 154Q560 196 586 265Q620 361 593 452L591 452Z"  horiz-adv-x="779" vert-adv-y="1000"  />

      
      <glyph glyph-name="unid9" unicode="&#xd9;" d="M146 674L296 674L226 303Q219 266 219 221Q220 174 249.50 143Q279 112 333 112Q400 112 442.50 158Q485 204 503 303L573 674L724 674L654 305Q622 140 542 64Q462-12 314-12Q199-13 134 46Q69 105 69 221Q69 260 78 312L146 674M274 837L442 837L520 713L390 713L274 837Z"  horiz-adv-x="711" vert-adv-y="1000"  />

      
      <glyph glyph-name="unida" unicode="&#xda;" d="M146 674L296 674L226 303Q219 266 219 221Q220 174 249.50 143Q279 112 333 112Q400 112 442.50 158Q485 204 503 303L573 674L724 674L654 305Q622 140 542 64Q462-12 314-12Q199-13 134 46Q69 105 69 221Q69 260 78 312L146 674M449 837L619 837L494 710L361 710L449 837Z"  horiz-adv-x="711" vert-adv-y="1000"  />

      
      <glyph glyph-name="unidb" unicode="&#xdb;" d="M146 674L296 674L226 303Q219 266 219 221Q220 174 249.50 143Q279 112 333 112Q400 112 442.50 158Q485 204 503 303L573 674L724 674L654 305Q622 140 542 64Q462-12 314-12Q199-13 134 46Q69 105 69 221Q69 260 78 312L146 674M405 837L523 837L607 710L502 710L457 772L455 772L394 710L278 710L405 837Z"  horiz-adv-x="711" vert-adv-y="1000"  />

      
      <glyph glyph-name="unidc" unicode="&#xdc;" d="M146 674L296 674L226 303Q219 266 219 221Q220 174 249.50 143Q279 112 333 112Q400 112 442.50 158Q485 204 503 303L573 674L724 674L654 305Q622 140 542 64Q462-12 314-12Q199-13 134 46Q69 105 69 221Q69 260 78 312L146 674M337 711L336 711Q309 711 289.50 728.50Q270 746 270 775Q270 808 292.50 829.50Q315 851 348 851Q377 851 395 832.50Q413 814 413 787Q413 753 390.50 732Q368 711 337 711M554 711L553 711Q526 711 506.50 728.50Q487 746 487 775Q487 808 509.50 829.50Q532 851 565 851Q594 851 612 832.50Q630 814 630 787Q630 753 607.50 732Q585 711 554 711Z"  horiz-adv-x="711" vert-adv-y="1000"  />

      
      <glyph glyph-name="unidd" unicode="&#xdd;" d="M323 0L173 0L226 280L72 674L233 674L285 499Q310 420 319 385L321 385Q348 429 395 503L504 674L689 674L377 285L323 0M389 837L559 837L434 710L301 710L389 837Z"  horiz-adv-x="629" vert-adv-y="1000"  />

      
      <glyph glyph-name="unide" unicode="&#xde;" d="M20 0L148 674L295 674L272 550Q299 555 349 555Q458 555 518 508Q583 457 583 373Q583 308 557.50 259Q532 210 487.50 181Q443 152 388.50 138Q334 124 271 124Q234 124 192 129L167 0L20 0M249 430L215 251Q247 245 283 245Q344 245 387.50 273.50Q431 302 431 352Q431 436 313 436Q275 436 249 430Z"  horiz-adv-x="595" vert-adv-y="1000"  />

      
      <glyph glyph-name="unidf" unicode="&#xdf;" d="M167 0L17 0L104 457Q128 585 201 656.50Q274 728 399 728Q481 728 539.50 684.50Q598 641 598 561Q598 499 556 460Q522 443 503 425Q484 407 484 379Q484 349 513 305Q560 233 560 178Q560 83 498.50 35.50Q437-12 339-12Q262-12 221 15L257 124Q290 105 335 105Q368 105 387 120Q406 135 406 161Q406 188 376 232Q328 304 328 351Q328 397 357.50 434.50Q387 472 433 496Q449 514 449 541Q449 570 430 588.50Q411 607 379 607Q282 607 253 456L167 0Z"  horiz-adv-x="614" vert-adv-y="1000"  />

      
      <glyph glyph-name="unie0" unicode="&#xe0;" d="M503 0L363 0Q364 27 370 102L368 102Q306-12 190-12Q119-12 73.50 37.50Q28 87 28 166Q28 304 125.50 402.50Q223 501 401 501Q491 501 573 475L522 225Q500 104 503 0M384 285L404 382Q380 386 360 386Q289 386 238 326.50Q187 267 187 192Q187 154 204.50 131Q222 108 254 108Q294 108 330.50 151.50Q367 195 384 285M208 704L356 704L440 548L330 548L208 704Z"  horiz-adv-x="596" vert-adv-y="1000"  />

      
      <glyph glyph-name="unie1" unicode="&#xe1;" d="M503 0L363 0Q364 27 370 102L368 102Q306-12 190-12Q119-12 73.50 37.50Q28 87 28 166Q28 304 125.50 402.50Q223 501 401 501Q491 501 573 475L522 225Q500 104 503 0M384 285L404 382Q380 386 360 386Q289 386 238 326.50Q187 267 187 192Q187 154 204.50 131Q222 108 254 108Q294 108 330.50 151.50Q367 195 384 285M413 704L563 704L430 548L318 548L413 704Z"  horiz-adv-x="596" vert-adv-y="1000"  />

      
      <glyph glyph-name="unie2" unicode="&#xe2;" d="M503 0L363 0Q364 27 370 102L368 102Q306-12 190-12Q119-12 73.50 37.50Q28 87 28 166Q28 304 125.50 402.50Q223 501 401 501Q491 501 573 475L522 225Q500 104 503 0M384 285L404 382Q380 386 360 386Q289 386 238 326.50Q187 267 187 192Q187 154 204.50 131Q222 108 254 108Q294 108 330.50 151.50Q367 195 384 285M346 704L452 704L532 548L435 548L390 630L388 630L327 548L220 548L346 704Z"  horiz-adv-x="596" vert-adv-y="1000"  />

      
      <glyph glyph-name="unie3" unicode="&#xe3;" d="M503 0L363 0Q364 27 370 102L368 102Q306-12 190-12Q119-12 73.50 37.50Q28 87 28 166Q28 304 125.50 402.50Q223 501 401 501Q491 501 573 475L522 225Q500 104 503 0M384 285L404 382Q380 386 360 386Q289 386 238 326.50Q187 267 187 192Q187 154 204.50 131Q222 108 254 108Q294 108 330.50 151.50Q367 195 384 285M291 557L218 557Q227 621 254 654.50Q281 688 319 688Q348 688 384 667Q411 647 426 647Q439 647 445.50 656.50Q452 666 460 692L532 692Q514 564 429 564Q391 564 360 586Q338 603 321 603Q302 603 291 557Z"  horiz-adv-x="596" vert-adv-y="1000"  />

      
      <glyph glyph-name="unie4" unicode="&#xe4;" d="M503 0L363 0Q364 27 370 102L368 102Q306-12 190-12Q119-12 73.50 37.50Q28 87 28 166Q28 304 125.50 402.50Q223 501 401 501Q491 501 573 475L522 225Q500 104 503 0M384 285L404 382Q380 386 360 386Q289 386 238 326.50Q187 267 187 192Q187 154 204.50 131Q222 108 254 108Q294 108 330.50 151.50Q367 195 384 285M257 554L256 554Q227 554 207 572Q187 590 187 620Q187 655 210 677Q233 699 268 699Q298 699 316.50 680Q335 661 335 632Q335 597 312.50 575.50Q290 554 257 554M474 554L473 554Q444 554 424 572Q404 590 404 620Q404 655 427 677Q450 699 485 699Q515 699 533.50 680Q552 661 552 632Q552 597 529.50 575.50Q507 554 474 554Z"  horiz-adv-x="596" vert-adv-y="1000"  />

      
      <glyph glyph-name="unie5" unicode="&#xe5;" d="M503 0L363 0Q364 27 370 102L368 102Q306-12 190-12Q119-12 73.50 37.50Q28 87 28 166Q28 304 125.50 402.50Q223 501 401 501Q491 501 573 475L522 225Q500 104 503 0M384 285L404 382Q380 386 360 386Q289 386 238 326.50Q187 267 187 192Q187 154 204.50 131Q222 108 254 108Q294 108 330.50 151.50Q367 195 384 285M382 739L383 739Q429 739 461.50 714.50Q494 690 494 644Q493 594 455 566Q417 538 362 538Q318 538 286 562Q254 586 253 628Q252 678 289 708.50Q326 739 382 739M376 687L375 687Q354 687 340 672Q326 657 326 634Q326 615 338 602.50Q350 590 369 590Q392 590 406.50 604.50Q421 619 421 641Q421 662 409 674.50Q397 687 376 687Z"  horiz-adv-x="596" vert-adv-y="1000"  />

      
      <glyph glyph-name="unie6" unicode="&#xe6;" d="M726 139L730 34Q651-12 538-12Q480-12 434 11.50Q388 35 366 77L362 77Q287-12 166-12Q95-12 50 26.50Q5 65 5 126Q5 179 35 220Q65 261 115.50 284Q166 307 223.50 318Q281 329 343 329L345 336Q348 355 328.50 375.50Q309 396 261 396Q183 396 112 350L87 442Q174 501 278 501Q395 501 429 421L432 421Q462 458 510.50 479.50Q559 501 616 501Q704 501 750.50 459Q797 417 797 363Q797 319 779 287.50Q761 256 729 239Q697 222 653.50 211.50Q610 201 559.50 200.50Q509 200 453 201Q451 169 465 149Q495 106 572 106Q650 106 726 139M322 193L329 231Q304 231 278.50 228.50Q253 226 224.50 218Q196 210 178 193Q160 176 160 152Q160 103 219 103Q255 103 284.50 127.50Q314 152 322 193M649 349L649 350Q649 368 633 381Q617 394 588 394Q540 394 508 364.50Q476 335 470 305Q553 300 601 308Q649 316 649 349Z"  horiz-adv-x="822" vert-adv-y="1000"  />

      
      <glyph glyph-name="unie7" unicode="&#xe7;" d="M405 131L409 19Q354-7 301-10L278-43Q306-50 323.50-68.50Q341-87 341-114Q341-161 302.50-184.50Q264-208 217-208Q158-208 129-186L154-127Q182-144 211-144Q246-144 246-117Q246-87 171-82L221-9Q130-1 80 54.50Q30 110 30 197Q30 327 125.50 414Q221 501 368 501Q432 501 479 482L442 369Q411 383 366 383Q286 383 237.50 332.50Q189 282 189 212Q189 161 219.50 134.50Q250 108 296 108Q351 108 405 131Z"  horiz-adv-x="475" vert-adv-y="1000"  />

      
      <glyph glyph-name="unie8" unicode="&#xe8;" d="M443 137L454 30Q374-12 257-12Q148-12 89.50 44Q31 100 31 203Q31 321 115.50 411Q200 501 332 501Q413 501 464.50 461.50Q516 422 516 350Q516 262 429 224Q342 186 174 191Q176 163 191 142Q223 104 294 104Q375 104 443 137M373 354L373 355Q373 372 357 383Q341 394 314 394Q263 394 229.50 363.50Q196 333 189 300Q287 299 330 311Q373 323 373 354M172 704L320 704L404 548L294 548L172 704Z"  horiz-adv-x="540" vert-adv-y="1000"  />

      
      <glyph glyph-name="unie9" unicode="&#xe9;" d="M443 137L454 30Q374-12 257-12Q148-12 89.50 44Q31 100 31 203Q31 321 115.50 411Q200 501 332 501Q413 501 464.50 461.50Q516 422 516 350Q516 262 429 224Q342 186 174 191Q176 163 191 142Q223 104 294 104Q375 104 443 137M373 354L373 355Q373 372 357 383Q341 394 314 394Q263 394 229.50 363.50Q196 333 189 300Q287 299 330 311Q373 323 373 354M367 704L517 704L384 548L272 548L367 704Z"  horiz-adv-x="540" vert-adv-y="1000"  />

      
      <glyph glyph-name="uniea" unicode="&#xea;" d="M443 137L454 30Q374-12 257-12Q148-12 89.50 44Q31 100 31 203Q31 321 115.50 411Q200 501 332 501Q413 501 464.50 461.50Q516 422 516 350Q516 262 429 224Q342 186 174 191Q176 163 191 142Q223 104 294 104Q375 104 443 137M373 354L373 355Q373 372 357 383Q341 394 314 394Q263 394 229.50 363.50Q196 333 189 300Q287 299 330 311Q373 323 373 354M302 704L408 704L488 548L391 548L346 630L344 630L283 548L176 548L302 704Z"  horiz-adv-x="540" vert-adv-y="1000"  />

      
      <glyph glyph-name="unieb" unicode="&#xeb;" d="M443 137L454 30Q374-12 257-12Q148-12 89.50 44Q31 100 31 203Q31 321 115.50 411Q200 501 332 501Q413 501 464.50 461.50Q516 422 516 350Q516 262 429 224Q342 186 174 191Q176 163 191 142Q223 104 294 104Q375 104 443 137M373 354L373 355Q373 372 357 383Q341 394 314 394Q263 394 229.50 363.50Q196 333 189 300Q287 299 330 311Q373 323 373 354M233 554L232 554Q203 554 183 572Q163 590 163 620Q163 655 186 677Q209 699 244 699Q274 699 292.50 680Q311 661 311 632Q311 597 288.50 575.50Q266 554 233 554M450 554L449 554Q420 554 400 572Q380 590 380 620Q380 655 403 677Q426 699 461 699Q491 699 509.50 680Q528 661 528 632Q528 597 505.50 575.50Q483 554 450 554Z"  horiz-adv-x="540" vert-adv-y="1000"  />

      
      <glyph glyph-name="uniec" unicode="&#xec;" d="M167 0L17 0L110 489L260 489L167 0M26 704L174 704L258 548L148 548L26 704Z"  horiz-adv-x="281" vert-adv-y="1000"  />

      
      <glyph glyph-name="unied" unicode="&#xed;" d="M167 0L17 0L110 489L260 489L167 0M225 704L375 704L242 548L130 548L225 704Z"  horiz-adv-x="281" vert-adv-y="1000"  />

      
      <glyph glyph-name="uniee" unicode="&#xee;" d="M167 0L17 0L110 489L260 489L167 0M165 704L271 704L351 548L254 548L209 630L207 630L146 548L39 548L165 704Z"  horiz-adv-x="281" vert-adv-y="1000"  />

      
      <glyph glyph-name="unief" unicode="&#xef;" d="M167 0L17 0L110 489L260 489L167 0M97 554L96 554Q67 554 47 572Q27 590 27 620Q27 655 50 677Q73 699 108 699Q138 699 156.50 680Q175 661 175 632Q175 597 152.50 575.50Q130 554 97 554M314 554L313 554Q284 554 264 572Q244 590 244 620Q244 655 267 677Q290 699 325 699Q355 699 373.50 680Q392 661 392 632Q392 597 369.50 575.50Q347 554 314 554Z"  horiz-adv-x="281" vert-adv-y="1000"  />

      
      <glyph glyph-name="unif0" unicode="&#xf0;" d="M275 103L276 103Q336 103 371.50 153.50Q407 204 407 271Q407 309 393 328Q370 360 317 360Q261 360 223.50 312Q186 264 186 204Q186 161 209.50 132Q233 103 275 103M154 472L135 535L262 586Q227 613 169 633L233 719Q316 692 396 638L555 700L576 638L456 591Q507 544 537.50 472Q568 400 568 316Q568 169 482.50 78.50Q397-12 259-12Q157-12 92.50 46Q28 104 28 202Q28 318 110 394Q192 470 307 470Q362 470 394 441L397 443Q372 502 326 541L154 472Z"  horiz-adv-x="604" vert-adv-y="1000"  />

      
      <glyph glyph-name="unif1" unicode="&#xf1;" d="M167 0L17 0L79 330Q87 370 106 489L240 489L229 402L231 402Q303 501 415 501Q479 501 515 464Q551 427 551 358Q551 320 543 280L490 0L340 0L389 259Q394 287 394 315Q394 380 339 380Q297 380 258.50 332Q220 284 205 203L167 0M285 557L212 557Q221 621 248 654.50Q275 688 313 688Q342 688 378 667Q405 647 420 647Q433 647 439.50 656.50Q446 666 454 692L526 692Q508 564 423 564Q385 564 354 586Q332 603 315 603Q296 603 285 557Z"  horiz-adv-x="603" vert-adv-y="1000"  />

      
      <glyph glyph-name="unif2" unicode="&#xf2;" d="M261-12L260-12Q162-12 97.50 44.50Q33 101 33 201Q33 330 120 415.50Q207 501 343 501Q444 501 508.50 442Q573 383 573 289Q573 152 484 70Q395-12 261-12M281 103L282 103Q342 103 378.50 159Q415 215 415 283Q415 325 393 355.50Q371 386 325 386Q262 386 226.50 327Q191 268 191 203Q191 156 215.50 129.50Q240 103 281 103M185 704L333 704L417 548L307 548L185 704Z"  horiz-adv-x="607" vert-adv-y="1000"  />

      
      <glyph glyph-name="unif3" unicode="&#xf3;" d="M261-12L260-12Q162-12 97.50 44.50Q33 101 33 201Q33 330 120 415.50Q207 501 343 501Q444 501 508.50 442Q573 383 573 289Q573 152 484 70Q395-12 261-12M281 103L282 103Q342 103 378.50 159Q415 215 415 283Q415 325 393 355.50Q371 386 325 386Q262 386 226.50 327Q191 268 191 203Q191 156 215.50 129.50Q240 103 281 103M381 704L531 704L398 548L286 548L381 704Z"  horiz-adv-x="607" vert-adv-y="1000"  />

      
      <glyph glyph-name="unif4" unicode="&#xf4;" d="M261-12L260-12Q162-12 97.50 44.50Q33 101 33 201Q33 330 120 415.50Q207 501 343 501Q444 501 508.50 442Q573 383 573 289Q573 152 484 70Q395-12 261-12M281 103L282 103Q342 103 378.50 159Q415 215 415 283Q415 325 393 355.50Q371 386 325 386Q262 386 226.50 327Q191 268 191 203Q191 156 215.50 129.50Q240 103 281 103M323 704L429 704L509 548L412 548L367 630L365 630L304 548L197 548L323 704Z"  horiz-adv-x="607" vert-adv-y="1000"  />

      
      <glyph glyph-name="unif5" unicode="&#xf5;" d="M261-12L260-12Q162-12 97.50 44.50Q33 101 33 201Q33 330 120 415.50Q207 501 343 501Q444 501 508.50 442Q573 383 573 289Q573 152 484 70Q395-12 261-12M281 103L282 103Q342 103 378.50 159Q415 215 415 283Q415 325 393 355.50Q371 386 325 386Q262 386 226.50 327Q191 268 191 203Q191 156 215.50 129.50Q240 103 281 103M273 557L200 557Q209 621 236 654.50Q263 688 301 688Q330 688 366 667Q393 647 408 647Q421 647 427.50 656.50Q434 666 442 692L514 692Q496 564 411 564Q373 564 342 586Q320 603 303 603Q284 603 273 557Z"  horiz-adv-x="607" vert-adv-y="1000"  />

      
      <glyph glyph-name="unif6" unicode="&#xf6;" d="M261-12L260-12Q162-12 97.50 44.50Q33 101 33 201Q33 330 120 415.50Q207 501 343 501Q444 501 508.50 442Q573 383 573 289Q573 152 484 70Q395-12 261-12M281 103L282 103Q342 103 378.50 159Q415 215 415 283Q415 325 393 355.50Q371 386 325 386Q262 386 226.50 327Q191 268 191 203Q191 156 215.50 129.50Q240 103 281 103M251 554L250 554Q221 554 201 572Q181 590 181 620Q181 655 204 677Q227 699 262 699Q292 699 310.50 680Q329 661 329 632Q329 597 306.50 575.50Q284 554 251 554M468 554L467 554Q438 554 418 572Q398 590 398 620Q398 655 421 677Q444 699 479 699Q509 699 527.50 680Q546 661 546 632Q546 597 523.50 575.50Q501 554 468 554Z"  horiz-adv-x="607" vert-adv-y="1000"  />

      
      <glyph glyph-name="unif7" unicode="&#xf7;" d="M297 366L296 366Q262 366 241 387.50Q220 409 220 444Q220 480 241 501.50Q262 523 298 523Q333 523 353.50 502Q374 481 375 444Q375 409 353.50 387.50Q332 366 297 366M552 219L43 219L43 315L552 315L552 219M297 11L296 11Q262 11 241 32.50Q220 54 220 89Q220 126 241 147Q262 168 298 168Q333 168 353.50 147Q374 126 375 89Q375 54 353.50 32.50Q332 11 297 11Z"  horiz-adv-x="596" vert-adv-y="1000"  />

      
      <glyph glyph-name="unif8" unicode="&#xf8;" d="M66-61L25-18L90 54Q33 109 33 205Q33 332 120.50 416.50Q208 501 343 501Q414 501 464 472L531 547L576 505L513 436Q573 381 573 289Q573 150 485 69Q397-12 270-12Q190-12 138 20L66-61M196 172L378 376Q358 392 323 392Q262 392 224.50 331.50Q187 271 187 215Q187 188 194 173L196 172M409 319L224 114Q247 97 283 97Q342 97 380.50 154.50Q419 212 419 275Q419 298 412 319L409 319Z"  horiz-adv-x="607" vert-adv-y="1000"  />

      
      <glyph glyph-name="unif9" unicode="&#xf9;" d="M429 489L579 489L517 159Q502 87 490 0L356 0L367 84L365 84Q286-12 183-12Q118-12 82 23.50Q46 59 46 132Q46 170 55 219L107 489L257 489L209 232Q202 197 202 172Q202 110 258 110Q300 110 337 156.50Q374 203 389 281L429 489M183 704L331 704L415 548L305 548L183 704Z"  horiz-adv-x="600" vert-adv-y="1000"  />

      
      <glyph glyph-name="unifa" unicode="&#xfa;" d="M429 489L579 489L517 159Q502 87 490 0L356 0L367 84L365 84Q286-12 183-12Q118-12 82 23.50Q46 59 46 132Q46 170 55 219L107 489L257 489L209 232Q202 197 202 172Q202 110 258 110Q300 110 337 156.50Q374 203 389 281L429 489M377 704L527 704L394 548L282 548L377 704Z"  horiz-adv-x="600" vert-adv-y="1000"  />

      
      <glyph glyph-name="unifb" unicode="&#xfb;" d="M429 489L579 489L517 159Q502 87 490 0L356 0L367 84L365 84Q286-12 183-12Q118-12 82 23.50Q46 59 46 132Q46 170 55 219L107 489L257 489L209 232Q202 197 202 172Q202 110 258 110Q300 110 337 156.50Q374 203 389 281L429 489M327 704L433 704L513 548L416 548L371 630L369 630L308 548L201 548L327 704Z"  horiz-adv-x="600" vert-adv-y="1000"  />

      
      <glyph glyph-name="unifc" unicode="&#xfc;" d="M429 489L579 489L517 159Q502 87 490 0L356 0L367 84L365 84Q286-12 183-12Q118-12 82 23.50Q46 59 46 132Q46 170 55 219L107 489L257 489L209 232Q202 197 202 172Q202 110 258 110Q300 110 337 156.50Q374 203 389 281L429 489M251 554L250 554Q221 554 201 572Q181 590 181 620Q181 655 204 677Q227 699 262 699Q292 699 310.50 680Q329 661 329 632Q329 597 306.50 575.50Q284 554 251 554M468 554L467 554Q438 554 418 572Q398 590 398 620Q398 655 421 677Q444 699 479 699Q509 699 527.50 680Q546 661 546 632Q546 597 523.50 575.50Q501 554 468 554Z"  horiz-adv-x="600" vert-adv-y="1000"  />

      
      <glyph glyph-name="unifd" unicode="&#xfd;" d="M42 489L201 489L239 283Q258 185 261 166L263 166Q266 174 273.50 193Q281 212 289.50 233Q298 254 308 277L402 489L562 489L383 149Q280-49 186-137Q142-179 91-202Q40-225 6-229L-21-99Q34-85 69-61Q120-27 152 27Q158 36 154 51L42 489M344 704L494 704L361 548L249 548L344 704Z"  horiz-adv-x="536" vert-adv-y="1000"  />

      
      <glyph glyph-name="unife" unicode="&#xfe;" d="M-22-200L143 678L293 678L246 430L248 430Q269 460 308.50 480.50Q348 501 397 501Q480 501 527 445.50Q574 390 574 304Q574 172 489 80Q404-12 273-12Q208-12 171 12L169 12L128-200L-22-200M206 206L191 129Q224 103 267 103Q327 103 370.50 159.50Q414 216 414 295Q414 330 396 355.50Q378 381 342 381Q295 381 258 334.50Q221 288 206 206Z"  horiz-adv-x="607" vert-adv-y="1000"  />

      
      <glyph glyph-name="uniff" unicode="&#xff;" d="M42 489L201 489L239 283Q258 185 261 166L263 166Q266 174 273.50 193Q281 212 289.50 233Q298 254 308 277L402 489L562 489L383 149Q280-49 186-137Q142-179 91-202Q40-225 6-229L-21-99Q34-85 69-61Q120-27 152 27Q158 36 154 51L42 489M209 554L208 554Q179 554 159 572Q139 590 139 620Q139 655 162 677Q185 699 220 699Q250 699 268.50 680Q287 661 287 632Q287 597 264.50 575.50Q242 554 209 554M426 554L425 554Q396 554 376 572Q356 590 356 620Q356 655 379 677Q402 699 437 699Q467 699 485.50 680Q504 661 504 632Q504 597 481.50 575.50Q459 554 426 554Z"  horiz-adv-x="536" vert-adv-y="1000"  />

      
      <glyph glyph-name="uni0100" unicode="&#x0100;" d="M442 181L225 181L139 0L-26 0L321 674L520 674L622 0L461 0L442 181M272 297L432 297L414 441Q408 492 399 563L397 563Q390 549 371.50 506Q353 463 342 441L272 297M313 815L578 815L562 733L297 733L313 815Z"  horiz-adv-x="676" vert-adv-y="1000"  />

      
      <glyph glyph-name="uni0101" unicode="&#x0101;" d="M503 0L363 0Q364 27 370 102L368 102Q306-12 190-12Q119-12 73.50 37.50Q28 87 28 166Q28 304 125.50 402.50Q223 501 401 501Q491 501 573 475L522 225Q500 104 503 0M384 285L404 382Q380 386 360 386Q289 386 238 326.50Q187 267 187 192Q187 154 204.50 131Q222 108 254 108Q294 108 330.50 151.50Q367 195 384 285M259 666L519 666L503 584L243 584L259 666Z"  horiz-adv-x="596" vert-adv-y="1000"  />

      
      <glyph glyph-name="uni0102" unicode="&#x0102;" d="M442 181L225 181L139 0L-26 0L321 674L520 674L622 0L461 0L442 181M272 297L432 297L414 441Q408 492 399 563L397 563Q390 549 371.50 506Q353 463 342 441L272 297M298 840L382 840Q382 790 437 790Q492 790 504 840L589 840Q579 783 539.50 749Q500 715 428 715Q355 715 323.50 749.50Q292 784 298 840Z"  horiz-adv-x="676" vert-adv-y="1000"  />

      
      <glyph glyph-name="uni0103" unicode="&#x0103;" d="M503 0L363 0Q364 27 370 102L368 102Q306-12 190-12Q119-12 73.50 37.50Q28 87 28 166Q28 304 125.50 402.50Q223 501 401 501Q491 501 573 475L522 225Q500 104 503 0M384 285L404 382Q380 386 360 386Q289 386 238 326.50Q187 267 187 192Q187 154 204.50 131Q222 108 254 108Q294 108 330.50 151.50Q367 195 384 285M248 696L325 696Q327 638 372 638Q425 638 439 696L517 696Q507 634 468.50 598Q430 562 365 562Q296 562 268.50 599Q241 636 248 696Z"  horiz-adv-x="596" vert-adv-y="1000"  />

      
      <glyph glyph-name="uni0104" unicode="&#x0104;" d="M520 674L622 0L541 0Q506-47 506-83Q506-125 551-125Q573-125 598-116L605-189Q562-223 496-223Q449-223 422.50-199.50Q396-176 396-133Q396-75 461 1L442 181L225 181L139 0L-26 0L322 674L520 674M272 297L433 297L414 441Q412 454 407 498Q402 542 400 563L398 563Q390 546 371.50 504Q353 462 343 441L272 297Z"  horiz-adv-x="676" vert-adv-y="1000"  />

      
      <glyph glyph-name="uni0105" unicode="&#x0105;" d="M574 475L526 225Q504 104 507 0L463 0Q412-49 412-91Q412-106 422.50-115.50Q433-125 452-125Q479-125 504-116L511-189Q468-223 402-223Q355-223 328.50-199.50Q302-176 302-133Q302-75 367 1Q373 86 374 102L372 102Q308-12 192-12Q121-12 75.50 37.50Q30 87 30 166Q30 304 127.50 402.50Q225 501 403 501Q494 501 574 475M387 285L404 382Q382 386 362 386Q291 386 240 326.50Q189 267 189 192Q189 154 206.50 131Q224 108 256 108Q296 108 333.50 151.50Q371 195 387 285Z"  horiz-adv-x="596" vert-adv-y="1000"  />

      
      <glyph glyph-name="uni0106" unicode="&#x0106;" d="M574 141L591 23Q515-12 385-12Q240-12 146.50 65.50Q53 143 53 293Q53 401 102 485Q151 569 237 619Q347 686 500 686Q613 686 671 653L630 534Q578 559 487 559Q382 559 315 508Q217 439 217 306Q217 218 271.50 166.50Q326 115 426 115Q513 115 574 141M470 842L640 842L515 715L382 715L470 842Z"  horiz-adv-x="650" vert-adv-y="1000"  />

      
      <glyph glyph-name="uni0107" unicode="&#x0107;" d="M407 131L411 18Q351-12 255-12Q157-12 94.50 42.50Q32 97 32 197Q32 327 127.50 414Q223 501 370 501Q433 501 482 482L445 369Q412 383 368 383Q288 383 239.50 332.50Q191 282 191 213Q191 162 221.50 135Q252 108 298 108Q353 108 407 131M353 704L503 704L370 548L258 548L353 704Z"  horiz-adv-x="477" vert-adv-y="1000"  />

      
      <glyph glyph-name="uni0108" unicode="&#x0108;" d="M574 141L591 23Q515-12 385-12Q240-12 146.50 65.50Q53 143 53 293Q53 401 102 485Q151 569 237 619Q347 686 500 686Q613 686 671 653L630 534Q578 559 487 559Q382 559 315 508Q217 439 217 306Q217 218 271.50 166.50Q326 115 426 115Q513 115 574 141M417 841L535 841L619 714L514 714L469 776L467 776L406 714L290 714L417 841Z"  horiz-adv-x="650" vert-adv-y="1000"  />

      
      <glyph glyph-name="uni0109" unicode="&#x0109;" d="M407 131L411 18Q351-12 255-12Q157-12 94.50 42.50Q32 97 32 197Q32 327 127.50 414Q223 501 370 501Q433 501 482 482L445 369Q412 383 368 383Q288 383 239.50 332.50Q191 282 191 213Q191 162 221.50 135Q252 108 298 108Q353 108 407 131M286 704L392 704L472 548L375 548L330 630L328 630L267 548L160 548L286 704Z"  horiz-adv-x="477" vert-adv-y="1000"  />

      
      <glyph glyph-name="uni010A" unicode="&#x010A;" d="M574 141L591 23Q515-12 385-12Q240-12 146.50 65.50Q53 143 53 293Q53 401 102 485Q151 569 237 619Q347 686 500 686Q613 686 671 653L630 534Q578 559 487 559Q382 559 315 508Q217 439 217 306Q217 218 271.50 166.50Q326 115 426 115Q513 115 574 141M474 716L473 716Q446 716 426.50 733.50Q407 751 407 780Q407 813 429.50 834.50Q452 856 485 856Q514 856 532 837.50Q550 819 550 792Q550 758 527.50 737Q505 716 474 716Z"  horiz-adv-x="650" vert-adv-y="1000"  />

      
      <glyph glyph-name="uni010B" unicode="&#x010B;" d="M407 131L411 18Q351-12 255-12Q157-12 94.50 42.50Q32 97 32 197Q32 327 127.50 414Q223 501 370 501Q433 501 482 482L445 369Q412 383 368 383Q288 383 239.50 332.50Q191 282 191 213Q191 162 221.50 135Q252 108 298 108Q353 108 407 131M335 553L334 553Q306 553 285.50 571.50Q265 590 265 620Q265 655 288.50 677.50Q312 700 346 700Q377 700 396 681Q415 662 415 632Q415 596 391.50 574.50Q368 553 335 553Z"  horiz-adv-x="477" vert-adv-y="1000"  />

      
      <glyph glyph-name="uni010C" unicode="&#x010C;" d="M574 141L591 23Q515-12 385-12Q240-12 146.50 65.50Q53 143 53 293Q53 401 102 485Q151 569 237 619Q347 686 500 686Q613 686 671 653L630 534Q578 559 487 559Q382 559 315 508Q217 439 217 306Q217 218 271.50 166.50Q326 115 426 115Q513 115 574 141M512 715L394 715L310 841L416 841L459 776L461 776L523 841L639 841L512 715Z"  horiz-adv-x="650" vert-adv-y="1000"  />

      
      <glyph glyph-name="uni010D" unicode="&#x010D;" d="M407 131L411 18Q351-12 255-12Q157-12 94.50 42.50Q32 97 32 197Q32 327 127.50 414Q223 501 370 501Q433 501 482 482L445 369Q412 383 368 383Q288 383 239.50 332.50Q191 282 191 213Q191 162 221.50 135Q252 108 298 108Q353 108 407 131M377 548L271 548L191 704L288 704L333 622L335 622L397 704L503 704L377 548Z"  horiz-adv-x="477" vert-adv-y="1000"  />

      
      <glyph glyph-name="uni010E" unicode="&#x010E;" d="M22 8L147 663Q235 679 352 679Q532 679 625 605Q727 530 727 382Q727 201 591 93Q464-5 228-5Q98-5 22 8M279 554L197 119Q222 115 270 115Q410 115 486 188Q561 260 561 376Q561 559 352 559Q309 559 279 554M467 710L349 710L265 836L371 836L414 771L416 771L478 836L594 836L467 710Z"  horiz-adv-x="748" vert-adv-y="1000"  />

      
      <glyph glyph-name="uni010F" unicode="&#x010F;" d="M477 716L627 716L528 199Q507 88 506 0L364 0L371 82L369 82Q306-12 194-12Q125-12 77.50 39.50Q30 91 30 183Q30 314 122.50 407.50Q215 501 359 501Q401 501 433 489L477 716M390 261L412 367Q388 386 346 386Q279 386 233.50 333.50Q188 281 188 207Q188 160 208.50 134Q229 108 264 108Q303 108 339 147Q375 186 390 261M681 497L619 551Q675 600 675 672Q675 696 667 712L769 730Q790 709 790 666Q790 619 758.50 572Q727 525 681 497Z"  horiz-adv-x="613" vert-adv-y="1000"  />

      
      <glyph glyph-name="uni0110" unicode="&#x0110;" d="M8 282L34 410L115 410L163 663Q254 679 365 679Q549 679 638 611Q743 539 743 385Q743 298 707 221.50Q671 145 605 94Q479-5 244-5Q114-5 38 8L91 282L8 282M416 410L391 282L243 282L213 119Q238 115 287 115Q424 115 500 189Q577 261 577 375Q577 559 372 559Q328 559 296 554L268 410L416 410Z"  horiz-adv-x="763" vert-adv-y="1000"  />

      
      <glyph glyph-name="uni0111" unicode="&#x0111;" d="M390 261L411 367Q389 386 346 386Q278 386 233 334Q188 282 188 207Q188 160 208.50 134Q229 108 264 108Q302 108 338 147.50Q374 187 390 261M253 627L460 627L477 716L626 716L610 627L692 627L676 547L594 547L528 199Q508 101 505 0L363 0L371 82L369 82Q305-12 194-12Q125-12 77.50 39.50Q30 91 30 183Q30 314 122.50 407.50Q215 501 359 501Q401 501 433 489L444 547L238 547L253 627Z"  horiz-adv-x="603" vert-adv-y="1000"  />

      
      <glyph glyph-name="uni0112" unicode="&#x0112;" d="M518 409L494 282L224 282L195 127L497 127L473 0L20 0L147 674L585 674L560 547L274 547L248 409L518 409M259 815L524 815L508 733L243 733L259 815Z"  horiz-adv-x="561" vert-adv-y="1000"  />

      
      <glyph glyph-name="uni0113" unicode="&#x0113;" d="M443 137L454 30Q374-12 257-12Q148-12 89.50 44Q31 100 31 203Q31 321 115.50 411Q200 501 332 501Q413 501 464.50 461.50Q516 422 516 350Q516 262 429 224Q342 186 174 191Q176 163 191 142Q223 104 294 104Q375 104 443 137M373 354L373 355Q373 372 357 383Q341 394 314 394Q263 394 229.50 363.50Q196 333 189 300Q287 299 330 311Q373 323 373 354M220 666L480 666L464 584L204 584L220 666Z"  horiz-adv-x="540" vert-adv-y="1000"  />

      
      <glyph glyph-name="uni0114" unicode="&#x0114;" d="M518 409L494 282L224 282L195 127L497 127L473 0L20 0L147 674L585 674L560 547L274 547L248 409L518 409M243 843L327 843Q327 793 382 793Q437 793 449 843L534 843Q524 786 484.50 752Q445 718 373 718Q300 718 268.50 752.50Q237 787 243 843Z"  horiz-adv-x="561" vert-adv-y="1000"  />

      
      <glyph glyph-name="uni0115" unicode="&#x0115;" d="M443 137L454 30Q374-12 257-12Q148-12 89.50 44Q31 100 31 203Q31 321 115.50 411Q200 501 332 501Q413 501 464.50 461.50Q516 422 516 350Q516 262 429 224Q342 186 174 191Q176 163 191 142Q223 104 294 104Q375 104 443 137M373 354L373 355Q373 372 357 383Q341 394 314 394Q263 394 229.50 363.50Q196 333 189 300Q287 299 330 311Q373 323 373 354M220 696L297 696Q299 638 344 638Q397 638 411 696L489 696Q479 634 440.50 598Q402 562 337 562Q268 562 240.50 599Q213 636 220 696Z"  horiz-adv-x="540" vert-adv-y="1000"  />

      
      <glyph glyph-name="uni0116" unicode="&#x0116;" d="M518 409L494 282L224 282L195 127L497 127L473 0L20 0L147 674L585 674L560 547L274 547L248 409L518 409M380 711L379 711Q352 711 332.50 728.50Q313 746 313 775Q313 808 335.50 829.50Q358 851 391 851Q420 851 438 832.50Q456 814 456 787Q456 753 433.50 732Q411 711 380 711Z"  horiz-adv-x="561" vert-adv-y="1000"  />

      
      <glyph glyph-name="uni0117" unicode="&#x0117;" d="M443 137L454 30Q374-12 257-12Q148-12 89.50 44Q31 100 31 203Q31 321 115.50 411Q200 501 332 501Q413 501 464.50 461.50Q516 422 516 350Q516 262 429 224Q342 186 174 191Q176 163 191 142Q223 104 294 104Q375 104 443 137M373 354L373 355Q373 372 357 383Q341 394 314 394Q263 394 229.50 363.50Q196 333 189 300Q287 299 330 311Q373 323 373 354M338 553L337 553Q309 553 288.50 571.50Q268 590 268 620Q268 655 291.50 677.50Q315 700 349 700Q380 700 399 681Q418 662 418 632Q418 596 394.50 574.50Q371 553 338 553Z"  horiz-adv-x="540" vert-adv-y="1000"  />

      
      <glyph glyph-name="uni0118" unicode="&#x0118;" d="M21 0L148 674L586 674L561 547L275 547L249 409L519 409L494 282L225 282L196 127L497 127L474 0L454 0Q418-22 395.50-49.50Q373-77 373-99Q373-127 399-127Q420-127 445-116L464-189Q418-223 353-223Q309-223 284-200Q259-177 259-141Q259-104 285.50-66Q312-28 353 0L21 0Z"  horiz-adv-x="561" vert-adv-y="1000"  />

      
      <glyph glyph-name="uni0119" unicode="&#x0119;" d="M373 354L373 355Q373 372 356.50 383Q340 394 313 394Q262 394 229 364Q196 334 189 300Q287 299 330 311Q373 323 373 354M377-114L394-188Q341-221 277-221Q235-221 212-199Q189-177 189-139Q189-70 265-12L265-11L240-11Q139-7 85 49Q31 105 31 203Q31 321 115.50 411Q200 501 332 501Q413 501 464.50 461.50Q516 422 516 350Q516 262 429 224Q342 186 174 191Q176 162 191 143Q222 105 293 105Q379 105 443 138L454 31Q447 27 393 3Q303-51 303-98Q303-110 310.50-117.50Q318-125 330-125Q353-125 377-114Z"  horiz-adv-x="540" vert-adv-y="1000"  />

      
      <glyph glyph-name="uni011A" unicode="&#x011A;" d="M518 409L494 282L224 282L195 127L497 127L473 0L20 0L147 674L585 674L560 547L274 547L248 409L518 409M434 710L316 710L232 836L338 836L381 771L383 771L445 836L561 836L434 710Z"  horiz-adv-x="561" vert-adv-y="1000"  />

      
      <glyph glyph-name="uni011B" unicode="&#x011B;" d="M443 137L454 30Q374-12 257-12Q148-12 89.50 44Q31 100 31 203Q31 321 115.50 411Q200 501 332 501Q413 501 464.50 461.50Q516 422 516 350Q516 262 429 224Q342 186 174 191Q176 163 191 142Q223 104 294 104Q375 104 443 137M373 354L373 355Q373 372 357 383Q341 394 314 394Q263 394 229.50 363.50Q196 333 189 300Q287 299 330 311Q373 323 373 354M386 548L280 548L200 704L297 704L342 622L344 622L406 704L512 704L386 548Z"  horiz-adv-x="540" vert-adv-y="1000"  />

      
      <glyph glyph-name="uni011C" unicode="&#x011C;" d="M706 387L639 35Q506-7 392-7Q240-7 147 68Q51 147 51 289Q51 470 192 581Q320 681 516 681Q583 681 638 670.50Q693 660 718 647L674 522Q604 554 508 554Q395 554 316 497Q218 425 218 302Q218 212 272 166Q326 120 422 120Q475 120 508 134L534 267L414 267L438 387L706 387M451 837L569 837L653 710L548 710L503 772L501 772L440 710L324 710L451 837Z"  horiz-adv-x="741" vert-adv-y="1000"  />

      
      <glyph glyph-name="uni011D" unicode="&#x011D;" d="M18-178L51-63Q72-76 115-84Q158-92 196-92Q256-92 295.50-62.50Q335-33 350 43L358 78L356 78Q295 5 206 5Q128 5 79.50 58.50Q31 112 31 191Q31 320 124 410.50Q217 501 378 501Q485 501 574 465L501 68Q470-98 392-158Q320-212 195-212Q80-212 18-178M389 264L410 376Q386 386 350 386Q282 386 237 333.50Q192 281 192 208Q192 168 212 144Q232 120 268 120Q307 120 341.50 158Q376 196 389 264M328 704L434 704L514 548L417 548L372 630L370 630L309 548L202 548L328 704Z"  horiz-adv-x="602" vert-adv-y="1000"  />

      
      <glyph glyph-name="uni011E" unicode="&#x011E;" d="M706 387L639 35Q506-7 392-7Q240-7 147 68Q51 147 51 289Q51 470 192 581Q320 681 516 681Q583 681 638 670.50Q693 660 718 647L674 522Q604 554 508 554Q395 554 316 497Q218 425 218 302Q218 212 272 166Q326 120 422 120Q475 120 508 134L534 267L414 267L438 387L706 387M347 843L431 843Q431 793 486 793Q541 793 553 843L638 843Q628 786 588.50 752Q549 718 477 718Q404 718 372.50 752.50Q341 787 347 843Z"  horiz-adv-x="741" vert-adv-y="1000"  />

      
      <glyph glyph-name="uni011F" unicode="&#x011F;" d="M18-178L51-63Q72-76 115-84Q158-92 196-92Q256-92 295.50-62.50Q335-33 350 43L358 78L356 78Q295 5 206 5Q128 5 79.50 58.50Q31 112 31 191Q31 320 124 410.50Q217 501 378 501Q485 501 574 465L501 68Q470-98 392-158Q320-212 195-212Q80-212 18-178M389 264L410 376Q386 386 350 386Q282 386 237 333.50Q192 281 192 208Q192 168 212 144Q232 120 268 120Q307 120 341.50 158Q376 196 389 264M251 696L328 696Q330 638 375 638Q428 638 442 696L520 696Q510 634 471.50 598Q433 562 368 562Q299 562 271.50 599Q244 636 251 696Z"  horiz-adv-x="602" vert-adv-y="1000"  />

      
      <glyph glyph-name="uni0120" unicode="&#x0120;" d="M706 387L639 35Q506-7 392-7Q240-7 147 68Q51 147 51 289Q51 470 192 581Q320 681 516 681Q583 681 638 670.50Q693 660 718 647L674 522Q604 554 508 554Q395 554 316 497Q218 425 218 302Q218 212 272 166Q326 120 422 120Q475 120 508 134L534 267L414 267L438 387L706 387M498 711L497 711Q470 711 450.50 728.50Q431 746 431 775Q431 808 453.50 829.50Q476 851 509 851Q538 851 556 832.50Q574 814 574 787Q574 753 551.50 732Q529 711 498 711Z"  horiz-adv-x="741" vert-adv-y="1000"  />

      
      <glyph glyph-name="uni0121" unicode="&#x0121;" d="M18-178L51-63Q72-76 115-84Q158-92 196-92Q256-92 295.50-62.50Q335-33 350 43L358 78L356 78Q295 5 206 5Q128 5 79.50 58.50Q31 112 31 191Q31 320 124 410.50Q217 501 378 501Q485 501 574 465L501 68Q470-98 392-158Q320-212 195-212Q80-212 18-178M389 264L410 376Q386 386 350 386Q282 386 237 333.50Q192 281 192 208Q192 168 212 144Q232 120 268 120Q307 120 341.50 158Q376 196 389 264M376 553L375 553Q347 553 326.50 571.50Q306 590 306 620Q306 655 329.50 677.50Q353 700 387 700Q418 700 437 681Q456 662 456 632Q456 596 432.50 574.50Q409 553 376 553Z"  horiz-adv-x="602" vert-adv-y="1000"  />

      
      <glyph glyph-name="uni0122" unicode="&#x0122;" d="M706 387L639 35Q506-7 392-7Q240-7 147 68Q51 147 51 289Q51 470 192 581Q320 681 516 681Q583 681 638 670.50Q693 660 718 647L674 522Q604 554 508 554Q395 554 316 497Q218 425 218 302Q218 212 272 166Q326 120 422 120Q475 120 508 134L534 267L414 267L438 387L706 387M260-245L246-175Q278-170 303-153Q328-136 328-107Q328-77 308-59L422-41Q448-63 448-106Q448-173 391.50-208Q335-243 260-245Z"  horiz-adv-x="741" vert-adv-y="1000"  />

      
      <glyph glyph-name="uni0123" unicode="&#x0123;" d="M18-178L51-63Q72-76 115-84Q158-92 196-92Q256-92 296-62Q336-32 351 43L358 78L356 78Q297 5 206 5Q128 5 79.50 58.50Q31 112 31 191Q31 320 124 410.50Q217 501 379 501Q485 501 574 465L502 68Q472-97 393-158Q320-212 195-212Q80-212 18-178M389 264L411 376Q387 386 351 386Q283 386 237.50 333.50Q192 281 192 208Q192 168 212 144Q232 120 268 120Q307 120 341.50 158Q376 196 389 264M491 737L505 667Q473 662 448 645Q423 628 423 598Q423 569 443 551L337 533Q311 555 311 598Q311 665 366 700Q421 735 491 737Z"  horiz-adv-x="602" vert-adv-y="1000"  />

      
      <glyph glyph-name="uni0124" unicode="&#x0124;" d="M148 674L299 674L250 416L530 416L579 674L730 674L603 0L452 0L505 283L224 283L171 0L21 0L148 674M410 837L528 837L612 710L507 710L462 772L460 772L399 710L283 710L410 837Z"  horiz-adv-x="719" vert-adv-y="1000"  />

      
      <glyph glyph-name="uni0125" unicode="&#x0125;" d="M167 0L17 0L152 716L303 716L247 425L249 425Q320 501 416 501Q478 501 514.50 464Q551 427 551 360Q551 318 542 275L490 0L340 0L389 259Q395 288 395 319Q395 380 339 380Q295 380 258 332Q221 284 206 205L167 0M198 875L316 875L400 748L295 748L250 810L248 810L187 748L71 748L198 875Z"  horiz-adv-x="602" vert-adv-y="1000"  />

      
      <glyph glyph-name="uni0126" unicode="&#x0126;" d="M540 472L260 472L244 389L525 389L540 472M39 562L127 562L148 674L299 674L278 562L558 562L579 674L730 674L709 562L790 562L772 472L692 472L603 0L452 0L500 256L219 256L171 0L21 0L110 472L21 472L39 562Z"  horiz-adv-x="719" vert-adv-y="1000"  />

      
      <glyph glyph-name="uni0127" unicode="&#x0127;" d="M36 624L135 624L152 716L303 716L285 624L462 624L447 544L270 544L247 425L249 425Q320 501 416 501Q478 501 514.50 464Q551 427 551 360Q551 318 542 275L490 0L340 0L389 259Q395 288 395 319Q395 380 339 380Q295 380 258 332Q221 284 206 205L167 0L17 0L120 544L21 544L36 624Z"  horiz-adv-x="602" vert-adv-y="1000"  />

      
      <glyph glyph-name="uni0128" unicode="&#x0128;" d="M144 674L294 674L166 0L16 0L144 674M152 714L79 714Q89 778 116 811.50Q143 845 181 845Q213 845 247 824Q276 804 290 804Q313 804 325 848L397 848Q377 721 293 721Q259 721 227 740Q195 759 185 759Q164 759 152 714Z"  horiz-adv-x="284" vert-adv-y="1000"  />

      
      <glyph glyph-name="uni0129" unicode="&#x0129;" d="M167 0L17 0L110 489L260 489L167 0M134 557L61 557Q70 621 97 654.50Q124 688 162 688Q191 688 227 667Q254 647 269 647Q282 647 288.50 656.50Q295 666 303 692L375 692Q357 564 272 564Q234 564 203 586Q181 603 164 603Q145 603 134 557Z"  horiz-adv-x="281" vert-adv-y="1000"  />

      
      <glyph glyph-name="uni012A" unicode="&#x012A;" d="M144 674L294 674L166 0L16 0L144 674M118 815L383 815L367 733L102 733L118 815Z"  horiz-adv-x="284" vert-adv-y="1000"  />

      
      <glyph glyph-name="uni012B" unicode="&#x012B;" d="M167 0L17 0L110 489L260 489L167 0M91 666L351 666L335 584L75 584L91 666Z"  horiz-adv-x="281" vert-adv-y="1000"  />

      
      <glyph glyph-name="uni012C" unicode="&#x012C;" d="M144 674L294 674L166 0L16 0L144 674M104 848L188 848Q188 798 243 798Q298 798 310 848L395 848Q385 791 345.50 757Q306 723 234 723Q161 723 129.50 757.50Q98 792 104 848Z"  horiz-adv-x="284" vert-adv-y="1000"  />

      
      <glyph glyph-name="uni012D" unicode="&#x012D;" d="M167 0L17 0L110 489L260 489L167 0M91 696L168 696Q170 638 215 638Q268 638 282 696L360 696Q350 634 311.50 598Q273 562 208 562Q139 562 111.50 599Q84 636 91 696Z"  horiz-adv-x="281" vert-adv-y="1000"  />

      
      <glyph glyph-name="uni012E" unicode="&#x012E;" d="M294 674L167 0L98 0Q63-47 63-83Q63-125 108-125Q130-125 155-116L162-189Q119-223 53-223Q6-223-20.50-199.50Q-47-176-47-133Q-47-75 18 1L144 674L294 674Z"  horiz-adv-x="284" vert-adv-y="1000"  />

      
      <glyph glyph-name="uni012F" unicode="&#x012F;" d="M204 552L203 552Q171 552 149 572.50Q127 593 127 627Q127 667 154 690.50Q181 714 218 714Q252 714 275 693.50Q298 673 298 638Q298 599 271 575.50Q244 552 204 552M261 489L168 0L99 0Q64-49 64-83Q64-125 109-125Q131-125 156-116L163-189Q120-223 54-223Q7-223-19.50-199.50Q-46-176-46-133Q-46-75 19 1L111 489L261 489Z"  horiz-adv-x="281" vert-adv-y="1000"  />

      
      <glyph glyph-name="uni0130" unicode="&#x0130;" d="M144 674L294 674L166 0L16 0L144 674M239 711L238 711Q211 711 191.50 728.50Q172 746 172 775Q172 808 194.50 829.50Q217 851 250 851Q279 851 297 832.50Q315 814 315 787Q315 753 292.50 732Q270 711 239 711Z"  horiz-adv-x="284" vert-adv-y="1000"  />

      
      <glyph glyph-name="uni0131" unicode="&#x0131;" d="M167 0L17 0L110 489L260 489L167 0Z"  horiz-adv-x="281" vert-adv-y="1000"  />

      
      <glyph glyph-name="uni0132" unicode="&#x0132;" d="M144 674L294 674L166 0L16 0L144 674M509 263L587 674L737 674L654 239Q629 107 565.50 47.50Q502-12 378-12Q294-12 251 7L281 134Q326 119 373 119Q429 119 461.50 151Q494 183 509 263Z"  horiz-adv-x="720" vert-adv-y="1000"  />

      
      <glyph glyph-name="uni0133" unicode="&#x0133;" d="M168 0L17 0L110 489L261 489L168 0M204 550L203 550Q173 550 151.50 569.50Q130 589 130 622Q130 660 156 682.50Q182 705 217 705Q250 705 272 685.50Q294 666 294 632Q294 595 268 572.50Q242 550 204 550M411 489L560 489L471 11Q448-113 397-166Q351-212 266-212Q224-212 193-204L210-89Q221-92 245-92Q272-92 291-71Q310-50 320 7L411 489M498 550L497 550Q467 550 445.50 569.50Q424 589 424 622Q424 660 450 682.50Q476 705 511 705Q544 705 566 685.50Q588 666 588 632Q588 595 562 572.50Q536 550 498 550Z"  horiz-adv-x="578" vert-adv-y="1000"  />

      
      <glyph glyph-name="uni0134" unicode="&#x0134;" d="M225 263L303 674L453 674L370 239Q345 107 281.50 47.50Q218-12 94-12Q10-12-33 7L-3 134Q42 119 89 119Q145 119 177.50 151Q210 183 225 263M346 837L464 837L548 710L443 710L398 772L396 772L335 710L219 710L346 837Z"  horiz-adv-x="437" vert-adv-y="1000"  />

      
      <glyph glyph-name="uni0135" unicode="&#x0135;" d="M130 489L280 489L191 11Q168-112 116-166Q70-212-14-212Q-56-212-88-204L-71-89Q-59-92-36-92Q-9-92 10-71Q29-50 40 7L130 489M173 704L279 704L359 548L262 548L217 638L215 638L154 548L47 548L173 704Z"  horiz-adv-x="298" vert-adv-y="1000"  />

      
      <glyph glyph-name="uni0136" unicode="&#x0136;" d="M20 0L147 674L296 674L240 377L243 377Q255 391 276 414.50Q297 438 305 447L513 674L707 674L411 385L594 0L428 0L292 296L212 225L169 0L20 0M167-245L153-175Q185-170 210-153Q235-136 235-107Q235-77 215-59L329-41Q355-63 355-106Q355-173 298.50-208Q242-243 167-245Z"  horiz-adv-x="639" vert-adv-y="1000"  />

      
      <glyph glyph-name="uni0137" unicode="&#x0137;" d="M167 0L17 0L152 716L303 716L221 285L223 285Q232 295 247.50 313Q263 331 270 339L407 489L599 489L374 293L530 0L359 0L259 209L196 154L167 0M135-245L121-175Q153-170 178-153Q203-136 203-107Q203-77 183-59L297-41Q323-63 323-106Q323-173 266.50-208Q210-243 135-245Z"  horiz-adv-x="575" vert-adv-y="1000"  />

      
      <glyph glyph-name="uni0138" unicode="&#x0138;" d="M167 0L17 0L110 489L260 489L221 285L223 285Q232 295 247.50 313Q263 331 270 339L407 489L599 489L374 293L530 0L359 0L259 209L196 154L167 0Z"  horiz-adv-x="575" vert-adv-y="1000"  />

      
      <glyph glyph-name="uni0139" unicode="&#x0139;" d="M20 0L147 674L298 674L196 131L486 131L461 0L20 0M267 837L437 837L312 710L179 710L267 837Z"  horiz-adv-x="533" vert-adv-y="1000"  />

      
      <glyph glyph-name="uni013A" unicode="&#x013A;" d="M168 0L18 0L155 716L305 716L168 0M245 882L415 882L290 755L157 755L245 882Z"  horiz-adv-x="281" vert-adv-y="1000"  />

      
      <glyph glyph-name="uni013B" unicode="&#x013B;" d="M20 0L147 674L298 674L196 131L486 131L461 0L20 0M119-245L105-175Q137-170 162-153Q187-136 187-107Q187-77 167-59L281-41Q307-63 307-106Q307-173 250.50-208Q194-243 119-245Z"  horiz-adv-x="533" vert-adv-y="1000"  />

      
      <glyph glyph-name="uni013C" unicode="&#x013C;" d="M168 0L18 0L155 716L305 716L168 0M-21-245L-35-175Q-3-170 22-153Q47-136 47-107Q47-77 27-59L141-41Q167-63 167-106Q167-173 110.50-208Q54-243-21-245Z"  horiz-adv-x="281" vert-adv-y="1000"  />

      
      <glyph glyph-name="uni013D" unicode="&#x013D;" d="M20 0L147 674L298 674L196 131L486 131L461 0L20 0M346 475L332 545Q364 550 389 567Q414 584 414 613Q414 643 394 661L508 679Q534 657 534 614Q534 547 477.50 512Q421 477 346 475Z"  horiz-adv-x="533" vert-adv-y="1000"  />

      
      <glyph glyph-name="uni013E" unicode="&#x013E;" d="M169 0L18 0L155 716L306 716L169 0M367 497L301 548Q323 569 340 603.50Q357 638 357 673Q357 696 349 712L451 730Q472 709 472 666Q472 610 440 564Q408 518 367 497Z"  horiz-adv-x="291" vert-adv-y="1000"  />

      
      <glyph glyph-name="uni013F" unicode="&#x013F;" d="M20 0L147 674L298 674L196 131L486 131L461 0L20 0M408 310L407 310Q380 310 360.50 327.50Q341 345 341 374Q341 407 363.50 428.50Q386 450 419 450Q448 450 466 431.50Q484 413 484 386Q484 352 461.50 331Q439 310 408 310Z"  horiz-adv-x="533" vert-adv-y="1000"  />

      
      <glyph glyph-name="uni0140" unicode="&#x0140;" d="M169 0L18 0L155 716L306 716L169 0M344 298L343 298Q317 298 298.50 315.50Q280 333 280 362Q280 396 301.50 417Q323 438 355 438Q382 438 399.50 419.50Q417 401 417 374Q417 340 395.50 319Q374 298 344 298Z"  horiz-adv-x="368" vert-adv-y="1000"  />

      
      <glyph glyph-name="uni0141" unicode="&#x0141;" d="M475 0L34 0L79 235L-11 182L10 286L98 339L162 674L312 674L268 443L416 531L397 426L248 339L210 131L500 131L475 0Z"  horiz-adv-x="547" vert-adv-y="1000"  />

      
      <glyph glyph-name="uni0142" unicode="&#x0142;" d="M175 0L25 0L66 212L-11 161L10 269L87 320L162 716L312 716L260 444L346 502L325 394L239 336L175 0Z"  horiz-adv-x="297" vert-adv-y="1000"  />

      
      <glyph glyph-name="uni0143" unicode="&#x0143;" d="M164 0L21 0L148 674L336 674L437 420Q477 309 507 183L510 183Q511 265 538 405L588 674L732 674L605 0L441 0L334 275Q280 426 258 513L254 513Q246 440 212 255L164 0M448 837L618 837L493 710L360 710L448 837Z"  horiz-adv-x="721" vert-adv-y="1000"  />

      
      <glyph glyph-name="uni0144" unicode="&#x0144;" d="M167 0L17 0L79 330Q87 370 106 489L240 489L229 402L231 402Q303 501 415 501Q479 501 515 464Q551 427 551 358Q551 320 543 280L490 0L340 0L389 259Q394 287 394 315Q394 380 339 380Q297 380 258.50 332Q220 284 205 203L167 0M384 704L534 704L401 548L289 548L384 704Z"  horiz-adv-x="603" vert-adv-y="1000"  />

      
      <glyph glyph-name="uni0145" unicode="&#x0145;" d="M164 0L21 0L148 674L336 674L437 420Q477 309 507 183L510 183Q511 265 538 405L588 674L732 674L605 0L441 0L334 275Q280 426 258 513L254 513Q246 440 212 255L164 0M211-245L197-175Q229-170 254-153Q279-136 279-107Q279-77 259-59L373-41Q399-63 399-106Q399-173 342.50-208Q286-243 211-245Z"  horiz-adv-x="721" vert-adv-y="1000"  />

      
      <glyph glyph-name="uni0146" unicode="&#x0146;" d="M167 0L17 0L79 330Q87 370 106 489L240 489L229 402L231 402Q303 501 415 501Q479 501 515 464Q551 427 551 358Q551 320 543 280L490 0L340 0L389 259Q394 287 394 315Q394 380 339 380Q297 380 258.50 332Q220 284 205 203L167 0M149-245L135-175Q167-170 192-153Q217-136 217-107Q217-77 197-59L311-41Q337-63 337-106Q337-173 280.50-208Q224-243 149-245Z"  horiz-adv-x="603" vert-adv-y="1000"  />

      
      <glyph glyph-name="uni0147" unicode="&#x0147;" d="M164 0L21 0L148 674L336 674L437 420Q477 309 507 183L510 183Q511 265 538 405L588 674L732 674L605 0L441 0L334 275Q280 426 258 513L254 513Q246 440 212 255L164 0M514 710L396 710L312 836L418 836L461 771L463 771L525 836L641 836L514 710Z"  horiz-adv-x="721" vert-adv-y="1000"  />

      
      <glyph glyph-name="uni0148" unicode="&#x0148;" d="M167 0L17 0L79 330Q87 370 106 489L240 489L229 402L231 402Q303 501 415 501Q479 501 515 464Q551 427 551 358Q551 320 543 280L490 0L340 0L389 259Q394 287 394 315Q394 380 339 380Q297 380 258.50 332Q220 284 205 203L167 0M399 548L293 548L213 704L310 704L355 622L357 622L419 704L525 704L399 548Z"  horiz-adv-x="603" vert-adv-y="1000"  />

      
      <glyph glyph-name="uni0149" unicode="&#x0149;" d="M167 0L17 0L79 330Q84 356 106 489L239 489L229 402L231 402Q303 501 415 501Q479 501 515 464Q551 427 551 358Q551 320 543 280L490 0L340 0L389 259Q394 287 394 315Q394 380 339 380Q297 380 258.50 332Q220 284 205 203L167 0M79 546L65 617Q84 621 99.50 640.50Q115 660 115 684Q115 715 95 733L201 751Q227 727 227 685Q227 619 180 583.50Q133 548 79 546Z"  horiz-adv-x="603" vert-adv-y="1000"  />

      
      <glyph glyph-name="uni014A" unicode="&#x014A;" d="M318-220L307-98Q359-92 396-69.50Q433-47 443-11L334 275Q284 411 258 513L254 513Q246 440 212 255L164 0L21 0L148 674L336 674L437 420Q477 309 507 183L510 184Q511 265 538 405L588 674L732 674L613 44Q565-211 318-220Z"  horiz-adv-x="721" vert-adv-y="1000"  />

      
      <glyph glyph-name="uni014B" unicode="&#x014B;" d="M245-193L232-69Q281-65 309-39.50Q337-14 349 49L389 259Q394 287 394 315Q394 380 339 380Q297 380 258.50 332Q220 284 205 203L167 0L17 0L79 330Q96 424 106 489L240 489L229 402L231 402Q303 501 415 501Q479 501 515 464Q551 427 551 358Q551 320 543 280L502 60Q475-79 411-135Q347-191 245-193Z"  horiz-adv-x="603" vert-adv-y="1000"  />

      
      <glyph glyph-name="uni014C" unicode="&#x014C;" d="M362-12L361-12Q222-12 137 70Q52 152 52 289Q52 464 172 578Q283 686 450 686Q592 686 675.50 604.50Q759 523 759 382Q759 207 643 96Q533-12 362-12M382 112L383 112Q462 112 519 171Q597 247 597 373Q597 456 559 509Q521 562 433 562Q354 562 294 502Q214 422 214 300Q214 212 256.50 162Q299 112 382 112M354 815L619 815L603 733L338 733L354 815Z"  horiz-adv-x="779" vert-adv-y="1000"  />

      
      </font>
</defs>
</svg>
