<?xml version="1.0" standalone="no"?>
  <!DOCTYPE svg PUBLIC "-//W3C//DTD SVG 1.1//EN" "http://www.w3.org/Graphics/SVG/1.1/DTD/svg11.dtd" >
  <svg>
  <metadata>
  Created by font-carrier
  </metadata>
  <defs>
  <font id="MyriadPro-SemiExt" horiz-adv-x="1230" vert-adv-y="1230" >
    <font-face
      
      font-family="Myriad Pro SemiExt"
      
      font-weight="400"
      
      font-stretch="normal"
      
      units-per-em="1000"
      
      ascent="750"
      
      descent="-250"
      
    />
      <missing-glyph />

      

      
      <glyph glyph-name="uni21" unicode="&#x21;" d="M153 195L84 195L68 674L169 674L153 195M119-12L118-12Q91-12 73.50 6.50Q56 25 57 52Q57 81 74 99Q91 117 119 117Q147 117 164 99Q181 81 181 52Q181 25 163.50 6.50Q146-12 119-12Z"  horiz-adv-x="239" vert-adv-y="1000"  />

      
      <glyph glyph-name="uni22" unicode="&#x22;" d="M51 695L144 695L126 453L69 453L51 695M203 695L296 695L278 453L221 453L203 695Z"  horiz-adv-x="347" vert-adv-y="1000"  />

      
      <glyph glyph-name="uni23" unicode="&#x23;" d="M202 257L315 257L333 398L221 398L202 257M167 0L104 0L130 195L41 195L41 257L139 257L158 398L66 398L66 460L167 460L193 650L255 650L229 460L342 460L368 650L430 650L405 460L493 460L493 398L396 398L377 257L469 257L469 195L367 195L342 0L279 0L305 195L192 195L167 0Z"  horiz-adv-x="535" vert-adv-y="1000"  />

      
      <glyph glyph-name="uni24" unicode="&#x24;" d="M302-86L237-86L237 14Q132 17 70 62L96 132Q166 85 254 85Q310 85 346 112Q382 139 382 182Q382 221 352.50 247.50Q323 274 260 297Q168 330 124 370Q80 410 80 474Q80 537 124 581.50Q168 626 244 637L244 738L309 738L309 639Q391 637 449 601L424 533Q354 571 284 571Q226 571 198.50 545Q171 519 171 485Q171 449 201.50 424.50Q232 400 304 373Q391 341 432 298.50Q473 256 473 189Q473 128 428.50 79Q384 30 302 17L302-86Z"  horiz-adv-x="556" vert-adv-y="1000"  />

      
      <glyph glyph-name="uni25" unicode="&#x25;" d="M199 662L200 662Q273 662 316 612Q359 562 359 469Q359 370 311.50 315.50Q264 261 192 261Q124 261 77.50 311.50Q31 362 30 457Q30 553 78 607.50Q126 662 199 662M195 608L194 608Q152 608 127.50 567.50Q103 527 103 461Q102 395 127 355Q152 315 195 315Q240 315 263 354Q286 393 286 464Q286 608 195 608M251-12L193-12L588 661L646 661L251-12M650 393L651 393Q724 393 767 343Q810 293 810 200Q810 101 762.50 47Q715-7 643-7Q575-7 529 43Q483 93 482 188Q482 284 530 338.50Q578 393 650 393M647 339L646 339Q604 339 579.50 298.50Q555 258 555 193Q554 127 579 87Q604 47 646 47Q691 47 714 86Q737 125 737 195Q737 339 647 339Z"  horiz-adv-x="840" vert-adv-y="1000"  />

      
      <glyph glyph-name="uni26" unicode="&#x26;" d="M645 0L534 0Q523 10 501.50 32Q480 54 466 67Q375-12 252-12Q153-12 92.50 43Q32 98 32 178Q32 306 173 376L173 379Q115 448 115 516Q115 584 163.50 635Q212 686 297 686Q366 686 411 645.50Q456 605 456 541Q456 486 418.50 443Q381 400 298 362L297 359Q382 266 473 172Q523 237 546 370L630 370Q597 197 525 120Q609 34 645 0M268 56L269 56Q358 56 419 117Q349 183 216 330Q120 276 120 193Q120 133 162 94.50Q204 56 268 56M291 625L290 625Q247 625 222.50 596Q198 567 198 526Q198 469 254 406Q316 438 346 467Q376 496 376 537Q376 572 354 598.50Q332 625 291 625Z"  horiz-adv-x="642" vert-adv-y="1000"  />

      
      <glyph glyph-name="uni27" unicode="&#x27;" d="M51 695L144 695L126 453L69 453L51 695Z"  horiz-adv-x="194" vert-adv-y="1000"  />

      
      <glyph glyph-name="uni28" unicode="&#x28;" d="M204 695L275 695Q143 522 143 284Q143 60 275-121L204-121Q67 53 67 285Q67 517 204 695Z"  horiz-adv-x="294" vert-adv-y="1000"  />

      
      <glyph glyph-name="uni29" unicode="&#x29;" d="M90-121L19-121Q151 59 151 288Q151 516 19 695L90 695Q227 521 227 287Q227 57 90-121Z"  horiz-adv-x="294" vert-adv-y="1000"  />

      
      <glyph glyph-name="uni2a" unicode="&#x2a;" d="M278 686L340 650L241 524L241 522L398 542L398 473L241 492L241 489L340 367L275 330L214 473L212 473L146 330L87 367L185 490L185 492L32 473L32 542L184 523L184 524L87 650L151 686L213 543L215 543L278 686Z"  horiz-adv-x="429" vert-adv-y="1000"  />

      
      <glyph glyph-name="uni2b" unicode="&#x2b;" d="M265 532L331 532L331 298L556 298L556 236L331 236L331 0L265 0L265 236L40 236L40 298L265 298L265 532Z"  horiz-adv-x="596" vert-adv-y="1000"  />

      
      <glyph glyph-name="uni2c" unicode="&#x2c;" d="M81-116L16-123Q56-12 77 119L178 129Q160 64 131.50-8.50Q103-81 81-116Z"  horiz-adv-x="211" vert-adv-y="1000"  />

      
      <glyph glyph-name="uni2d" unicode="&#x2d;" d="M30 306L286 306L286 240L30 240L30 306Z"  horiz-adv-x="316" vert-adv-y="1000"  />

      
      <glyph glyph-name="uniad" unicode="&#xad;" d="M30 306L286 306L286 240L30 240L30 306Z"  horiz-adv-x="316" vert-adv-y="1000"  />

      
      <glyph glyph-name="uni2e" unicode="&#x2e;" d="M115-12L114-12Q87-12 69.50 6.50Q52 25 53 52Q53 81 70 99Q87 117 115 117Q143 117 160 99Q177 81 177 52Q177 25 159.50 6.50Q142-12 115-12Z"  horiz-adv-x="211" vert-adv-y="1000"  />

      
      <glyph glyph-name="uni2f" unicode="&#x2f;" d="M66-40L-4-40L296 686L368 686L66-40Z"  horiz-adv-x="364" vert-adv-y="1000"  />

      
      <glyph glyph-name="uni30" unicode="&#x30;" d="M273-12L272-12Q168-12 104.50 76Q41 164 39 322Q39 482 107 572Q175 662 284 662Q395 662 456 575.50Q517 489 517 334Q517 170 454 79Q391-12 273-12M276 57L277 57Q350 57 387.50 128.50Q425 200 425 329Q425 455 388.50 524Q352 593 278 593Q213 593 172 521.50Q131 450 131 329Q129 202 169 129.50Q209 57 276 57Z"  horiz-adv-x="556" vert-adv-y="1000"  />

      
      <glyph glyph-name="uni31" unicode="&#x31;" d="M252 0L252 567L250 567L136 507L118 576L262 650L340 650L340 0L252 0Z"  horiz-adv-x="556" vert-adv-y="1000"  />

      
      <glyph glyph-name="uni32" unicode="&#x32;" d="M498 0L49 0L49 54L123 119Q279 259 333.50 326Q388 393 389 457Q389 513 356.50 550.50Q324 588 249 588Q168 588 96 526L65 589Q151 662 268 662Q372 662 426.50 604.50Q481 547 481 470Q481 387 425 313Q369 239 236 121L182 76L182 74L498 74L498 0Z"  horiz-adv-x="556" vert-adv-y="1000"  />

      
      <glyph glyph-name="uni33" unicode="&#x33;" d="M48 37L73 107Q99 91 143.50 76.50Q188 62 235 62Q320 62 357 102Q394 142 393 187Q392 252 339.50 283.50Q287 315 213 315L153 315L153 384L214 384Q274 384 321 411.50Q368 439 368 492Q368 532 337.50 560.50Q307 589 244 589Q164 589 98 542L72 608Q103 630 154.50 646Q206 662 260 662Q359 662 410 616Q461 570 461 505Q461 453 428.50 413Q396 373 334 352L334 350Q401 338 444.50 293Q488 248 488 184Q488 102 421.50 45Q355-12 234-12Q176-12 126 2.50Q76 17 48 37Z"  horiz-adv-x="556" vert-adv-y="1000"  />

      
      <glyph glyph-name="uni34" unicode="&#x34;" d="M432 0L345 0L345 177L14 177L14 235L330 650L432 650L432 246L530 246L530 177L432 177L432 0M108 246L345 246L345 475Q345 522 348 568L344 569Q309 510 290 481L108 248L108 246Z"  horiz-adv-x="556" vert-adv-y="1000"  />

      
      <glyph glyph-name="uni35" unicode="&#x35;" d="M466 650L466 574L194 574L170 409Q204 413 232 413Q317 413 378 382Q423 361 453 316Q483 271 483 210Q483 115 410.50 51.50Q338-12 227-12Q118-12 47 32L71 101Q139 61 227 61Q294 61 342.50 100Q391 139 390 200Q389 263 341 302.50Q293 342 191 342Q143 342 87 334L129 650L466 650Z"  horiz-adv-x="556" vert-adv-y="1000"  />

      
      <glyph glyph-name="uni36" unicode="&#x36;" d="M448 661L448 587Q415 589 375 583Q269 568 205.50 504Q142 440 131 353L133 353Q160 388 204.50 410.50Q249 433 305 433Q400 433 460 374Q520 315 520 220Q520 127 455 57.50Q390-12 285-12Q173-12 104.50 63.50Q36 139 36 269Q36 361 68.50 437Q101 513 155 562Q242 642 379 657Q418 663 448 661M286 58L287 58Q349 58 388 103Q427 148 427 214Q427 283 386.50 323.50Q346 364 278 364Q234 364 195.50 340.50Q157 317 137 281Q127 261 127 243Q128 164 169 111Q210 58 286 58Z"  horiz-adv-x="556" vert-adv-y="1000"  />

      
      <glyph glyph-name="uni37" unicode="&#x37;" d="M65 650L506 650L506 589L199 0L104 0L410 574L410 576L65 576L65 650Z"  horiz-adv-x="556" vert-adv-y="1000"  />

      
      <glyph glyph-name="uni38" unicode="&#x38;" d="M283 662L284 662Q381 662 435.50 614.50Q490 567 490 500Q490 397 376 349L376 345Q443 324 479.50 281.50Q516 239 516 181Q516 94 447 41Q378-12 276-12Q170-12 105 39Q40 90 40 167Q40 286 176 338L176 341Q66 386 66 486Q66 563 127.50 612.50Q189 662 283 662M277 55L278 55Q343 55 382.50 88.50Q422 122 422 170Q422 227 382 259.50Q342 292 262 309Q200 296 167 261.50Q134 227 134 179Q131 129 171 92Q211 55 277 55M280 597L279 597Q220 597 186.50 566.50Q153 536 153 492Q152 446 188 417Q224 388 291 374Q340 386 370.50 416.50Q401 447 401 491Q401 533 371 565Q341 597 280 597Z"  horiz-adv-x="556" vert-adv-y="1000"  />

      
      <glyph glyph-name="uni39" unicode="&#x39;" d="M106-11L106 63Q134 60 184 66Q275 76 336 132Q408 196 425 302L422 302Q361 227 252 227Q159 227 101.50 285.50Q44 344 44 428Q44 524 112.50 593Q181 662 286 662Q392 662 455 587.50Q518 513 518 383Q518 184 397 77Q313 4 195-6Q146-13 106-11M278 593L277 593Q214 593 174.50 546Q135 499 135 433Q135 374 173 335Q211 296 273 296Q321 296 358.50 316Q396 336 417 368Q425 382 425 397Q426 481 389 537Q352 593 278 593Z"  horiz-adv-x="556" vert-adv-y="1000"  />

      
      <glyph glyph-name="uni3a" unicode="&#x3a;" d="M115 337L114 337Q87 337 69.50 355.50Q52 374 53 401Q53 430 70 448Q87 466 115 466Q143 466 160 448Q177 430 177 401Q177 374 159.50 355.50Q142 337 115 337M115-12L114-12Q87-12 69.50 6.50Q52 25 53 52Q53 81 70 99Q87 117 115 117Q143 117 160 99Q177 81 177 52Q177 25 159.50 6.50Q142-12 115-12Z"  horiz-adv-x="211" vert-adv-y="1000"  />

      
      <glyph glyph-name="uni3b" unicode="&#x3b;" d="M82-116L17-122Q58-7 77 120L178 130Q135-24 82-116M122 337L121 337Q94 337 76.50 355.50Q59 374 60 401Q60 430 77 448Q94 466 122 466Q150 466 167 448Q184 430 184 401Q184 374 166.50 355.50Q149 337 122 337Z"  horiz-adv-x="211" vert-adv-y="1000"  />

      
      <glyph glyph-name="uni3c" unicode="&#x3c;" d="M66 238L66 294L530 532L530 462L138 267L138 265L530 70L530 0L66 238Z"  horiz-adv-x="596" vert-adv-y="1000"  />

      
      <glyph glyph-name="uni3d" unicode="&#x3d;" d="M556 338L40 338L40 400L556 400L556 338M556 139L40 139L40 201L556 201L556 139Z"  horiz-adv-x="596" vert-adv-y="1000"  />

      
      <glyph glyph-name="uni3e" unicode="&#x3e;" d="M530 294L530 238L66 0L66 70L458 265L458 267L66 462L66 532L530 294Z"  horiz-adv-x="596" vert-adv-y="1000"  />

      
      <glyph glyph-name="uni3f" unicode="&#x3f;" d="M235 194L153 194L151 224Q143 306 219 391Q293 470 293 524Q293 563 267.50 587Q242 611 192 612Q125 612 79 577L53 641Q117 686 211 686Q296 686 341.50 642.50Q387 599 387 535Q387 490 365 452Q343 414 297 366Q230 292 233 222L235 194M193-12L192-12Q165-12 147.50 6.50Q130 25 131 52Q131 81 148 99Q165 117 193 117Q221 117 238 99Q255 81 255 52Q255 25 237.50 6.50Q220-12 193-12Z"  horiz-adv-x="438" vert-adv-y="1000"  />

      
      <glyph glyph-name="uni40" unicode="&#x40;" d="M482 262L501 364Q474 373 443 373Q374 373 324.50 323.50Q275 274 275 202Q275 167 294.50 144Q314 121 350 121Q395 121 434 166.50Q473 212 482 262M541-19L558-66Q478-106 370-106Q235-106 140-15.50Q45 75 45 216Q45 372 150 482Q255 592 427 592Q567 592 656 506Q745 420 745 287Q745 188 690 126.50Q635 65 560 65Q526 65 502.50 88Q479 111 480 156L477 156Q421 65 323 65Q275 65 241 101.50Q207 138 207 197Q207 294 277.50 361.50Q348 429 452 429Q520 429 571 406L539 231Q517 118 572 116Q615 114 650 160.50Q685 207 685 284Q685 399 613.50 471.50Q542 544 418 544Q286 544 196 456Q106 368 106 223Q106 99 184.50 21.50Q263-56 380-56Q478-56 541-19Z"  horiz-adv-x="786" vert-adv-y="1000"  />

      
      <glyph glyph-name="uni41" unicode="&#x41;" d="M469 215L200 215L122 0L27 0L281 674L392 674L649 0L550 0L469 215M220 285L449 285L372 487Q356 530 334 600L332 600Q313 532 297 488L220 285Z"  horiz-adv-x="671" vert-adv-y="1000"  />

      
      <glyph glyph-name="uni42" unicode="&#x42;" d="M81 1L81 665Q158 680 256 680Q390 680 453 631Q513 586 513 510Q513 461 481 421Q449 381 395 363L395 360Q450 347 494.50 305Q539 263 539 191Q539 110 478 56Q406-7 228-7Q166-7 81 1M172 604L172 389L266 389Q340 389 380.50 420Q421 451 421 501Q421 611 262 611Q200 611 172 604M172 321L172 67Q197 62 256 62Q337 62 390 92.50Q443 123 443 193Q443 258 391.50 289.50Q340 321 257 321L172 321Z"  horiz-adv-x="585" vert-adv-y="1000"  />

      
      <glyph glyph-name="uni43" unicode="&#x43;" d="M592 96L611 25Q535-12 406-12Q245-12 141.50 80Q38 172 38 332Q38 482 144.50 584Q251 686 428 686Q545 686 613 652L590 580Q522 612 432 612Q293 612 213.50 536Q134 460 134 333Q134 215 210.50 139.50Q287 64 425 64Q525 64 592 96Z"  horiz-adv-x="648" vert-adv-y="1000"  />

      
      <glyph glyph-name="uni44" unicode="&#x44;" d="M81 1L81 665Q195 680 293 680Q503 680 605 584Q702 495 702 353Q702 200 600 98Q489-7 263-7Q164-7 81 1M172 598L172 70Q205 65 279 65Q439 64 522.50 141.50Q606 219 606 349Q608 469 528.50 538.50Q449 608 296 608Q226 608 172 598Z"  horiz-adv-x="740" vert-adv-y="1000"  />

      
      <glyph glyph-name="uni45" unicode="&#x45;" d="M464 389L464 315L172 315L172 74L498 74L498 0L81 0L81 674L481 674L481 600L172 600L172 389L464 389Z"  horiz-adv-x="537" vert-adv-y="1000"  />

      
      <glyph glyph-name="uni46" unicode="&#x46;" d="M81 0L81 674L479 674L479 600L172 600L172 379L455 379L455 305L172 305L172 0L81 0Z"  horiz-adv-x="534" vert-adv-y="1000"  />

      
      <glyph glyph-name="uni47" unicode="&#x47;" d="M655 355L655 35Q542-7 419-7Q239-7 136 90Q38 182 38 335Q38 478 145 579.50Q252 681 439 681Q559 681 631 646L608 574Q535 607 436 607Q296 607 215 532Q134 457 134 338Q134 217 213 142Q292 67 427 67Q523 67 565 89L565 283L412 283L412 355L655 355Z"  horiz-adv-x="716" vert-adv-y="1000"  />

      
      <glyph glyph-name="uni48" unicode="&#x48;" d="M81 674L172 674L172 394L543 394L543 674L634 674L634 0L543 0L543 317L172 317L172 0L81 0L81 674Z"  horiz-adv-x="715" vert-adv-y="1000"  />

      
      <glyph glyph-name="uni49" unicode="&#x49;" d="M81 674L172 674L172 0L81 0L81 674Z"  horiz-adv-x="253" vert-adv-y="1000"  />

      
      <glyph glyph-name="uni4a" unicode="&#x4a;" d="M240 244L240 674L331 674L331 235Q331-12 112-12Q52-12 4 7L19 80Q56 64 105 64Q173 64 206.50 104Q240 144 240 244Z"  horiz-adv-x="405" vert-adv-y="1000"  />

      
      <glyph glyph-name="uni4b" unicode="&#x4b;" d="M81 0L81 674L172 674L172 348L175 348Q185 361 232 416L465 674L580 674L310 388L604 0L495 0L245 333L172 255L172 0L81 0Z"  horiz-adv-x="588" vert-adv-y="1000"  />

      
      <glyph glyph-name="uni4c" unicode="&#x4c;" d="M81 0L81 674L172 674L172 76L493 76L493 0L81 0Z"  horiz-adv-x="515" vert-adv-y="1000"  />

      
      <glyph glyph-name="uni4d" unicode="&#x4d;" d="M720 0L703 298Q691 526 691 597L689 597Q651 481 593 335L463 4L391 4L271 331Q218 481 187 597L185 597Q172 319 170 291L150 0L63 0L112 674L233 674L359 341Q399 235 432 116L434 116Q464 219 513 342L647 674L767 674L810 0L720 0Z"  horiz-adv-x="872" vert-adv-y="1000"  />

      
      <glyph glyph-name="uni4e" unicode="&#x4e;" d="M167 0L81 0L81 674L184 674L431 325Q518 200 562 111L565 112Q555 206 555 378L555 674L641 674L641 0L548 0L305 347Q206 493 164 572L161 571Q167 470 167 306L167 0Z"  horiz-adv-x="722" vert-adv-y="1000"  />

      
      <glyph glyph-name="uni4f" unicode="&#x4f;" d="M380-12L379-12Q229-12 133.50 84.50Q38 181 38 329Q38 486 137 586Q236 686 388 686Q541 686 636 589.50Q731 493 731 344Q731 181 630 84.50Q529-12 380-12M383 60L384 60Q498 60 566.50 139Q635 218 635 340Q635 451 568.50 532.50Q502 614 386 614Q267 614 200.50 533Q134 452 134 332Q134 218 202.50 139Q271 60 383 60Z"  horiz-adv-x="770" vert-adv-y="1000"  />

      
      <glyph glyph-name="uni50" unicode="&#x50;" d="M81 0L81 666Q161 680 267 680Q401 680 469 622Q532 567 532 480Q532 387 476 333Q400 260 254 260Q198 260 172 268L172 0L81 0M172 602L172 341Q202 332 258 332Q345 332 393 369.50Q441 407 441 476Q441 544 393.50 576.50Q346 609 267 609Q212 609 172 602Z"  horiz-adv-x="576" vert-adv-y="1000"  />

      
      <glyph glyph-name="uni51" unicode="&#x51;" d="M733-25L708-101Q554-65 416-22Q390-13 370-12Q230-6 134 85Q38 176 38 328Q38 486 137 586Q236 686 389 686Q542 686 636.50 589.50Q731 493 731 345Q731 222 671 137.50Q611 53 513 20L513 16Q646-13 733-25M382 60L383 60Q497 60 566 139Q635 218 635 340Q635 450 568.50 532Q502 614 388 614Q268 614 201 532Q134 450 134 330Q134 217 202.50 138.50Q271 60 382 60Z"  horiz-adv-x="770" vert-adv-y="1000"  />

      
      <glyph glyph-name="uni52" unicode="&#x52;" d="M81 0L81 665Q161 680 267 680Q411 680 477 623Q532 575 532 496Q532 432 494 387Q456 342 398 324L398 322Q472 295 500 190Q544 22 556 0L462 0Q446 27 415 160Q398 230 366 260Q334 290 271 292L172 292L172 0L81 0M172 602L172 360L279 360Q354 360 397.50 394.50Q441 429 441 486Q441 551 395.50 581Q350 611 273 611Q208 611 172 602Z"  horiz-adv-x="581" vert-adv-y="1000"  />

      
      <glyph glyph-name="uni53" unicode="&#x53;" d="M46 36L71 111Q148 62 246 62Q316 62 356.50 93.50Q397 125 397 177Q397 225 365.50 254.50Q334 284 257 308Q157 339 109 384.50Q61 430 61 501Q61 582 125.50 634Q190 686 293 686Q396 686 460 650L434 578Q372 613 291 613Q221 613 187 582Q153 551 153 511Q153 466 186.50 437.50Q220 409 299 384Q397 352 443 306.50Q489 261 489 184Q489 102 425.50 45Q362-12 237-12Q185-12 131 1.50Q77 15 46 36Z"  horiz-adv-x="537" vert-adv-y="1000"  />

      
      <glyph glyph-name="uni54" unicode="&#x54;" d="M226 0L226 600L-7 600L-7 674L551 674L551 600L317 600L317 0L226 0Z"  horiz-adv-x="544" vert-adv-y="1000"  />

      
      <glyph glyph-name="uni55" unicode="&#x55;" d="M81 674L172 674L172 292Q172 176 220.50 118.50Q269 61 352 61Q440 61 489.50 119Q539 177 539 292L539 674L630 674L630 296Q630 140 553 64Q476-12 347-12Q226-12 153.50 62Q81 136 81 294L81 674Z"  horiz-adv-x="711" vert-adv-y="1000"  />

      
      <glyph glyph-name="uni56" unicode="&#x56;" d="M344 0L243 0L0 674L99 674L216 336Q272 177 296 87L298 87Q323 171 386 334L516 674L613 674L344 0Z"  horiz-adv-x="603" vert-adv-y="1000"  />

      
      <glyph glyph-name="uni57" unicode="&#x57;" d="M296 0L198 0L13 674L110 674L198 327Q211 275 253 98L255 98Q268 169 314 328L414 674L513 674L602 324Q639 173 652 100L654 100Q667 161 713 328L813 674L907 674L696 0L599 0L508 358Q470 503 460 578L458 578Q442 494 401 359L296 0Z"  horiz-adv-x="910" vert-adv-y="1000"  />

      
      <glyph glyph-name="uni58" unicode="&#x58;" d="M602 0L494 0L399 145Q335 241 310 283L308 283Q287 243 224 144L136 0L28 0L257 341L37 674L145 674L244 515Q282 454 314 399L316 399Q339 439 386 514L489 674L598 674L368 345L602 0Z"  horiz-adv-x="631" vert-adv-y="1000"  />

      
      <glyph glyph-name="uni59" unicode="&#x59;" d="M340 0L249 0L249 286L14 674L119 674L226 482Q293 359 298 347L300 347Q314 377 374 482L484 674L589 674L340 287L340 0Z"  horiz-adv-x="590" vert-adv-y="1000"  />

      
      <glyph glyph-name="uni5a" unicode="&#x5a;" d="M33 0L33 52L455 597L455 600L69 600L69 674L577 674L577 621L157 77L157 74L584 74L584 0L33 0Z"  horiz-adv-x="619" vert-adv-y="1000"  />

      
      <glyph glyph-name="uni5b" unicode="&#x5b;" d="M279-112L84-112L84 686L279 686L279 631L155 631L155-57L279-57L279-112Z"  horiz-adv-x="294" vert-adv-y="1000"  />

      
      <glyph glyph-name="uni5c" unicode="&#x5c;" d="M371-40L300-40L2 686L73 686L371-40Z"  horiz-adv-x="367" vert-adv-y="1000"  />

      
      <glyph glyph-name="uni5d" unicode="&#x5d;" d="M15 686L210 686L210-112L15-112L15-57L139-57L139 631L15 631L15 686Z"  horiz-adv-x="294" vert-adv-y="1000"  />

      
      <glyph glyph-name="uni5e" unicode="&#x5e;" d="M537 189L465 189L299 577L297 577L130 189L59 189L266 650L330 650L537 189Z"  horiz-adv-x="596" vert-adv-y="1000"  />

      
      <glyph glyph-name="uni5f" unicode="&#x5f;" d="M0-75L500-75L500-125L0-125L0-75Z"  horiz-adv-x="500" vert-adv-y="1000"  />

      
      <glyph glyph-name="uni60" unicode="&#x60;" d="M16 697L119 697L210 551L144 551L16 697Z"  horiz-adv-x="300" vert-adv-y="1000"  />

      
      <glyph glyph-name="uni61" unicode="&#x61;" d="M448 289L448 118Q448 45 456 0L373 0L365 64L362 64Q338 33 294.50 10.50Q251-12 197-12Q121-12 79.50 30Q38 72 38 127Q38 215 119 262.50Q200 310 357 309L357 318Q357 334 353.50 349Q350 364 339 384.50Q328 405 301.50 417.50Q275 430 236 430Q154 430 95 390L73 450Q145 496 249 496Q308 496 349.50 477.50Q391 459 411 426.50Q431 394 439.50 361Q448 328 448 289M359 167L359 246Q131 252 131 139Q131 99 156.50 77Q182 55 221 55Q271 55 305.50 80Q340 105 354 139Q359 150 359 167Z"  horiz-adv-x="522" vert-adv-y="1000"  />

      
      <glyph glyph-name="uni62" unicode="&#x62;" d="M80 128L80 716L171 716L171 400L173 400Q230 496 359 496Q459 496 523 426.50Q587 357 586 249Q586 127 514 57.50Q442-12 345-12Q221-12 161 85L159 85L155 0L76 0Q80 47 80 128M171 273L171 202Q171 184 175 169Q188 124 229.50 92Q271 60 326 60Q403 60 448.50 110Q494 160 494 246Q494 323 450 374.50Q406 426 330 426Q278 426 235 395Q192 364 177 310Q171 290 171 273Z"  horiz-adv-x="626" vert-adv-y="1000"  />

      
      <glyph glyph-name="uni63" unicode="&#x63;" d="M445 88L461 19Q391-12 303-12Q184-12 112 57.50Q40 127 40 236Q40 351 118 423.50Q196 496 323 496Q407 496 463 467L442 398Q392 424 323 424Q235 424 184 372.50Q133 321 133 242Q133 160 186 110.50Q239 61 320 61Q382 61 445 88Z"  horiz-adv-x="496" vert-adv-y="1000"  />

      
      <glyph glyph-name="uni64" unicode="&#x64;" d="M448 716L539 716L539 128Q539 47 543 0L461 0L457 91L455 91Q431 44 382.50 16Q334-12 270-12Q172-12 106 57.50Q40 127 40 233Q39 350 109 423Q179 496 281 496Q341 496 384 472.50Q427 449 446 417L448 417L448 716M448 214L448 283Q448 306 444 322Q431 367 391.50 396.50Q352 426 298 426Q223 426 177.50 374Q132 322 132 240Q132 163 175.50 112Q219 61 297 61Q349 61 390 93Q431 125 443 174Q448 190 448 214Z"  horiz-adv-x="619" vert-adv-y="1000"  />

      
      <glyph glyph-name="uni65" unicode="&#x65;" d="M504 223L127 223Q128 144 179.50 101.50Q231 59 310 59Q395 59 462 86L478 21Q397-12 298-12Q179-12 109 55.50Q39 123 39 233Q39 344 107 420Q175 496 289 496Q340 496 379.50 479.50Q419 463 442.50 438Q466 413 481.50 380.50Q497 348 502.50 319.50Q508 291 508 263Q508 235 504 223M128 288L420 288Q420 307 415 328.50Q410 350 397 375Q384 400 354 416Q324 432 282 432Q212 432 173.50 387.50Q135 343 128 288Z"  horiz-adv-x="547" vert-adv-y="1000"  />

      
      <glyph glyph-name="uni66" unicode="&#x66;" d="M177 0L86 0L86 415L16 415L16 484L86 484L86 505Q86 627 147 682Q196 728 271 728Q317 728 351 713L340 643Q314 655 278 655Q176 655 176 508L176 484L303 484L303 415L177 415L177 0Z"  horiz-adv-x="314" vert-adv-y="1000"  />

      
      <glyph glyph-name="uni67" unicode="&#x67;" d="M533 358L533 74Q533-85 457-152Q388-212 265-212Q150-212 86-167L109-97Q178-141 268-141Q348-141 395.50-98Q443-55 443 36L443 91L441 91Q385 2 267 2Q169 2 104.50 70.50Q40 139 40 238Q40 353 111 424.50Q182 496 280 496Q402 496 451 405L453 405L456 484L537 484Q533 437 533 358M442 217L442 286Q442 305 437 327Q422 371 384.50 399Q347 427 295 427Q224 427 178 377Q132 327 132 243Q132 173 174 122Q216 71 294 71Q342 71 380.50 98.50Q419 126 434 169Q442 191 442 217Z"  horiz-adv-x="613" vert-adv-y="1000"  />

      
      <glyph glyph-name="uni68" unicode="&#x68;" d="M80 0L80 716L171 716L171 401L173 401Q200 446 244 469Q288 496 342 496Q371 496 400 486.50Q429 477 460 455Q491 433 510 387Q529 341 529 277L529 0L438 0L438 268Q438 336 407 378.50Q376 421 311 421Q265 421 229 394Q193 367 178 330Q171 315 171 286L171 0L80 0Z"  horiz-adv-x="605" vert-adv-y="1000"  />

      
      <glyph glyph-name="uni69" unicode="&#x69;" d="M171 0L80 0L80 484L171 484L171 0M125 568L124 568Q99 568 83.50 584.50Q68 601 68 624Q68 647 84 663.50Q100 680 126 680Q151 680 167 664Q183 648 183 624Q183 601 167 584.50Q151 568 125 568Z"  horiz-adv-x="250" vert-adv-y="1000"  />

      
      <glyph glyph-name="uni6a" unicode="&#x6a;" d="M-42-215L-51-143Q21-140 55-106Q75-84 83.50-44.50Q92-5 92 85L92 484L183 484L183 47Q183-95 122-157Q65-215-42-215M137 568L136 568Q111 568 95.50 584.50Q80 601 80 624Q80 647 96.50 663.50Q113 680 139 680Q164 680 179.50 663.50Q195 647 195 624Q195 601 179.50 584.50Q164 568 137 568Z"  horiz-adv-x="262" vert-adv-y="1000"  />

      
      <glyph glyph-name="uni6b" unicode="&#x6b;" d="M171 716L171 263L173 263Q203 300 221 318L379 484L492 484L285 286L523 0L409 0L222 234L171 182L171 0L80 0L80 716L171 716Z"  horiz-adv-x="507" vert-adv-y="1000"  />

      
      <glyph glyph-name="uni6c" unicode="&#x6c;" d="M80 0L80 716L171 716L171 0L80 0Z"  horiz-adv-x="250" vert-adv-y="1000"  />

      
      <glyph glyph-name="uni6d" unicode="&#x6d;" d="M80 0L80 351Q80 429 76 484L155 484L160 401L163 401Q220 496 330 496Q383 496 422.50 467Q462 438 478 392L480 392Q504 434 537 457Q588 496 657 496Q678 496 699.50 490.50Q721 485 745.50 470Q770 455 788.50 431.50Q807 408 819 367Q831 326 831 273L831 0L742 0L742 264Q742 341 711.50 381.50Q681 422 624 422Q585 422 554 398.50Q523 375 508 341Q500 315 500 296L500 0L411 0L411 282Q411 346 381 384Q351 422 299 422Q256 422 223.50 394.50Q191 367 177 331Q169 310 169 287L169 0L80 0Z"  horiz-adv-x="906" vert-adv-y="1000"  />

      
      <glyph glyph-name="uni6e" unicode="&#x6e;" d="M80 0L80 351Q80 429 76 484L157 484L162 398L165 398Q186 438 232.50 467Q279 496 341 496Q370 496 399 486.50Q428 477 459 455Q490 433 509.50 387Q529 341 529 277L529 0L438 0L438 269Q438 338 407 380Q376 422 311 422Q264 422 228.50 394.50Q193 367 178 328Q171 309 171 288L171 0L80 0Z"  horiz-adv-x="605" vert-adv-y="1000"  />

      
      <glyph glyph-name="uni6f" unicode="&#x6f;" d="M298-12L297-12Q186-12 112.50 57.50Q39 127 39 237Q39 353 114.50 424.50Q190 496 305 496Q421 496 492.50 425.50Q564 355 564 248Q564 124 484.50 56Q405-12 298-12M299 55L300 55Q372 55 421 106Q470 157 470 244Q470 316 427 372.50Q384 429 303 429Q221 429 177 374Q133 319 133 241Q133 157 181 106Q229 55 299 55Z"  horiz-adv-x="604" vert-adv-y="1000"  />

      
      <glyph glyph-name="uni70" unicode="&#x70;" d="M80-200L80 324Q80 417 76 484L158 484L163 395L165 395Q228 496 359 496Q456 496 521 426.50Q586 357 586 251Q586 127 515 57.50Q444-12 343-12Q288-12 243 9.50Q198 31 173 71L171 71L171-200L80-200M171 273L171 203Q171 184 175 169Q188 123 229.50 90.50Q271 58 326 58Q403 58 448.50 109Q494 160 494 247Q494 322 450 373.50Q406 425 331 425Q278 425 235.50 394Q193 363 178 309Q171 290 171 273Z"  horiz-adv-x="626" vert-adv-y="1000"  />

      
      <glyph glyph-name="uni71" unicode="&#x71;" d="M448-200L448 83L446 83Q392-12 266-12Q171-12 105.50 57.50Q40 127 40 233Q40 299 62 351.50Q84 404 119.50 434.50Q155 465 196.50 480.50Q238 496 281 496Q343 496 386 470Q429 444 450 406L452 406L455 484L543 484Q539 427 539 357L539-200L448-200M448 204L448 283Q448 306 444 321Q430 366 391.50 395.50Q353 425 298 425Q223 425 177.50 373.50Q132 322 132 239Q132 163 174 111.50Q216 60 295 60Q345 60 384.50 88Q424 116 440 161Q448 180 448 204Z"  horiz-adv-x="617" vert-adv-y="1000"  />

      
      <glyph glyph-name="uni72" unicode="&#x72;" d="M80 0L80 325Q80 420 76 484L156 484L159 383L162 383Q181 436 220.50 466Q260 496 308 496Q322 496 335 493L335 409Q320 412 301 412Q252 412 218.50 380.50Q185 349 175 296Q171 279 171 255L171 0L80 0Z"  horiz-adv-x="354" vert-adv-y="1000"  />

      
      <glyph glyph-name="uni73" unicode="&#x73;" d="M45 24L67 92Q129 55 197 55Q248 55 273 75.50Q298 96 298 128Q298 160 275.50 179Q253 198 199 214Q60 256 60 351Q60 412 108.50 454Q157 496 239 496Q316 496 368 464L346 398Q297 429 235 429Q194 429 171.50 410Q149 391 149 361Q149 331 172.50 314Q196 297 251 279Q322 256 354.50 222.50Q387 189 387 134Q387 70 336 29Q285-12 194-12Q110-12 45 24Z"  horiz-adv-x="432" vert-adv-y="1000"  />

      
      <glyph glyph-name="uni74" unicode="&#x74;" d="M100 576L189 601L189 484L326 484L326 415L189 415L189 162Q189 63 261 63Q294 63 318 70L323 2Q290-12 237-12Q170-12 136 28Q100 67 100 156L100 415L20 415L20 484L100 484L100 576Z"  horiz-adv-x="357" vert-adv-y="1000"  />

      
      <glyph glyph-name="uni75" unicode="&#x75;" d="M522 484L522 133Q522 52 526 0L445 0L440 88L438 88Q415 47 370 17.50Q325-12 259-12Q234-12 211.50-7Q189-2 163.50 12.50Q138 27 119.50 50.50Q101 74 88.50 115Q76 156 76 209L76 484L167 484L167 225Q167 63 290 63Q335 63 370 88Q405 113 422 149Q431 172 431 195L431 484L522 484Z"  horiz-adv-x="602" vert-adv-y="1000"  />

      
      <glyph glyph-name="uni76" unicode="&#x76;" d="M13 484L112 484L218 212Q247 137 264 85L266 85Q278 123 314 213L420 484L517 484L306 0L216 0L13 484Z"  horiz-adv-x="526" vert-adv-y="1000"  />

      
      <glyph glyph-name="uni77" unicode="&#x77;" d="M20 484L113 484L184 235Q209 146 223 81L225 81Q238 133 272 235L359 484L438 484L521 239Q550 149 567 81L569 81Q582 146 610 238L687 484L777 484L609 0L524 0L445 230Q413 320 396 394L394 394Q378 323 345 230L260 0L175 0L20 484Z"  horiz-adv-x="793" vert-adv-y="1000"  />

      
      <glyph glyph-name="uni78" unicode="&#x78;" d="M16 484L119 484L197 380Q221 349 252 304L254 304Q270 328 308 382L383 484L485 484L303 252L491 0L386 0L306 108Q301 115 248 193L246 193Q234 174 188 108L110 0L7 0L198 248L16 484Z"  horiz-adv-x="505" vert-adv-y="1000"  />

      
      <glyph glyph-name="uni79" unicode="&#x79;" d="M8 484L109 484L228 195Q246 150 263 97L265 97Q298 192 300 198L408 484L507 484L357 128Q302-6 262-72Q222-138 176-172Q119-215 61-223L42-147Q83-138 122-110Q173-75 205-6Q212 5 212 14Q212 24 205 38L8 484Z"  horiz-adv-x="513" vert-adv-y="1000"  />

      
      <glyph glyph-name="uni7a" unicode="&#x7a;" d="M19 0L19 52L260 332Q285 362 331 410L331 412L39 412L39 484L445 484L444 428L207 151Q151 88 137 74L137 72L450 72L450 0L19 0Z"  horiz-adv-x="466" vert-adv-y="1000"  />

      
      <glyph glyph-name="uni7b" unicode="&#x7b;" d="M28 262L28 313Q79 313 96 334Q113 355 113 389Q113 416 105 472Q96 522 96 554Q96 621 136.50 653.50Q177 686 248 686L271 686L271 630L252 630Q206 630 186 607.50Q166 585 166 540Q166 518 174 470Q182 424 182 394Q183 309 109 289L109 287Q183 269 182 181Q182 153 174 105Q166 55 166 35Q166-56 252-56L271-56L271-112L248-112Q96-112 96 28Q96 60 105 107Q113 161 113 186Q113 262 28 262Z"  horiz-adv-x="294" vert-adv-y="1000"  />

      
      <glyph glyph-name="uni7c" unicode="&#x7c;" d="M92 750L160 750L160-250L92-250L92 750Z"  horiz-adv-x="251" vert-adv-y="1000"  />

      
      <glyph glyph-name="uni7d" unicode="&#x7d;" d="M266 313L266 262Q181 262 181 186Q181 156 190 107Q198 55 198 28Q198-112 46-112L23-112L23-56L42-56Q128-56 128 35Q128 55 120 105Q112 153 112 181Q111 269 185 287L185 289Q111 309 112 394Q112 424 120 470Q128 518 128 540Q128 585 108 607.50Q88 630 42 630L23 630L23 686L46 686Q117 686 157.50 653.50Q198 621 198 554Q198 528 190 472Q181 422 181 389Q181 355 198 334Q215 313 266 313Z"  horiz-adv-x="294" vert-adv-y="1000"  />

      
      <glyph glyph-name="uni7e" unicode="&#x7e;" d="M102 207L40 207Q38 282 72.50 322.50Q107 363 163 363Q194 363 221.50 354Q249 345 308 317Q401 274 438 274Q493 274 494 360L555 360Q558 278 523.50 241Q489 204 436 204Q387 204 287 250Q278 254 260.50 262.50Q243 271 233.50 275Q224 279 211 284.50Q198 290 187 292Q176 294 165 294Q105 294 102 207Z"  horiz-adv-x="596" vert-adv-y="1000"  />

      
      <glyph glyph-name="unia1" unicode="&#xa1;" d="M170-196L69-196L85 278L154 278L170-196M120 486L121 486Q148 486 165 468Q182 450 182 421Q182 394 164.50 375.50Q147 357 120 357Q93 357 75 375.50Q57 394 58 421Q58 450 75 468Q92 486 120 486Z"  horiz-adv-x="239" vert-adv-y="1000"  />

      
      <glyph glyph-name="unia2" unicode="&#xa2;" d="M356-17L291-17L291 86Q190 97 127 161Q69 226 69 325Q69 425 129.50 494Q190 563 291 577L291 680L356 680L356 579Q420 579 479 552L457 482Q412 510 340 510Q261 510 210.50 460Q160 410 160 332Q160 250 210 202.50Q260 155 334 155Q402 155 463 183L479 118Q428 90 356 86L356-17Z"  horiz-adv-x="556" vert-adv-y="1000"  />

      
      <glyph glyph-name="unia3" unicode="&#xa3;" d="M510 0L64 0L64 50Q184 114 184 225Q184 257 179 291L70 291L70 357L170 357Q159 425 159 462Q159 552 216 607Q273 662 363 662Q436 662 482 636L462 567Q425 589 363 589Q302 589 273 553.50Q244 518 244 458Q244 410 255 357L412 357L412 291L263 291Q267 216 259 184Q243 121 189 77L189 75L510 75L510 0Z"  horiz-adv-x="556" vert-adv-y="1000"  />

      
      <glyph glyph-name="unia4" unicode="&#xa4;" d="M277 536L278 536Q354 536 399 496L474 572L520 525L440 455Q478 408 478 336Q478 257 440 211L515 138L469 93L399 170Q353 128 275 128Q199 128 155 167L86 93L42 138L114 208Q73 255 73 329Q73 405 116 455L40 524L86 572L156 496Q206 536 277 536M275 472L274 472Q217 472 181 430.50Q145 389 145 331Q145 262 186 227Q227 192 274 192Q326 192 366 226.50Q406 261 406 336Q406 390 371 431Q336 472 275 472Z"  horiz-adv-x="556" vert-adv-y="1000"  />

      
      <glyph glyph-name="unia5" unicode="&#xa5;" d="M314 0L228 0L228 171L63 171L63 222L228 222L228 294L63 294L63 345L202 345L17 650L117 650L232 440Q257 394 274 352L277 352Q293 391 320 442L441 650L539 650L343 345L480 345L480 294L314 294L314 222L480 222L480 171L314 171L314 0Z"  horiz-adv-x="556" vert-adv-y="1000"  />

      
      <glyph glyph-name="unia6" unicode="&#xa6;" d="M92 174L160 174L160-176L92-176L92 174M92 674L160 674L160 324L92 324L92 674Z"  horiz-adv-x="251" vert-adv-y="1000"  />

      
      <glyph glyph-name="unia7" unicode="&#xa7;" d="M143 351L143 350Q143 321 168.50 297.50Q194 274 257 253Q351 222 377 207Q414 238 414 283Q414 346 318 378Q218 411 188 428Q143 396 143 351M448 648L425 590Q370 624 295 624Q247 624 216.50 603Q186 582 186 549Q186 515 217.50 495.50Q249 476 320 454Q404 428 447.50 393.50Q491 359 491 296Q491 224 425 175Q465 142 465 85Q465 11 405.50-27.50Q346-66 265-66Q159-66 97-22L123 36Q181-6 264-6Q316-6 348.50 16Q381 38 381 76Q381 112 353.50 134.50Q326 157 253 180Q160 209 114 243.50Q68 278 68 339Q68 409 143 456Q127 467 116 491.50Q105 516 105 540Q105 605 159.50 644Q214 683 297 683Q383 683 448 648Z"  horiz-adv-x="558" vert-adv-y="1000"  />

      
      <glyph glyph-name="unia8" unicode="&#xa8;" d="M53 571L52 571Q30 571 15.50 586.50Q1 602 1 624Q1 646 16.50 661.50Q32 677 54 677Q75 677 89.50 661.50Q104 646 104 624Q104 602 90 586.50Q76 571 53 571M248 571L246 571Q224 571 210 586.50Q196 602 196 624Q196 646 211 661.50Q226 677 248 677Q270 677 284.50 661.50Q299 646 299 624Q299 602 285 586.50Q271 571 248 571Z"  horiz-adv-x="300" vert-adv-y="1000"  />

      
      <glyph glyph-name="unia9" unicode="&#xa9;" d="M340 648L341 648Q466 648 553 558Q640 468 640 340Q640 211 553 120.50Q466 30 340 30Q213 30 125 120.50Q37 211 37 340Q37 468 125 558Q213 648 340 648M340 606L339 606Q232 606 159.50 528.50Q87 451 87 337Q87 225 160 148.50Q233 72 340 72Q445 71 517.50 148.50Q590 226 590 340Q590 452 517.50 529Q445 606 340 606M474 492L462 453Q423 477 364 477Q297 477 261 438.50Q225 400 225 337Q225 276 262 236Q299 196 366 196Q429 196 468 223L480 185Q433 153 356 153Q271 153 222 204Q173 255 173 334Q173 417 229.50 468.50Q286 520 363 520Q400 520 431.50 511.50Q463 503 474 492Z"  horiz-adv-x="677" vert-adv-y="1000"  />

      
      <glyph glyph-name="uniaa" unicode="&#xaa;" d="M325 267L262 267L256 311L254 311Q209 262 144 262Q92 262 63.50 289.50Q35 317 35 358Q35 412 90.50 443.50Q146 475 250 471L250 481Q250 490 246.50 501.50Q243 513 223.50 527.50Q204 542 171 542Q115 542 78 514L61 557Q110 592 184 592Q319 592 319 445L319 346Q319 303 325 267M252 377L252 427Q105 431 105 361Q105 338 122.50 324Q140 310 166 310Q190 310 210 321.50Q230 333 240 349Q252 366 252 377Z"  horiz-adv-x="370" vert-adv-y="1000"  />

      
      <glyph glyph-name="uniab" unicode="&#xab;" d="M246 440L103 252L247 65L173 65L30 252L172 440L246 440M417 440L274 252L418 65L344 65L201 252L343 440L417 440Z"  horiz-adv-x="441" vert-adv-y="1000"  />

      
      <glyph glyph-name="uniac" unicode="&#xac;" d="M40 400L556 400L556 122L490 122L490 338L40 338L40 400Z"  horiz-adv-x="596" vert-adv-y="1000"  />

      
      <glyph glyph-name="uniae" unicode="&#xae;" d="M192 496L192 430L152 430L152 596Q192 601 218 601Q256 601 276 588Q293 576 293 553Q293 524 258 514L258 512Q281 504 288 471Q294 438 301 430L258 430Q254 435 245 470Q241 496 210 496L192 496M193 571L193 524L211 524Q250 524 250 548Q250 573 214 573Q201 573 193 571M219 683L220 683Q291 683 340.50 634.50Q390 586 390 517Q390 446 340.50 397Q291 348 219 348Q146 348 96 397Q46 446 46 517Q46 586 96 634.50Q146 683 219 683M218 649L217 649Q163 649 126 610Q89 571 89 516Q89 460 126 421.50Q163 383 219 383Q274 382 310.50 421Q347 460 347 516Q347 572 310.50 610.50Q274 649 218 649Z"  horiz-adv-x="435" vert-adv-y="1000"  />

      
      <glyph glyph-name="uniaf" unicode="&#xaf;" d="M34 646L268 646L268 588L34 588L34 646Z"  horiz-adv-x="300" vert-adv-y="1000"  />

      
      <glyph glyph-name="uni02C9" unicode="&#x02C9;" d="M34 646L268 646L268 588L34 588L34 646Z"  horiz-adv-x="300" vert-adv-y="1000"  />

      
      <glyph glyph-name="unib0" unicode="&#xb0;" d="M166 686L167 686Q228 686 264.50 647.50Q301 609 301 555Q301 496 260 458Q219 420 164 420Q105 420 67 458Q29 496 29 549Q29 607 68.50 646.50Q108 686 166 686M164 637L163 637Q126 637 106 610.50Q86 584 86 550Q86 516 108.50 492.50Q131 469 164 469Q199 469 221.50 493Q244 517 244 554Q244 585 224.50 611Q205 637 164 637Z"  horiz-adv-x="330" vert-adv-y="1000"  />

      
      <glyph glyph-name="unib1" unicode="&#xb1;" d="M265 573L331 573L331 379L556 379L556 317L331 317L331 117L265 117L265 317L40 317L40 379L265 379L265 573M40 62L556 62L556 0L40 0L40 62Z"  horiz-adv-x="596" vert-adv-y="1000"  />

      
      <glyph glyph-name="unib2" unicode="&#xb2;" d="M15 451L15 491L86 552Q161 618 188.50 651Q216 684 216 717Q216 747 196 767.50Q176 788 135 788Q91 788 45 756L23 802Q76 846 153 846Q222 846 257.50 811Q293 776 293 731Q293 679 260 638Q227 597 151 534L120 509L120 507L300 507L300 451L15 451Z"  horiz-adv-x="333" vert-adv-y="1000"  />

      
      <glyph glyph-name="unib3" unicode="&#xb3;" d="M50 764L31 813Q85 846 156 846Q221 846 253 818.50Q285 791 285 751Q285 721 263 697Q241 673 204 660L204 658Q248 653 275 626Q302 599 302 562Q302 514 258 480Q214 446 137 446Q56 446 11 476L31 527Q74 499 132 499Q179 499 202.50 520Q226 541 225 565Q224 600 191 617Q158 634 113 634L80 634L80 681L114 681Q150 681 179 696.50Q208 712 209 744Q209 763 192.50 778Q176 793 142 793Q92 793 50 764Z"  horiz-adv-x="328" vert-adv-y="1000"  />

      
      <glyph glyph-name="unib4" unicode="&#xb4;" d="M189 697L292 697L164 551L98 551L189 697Z"  horiz-adv-x="300" vert-adv-y="1000"  />

      
      <glyph glyph-name="unib5" unicode="&#xb5;" d="M444 83L440 83Q419 45 379.50 17Q340-11 284-11Q198-11 164 48L164-8Q164-153 176-200L95-200Q80-156 80-11L80 484L171 484L171 209Q171 144 202 103.50Q233 63 295 63Q339 63 374 88Q409 113 426 149Q435 172 435 195L435 484L526 484L526 143Q526 98 537 79.50Q548 61 577 59L570-7Q550-12 538-12Q500-12 474.50 11.50Q449 35 444 83Z"  horiz-adv-x="604" vert-adv-y="1000"  />

      
      <glyph glyph-name="unib6" unicode="&#xb6;" d="M312-49L246-49L246 261L238 261Q163 261 99 313Q35 365 35 455Q35 497 47.50 533Q60 569 90.50 603.50Q121 638 181.50 657.50Q242 677 327 677Q418 677 454 668L454-49L388-49L388 614L312 614L312-49Z"  horiz-adv-x="549" vert-adv-y="1000"  />

      
      <glyph glyph-name="unib7" unicode="&#xb7;" d="M105 200L104 200Q77 200 59.50 218.50Q42 237 43 264Q43 293 60 311Q77 329 105 329Q133 329 150 311Q167 293 167 264Q167 237 149.50 218.50Q132 200 105 200Z"  horiz-adv-x="211" vert-adv-y="1000"  />

      
      <glyph glyph-name="uni2219" unicode="&#x2219;" d="M105 200L104 200Q77 200 59.50 218.50Q42 237 43 264Q43 293 60 311Q77 329 105 329Q133 329 150 311Q167 293 167 264Q167 237 149.50 218.50Q132 200 105 200Z"  horiz-adv-x="211" vert-adv-y="1000"  />

      
      <glyph glyph-name="unib8" unicode="&#xb8;" d="M133 2L189 2L155-50Q184-53 205-72Q226-91 226-118Q226-160 196-180Q166-200 117-200Q78-200 49-183L63-140Q89-154 119-154Q139-154 152-146.50Q165-139 164-122Q163-87 83-81L133 2Z"  horiz-adv-x="300" vert-adv-y="1000"  />

      
      <glyph glyph-name="unib9" unicode="&#xb9;" d="M183 451L110 451L110 778L108 778L37 745L25 798L118 841L183 841L183 451Z"  horiz-adv-x="255" vert-adv-y="1000"  />

      
      <glyph glyph-name="uniba" unicode="&#xba;" d="M187 592L188 592Q265 592 313 545Q361 498 361 430Q360 350 307.50 306Q255 262 186 262Q113 262 63 307.50Q13 353 13 423Q13 498 64 545Q115 592 187 592M186 541L185 541Q137 541 110 506Q83 471 83 425Q83 375 114.50 344Q146 313 187 313Q231 313 260.50 343Q290 373 290 427Q290 470 263 505.50Q236 541 186 541Z"  horiz-adv-x="373" vert-adv-y="1000"  />

      
      <glyph glyph-name="unibb" unicode="&#xbb;" d="M168 252L24 440L97 440L240 252L97 65L25 65L168 252M338 252L194 440L267 440L410 252L267 65L194 65L338 252Z"  horiz-adv-x="441" vert-adv-y="1000"  />

      
      <glyph glyph-name="unibc" unicode="&#xbc;" d="M205 267L132 267L132 594L130 594L59 561L47 614L140 657L205 657L205 267M207-12L149-12L541 662L600 662L207-12M706 0L636 0L636 101L418 101L418 141L628 395L706 395L706 151L771 151L771 101L706 101L706 0M636 151L636 275Q636 306 639 335L637 335Q632 327 621 309.50Q610 292 604 285L494 152L495 151L636 151Z"  horiz-adv-x="808" vert-adv-y="1000"  />

      
      <glyph glyph-name="unibd" unicode="&#xbd;" d="M191 267L118 267L118 594L116 594L45 561L33 614L126 657L191 657L191 267M190-12L131-12L523 662L582 662L190-12M469 0L469 40L539 101Q614 166 642 199.50Q670 233 670 266Q670 296 650 316.50Q630 337 589 337Q545 337 499 305L477 351Q530 395 607 395Q676 395 711.50 360Q747 325 747 281Q747 253 738.50 229.50Q730 206 706.50 179Q683 152 665 135.50Q647 119 605 83L574 58L574 56L754 56L754 0L469 0Z"  horiz-adv-x="808" vert-adv-y="1000"  />

      
      <glyph glyph-name="unibe" unicode="&#xbe;" d="M69 580L50 628Q102 662 174 662Q239 662 271.50 634.50Q304 607 304 567Q304 537 282 513Q260 489 223 476L223 474Q267 469 294 442Q321 415 321 378Q321 330 277 296Q233 262 156 262Q75 262 30 292L50 343Q93 315 151 315Q198 315 221.50 336Q245 357 244 381Q243 416 210 433Q177 450 132 450L99 450L99 497L133 497Q169 497 198 512.50Q227 528 228 560Q228 579 211.50 594Q195 609 161 609Q111 609 69 580M251-12L193-12L585 662L644 662L251-12M720 0L650 0L650 101L431 101L431 141L642 395L720 395L720 151L785 151L785 101L720 101L720 0M650 151L650 275Q650 306 653 335L651 335Q621 289 618 285L507 152L508 151L650 151Z"  horiz-adv-x="808" vert-adv-y="1000"  />

      
      <glyph glyph-name="unibf" unicode="&#xbf;" d="M258 486L259 486Q286 486 303 468Q320 450 320 421Q320 394 302.50 375.50Q285 357 258 357Q231 357 213.50 375.50Q196 394 196 421Q196 450 213 468Q230 486 258 486M217 281L299 281L301 251Q309 169 233 84Q159 5 159-49Q159-88 184.50-112Q210-136 260-137Q328-137 373-101L399-166Q335-211 241-211Q156-211 110.50-167.50Q65-124 65-60Q65-15 87 23Q109 61 155 109Q222 183 219 253L217 281Z"  horiz-adv-x="438" vert-adv-y="1000"  />

      
      <glyph glyph-name="unic0" unicode="&#xc0;" d="M469 215L200 215L122 0L27 0L281 674L392 674L649 0L550 0L469 215M220 285L449 285L372 487Q356 530 334 600L332 600Q313 532 297 488L220 285M185 830L296 830L388 711L313 711L185 830Z"  horiz-adv-x="671" vert-adv-y="1000"  />

      
      <glyph glyph-name="unic1" unicode="&#xc1;" d="M469 215L200 215L122 0L27 0L281 674L392 674L649 0L550 0L469 215M220 285L449 285L372 487Q356 530 334 600L332 600Q313 532 297 488L220 285M377 830L488 830L360 710L285 710L377 830Z"  horiz-adv-x="671" vert-adv-y="1000"  />

      
      <glyph glyph-name="unic2" unicode="&#xc2;" d="M469 215L200 215L122 0L27 0L281 674L392 674L649 0L550 0L469 215M220 285L449 285L372 487Q356 530 334 600L332 600Q313 532 297 488L220 285M307 830L374 830L485 710L409 710L342 784L340 784L272 710L199 710L307 830Z"  horiz-adv-x="671" vert-adv-y="1000"  />

      
      <glyph glyph-name="unic3" unicode="&#xc3;" d="M469 215L200 215L122 0L27 0L281 674L392 674L649 0L550 0L469 215M220 285L449 285L372 487Q356 530 334 600L332 600Q313 532 297 488L220 285M258 715L209 715Q207 762 226.50 790.50Q246 819 280 819Q304 819 343 797Q377 779 394 779Q406 779 412.50 787.50Q419 796 421 819L469 819Q471 720 400 720Q373 720 335 740Q299 760 285 760Q263 760 258 715Z"  horiz-adv-x="671" vert-adv-y="1000"  />

      
      <glyph glyph-name="unic4" unicode="&#xc4;" d="M469 215L200 215L122 0L27 0L281 674L392 674L649 0L550 0L469 215M220 285L449 285L372 487Q356 530 334 600L332 600Q313 532 297 488L220 285M243 720L242 720Q220 720 206 735.50Q192 751 192 772Q192 793 207 808.50Q222 824 244 824Q265 824 279 809Q293 794 293 772Q293 751 279 735.50Q265 720 243 720M436 720L435 720Q414 720 400 735.50Q386 751 386 772Q386 793 401 808.50Q416 824 437 824Q459 824 473 809Q487 794 487 772Q487 751 472.50 735.50Q458 720 436 720Z"  horiz-adv-x="671" vert-adv-y="1000"  />

      
      <glyph glyph-name="unic5" unicode="&#xc5;" d="M469 215L200 215L122 0L27 0L281 674L392 674L649 0L550 0L469 215M220 285L449 285L372 487Q356 530 334 600L332 600Q313 532 297 488L220 285M337 882L338 882Q383 882 410.50 856Q438 830 438 790Q438 752 409.50 726.50Q381 701 337 701Q292 701 263.50 726.50Q235 752 235 790Q235 829 263 855.50Q291 882 337 882M336 845L335 845Q313 845 300 829Q287 813 287 790Q287 769 301 753.50Q315 738 336 738Q358 738 371.50 753Q385 768 385 791Q385 814 371 829.50Q357 845 336 845Z"  horiz-adv-x="671" vert-adv-y="1000"  />

      
      <glyph glyph-name="unic6" unicode="&#xc6;" d="M91 0L-4 0L339 674L800 674L800 600L480 600L510 388L788 388L788 314L522 314L558 74L827 74L827 0L480 0L445 243L214 243L91 0M247 317L434 317L407 506Q395 588 394 608L390 608Q370 563 346 515L247 317Z"  horiz-adv-x="865" vert-adv-y="1000"  />

      
      <glyph glyph-name="unic7" unicode="&#xc7;" d="M592 96L611 25Q542-10 405-11L379-50Q410-56 430.50-76Q451-96 451-126Q451-168 420.50-188Q390-208 345-208Q299-208 272-192L286-146Q310-159 343-159Q387-159 387-127Q387-95 306-85L350-8Q210 7 124 97Q38 187 38 332Q38 482 144.50 584Q251 686 428 686Q545 686 613 652L590 580Q522 612 432 612Q293 612 213.50 536Q134 460 134 333Q134 215 210.50 139.50Q287 64 425 64Q525 64 592 96Z"  horiz-adv-x="648" vert-adv-y="1000"  />

      
      <glyph glyph-name="unic8" unicode="&#xc8;" d="M464 389L464 315L172 315L172 74L498 74L498 0L81 0L81 674L481 674L481 600L172 600L172 389L464 389M140 830L251 830L343 711L268 711L140 830Z"  horiz-adv-x="537" vert-adv-y="1000"  />

      
      <glyph glyph-name="unic9" unicode="&#xc9;" d="M464 389L464 315L172 315L172 74L498 74L498 0L81 0L81 674L481 674L481 600L172 600L172 389L464 389M322 830L433 830L305 710L230 710L322 830Z"  horiz-adv-x="537" vert-adv-y="1000"  />

      
      <glyph glyph-name="unica" unicode="&#xca;" d="M464 389L464 315L172 315L172 74L498 74L498 0L81 0L81 674L481 674L481 600L172 600L172 389L464 389M246 830L313 830L424 710L348 710L281 784L279 784L211 710L138 710L246 830Z"  horiz-adv-x="537" vert-adv-y="1000"  />

      
      <glyph glyph-name="unicb" unicode="&#xcb;" d="M464 389L464 315L172 315L172 74L498 74L498 0L81 0L81 674L481 674L481 600L172 600L172 389L464 389M181 720L180 720Q158 720 144 735.50Q130 751 130 772Q130 793 145 808.50Q160 824 182 824Q203 824 217 809Q231 794 231 772Q231 751 217 735.50Q203 720 181 720M374 720L373 720Q352 720 338 735.50Q324 751 324 772Q324 793 339 808.50Q354 824 375 824Q397 824 411 809Q425 794 425 772Q425 751 410.50 735.50Q396 720 374 720Z"  horiz-adv-x="537" vert-adv-y="1000"  />

      
      <glyph glyph-name="unicc" unicode="&#xcc;" d="M81 674L172 674L172 0L81 0L81 674M-21 830L90 830L182 711L107 711L-21 830Z"  horiz-adv-x="253" vert-adv-y="1000"  />

      
      <glyph glyph-name="unicd" unicode="&#xcd;" d="M81 674L172 674L172 0L81 0L81 674M166 830L277 830L149 710L74 710L166 830Z"  horiz-adv-x="253" vert-adv-y="1000"  />

      
      <glyph glyph-name="unice" unicode="&#xce;" d="M81 674L172 674L172 0L81 0L81 674M92 830L159 830L270 710L194 710L127 784L125 784L57 710L-16 710L92 830Z"  horiz-adv-x="253" vert-adv-y="1000"  />

      
      <glyph glyph-name="unicf" unicode="&#xcf;" d="M81 674L172 674L172 0L81 0L81 674M31 720L30 720Q8 720-6 735.50Q-20 751-20 772Q-20 793-5 808.50Q10 824 32 824Q53 824 67 809Q81 794 81 772Q81 751 67 735.50Q53 720 31 720M224 720L223 720Q202 720 188 735.50Q174 751 174 772Q174 793 189 808.50Q204 824 225 824Q247 824 261 809Q275 794 275 772Q275 751 260.50 735.50Q246 720 224 720Z"  horiz-adv-x="253" vert-adv-y="1000"  />

      
      <glyph glyph-name="unid0" unicode="&#xd0;" d="M-3 302L-3 376L84 376L84 668Q198 683 296 683Q507 683 608 588Q705 499 705 354Q705 199 603 97Q492-8 266-8Q167-8 84 0L84 302L-3 302M382 376L382 302L175 302L175 69Q207 64 282 64Q443 64 526 142Q609 220 609 352Q611 474 532 542.50Q453 611 299 611Q229 611 175 601L175 376L382 376Z"  horiz-adv-x="744" vert-adv-y="1000"  />

      
      <glyph glyph-name="unid1" unicode="&#xd1;" d="M167 0L81 0L81 674L184 674L431 325Q518 200 562 111L565 112Q555 206 555 378L555 674L641 674L641 0L548 0L305 347Q206 493 164 572L161 571Q167 470 167 306L167 0M286 715L237 715Q235 762 254.50 790.50Q274 819 308 819Q332 819 371 797Q405 779 422 779Q434 779 440.50 787.50Q447 796 449 819L497 819Q499 720 428 720Q401 720 363 740Q327 760 313 760Q291 760 286 715Z"  horiz-adv-x="722" vert-adv-y="1000"  />

      
      <glyph glyph-name="unid2" unicode="&#xd2;" d="M380-12L379-12Q229-12 133.50 84.50Q38 181 38 329Q38 486 137 586Q236 686 388 686Q541 686 636 589.50Q731 493 731 344Q731 181 630 84.50Q529-12 380-12M383 60L384 60Q498 60 566.50 139Q635 218 635 340Q635 451 568.50 532.50Q502 614 386 614Q267 614 200.50 533Q134 452 134 332Q134 218 202.50 139Q271 60 383 60M237 833L348 833L440 714L365 714L237 833Z"  horiz-adv-x="770" vert-adv-y="1000"  />

      
      <glyph glyph-name="unid3" unicode="&#xd3;" d="M380-12L379-12Q229-12 133.50 84.50Q38 181 38 329Q38 486 137 586Q236 686 388 686Q541 686 636 589.50Q731 493 731 344Q731 181 630 84.50Q529-12 380-12M383 60L384 60Q498 60 566.50 139Q635 218 635 340Q635 451 568.50 532.50Q502 614 386 614Q267 614 200.50 533Q134 452 134 332Q134 218 202.50 139Q271 60 383 60M423 833L534 833L406 713L331 713L423 833Z"  horiz-adv-x="770" vert-adv-y="1000"  />

      
      <glyph glyph-name="unid4" unicode="&#xd4;" d="M380-12L379-12Q229-12 133.50 84.50Q38 181 38 329Q38 486 137 586Q236 686 388 686Q541 686 636 589.50Q731 493 731 344Q731 181 630 84.50Q529-12 380-12M383 60L384 60Q498 60 566.50 139Q635 218 635 340Q635 451 568.50 532.50Q502 614 386 614Q267 614 200.50 533Q134 452 134 332Q134 218 202.50 139Q271 60 383 60M350 833L417 833L528 713L452 713L385 787L383 787L315 713L242 713L350 833Z"  horiz-adv-x="770" vert-adv-y="1000"  />

      
      <glyph glyph-name="unid5" unicode="&#xd5;" d="M380-12L379-12Q229-12 133.50 84.50Q38 181 38 329Q38 486 137 586Q236 686 388 686Q541 686 636 589.50Q731 493 731 344Q731 181 630 84.50Q529-12 380-12M383 60L384 60Q498 60 566.50 139Q635 218 635 340Q635 451 568.50 532.50Q502 614 386 614Q267 614 200.50 533Q134 452 134 332Q134 218 202.50 139Q271 60 383 60M304 718L255 718Q253 765 272.50 793.50Q292 822 326 822Q350 822 389 800Q423 782 440 782Q452 782 458.50 790.50Q465 799 467 822L515 822Q517 723 446 723Q419 723 381 743Q345 763 331 763Q309 763 304 718Z"  horiz-adv-x="770" vert-adv-y="1000"  />

      
      <glyph glyph-name="unid6" unicode="&#xd6;" d="M380-12L379-12Q229-12 133.50 84.50Q38 181 38 329Q38 486 137 586Q236 686 388 686Q541 686 636 589.50Q731 493 731 344Q731 181 630 84.50Q529-12 380-12M383 60L384 60Q498 60 566.50 139Q635 218 635 340Q635 451 568.50 532.50Q502 614 386 614Q267 614 200.50 533Q134 452 134 332Q134 218 202.50 139Q271 60 383 60M289 720L288 720Q266 720 252 735.50Q238 751 238 772Q238 793 253 808.50Q268 824 290 824Q311 824 325 809Q339 794 339 772Q339 751 325 735.50Q311 720 289 720M482 720L481 720Q460 720 446 735.50Q432 751 432 772Q432 793 447 808.50Q462 824 483 824Q505 824 519 809Q533 794 533 772Q533 751 518.50 735.50Q504 720 482 720Z"  horiz-adv-x="770" vert-adv-y="1000"  />

      
      <glyph glyph-name="unid7" unicode="&#xd7;" d="M40 481L86 526L298 309L510 526L556 481L343 263L556 45L510 0L298 217L86 0L40 45L253 263L40 481Z"  horiz-adv-x="596" vert-adv-y="1000"  />

      
      <glyph glyph-name="unid8" unicode="&#xd8;" d="M121-44L70 0L139 85Q38 183 38 332Q38 487 138 586.50Q238 686 388 686Q494 686 579 629L647 714L702 672L633 587Q731 492 731 343Q731 179 630 83.50Q529-12 386-12Q278-12 193 45L121-44M192 154L532 567Q468 615 386 615Q267 615 199 533Q131 451 131 337Q131 238 190 153L192 154M578 518L241 106Q303 59 384 59Q500 59 569 139.50Q638 220 638 340Q638 441 581 517L578 518Z"  horiz-adv-x="770" vert-adv-y="1000"  />

      
      <glyph glyph-name="unid9" unicode="&#xd9;" d="M81 674L172 674L172 292Q172 176 220.50 118.50Q269 61 352 61Q440 61 489.50 119Q539 177 539 292L539 674L630 674L630 296Q630 140 553 64Q476-12 347-12Q226-12 153.50 62Q81 136 81 294L81 674M216 830L327 830L419 711L344 711L216 830Z"  horiz-adv-x="711" vert-adv-y="1000"  />

      
      <glyph glyph-name="unida" unicode="&#xda;" d="M81 674L172 674L172 292Q172 176 220.50 118.50Q269 61 352 61Q440 61 489.50 119Q539 177 539 292L539 674L630 674L630 296Q630 140 553 64Q476-12 347-12Q226-12 153.50 62Q81 136 81 294L81 674M398 830L509 830L381 710L306 710L398 830Z"  horiz-adv-x="711" vert-adv-y="1000"  />

      
      <glyph glyph-name="unidb" unicode="&#xdb;" d="M81 674L172 674L172 292Q172 176 220.50 118.50Q269 61 352 61Q440 61 489.50 119Q539 177 539 292L539 674L630 674L630 296Q630 140 553 64Q476-12 347-12Q226-12 153.50 62Q81 136 81 294L81 674M329 830L396 830L507 710L431 710L364 784L362 784L294 710L221 710L329 830Z"  horiz-adv-x="711" vert-adv-y="1000"  />

      
      <glyph glyph-name="unidc" unicode="&#xdc;" d="M81 674L172 674L172 292Q172 176 220.50 118.50Q269 61 352 61Q440 61 489.50 119Q539 177 539 292L539 674L630 674L630 296Q630 140 553 64Q476-12 347-12Q226-12 153.50 62Q81 136 81 294L81 674M263 720L262 720Q240 720 226 735.50Q212 751 212 772Q212 793 227 808.50Q242 824 264 824Q285 824 299 809Q313 794 313 772Q313 751 299 735.50Q285 720 263 720M456 720L455 720Q434 720 420 735.50Q406 751 406 772Q406 793 421 808.50Q436 824 457 824Q479 824 493 809Q507 794 507 772Q507 751 492.50 735.50Q478 720 456 720Z"  horiz-adv-x="711" vert-adv-y="1000"  />

      
      <glyph glyph-name="unidd" unicode="&#xdd;" d="M340 0L249 0L249 286L14 674L119 674L226 482Q293 359 298 347L300 347Q314 377 374 482L484 674L589 674L340 287L340 0M343 823L454 823L326 703L251 703L343 823Z"  horiz-adv-x="590" vert-adv-y="1000"  />

      
      <glyph glyph-name="unide" unicode="&#xde;" d="M81 0L81 674L171 674L171 543Q219 552 282 552Q408 552 474 494Q532 443 532 365Q532 260 458 204Q384 148 260 148Q207 148 171 154L171 0L81 0M171 472L171 227Q202 220 260 220Q347 220 394 256Q441 292 441 355Q441 421 395.50 451Q350 481 274 481Q212 481 171 472Z"  horiz-adv-x="576" vert-adv-y="1000"  />

      
      <glyph glyph-name="unidf" unicode="&#xdf;" d="M171 0L80 0L80 453Q80 608 154 675Q213 728 310 728Q389 728 443.50 681.50Q498 635 498 555Q498 506 475 473Q402 441 402 392Q402 368 413.50 351Q425 334 454 306Q477 284 485.50 275Q494 266 510.50 244Q527 222 533.50 199.50Q540 177 540 150Q540 78 491 33Q442-12 354-12Q285-12 239 11L256 80Q302 58 347 58Q395 58 422 82.50Q449 107 449 144Q449 196 394 244Q353 282 332 312Q311 342 311 380Q311 458 402 504Q410 524 410 545Q410 595 381 626Q352 657 300 657Q235 657 203 610Q171 563 171 459L171 0Z"  horiz-adv-x="587" vert-adv-y="1000"  />

      
      <glyph glyph-name="unie0" unicode="&#xe0;" d="M448 289L448 118Q448 45 456 0L373 0L365 64L362 64Q338 33 294.50 10.50Q251-12 197-12Q121-12 79.50 30Q38 72 38 127Q38 215 119 262.50Q200 310 357 309L357 318Q357 334 353.50 349Q350 364 339 384.50Q328 405 301.50 417.50Q275 430 236 430Q154 430 95 390L73 450Q145 496 249 496Q308 496 349.50 477.50Q391 459 411 426.50Q431 394 439.50 361Q448 328 448 289M359 167L359 246Q131 252 131 139Q131 99 156.50 77Q182 55 221 55Q271 55 305.50 80Q340 105 354 139Q359 150 359 167M107 697L210 697L301 551L235 551L107 697Z"  horiz-adv-x="522" vert-adv-y="1000"  />

      
      <glyph glyph-name="unie1" unicode="&#xe1;" d="M448 289L448 118Q448 45 456 0L373 0L365 64L362 64Q338 33 294.50 10.50Q251-12 197-12Q121-12 79.50 30Q38 72 38 127Q38 215 119 262.50Q200 310 357 309L357 318Q357 334 353.50 349Q350 364 339 384.50Q328 405 301.50 417.50Q275 430 236 430Q154 430 95 390L73 450Q145 496 249 496Q308 496 349.50 477.50Q391 459 411 426.50Q431 394 439.50 361Q448 328 448 289M359 167L359 246Q131 252 131 139Q131 99 156.50 77Q182 55 221 55Q271 55 305.50 80Q340 105 354 139Q359 150 359 167M294 697L397 697L269 551L203 551L294 697Z"  horiz-adv-x="522" vert-adv-y="1000"  />

      
      <glyph glyph-name="unie2" unicode="&#xe2;" d="M448 289L448 118Q448 45 456 0L373 0L365 64L362 64Q338 33 294.50 10.50Q251-12 197-12Q121-12 79.50 30Q38 72 38 127Q38 215 119 262.50Q200 310 357 309L357 318Q357 334 353.50 349Q350 364 339 384.50Q328 405 301.50 417.50Q275 430 236 430Q154 430 95 390L73 450Q145 496 249 496Q308 496 349.50 477.50Q391 459 411 426.50Q431 394 439.50 361Q448 328 448 289M359 167L359 246Q131 252 131 139Q131 99 156.50 77Q182 55 221 55Q271 55 305.50 80Q340 105 354 139Q359 150 359 167M223 697L287 697L388 551L318 551L256 648L254 648L192 551L124 551L223 697Z"  horiz-adv-x="522" vert-adv-y="1000"  />

      
      <glyph glyph-name="unie3" unicode="&#xe3;" d="M448 289L448 118Q448 45 456 0L373 0L365 64L362 64Q338 33 294.50 10.50Q251-12 197-12Q121-12 79.50 30Q38 72 38 127Q38 215 119 262.50Q200 310 357 309L357 318Q357 334 353.50 349Q350 364 339 384.50Q328 405 301.50 417.50Q275 430 236 430Q154 430 95 390L73 450Q145 496 249 496Q308 496 349.50 477.50Q391 459 411 426.50Q431 394 439.50 361Q448 328 448 289M359 167L359 246Q131 252 131 139Q131 99 156.50 77Q182 55 221 55Q271 55 305.50 80Q340 105 354 139Q359 150 359 167M178 569L128 569Q127 620 146 648.50Q165 677 198 677Q220 677 265 653Q295 636 308 636Q333 636 336 680L385 680Q387 576 315 576Q291 576 249 598Q217 616 205 616Q181 616 178 569Z"  horiz-adv-x="522" vert-adv-y="1000"  />

      
      <glyph glyph-name="unie4" unicode="&#xe4;" d="M448 289L448 118Q448 45 456 0L373 0L365 64L362 64Q338 33 294.50 10.50Q251-12 197-12Q121-12 79.50 30Q38 72 38 127Q38 215 119 262.50Q200 310 357 309L357 318Q357 334 353.50 349Q350 364 339 384.50Q328 405 301.50 417.50Q275 430 236 430Q154 430 95 390L73 450Q145 496 249 496Q308 496 349.50 477.50Q391 459 411 426.50Q431 394 439.50 361Q448 328 448 289M359 167L359 246Q131 252 131 139Q131 99 156.50 77Q182 55 221 55Q271 55 305.50 80Q340 105 354 139Q359 150 359 167M164 571L163 571Q141 571 126.50 586.50Q112 602 112 624Q112 646 127.50 661.50Q143 677 165 677Q186 677 200.50 661.50Q215 646 215 624Q215 602 201 586.50Q187 571 164 571M359 571L357 571Q335 571 321 586.50Q307 602 307 624Q307 646 322 661.50Q337 677 359 677Q381 677 395.50 661.50Q410 646 410 624Q410 602 396 586.50Q382 571 359 571Z"  horiz-adv-x="522" vert-adv-y="1000"  />

      
      <glyph glyph-name="unie5" unicode="&#xe5;" d="M448 289L448 118Q448 45 456 0L373 0L365 64L362 64Q338 33 294.50 10.50Q251-12 197-12Q121-12 79.50 30Q38 72 38 127Q38 215 119 262.50Q200 310 357 309L357 318Q357 334 353.50 349Q350 364 339 384.50Q328 405 301.50 417.50Q275 430 236 430Q154 430 95 390L73 450Q145 496 249 496Q308 496 349.50 477.50Q391 459 411 426.50Q431 394 439.50 361Q448 328 448 289M359 167L359 246Q131 252 131 139Q131 99 156.50 77Q182 55 221 55Q271 55 305.50 80Q340 105 354 139Q359 150 359 167M261 728L262 728Q307 728 335 701Q363 674 363 632Q363 592 333.50 565.50Q304 539 261 539Q216 539 186.50 566Q157 593 157 632Q157 673 186 700.50Q215 728 261 728M260 690L259 690Q236 690 222.50 673.50Q209 657 209 632Q209 610 223.50 593.50Q238 577 260 577Q284 577 298.50 593Q313 609 313 633Q313 657 298.50 673.50Q284 690 260 690Z"  horiz-adv-x="522" vert-adv-y="1000"  />

      
      <glyph glyph-name="unie6" unicode="&#xe6;" d="M802 230L444 230Q441 154 488.50 106.50Q536 59 612 59Q692 59 760 88L777 24Q707-12 603-12Q534-12 479.50 17.50Q425 47 402 100L399 100Q374 47 322 17.50Q270-12 201-12Q123-12 81 29.50Q39 71 39 125Q39 210 121 257Q203 304 359 301L359 319Q359 325 357 335.50Q355 346 347.50 363Q340 380 328 394Q316 408 292 418.50Q268 429 236 429Q154 429 96 389L74 449Q152 496 239 496Q372 496 410 388L412 388Q440 439 487.50 467.50Q535 496 597 496Q655 496 698.50 471Q742 446 763.50 408Q785 370 795 335Q805 300 805 269Q805 242 802 230M361 178L361 241Q131 247 131 133Q131 98 157 76.50Q183 55 222 55Q274 54 308 79Q342 104 355 141Q361 157 361 178M443 295L717 295Q718 311 712.50 332Q707 353 694 376.50Q681 400 653 416Q625 432 588 432Q521 432 483.50 387.50Q446 343 443 295Z"  horiz-adv-x="844" vert-adv-y="1000"  />

      
      <glyph glyph-name="unie7" unicode="&#xe7;" d="M444 88L460 19Q397-10 317-12L291-50Q322-56 342.50-75Q363-94 363-124Q363-167 332-187.50Q301-208 255-208Q213-208 185-191L199-146Q222-159 254-159Q300-159 300-127Q299-93 219-85L263-9Q162 1 101 68.50Q40 136 40 236Q40 351 117.50 423.50Q195 496 322 496Q406 496 462 467L441 398Q391 424 322 424Q234 424 183.50 372.50Q133 321 133 242Q133 160 185.50 110.50Q238 61 319 61Q381 61 444 88Z"  horiz-adv-x="496" vert-adv-y="1000"  />

      
      <glyph glyph-name="unie8" unicode="&#xe8;" d="M504 223L127 223Q128 144 179.50 101.50Q231 59 310 59Q395 59 462 86L478 21Q397-12 298-12Q179-12 109 55.50Q39 123 39 233Q39 344 107 420Q175 496 289 496Q340 496 379.50 479.50Q419 463 442.50 438Q466 413 481.50 380.50Q497 348 502.50 319.50Q508 291 508 263Q508 235 504 223M128 288L420 288Q420 307 415 328.50Q410 350 397 375Q384 400 354 416Q324 432 282 432Q212 432 173.50 387.50Q135 343 128 288M156 697L259 697L350 551L284 551L156 697Z"  horiz-adv-x="547" vert-adv-y="1000"  />

      
      <glyph glyph-name="unie9" unicode="&#xe9;" d="M504 223L127 223Q128 144 179.50 101.50Q231 59 310 59Q395 59 462 86L478 21Q397-12 298-12Q179-12 109 55.50Q39 123 39 233Q39 344 107 420Q175 496 289 496Q340 496 379.50 479.50Q419 463 442.50 438Q466 413 481.50 380.50Q497 348 502.50 319.50Q508 291 508 263Q508 235 504 223M128 288L420 288Q420 307 415 328.50Q410 350 397 375Q384 400 354 416Q324 432 282 432Q212 432 173.50 387.50Q135 343 128 288M327 697L430 697L302 551L236 551L327 697Z"  horiz-adv-x="547" vert-adv-y="1000"  />

      
      <glyph glyph-name="uniea" unicode="&#xea;" d="M504 223L127 223Q128 144 179.50 101.50Q231 59 310 59Q395 59 462 86L478 21Q397-12 298-12Q179-12 109 55.50Q39 123 39 233Q39 344 107 420Q175 496 289 496Q340 496 379.50 479.50Q419 463 442.50 438Q466 413 481.50 380.50Q497 348 502.50 319.50Q508 291 508 263Q508 235 504 223M128 288L420 288Q420 307 415 328.50Q410 350 397 375Q384 400 354 416Q324 432 282 432Q212 432 173.50 387.50Q135 343 128 288M253 697L317 697L418 551L348 551L286 648L284 648L222 551L154 551L253 697Z"  horiz-adv-x="547" vert-adv-y="1000"  />

      
      <glyph glyph-name="unieb" unicode="&#xeb;" d="M504 223L127 223Q128 144 179.50 101.50Q231 59 310 59Q395 59 462 86L478 21Q397-12 298-12Q179-12 109 55.50Q39 123 39 233Q39 344 107 420Q175 496 289 496Q340 496 379.50 479.50Q419 463 442.50 438Q466 413 481.50 380.50Q497 348 502.50 319.50Q508 291 508 263Q508 235 504 223M128 288L420 288Q420 307 415 328.50Q410 350 397 375Q384 400 354 416Q324 432 282 432Q212 432 173.50 387.50Q135 343 128 288M195 571L194 571Q172 571 157.50 586.50Q143 602 143 624Q143 646 158.50 661.50Q174 677 196 677Q217 677 231.50 661.50Q246 646 246 624Q246 602 232 586.50Q218 571 195 571M390 571L388 571Q366 571 352 586.50Q338 602 338 624Q338 646 353 661.50Q368 677 390 677Q412 677 426.50 661.50Q441 646 441 624Q441 602 427 586.50Q413 571 390 571Z"  horiz-adv-x="547" vert-adv-y="1000"  />

      
      <glyph glyph-name="uniec" unicode="&#xec;" d="M171 0L80 0L80 484L171 484L171 0M-28 697L75 697L166 551L100 551L-28 697Z"  horiz-adv-x="250" vert-adv-y="1000"  />

      
      <glyph glyph-name="unied" unicode="&#xed;" d="M171 0L80 0L80 484L171 484L171 0M163 697L266 697L138 551L72 551L163 697Z"  horiz-adv-x="250" vert-adv-y="1000"  />

      
      <glyph glyph-name="uniee" unicode="&#xee;" d="M171 0L80 0L80 484L171 484L171 0M92 697L156 697L257 551L187 551L125 648L123 648L61 551L-7 551L92 697Z"  horiz-adv-x="250" vert-adv-y="1000"  />

      
      <glyph glyph-name="unief" unicode="&#xef;" d="M171 0L80 0L80 484L171 484L171 0M28 571L27 571Q5 571-9.50 586.50Q-24 602-24 624Q-24 646-8.50 661.50Q7 677 29 677Q50 677 64.50 661.50Q79 646 79 624Q79 602 65 586.50Q51 571 28 571M223 571L221 571Q199 571 185 586.50Q171 602 171 624Q171 646 186 661.50Q201 677 223 677Q245 677 259.50 661.50Q274 646 274 624Q274 602 260 586.50Q246 571 223 571Z"  horiz-adv-x="250" vert-adv-y="1000"  />

      
      <glyph glyph-name="unif0" unicode="&#xf0;" d="M293 55L294 55Q367 55 412.50 105Q458 155 458 245Q458 295 449 324.50Q440 354 417 376Q368 423 297 423Q217 423 175 365.50Q133 308 133 235Q133 155 179.50 105Q226 55 293 55M128 507L109 554L236 611Q186 643 121 665L157 725Q244 693 317 645L457 709L478 662L365 611Q460 541 509 442Q552 356 552 254Q552 166 513.50 104Q475 42 418 15Q361-12 293-12Q183-12 111 57Q39 126 39 234Q39 345 113 414.50Q187 484 288 484Q366 484 422 432L424 435Q368 520 287 577L128 507Z"  horiz-adv-x="595" vert-adv-y="1000"  />

      
      <glyph glyph-name="unif1" unicode="&#xf1;" d="M80 0L80 351Q80 429 76 484L157 484L162 398L165 398Q186 438 232.50 467Q279 496 341 496Q370 496 399 486.50Q428 477 459 455Q490 433 509.50 387Q529 341 529 277L529 0L438 0L438 269Q438 338 407 380Q376 422 311 422Q264 422 228.50 394.50Q193 367 178 328Q171 309 171 288L171 0L80 0M225 569L175 569Q174 620 193 648.50Q212 677 245 677Q267 677 312 653Q342 636 355 636Q380 636 383 680L432 680Q434 576 362 576Q338 576 296 598Q264 616 252 616Q228 616 225 569Z"  horiz-adv-x="605" vert-adv-y="1000"  />

      
      <glyph glyph-name="unif2" unicode="&#xf2;" d="M298-12L297-12Q186-12 112.50 57.50Q39 127 39 237Q39 353 114.50 424.50Q190 496 305 496Q421 496 492.50 425.50Q564 355 564 248Q564 124 484.50 56Q405-12 298-12M299 55L300 55Q372 55 421 106Q470 157 470 244Q470 316 427 372.50Q384 429 303 429Q221 429 177 374Q133 319 133 241Q133 157 181 106Q229 55 299 55M168 697L271 697L362 551L296 551L168 697Z"  horiz-adv-x="604" vert-adv-y="1000"  />

      
      <glyph glyph-name="unif3" unicode="&#xf3;" d="M298-12L297-12Q186-12 112.50 57.50Q39 127 39 237Q39 353 114.50 424.50Q190 496 305 496Q421 496 492.50 425.50Q564 355 564 248Q564 124 484.50 56Q405-12 298-12M299 55L300 55Q372 55 421 106Q470 157 470 244Q470 316 427 372.50Q384 429 303 429Q221 429 177 374Q133 319 133 241Q133 157 181 106Q229 55 299 55M335 697L438 697L310 551L244 551L335 697Z"  horiz-adv-x="604" vert-adv-y="1000"  />

      
      <glyph glyph-name="unif4" unicode="&#xf4;" d="M298-12L297-12Q186-12 112.50 57.50Q39 127 39 237Q39 353 114.50 424.50Q190 496 305 496Q421 496 492.50 425.50Q564 355 564 248Q564 124 484.50 56Q405-12 298-12M299 55L300 55Q372 55 421 106Q470 157 470 244Q470 316 427 372.50Q384 429 303 429Q221 429 177 374Q133 319 133 241Q133 157 181 106Q229 55 299 55M269 697L333 697L434 551L364 551L302 648L300 648L238 551L170 551L269 697Z"  horiz-adv-x="604" vert-adv-y="1000"  />

      
      <glyph glyph-name="unif5" unicode="&#xf5;" d="M298-12L297-12Q186-12 112.50 57.50Q39 127 39 237Q39 353 114.50 424.50Q190 496 305 496Q421 496 492.50 425.50Q564 355 564 248Q564 124 484.50 56Q405-12 298-12M299 55L300 55Q372 55 421 106Q470 157 470 244Q470 316 427 372.50Q384 429 303 429Q221 429 177 374Q133 319 133 241Q133 157 181 106Q229 55 299 55M224 569L174 569Q173 620 192 648.50Q211 677 244 677Q266 677 311 653Q341 636 354 636Q379 636 382 680L431 680Q433 576 361 576Q337 576 295 598Q264 616 251 616Q227 616 224 569Z"  horiz-adv-x="604" vert-adv-y="1000"  />

      
      <glyph glyph-name="unif6" unicode="&#xf6;" d="M298-12L297-12Q186-12 112.50 57.50Q39 127 39 237Q39 353 114.50 424.50Q190 496 305 496Q421 496 492.50 425.50Q564 355 564 248Q564 124 484.50 56Q405-12 298-12M299 55L300 55Q372 55 421 106Q470 157 470 244Q470 316 427 372.50Q384 429 303 429Q221 429 177 374Q133 319 133 241Q133 157 181 106Q229 55 299 55M205 571L204 571Q182 571 167.50 586.50Q153 602 153 624Q153 646 168.50 661.50Q184 677 206 677Q227 677 241.50 661.50Q256 646 256 624Q256 602 242 586.50Q228 571 205 571M400 571L398 571Q376 571 362 586.50Q348 602 348 624Q348 646 363 661.50Q378 677 400 677Q422 677 436.50 661.50Q451 646 451 624Q451 602 437 586.50Q423 571 400 571Z"  horiz-adv-x="604" vert-adv-y="1000"  />

      
      <glyph glyph-name="unif7" unicode="&#xf7;" d="M298 383L297 383Q273 383 257 400Q241 417 242 441Q242 467 257.50 483.50Q273 500 298 500Q323 500 338.50 483.50Q354 467 354 441Q354 417 338 400Q322 383 298 383M556 236L40 236L40 298L556 298L556 236M298 34L297 34Q273 34 257 51Q241 68 242 92Q242 118 257.50 134.50Q273 151 298 151Q323 151 338.50 134.50Q354 118 354 92Q354 68 338 51Q322 34 298 34Z"  horiz-adv-x="596" vert-adv-y="1000"  />

      
      <glyph glyph-name="unif8" unicode="&#xf8;" d="M303 496L304 496Q380 496 441 461L488 523L527 494L481 433Q564 361 564 247Q564 124 485.50 56Q407-12 302-12Q224-12 165 24L115-40L79-8L124 51Q40 122 40 238Q40 353 114.50 424.50Q189 496 303 496M173 115L398 401Q356 429 301 429Q217 429 173 373.50Q129 318 129 241Q129 166 171 115L173 115M431 367L207 83Q244 55 298 55Q375 55 425 106Q475 157 475 245Q475 316 433 366L431 367Z"  horiz-adv-x="604" vert-adv-y="1000"  />

      
      <glyph glyph-name="unif9" unicode="&#xf9;" d="M522 484L522 133Q522 52 526 0L445 0L440 88L438 88Q415 47 370 17.50Q325-12 259-12Q234-12 211.50-7Q189-2 163.50 12.50Q138 27 119.50 50.50Q101 74 88.50 115Q76 156 76 209L76 484L167 484L167 225Q167 63 290 63Q335 63 370 88Q405 113 422 149Q431 172 431 195L431 484L522 484M158 697L261 697L352 551L286 551L158 697Z"  horiz-adv-x="602" vert-adv-y="1000"  />

      
      <glyph glyph-name="unifa" unicode="&#xfa;" d="M522 484L522 133Q522 52 526 0L445 0L440 88L438 88Q415 47 370 17.50Q325-12 259-12Q234-12 211.50-7Q189-2 163.50 12.50Q138 27 119.50 50.50Q101 74 88.50 115Q76 156 76 209L76 484L167 484L167 225Q167 63 290 63Q335 63 370 88Q405 113 422 149Q431 172 431 195L431 484L522 484M346 697L449 697L321 551L255 551L346 697Z"  horiz-adv-x="602" vert-adv-y="1000"  />

      
      <glyph glyph-name="unifb" unicode="&#xfb;" d="M522 484L522 133Q522 52 526 0L445 0L440 88L438 88Q415 47 370 17.50Q325-12 259-12Q234-12 211.50-7Q189-2 163.50 12.50Q138 27 119.50 50.50Q101 74 88.50 115Q76 156 76 209L76 484L167 484L167 225Q167 63 290 63Q335 63 370 88Q405 113 422 149Q431 172 431 195L431 484L522 484M268 697L332 697L433 551L363 551L301 648L299 648L237 551L169 551L268 697Z"  horiz-adv-x="602" vert-adv-y="1000"  />

      
      <glyph glyph-name="unifc" unicode="&#xfc;" d="M522 484L522 133Q522 52 526 0L445 0L440 88L438 88Q415 47 370 17.50Q325-12 259-12Q234-12 211.50-7Q189-2 163.50 12.50Q138 27 119.50 50.50Q101 74 88.50 115Q76 156 76 209L76 484L167 484L167 225Q167 63 290 63Q335 63 370 88Q405 113 422 149Q431 172 431 195L431 484L522 484M207 571L206 571Q184 571 169.50 586.50Q155 602 155 624Q155 646 170.50 661.50Q186 677 208 677Q229 677 243.50 661.50Q258 646 258 624Q258 602 244 586.50Q230 571 207 571M402 571L400 571Q378 571 364 586.50Q350 602 350 624Q350 646 365 661.50Q380 677 402 677Q424 677 438.50 661.50Q453 646 453 624Q453 602 439 586.50Q425 571 402 571Z"  horiz-adv-x="602" vert-adv-y="1000"  />

      
      <glyph glyph-name="unifd" unicode="&#xfd;" d="M8 484L109 484L228 195Q246 150 263 97L265 97Q298 192 300 198L408 484L507 484L357 128Q302-6 262-72Q222-138 176-172Q119-215 61-223L42-147Q83-138 122-110Q173-75 205-6Q212 5 212 14Q212 24 205 38L8 484M308 697L411 697L283 551L217 551L308 697Z"  horiz-adv-x="513" vert-adv-y="1000"  />

      
      <glyph glyph-name="unife" unicode="&#xfe;" d="M80 671L171 671L171 403L173 403Q234 496 358 496Q455 497 520.50 428Q586 359 586 250Q586 125 513.50 56.50Q441-12 341-12Q228-12 173 70L171 70L171-200L80-200L80 671M171 274L171 196Q171 170 182 150Q199 111 239 84.50Q279 58 330 58Q402 58 448 108.50Q494 159 494 249Q494 322 449.50 373.50Q405 425 332 425Q283 425 242 399.50Q201 374 183 327Q171 297 171 274Z"  horiz-adv-x="626" vert-adv-y="1000"  />

      
      <glyph glyph-name="uniff" unicode="&#xff;" d="M8 484L109 484L228 195Q246 150 263 97L265 97Q298 192 300 198L408 484L507 484L357 128Q302-6 262-72Q222-138 176-172Q119-215 61-223L42-147Q83-138 122-110Q173-75 205-6Q212 5 212 14Q212 24 205 38L8 484M174 571L173 571Q151 571 136.50 586.50Q122 602 122 624Q122 646 137.50 661.50Q153 677 175 677Q196 677 210.50 661.50Q225 646 225 624Q225 602 211 586.50Q197 571 174 571M369 571L367 571Q345 571 331 586.50Q317 602 317 624Q317 646 332 661.50Q347 677 369 677Q391 677 405.50 661.50Q420 646 420 624Q420 602 406 586.50Q392 571 369 571Z"  horiz-adv-x="513" vert-adv-y="1000"  />

      
      <glyph glyph-name="uni0100" unicode="&#x0100;" d="M469 215L200 215L122 0L27 0L281 674L392 674L649 0L550 0L469 215M220 285L449 285L372 487Q356 530 334 600L332 600Q313 532 297 488L220 285M211 789L459 789L459 733L211 733L211 789Z"  horiz-adv-x="671" vert-adv-y="1000"  />

      
      <glyph glyph-name="uni0101" unicode="&#x0101;" d="M448 289L448 118Q448 45 456 0L373 0L365 64L362 64Q338 33 294.50 10.50Q251-12 197-12Q121-12 79.50 30Q38 72 38 127Q38 215 119 262.50Q200 310 357 309L357 318Q357 334 353.50 349Q350 364 339 384.50Q328 405 301.50 417.50Q275 430 236 430Q154 430 95 390L73 450Q145 496 249 496Q308 496 349.50 477.50Q391 459 411 426.50Q431 394 439.50 361Q448 328 448 289M359 167L359 246Q131 252 131 139Q131 99 156.50 77Q182 55 221 55Q271 55 305.50 80Q340 105 354 139Q359 150 359 167M145 646L379 646L379 588L145 588L145 646Z"  horiz-adv-x="522" vert-adv-y="1000"  />

      
      <glyph glyph-name="uni0102" unicode="&#x0102;" d="M469 215L200 215L122 0L27 0L281 674L392 674L649 0L550 0L469 215M220 285L449 285L372 487Q356 530 334 600L332 600Q313 532 297 488L220 285M206 820L260 820Q272 770 336 770Q402 770 412 820L465 820Q463 772 431.50 741.50Q400 711 334 711Q269 711 238.50 741Q208 771 206 820Z"  horiz-adv-x="671" vert-adv-y="1000"  />

      
      <glyph glyph-name="uni0103" unicode="&#x0103;" d="M448 289L448 118Q448 45 456 0L373 0L365 64L362 64Q338 33 294.50 10.50Q251-12 197-12Q121-12 79.50 30Q38 72 38 127Q38 215 119 262.50Q200 310 357 309L357 318Q357 334 353.50 349Q350 364 339 384.50Q328 405 301.50 417.50Q275 430 236 430Q154 430 95 390L73 450Q145 496 249 496Q308 496 349.50 477.50Q391 459 411 426.50Q431 394 439.50 361Q448 328 448 289M359 167L359 246Q131 252 131 139Q131 99 156.50 77Q182 55 221 55Q271 55 305.50 80Q340 105 354 139Q359 150 359 167M131 687L186 687Q192 655 211.50 635Q231 615 261 615Q296 615 314.50 636.50Q333 658 336 687L391 687Q390 628 355 593Q320 558 261 558Q196 558 164 595.50Q132 633 131 687Z"  horiz-adv-x="522" vert-adv-y="1000"  />

      
      <glyph glyph-name="uni0104" unicode="&#x0104;" d="M392 674L649 0L608-3Q552-55 552-95Q552-120 567-134.50Q582-149 606-149Q630-149 652-139L667-184Q637-208 584-208Q539-208 513-185.50Q487-163 487-120Q487-65 549 4L469 215L200 215L122 0L26 0L281 674L392 674M220 285L449 285L372 487Q360 518 334 600L332 600Q318 549 297 488L220 285Z"  horiz-adv-x="671" vert-adv-y="1000"  />

      
      <glyph glyph-name="uni0105" unicode="&#x0105;" d="M448 289L448 118Q448 45 456 0L429 0Q390-52 390-94Q390-145 441-145Q465-145 487-135L502-181Q469-207 416-207Q376-207 350.50-184.50Q325-162 325-121Q325-72 373 4L365 64L362 64Q338 33 294.50 10.50Q251-12 197-12Q121-12 79.50 30Q38 72 38 127Q38 215 119 262.50Q200 310 357 309L357 318Q357 334 353.50 349Q350 364 339 384.50Q328 405 301.50 417.50Q275 430 236 430Q154 430 95 390L73 450Q145 496 249 496Q308 496 349.50 477.50Q391 459 411 426.50Q431 394 439.50 361Q448 328 448 289M359 167L359 246Q131 252 131 139Q131 99 156.50 77Q182 55 221 55Q271 55 305.50 80Q340 105 354 139Q359 150 359 167Z"  horiz-adv-x="522" vert-adv-y="1000"  />

      
      <glyph glyph-name="uni0106" unicode="&#x0106;" d="M592 96L611 25Q535-12 406-12Q245-12 141.50 80Q38 172 38 332Q38 482 144.50 584Q251 686 428 686Q545 686 613 652L590 580Q522 612 432 612Q293 612 213.50 536Q134 460 134 333Q134 215 210.50 139.50Q287 64 425 64Q525 64 592 96M438 833L549 833L421 713L346 713L438 833Z"  horiz-adv-x="648" vert-adv-y="1000"  />

      
      <glyph glyph-name="uni0107" unicode="&#x0107;" d="M445 88L461 19Q391-12 303-12Q184-12 112 57.50Q40 127 40 236Q40 351 118 423.50Q196 496 323 496Q407 496 463 467L442 398Q392 424 323 424Q235 424 184 372.50Q133 321 133 242Q133 160 186 110.50Q239 61 320 61Q382 61 445 88M324 697L427 697L299 551L233 551L324 697Z"  horiz-adv-x="496" vert-adv-y="1000"  />

      
      <glyph glyph-name="uni0108" unicode="&#x0108;" d="M592 96L611 25Q535-12 406-12Q245-12 141.50 80Q38 172 38 332Q38 482 144.50 584Q251 686 428 686Q545 686 613 652L590 580Q522 612 432 612Q293 612 213.50 536Q134 460 134 333Q134 215 210.50 139.50Q287 64 425 64Q525 64 592 96M351 835L418 835L529 715L453 715L386 789L384 789L316 715L243 715L351 835Z"  horiz-adv-x="648" vert-adv-y="1000"  />

      
      <glyph glyph-name="uni0109" unicode="&#x0109;" d="M445 88L461 19Q391-12 303-12Q184-12 112 57.50Q40 127 40 236Q40 351 118 423.50Q196 496 323 496Q407 496 463 467L442 398Q392 424 323 424Q235 424 184 372.50Q133 321 133 242Q133 160 186 110.50Q239 61 320 61Q382 61 445 88M249 697L313 697L414 551L344 551L282 648L280 648L218 551L150 551L249 697Z"  horiz-adv-x="496" vert-adv-y="1000"  />

      
      <glyph glyph-name="uni010A" unicode="&#x010A;" d="M592 96L611 25Q535-12 406-12Q245-12 141.50 80Q38 172 38 332Q38 482 144.50 584Q251 686 428 686Q545 686 613 652L590 580Q522 612 432 612Q293 612 213.50 536Q134 460 134 333Q134 215 210.50 139.50Q287 64 425 64Q525 64 592 96M383 720L382 720Q361 720 346.50 735.50Q332 751 332 772Q332 793 347 808.50Q362 824 384 824Q405 824 419 808.50Q433 793 433 772Q433 751 418.50 735.50Q404 720 383 720Z"  horiz-adv-x="648" vert-adv-y="1000"  />

      
      <glyph glyph-name="uni010B" unicode="&#x010B;" d="M445 88L461 19Q391-12 303-12Q184-12 112 57.50Q40 127 40 236Q40 351 118 423.50Q196 496 323 496Q407 496 463 467L442 398Q392 424 323 424Q235 424 184 372.50Q133 321 133 242Q133 160 186 110.50Q239 61 320 61Q382 61 445 88M289 572L288 572Q266 572 251 588Q236 604 236 625Q236 647 252 663Q268 679 290 679Q312 679 326.50 663.50Q341 648 341 625Q341 603 326.50 587.50Q312 572 289 572Z"  horiz-adv-x="496" vert-adv-y="1000"  />

      
      <glyph glyph-name="uni010C" unicode="&#x010C;" d="M592 96L611 25Q535-12 406-12Q245-12 141.50 80Q38 172 38 332Q38 482 144.50 584Q251 686 428 686Q545 686 613 652L590 580Q522 612 432 612Q293 612 213.50 536Q134 460 134 333Q134 215 210.50 139.50Q287 64 425 64Q525 64 592 96M423 713L356 713L245 833L321 833L389 760L391 760L458 833L531 833L423 713Z"  horiz-adv-x="648" vert-adv-y="1000"  />

      
      <glyph glyph-name="uni010D" unicode="&#x010D;" d="M445 88L461 19Q391-12 303-12Q184-12 112 57.50Q40 127 40 236Q40 351 118 423.50Q196 496 323 496Q407 496 463 467L442 398Q392 424 323 424Q235 424 184 372.50Q133 321 133 242Q133 160 186 110.50Q239 61 320 61Q382 61 445 88M319 551L252 551L151 697L222 697L285 599L287 599L350 697L418 697L319 551Z"  horiz-adv-x="496" vert-adv-y="1000"  />

      
      <glyph glyph-name="uni010E" unicode="&#x010E;" d="M81 1L81 665Q195 680 293 680Q503 680 605 584Q702 495 702 353Q702 200 600 98Q489-7 263-7Q164-7 81 1M172 598L172 70Q205 65 279 65Q439 64 522.50 141.50Q606 219 606 349Q608 469 528.50 538.50Q449 608 296 608Q226 608 172 598M380 713L313 713L202 833L278 833L346 760L348 760L415 833L488 833L380 713Z"  horiz-adv-x="740" vert-adv-y="1000"  />

      
      <glyph glyph-name="uni010F" unicode="&#x010F;" d="M448 716L539 716L539 128Q539 47 543 0L461 0L457 91L455 91Q431 44 382.50 16Q334-12 270-12Q172-12 106 57.50Q40 127 40 233Q39 350 109 423Q179 496 281 496Q341 496 384 472.50Q427 449 446 417L448 417L448 716M448 214L448 283Q448 306 444 322Q431 367 391.50 396.50Q352 426 298 426Q223 426 177.50 374Q132 322 132 240Q132 163 175.50 112Q219 61 297 61Q349 61 390 93Q431 125 443 174Q448 190 448 214M622 528L584 560Q622 598 622 648Q622 684 592 712L657 726Q671 717 682 696.50Q693 676 693 653Q693 574 622 528Z"  horiz-adv-x="629" vert-adv-y="1000"  />

      
      <glyph glyph-name="uni0110" unicode="&#x0110;" d="M-3 302L-3 376L84 376L84 668Q198 683 296 683Q507 683 608 588Q705 499 705 354Q705 199 603 97Q492-8 266-8Q167-8 84 0L84 302L-3 302M382 376L382 302L175 302L175 69Q207 64 282 64Q443 64 526 142Q609 220 609 352Q611 474 532 542.50Q453 611 299 611Q229 611 175 601L175 376L382 376Z"  horiz-adv-x="744" vert-adv-y="1000"  />

      
      <glyph glyph-name="uni0111" unicode="&#x0111;" d="M623 555L539 555L539 128Q539 47 543 0L461 0L457 91L455 91Q431 44 382.50 16Q334-12 270-12Q172-12 106 57.50Q40 127 40 233Q39 350 109 423Q179 496 281 496Q341 496 384 472.50Q427 449 446 417L448 417L448 555L228 555L228 611L448 611L448 716L539 716L539 611L623 611L623 555M448 214L448 283Q448 306 444 322Q431 367 391.50 396.50Q352 426 298 426Q223 426 177.50 374Q132 322 132 240Q132 163 175.50 112Q219 61 297 61Q349 61 390 93Q431 125 443 174Q448 190 448 214Z"  horiz-adv-x="619" vert-adv-y="1000"  />

      
      <glyph glyph-name="uni0112" unicode="&#x0112;" d="M464 389L464 315L172 315L172 74L498 74L498 0L81 0L81 674L481 674L481 600L172 600L172 389L464 389M159 789L407 789L407 733L159 733L159 789Z"  horiz-adv-x="537" vert-adv-y="1000"  />

      
      <glyph glyph-name="uni0113" unicode="&#x0113;" d="M504 223L127 223Q128 144 179.50 101.50Q231 59 310 59Q395 59 462 86L478 21Q397-12 298-12Q179-12 109 55.50Q39 123 39 233Q39 344 107 420Q175 496 289 496Q340 496 379.50 479.50Q419 463 442.50 438Q466 413 481.50 380.50Q497 348 502.50 319.50Q508 291 508 263Q508 235 504 223M128 288L420 288Q420 307 415 328.50Q410 350 397 375Q384 400 354 416Q324 432 282 432Q212 432 173.50 387.50Q135 343 128 288M160 646L394 646L394 588L160 588L160 646Z"  horiz-adv-x="547" vert-adv-y="1000"  />

      
      <glyph glyph-name="uni0114" unicode="&#x0114;" d="M464 389L464 315L172 315L172 74L498 74L498 0L81 0L81 674L481 674L481 600L172 600L172 389L464 389M147 830L201 830Q213 780 277 780Q343 780 353 830L406 830Q404 782 372.50 751.50Q341 721 275 721Q210 721 179.50 751Q149 781 147 830Z"  horiz-adv-x="537" vert-adv-y="1000"  />

      
      <glyph glyph-name="uni0115" unicode="&#x0115;" d="M504 223L127 223Q128 144 179.50 101.50Q231 59 310 59Q395 59 462 86L478 21Q397-12 298-12Q179-12 109 55.50Q39 123 39 233Q39 344 107 420Q175 496 289 496Q340 496 379.50 479.50Q419 463 442.50 438Q466 413 481.50 380.50Q497 348 502.50 319.50Q508 291 508 263Q508 235 504 223M128 288L420 288Q420 307 415 328.50Q410 350 397 375Q384 400 354 416Q324 432 282 432Q212 432 173.50 387.50Q135 343 128 288M146 687L201 687Q207 655 226.50 635Q246 615 276 615Q311 615 329.50 636.50Q348 658 351 687L406 687Q405 628 370 593Q335 558 276 558Q211 558 179 595.50Q147 633 146 687Z"  horiz-adv-x="547" vert-adv-y="1000"  />

      
      <glyph glyph-name="uni0116" unicode="&#x0116;" d="M464 389L464 315L172 315L172 74L498 74L498 0L81 0L81 674L481 674L481 600L172 600L172 389L464 389M270 720L269 720Q248 720 233.50 735.50Q219 751 219 772Q219 793 234 808.50Q249 824 271 824Q292 824 306 808.50Q320 793 320 772Q320 751 305.50 735.50Q291 720 270 720Z"  horiz-adv-x="537" vert-adv-y="1000"  />

      
      <glyph glyph-name="uni0117" unicode="&#x0117;" d="M504 223L127 223Q128 144 179.50 101.50Q231 59 310 59Q395 59 462 86L478 21Q397-12 298-12Q179-12 109 55.50Q39 123 39 233Q39 344 107 420Q175 496 289 496Q340 496 379.50 479.50Q419 463 442.50 438Q466 413 481.50 380.50Q497 348 502.50 319.50Q508 291 508 263Q508 235 504 223M128 288L420 288Q420 307 415 328.50Q410 350 397 375Q384 400 354 416Q324 432 282 432Q212 432 173.50 387.50Q135 343 128 288M277 572L276 572Q254 572 239 588Q224 604 224 625Q224 647 240 663Q256 679 278 679Q300 679 314.50 663.50Q329 648 329 625Q329 603 314.50 587.50Q300 572 277 572Z"  horiz-adv-x="547" vert-adv-y="1000"  />

      
      <glyph glyph-name="uni0118" unicode="&#x0118;" d="M487-139L502-187Q466-208 419-208Q375-208 349.50-186.50Q324-165 324-126Q324-88 348-54.50Q372-21 404 0L81 0L81 674L481 674L481 600L172 600L172 389L464 389L464 315L172 315L172 74L497 74L497 0L480 0Q446-22 421-51Q396-80 396-107Q396-126 408.50-136.50Q421-147 443-147Q467-147 487-139Z"  horiz-adv-x="537" vert-adv-y="1000"  />

      
      <glyph glyph-name="uni0119" unicode="&#x0119;" d="M421-137L436-183Q401-207 352-207Q309-207 284.50-186Q260-165 260-127Q260-93 282-62.50Q304-32 332-12L332-11Q327-11 315.50-11.50Q304-12 297-12Q179-12 109 55.50Q39 123 39 233Q39 344 107 420Q175 496 289 496Q340 496 379.50 479.50Q419 463 442.50 438Q466 413 481.50 380.50Q497 348 502.50 319.50Q508 291 508 263Q508 235 504 223L127 223Q128 144 179.50 101.50Q231 59 310 59Q395 59 462 86L478 21Q468 16 448 9.50Q428 3 426 2Q394-11 362.50-43Q331-75 331-103Q331-124 343.50-135Q356-146 374-146Q402-146 421-137M128 288L420 288Q420 307 415 328.50Q410 350 396.50 375Q383 400 353.50 416Q324 432 282 432Q212 432 173.50 387.50Q135 343 128 288Z"  horiz-adv-x="547" vert-adv-y="1000"  />

      
      <glyph glyph-name="uni011A" unicode="&#x011A;" d="M464 389L464 315L172 315L172 74L498 74L498 0L81 0L81 674L481 674L481 600L172 600L172 389L464 389M314 710L247 710L136 830L212 830L280 757L282 757L349 830L422 830L314 710Z"  horiz-adv-x="537" vert-adv-y="1000"  />

      
      <glyph glyph-name="uni011B" unicode="&#x011B;" d="M504 223L127 223Q128 144 179.50 101.50Q231 59 310 59Q395 59 462 86L478 21Q397-12 298-12Q179-12 109 55.50Q39 123 39 233Q39 344 107 420Q175 496 289 496Q340 496 379.50 479.50Q419 463 442.50 438Q466 413 481.50 380.50Q497 348 502.50 319.50Q508 291 508 263Q508 235 504 223M128 288L420 288Q420 307 415 328.50Q410 350 397 375Q384 400 354 416Q324 432 282 432Q212 432 173.50 387.50Q135 343 128 288M310 551L243 551L142 697L213 697L276 599L278 599L341 697L409 697L310 551Z"  horiz-adv-x="547" vert-adv-y="1000"  />

      
      <glyph glyph-name="uni011C" unicode="&#x011C;" d="M655 355L655 35Q542-7 419-7Q239-7 136 90Q38 182 38 335Q38 478 145 579.50Q252 681 439 681Q559 681 631 646L608 574Q535 607 436 607Q296 607 215 532Q134 457 134 338Q134 217 213 142Q292 67 427 67Q523 67 565 89L565 283L412 283L412 355L655 355M361 834L428 834L539 714L463 714L396 788L394 788L326 714L253 714L361 834Z"  horiz-adv-x="716" vert-adv-y="1000"  />

      
      <glyph glyph-name="uni011D" unicode="&#x011D;" d="M533 358L533 74Q533-85 457-152Q388-212 265-212Q150-212 86-167L109-97Q178-141 268-141Q348-141 395.50-98Q443-55 443 36L443 91L441 91Q385 2 267 2Q169 2 104.50 70.50Q40 139 40 238Q40 353 111 424.50Q182 496 280 496Q402 496 451 405L453 405L456 484L537 484Q533 437 533 358M442 217L442 286Q442 305 437 327Q422 371 384.50 399Q347 427 295 427Q224 427 178 377Q132 327 132 243Q132 173 174 122Q216 71 294 71Q342 71 380.50 98.50Q419 126 434 169Q442 191 442 217M274 701L338 701L439 555L369 555L307 652L305 652L243 555L175 555L274 701Z"  horiz-adv-x="613" vert-adv-y="1000"  />

      
      <glyph glyph-name="uni011E" unicode="&#x011E;" d="M655 355L655 35Q542-7 419-7Q239-7 136 90Q38 182 38 335Q38 478 145 579.50Q252 681 439 681Q559 681 631 646L608 574Q535 607 436 607Q296 607 215 532Q134 457 134 338Q134 217 213 142Q292 67 427 67Q523 67 565 89L565 283L412 283L412 355L655 355M259 833L313 833Q325 783 389 783Q455 783 465 833L518 833Q516 785 484.50 754.50Q453 724 387 724Q322 724 291.50 754Q261 784 259 833Z"  horiz-adv-x="716" vert-adv-y="1000"  />

      
      <glyph glyph-name="uni011F" unicode="&#x011F;" d="M533 358L533 74Q533-85 457-152Q388-212 265-212Q150-212 86-167L109-97Q178-141 268-141Q348-141 395.50-98Q443-55 443 36L443 91L441 91Q385 2 267 2Q169 2 104.50 70.50Q40 139 40 238Q40 353 111 424.50Q182 496 280 496Q402 496 451 405L453 405L456 484L537 484Q533 437 533 358M442 217L442 286Q442 305 437 327Q422 371 384.50 399Q347 427 295 427Q224 427 178 377Q132 327 132 243Q132 173 174 122Q216 71 294 71Q342 71 380.50 98.50Q419 126 434 169Q442 191 442 217M167 687L222 687Q228 655 247.50 635Q267 615 297 615Q332 615 350.50 636.50Q369 658 372 687L427 687Q426 628 391 593Q356 558 297 558Q232 558 200 595.50Q168 633 167 687Z"  horiz-adv-x="613" vert-adv-y="1000"  />

      
      <glyph glyph-name="uni0120" unicode="&#x0120;" d="M655 355L655 35Q542-7 419-7Q239-7 136 90Q38 182 38 335Q38 478 145 579.50Q252 681 439 681Q559 681 631 646L608 574Q535 607 436 607Q296 607 215 532Q134 457 134 338Q134 217 213 142Q292 67 427 67Q523 67 565 89L565 283L412 283L412 355L655 355M397 720L396 720Q375 720 360.50 735.50Q346 751 346 772Q346 793 361 808.50Q376 824 398 824Q419 824 433 808.50Q447 793 447 772Q447 751 432.50 735.50Q418 720 397 720Z"  horiz-adv-x="716" vert-adv-y="1000"  />

      
      <glyph glyph-name="uni0121" unicode="&#x0121;" d="M533 358L533 74Q533-85 457-152Q388-212 265-212Q150-212 86-167L109-97Q178-141 268-141Q348-141 395.50-98Q443-55 443 36L443 91L441 91Q385 2 267 2Q169 2 104.50 70.50Q40 139 40 238Q40 353 111 424.50Q182 496 280 496Q402 496 451 405L453 405L456 484L537 484Q533 437 533 358M442 217L442 286Q442 305 437 327Q422 371 384.50 399Q347 427 295 427Q224 427 178 377Q132 327 132 243Q132 173 174 122Q216 71 294 71Q342 71 380.50 98.50Q419 126 434 169Q442 191 442 217M306 576L305 576Q283 576 268 592Q253 608 253 629Q253 651 269 667Q285 683 307 683Q329 683 343.50 667.50Q358 652 358 629Q358 607 343.50 591.50Q329 576 306 576Z"  horiz-adv-x="613" vert-adv-y="1000"  />

      
      <glyph glyph-name="uni0122" unicode="&#x0122;" d="M655 355L655 35Q542-7 419-7Q239-7 136 90Q38 182 38 335Q38 478 145 579.50Q252 681 439 681Q559 681 631 646L608 574Q535 607 436 607Q296 607 215 532Q134 457 134 338Q134 217 213 142Q292 67 427 67Q523 67 565 89L565 283L412 283L412 355L655 355M329-224L312-182Q391-171 391-116Q391-83 357-55L423-40Q464-67 464-115Q464-168 424-195Q384-222 329-224Z"  horiz-adv-x="716" vert-adv-y="1000"  />

      
      <glyph glyph-name="uni0123" unicode="&#x0123;" d="M533 358L533 74Q533-85 457-152Q388-212 265-212Q150-212 86-167L109-97Q178-141 269-141Q348-141 395.50-98Q443-55 443 36L443 91L441 91Q385 2 268 2Q169 2 104.50 70.50Q40 139 40 238Q40 353 111 424.50Q182 496 280 496Q402 496 451 405L453 405L456 484L537 484Q533 437 533 358M442 217L442 286Q442 305 437 327Q422 371 385 399Q348 427 296 427Q224 427 178 377Q132 327 132 243Q132 173 174.50 122Q217 71 295 71Q342 71 380.50 98.50Q419 126 434 169Q442 191 442 217M365 712L382 674Q301 665 301 609Q301 577 335 551L271 537Q230 562 230 609Q230 659 270.50 684.50Q311 710 365 712Z"  horiz-adv-x="613" vert-adv-y="1000"  />

      
      <glyph glyph-name="uni0124" unicode="&#x0124;" d="M81 674L172 674L172 394L543 394L543 674L634 674L634 0L543 0L543 317L172 317L172 0L81 0L81 674M323 830L390 830L501 710L425 710L358 784L356 784L288 710L215 710L323 830Z"  horiz-adv-x="715" vert-adv-y="1000"  />

      
      <glyph glyph-name="uni0125" unicode="&#x0125;" d="M80 0L80 716L171 716L171 401L173 401Q200 446 244 469Q288 496 342 496Q371 496 400 486.50Q429 477 460 455Q491 433 510 387Q529 341 529 277L529 0L438 0L438 268Q438 336 407 378.50Q376 421 311 421Q265 421 229 394Q193 367 178 330Q171 315 171 286L171 0L80 0M94 852L161 852L272 732L196 732L129 806L127 806L59 732L-14 732L94 852Z"  horiz-adv-x="605" vert-adv-y="1000"  />

      
      <glyph glyph-name="uni0126" unicode="&#x0126;" d="M698 478L637 478L637 0L546 0L546 301L175 301L175 0L84 0L84 478L23 478L23 537L84 537L84 674L175 674L175 537L546 537L546 674L637 674L637 537L698 537L698 478M546 378L546 478L175 478L175 378L546 378Z"  horiz-adv-x="721" vert-adv-y="1000"  />

      
      <glyph glyph-name="uni0127" unicode="&#x0127;" d="M529 0L438 0L438 268Q438 336 407 378.50Q376 421 311 421Q265 421 229 394Q193 367 178 330Q171 315 171 286L171 0L80 0L80 555L-3 555L-3 611L80 611L80 716L171 716L171 611L385 611L385 555L171 555L171 401L173 401Q200 446 244 469Q291 496 342 496Q371 496 400 486.50Q429 477 460 455Q491 433 510 387Q529 341 529 277L529 0Z"  horiz-adv-x="605" vert-adv-y="1000"  />

      
      <glyph glyph-name="uni0128" unicode="&#x0128;" d="M81 674L172 674L172 0L81 0L81 674M46 715L-3 715Q-5 762 14.50 790.50Q34 819 68 819Q92 819 131 797Q165 779 182 779Q194 779 200.50 787.50Q207 796 209 819L257 819Q259 720 188 720Q161 720 123 740Q87 760 73 760Q51 760 46 715Z"  horiz-adv-x="253" vert-adv-y="1000"  />

      
      <glyph glyph-name="uni0129" unicode="&#x0129;" d="M171 0L80 0L80 484L171 484L171 0M47 569L-3 569Q-4 620 15 648.50Q34 677 67 677Q89 677 134 653Q164 636 177 636Q202 636 205 680L254 680Q256 576 184 576Q160 576 118 598Q87 616 74 616Q50 616 47 569Z"  horiz-adv-x="250" vert-adv-y="1000"  />

      
      <glyph glyph-name="uni012A" unicode="&#x012A;" d="M81 674L172 674L172 0L81 0L81 674M4 789L252 789L252 733L4 733L4 789Z"  horiz-adv-x="253" vert-adv-y="1000"  />

      
      <glyph glyph-name="uni012B" unicode="&#x012B;" d="M171 0L80 0L80 484L171 484L171 0M9 646L243 646L243 588L9 588L9 646Z"  horiz-adv-x="250" vert-adv-y="1000"  />

      
      <glyph glyph-name="uni012C" unicode="&#x012C;" d="M81 674L172 674L172 0L81 0L81 674M-2 827L52 827Q64 777 128 777Q194 777 204 827L257 827Q255 779 223.50 748.50Q192 718 126 718Q61 718 30.50 748Q0 778-2 827Z"  horiz-adv-x="253" vert-adv-y="1000"  />

      
      <glyph glyph-name="uni012D" unicode="&#x012D;" d="M171 0L80 0L80 484L171 484L171 0M-1 687L54 687Q60 655 79.50 635Q99 615 129 615Q164 615 182.50 636.50Q201 658 204 687L259 687Q258 628 223 593Q188 558 129 558Q64 558 32 595.50Q0 633-1 687Z"  horiz-adv-x="250" vert-adv-y="1000"  />

      
      <glyph glyph-name="uni012E" unicode="&#x012E;" d="M172 674L172 0L140 0Q98-59 98-97Q98-122 113-136Q128-150 152-150Q178-150 198-141L213-187Q183-211 129-211Q85-211 59-188Q33-165 33-123Q33-71 81 0L81 674L172 674Z"  horiz-adv-x="253" vert-adv-y="1000"  />

      
      <glyph glyph-name="uni012F" unicode="&#x012F;" d="M125 575L124 575Q98 575 82 592Q66 609 66 633Q66 656 82.50 673Q99 690 125 690Q151 690 167.50 673.50Q184 657 184 633Q184 609 167.50 592Q151 575 125 575M171 484L171 0L139 0Q97-59 97-97Q97-122 112-136Q127-150 151-150Q177-150 197-141L212-187Q182-211 128-211Q84-211 58-188Q32-165 32-123Q32-71 80 0L80 484L171 484Z"  horiz-adv-x="250" vert-adv-y="1000"  />

      
      <glyph glyph-name="uni0130" unicode="&#x0130;" d="M81 674L172 674L172 0L81 0L81 674M128 720L127 720Q106 720 91.50 735.50Q77 751 77 772Q77 793 92 808.50Q107 824 129 824Q150 824 164 808.50Q178 793 178 772Q178 751 163.50 735.50Q149 720 128 720Z"  horiz-adv-x="253" vert-adv-y="1000"  />

      
      <glyph glyph-name="uni0131" unicode="&#x0131;" d="M171 0L80 0L80 484L171 484L171 0Z"  horiz-adv-x="250" vert-adv-y="1000"  />

      
      <glyph glyph-name="uni0132" unicode="&#x0132;" d="M81 674L172 674L172 0L81 0L81 674M493 244L493 674L584 674L584 235Q584-12 365-12Q304-12 257 7L272 80Q309 64 358 64Q426 64 459.50 104Q493 144 493 244Z"  horiz-adv-x="658" vert-adv-y="1000"  />

      
      <glyph glyph-name="uni0133" unicode="&#x0133;" d="M171 0L80 0L80 484L171 484L171 0M125 568L124 568Q99 568 83.50 584.50Q68 601 68 624Q68 647 84 663.50Q100 680 126 680Q151 680 167 664Q183 648 183 624Q183 601 167 584.50Q151 568 125 568M208-215L199-143Q271-140 305-106Q325-84 333.50-44.50Q342-5 342 85L342 484L433 484L433 47Q433-95 372-157Q315-215 208-215M387 568L386 568Q361 568 345.50 584.50Q330 601 330 624Q330 647 346.50 663.50Q363 680 389 680Q414 680 429.50 663.50Q445 647 445 624Q445 601 429.50 584.50Q414 568 387 568Z"  horiz-adv-x="512" vert-adv-y="1000"  />

      
      <glyph glyph-name="uni0134" unicode="&#x0134;" d="M240 244L240 674L331 674L331 235Q331-12 112-12Q52-12 4 7L19 80Q56 64 105 64Q173 64 206.50 104Q240 144 240 244M247 830L314 830L425 710L349 710L282 784L280 784L212 710L139 710L247 830Z"  horiz-adv-x="405" vert-adv-y="1000"  />

      
      <glyph glyph-name="uni0135" unicode="&#x0135;" d="M-42-215L-51-143Q21-140 55-106Q75-84 83.50-44.50Q92-5 92 85L92 484L183 484L183 47Q183-95 122-157Q65-215-42-215M97 690L161 690L262 544L192 544L130 642L128 642L66 544L-2 544L97 690Z"  horiz-adv-x="262" vert-adv-y="1000"  />

      
      <glyph glyph-name="uni0136" unicode="&#x0136;" d="M81 0L81 674L172 674L172 348L175 348Q185 361 232 416L465 674L580 674L310 388L604 0L495 0L245 333L172 255L172 0L81 0M234-224L217-182Q296-171 296-116Q296-83 262-55L328-40Q369-67 369-115Q369-168 329-195Q289-222 234-224Z"  horiz-adv-x="588" vert-adv-y="1000"  />

      
      <glyph glyph-name="uni0137" unicode="&#x0137;" d="M171 716L171 263L173 263Q203 300 221 318L379 484L492 484L285 286L523 0L409 0L222 234L171 182L171 0L80 0L80 716L171 716M194-224L177-182Q211-178 233.50-161.50Q256-145 256-116Q256-83 222-55L288-40Q329-67 329-115Q329-168 289-195Q249-222 194-224Z"  horiz-adv-x="507" vert-adv-y="1000"  />

      
      <glyph glyph-name="uni0138" unicode="&#x0138;" d="M171 484L171 263L173 263Q203 300 221 318L379 484L492 484L285 286L523 0L409 0L222 234L171 182L171 0L80 0L80 484L171 484Z"  horiz-adv-x="507" vert-adv-y="1000"  />

      
      <glyph glyph-name="uni0139" unicode="&#x0139;" d="M81 0L81 674L172 674L172 76L493 76L493 0L81 0M186 830L297 830L169 710L94 710L186 830Z"  horiz-adv-x="515" vert-adv-y="1000"  />

      
      <glyph glyph-name="uni013A" unicode="&#x013A;" d="M80 0L80 716L171 716L171 0L80 0M157 866L268 866L140 746L65 746L157 866Z"  horiz-adv-x="250" vert-adv-y="1000"  />

      
      <glyph glyph-name="uni013B" unicode="&#x013B;" d="M81 0L81 674L172 674L172 76L493 76L493 0L81 0M208-224L191-182Q270-171 270-116Q270-83 236-55L302-40Q343-67 343-115Q343-168 303-195Q263-222 208-224Z"  horiz-adv-x="515" vert-adv-y="1000"  />

      
      <glyph glyph-name="uni013C" unicode="&#x013C;" d="M80 0L80 716L171 716L171 0L80 0M55-224L38-182Q72-178 94.50-161.50Q117-145 117-116Q117-83 83-55L149-40Q190-67 190-115Q190-168 150-195Q110-222 55-224Z"  horiz-adv-x="250" vert-adv-y="1000"  />

      
      <glyph glyph-name="uni013D" unicode="&#x013D;" d="M81 0L81 674L172 674L172 76L493 76L493 0L81 0M280 505L263 547Q342 558 342 613Q342 646 308 674L374 689Q415 662 415 614Q415 561 375 534Q335 507 280 505Z"  horiz-adv-x="515" vert-adv-y="1000"  />

      
      <glyph glyph-name="uni013E" unicode="&#x013E;" d="M80 0L80 716L171 716L171 0L80 0M251 528L210 559Q248 604 248 648Q248 684 218 712L283 726Q297 717 308 696.50Q319 676 319 651Q319 640 317.50 629Q316 618 313.50 609.50Q311 601 307 592.50Q303 584 299.50 577.50Q296 571 290.50 564.50Q285 558 281 554Q277 550 271.50 545Q266 540 263.50 538Q261 536 256 532L251 528Z"  horiz-adv-x="261" vert-adv-y="1000"  />

      
      <glyph glyph-name="uni013F" unicode="&#x013F;" d="M81 0L81 674L172 674L172 76L493 76L493 0L81 0M374 323L373 323Q352 323 337.50 338.50Q323 354 323 375Q323 396 338 411.50Q353 427 375 427Q396 427 410 411.50Q424 396 424 375Q424 354 409.50 338.50Q395 323 374 323Z"  horiz-adv-x="515" vert-adv-y="1000"  />

      
      <glyph glyph-name="uni0140" unicode="&#x0140;" d="M80 0L80 716L171 716L171 0L80 0M267 339L266 339Q245 339 231 354.50Q217 370 217 391Q217 412 231.50 427.50Q246 443 267 443Q288 443 301.50 428Q315 413 315 391Q315 370 301 354.50Q287 339 267 339Z"  horiz-adv-x="284" vert-adv-y="1000"  />

      
      <glyph glyph-name="uni0141" unicode="&#x0141;" d="M496 0L84 0L84 274L-5 214L-5 280L84 340L84 674L175 674L175 399L318 495L318 427L175 332L175 76L496 76L496 0Z"  horiz-adv-x="518" vert-adv-y="1000"  />

      
      <glyph glyph-name="uni0142" unicode="&#x0142;" d="M174 0L83 0L83 286L13 229L13 298L83 355L83 716L174 716L174 426L247 485L247 415L174 355L174 0Z"  horiz-adv-x="256" vert-adv-y="1000"  />

      
      <glyph glyph-name="uni0143" unicode="&#x0143;" d="M167 0L81 0L81 674L184 674L431 325Q518 200 562 111L565 112Q555 206 555 378L555 674L641 674L641 0L548 0L305 347Q206 493 164 572L161 571Q167 470 167 306L167 0M398 830L509 830L381 710L306 710L398 830Z"  horiz-adv-x="722" vert-adv-y="1000"  />

      
      <glyph glyph-name="uni0144" unicode="&#x0144;" d="M80 0L80 351Q80 429 76 484L157 484L162 398L165 398Q186 438 232.50 467Q279 496 341 496Q370 496 399 486.50Q428 477 459 455Q490 433 509.50 387Q529 341 529 277L529 0L438 0L438 269Q438 338 407 380Q376 422 311 422Q264 422 228.50 394.50Q193 367 178 328Q171 309 171 288L171 0L80 0M342 697L445 697L317 551L251 551L342 697Z"  horiz-adv-x="605" vert-adv-y="1000"  />

      
      <glyph glyph-name="uni0145" unicode="&#x0145;" d="M167 0L81 0L81 674L184 674L431 325Q518 200 562 111L565 112Q555 206 555 378L555 674L641 674L641 0L548 0L305 347Q206 493 164 572L161 571Q167 470 167 306L167 0M301-224L284-182Q363-171 363-116Q363-83 329-55L395-40Q436-67 436-115Q436-168 396-195Q356-222 301-224Z"  horiz-adv-x="722" vert-adv-y="1000"  />

      
      <glyph glyph-name="uni0146" unicode="&#x0146;" d="M80 0L80 351Q80 429 76 484L157 484L162 398L165 398Q186 438 232.50 467Q279 496 341 496Q370 496 399 486.50Q428 477 459 455Q490 433 509.50 387Q529 341 529 277L529 0L438 0L438 269Q438 338 407 380Q376 422 311 422Q264 422 228.50 394.50Q193 367 178 328Q171 309 171 288L171 0L80 0M243-224L226-182Q260-178 282.50-161.50Q305-145 305-116Q305-83 271-55L337-40Q378-67 378-115Q378-168 338-195Q298-222 243-224Z"  horiz-adv-x="605" vert-adv-y="1000"  />

      
      </font>
</defs>
</svg>
