<?xml version="1.0" standalone="no"?>
  <!DOCTYPE svg PUBLIC "-//W3C//DTD SVG 1.1//EN" "http://www.w3.org/Graphics/SVG/1.1/DTD/svg11.dtd" >
  <svg>
  <metadata>
  Created by font-carrier
  </metadata>
  <defs>
  <font id="Gilroy-Black" horiz-adv-x="1220" vert-adv-y="1220" >
    <font-face
      
      font-family="Gilroy Black"
      
      font-weight="400"
      
      font-stretch="normal"
      
      units-per-em="1000"
      
      ascent="971"
      
      descent="-277"
      
    />
      <missing-glyph />

      

      
      <glyph glyph-name="uni21" unicode="&#x21;" d="M78 255L45 500L45 700L249 700L249 500L216 255L78 255M220.50 16Q220.50 16 205.25 1Q190-14 147-14Q104-14 73.50 16Q43 46 43 90Q43 133 73.50 163.50Q104 194 147 194Q190 194 220.50 163.50Q251 133 251 90Q251 46 220.50 16Z"  horiz-adv-x="294" vert-adv-y="1000"  />

      
      <glyph glyph-name="uni22" unicode="&#x22;" d="M65 441L45 700L199 700L179 441L65 441M263 441L243 700L397 700L377 441L263 441Z"  horiz-adv-x="442" vert-adv-y="1000"  />

      
      <glyph glyph-name="uni23" unicode="&#x23;" d="M592 385L491 385L479 315L581 315L562 195L459 195L435 50L307 50L331 195L249 195L225 50L97 50L121 195L20 195L39 315L141 315L153 385L51 385L70 505L173 505L197 650L325 650L301 505L383 505L407 650L535 650L511 505L611 505L592 385M351 315L363 385L281 385L269 315L351 315Z"  horiz-adv-x="631" vert-adv-y="1000"  />

      
      <glyph glyph-name="uni24" unicode="&#x24;" d="M538 205Q538 111 480 54.50Q422-2 324-13L324-100L254-100L254-14Q166-8 104.50 34.50Q43 77 18 149L173 236Q195 171 254 156L254 275L245 278Q198 295 167 311Q136 327 104 352.50Q72 378 56.50 414.50Q41 451 41 499Q41 593 101 649.50Q161 706 254 714L254 800L324 800L324 712Q468 695 528 565L376 480Q361 526 324 540L324 422L325 422Q330 420 353.50 411Q377 402 384.50 399Q392 396 413 386.50Q434 377 442 371.50Q450 366 467 354.50Q484 343 491 333.50Q498 324 509.50 309.50Q521 295 525.50 280Q530 265 534 245.50Q538 226 538 205M215 498Q215 473 254 453L254 544Q215 534 215 498M324 157Q364 168 364 202Q364 229 324 247L324 157Z"  horiz-adv-x="556" vert-adv-y="1000"  />

      
      <glyph glyph-name="uni25" unicode="&#x25;" d="M219 356Q141 356 88 408.50Q35 461 35 536Q35 611 88 663Q141 715 219 715Q297 715 349 663Q401 611 401 536Q401 460 348.50 408Q296 356 219 356M139 110L599 610L669 570L208 71L139 110M218 483Q241 483 255.50 498.50Q270 514 270 536Q270 558 255.50 573Q241 588 218 588Q196 588 181.50 573Q167 558 167 536Q167 513 181.50 498Q196 483 218 483M606-14Q527-14 474.50 38Q422 90 422 165Q422 241 474.50 293Q527 345 606 345Q684 345 736 292.50Q788 240 788 165Q788 90 735.50 38Q683-14 606-14M568.50 128Q568.50 128 575.75 120.50Q583 113 605 113Q627 113 641.50 128.50Q656 144 656 165Q656 188 641.50 203Q627 218 605 218Q583 218 568.50 203Q554 188 554 165Q554 143 568.50 128Z"  horiz-adv-x="823" vert-adv-y="1000"  />

      
      <glyph glyph-name="uni26" unicode="&#x26;" d="M665 52L528-27L469 37Q388-15 287-15Q173-15 104 44.50Q35 104 35 199Q35 323 148 394Q116 448 116 508Q116 598 180.50 656.50Q245 715 346 715Q517 715 587 558L436 470Q408 545 352 545Q326 545 311.50 530.50Q297 516 297 494Q297 479 305.50 462.50Q314 446 322 436.50Q330 427 352 402L470 271Q491 321 501 373L645 290Q625 216 580 147L665 52M305 140Q337 140 364 152L246 280Q216 253 216 213Q216 181 238.50 160.50Q261 140 305 140Z"  horiz-adv-x="680" vert-adv-y="1000"  />

      
      <glyph glyph-name="uni27" unicode="&#x27;" d="M65 441L45 700L199 700L179 441L65 441Z"  horiz-adv-x="243" vert-adv-y="1000"  />

      
      <glyph glyph-name="uni28" unicode="&#x28;" d="M155-100Q45 120 45 350Q45 580 155 800L322 800Q212 580 212 350Q212 120 322-100L155-100Z"  horiz-adv-x="327" vert-adv-y="1000"  />

      
      <glyph glyph-name="uni29" unicode="&#x29;" d="M172-100L5-100Q115 120 115 350Q115 580 5 800L172 800Q282 580 282 350Q282 120 172-100Z"  horiz-adv-x="327" vert-adv-y="1000"  />

      
      <glyph glyph-name="uni2a" unicode="&#x2a;" d="M359 605L359 509L268 519L325 449L245 399L202 481L160 399L80 449L136 519L45 509L45 605L136 595L80 665L160 715L202 633L245 715L325 665L268 595L359 605Z"  horiz-adv-x="405" vert-adv-y="1000"  />

      
      <glyph glyph-name="uni2b" unicode="&#x2b;" d="M519 429L519 271L359 271L359 111L201 111L201 271L41 271L41 429L201 429L201 589L359 589L359 429L519 429Z"  horiz-adv-x="560" vert-adv-y="1000"  />

      
      <glyph glyph-name="uni2c" unicode="&#x2c;" d="M261 174L177-140L43-140L78 174L261 174Z"  horiz-adv-x="302" vert-adv-y="1000"  />

      
      <glyph glyph-name="uni2d" unicode="&#x2d;" d="M55 222L55 380L445 380L445 222L55 222Z"  horiz-adv-x="500" vert-adv-y="1000"  />

      
      <glyph glyph-name="uni2e" unicode="&#x2e;" d="M145-14Q101-14 70.50 16.50Q40 47 40 90Q40 133 71 163.50Q102 194 145 194Q188 194 218.50 163.50Q249 133 249 90Q249 47 218.50 16.50Q188-14 145-14Z"  horiz-adv-x="289" vert-adv-y="1000"  />

      
      <glyph glyph-name="uni2f" unicode="&#x2f;" d="M95-100L25-100L425 800L495 800L95-100Z"  horiz-adv-x="520" vert-adv-y="1000"  />

      
      <glyph glyph-name="uni30" unicode="&#x30;" d="M528.50 84.50Q528.50 84.50 490.25 34.75Q452-15 315-15Q178-15 101.50 84.50Q25 184 25 350Q25 516 101.50 615.50Q178 715 315 715Q452 715 528.50 615.50Q605 516 605 350Q605 184 528.50 84.50M204 350Q204 350 204 254.50Q204 159 315 159Q426 159 426 350Q426 541 315 541Q204 541 204 350Z"  horiz-adv-x="630" vert-adv-y="1000"  />

      
      <glyph glyph-name="uni31" unicode="&#x31;" d="M195 700L349 700L349 0L170 0L170 512L48 481L5 632L195 700Z"  horiz-adv-x="414" vert-adv-y="1000"  />

      
      <glyph glyph-name="uni32" unicode="&#x32;" d="M21 0L21 130L253 375Q288 413 304 436.50Q320 460 320 483Q320 509 303.50 525Q287 541 258 541Q196 541 164 468L10 554Q44 633 110 674Q176 715 256 715Q356 715 427.50 655.50Q499 596 499 493Q499 432 470.50 380.50Q442 329 387 272L292 173L511 173L511 0L21 0Z"  horiz-adv-x="539" vert-adv-y="1000"  />

      
      <glyph glyph-name="uni33" unicode="&#x33;" d="M373 415Q440 394 481 343Q522 292 522 220Q522 107 448 46Q374-15 265-15Q178-15 110.50 25Q43 65 13 143L169 232Q191 159 265 159Q303 159 323.50 177Q344 195 344 225Q344 255 323.50 272.50Q303 290 265 290L227 290L158 392L270 529L35 529L35 700L490 700L490 559L373 415Z"  horiz-adv-x="548" vert-adv-y="1000"  />

      
      <glyph glyph-name="uni34" unicode="&#x34;" d="M570 270L570 107L500 107L500 0L322 0L322 107L15 107L15 270L224 700L422 700L211 270L322 270L322 396L500 396L500 270L570 270Z"  horiz-adv-x="578" vert-adv-y="1000"  />

      
      <glyph glyph-name="uni35" unicode="&#x35;" d="M290 454Q393 454 461.50 394Q530 334 530 224Q530 110 456 47.50Q382-15 272-15Q180-15 112 24.50Q44 64 13 143L169 232Q191 159 272 159Q310 159 330.50 176.50Q351 194 351 224Q351 255 330.50 272Q310 289 275 289L51 289L80 700L492 700L492 529L245 529L240 454L290 454Z"  horiz-adv-x="550" vert-adv-y="1000"  />

      
      <glyph glyph-name="uni36" unicode="&#x36;" d="M321 477Q423 464 484 397.50Q545 331 545 232Q545 123 472 54Q399-15 280-15Q161-15 88 54Q15 123 15 232Q15 314 59 377L266 700L469 700L321 477M280 149Q317 149 341.50 171Q366 193 366 232Q366 272 342 294Q318 316 280 316Q242 316 218 294Q194 272 194 232Q194 192 218 170.50Q242 149 280 149Z"  horiz-adv-x="560" vert-adv-y="1000"  />

      
      <glyph glyph-name="uni37" unicode="&#x37;" d="M1 700L475 700L475 552L256 0L63 0L271 527L1 527L1 700Z"  horiz-adv-x="490" vert-adv-y="1000"  />

      
      <glyph glyph-name="uni38" unicode="&#x38;" d="M453 366Q546 308 546 197Q546 99 478 42.50Q410-14 285-14Q159-14 91 42.50Q23 99 23 197Q23 308 116 366Q47 417 47 506Q47 604 114 659Q181 714 285 714Q388 714 455 658.50Q522 603 522 506Q522 417 453 366M285 552Q253 552 234.50 535.50Q216 519 216 492Q216 464 234.50 448Q253 432 285 432Q315 432 334 448.50Q353 465 353 492Q353 519 334 535.50Q315 552 285 552M285 150Q322 150 345 169.50Q368 189 368 222Q368 256 345 275.50Q322 295 285 295Q247 295 224.50 275.50Q202 256 202 222Q202 189 224.50 169.50Q247 150 285 150Z"  horiz-adv-x="569" vert-adv-y="1000"  />

      
      <glyph glyph-name="uni39" unicode="&#x39;" d="M545 468Q545 386 501 323L294 0L91 0L239 223Q137 236 76 302.50Q15 369 15 468Q15 577 88 646Q161 715 280 715Q399 715 472 646Q545 577 545 468M194 468Q194 428 218 406Q242 384 280 384Q318 384 342 406Q366 428 366 468Q366 508 342 529.50Q318 551 280 551Q243 551 218.50 529Q194 507 194 468Z"  horiz-adv-x="560" vert-adv-y="1000"  />

      
      <glyph glyph-name="uni3a" unicode="&#x3a;" d="M145 307Q101 307 70.50 337.50Q40 368 40 411Q40 454 71 484.50Q102 515 145 515Q188 515 218.50 484.50Q249 454 249 411Q249 368 218.50 337.50Q188 307 145 307M145-14Q101-14 70.50 16.50Q40 47 40 90Q40 133 71 163.50Q102 194 145 194Q188 194 218.50 163.50Q249 133 249 90Q249 47 218.50 16.50Q188-14 145-14Z"  horiz-adv-x="289" vert-adv-y="1000"  />

      
      <glyph glyph-name="uni3b" unicode="&#x3b;" d="M160 307Q116 307 85.50 337.50Q55 368 55 411Q55 454 86 484.50Q117 515 160 515Q203 515 233.50 484.50Q264 454 264 411Q264 368 233.50 337.50Q203 307 160 307M261 174L177-140L43-140L78 174L261 174Z"  horiz-adv-x="304" vert-adv-y="1000"  />

      
      <glyph glyph-name="uni3c" unicode="&#x3c;" d="M486 619L486 447L215 350L486 253L486 81L36 276L36 424L486 619Z"  horiz-adv-x="521" vert-adv-y="1000"  />

      
      <glyph glyph-name="uni3d" unicode="&#x3d;" d="M35 380L35 539L475 539L475 380L35 380M35 161L35 320L475 320L475 161L35 161Z"  horiz-adv-x="511" vert-adv-y="1000"  />

      
      <glyph glyph-name="uni3e" unicode="&#x3e;" d="M35 619L485 424L485 276L35 81L35 253L306 350L35 447L35 619Z"  horiz-adv-x="521" vert-adv-y="1000"  />

      
      <glyph glyph-name="uni3f" unicode="&#x3f;" d="M178 255Q178 296 201.50 332.50Q225 369 253 391.50Q281 414 304.50 441.50Q328 469 328 494Q328 542 269 542Q208 542 173 463L21 550Q54 631 122.50 673Q191 715 276 715Q372 715 439 661.50Q506 608 506 516Q506 474 489.50 438.50Q473 403 450 379Q427 355 404 334.50Q381 314 364.50 294Q348 274 348 255L178 255M336.50 16Q336.50 16 321.25 1Q306-14 263-14Q220-14 189.50 16Q159 46 159 90Q159 133 189.50 163.50Q220 194 263 194Q306 194 336.50 163.50Q367 133 367 90Q367 46 336.50 16Z"  horiz-adv-x="547" vert-adv-y="1000"  />

      
      <glyph glyph-name="uni40" unicode="&#x40;" d="M392 612Q498 612 580 560.50Q662 509 702 432Q742 355 742 270Q742 163 698.50 104.50Q655 46 576 46Q523 46 487 68Q451 90 435 128Q398 85 340 85Q274 85 233.50 131.50Q193 178 193 250Q193 322 233.50 368.50Q274 415 340 415Q391 415 426 382L426 403L562 403L562 167Q562 104 612 104Q650 104 673.50 144.50Q697 185 697 270Q697 397 609 484Q521 571 392 571Q257 571 164.50 478.50Q72 386 72 250Q72 110 167.50 19.50Q263-71 410-71Q496-71 561-49L561-92Q496-112 410-112Q246-112 137-9.50Q28 93 28 250Q28 401 132.50 506.50Q237 612 392 612M378 198Q399 198 412 212.50Q425 227 425 250Q425 273 412.50 287.50Q400 302 378 302Q356 302 343 287.50Q330 273 330 250Q330 227 343 212.50Q356 198 378 198Z"  horiz-adv-x="769" vert-adv-y="1000"  />

      
      <glyph glyph-name="uni41" unicode="&#x41;" d="M482 0L452 101L219 101L189 0L-5 0L226 700L444 700L675 0L482 0M265 255L406 255L335 493L265 255Z"  horiz-adv-x="671" vert-adv-y="1000"  />

      
      <glyph glyph-name="uni42" unicode="&#x42;" d="M497 362Q585 310 585 205Q585 112 521 56Q457 0 350 0L55 0L55 700L331 700Q436 700 499 646.50Q562 593 562 501Q562 413 497 362M326 540L234 540L234 430L326 430Q350 430 366.50 444.50Q383 459 383 485Q383 510 367 525Q351 540 326 540M345 160Q372 160 389 176.50Q406 193 406 219Q406 246 389 262Q372 278 345 278L234 278L234 160L345 160Z"  horiz-adv-x="602" vert-adv-y="1000"  />

      
      <glyph glyph-name="uni43" unicode="&#x43;" d="M393-15Q235-15 131.50 89.50Q28 194 28 350Q28 506 131.50 610.50Q235 715 393 715Q488 715 569 670Q650 625 696 549L541 460Q521 497 481.50 518.50Q442 540 393 540Q309 540 257.50 487.50Q206 435 206 350Q206 265 257.50 212.50Q309 160 393 160Q442 160 481.50 181.50Q521 203 541 241L696 151Q650 74 569.50 29.50Q489-15 393-15Z"  horiz-adv-x="719" vert-adv-y="1000"  />

      
      <glyph glyph-name="uni44" unicode="&#x44;" d="M340 700Q485 700 582.50 599.50Q680 499 680 350Q680 201 582.50 100.50Q485 0 340 0L55 0L55 700L340 700M340 173Q413 173 459 221.50Q505 270 505 350Q505 430 459 478.50Q413 527 340 527L239 527L239 173L340 173Z"  horiz-adv-x="708" vert-adv-y="1000"  />

      
      <glyph glyph-name="uni45" unicode="&#x45;" d="M234 168L505 168L505 0L55 0L55 700L500 700L500 533L234 533L234 436L475 436L475 271L234 271L234 168Z"  horiz-adv-x="535" vert-adv-y="1000"  />

      
      <glyph glyph-name="uni46" unicode="&#x46;" d="M485 527L234 527L234 413L480 413L480 240L234 240L234 0L55 0L55 700L485 700L485 527Z"  horiz-adv-x="518" vert-adv-y="1000"  />

      
      <glyph glyph-name="uni47" unicode="&#x47;" d="M750 401L750 330Q750 176 653.50 80.50Q557-15 403-15Q239-15 133.50 90Q28 195 28 349Q28 503 133 609Q238 715 393 715Q491 715 572.50 671Q654 627 700 554L548 467Q527 500 486.50 520Q446 540 395 540Q312 540 259 486Q206 432 206 348Q206 267 258.50 211Q311 155 406 155Q528 155 567 247L397 247L397 401L750 401Z"  horiz-adv-x="778" vert-adv-y="1000"  />

      
      <glyph glyph-name="uni48" unicode="&#x48;" d="M431 700L609 700L609 0L431 0L431 269L234 269L234 0L55 0L55 700L234 700L234 441L431 441L431 700Z"  horiz-adv-x="665" vert-adv-y="1000"  />

      
      <glyph glyph-name="uni49" unicode="&#x49;" d="M55 700L234 700L234 0L55 0L55 700Z"  horiz-adv-x="289" vert-adv-y="1000"  />

      
      <glyph glyph-name="uni4a" unicode="&#x4a;" d="M267-15Q95-15 25 125L178 214Q193 185 213 172Q233 159 267 159Q344 159 344 230L344 700L523 700L523 227Q523 114 453.50 49.50Q384-15 267-15Z"  horiz-adv-x="571" vert-adv-y="1000"  />

      
      <glyph glyph-name="uni4b" unicode="&#x4b;" d="M635 0L435 0L234 313L234 0L55 0L55 700L234 700L234 406L425 700L625 700L403 360L635 0Z"  horiz-adv-x="631" vert-adv-y="1000"  />

      
      <glyph glyph-name="uni4c" unicode="&#x4c;" d="M234 173L475 173L475 0L55 0L55 700L234 700L234 173Z"  horiz-adv-x="485" vert-adv-y="1000"  />

      
      <glyph glyph-name="uni4d" unicode="&#x4d;" d="M769 700L769 0L591 0L591 377L421 96L403 96L234 376L234 0L55 0L55 700L234 700L412 401L591 700L769 700Z"  horiz-adv-x="825" vert-adv-y="1000"  />

      
      <glyph glyph-name="uni4e" unicode="&#x4e;" d="M441 700L619 700L619 0L481 0L234 352L234 0L55 0L55 700L194 700L441 348L441 700Z"  horiz-adv-x="675" vert-adv-y="1000"  />

      
      <glyph glyph-name="uni4f" unicode="&#x4f;" d="M655.50 90.50Q655.50 90.50 602.25 37.75Q549-15 395-15Q241-15 134.50 90.50Q28 196 28 350Q28 504 134.50 609.50Q241 715 395 715Q549 715 655.50 609.50Q762 504 762 350Q762 196 655.50 90.50M260 213.50Q260 213.50 287 186.75Q314 160 395 160Q476 160 530 213.50Q584 267 584 350Q584 433 530 486.50Q476 540 395 540Q314 540 260 486.50Q206 433 206 350Q206 267 260 213.50Z"  horiz-adv-x="790" vert-adv-y="1000"  />

      
      <glyph glyph-name="uni50" unicode="&#x50;" d="M327 700Q433 700 505 631Q577 562 577 455Q577 348 505 279Q433 210 327 210L234 210L234 0L55 0L55 700L327 700M327 380Q357 380 377.50 401Q398 422 398 455Q398 488 377.50 508.50Q357 529 327 529L234 529L234 380L327 380Z"  horiz-adv-x="592" vert-adv-y="1000"  />

      
      <glyph glyph-name="uni51" unicode="&#x51;" d="M762 350Q762 223 687 126L750 58L625-53L556 21Q481-15 395-15Q241-15 134.50 90.50Q28 196 28 350Q28 504 134.50 609.50Q241 715 395 715Q549 715 655.50 609.50Q762 504 762 350M395 160Q406 160 424 162L330 263L456 373L563 259Q584 301 584 350Q584 433 530 486.50Q476 540 395 540Q314 540 260 486.50Q206 433 206 350Q206 267 260 213.50Q314 160 395 160Z"  horiz-adv-x="795" vert-adv-y="1000"  />

      
      <glyph glyph-name="uni52" unicode="&#x52;" d="M420 0L298 226L234 226L234 0L55 0L55 700L335 700Q442 700 514.50 631.50Q587 563 587 458Q587 395 555 342.50Q523 290 468 259L612 0L420 0M234 535L234 378L333 378Q366 377 387 399Q408 421 408 456Q408 491 387 513Q366 535 333 535L234 535Z"  horiz-adv-x="620" vert-adv-y="1000"  />

      
      <glyph glyph-name="uni53" unicode="&#x53;" d="M304-15Q193-15 120 32Q47 79 18 159L171 248Q210 155 309 155Q391 155 391 202Q391 233 344 252Q324 260 256 279Q160 307 104 357.50Q48 408 48 498Q48 595 117.50 655Q187 715 291 715Q379 715 447 674Q515 633 551 555L401 467Q368 545 292 545Q260 545 243.50 532Q227 519 227 499Q227 476 251.50 460Q276 444 347 423Q398 408 429 395Q460 382 497 357.50Q534 333 552 294.50Q570 256 570 204Q570 101 497 43Q424-15 304-15Z"  horiz-adv-x="585" vert-adv-y="1000"  />

      
      <glyph glyph-name="uni54" unicode="&#x54;" d="M535 700L535 527L362 527L362 0L183 0L183 527L10 527L10 700L535 700Z"  horiz-adv-x="545" vert-adv-y="1000"  />

      
      <glyph glyph-name="uni55" unicode="&#x55;" d="M524.50 52Q524.50 52 485.75 18.50Q447-15 325-15Q203-15 125.50 52Q48 119 48 230L48 700L227 700L227 247Q227 159 325 159Q423 159 423 247L423 700L602 700L602 230Q602 119 524.50 52Z"  horiz-adv-x="650" vert-adv-y="1000"  />

      
      <glyph glyph-name="uni56" unicode="&#x56;" d="M226 0L0 700L196 700L332 218L469 700L665 700L439 0L226 0Z"  horiz-adv-x="665" vert-adv-y="1000"  />

      
      <glyph glyph-name="uni57" unicode="&#x57;" d="M201 0L5 700L198 700L306 259L431 700L572 700L697 259L806 700L998 700L803 0L614 0L502 395L390 0L201 0Z"  horiz-adv-x="1004" vert-adv-y="1000"  />

      
      <glyph glyph-name="uni58" unicode="&#x58;" d="M626 0L426 0L316 186L206 0L5 0L216 357L13 700L214 700L316 527L418 700L619 700L416 356L626 0Z"  horiz-adv-x="632" vert-adv-y="1000"  />

      
      <glyph glyph-name="uni59" unicode="&#x59;" d="M651 700L415 269L415 0L236 0L236 267L0 700L201 700L325 441L450 700L651 700Z"  horiz-adv-x="651" vert-adv-y="1000"  />

      
      <glyph glyph-name="uni5a" unicode="&#x5a;" d="M265 173L520 173L520 0L33 0L33 138L280 527L38 527L38 700L512 700L512 562L265 173Z"  horiz-adv-x="542" vert-adv-y="1000"  />

      
      <glyph glyph-name="uni5b" unicode="&#x5b;" d="M309 641L212 641L212 59L309 59L309-100L45-100L45 800L309 800L309 641Z"  horiz-adv-x="329" vert-adv-y="1000"  />

      
      <glyph glyph-name="uni5c" unicode="&#x5c;" d="M425-100L25 800L95 800L495-100L425-100Z"  horiz-adv-x="520" vert-adv-y="1000"  />

      
      <glyph glyph-name="uni5d" unicode="&#x5d;" d="M284 800L284-100L20-100L20 59L117 59L117 641L20 641L20 800L284 800Z"  horiz-adv-x="329" vert-adv-y="1000"  />

      
      <glyph glyph-name="uni5e" unicode="&#x5e;" d="M349 700L549 346L371 346L290 504L209 346L31 346L231 700L349 700Z"  horiz-adv-x="580" vert-adv-y="1000"  />

      
      <glyph glyph-name="uni5f" unicode="&#x5f;" d="M25-186L25-28L490-28L490-186L25-186Z"  horiz-adv-x="515" vert-adv-y="1000"  />

      
      <glyph glyph-name="uni60" unicode="&#x60;" d="M294 555L214 700L20 700L136 555L294 555Z"  horiz-adv-x="314" vert-adv-y="1000"  />

      
      <glyph glyph-name="uni61" unicode="&#x61;" d="M401 500L567 500L567 0L401 0L401 46Q350-14 259-14Q159-14 91.50 61.50Q24 137 24 250Q24 363 91.50 438.50Q159 514 259 514Q350 514 401 454L401 500M220 171Q220 171 234.50 156Q249 141 296 141Q343 141 372 171Q401 201 401 250Q401 299 372 329Q343 359 296 359Q249 359 220 329Q191 299 191 250Q191 201 220 171Z"  horiz-adv-x="615" vert-adv-y="1000"  />

      
      <glyph glyph-name="uni62" unicode="&#x62;" d="M356 514Q456 514 523.50 438.50Q591 363 591 250Q591 137 523.50 61.50Q456-14 356-14Q265-14 214 46L214 0L48 0L48 700L214 700L214 454Q265 514 356 514M243 171Q243 171 257.50 156Q272 141 319 141Q366 141 395 171Q424 201 424 250Q424 299 395 329Q366 359 319 359Q272 359 243 329Q214 299 214 250Q214 201 243 171Z"  horiz-adv-x="615" vert-adv-y="1000"  />

      
      <glyph glyph-name="uni63" unicode="&#x63;" d="M290-14Q176-14 100 62Q24 138 24 250Q24 362 100 438Q176 514 290 514Q364 514 424.50 479Q485 444 518 385L376 303Q349 352 289 352Q247 352 219 323.50Q191 295 191 250Q191 205 219 176.50Q247 148 289 148Q351 148 376 198L518 116Q485 56 424.50 21Q364-14 290-14Z"  horiz-adv-x="528" vert-adv-y="1000"  />

      
      <glyph glyph-name="uni64" unicode="&#x64;" d="M401 700L567 700L567 0L401 0L401 46Q350-14 259-14Q159-14 91.50 61.50Q24 137 24 250Q24 363 91.50 438.50Q159 514 259 514Q350 514 401 454L401 700M220 171Q220 171 234.50 156Q249 141 296 141Q343 141 372 171Q401 201 401 250Q401 299 372 329Q343 359 296 359Q249 359 220 329Q191 299 191 250Q191 201 220 171Z"  horiz-adv-x="615" vert-adv-y="1000"  />

      
      <glyph glyph-name="uni65" unicode="&#x65;" d="M196 189Q221 128 308 128Q362 128 399 163L519 79Q445-14 304-14Q177-14 100.50 60.50Q24 135 24 249Q24 362 99 438Q174 514 290 514Q402 514 475 439Q548 364 548 251Q548 218 541 189L196 189M194 304L386 304Q366 374 292 374Q215 374 194 304Z"  horiz-adv-x="571" vert-adv-y="1000"  />

      
      <glyph glyph-name="uni66" unicode="&#x66;" d="M330 561Q244 567 244 500L330 500L330 341L244 341L244 0L78 0L78 341L15 341L15 500L78 500Q78 608 141.50 665Q205 722 330 715L330 561Z"  horiz-adv-x="330" vert-adv-y="1000"  />

      
      <glyph glyph-name="uni67" unicode="&#x67;" d="M406 500L570 500L570 20Q570-40 547.50-86.50Q525-133 487-160.50Q449-188 403.50-201.50Q358-215 307-215Q224-215 159-184Q94-153 61-93L199-13Q235-70 305-70Q350-70 378-47Q406-24 406 20L406 68Q355 6 266 6Q163 6 95.50 80Q28 154 28 260Q28 366 95.50 440Q163 514 266 514Q355 514 406 452L406 500M223.50 185.50Q223.50 185.50 238.25 170.75Q253 156 300 156Q347 156 376.50 185.50Q406 215 406 260Q406 305 376.50 334.50Q347 364 300 364Q253 364 223.50 334.50Q194 305 194 260Q194 215 223.50 185.50Z"  horiz-adv-x="618" vert-adv-y="1000"  />

      
      <glyph glyph-name="uni68" unicode="&#x68;" d="M353 514Q434 514 485.50 458.50Q537 403 537 299L537 0L371 0L371 278Q371 317 350.50 337Q330 357 296 357Q257 357 235.50 333.50Q214 310 214 266L214 0L48 0L48 700L214 700L214 450Q259 514 353 514Z"  horiz-adv-x="579" vert-adv-y="1000"  />

      
      <glyph glyph-name="uni69" unicode="&#x69;" d="M198.50 569.50Q198.50 569.50 184.25 555.25Q170 541 131 541Q92 541 63.50 569.50Q35 598 35 637Q35 676 63.50 704Q92 732 131 732Q170 732 198.50 704Q227 676 227 637Q227 598 198.50 569.50M48 0L48 500L214 500L214 0L48 0Z"  horiz-adv-x="262" vert-adv-y="1000"  />

      
      <glyph glyph-name="uni6a" unicode="&#x6a;" d="M213.50 569.50Q213.50 569.50 199.25 555.25Q185 541 146 541Q107 541 78.50 569.50Q50 598 50 637Q50 676 78.50 704Q107 732 146 732Q185 732 213.50 704Q242 676 242 637Q242 598 213.50 569.50M63 0L63 500L229 500L229 0Q229-118 171-170Q113-222-10-215L-10-61Q28-63 45.50-48.50Q63-34 63 0Z"  horiz-adv-x="277" vert-adv-y="1000"  />

      
      <glyph glyph-name="uni6b" unicode="&#x6b;" d="M542 0L356 0L214 213L214 0L48 0L48 700L214 700L214 291L343 500L535 500L367 250L542 0Z"  horiz-adv-x="542" vert-adv-y="1000"  />

      
      <glyph glyph-name="uni6c" unicode="&#x6c;" d="M48 0L48 730L214 730L214 0L48 0Z"  horiz-adv-x="262" vert-adv-y="1000"  />

      
      <glyph glyph-name="uni6d" unicode="&#x6d;" d="M622 514Q709 514 759.50 458.50Q810 403 810 306L810 0L643 0L643 287Q643 357 581 357Q547 357 529.50 334.50Q512 312 512 273L512 0L346 0L346 287Q346 357 283 357Q249 357 231.50 334.50Q214 312 214 273L214 0L48 0L48 500L214 500L214 453Q260 514 349 514Q435 514 477 450Q529 514 622 514Z"  horiz-adv-x="852" vert-adv-y="1000"  />

      
      <glyph glyph-name="uni6e" unicode="&#x6e;" d="M353 514Q434 514 485.50 458.50Q537 403 537 299L537 0L371 0L371 278Q371 317 350.50 337Q330 357 296 357Q257 357 235.50 333.50Q214 310 214 266L214 0L48 0L48 500L214 500L214 450Q259 514 353 514Z"  horiz-adv-x="579" vert-adv-y="1000"  />

      
      <glyph glyph-name="uni6f" unicode="&#x6f;" d="M291-14Q180-14 102 62.50Q24 139 24 250Q24 361 102 437.50Q180 514 291 514Q403 514 480.50 437.50Q558 361 558 250Q558 139 480.50 62.50Q403-14 291-14M291 146Q335 146 363.50 175Q392 204 392 250Q392 296 363.50 325Q335 354 291 354Q248 354 219.50 325Q191 296 191 250Q191 204 219.50 175Q248 146 291 146Z"  horiz-adv-x="583" vert-adv-y="1000"  />

      
      <glyph glyph-name="uni70" unicode="&#x70;" d="M356 514Q456 514 523.50 438.50Q591 363 591 250Q591 137 523.50 61.50Q456-14 356-14Q265-14 214 46L214-200L48-200L48 500L214 500L214 454Q265 514 356 514M243 171Q243 171 257.50 156Q272 141 319 141Q366 141 395 171Q424 201 424 250Q424 299 395 329Q366 359 319 359Q272 359 243 329Q214 299 214 250Q214 201 243 171Z"  horiz-adv-x="615" vert-adv-y="1000"  />

      
      <glyph glyph-name="uni71" unicode="&#x71;" d="M401 500L567 500L567-200L401-200L401 46Q350-14 259-14Q159-14 91.50 61.50Q24 137 24 250Q24 363 91.50 438.50Q159 514 259 514Q350 514 401 454L401 500M220 171Q220 171 234.50 156Q249 141 296 141Q343 141 372 171Q401 201 401 250Q401 299 372 329Q343 359 296 359Q249 359 220 329Q191 299 191 250Q191 201 220 171Z"  horiz-adv-x="615" vert-adv-y="1000"  />

      
      <glyph glyph-name="uni72" unicode="&#x72;" d="M214 407Q228 456 270 483Q312 510 364 510L364 326Q307 335 260.50 305Q214 275 214 207L214 0L48 0L48 500L214 500L214 407Z"  horiz-adv-x="379" vert-adv-y="1000"  />

      
      <glyph glyph-name="uni73" unicode="&#x73;" d="M207 354Q207 340 232.50 331Q258 322 294.50 314Q331 306 367.50 291.50Q404 277 429.50 242Q455 207 455 154Q455 68 391 27Q327-14 239-14Q71-14 15 105L160 178Q179 123 238 123Q283 123 283 150Q283 164 258 173Q233 182 197 191Q161 200 125 215Q89 230 64 263.50Q39 297 39 346Q39 426 98 470Q157 514 240 514Q388 514 446 398L306 335Q284 378 244 378Q207 378 207 354Z"  horiz-adv-x="475" vert-adv-y="1000"  />

      
      <glyph glyph-name="uni74" unicode="&#x74;" d="M358 341L254 341L254 196Q254 163 278 155Q302 147 358 150L358 0Q209-18 148.50 27.50Q88 73 88 192L88 341L13 341L13 500L88 500L88 590L254 640L254 500L358 500L358 341Z"  horiz-adv-x="394" vert-adv-y="1000"  />

      
      <glyph glyph-name="uni75" unicode="&#x75;" d="M365 500L531 500L531 0L365 0L365 50Q320-14 226-14Q145-14 93.50 41.50Q42 97 42 201L42 500L208 500L208 222Q208 183 228.50 163Q249 143 283 143Q322 143 343.50 166.50Q365 190 365 234L365 500Z"  horiz-adv-x="579" vert-adv-y="1000"  />

      
      <glyph glyph-name="uni76" unicode="&#x76;" d="M370 500L554 500L367 0L187 0L0 500L184 500L277 213L370 500Z"  horiz-adv-x="554" vert-adv-y="1000"  />

      
      <glyph glyph-name="uni77" unicode="&#x77;" d="M610 500L786 500L633 0L471 0L399 254L327 0L165 0L12 500L188 500L254 228L329 500L469 500L544 228L610 500Z"  horiz-adv-x="798" vert-adv-y="1000"  />

      
      <glyph glyph-name="uni78" unicode="&#x78;" d="M549 0L361 0L274 123L187 0L0 0L181 255L7 500L194 500L274 387L354 500L542 500L368 255L549 0Z"  horiz-adv-x="549" vert-adv-y="1000"  />

      
      <glyph glyph-name="uni79" unicode="&#x79;" d="M365 500L549 500L378 8Q338-105 265-155Q192-205 76-200L76-44Q129-44 156-31Q183-18 200 16L0 500L186 500L287 210L365 500Z"  horiz-adv-x="549" vert-adv-y="1000"  />

      
      <glyph glyph-name="uni7a" unicode="&#x7a;" d="M262 154L449 154L449 0L40 0L40 114L217 346L50 346L50 500L439 500L439 386L262 154Z"  horiz-adv-x="484" vert-adv-y="1000"  />

      
      <glyph glyph-name="uni7b" unicode="&#x7b;" d="M342-107Q227-114 170-63Q113-12 113 88L113 222Q113 254 95 265Q77 276 41 272L41 431Q77 427 95 438Q113 449 113 481L113 615Q113 715 170 766Q227 817 342 810L342 656Q279 662 279 615L279 481Q279 388 212 352Q279 315 279 222L279 88Q279 41 342 47L342-107Z"  horiz-adv-x="362" vert-adv-y="1000"  />

      
      <glyph glyph-name="uni7c" unicode="&#x7c;" d="M55-200L55 720L222 720L222-200L55-200Z"  horiz-adv-x="277" vert-adv-y="1000"  />

      
      <glyph glyph-name="uni7d" unicode="&#x7d;" d="M20-107L20 47Q83 41 83 88L83 222Q83 315 150 352Q83 388 83 481L83 615Q83 662 20 656L20 810Q135 817 192 766Q249 715 249 615L249 481Q249 449 267 438Q285 427 321 431L321 272Q285 276 267 265Q249 254 249 222L249 88Q249-12 192-63Q135-114 20-107Z"  horiz-adv-x="362" vert-adv-y="1000"  />

      
      <glyph glyph-name="uni7e" unicode="&#x7e;" d="M439 461L570 400Q544 289 470.50 251Q397 213 309 255Q237 288 209.50 285Q182 282 167 235L35 296Q61 407 135 445Q209 483 297 441Q349 418 373 413Q397 408 412 418Q427 428 439 461Z"  horiz-adv-x="606" vert-adv-y="1000"  />

      
      <glyph glyph-name="unia1" unicode="&#xa1;" d="M73.50 484Q73.50 484 88.75 499Q104 514 147 514Q190 514 220.50 484Q251 454 251 410Q251 367 220.50 336.50Q190 306 147 306Q104 306 73.50 336.50Q43 367 43 410Q43 454 73.50 484M78 245L216 245L249 0L249-200L45-200L45 0L78 245Z"  horiz-adv-x="294" vert-adv-y="1000"  />

      
      <glyph glyph-name="unia2" unicode="&#xa2;" d="M289 248Q351 248 376 298L518 216Q485 156 424.50 121Q364 86 290 86Q264 86 234 91L205 0L142 0L177 109Q107 140 65.50 204.50Q24 269 24 350Q24 462 100 538Q176 614 290 614Q318 614 339 610L368 700L431 700L396 593Q476 560 518 485L376 403Q367 421 346 436L285 248L289 248M191 350Q191 296 229 268L288 452Q246 451 218.50 423Q191 395 191 350Z"  horiz-adv-x="528" vert-adv-y="1000"  />

      
      <glyph glyph-name="unia3" unicode="&#xa3;" d="M266 173L570 173L570 0L25 0L25 173L87 173L87 272L35 272L35 412L87 412L87 488Q87 597 155.50 656Q224 715 317 715Q487 715 554 559L399 473Q376 544 324 544Q297 544 281.50 526.50Q266 509 266 478L266 412L455 412L455 272L266 272L266 173Z"  horiz-adv-x="575" vert-adv-y="1000"  />

      
      <glyph glyph-name="unia4" unicode="&#xa4;" d="M483 350Q483 276 438 220L508 151L465 109L395 179Q339 140 267 140Q195 140 139 180L68 109L25 151L95 221Q51 276 51 350Q51 424 95 479L25 549L68 591L139 520Q195 560 267 560Q339 560 395 521L465 591L508 549L439 480Q483 423 483 350M267 294Q292 294 307.50 309Q323 324 323 350Q323 376 307.50 391Q292 406 267 406Q241 406 226 391Q211 376 211 350Q211 324 226 309Q241 294 267 294Z"  horiz-adv-x="533" vert-adv-y="1000"  />

      
      <glyph glyph-name="unia5" unicode="&#xa5;" d="M651 700L472 372L557 372L557 278L420 278L415 269L415 237L557 237L557 144L415 144L415 0L236 0L236 144L73 144L73 237L236 237L236 267L230 278L73 278L73 372L179 372L0 700L201 700L325 441L450 700L651 700Z"  horiz-adv-x="631" vert-adv-y="1000"  />

      
      <glyph glyph-name="unia6" unicode="&#xa6;" d="M55 350L55 720L222 720L222 350L55 350M55-200L55 170L222 170L222-200L55-200Z"  horiz-adv-x="277" vert-adv-y="1000"  />

      
      <glyph glyph-name="unia7" unicode="&#xa7;" d="M517 291Q517 215 462 166Q493 124 493 63Q493-22 430.50-67Q368-112 275-112Q103-112 47 13L190 91Q216 26 275 26Q327 26 327 63Q327 73 320 81.50Q313 90 298 97.50Q283 105 269.50 110.50Q256 116 231 125Q206 134 191 140Q122 169 80 210Q38 251 38 320Q38 399 96 444Q70 485 70 542Q70 625 130 670Q190 715 272 715Q425 715 485 585L350 517Q324 580 277 580Q257 580 246 570.50Q235 561 235 546Q235 535 241.50 525.50Q248 516 263.50 507.50Q279 499 292 493.50Q305 488 331 478.50Q357 469 371 463Q438 436 477.50 397Q517 358 517 291M216 361Q202 349 202 328Q202 307 218.50 294Q235 281 270 268Q281 264 303.50 256Q326 248 338 244Q353 256 353 278Q353 293 342.50 304Q332 315 321 320Q310 325 285 335Q282 336 256 345.50Q230 355 216 361Z"  horiz-adv-x="545" vert-adv-y="1000"  />

      
      <glyph glyph-name="unia8" unicode="&#xa8;" d="M100 535Q67 535 43.50 558.50Q20 582 20 615Q20 648 43.50 671.50Q67 695 100 695Q132 695 155.50 671.50Q179 648 179 615Q179 582 155.50 558.50Q132 535 100 535M294 535Q262 535 238.50 558.50Q215 582 215 615Q215 648 238.50 671.50Q262 695 294 695Q327 695 350.50 671.50Q374 648 374 615Q374 582 350.50 558.50Q327 535 294 535Z"  horiz-adv-x="389" vert-adv-y="1000"  />

      
      <glyph glyph-name="unia9" unicode="&#xa9;" d="M646 94Q646 94 593 41Q540-12 390-12Q240-12 134 94Q28 200 28 350Q28 500 134 606Q240 712 390 712Q540 712 646 606Q752 500 752 350Q752 200 646 94M390 29Q521 29 614 123Q707 217 707 350Q707 483 614 577Q521 671 390 671Q258 671 165 577Q72 483 72 350Q72 217 165 123Q258 29 390 29M393 153Q311 153 252.50 211.50Q194 270 194 350Q194 430 252.50 488.50Q311 547 393 547Q444 547 489 521Q534 495 561 450L443 381Q424 411 389 411Q362 411 345.50 392.50Q329 374 329 350Q329 326 345.50 307.50Q362 289 389 289Q424 289 443 319L561 250Q535 205 489.50 179Q444 153 393 153Z"  horiz-adv-x="779" vert-adv-y="1000"  />

      
      <glyph glyph-name="uniab" unicode="&#xab;" d="M309 504L197 309L309 114L168 114L55 309L168 504L309 504M514 504L401 309L514 114L372 114L260 309L372 504L514 504Z"  horiz-adv-x="569" vert-adv-y="1000"  />

      
      <glyph glyph-name="uniac" unicode="&#xac;" d="M35 429L534 429L534 151L365 151L365 271L35 271L35 429Z"  horiz-adv-x="569" vert-adv-y="1000"  />

      
      <glyph glyph-name="uniae" unicode="&#xae;" d="M134 606Q134 606 187 659Q240 712 390 712Q540 712 646 606Q752 500 752 350Q752 200 646 94Q540-12 390-12Q240-12 134 94Q28 200 28 350Q28 500 134 606M390 29Q521 29 614 123Q707 217 707 350Q707 483 614 577Q521 671 390 671Q258 671 165 577Q72 483 72 350Q72 217 165 123Q258 29 390 29M558 409Q558 338 507 295L581 165L440 165L392 262L371 262L371 165L240 165L240 535L416 535Q474 535 516 500Q558 465 558 409M395 420L371 420L371 367L395 367Q427 367 427 394Q427 420 395 420Z"  horiz-adv-x="779" vert-adv-y="1000"  />

      
      <glyph glyph-name="uniaf" unicode="&#xaf;" d="M20 554L20 684L329 684L329 554L20 554Z"  horiz-adv-x="349" vert-adv-y="1000"  />

      
      <glyph glyph-name="unib0" unicode="&#xb0;" d="M208 461Q132 461 81 512Q30 563 30 635Q30 708 81 759Q132 810 208 810Q284 810 334.50 759Q385 708 385 635Q385 562 335 511.50Q285 461 208 461M175.50 602.50Q175.50 602.50 181.75 596.25Q188 590 208 590Q228 590 240 602.50Q252 615 252 635Q252 655 239.50 668Q227 681 208 681Q188 681 175.50 668Q163 655 163 635Q163 615 175.50 602.50Z"  horiz-adv-x="415" vert-adv-y="1000"  />

      
      <glyph glyph-name="unib1" unicode="&#xb1;" d="M359 529L519 529L519 371L359 371L359 235L201 235L201 371L41 371L41 529L201 529L201 665L359 665L359 529M41 21L41 180L519 180L519 21L41 21Z"  horiz-adv-x="560" vert-adv-y="1000"  />

      
      <glyph glyph-name="unib4" unicode="&#xb4;" d="M20 555L178 555L294 700L100 700L20 555Z"  horiz-adv-x="314" vert-adv-y="1000"  />

      
      <glyph glyph-name="unib5" unicode="&#xb5;" d="M567 149L593 149L593 0L521 0Q445 0 404 47Q359-15 263-15Q236-15 214-8L214-200L48-200L48 500L214 500L214 222Q214 182 234.50 162Q255 142 290 142Q328 142 349.50 165.50Q371 189 371 234L371 500L537 500L537 179Q537 149 567 149Z"  horiz-adv-x="608" vert-adv-y="1000"  />

      
      <glyph glyph-name="unib6" unicode="&#xb6;" d="M692 700L692 540L625 540L625-200L467-200L467 540L403 540L403-200L245-200L245 251Q152 251 86 316.50Q20 382 20 475Q20 569 85.50 634.50Q151 700 245 700L692 700Z"  horiz-adv-x="727" vert-adv-y="1000"  />

      
      <glyph glyph-name="unib7" unicode="&#xb7;" d="M145 246Q101 246 70.50 276.50Q40 307 40 350Q40 393 71 423.50Q102 454 145 454Q188 454 218.50 423.50Q249 393 249 350Q249 307 218.50 276.50Q188 246 145 246Z"  horiz-adv-x="289" vert-adv-y="1000"  />

      
      <glyph glyph-name="unib8" unicode="&#xb8;" d="M196-46Q218-53 236-72Q254-91 254-123Q254-235 20-221L20-112Q115-119 115-98Q115-83 62-78L62 0L196 0L196-46Z"  horiz-adv-x="274" vert-adv-y="1000"  />

      
      <glyph glyph-name="unibb" unicode="&#xbb;" d="M197 504L309 309L197 114L55 114L168 309L55 504L197 504M401 504L514 309L401 114L260 114L372 309L260 504L401 504Z"  horiz-adv-x="569" vert-adv-y="1000"  />

      
      <glyph glyph-name="unibc" unicode="&#xbc;" d="M109 300L109 566L30 545L0 654L127 700L240 700L240 300L109 300M511 700L625 700L221 0L107 0L511 700M805 171L805 56L770 56L770 0L648 0L648 56L464 56L464 171L580 400L718 400L607 171L648 171L648 234L770 234L770 171L805 171Z"  horiz-adv-x="818" vert-adv-y="1000"  />

      
      <glyph glyph-name="unibd" unicode="&#xbd;" d="M109 300L109 566L30 545L0 654L127 700L240 700L240 300L109 300M511 700L625 700L221 0L107 0L511 700M668 117L784 117L784 0L478 0L478 89L621 228Q650 257 650 276Q650 298 624 298Q597 298 578 254L471 314Q518 414 629 414Q692 414 736 378Q780 342 780 285Q780 222 710 157L668 117Z"  horiz-adv-x="812" vert-adv-y="1000"  />

      
      <glyph glyph-name="unibe" unicode="&#xbe;" d="M326 425Q326 358 282.50 322Q239 286 165 286Q45 286 3 380L111 442Q126 399 165 399Q197 399 197 425Q197 450 165 450L137 450L91 518L147 584L23 584L23 700L309 700L309 613L244 537Q326 507 326 425M570 700L684 700L280 0L166 0L570 700M864 171L864 56L829 56L829 0L707 0L707 56L523 56L523 171L639 400L777 400L666 171L707 171L707 234L829 234L829 171L864 171Z"  horiz-adv-x="877" vert-adv-y="1000"  />

      
      <glyph glyph-name="unibf" unicode="&#xbf;" d="M210 484Q210 484 225 499Q240 514 284 514Q328 514 358 484Q388 454 388 410Q388 367 357.50 336.50Q327 306 284 306Q241 306 210.50 336.50Q180 367 180 410Q180 454 210 484M369 245Q369 204 345.50 167.50Q322 131 294 108.50Q266 86 242.50 58.50Q219 31 219 6Q219-42 278-42Q339-42 374 37L526-50Q493-131 424.50-173Q356-215 271-215Q175-215 108-161.50Q41-108 41-16Q41 26 57.50 61.50Q74 97 97 121Q120 145 143 165.50Q166 186 182.50 206Q199 226 199 245L369 245Z"  horiz-adv-x="547" vert-adv-y="1000"  />

      
      <glyph glyph-name="unic0" unicode="&#xc0;" d="M430 755L272 755L156 900L350 900L430 755M482 0L452 101L219 101L189 0L-5 0L226 700L444 700L675 0L482 0M265 255L406 255L335 493L265 255Z"  horiz-adv-x="671" vert-adv-y="1000"  />

      
      <glyph glyph-name="unic1" unicode="&#xc1;" d="M510 900L394 755L236 755L316 900L510 900M482 0L452 101L219 101L189 0L-5 0L226 700L444 700L675 0L482 0M265 255L406 255L335 493L265 255Z"  horiz-adv-x="671" vert-adv-y="1000"  />

      
      <glyph glyph-name="unic2" unicode="&#xc2;" d="M331 801L291 745L141 745L247 900L414 900L520 745L370 745L331 801M482 0L452 101L219 101L189 0L-5 0L226 700L444 700L675 0L482 0M265 255L406 255L335 493L265 255Z"  horiz-adv-x="671" vert-adv-y="1000"  />

      
      <glyph glyph-name="unic3" unicode="&#xc3;" d="M324 768Q300 784 288 781.50Q276 779 276 748L156 748Q156 797 167.50 832Q179 867 198 884.50Q217 902 242 908.50Q267 915 293 910Q319 905 346 891Q370 875 382.50 877Q395 879 395 910L515 910Q515 861 503.50 825.50Q492 790 473 772.50Q454 755 429 749Q404 743 377.50 748.50Q351 754 324 768M482 0L452 101L219 101L189 0L-5 0L226 700L444 700L675 0L482 0M265 255L406 255L335 493L265 255Z"  horiz-adv-x="671" vert-adv-y="1000"  />

      
      <glyph glyph-name="unic4" unicode="&#xc4;" d="M238 735Q205 735 181.50 758.50Q158 782 158 815Q158 848 181.50 871.50Q205 895 238 895Q270 895 293.50 871.50Q317 848 317 815Q317 782 293.50 758.50Q270 735 238 735M432 735Q400 735 376.50 758.50Q353 782 353 815Q353 848 376.50 871.50Q400 895 432 895Q465 895 488.50 871.50Q512 848 512 815Q512 782 488.50 758.50Q465 735 432 735M482 0L452 101L219 101L189 0L-5 0L226 700L444 700L675 0L482 0M265 255L406 255L335 493L265 255Z"  horiz-adv-x="671" vert-adv-y="1000"  />

      
      <glyph glyph-name="unic5" unicode="&#xc5;" d="M482 0L452 101L219 101L189 0L-5 0L222 689Q195 724 195 770Q195 827 234.50 864.50Q274 902 335 902Q398 902 437 864.50Q476 827 476 770Q476 723 448 687L675 0L482 0M335 802Q320 802 311 793Q302 784 302 770Q302 756 311 747Q320 738 335 738Q369 738 369 770Q369 802 335 802M265 255L406 255L335 493L265 255Z"  horiz-adv-x="671" vert-adv-y="1000"  />

      
      <glyph glyph-name="unic6" unicode="&#xc6;" d="M619 168L855 168L855 0L445 0L445 101L251 101L194 0L-5 0L395 700L850 700L850 533L619 533L619 436L825 436L825 271L619 271L619 168M337 255L445 255L445 447L337 255Z"  horiz-adv-x="885" vert-adv-y="1000"  />

      
      <glyph glyph-name="unic7" unicode="&#xc7;" d="M393 160Q442 160 481.50 181.50Q521 203 541 241L696 151Q659 89 598.50 47.50Q538 6 465-8L465-46Q487-53 505-72Q523-91 523-123Q523-235 289-221L289-112Q384-119 384-98Q384-83 331-78L331-10Q197 10 112.50 110.50Q28 211 28 350Q28 506 131.50 610.50Q235 715 393 715Q488 715 569 670Q650 625 696 549L541 460Q521 497 481.50 518.50Q442 540 393 540Q309 540 257.50 487.50Q206 435 206 350Q206 265 257.50 212.50Q309 160 393 160Z"  horiz-adv-x="719" vert-adv-y="1000"  />

      
      <glyph glyph-name="unic8" unicode="&#xc8;" d="M373 755L215 755L99 900L293 900L373 755M234 168L505 168L505 0L55 0L55 700L500 700L500 533L234 533L234 436L475 436L475 271L234 271L234 168Z"  horiz-adv-x="535" vert-adv-y="1000"  />

      
      <glyph glyph-name="unic9" unicode="&#xc9;" d="M453 900L337 755L179 755L259 900L453 900M234 168L505 168L505 0L55 0L55 700L500 700L500 533L234 533L234 436L475 436L475 271L234 271L234 168Z"  horiz-adv-x="535" vert-adv-y="1000"  />

      
      <glyph glyph-name="unica" unicode="&#xca;" d="M274 801L234 745L84 745L190 900L357 900L463 745L313 745L274 801M234 168L505 168L505 0L55 0L55 700L500 700L500 533L234 533L234 436L475 436L475 271L234 271L234 168Z"  horiz-adv-x="535" vert-adv-y="1000"  />

      
      <glyph glyph-name="unicb" unicode="&#xcb;" d="M181 735Q148 735 124.50 758.50Q101 782 101 815Q101 848 124.50 871.50Q148 895 181 895Q213 895 236.50 871.50Q260 848 260 815Q260 782 236.50 758.50Q213 735 181 735M375 735Q343 735 319.50 758.50Q296 782 296 815Q296 848 319.50 871.50Q343 895 375 895Q408 895 431.50 871.50Q455 848 455 815Q455 782 431.50 758.50Q408 735 375 735M234 168L505 168L505 0L55 0L55 700L500 700L500 533L234 533L234 436L475 436L475 271L234 271L234 168Z"  horiz-adv-x="535" vert-adv-y="1000"  />

      
      <glyph glyph-name="unicc" unicode="&#xcc;" d="M240 755L160 900L-34 900L82 755L240 755M55 700L234 700L234 0L55 0L55 700Z"  horiz-adv-x="289" vert-adv-y="1000"  />

      
      <glyph glyph-name="unicd" unicode="&#xcd;" d="M46 755L204 755L320 900L126 900L46 755M55 700L234 700L234 0L55 0L55 700Z"  horiz-adv-x="289" vert-adv-y="1000"  />

      
      <glyph glyph-name="unice" unicode="&#xce;" d="M141 801L101 745L-49 745L57 900L224 900L330 745L180 745L141 801M55 0L55 700L234 700L234 0L55 0Z"  horiz-adv-x="289" vert-adv-y="1000"  />

      
      <glyph glyph-name="unicf" unicode="&#xcf;" d="M48 735Q15 735-8.50 758.50Q-32 782-32 815Q-32 848-8.50 871.50Q15 895 48 895Q80 895 103.50 871.50Q127 848 127 815Q127 782 103.50 758.50Q80 735 48 735M242 735Q210 735 186.50 758.50Q163 782 163 815Q163 848 186.50 871.50Q210 895 242 895Q275 895 298.50 871.50Q322 848 322 815Q322 782 298.50 758.50Q275 735 242 735M55 700L234 700L234 0L55 0L55 700Z"  horiz-adv-x="289" vert-adv-y="1000"  />

      
      <glyph glyph-name="unid0" unicode="&#xd0;" d="M371 700Q516 700 613.50 599.50Q711 499 711 350Q711 201 613.50 100.50Q516 0 371 0L86 0L86 263L10 263L10 421L86 421L86 700L371 700M371 173Q444 173 490 221.50Q536 270 536 350Q536 430 490 478.50Q444 527 371 527L270 527L270 421L400 421L400 263L270 263L270 173L371 173Z"  horiz-adv-x="738" vert-adv-y="1000"  />

      
      <glyph glyph-name="unid1" unicode="&#xd1;" d="M146 748Q146 797 157.50 832Q169 867 188 884.50Q207 902 232 908.50Q257 915 283 910Q309 905 336 891Q360 875 372.50 877Q385 879 385 910L505 910Q505 861 493.50 825.50Q482 790 463 772.50Q444 755 419 749Q394 743 367.50 748.50Q341 754 314 768Q290 784 278 781.50Q266 779 266 748L146 748M441 700L619 700L619 0L481 0L234 352L234 0L55 0L55 700L194 700L441 348L441 700Z"  horiz-adv-x="675" vert-adv-y="1000"  />

      
      <glyph glyph-name="unid2" unicode="&#xd2;" d="M490 765L410 910L216 910L332 765L490 765M655.50 90.50Q655.50 90.50 602.25 37.75Q549-15 395-15Q241-15 134.50 90.50Q28 196 28 350Q28 504 134.50 609.50Q241 715 395 715Q549 715 655.50 609.50Q762 504 762 350Q762 196 655.50 90.50M260 213.50Q260 213.50 287 186.75Q314 160 395 160Q476 160 530 213.50Q584 267 584 350Q584 433 530 486.50Q476 540 395 540Q314 540 260 486.50Q206 433 206 350Q206 267 260 213.50Z"  horiz-adv-x="790" vert-adv-y="1000"  />

      
      <glyph glyph-name="unid3" unicode="&#xd3;" d="M296 765L454 765L570 910L376 910L296 765M655.50 90.50Q655.50 90.50 602.25 37.75Q549-15 395-15Q241-15 134.50 90.50Q28 196 28 350Q28 504 134.50 609.50Q241 715 395 715Q549 715 655.50 609.50Q762 504 762 350Q762 196 655.50 90.50M260 213.50Q260 213.50 287 186.75Q314 160 395 160Q476 160 530 213.50Q584 267 584 350Q584 433 530 486.50Q476 540 395 540Q314 540 260 486.50Q206 433 206 350Q206 267 260 213.50Z"  horiz-adv-x="790" vert-adv-y="1000"  />

      
      <glyph glyph-name="unid4" unicode="&#xd4;" d="M391 811L351 755L201 755L307 910L474 910L580 755L430 755L391 811M134.50 609.50Q134.50 609.50 187.75 662.25Q241 715 395 715Q549 715 655.50 609.50Q762 504 762 350Q762 196 655.50 90.50Q549-15 395-15Q241-15 134.50 90.50Q28 196 28 350Q28 504 134.50 609.50M260 213.50Q260 213.50 287 186.75Q314 160 395 160Q476 160 530 213.50Q584 267 584 350Q584 433 530 486.50Q476 540 395 540Q314 540 260 486.50Q206 433 206 350Q206 267 260 213.50Z"  horiz-adv-x="790" vert-adv-y="1000"  />

      
      <glyph glyph-name="unid5" unicode="&#xd5;" d="M216 758Q216 807 227.50 842Q239 877 258 894.50Q277 912 302 918.50Q327 925 353 920Q379 915 406 901Q430 885 442.50 887Q455 889 455 920L575 920Q575 871 563.50 835.50Q552 800 533 782.50Q514 765 489 759Q464 753 437.50 758.50Q411 764 384 778Q360 794 348 791.50Q336 789 336 758L216 758M655.50 90.50Q655.50 90.50 602.25 37.75Q549-15 395-15Q241-15 134.50 90.50Q28 196 28 350Q28 504 134.50 609.50Q241 715 395 715Q549 715 655.50 609.50Q762 504 762 350Q762 196 655.50 90.50M260 213.50Q260 213.50 287 186.75Q314 160 395 160Q476 160 530 213.50Q584 267 584 350Q584 433 530 486.50Q476 540 395 540Q314 540 260 486.50Q206 433 206 350Q206 267 260 213.50Z"  horiz-adv-x="790" vert-adv-y="1000"  />

      
      <glyph glyph-name="unid6" unicode="&#xd6;" d="M298 745Q265 745 241.50 768.50Q218 792 218 825Q218 858 241.50 881.50Q265 905 298 905Q330 905 353.50 881.50Q377 858 377 825Q377 792 353.50 768.50Q330 745 298 745M492 745Q460 745 436.50 768.50Q413 792 413 825Q413 858 436.50 881.50Q460 905 492 905Q525 905 548.50 881.50Q572 858 572 825Q572 792 548.50 768.50Q525 745 492 745M655.50 90.50Q655.50 90.50 602.25 37.75Q549-15 395-15Q241-15 134.50 90.50Q28 196 28 350Q28 504 134.50 609.50Q241 715 395 715Q549 715 655.50 609.50Q762 504 762 350Q762 196 655.50 90.50M260 213.50Q260 213.50 287 186.75Q314 160 395 160Q476 160 530 213.50Q584 267 584 350Q584 433 530 486.50Q476 540 395 540Q314 540 260 486.50Q206 433 206 350Q206 267 260 213.50Z"  horiz-adv-x="790" vert-adv-y="1000"  />

      
      <glyph glyph-name="unid7" unicode="&#xd7;" d="M497 466L381 350L497 234L385 122L269 238L153 122L41 234L157 350L41 466L153 578L269 462L385 578L497 466Z"  horiz-adv-x="538" vert-adv-y="1000"  />

      
      <glyph glyph-name="unid8" unicode="&#xd8;" d="M664 605Q767 500 767 350Q767 196 660.50 90.50Q554-15 400-15Q293-15 202 41L156-14L81 29L135 95Q33 200 33 350Q33 504 139.50 609.50Q246 715 400 715Q509 715 598 659L643 714L718 671L664 605M211 350Q211 283 248 233L485 522Q444 540 400 540Q319 540 265 486.50Q211 433 211 350M400 160Q481 160 535 213.50Q589 267 589 350Q589 417 551 468L314 179Q355 160 400 160Z"  horiz-adv-x="795" vert-adv-y="1000"  />

      
      <glyph glyph-name="unid9" unicode="&#xd9;" d="M420 755L340 900L146 900L262 755L420 755M524.50 52Q524.50 52 485.75 18.50Q447-15 325-15Q203-15 125.50 52Q48 119 48 230L48 700L227 700L227 247Q227 159 325 159Q423 159 423 247L423 700L602 700L602 230Q602 119 524.50 52Z"  horiz-adv-x="650" vert-adv-y="1000"  />

      
      <glyph glyph-name="unida" unicode="&#xda;" d="M226 755L384 755L500 900L306 900L226 755M524.50 52Q524.50 52 485.75 18.50Q447-15 325-15Q203-15 125.50 52Q48 119 48 230L48 700L227 700L227 247Q227 159 325 159Q423 159 423 247L423 700L602 700L602 230Q602 119 524.50 52Z"  horiz-adv-x="650" vert-adv-y="1000"  />

      
      <glyph glyph-name="unidb" unicode="&#xdb;" d="M321 801L281 745L131 745L237 900L404 900L510 745L360 745L321 801M423 700L602 700L602 230Q602 119 524.50 52Q447-15 325-15Q203-15 125.50 52Q48 119 48 230L48 700L227 700L227 247Q227 159 325 159Q423 159 423 247L423 700Z"  horiz-adv-x="650" vert-adv-y="1000"  />

      
      <glyph glyph-name="unidc" unicode="&#xdc;" d="M228 735Q195 735 171.50 758.50Q148 782 148 815Q148 848 171.50 871.50Q195 895 228 895Q260 895 283.50 871.50Q307 848 307 815Q307 782 283.50 758.50Q260 735 228 735M422 735Q390 735 366.50 758.50Q343 782 343 815Q343 848 366.50 871.50Q390 895 422 895Q455 895 478.50 871.50Q502 848 502 815Q502 782 478.50 758.50Q455 735 422 735M524.50 52Q524.50 52 485.75 18.50Q447-15 325-15Q203-15 125.50 52Q48 119 48 230L48 700L227 700L227 247Q227 159 325 159Q423 159 423 247L423 700L602 700L602 230Q602 119 524.50 52Z"  horiz-adv-x="650" vert-adv-y="1000"  />

      
      <glyph glyph-name="unidd" unicode="&#xdd;" d="M500 900L384 755L226 755L306 900L500 900M651 700L415 269L415 0L236 0L236 267L0 700L201 700L325 441L450 700L651 700Z"  horiz-adv-x="651" vert-adv-y="1000"  />

      
      <glyph glyph-name="unide" unicode="&#xde;" d="M330 596Q434 596 505.50 526.50Q577 457 577 350Q577 244 505.50 174.50Q434 105 330 105L234 105L234 0L55 0L55 700L234 700L234 596L330 596M330 276Q358 276 378 297Q398 318 398 350Q398 382 378 403.50Q358 425 330 425L234 425L234 276L330 276Z"  horiz-adv-x="592" vert-adv-y="1000"  />

      
      <glyph glyph-name="unidf" unicode="&#xdf;" d="M274-5L274 143Q374 130 374 188Q374 218 325 290Q276 362 276 390Q276 413 298.50 451Q321 489 321 516Q321 538 308 553Q295 568 271 568Q245 568 229.50 550.50Q214 533 214 502L214 0L48 0L48 497Q48 598 110.50 656.50Q173 715 278 715Q377 715 434.50 664Q492 613 492 543Q492 509 480 482Q468 455 456 435Q444 415 444 398Q444 376 468 338.50Q492 301 516.50 251Q541 201 541 148Q541 64 479.50 20.50Q418-23 274-5Z"  horiz-adv-x="551" vert-adv-y="1000"  />

      
      <glyph glyph-name="unie0" unicode="&#xe0;" d="M402 555L244 555L128 700L322 700L402 555M401 500L567 500L567 0L401 0L401 46Q350-14 259-14Q159-14 91.50 61.50Q24 137 24 250Q24 363 91.50 438.50Q159 514 259 514Q350 514 401 454L401 500M220 171Q220 171 234.50 156Q249 141 296 141Q343 141 372 171Q401 201 401 250Q401 299 372 329Q343 359 296 359Q249 359 220 329Q191 299 191 250Q191 201 220 171Z"  horiz-adv-x="615" vert-adv-y="1000"  />

      
      <glyph glyph-name="unie1" unicode="&#xe1;" d="M482 700L366 555L208 555L288 700L482 700M401 500L567 500L567 0L401 0L401 46Q350-14 259-14Q159-14 91.50 61.50Q24 137 24 250Q24 363 91.50 438.50Q159 514 259 514Q350 514 401 454L401 500M220 171Q220 171 234.50 156Q249 141 296 141Q343 141 372 171Q401 201 401 250Q401 299 372 329Q343 359 296 359Q249 359 220 329Q191 299 191 250Q191 201 220 171Z"  horiz-adv-x="615" vert-adv-y="1000"  />

      
      <glyph glyph-name="unie2" unicode="&#xe2;" d="M303 601L263 545L113 545L219 700L386 700L492 545L342 545L303 601M401 500L567 500L567 0L401 0L401 46Q350-14 259-14Q159-14 91.50 61.50Q24 137 24 250Q24 363 91.50 438.50Q159 514 259 514Q350 514 401 454L401 500M220 171Q220 171 234.50 156Q249 141 296 141Q343 141 372 171Q401 201 401 250Q401 299 372 329Q343 359 296 359Q249 359 220 329Q191 299 191 250Q191 201 220 171Z"  horiz-adv-x="615" vert-adv-y="1000"  />

      
      <glyph glyph-name="unie3" unicode="&#xe3;" d="M296 568Q272 584 260 581.50Q248 579 248 548L128 548Q128 597 139.50 632Q151 667 170 684.50Q189 702 214 708.50Q239 715 265 710Q291 705 318 691Q342 675 354.50 677Q367 679 367 710L487 710Q487 661 475.50 625.50Q464 590 445 572.50Q426 555 401 549Q376 543 349.50 548.50Q323 554 296 568M401 500L567 500L567 0L401 0L401 46Q350-14 259-14Q159-14 91.50 61.50Q24 137 24 250Q24 363 91.50 438.50Q159 514 259 514Q350 514 401 454L401 500M220 171Q220 171 234.50 156Q249 141 296 141Q343 141 372 171Q401 201 401 250Q401 299 372 329Q343 359 296 359Q249 359 220 329Q191 299 191 250Q191 201 220 171Z"  horiz-adv-x="615" vert-adv-y="1000"  />

      
      <glyph glyph-name="unie4" unicode="&#xe4;" d="M210 535Q177 535 153.50 558.50Q130 582 130 615Q130 648 153.50 671.50Q177 695 210 695Q242 695 265.50 671.50Q289 648 289 615Q289 582 265.50 558.50Q242 535 210 535M404 535Q372 535 348.50 558.50Q325 582 325 615Q325 648 348.50 671.50Q372 695 404 695Q437 695 460.50 671.50Q484 648 484 615Q484 582 460.50 558.50Q437 535 404 535M401 500L567 500L567 0L401 0L401 46Q350-14 259-14Q159-14 91.50 61.50Q24 137 24 250Q24 363 91.50 438.50Q159 514 259 514Q350 514 401 454L401 500M220 171Q220 171 234.50 156Q249 141 296 141Q343 141 372 171Q401 201 401 250Q401 299 372 329Q343 359 296 359Q249 359 220 329Q191 299 191 250Q191 201 220 171Z"  horiz-adv-x="615" vert-adv-y="1000"  />

      
      <glyph glyph-name="unie5" unicode="&#xe5;" d="M307 533Q246 533 206.50 570.50Q167 608 167 665Q167 722 206.50 759.50Q246 797 307 797Q370 797 409 759.50Q448 722 448 665Q448 607 409 570Q370 533 307 533M307 697Q292 697 283 688Q274 679 274 665Q274 651 283 642Q292 633 307 633Q341 633 341 665Q341 697 307 697M401 500L567 500L567 0L401 0L401 46Q350-14 259-14Q159-14 91.50 61.50Q24 137 24 250Q24 363 91.50 438.50Q159 514 259 514Q350 514 401 454L401 500M220 171Q220 171 234.50 156Q249 141 296 141Q343 141 372 171Q401 201 401 250Q401 299 372 329Q343 359 296 359Q249 359 220 329Q191 299 191 250Q191 201 220 171Z"  horiz-adv-x="615" vert-adv-y="1000"  />

      
      <glyph glyph-name="unie6" unicode="&#xe6;" d="M574 189Q602 123 687 123Q746 123 781 161L899 81Q826-14 707-14Q612-14 552 49L552 0L401 0L401 41Q351-14 263-14Q163-14 93.50 62Q24 138 24 250Q24 362 93.50 438Q163 514 263 514Q351 514 401 459L401 500L552 500L552 454Q609 514 698 514Q799 514 862 439.50Q925 365 925 251Q925 218 918 189L574 189M571 305L764 305Q744 374 670 374Q594 374 571 305M220 172.50Q220 172.50 234.50 157.75Q249 143 296 143Q343 143 372 172.50Q401 202 401 250Q401 298 372 327.50Q343 357 296 357Q249 357 220 327.50Q191 298 191 250Q191 202 220 172.50Z"  horiz-adv-x="948" vert-adv-y="1000"  />

      
      <glyph glyph-name="unie7" unicode="&#xe7;" d="M289 148Q351 148 376 198L518 116Q468 24 363-4L363-46Q385-53 403-72Q421-91 421-123Q421-235 187-221L187-112Q282-119 282-98Q282-83 229-78L229-8Q138 12 81 83.50Q24 155 24 250Q24 362 100 438Q176 514 290 514Q364 514 424.50 479Q485 444 518 385L376 303Q349 352 289 352Q247 352 219 323.50Q191 295 191 250Q191 205 219 176.50Q247 148 289 148Z"  horiz-adv-x="528" vert-adv-y="1000"  />

      
      <glyph glyph-name="unie8" unicode="&#xe8;" d="M385 562L227 562L111 707L305 707L385 562M196 189Q221 128 308 128Q362 128 399 163L519 79Q445-14 304-14Q177-14 100.50 60.50Q24 135 24 249Q24 362 99 438Q174 514 290 514Q402 514 475 439Q548 364 548 251Q548 218 541 189L196 189M194 304L386 304Q366 374 292 374Q215 374 194 304Z"  horiz-adv-x="571" vert-adv-y="1000"  />

      
      <glyph glyph-name="unie9" unicode="&#xe9;" d="M465 707L349 562L191 562L271 707L465 707M196 189Q221 128 308 128Q362 128 399 163L519 79Q445-14 304-14Q177-14 100.50 60.50Q24 135 24 249Q24 362 99 438Q174 514 290 514Q402 514 475 439Q548 364 548 251Q548 218 541 189L196 189M194 304L386 304Q366 374 292 374Q215 374 194 304Z"  horiz-adv-x="571" vert-adv-y="1000"  />

      
      <glyph glyph-name="uniea" unicode="&#xea;" d="M286 608L246 552L96 552L202 707L369 707L475 552L325 552L286 608M196 189Q221 128 308 128Q362 128 399 163L519 79Q445-14 304-14Q177-14 100.50 60.50Q24 135 24 249Q24 362 99 438Q174 514 290 514Q402 514 475 439Q548 364 548 251Q548 218 541 189L196 189M194 304L386 304Q366 374 292 374Q215 374 194 304Z"  horiz-adv-x="571" vert-adv-y="1000"  />

      
      <glyph glyph-name="unieb" unicode="&#xeb;" d="M193 542Q160 542 136.50 565.50Q113 589 113 622Q113 655 136.50 678.50Q160 702 193 702Q225 702 248.50 678.50Q272 655 272 622Q272 589 248.50 565.50Q225 542 193 542M387 542Q355 542 331.50 565.50Q308 589 308 622Q308 655 331.50 678.50Q355 702 387 702Q420 702 443.50 678.50Q467 655 467 622Q467 589 443.50 565.50Q420 542 387 542M196 189Q221 128 308 128Q362 128 399 163L519 79Q445-14 304-14Q177-14 100.50 60.50Q24 135 24 249Q24 362 99 438Q174 514 290 514Q402 514 475 439Q548 364 548 251Q548 218 541 189L196 189M194 304L386 304Q366 374 292 374Q215 374 194 304Z"  horiz-adv-x="571" vert-adv-y="1000"  />

      
      <glyph glyph-name="uniec" unicode="&#xec;" d="M209 550L169 700L-19 700L51 550L209 550M214 0L48 0L48 500L214 500L214 0Z"  horiz-adv-x="262" vert-adv-y="1000"  />

      
      <glyph glyph-name="unied" unicode="&#xed;" d="M48 550L206 550L277 700L88 700L48 550M48 0L48 500L214 500L214 0L48 0Z"  horiz-adv-x="262" vert-adv-y="1000"  />

      
      <glyph glyph-name="uniee" unicode="&#xee;" d="M131 594L101 545L-44 545L48 700L214 700L306 545L161 545L131 594M48 0L48 500L214 500L214 0L48 0Z"  horiz-adv-x="262" vert-adv-y="1000"  />

      
      <glyph glyph-name="unief" unicode="&#xef;" d="M95 565.50Q95 565.50 83.50 554.25Q72 543 41 543Q10 543-13 565.50Q-36 588-36 620Q-36 652-13 674.50Q10 697 41 697Q72 697 95 674.50Q118 652 118 620Q118 588 95 565.50M275 565.50Q275 565.50 263.50 554.25Q252 543 221 543Q190 543 167 565.50Q144 588 144 620Q144 652 167 674.50Q190 697 221 697Q252 697 275 674.50Q298 652 298 620Q298 588 275 565.50M48 0L48 500L214 500L214 0L48 0Z"  horiz-adv-x="262" vert-adv-y="1000"  />

      
      <glyph glyph-name="unif0" unicode="&#xf0;" d="M494 370Q540 307 540 230Q540 120 464 53Q388-14 282-14Q174-14 99 52.50Q24 119 24 230Q24 317 83.50 382.50Q143 448 231 457L193 510L66 460L66 578L127 602L57 700L248 700L277 661L407 712L407 593L346 569L494 370M216 161.50Q216 161.50 228.50 149.75Q241 138 282 138Q323 138 348 161.50Q373 185 373 228Q373 258 357 280Q331 314 282 314Q241 314 216 291Q191 268 191 228Q191 185 216 161.50Z"  horiz-adv-x="564" vert-adv-y="1000"  />

      
      <glyph glyph-name="unif1" unicode="&#xf1;" d="M287 578Q263 594 251 591.50Q239 589 239 558L119 558Q119 607 130.50 642Q142 677 161 694.50Q180 712 205 718.50Q230 725 256 720Q282 715 309 701Q333 685 345.50 687Q358 689 358 720L478 720Q478 671 466.50 635.50Q455 600 436 582.50Q417 565 392 559Q367 553 340.50 558.50Q314 564 287 578M353 514Q434 514 485.50 458.50Q537 403 537 299L537 0L371 0L371 278Q371 317 350.50 337Q330 357 296 357Q257 357 235.50 333.50Q214 310 214 266L214 0L48 0L48 500L214 500L214 450Q259 514 353 514Z"  horiz-adv-x="579" vert-adv-y="1000"  />

      
      <glyph glyph-name="unif2" unicode="&#xf2;" d="M386 565L306 710L112 710L228 565L386 565M291-14Q180-14 102 62.50Q24 139 24 250Q24 361 102 437.50Q180 514 291 514Q403 514 480.50 437.50Q558 361 558 250Q558 139 480.50 62.50Q403-14 291-14M291 146Q335 146 363.50 175Q392 204 392 250Q392 296 363.50 325Q335 354 291 354Q248 354 219.50 325Q191 296 191 250Q191 204 219.50 175Q248 146 291 146Z"  horiz-adv-x="583" vert-adv-y="1000"  />

      
      <glyph glyph-name="unif3" unicode="&#xf3;" d="M192 565L350 565L466 710L272 710L192 565M291-14Q180-14 102 62.50Q24 139 24 250Q24 361 102 437.50Q180 514 291 514Q403 514 480.50 437.50Q558 361 558 250Q558 139 480.50 62.50Q403-14 291-14M291 146Q335 146 363.50 175Q392 204 392 250Q392 296 363.50 325Q335 354 291 354Q248 354 219.50 325Q191 296 191 250Q191 204 219.50 175Q248 146 291 146Z"  horiz-adv-x="583" vert-adv-y="1000"  />

      
      <glyph glyph-name="unif4" unicode="&#xf4;" d="M287 611L247 555L97 555L203 710L370 710L476 555L326 555L287 611M291 514Q403 514 480.50 437.50Q558 361 558 250Q558 139 480.50 62.50Q403-14 291-14Q180-14 102 62.50Q24 139 24 250Q24 361 102 437.50Q180 514 291 514M291 146Q335 146 363.50 175Q392 204 392 250Q392 296 363.50 325Q335 354 291 354Q248 354 219.50 325Q191 296 191 250Q191 204 219.50 175Q248 146 291 146Z"  horiz-adv-x="583" vert-adv-y="1000"  />

      
      <glyph glyph-name="unif5" unicode="&#xf5;" d="M112 558Q112 607 123.50 642Q135 677 154 694.50Q173 712 198 718.50Q223 725 249 720Q275 715 302 701Q326 685 338.50 687Q351 689 351 720L471 720Q471 671 459.50 635.50Q448 600 429 582.50Q410 565 385 559Q360 553 333.50 558.50Q307 564 280 578Q256 594 244 591.50Q232 589 232 558L112 558M291-14Q180-14 102 62.50Q24 139 24 250Q24 361 102 437.50Q180 514 291 514Q403 514 480.50 437.50Q558 361 558 250Q558 139 480.50 62.50Q403-14 291-14M291 146Q335 146 363.50 175Q392 204 392 250Q392 296 363.50 325Q335 354 291 354Q248 354 219.50 325Q191 296 191 250Q191 204 219.50 175Q248 146 291 146Z"  horiz-adv-x="583" vert-adv-y="1000"  />

      
      <glyph glyph-name="unif6" unicode="&#xf6;" d="M194 545Q161 545 137.50 568.50Q114 592 114 625Q114 658 137.50 681.50Q161 705 194 705Q226 705 249.50 681.50Q273 658 273 625Q273 592 249.50 568.50Q226 545 194 545M388 545Q356 545 332.50 568.50Q309 592 309 625Q309 658 332.50 681.50Q356 705 388 705Q421 705 444.50 681.50Q468 658 468 625Q468 592 444.50 568.50Q421 545 388 545M291-14Q180-14 102 62.50Q24 139 24 250Q24 361 102 437.50Q180 514 291 514Q403 514 480.50 437.50Q558 361 558 250Q558 139 480.50 62.50Q403-14 291-14M291 146Q335 146 363.50 175Q392 204 392 250Q392 296 363.50 325Q335 354 291 354Q248 354 219.50 325Q191 296 191 250Q191 204 219.50 175Q248 146 291 146Z"  horiz-adv-x="583" vert-adv-y="1000"  />

      
      <glyph glyph-name="unif7" unicode="&#xf7;" d="M275 459Q235 459 208 486.50Q181 514 181 554Q181 594 208 621.50Q235 649 275 649Q316 649 343 621.50Q370 594 370 554Q370 514 343 486.50Q316 459 275 459M35 271L35 429L515 429L515 271L35 271M275 51Q235 51 208 78.50Q181 106 181 146Q181 186 208 213.50Q235 241 275 241Q316 241 343 213.50Q370 186 370 146Q370 106 343 78.50Q316 51 275 51Z"  horiz-adv-x="551" vert-adv-y="1000"  />

      
      <glyph glyph-name="unif8" unicode="&#xf8;" d="M486 432Q558 357 558 250Q558 139 480.50 62.50Q403-14 291-14Q215-14 151 25L121-12L60 22L97 67Q24 143 24 250Q24 361 102 437.50Q180 514 291 514Q368 514 432 475L462 512L523 477L486 432M191 250Q191 220 203 197L327 348Q310 354 291 354Q248 354 219.50 325Q191 296 191 250M291 146Q335 146 363.50 175Q392 204 392 250Q392 280 380 303L256 152Q272 146 291 146Z"  horiz-adv-x="583" vert-adv-y="1000"  />

      
      <glyph glyph-name="unif9" unicode="&#xf9;" d="M382 555L224 555L108 700L302 700L382 555M365 500L531 500L531 0L365 0L365 50Q320-14 226-14Q145-14 93.50 41.50Q42 97 42 201L42 500L208 500L208 222Q208 183 228.50 163Q249 143 283 143Q322 143 343.50 166.50Q365 190 365 234L365 500Z"  horiz-adv-x="579" vert-adv-y="1000"  />

      
      <glyph glyph-name="unifa" unicode="&#xfa;" d="M462 700L346 555L188 555L268 700L462 700M365 500L531 500L531 0L365 0L365 50Q320-14 226-14Q145-14 93.50 41.50Q42 97 42 201L42 500L208 500L208 222Q208 183 228.50 163Q249 143 283 143Q322 143 343.50 166.50Q365 190 365 234L365 500Z"  horiz-adv-x="579" vert-adv-y="1000"  />

      
      <glyph glyph-name="unifb" unicode="&#xfb;" d="M283 601L243 545L93 545L199 700L366 700L472 545L322 545L283 601M365 500L531 500L531 0L365 0L365 50Q320-14 226-14Q145-14 93.50 41.50Q42 97 42 201L42 500L208 500L208 222Q208 183 228.50 163Q249 143 283 143Q322 143 343.50 166.50Q365 190 365 234L365 500Z"  horiz-adv-x="579" vert-adv-y="1000"  />

      
      <glyph glyph-name="unifc" unicode="&#xfc;" d="M190 535Q157 535 133.50 558.50Q110 582 110 615Q110 648 133.50 671.50Q157 695 190 695Q222 695 245.50 671.50Q269 648 269 615Q269 582 245.50 558.50Q222 535 190 535M384 535Q352 535 328.50 558.50Q305 582 305 615Q305 648 328.50 671.50Q352 695 384 695Q417 695 440.50 671.50Q464 648 464 615Q464 582 440.50 558.50Q417 535 384 535M365 500L531 500L531 0L365 0L365 50Q320-14 226-14Q145-14 93.50 41.50Q42 97 42 201L42 500L208 500L208 222Q208 183 228.50 163Q249 143 283 143Q322 143 343.50 166.50Q365 190 365 234L365 500Z"  horiz-adv-x="579" vert-adv-y="1000"  />

      
      <glyph glyph-name="unifd" unicode="&#xfd;" d="M453 700L337 555L179 555L259 700L453 700M365 500L549 500L378 8Q338-105 265-155Q192-205 76-200L76-44Q129-44 156-31Q183-18 200 16L0 500L186 500L287 210L365 500Z"  horiz-adv-x="549" vert-adv-y="1000"  />

      
      <glyph glyph-name="unife" unicode="&#xfe;" d="M356 514Q456 514 523.50 438.50Q591 363 591 250Q591 137 523.50 61.50Q456-14 356-14Q265-14 214 46L214-200L48-200L48 700L214 700L214 454Q265 514 356 514M243 171Q243 171 257.50 156Q272 141 319 141Q366 141 395 171Q424 201 424 250Q424 299 395 329Q366 359 319 359Q272 359 243 329Q214 299 214 250Q214 201 243 171Z"  horiz-adv-x="615" vert-adv-y="1000"  />

      
      <glyph glyph-name="uniff" unicode="&#xff;" d="M181 535Q148 535 124.50 558.50Q101 582 101 615Q101 648 124.50 671.50Q148 695 181 695Q213 695 236.50 671.50Q260 648 260 615Q260 582 236.50 558.50Q213 535 181 535M375 535Q343 535 319.50 558.50Q296 582 296 615Q296 648 319.50 671.50Q343 695 375 695Q408 695 431.50 671.50Q455 648 455 615Q455 582 431.50 558.50Q408 535 375 535M365 500L549 500L378 8Q338-105 265-155Q192-205 76-200L76-44Q129-44 156-31Q183-18 200 16L0 500L186 500L287 210L365 500Z"  horiz-adv-x="549" vert-adv-y="1000"  />

      
      <glyph glyph-name="uni0100" unicode="&#x0100;" d="M489 884L489 754L180 754L180 884L489 884M482 0L452 101L219 101L189 0L-5 0L226 700L444 700L675 0L482 0M265 255L406 255L335 493L265 255Z"  horiz-adv-x="671" vert-adv-y="1000"  />

      
      <glyph glyph-name="uni0101" unicode="&#x0101;" d="M461 684L461 554L152 554L152 684L461 684M401 500L567 500L567 0L401 0L401 46Q350-14 259-14Q159-14 91.50 61.50Q24 137 24 250Q24 363 91.50 438.50Q159 514 259 514Q350 514 401 454L401 500M220 171Q220 171 234.50 156Q249 141 296 141Q343 141 372 171Q401 201 401 250Q401 299 372 329Q343 359 296 359Q249 359 220 329Q191 299 191 250Q191 201 220 171Z"  horiz-adv-x="615" vert-adv-y="1000"  />

      
      <glyph glyph-name="uni0102" unicode="&#x0102;" d="M468.50 778Q468.50 778 445.25 757.50Q422 737 335 737Q248 737 202 778Q156 819 156 897L296 897Q296 853 335 853Q375 853 375 897L515 897Q515 819 468.50 778M482 0L452 101L219 101L189 0L-5 0L226 700L444 700L675 0L482 0M265 255L406 255L335 493L265 255Z"  horiz-adv-x="671" vert-adv-y="1000"  />

      
      <glyph glyph-name="uni0103" unicode="&#x0103;" d="M440.50 578Q440.50 578 417.25 557.50Q394 537 307 537Q220 537 174 578Q128 619 128 697L268 697Q268 653 307 653Q347 653 347 697L487 697Q487 619 440.50 578M401 500L567 500L567 0L401 0L401 46Q350-14 259-14Q159-14 91.50 61.50Q24 137 24 250Q24 363 91.50 438.50Q159 514 259 514Q350 514 401 454L401 500M220 171Q220 171 234.50 156Q249 141 296 141Q343 141 372 171Q401 201 401 250Q401 299 372 329Q343 359 296 359Q249 359 220 329Q191 299 191 250Q191 201 220 171Z"  horiz-adv-x="615" vert-adv-y="1000"  />

      
      <glyph glyph-name="uni0104" unicode="&#x0104;" d="M654-101Q661-102 675-98L675-197Q633-214 587-214Q541-214 512-191Q483-168 483-123Q483-64 544 0L482 0L452 101L219 101L189 0L-5 0L226 700L444 700L675 0Q633-46 633-78Q631-101 654-101M265 255L406 255L335 493L265 255Z"  horiz-adv-x="671" vert-adv-y="1000"  />

      
      <glyph glyph-name="uni0105" unicode="&#x0105;" d="M567 500L567 0Q524-48 524-78Q524-101 546-101Q551-102 567-98L567-197Q525-214 479-214Q433-214 403.50-191Q374-168 374-123Q374-65 436 0L401 0L401 46Q350-14 259-14Q159-14 91.50 61.50Q24 137 24 250Q24 363 91.50 438.50Q159 514 259 514Q350 514 401 454L401 500L567 500M220 171Q220 171 234.50 156Q249 141 296 141Q343 141 372 171Q401 201 401 250Q401 299 372 329Q343 359 296 359Q249 359 220 329Q191 299 191 250Q191 201 220 171Z"  horiz-adv-x="615" vert-adv-y="1000"  />

      
      <glyph glyph-name="uni0106" unicode="&#x0106;" d="M294 765L452 765L568 910L374 910L294 765M393-15Q235-15 131.50 89.50Q28 194 28 350Q28 506 131.50 610.50Q235 715 393 715Q488 715 569 670Q650 625 696 549L541 460Q521 497 481.50 518.50Q442 540 393 540Q309 540 257.50 487.50Q206 435 206 350Q206 265 257.50 212.50Q309 160 393 160Q442 160 481.50 181.50Q521 203 541 241L696 151Q650 74 569.50 29.50Q489-15 393-15Z"  horiz-adv-x="719" vert-adv-y="1000"  />

      
      <glyph glyph-name="uni0107" unicode="&#x0107;" d="M192 560L350 560L466 705L272 705L192 560M290-14Q176-14 100 62Q24 138 24 250Q24 362 100 438Q176 514 290 514Q364 514 424.50 479Q485 444 518 385L376 303Q349 352 289 352Q247 352 219 323.50Q191 295 191 250Q191 205 219 176.50Q247 148 289 148Q351 148 376 198L518 116Q485 56 424.50 21Q364-14 290-14Z"  horiz-adv-x="528" vert-adv-y="1000"  />

      
      <glyph glyph-name="uni010A" unicode="&#x010A;" d="M393 753Q356 753 329.50 779.50Q303 806 303 842Q303 879 329.50 905.50Q356 932 393 932Q429 932 455.50 905.50Q482 879 482 842Q482 806 455.50 779.50Q429 753 393 753M393-15Q235-15 131.50 89.50Q28 194 28 350Q28 506 131.50 610.50Q235 715 393 715Q488 715 569 670Q650 625 696 549L541 460Q521 497 481.50 518.50Q442 540 393 540Q309 540 257.50 487.50Q206 435 206 350Q206 265 257.50 212.50Q309 160 393 160Q442 160 481.50 181.50Q521 203 541 241L696 151Q650 74 569.50 29.50Q489-15 393-15Z"  horiz-adv-x="719" vert-adv-y="1000"  />

      
      <glyph glyph-name="uni010B" unicode="&#x010B;" d="M291 548Q254 548 227.50 574.50Q201 601 201 637Q201 674 227.50 700.50Q254 727 291 727Q327 727 353.50 700.50Q380 674 380 637Q380 601 353.50 574.50Q327 548 291 548M290-14Q176-14 100 62Q24 138 24 250Q24 362 100 438Q176 514 290 514Q364 514 424.50 479Q485 444 518 385L376 303Q349 352 289 352Q247 352 219 323.50Q191 295 191 250Q191 205 219 176.50Q247 148 289 148Q351 148 376 198L518 116Q485 56 424.50 21Q364-14 290-14Z"  horiz-adv-x="528" vert-adv-y="1000"  />

      
      <glyph glyph-name="uni010C" unicode="&#x010C;" d="M305 755L199 910L349 910L389 854L428 910L578 910L472 755L305 755M393 160Q442 160 481.50 181.50Q521 203 541 241L696 151Q650 74 569.50 29.50Q489-15 393-15Q235-15 131.50 89.50Q28 194 28 350Q28 506 131.50 610.50Q235 715 393 715Q488 715 569 670Q650 625 696 549L541 460Q521 497 481.50 518.50Q442 540 393 540Q309 540 257.50 487.50Q206 435 206 350Q206 265 257.50 212.50Q309 160 393 160Z"  horiz-adv-x="719" vert-adv-y="1000"  />

      
      <glyph glyph-name="uni010D" unicode="&#x010D;" d="M203 550L97 705L247 705L287 649L326 705L476 705L370 550L203 550M289 148Q351 148 376 198L518 116Q485 56 424.50 21Q364-14 290-14Q176-14 100 62Q24 138 24 250Q24 362 100 438Q176 514 290 514Q364 514 424.50 479Q485 444 518 385L376 303Q349 352 289 352Q247 352 219 323.50Q191 295 191 250Q191 205 219 176.50Q247 148 289 148Z"  horiz-adv-x="528" vert-adv-y="1000"  />

      
      <glyph glyph-name="uni010E" unicode="&#x010E;" d="M242 745L136 900L286 900L326 844L365 900L515 900L409 745L242 745M340 700Q485 700 582.50 599.50Q680 499 680 350Q680 201 582.50 100.50Q485 0 340 0L55 0L55 700L340 700M340 173Q413 173 459 221.50Q505 270 505 350Q505 430 459 478.50Q413 527 340 527L239 527L239 173L340 173Z"  horiz-adv-x="708" vert-adv-y="1000"  />

      
      <glyph glyph-name="uni010F" unicode="&#x010F;" d="M401 454L401 700L567 700L567 0L401 0L401 46Q350-14 259-14Q159-14 91.50 61.50Q24 137 24 250Q24 363 91.50 438.50Q159 514 259 514Q350 514 401 454M616 700L770 700L735 481L606 481L616 700M220 171Q220 171 234.50 156Q249 141 296 141Q343 141 372 171Q401 201 401 250Q401 299 372 329Q343 359 296 359Q249 359 220 329Q191 299 191 250Q191 201 220 171Z"  horiz-adv-x="755" vert-adv-y="1000"  />

      
      <glyph glyph-name="uni0110" unicode="&#x0110;" d="M371 700Q516 700 613.50 599.50Q711 499 711 350Q711 201 613.50 100.50Q516 0 371 0L86 0L86 263L10 263L10 421L86 421L86 700L371 700M371 173Q444 173 490 221.50Q536 270 536 350Q536 430 490 478.50Q444 527 371 527L270 527L270 421L400 421L400 263L270 263L270 173L371 173Z"  horiz-adv-x="738" vert-adv-y="1000"  />

      
      <glyph glyph-name="uni0111" unicode="&#x0111;" d="M625 642L625 537L567 537L567 0L401 0L401 41Q351-14 263-14Q163-14 93.50 61Q24 136 24 245Q24 354 93.50 429.50Q163 505 263 505Q351 505 401 450L401 537L265 537L265 642L401 642L401 700L567 700L567 642L625 642M220.50 168.50Q220.50 168.50 235.25 153.75Q250 139 296 139Q342 139 371.50 168.50Q401 198 401 245Q401 292 371.50 322Q342 352 296 352Q250 352 220.50 322Q191 292 191 245Q191 198 220.50 168.50Z"  horiz-adv-x="625" vert-adv-y="1000"  />

      
      <glyph glyph-name="uni0112" unicode="&#x0112;" d="M432 884L432 754L123 754L123 884L432 884M234 168L505 168L505 0L55 0L55 700L500 700L500 533L234 533L234 436L475 436L475 271L234 271L234 168Z"  horiz-adv-x="535" vert-adv-y="1000"  />

      
      <glyph glyph-name="uni0113" unicode="&#x0113;" d="M444 691L444 561L135 561L135 691L444 691M196 189Q221 128 308 128Q362 128 399 163L519 79Q445-14 304-14Q177-14 100.50 60.50Q24 135 24 249Q24 362 99 438Q174 514 290 514Q402 514 475 439Q548 364 548 251Q548 218 541 189L196 189M194 304L386 304Q366 374 292 374Q215 374 194 304Z"  horiz-adv-x="571" vert-adv-y="1000"  />

      
      <glyph glyph-name="uni0116" unicode="&#x0116;" d="M278 743Q241 743 214.50 769.50Q188 796 188 832Q188 869 214.50 895.50Q241 922 278 922Q314 922 340.50 895.50Q367 869 367 832Q367 796 340.50 769.50Q314 743 278 743M234 168L505 168L505 0L55 0L55 700L500 700L500 533L234 533L234 436L475 436L475 271L234 271L234 168Z"  horiz-adv-x="535" vert-adv-y="1000"  />

      
      <glyph glyph-name="uni0117" unicode="&#x0117;" d="M290 550Q253 550 226.50 576.50Q200 603 200 639Q200 676 226.50 702.50Q253 729 290 729Q326 729 352.50 702.50Q379 676 379 639Q379 603 352.50 576.50Q326 550 290 550M196 189Q221 128 308 128Q362 128 399 163L519 79Q445-14 304-14Q177-14 100.50 60.50Q24 135 24 249Q24 362 99 438Q174 514 290 514Q402 514 475 439Q548 364 548 251Q548 218 541 189L196 189M194 304L386 304Q366 374 292 374Q215 374 194 304Z"  horiz-adv-x="571" vert-adv-y="1000"  />

      
      <glyph glyph-name="uni0118" unicode="&#x0118;" d="M505 0Q462-46 462-78Q460-101 484-101Q489-102 505-98L505-197Q463-214 417-214Q371-214 341.50-191Q312-168 312-123Q312-65 374 0L55 0L55 700L500 700L500 533L234 533L234 436L475 436L475 271L234 271L234 168L505 168L505 0Z"  horiz-adv-x="535" vert-adv-y="1000"  />

      
      <glyph glyph-name="uni0119" unicode="&#x0119;" d="M196 189Q221 128 308 128Q362 128 399 163L519 79Q502 58 487 46Q417-41 417-78Q417-101 439-101Q444-102 460-98L460-197Q418-214 372-214Q326-214 296.50-191Q267-168 267-123Q267-67 337-13Q326-14 304-14Q177-14 100.50 60.50Q24 135 24 249Q24 362 99 438Q174 514 290 514Q402 514 475 439Q548 364 548 251Q548 218 541 189L196 189M194 304L386 304Q366 374 292 374Q215 374 194 304Z"  horiz-adv-x="571" vert-adv-y="1000"  />

      
      <glyph glyph-name="uni011A" unicode="&#x011A;" d="M190 745L84 900L234 900L274 844L313 900L463 900L357 745L190 745M234 168L505 168L505 0L55 0L55 700L500 700L500 533L234 533L234 436L475 436L475 271L234 271L234 168Z"  horiz-adv-x="535" vert-adv-y="1000"  />

      
      <glyph glyph-name="uni011B" unicode="&#x011B;" d="M202 552L96 707L246 707L286 651L325 707L475 707L369 552L202 552M196 189Q221 128 308 128Q362 128 399 163L519 79Q445-14 304-14Q177-14 100.50 60.50Q24 135 24 249Q24 362 99 438Q174 514 290 514Q402 514 475 439Q548 364 548 251Q548 218 541 189L196 189M194 304L386 304Q366 374 292 374Q215 374 194 304Z"  horiz-adv-x="571" vert-adv-y="1000"  />

      
      <glyph glyph-name="uni011E" unicode="&#x011E;" d="M528.50 788Q528.50 788 505.25 767.50Q482 747 395 747Q308 747 262 788Q216 829 216 907L356 907Q356 863 395 863Q435 863 435 907L575 907Q575 829 528.50 788M750 401L750 330Q750 176 653.50 80.50Q557-15 403-15Q239-15 133.50 90Q28 195 28 349Q28 503 133 609Q238 715 393 715Q491 715 572.50 671Q654 627 700 554L548 467Q527 500 486.50 520Q446 540 395 540Q312 540 259 486Q206 432 206 348Q206 267 258.50 211Q311 155 406 155Q528 155 567 247L397 247L397 401L750 401Z"  horiz-adv-x="778" vert-adv-y="1000"  />

      
      <glyph glyph-name="uni011F" unicode="&#x011F;" d="M300 547Q214 547 167.50 588Q121 629 121 707L261 707Q261 663 300 663Q340 663 340 707L480 707Q480 629 433.50 588Q387 547 300 547M406 500L570 500L570 20Q570-40 547.50-86.50Q525-133 487-160.50Q449-188 403.50-201.50Q358-215 307-215Q224-215 159-184Q94-153 61-93L199-13Q235-70 305-70Q350-70 378-47Q406-24 406 20L406 68Q355 6 266 6Q163 6 95.50 80Q28 154 28 260Q28 366 95.50 440Q163 514 266 514Q355 514 406 452L406 500M223.50 185.50Q223.50 185.50 238.25 170.75Q253 156 300 156Q347 156 376.50 185.50Q406 215 406 260Q406 305 376.50 334.50Q347 364 300 364Q253 364 223.50 334.50Q194 305 194 260Q194 215 223.50 185.50Z"  horiz-adv-x="618" vert-adv-y="1000"  />

      
      <glyph glyph-name="uni0120" unicode="&#x0120;" d="M395 753Q358 753 331.50 779.50Q305 806 305 842Q305 879 331.50 905.50Q358 932 395 932Q431 932 457.50 905.50Q484 879 484 842Q484 806 457.50 779.50Q431 753 395 753M750 401L750 330Q750 176 653.50 80.50Q557-15 403-15Q239-15 133.50 90Q28 195 28 349Q28 503 133 609Q238 715 393 715Q491 715 572.50 671Q654 627 700 554L548 467Q527 500 486.50 520Q446 540 395 540Q312 540 259 486Q206 432 206 348Q206 267 258.50 211Q311 155 406 155Q528 155 567 247L397 247L397 401L750 401Z"  horiz-adv-x="778" vert-adv-y="1000"  />

      
      <glyph glyph-name="uni0121" unicode="&#x0121;" d="M300 553Q263 553 236.50 579.50Q210 606 210 642Q210 679 236.50 705.50Q263 732 300 732Q336 732 362.50 705.50Q389 679 389 642Q389 606 362.50 579.50Q336 553 300 553M406 500L570 500L570 20Q570-40 547.50-86.50Q525-133 487-160.50Q449-188 403.50-201.50Q358-215 307-215Q224-215 159-184Q94-153 61-93L199-13Q235-70 305-70Q350-70 378-47Q406-24 406 20L406 68Q355 6 266 6Q163 6 95.50 80Q28 154 28 260Q28 366 95.50 440Q163 514 266 514Q355 514 406 452L406 500M223.50 185.50Q223.50 185.50 238.25 170.75Q253 156 300 156Q347 156 376.50 185.50Q406 215 406 260Q406 305 376.50 334.50Q347 364 300 364Q253 364 223.50 334.50Q194 305 194 260Q194 215 223.50 185.50Z"  horiz-adv-x="618" vert-adv-y="1000"  />

      
      <glyph glyph-name="uni0122" unicode="&#x0122;" d="M750 401L750 330Q750 176 653.50 80.50Q557-15 403-15Q239-15 133.50 90Q28 195 28 349Q28 503 133 609Q238 715 393 715Q491 715 572.50 671Q654 627 700 554L548 467Q527 500 486.50 520Q446 540 395 540Q312 540 259 486Q206 432 206 348Q206 267 258.50 211Q311 155 406 155Q528 155 567 247L397 247L397 401L750 401M319-277L329-57L483-57L448-277L319-277Z"  horiz-adv-x="778" vert-adv-y="1000"  />

      
      <glyph glyph-name="uni0123" unicode="&#x0123;" d="M375 795L365 575L211 575L246 795L375 795M406 500L570 500L570 20Q570-40 547.50-86.50Q525-133 487-160.50Q449-188 403.50-201.50Q358-215 307-215Q224-215 159-184Q94-153 61-93L199-13Q235-70 305-70Q350-70 378-47Q406-24 406 20L406 68Q355 6 266 6Q163 6 95.50 80Q28 154 28 260Q28 366 95.50 440Q163 514 266 514Q355 514 406 452L406 500M223.50 185.50Q223.50 185.50 238.25 170.75Q253 156 300 156Q347 156 376.50 185.50Q406 215 406 260Q406 305 376.50 334.50Q347 364 300 364Q253 364 223.50 334.50Q194 305 194 260Q194 215 223.50 185.50Z"  horiz-adv-x="618" vert-adv-y="1000"  />

      
      <glyph glyph-name="uni0126" unicode="&#x0126;" d="M689 608L689 478L629 478L629 0L451 0L451 220L254 220L254 0L75 0L75 478L15 478L15 608L75 608L75 700L254 700L254 608L451 608L451 700L629 700L629 608L689 608M451 393L451 478L254 478L254 393L451 393Z"  horiz-adv-x="705" vert-adv-y="1000"  />

      
      <glyph glyph-name="uni0127" unicode="&#x0127;" d="M363 502Q443 502 495 446.50Q547 391 547 287L547 0L381 0L381 266Q381 305 360 325.50Q339 346 305 346Q267 346 245.50 322.50Q224 299 224 254L224 0L58 0L58 537L0 537L0 642L58 642L58 700L224 700L224 642L359 642L359 537L224 537L224 439Q268 502 363 502Z"  horiz-adv-x="589" vert-adv-y="1000"  />

      
      <glyph glyph-name="uni012A" unicode="&#x012A;" d="M-10 754L-10 884L299 884L299 754L-10 754M55 700L234 700L234 0L55 0L55 700Z"  horiz-adv-x="289" vert-adv-y="1000"  />

      
      <glyph glyph-name="uni012B" unicode="&#x012B;" d="M2 554L2 689L261 689L261 554L2 554M48 0L48 500L214 500L214 0L48 0Z"  horiz-adv-x="262" vert-adv-y="1000"  />

      
      <glyph glyph-name="uni012E" unicode="&#x012E;" d="M221-101Q226-102 242-98L242-197Q200-214 154-214Q108-214 78.50-191Q49-168 49-123Q49-64 103 0L55 0L55 700L234 700L234 0Q199-45 199-78Q199-101 221-101Z"  horiz-adv-x="289" vert-adv-y="1000"  />

      
      <glyph glyph-name="uni012F" unicode="&#x012F;" d="M198.50 569.50Q198.50 569.50 184.25 555.25Q170 541 131 541Q92 541 63.50 569.50Q35 598 35 637Q35 676 63.50 704Q92 732 131 732Q170 732 198.50 704Q227 676 227 637Q227 598 198.50 569.50M204-101Q209-102 225-98L225-197Q183-214 137-214Q91-214 61.50-191Q32-168 32-123Q32-63 76 0L48 0L48 500L214 500L214 0Q182-46 182-78Q182-101 204-101Z"  horiz-adv-x="262" vert-adv-y="1000"  />

      
      <glyph glyph-name="uni0130" unicode="&#x0130;" d="M145 743Q108 743 81.50 769.50Q55 796 55 832Q55 869 81.50 895.50Q108 922 145 922Q181 922 207.50 895.50Q234 869 234 832Q234 796 207.50 769.50Q181 743 145 743M55 700L234 700L234 0L55 0L55 700Z"  horiz-adv-x="289" vert-adv-y="1000"  />

      
      <glyph glyph-name="uni0131" unicode="&#x0131;" d="M48 0L48 500L214 500L214 0L48 0Z"  horiz-adv-x="262" vert-adv-y="1000"  />

      
      <glyph glyph-name="uni0136" unicode="&#x0136;" d="M403 360L635 0L435 0L234 313L234 0L55 0L55 700L234 700L234 406L425 700L625 700L403 360M231-277L241-57L395-57L360-277L231-277Z"  horiz-adv-x="631" vert-adv-y="1000"  />

      
      <glyph glyph-name="uni0137" unicode="&#x0137;" d="M214 213L214 0L48 0L48 700L214 700L214 291L343 500L535 500L367 250L542 0L356 0L214 213M204-277L214-57L368-57L333-277L204-277Z"  horiz-adv-x="542" vert-adv-y="1000"  />

      
      <glyph glyph-name="uni0139" unicode="&#x0139;" d="M327 900L211 755L53 755L133 900L327 900M234 173L475 173L475 0L55 0L55 700L234 700L234 173Z"  horiz-adv-x="485" vert-adv-y="1000"  />

      
      <glyph glyph-name="uni013A" unicode="&#x013A;" d="M47 760L205 760L321 905L127 905L47 760M48 0L48 730L214 730L214 0L48 0Z"  horiz-adv-x="262" vert-adv-y="1000"  />

      
      <glyph glyph-name="uni013B" unicode="&#x013B;" d="M234 173L475 173L475 0L55 0L55 700L234 700L234 173M187-277L197-57L351-57L316-277L187-277Z"  horiz-adv-x="485" vert-adv-y="1000"  />

      
      <glyph glyph-name="uni013C" unicode="&#x013C;" d="M48 0L48 730L214 730L214 0L48 0M174-277L209-57L55-57L45-277L174-277Z"  horiz-adv-x="262" vert-adv-y="1000"  />

      
      <glyph glyph-name="uni013D" unicode="&#x013D;" d="M234 173L475 173L475 0L55 0L55 700L234 700L234 173M454 700L420 501L280 501L290 700L454 700Z"  horiz-adv-x="485" vert-adv-y="1000"  />

      
      <glyph glyph-name="uni013E" unicode="&#x013E;" d="M48 0L48 730L214 730L214 0L48 0M380 511L414 730L260 730L250 511L380 511Z"  horiz-adv-x="400" vert-adv-y="1000"  />

      
      <glyph glyph-name="uni0141" unicode="&#x0141;" d="M254 173L495 173L495 0L75 0L75 198L15 163L15 340L75 375L75 700L254 700L254 478L374 548L374 371L254 301L254 173Z"  horiz-adv-x="505" vert-adv-y="1000"  />

      
      <glyph glyph-name="uni0142" unicode="&#x0142;" d="M274 507L274 350L223 318L223 0L57 0L57 212L5 179L5 336L57 369L57 730L223 730L223 475L274 507Z"  horiz-adv-x="279" vert-adv-y="1000"  />

      
      <glyph glyph-name="uni0143" unicode="&#x0143;" d="M226 755L384 755L500 900L306 900L226 755M441 700L619 700L619 0L481 0L234 352L234 0L55 0L55 700L194 700L441 348L441 700Z"  horiz-adv-x="675" vert-adv-y="1000"  />

      
      <glyph glyph-name="uni0144" unicode="&#x0144;" d="M473 710L357 565L199 565L279 710L473 710M353 514Q434 514 485.50 458.50Q537 403 537 299L537 0L371 0L371 278Q371 317 350.50 337Q330 357 296 357Q257 357 235.50 333.50Q214 310 214 266L214 0L48 0L48 500L214 500L214 450Q259 514 353 514Z"  horiz-adv-x="579" vert-adv-y="1000"  />

      
      <glyph glyph-name="uni0145" unicode="&#x0145;" d="M441 700L619 700L619 0L481 0L234 352L234 0L55 0L55 700L194 700L441 348L441 700M393-277L428-57L274-57L264-277L393-277Z"  horiz-adv-x="675" vert-adv-y="1000"  />

      
      <glyph glyph-name="uni0146" unicode="&#x0146;" d="M353 514Q434 514 485.50 458.50Q537 403 537 299L537 0L371 0L371 278Q371 317 350.50 337Q330 357 296 357Q257 357 235.50 333.50Q214 310 214 266L214 0L48 0L48 500L214 500L214 450Q259 514 353 514M215-277L225-57L379-57L344-277L215-277Z"  horiz-adv-x="579" vert-adv-y="1000"  />

      
      <glyph glyph-name="uni0147" unicode="&#x0147;" d="M237 745L131 900L281 900L321 844L360 900L510 900L404 745L237 745M441 700L619 700L619 0L481 0L234 352L234 0L55 0L55 700L194 700L441 348L441 700Z"  horiz-adv-x="675" vert-adv-y="1000"  />

      
      <glyph glyph-name="uni0148" unicode="&#x0148;" d="M210 555L104 710L254 710L294 654L333 710L483 710L377 555L210 555M353 514Q434 514 485.50 458.50Q537 403 537 299L537 0L371 0L371 278Q371 317 350.50 337Q330 357 296 357Q257 357 235.50 333.50Q214 310 214 266L214 0L48 0L48 500L214 500L214 450Q259 514 353 514Z"  horiz-adv-x="579" vert-adv-y="1000"  />

      
      <glyph glyph-name="uni014A" unicode="&#x014A;" d="M441 700L619 700L619 0Q619-222 375-207L375-53Q412-55 430-41Q448-27 448 5L448 47L234 352L234 0L55 0L55 700L194 700L441 348L441 700Z"  horiz-adv-x="675" vert-adv-y="1000"  />

      
      <glyph glyph-name="uni014B" unicode="&#x014B;" d="M353 514Q434 514 485.50 458.50Q537 403 537 299L537 0Q537-225 313-209L313-59Q342-61 356.50-47.50Q371-34 371 0L371 278Q371 317 350.50 337Q330 357 296 357Q257 357 235.50 333.50Q214 310 214 266L214 0L48 0L48 500L214 500L214 450Q259 514 353 514Z"  horiz-adv-x="579" vert-adv-y="1000"  />

      
      <glyph glyph-name="uni014C" unicode="&#x014C;" d="M240 764L240 894L549 894L549 764L240 764M655.50 90.50Q655.50 90.50 602.25 37.75Q549-15 395-15Q241-15 134.50 90.50Q28 196 28 350Q28 504 134.50 609.50Q241 715 395 715Q549 715 655.50 609.50Q762 504 762 350Q762 196 655.50 90.50M260 213.50Q260 213.50 287 186.75Q314 160 395 160Q476 160 530 213.50Q584 267 584 350Q584 433 530 486.50Q476 540 395 540Q314 540 260 486.50Q206 433 206 350Q206 267 260 213.50Z"  horiz-adv-x="790" vert-adv-y="1000"  />

      
      <glyph glyph-name="uni014D" unicode="&#x014D;" d="M136 564L136 694L445 694L445 564L136 564M291-14Q180-14 102 62.50Q24 139 24 250Q24 361 102 437.50Q180 514 291 514Q403 514 480.50 437.50Q558 361 558 250Q558 139 480.50 62.50Q403-14 291-14M291 146Q335 146 363.50 175Q392 204 392 250Q392 296 363.50 325Q335 354 291 354Q248 354 219.50 325Q191 296 191 250Q191 204 219.50 175Q248 146 291 146Z"  horiz-adv-x="583" vert-adv-y="1000"  />

      
      <glyph glyph-name="uni0150" unicode="&#x0150;" d="M196 755L353 755L439 905L276 905L196 755M388 755L546 755L642 905L478 905L388 755M655.50 90.50Q655.50 90.50 602.25 37.75Q549-15 395-15Q241-15 134.50 90.50Q28 196 28 350Q28 504 134.50 609.50Q241 715 395 715Q549 715 655.50 609.50Q762 504 762 350Q762 196 655.50 90.50M260 213.50Q260 213.50 287 186.75Q314 160 395 160Q476 160 530 213.50Q584 267 584 350Q584 433 530 486.50Q476 540 395 540Q314 540 260 486.50Q206 433 206 350Q206 267 260 213.50Z"  horiz-adv-x="790" vert-adv-y="1000"  />

      
      <glyph glyph-name="uni0151" unicode="&#x0151;" d="M92 555L249 555L335 705L172 705L92 555M284 555L442 555L538 705L374 705L284 555M291-14Q180-14 102 62.50Q24 139 24 250Q24 361 102 437.50Q180 514 291 514Q403 514 480.50 437.50Q558 361 558 250Q558 139 480.50 62.50Q403-14 291-14M291 146Q335 146 363.50 175Q392 204 392 250Q392 296 363.50 325Q335 354 291 354Q248 354 219.50 325Q191 296 191 250Q191 204 219.50 175Q248 146 291 146Z"  horiz-adv-x="583" vert-adv-y="1000"  />

      
      <glyph glyph-name="uni0152" unicode="&#x0152;" d="M674 168L904 168L904 0L495 0Q444-15 390-15Q237-15 132.50 90.50Q28 196 28 350Q28 504 132.50 609.50Q237 715 390 715Q444 715 495 700L899 700L899 533L674 533L674 436L874 436L874 271L674 271L674 168M495 178L495 522Q450 540 390 540Q309 540 257.50 487Q206 434 206 350Q206 266 257.50 213Q309 160 390 160Q450 160 495 178Z"  horiz-adv-x="934" vert-adv-y="1000"  />

      
      <glyph glyph-name="uni0153" unicode="&#x0153;" d="M562 189Q588 128 671 128Q728 128 765 163L885 79Q811-14 670-14Q543-14 474 76Q408-14 284-14Q172-14 98 63.50Q24 141 24 249Q24 358 97.50 436Q171 514 284 514Q406 514 474 425Q544 514 669 514Q775 514 844.50 439Q914 364 914 251Q914 218 907 189L562 189M560 305L752 305Q733 374 659 374Q582 374 560 305M291 146Q335 146 363.50 175Q392 204 392 250Q392 296 363.50 325Q335 354 291 354Q248 354 219.50 325Q191 296 191 250Q191 204 219.50 175Q248 146 291 146Z"  horiz-adv-x="937" vert-adv-y="1000"  />

      
      <glyph glyph-name="uni0154" unicode="&#x0154;" d="M465 900L349 755L191 755L271 900L465 900M420 0L298 226L234 226L234 0L55 0L55 700L335 700Q442 700 514.50 631.50Q587 563 587 458Q587 395 555 342.50Q523 290 468 259L612 0L420 0M234 535L234 378L333 378Q366 377 387 399Q408 421 408 456Q408 491 387 513Q366 535 333 535L234 535Z"  horiz-adv-x="620" vert-adv-y="1000"  />

      
      <glyph glyph-name="uni0155" unicode="&#x0155;" d="M370 700L254 555L96 555L176 700L370 700M214 407Q228 456 270 483Q312 510 364 510L364 326Q307 335 260.50 305Q214 275 214 207L214 0L48 0L48 500L214 500L214 407Z"  horiz-adv-x="379" vert-adv-y="1000"  />

      
      <glyph glyph-name="uni0156" unicode="&#x0156;" d="M468 259L612 0L420 0L298 226L234 226L234 0L55 0L55 700L335 700Q442 700 514.50 631.50Q587 563 587 458Q587 395 555 342.50Q523 290 468 259M234 535L234 378L333 378Q366 377 387 399Q408 421 408 456Q408 491 387 513Q366 535 333 535L234 535M242-277L252-57L406-57L371-277L242-277Z"  horiz-adv-x="620" vert-adv-y="1000"  />

      
      <glyph glyph-name="uni0157" unicode="&#x0157;" d="M214 407Q228 456 270 483Q312 510 364 510L364 326Q307 335 260.50 305Q214 275 214 207L214 0L48 0L48 500L214 500L214 407M44-277L54-57L208-57L173-277L44-277Z"  horiz-adv-x="379" vert-adv-y="1000"  />

      
      <glyph glyph-name="uni0158" unicode="&#x0158;" d="M202 745L96 900L246 900L286 844L325 900L475 900L369 745L202 745M420 0L298 226L234 226L234 0L55 0L55 700L335 700Q442 700 514.50 631.50Q587 563 587 458Q587 395 555 342.50Q523 290 468 259L612 0L420 0M234 535L234 378L333 378Q366 377 387 399Q408 421 408 456Q408 491 387 513Q366 535 333 535L234 535Z"  horiz-adv-x="620" vert-adv-y="1000"  />

      
      <glyph glyph-name="uni0159" unicode="&#x0159;" d="M107 545L1 700L151 700L191 644L230 700L380 700L274 545L107 545M214 407Q228 456 270 483Q312 510 364 510L364 326Q307 335 260.50 305Q214 275 214 207L214 0L48 0L48 500L214 500L214 407Z"  horiz-adv-x="379" vert-adv-y="1000"  />

      
      <glyph glyph-name="uni015A" unicode="&#x015A;" d="M192 765L350 765L466 910L272 910L192 765M304-15Q193-15 120 32Q47 79 18 159L171 248Q210 155 309 155Q391 155 391 202Q391 233 344 252Q324 260 256 279Q160 307 104 357.50Q48 408 48 498Q48 595 117.50 655Q187 715 291 715Q379 715 447 674Q515 633 551 555L401 467Q368 545 292 545Q260 545 243.50 532Q227 519 227 499Q227 476 251.50 460Q276 444 347 423Q398 408 429 395Q460 382 497 357.50Q534 333 552 294.50Q570 256 570 204Q570 101 497 43Q424-15 304-15Z"  horiz-adv-x="585" vert-adv-y="1000"  />

      
      <glyph glyph-name="uni015B" unicode="&#x015B;" d="M410 710L294 565L136 565L216 710L410 710M207 354Q207 340 232.50 331Q258 322 294.50 314Q331 306 367.50 291.50Q404 277 429.50 242Q455 207 455 154Q455 68 391 27Q327-14 239-14Q71-14 15 105L160 178Q179 123 238 123Q283 123 283 150Q283 164 258 173Q233 182 197 191Q161 200 125 215Q89 230 64 263.50Q39 297 39 346Q39 426 98 470Q157 514 240 514Q388 514 446 398L306 335Q284 378 244 378Q207 378 207 354Z"  horiz-adv-x="475" vert-adv-y="1000"  />

      
      <glyph glyph-name="uni015E" unicode="&#x015E;" d="M570 204Q570 118 518 62.50Q466 7 376-9L376-46Q398-53 416-72Q434-91 434-123Q434-235 200-221L200-112Q295-119 295-98Q295-83 242-78L242-11Q157 1 100 46Q43 91 18 159L171 248Q210 155 309 155Q391 155 391 202Q391 233 344 252Q324 260 256 279Q160 307 104 357.50Q48 408 48 498Q48 595 117.50 655Q187 715 291 715Q379 715 447 674Q515 633 551 555L401 467Q368 545 292 545Q260 545 243.50 532Q227 519 227 499Q227 476 251.50 460Q276 444 347 423Q398 408 429 395Q460 382 497 357.50Q534 333 552 294.50Q570 256 570 204Z"  horiz-adv-x="585" vert-adv-y="1000"  />

      
      <glyph glyph-name="uni015F" unicode="&#x015F;" d="M455 154Q455 89 417.50 50Q380 11 320-4L320-46Q342-53 360-72Q378-91 378-123Q378-235 144-221L144-112Q239-119 239-98Q239-83 186-78L186-11Q62 6 15 105L160 178Q179 123 238 123Q283 123 283 150Q283 164 258 173Q233 182 197 191Q161 200 125 215Q89 230 64 263.50Q39 297 39 346Q39 426 98 470Q157 514 240 514Q388 514 446 398L306 335Q284 378 244 378Q207 378 207 354Q207 340 232.50 331Q258 322 294.50 314Q331 306 367.50 291.50Q404 277 429.50 242Q455 207 455 154Z"  horiz-adv-x="475" vert-adv-y="1000"  />

      
      <glyph glyph-name="uni0160" unicode="&#x0160;" d="M203 755L97 910L247 910L287 854L326 910L476 910L370 755L203 755M347 423Q398 408 429 395Q460 382 497 357.50Q534 333 552 294.50Q570 256 570 204Q570 101 497 43Q424-15 304-15Q193-15 120 32Q47 79 18 159L171 248Q210 155 309 155Q391 155 391 202Q391 233 344 252Q324 260 256 279Q160 307 104 357.50Q48 408 48 498Q48 595 117.50 655Q187 715 291 715Q379 715 447 674Q515 633 551 555L401 467Q368 545 292 545Q260 545 243.50 532Q227 519 227 499Q227 476 251.50 460Q276 444 347 423Z"  horiz-adv-x="585" vert-adv-y="1000"  />

      
      <glyph glyph-name="uni0161" unicode="&#x0161;" d="M147 555L41 710L191 710L231 654L270 710L420 710L314 555L147 555M207 354Q207 340 232.50 331Q258 322 294.50 314Q331 306 367.50 291.50Q404 277 429.50 242Q455 207 455 154Q455 68 391 27Q327-14 239-14Q71-14 15 105L160 178Q179 123 238 123Q283 123 283 150Q283 164 258 173Q233 182 197 191Q161 200 125 215Q89 230 64 263.50Q39 297 39 346Q39 426 98 470Q157 514 240 514Q388 514 446 398L306 335Q284 378 244 378Q207 378 207 354Z"  horiz-adv-x="475" vert-adv-y="1000"  />

      
      <glyph glyph-name="uni0162" unicode="&#x0162;" d="M535 700L535 527L362 527L362 0L183 0L183 527L10 527L10 700L535 700M188-277L198-57L352-57L317-277L188-277Z"  horiz-adv-x="545" vert-adv-y="1000"  />

      
      <glyph glyph-name="uni0163" unicode="&#x0163;" d="M358 341L254 341L254 196Q254 163 278 155Q302 147 358 150L358 0Q209-18 148.50 27.50Q88 73 88 192L88 341L13 341L13 500L88 500L88 590L254 640L254 500L358 500L358 341M146-272L156-52L310-52L275-272L146-272Z"  horiz-adv-x="394" vert-adv-y="1000"  />

      
      <glyph glyph-name="uni0164" unicode="&#x0164;" d="M184 745L78 900L228 900L268 844L307 900L457 900L351 745L184 745M535 700L535 527L362 527L362 0L183 0L183 527L10 527L10 700L535 700Z"  horiz-adv-x="545" vert-adv-y="1000"  />

      
      <glyph glyph-name="uni0165" unicode="&#x0165;" d="M301 726L450 726L415 536L291 536L301 726M254 640L254 500L358 500L358 341L254 341L254 196Q254 163 278 155Q302 147 358 150L358 0Q209-18 148.50 27.50Q88 73 88 192L88 341L13 341L13 500L88 500L88 590L254 640Z"  horiz-adv-x="430" vert-adv-y="1000"  />

      
      <glyph glyph-name="uni0166" unicode="&#x0166;" d="M535 527L362 527L362 412L467 412L467 254L362 254L362 0L183 0L183 254L78 254L78 412L183 412L183 527L10 527L10 700L535 700L535 527Z"  horiz-adv-x="545" vert-adv-y="1000"  />

      
      <glyph glyph-name="uni0167" unicode="&#x0167;" d="M358 355L254 355L254 314L327 314L327 194L254 194Q254 172 266.50 161.50Q279 151 302 149.50Q325 148 358 150L358 0Q209-18 148.50 27.50Q88 73 88 192L88 194L38 194L38 314L88 314L88 355L13 355L13 500L88 500L88 590L254 640L254 500L358 500L358 355Z"  horiz-adv-x="394" vert-adv-y="1000"  />

      
      <glyph glyph-name="uni016A" unicode="&#x016A;" d="M170 754L170 884L479 884L479 754L170 754M524.50 52Q524.50 52 485.75 18.50Q447-15 325-15Q203-15 125.50 52Q48 119 48 230L48 700L227 700L227 247Q227 159 325 159Q423 159 423 247L423 700L602 700L602 230Q602 119 524.50 52Z"  horiz-adv-x="650" vert-adv-y="1000"  />

      
      <glyph glyph-name="uni016B" unicode="&#x016B;" d="M441 684L441 554L132 554L132 684L441 684M365 500L531 500L531 0L365 0L365 50Q320-14 226-14Q145-14 93.50 41.50Q42 97 42 201L42 500L208 500L208 222Q208 183 228.50 163Q249 143 283 143Q322 143 343.50 166.50Q365 190 365 234L365 500Z"  horiz-adv-x="579" vert-adv-y="1000"  />

      
      <glyph glyph-name="uni016E" unicode="&#x016E;" d="M325 708Q264 708 224.50 745.50Q185 783 185 840Q185 897 224.50 934.50Q264 972 325 972Q388 972 427 934.50Q466 897 466 840Q466 782 427 745Q388 708 325 708M325 808Q359 808 359 840Q359 872 325 872Q310 872 301 863Q292 854 292 840Q292 826 301 817Q310 808 325 808M524.50 52Q524.50 52 485.75 18.50Q447-15 325-15Q203-15 125.50 52Q48 119 48 230L48 700L227 700L227 247Q227 159 325 159Q423 159 423 247L423 700L602 700L602 230Q602 119 524.50 52Z"  horiz-adv-x="650" vert-adv-y="1000"  />

      
      <glyph glyph-name="uni016F" unicode="&#x016F;" d="M287 533Q226 533 186.50 570.50Q147 608 147 665Q147 722 186.50 759.50Q226 797 287 797Q350 797 389 759.50Q428 722 428 665Q428 607 389 570Q350 533 287 533M287 697Q272 697 263 688Q254 679 254 665Q254 651 263 642Q272 633 287 633Q321 633 321 665Q321 697 287 697M365 500L531 500L531 0L365 0L365 50Q320-14 226-14Q145-14 93.50 41.50Q42 97 42 201L42 500L208 500L208 222Q208 183 228.50 163Q249 143 283 143Q322 143 343.50 166.50Q365 190 365 234L365 500Z"  horiz-adv-x="579" vert-adv-y="1000"  />

      
      <glyph glyph-name="uni0170" unicode="&#x0170;" d="M126 745L283 745L369 895L206 895L126 745M318 745L476 745L572 895L408 895L318 745M524.50 52Q524.50 52 485.75 18.50Q447-15 325-15Q203-15 125.50 52Q48 119 48 230L48 700L227 700L227 247Q227 159 325 159Q423 159 423 247L423 700L602 700L602 230Q602 119 524.50 52Z"  horiz-adv-x="650" vert-adv-y="1000"  />

      
      <glyph glyph-name="uni0171" unicode="&#x0171;" d="M331 695L245 545L88 545L168 695L331 695M438 545L280 545L370 695L534 695L438 545M365 234L365 500L531 500L531 0L365 0L365 50Q320-14 226-14Q145-14 93.50 41.50Q42 97 42 201L42 500L208 500L208 222Q208 183 228.50 163Q249 143 283 143Q322 143 343.50 166.50Q365 190 365 234Z"  horiz-adv-x="579" vert-adv-y="1000"  />

      
      <glyph glyph-name="uni0172" unicode="&#x0172;" d="M423 700L602 700L602 230Q602 108 510 40Q465-1 447.50-27Q430-53 429-78Q428-99 450-101Q457-102 471-98L471-197Q429-214 383-214Q337-214 308-191Q279-168 279-123Q279-73 327-15L325-15Q203-15 125.50 52Q48 119 48 230L48 700L227 700L227 247Q227 159 325 159Q423 159 423 247L423 700Z"  horiz-adv-x="650" vert-adv-y="1000"  />

      
      <glyph glyph-name="uni0173" unicode="&#x0173;" d="M531 0Q489-46 489-78Q487-101 510-101Q517-102 531-98L531-197Q489-214 443-214Q397-214 368-191Q339-168 339-123Q339-64 400 0L365 0L365 50Q320-14 226-14Q145-14 93.50 41.50Q42 97 42 201L42 500L208 500L208 222Q208 183 228.50 163Q249 143 283 143Q322 143 343.50 166.50Q365 190 365 234L365 500L531 500L531 0Z"  horiz-adv-x="579" vert-adv-y="1000"  />

      
      <glyph glyph-name="uni0174" unicode="&#x0174;" d="M530 801L490 745L340 745L446 900L613 900L719 745L569 745L530 801M806 700L998 700L803 0L614 0L502 395L390 0L201 0L5 700L198 700L306 259L431 700L572 700L697 259L806 700Z"  horiz-adv-x="1004" vert-adv-y="1000"  />

      
      <glyph glyph-name="uni0175" unicode="&#x0175;" d="M395 601L355 545L205 545L311 700L478 700L584 545L434 545L395 601M610 500L786 500L633 0L471 0L399 254L327 0L165 0L12 500L188 500L254 228L329 500L469 500L544 228L610 500Z"  horiz-adv-x="798" vert-adv-y="1000"  />

      
      <glyph glyph-name="uni0176" unicode="&#x0176;" d="M321 801L281 745L131 745L237 900L404 900L510 745L360 745L321 801M651 700L415 269L415 0L236 0L236 267L0 700L201 700L325 441L450 700L651 700Z"  horiz-adv-x="651" vert-adv-y="1000"  />

      
      <glyph glyph-name="uni0177" unicode="&#x0177;" d="M274 601L234 545L84 545L190 700L357 700L463 545L313 545L274 601M365 500L549 500L378 8Q338-105 265-155Q192-205 76-200L76-44Q129-44 156-31Q183-18 200 16L0 500L186 500L287 210L365 500Z"  horiz-adv-x="549" vert-adv-y="1000"  />

      
      <glyph glyph-name="uni0178" unicode="&#x0178;" d="M228 735Q195 735 171.50 758.50Q148 782 148 815Q148 848 171.50 871.50Q195 895 228 895Q260 895 283.50 871.50Q307 848 307 815Q307 782 283.50 758.50Q260 735 228 735M422 735Q390 735 366.50 758.50Q343 782 343 815Q343 848 366.50 871.50Q390 895 422 895Q455 895 478.50 871.50Q502 848 502 815Q502 782 478.50 758.50Q455 735 422 735M651 700L415 269L415 0L236 0L236 267L0 700L201 700L325 441L450 700L651 700Z"  horiz-adv-x="651" vert-adv-y="1000"  />

      
      <glyph glyph-name="uni0179" unicode="&#x0179;" d="M453 900L337 755L179 755L259 900L453 900M265 173L520 173L520 0L33 0L33 138L280 527L38 527L38 700L512 700L512 562L265 173Z"  horiz-adv-x="542" vert-adv-y="1000"  />

      
      <glyph glyph-name="uni017A" unicode="&#x017A;" d="M420 700L304 555L146 555L226 700L420 700M262 154L449 154L449 0L40 0L40 114L217 346L50 346L50 500L439 500L439 386L262 154Z"  horiz-adv-x="484" vert-adv-y="1000"  />

      
      <glyph glyph-name="uni017B" unicode="&#x017B;" d="M278 743Q241 743 214.50 769.50Q188 796 188 832Q188 869 214.50 895.50Q241 922 278 922Q314 922 340.50 895.50Q367 869 367 832Q367 796 340.50 769.50Q314 743 278 743M265 173L520 173L520 0L33 0L33 138L280 527L38 527L38 700L512 700L512 562L265 173Z"  horiz-adv-x="542" vert-adv-y="1000"  />

      
      <glyph glyph-name="uni017C" unicode="&#x017C;" d="M245 543Q208 543 181.50 569.50Q155 596 155 632Q155 669 181.50 695.50Q208 722 245 722Q281 722 307.50 695.50Q334 669 334 632Q334 596 307.50 569.50Q281 543 245 543M262 154L449 154L449 0L40 0L40 114L217 346L50 346L50 500L439 500L439 386L262 154Z"  horiz-adv-x="484" vert-adv-y="1000"  />

      
      <glyph glyph-name="uni017D" unicode="&#x017D;" d="M190 745L84 900L234 900L274 844L313 900L463 900L357 745L190 745M265 173L520 173L520 0L33 0L33 138L280 527L38 527L38 700L512 700L512 562L265 173Z"  horiz-adv-x="542" vert-adv-y="1000"  />

      
      </font>
</defs>
</svg>
