<?xml version="1.0" encoding="UTF-8" standalone="no"?>
<!-- Generator: Adobe Illustrator 18.0.0, SVG Export Plug-In . SVG Version: 6.00 Build 0)  -->

<svg
   xmlns:dc="http://purl.org/dc/elements/1.1/"
   xmlns:cc="http://creativecommons.org/ns#"
   xmlns:rdf="http://www.w3.org/1999/02/22-rdf-syntax-ns#"
   xmlns:svg="http://www.w3.org/2000/svg"
   xmlns="http://www.w3.org/2000/svg"
   xmlns:sodipodi="http://sodipodi.sourceforge.net/DTD/sodipodi-0.dtd"
   xmlns:inkscape="http://www.inkscape.org/namespaces/inkscape"
   version="1.1"
   id="Capa_1"
   x="0px"
   y="0px"
   viewBox="0 0 455.73 455.73"
   style="enable-background:new 0 0 455.73 455.73;"
   xml:space="preserve"
   sodipodi:docname="google-plus.svg"
   inkscape:version="0.92.2 (5c3e80d, 2017-08-06)"><metadata
     id="metadata39"><rdf:RDF><cc:Work
         rdf:about=""><dc:format>image/svg+xml</dc:format><dc:type
           rdf:resource="http://purl.org/dc/dcmitype/StillImage" /></cc:Work></rdf:RDF></metadata><defs
     id="defs37" /><sodipodi:namedview
     pagecolor="#ffffff"
     bordercolor="#666666"
     borderopacity="1"
     objecttolerance="10"
     gridtolerance="10"
     guidetolerance="10"
     inkscape:pageopacity="0"
     inkscape:pageshadow="2"
     inkscape:window-width="1920"
     inkscape:window-height="1018"
     id="namedview35"
     showgrid="false"
     inkscape:zoom="1.4647023"
     inkscape:cx="262.3904"
     inkscape:cy="168.35501"
     inkscape:window-x="-8"
     inkscape:window-y="-8"
     inkscape:window-maximized="1"
     inkscape:current-layer="Capa_1" /><rect
     style="fill:#ffffff;fill-opacity:1;stroke-width:1.78414583"
     id="rect45"
     width="344.09723"
     height="250.56287"
     x="61.445934"
     y="104.12273"
     rx="0"
     ry="0" /><path
     style="fill:#DD4B39;"
     d="M0,0v455.73h455.73V0H0z M265.67,247.037c-7.793,51.194-45.961,80.543-95.376,80.543  c-55.531,0-100.552-45.021-100.552-100.552c0-55.517,45.021-100.538,100.552-100.538c26.862,0,50.399,9.586,67.531,26.226  l-28.857,28.857c-9.773-9.846-23.147-15.094-38.674-15.094c-32.688,0-59.189,27.874-59.189,60.548  c0,32.703,26.501,59.768,59.189,59.768c27.397,0,48.144-13.243,54.129-39.758h-54.129v-40.38h95.131  c1.142,6.506,1.72,13.315,1.72,20.37C267.144,234.025,266.638,240.69,265.67,247.037z M386.419,234.517h-35.233v35.218H326.16  v-35.218h-35.233v-25.041h35.233v-35.233h25.026v35.233h35.233V234.517z"
     id="path2" /><g
     id="g4" /><g
     id="g6" /><g
     id="g8" /><g
     id="g10" /><g
     id="g12" /><g
     id="g14" /><g
     id="g16" /><g
     id="g18" /><g
     id="g20" /><g
     id="g22" /><g
     id="g24" /><g
     id="g26" /><g
     id="g28" /><g
     id="g30" /><g
     id="g32" /></svg>