<?xml version="1.0" encoding="UTF-8" standalone="no"?>
<!-- Generator: Adobe Illustrator 17.1.0, SVG Export Plug-In . SVG Version: 6.00 Build 0)  -->

<svg
   xmlns:dc="http://purl.org/dc/elements/1.1/"
   xmlns:cc="http://creativecommons.org/ns#"
   xmlns:rdf="http://www.w3.org/1999/02/22-rdf-syntax-ns#"
   xmlns:svg="http://www.w3.org/2000/svg"
   xmlns="http://www.w3.org/2000/svg"
   xmlns:sodipodi="http://sodipodi.sourceforge.net/DTD/sodipodi-0.dtd"
   xmlns:inkscape="http://www.inkscape.org/namespaces/inkscape"
   fill="red"
   version="1.1"
   id="Capa_1"
   x="0px"
   y="0px"
   viewBox="0 0 242.667 242.667"
   style="enable-background:new 0 0 242.667 242.667;"
   xml:space="preserve"
   sodipodi:docname="yandex.svg"
   inkscape:version="0.92.2 (5c3e80d, 2017-08-06)"><metadata
     id="metadata39"><rdf:RDF><cc:Work
         rdf:about=""><dc:format>image/svg+xml</dc:format><dc:type
           rdf:resource="http://purl.org/dc/dcmitype/StillImage" /></cc:Work></rdf:RDF></metadata><defs
     id="defs37" /><sodipodi:namedview
     pagecolor="#ffffff"
     bordercolor="#666666"
     borderopacity="1"
     objecttolerance="10"
     gridtolerance="10"
     guidetolerance="10"
     inkscape:pageopacity="0"
     inkscape:pageshadow="2"
     inkscape:window-width="1920"
     inkscape:window-height="1018"
     id="namedview35"
     showgrid="false"
     inkscape:zoom="3.8901044"
     inkscape:cx="197.94123"
     inkscape:cy="138.52459"
     inkscape:window-x="-8"
     inkscape:window-y="-8"
     inkscape:window-maximized="1"
     inkscape:current-layer="Capa_1" /><rect
     style="fill:#ffffff;fill-opacity:1"
     id="rect41"
     width="155.26576"
     height="185.59914"
     x="52.183689"
     y="25.963312"
     rx="64"
     ry="0.24849607" /><path
     d="M127.675,58.313h13.771v68.831h-10.713c-6.123,0-12.036-2.632-15.85-7.422c-3.961-4.976-7.406-13.253-7.406-26.993  c0-30.096,17.301-33.983,19.691-34.376C127.338,58.324,127.504,58.313,127.675,58.313z M242.667,0v242.667H0V0H242.667z   M157.984,45.5c0,0-16.907,0-28.493,0c-18.136,0-39.742,19.07-39.742,50.059s27.115,43.504,27.115,43.504l-32.181,58.104h20.262  l25.626-56.614h11.323v56.614h16.09V45.5z"
     id="path2" /><g
     id="g4" /><g
     id="g6" /><g
     id="g8" /><g
     id="g10" /><g
     id="g12" /><g
     id="g14" /><g
     id="g16" /><g
     id="g18" /><g
     id="g20" /><g
     id="g22" /><g
     id="g24" /><g
     id="g26" /><g
     id="g28" /><g
     id="g30" /><g
     id="g32" /></svg>