<?xml version="1.0" standalone="no"?>
  <!DOCTYPE svg PUBLIC "-//W3C//DTD SVG 1.1//EN" "http://www.w3.org/Graphics/SVG/1.1/DTD/svg11.dtd" >
  <svg>
  <metadata>
  Created by font-carrier
  </metadata>
  <defs>
  <font id="Gilroy-HeavyItalic" horiz-adv-x="1283" vert-adv-y="1283" >
    <font-face
      
      font-family="Gilroy Heavy Italic"
      
      font-weight="400"
      
      font-stretch="normal"
      
      units-per-em="1000"
      
      ascent="990"
      
      descent="-285"
      
    />
      <missing-glyph />

      

      
      <glyph glyph-name="uni21" unicode="&#x21;" d="M77 260L84 500L119 700L349 700L314 500L237 260L77 260M109-15Q61-15 34 19.50Q7 54 15 102Q23 150 61.50 182.50Q100 215 149 215Q197 215 224 180.50Q251 146 243 98Q235 49 198 17Q161-15 109-15Z"  horiz-adv-x="310" vert-adv-y="1000"  />

      
      <glyph glyph-name="uni22" unicode="&#x22;" d="M100 420L129 700L299 700L230 420L100 420M320 420L349 700L519 700L450 420L320 420Z"  horiz-adv-x="490" vert-adv-y="1000"  />

      
      <glyph glyph-name="uni23" unicode="&#x23;" d="M625 380L530 380L510 320L605 320L562 190L465 190L417 50L273 50L321 190L249 190L201 50L57 50L105 190L9 190L52 320L150 320L170 380L73 380L117 510L215 510L263 650L407 650L359 510L431 510L479 650L623 650L575 510L669 510L625 380M366 320L386 380L314 380L294 320L366 320Z"  horiz-adv-x="643" vert-adv-y="1000"  />

      
      <glyph glyph-name="uni24" unicode="&#x24;" d="M380 424Q396 418 408 413.50Q420 409 435.50 402Q451 395 462.50 388Q474 381 487.50 372Q501 363 510 352.50Q519 342 528.50 329.50Q538 317 543 302.50Q548 288 551.50 271Q555 254 554.50 233.50Q554 213 550 190Q533 93 462.50 40.50Q392-12 284-16L269-100L199-100L214-13Q130-2 75.50 43Q21 88-1 160L172 249Q195 187 247 171L264 268Q247 273 236 278Q50 355 79 518Q95 610 168 663Q241 716 343 716L358 800L428 800L412 709Q542 682 595 553L426 463Q410 506 379 523L363 430L380 424M271 498Q267 474 297 457L311 532Q276 525 271 498M357 206Q361 229 330 244L317 169Q352 178 357 206Z"  horiz-adv-x="576" vert-adv-y="1000"  />

      
      <glyph glyph-name="uni25" unicode="&#x25;" d="M244 336Q161 336 113.50 394Q66 452 80 532Q94 611 156.50 663.50Q219 716 303 716Q385 716 432.50 658Q480 600 466 520Q452 440 390 388Q328 336 244 336M135 110L690 609L752 568L197 69L135 110M264 476Q285 476 301.50 491Q318 506 322 526Q326 547 314.50 561.50Q303 576 282 576Q261 576 245 561.50Q229 547 225 526Q221 506 232.50 491Q244 476 264 476M602-16Q519-16 471.50 42Q424 100 438 180Q452 259 514.50 311.50Q577 364 661 364Q743 364 790.50 305.50Q838 247 824 168Q810 88 748 36Q686-16 602-16M622 124Q643 124 659.50 139Q676 154 680 174Q684 194 672.50 209Q661 224 640 224Q619 224 603 209.50Q587 195 583 174Q579 154 590.50 139Q602 124 622 124Z"  horiz-adv-x="868" vert-adv-y="1000"  />

      
      <glyph glyph-name="uni26" unicode="&#x26;" d="M665 288Q621 204 579 149L656 43L493-37L443 29Q361-16 261-16Q134-16 71.50 48.50Q9 113 23 209Q41 334 175 398Q147 461 156 521Q169 610 239 663Q309 716 411 716Q592 716 660 551L481 457Q453 530 406 530Q386 530 373 518.50Q360 507 357 489Q355 478 357 467Q359 456 368 440.50Q377 425 381.50 418Q386 411 402 390L479 285Q505 328 525 379L665 288M292 150Q317 150 345 160L262 270Q228 246 223 214Q218 187 236.50 168.50Q255 150 292 150Z"  horiz-adv-x="702" vert-adv-y="1000"  />

      
      <glyph glyph-name="uni27" unicode="&#x27;" d="M100 420L129 700L299 700L230 420L100 420Z"  horiz-adv-x="270" vert-adv-y="1000"  />

      
      <glyph glyph-name="uni28" unicode="&#x28;" d="M94-100Q59 3 50 125.50Q41 248 61 370Q101 601 247 800L432 800Q283 581 243 350Q203 119 273-100L94-100Z"  horiz-adv-x="335" vert-adv-y="1000"  />

      
      <glyph glyph-name="uni29" unicode="&#x29;" d="M276 800Q311 697 320 574.50Q329 452 309 330Q269 99 123-100L-62-100Q87 119 127 350Q167 581 97 800L276 800Z"  horiz-adv-x="334" vert-adv-y="1000"  />

      
      <glyph glyph-name="uni2a" unicode="&#x2a;" d="M432 601L414 497L323 507L369 436L275 382L246 461L189 382L107 436L177 507L84 497L102 601L192 591L147 662L240 716L269 637L326 716L409 662L338 591L432 601Z"  horiz-adv-x="410" vert-adv-y="1000"  />

      
      <glyph glyph-name="uni2b" unicode="&#x2b;" d="M564 440L532 260L372 260L344 100L164 100L192 260L32 260L64 440L224 440L252 600L432 600L404 440L564 440Z"  horiz-adv-x="560" vert-adv-y="1000"  />

      
      <glyph glyph-name="uni2c" unicode="&#x2c;" d="M270 195L121-140L-29-140L60 195L270 195Z"  horiz-adv-x="315" vert-adv-y="1000"  />

      
      <glyph glyph-name="uni2d" unicode="&#x2d;" d="M44 217L75 391L475 391L444 217L44 217Z"  horiz-adv-x="500" vert-adv-y="1000"  />

      
      <glyph glyph-name="uni2e" unicode="&#x2e;" d="M104-15Q56-15 28.50 19.50Q1 54 9 102Q17 150 56 182.50Q95 215 144 215Q192 215 219 180.50Q246 146 238 98Q230 49 193 17Q156-15 104-15Z"  horiz-adv-x="300" vert-adv-y="1000"  />

      
      <glyph glyph-name="uni2f" unicode="&#x2f;" d="M43-100L-42-100L512 800L597 800L43-100Z"  horiz-adv-x="520" vert-adv-y="1000"  />

      
      <glyph glyph-name="uni30" unicode="&#x30;" d="M273-16Q135-16 72 89Q9 194 39 360Q68 527 158.50 621.50Q249 716 392 716Q529 716 592 611Q655 506 626 340Q596 172 506.50 78Q417-16 273-16M238 350Q207 178 302 178Q397 178 428 350Q457 522 363 522Q267 522 238 350Z"  horiz-adv-x="630" vert-adv-y="1000"  />

      
      <glyph glyph-name="uni31" unicode="&#x31;" d="M277 700L447 700L324 0L124 0L208 481L84 452L67 629L277 700Z"  horiz-adv-x="428" vert-adv-y="1000"  />

      
      <glyph glyph-name="uni32" unicode="&#x32;" d="M-24 0L1 146L279 393Q348 453 353 485Q355 501 346 511.50Q337 522 318 522Q266 522 221 448L57 547Q106 630 182 673Q258 716 343 716Q445 716 509 648.50Q573 581 555 476Q544 414 514 371Q484 328 420 273L328 194L516 194L482 0L-24 0Z"  horiz-adv-x="546" vert-adv-y="1000"  />

      
      <glyph glyph-name="uni33" unicode="&#x33;" d="M566 700L539 546L404 409Q465 385 497 332Q529 279 517 205Q496 93 418 38.50Q340-16 228-16Q136-16 73 26Q10 68-13 150L171 245Q190 178 250 178Q311 178 320 230Q324 255 308.50 267.50Q293 280 268 280L227 280L170 396L277 506L72 506L106 700L566 700Z"  horiz-adv-x="545" vert-adv-y="1000"  />

      
      <glyph glyph-name="uni34" unicode="&#x34;" d="M576 282L544 102L474 102L456 0L260 0L278 102L-16 102L16 282L278 700L509 700L243 282L310 282L327 380L523 380L506 282L576 282Z"  horiz-adv-x="575" vert-adv-y="1000"  />

      
      <glyph glyph-name="uni35" unicode="&#x35;" d="M540 506L302 506L289 455L320 455Q427 455 488 391Q549 327 528 210Q509 100 427.50 42Q346-16 235-16Q139-16 75 26Q11 68-13 150L172 247Q182 212 202 195Q222 178 258 178Q322 178 331 226Q336 250 321 264Q306 278 280 278L50 278L153 700L574 700L540 506Z"  horiz-adv-x="550" vert-adv-y="1000"  />

      
      <glyph glyph-name="uni36" unicode="&#x36;" d="M377 471Q468 452 514.50 383Q561 314 545 221Q525 111 445 47.50Q365-16 243-16Q115-16 51.50 57Q-12 130 8 241Q21 318 70 376L330 700L559 700L377 471M347 231Q359 299 289 299Q219 299 207 231Q200 197 216 180Q232 163 265 163Q334 163 347 231Z"  horiz-adv-x="560" vert-adv-y="1000"  />

      
      <glyph glyph-name="uni37" unicode="&#x37;" d="M69 700L558 700L530 536L234 0L8 0L288 506L35 506L69 700Z"  horiz-adv-x="490" vert-adv-y="1000"  />

      
      <glyph glyph-name="uni38" unicode="&#x38;" d="M570 502Q554 413 471 362Q557 299 538 189Q521 92 446.50 39Q372-14 246-14Q114-14 51.50 46Q-11 106 7 205Q28 318 136 372Q70 429 86 516Q102 608 176.50 661Q251 714 354 714Q459 714 523 656Q587 598 570 502M261 487Q257 462 271 449Q285 436 315 436Q343 436 363 449Q383 462 387 487Q391 512 376 525Q361 538 333 538Q270 538 261 487M345 225Q350 253 334.50 268.50Q319 284 288 284Q221 284 211 225Q205 197 220 181.50Q235 166 267 166Q332 166 345 225Z"  horiz-adv-x="564" vert-adv-y="1000"  />

      
      <glyph glyph-name="uni39" unicode="&#x39;" d="M352 716Q480 716 543.50 643Q607 570 587 459Q574 382 525 324L265 0L36 0L218 229Q127 248 80.50 317Q34 386 50 479Q70 589 150 652.50Q230 716 352 716M248 469Q236 401 306 401Q376 401 388 469Q395 503 379 520Q363 537 330 537Q261 537 248 469Z"  horiz-adv-x="560" vert-adv-y="1000"  />

      
      <glyph glyph-name="uni3a" unicode="&#x3a;" d="M157 285Q109 285 81.50 319.50Q54 354 62 402Q70 450 109 482.50Q148 515 197 515Q245 515 272 480.50Q299 446 291 398Q283 349 246 317Q209 285 157 285M104-15Q56-15 28.50 19.50Q1 54 9 102Q17 150 56 182.50Q95 215 144 215Q192 215 219 180.50Q246 146 238 98Q230 49 193 17Q156-15 104-15Z"  horiz-adv-x="300" vert-adv-y="1000"  />

      
      <glyph glyph-name="uni3b" unicode="&#x3b;" d="M172 285Q124 285 96.50 319.50Q69 354 77 402Q85 450 124 482.50Q163 515 212 515Q260 515 287 480.50Q314 446 306 398Q298 349 261 317Q224 285 172 285M265 195L116-140L-34-140L55 195L265 195Z"  horiz-adv-x="315" vert-adv-y="1000"  />

      
      <glyph glyph-name="uni3c" unicode="&#x3c;" d="M547 630L511 426L236 340L481 254L448 70L33 265L63 435L547 630Z"  horiz-adv-x="510" vert-adv-y="1000"  />

      
      <glyph glyph-name="uni3d" unicode="&#x3d;" d="M52 375L84 555L523 555L491 375L52 375M12 145L43 325L482 325L451 145L12 145Z"  horiz-adv-x="500" vert-adv-y="1000"  />

      
      <glyph glyph-name="uni3e" unicode="&#x3e;" d="M97 630L513 435L483 265L-2 70L35 274L310 360L65 446L97 630Z"  horiz-adv-x="510" vert-adv-y="1000"  />

      
      <glyph glyph-name="uni3f" unicode="&#x3f;" d="M166 260Q172 301 192 333.50Q212 366 235.50 385.50Q259 405 282.50 421Q306 437 323.50 454Q341 471 344 488Q347 504 337.50 514Q328 524 310 524Q261 524 221 447L62 547Q106 632 181.50 674Q257 716 346 716Q446 716 505.50 655.50Q565 595 549 505Q541 463 519 428.50Q497 394 469.50 372.50Q442 351 415.50 333Q389 315 369 297Q349 279 346 260L166 260M209-15Q161-15 133.50 19.50Q106 54 114 102Q122 150 161 182.50Q200 215 249 215Q297 215 324 180.50Q351 146 343 98Q335 49 298 17Q261-15 209-15Z"  horiz-adv-x="534" vert-adv-y="1000"  />

      
      <glyph glyph-name="uni40" unicode="&#x40;" d="M443 612Q545 612 620 558Q695 504 725.50 424Q756 344 741 260Q721 151 670.50 96Q620 41 534 41Q486 41 452 62.50Q418 84 407 121Q366 85 309 85Q241 85 205 136.50Q169 188 182 260Q195 331 241.50 373Q288 415 351 415Q406 415 439 372L445 403L597 403L555 167Q550 137 557.50 122Q565 107 589 107Q664 107 691 260Q713 385 637.50 475.50Q562 566 435 566Q302 566 201 479.50Q100 393 77 260Q53 123 133.50 28.50Q214-66 351-66Q432-66 498-46L489-95Q424-112 343-112Q186-112 92.50-4Q-1 104 27 260Q54 413 169 512.50Q284 612 443 612M338 216.50Q338 216.50 343 209.75Q348 203 367 203Q386 203 399.50 216Q413 229 417 250Q421 271 411.50 284Q402 297 383 297Q364 297 350 284Q336 271 332 250Q328 230 338 216.50Z"  horiz-adv-x="764" vert-adv-y="1000"  />

      
      <glyph glyph-name="uni41" unicode="&#x41;" d="M417 0L409 90L207 90L167 0L-54 0L292 700L526 700L626 0L417 0M278 250L394 250L374 465L278 250Z"  horiz-adv-x="660" vert-adv-y="1000"  />

      
      <glyph glyph-name="uni42" unicode="&#x42;" d="M612 493Q594 401 517 355Q596 299 580 196Q567 108 493.50 54Q420 0 302 0L6 0L129 700L397 700Q511 700 570 641.50Q629 583 612 493M365 528L299 528L282 434L359 435Q403 441 410 481Q414 506 400.50 517Q387 528 365 528M385 222Q393 265 351 271L254 272L236 172L320 172Q345 172 362.50 185.50Q380 199 385 222Z"  horiz-adv-x="605" vert-adv-y="1000"  />

      
      <glyph glyph-name="uni43" unicode="&#x43;" d="M360-16Q197-16 107.50 91Q18 198 44 360Q69 516 185.50 616Q302 716 456 716Q662 716 751 544L568 447Q527 520 438 520Q366 520 311 472Q256 424 243 350Q231 279 267 229.50Q303 180 375 180Q458 180 518 258L684 153Q630 73 545.50 28.50Q461-16 360-16Z"  horiz-adv-x="721" vert-adv-y="1000"  />

      
      <glyph glyph-name="uni44" unicode="&#x44;" d="M419 700Q557 700 639.50 594Q722 488 696 340Q669 189 561 94.50Q453 0 296 0L6 0L129 700L419 700M498 350Q510 419 478 462.50Q446 506 385 506L305 506L250 194L330 194Q391 194 438 237.50Q485 281 498 350Z"  horiz-adv-x="705" vert-adv-y="1000"  />

      
      <glyph glyph-name="uni45" unicode="&#x45;" d="M552 518L297 518L284 442L514 442L482 262L252 262L238 184L498 184L466 0L6 0L129 700L584 700L552 518Z"  horiz-adv-x="540" vert-adv-y="1000"  />

      
      <glyph glyph-name="uni46" unicode="&#x46;" d="M530 506L295 506L279 415L509 415L475 221L245 221L206 0L6 0L129 700L564 700L530 506Z"  horiz-adv-x="515" vert-adv-y="1000"  />

      
      <glyph glyph-name="uni47" unicode="&#x47;" d="M776 413L762 330Q736 175 629 79.50Q522-16 362-16Q198-16 107.50 91.50Q17 199 44 360Q70 517 186 616.50Q302 716 458 716Q560 716 634 672.50Q708 629 751 554L568 455Q527 520 438 520Q366 520 311 472.50Q256 425 243 350Q230 277 268 223.50Q306 170 378 170Q484 170 531 243L390 243L420 413L776 413Z"  horiz-adv-x="773" vert-adv-y="1000"  />

      
      <glyph glyph-name="uni48" unicode="&#x48;" d="M499 700L699 700L576 0L376 0L421 258L251 258L206 0L6 0L129 700L329 700L285 452L455 452L499 700Z"  horiz-adv-x="670" vert-adv-y="1000"  />

      
      <glyph glyph-name="uni49" unicode="&#x49;" d="M129 700L329 700L206 0L6 0L129 700Z"  horiz-adv-x="300" vert-adv-y="1000"  />

      
      <glyph glyph-name="uni4a" unicode="&#x4a;" d="M236-16Q58-16-1 133L178 228Q189 200 205.50 189Q222 178 248 178Q315 178 325 235L407 700L607 700L524 230Q480-16 236-16Z"  horiz-adv-x="568" vert-adv-y="1000"  />

      
      <glyph glyph-name="uni4b" unicode="&#x4b;" d="M718 700L441 349L602 0L393 0L259 301L206 0L6 0L129 700L329 700L282 430L486 700L718 700Z"  horiz-adv-x="636" vert-adv-y="1000"  />

      
      <glyph glyph-name="uni4c" unicode="&#x4c;" d="M240 194L470 194L436 0L6 0L129 700L329 700L240 194Z"  horiz-adv-x="490" vert-adv-y="1000"  />

      
      <glyph glyph-name="uni4d" unicode="&#x4d;" d="M859 700L736 0L536 0L595 337L399 79L381 79L267 350L206 0L6 0L129 700L329 700L434 413L649 700L859 700Z"  horiz-adv-x="830" vert-adv-y="1000"  />

      
      <glyph glyph-name="uni4e" unicode="&#x4e;" d="M6 0L129 700L289 700L450 364L509 700L709 700L586 0L426 0L265 336L206 0L6 0Z"  horiz-adv-x="680" vert-adv-y="1000"  />

      
      <glyph glyph-name="uni4f" unicode="&#x4f;" d="M369-16Q255-16 174 40.50Q93 97 61.50 182.50Q30 268 45 362Q69 507 182.50 611.50Q296 716 462 716Q548 716 616 683.50Q684 651 723 598Q762 545 778 478.50Q794 412 783 342Q760 196 648.50 90Q537-16 369-16M270 228.50Q270 228.50 290 204.25Q310 180 384 180Q458 180 515 228.50Q572 277 585 350Q598 423 558 471.50Q518 520 444 520Q370 520 313 471.50Q256 423 243 350Q230 277 270 228.50Z"  horiz-adv-x="792" vert-adv-y="1000"  />

      
      <glyph glyph-name="uni50" unicode="&#x50;" d="M404 700Q506 700 570.50 628.50Q635 557 618 439Q602 329 523.50 263.50Q445 198 321 198L241 198L206 0L6 0L129 700L404 700M420 449Q425 477 409 491.50Q393 506 370 506L295 506L275 392L355 392Q378 392 397 407.50Q416 423 420 449Z"  horiz-adv-x="595" vert-adv-y="1000"  />

      
      <glyph glyph-name="uni51" unicode="&#x51;" d="M462 716Q548 716 616 683.50Q684 651 723 598Q762 545 778 478.50Q794 412 783 342Q764 215 678 120L728 55L585-55L531 15Q457-16 369-16Q255-16 174 40.50Q93 97 61.50 182.50Q30 268 45 362Q69 507 182.50 611.50Q296 716 462 716M471 388L557 277Q577 309 585 350Q598 423 558 471.50Q518 520 444 520Q370 520 313 471.50Q256 423 243 350Q230 277 270 228.50Q310 180 384 180Q397 180 403 181L327 279L471 388Z"  horiz-adv-x="797" vert-adv-y="1000"  />

      
      <glyph glyph-name="uni52" unicode="&#x52;" d="M631 445Q609 317 491 257L581 1L381 1L309 221L245 221L206 1L6 1L130 701L410 701Q519 701 585 628.50Q651 556 631 445M297 517L274 387L356 387Q385 386 405.50 403Q426 420 431 451Q436 482 421.50 499.50Q407 517 377 517L297 517Z"  horiz-adv-x="625" vert-adv-y="1000"  />

      
      <glyph glyph-name="uni53" unicode="&#x53;" d="M267-16Q153-16 83.50 30.50Q14 77-11 160L162 249Q194 169 284 169Q355 169 362 206Q364 218 358 227Q352 236 337 243Q322 250 309 255Q296 260 272.50 267Q249 274 236 278Q50 343 79 508Q96 602 171 659Q246 716 354 716Q444 716 508 674Q572 632 605 553L436 463Q410 531 341 531Q289 531 281 495Q277 473 299 459Q321 445 389 422Q432 408 460.50 393.50Q489 379 518.50 353Q548 327 558.50 286Q569 245 560 190Q542 88 465.50 36Q389-16 267-16Z"  horiz-adv-x="591" vert-adv-y="1000"  />

      
      <glyph glyph-name="uni54" unicode="&#x54;" d="M619 700L585 506L420 506L331 0L131 0L220 506L55 506L89 700L619 700Z"  horiz-adv-x="550" vert-adv-y="1000"  />

      
      <glyph glyph-name="uni55" unicode="&#x55;" d="M290-16Q160-16 89 55Q18 126 37 234L119 700L319 700L241 256Q228 178 312 178Q398 178 411 256L489 700L689 700L607 234Q586 116 499.50 50Q413-16 290-16Z"  horiz-adv-x="650" vert-adv-y="1000"  />

      
      <glyph glyph-name="uni56" unicode="&#x56;" d="M164 0L69 700L276 700L309 235L506 700L729 700L388 0L164 0Z"  horiz-adv-x="640" vert-adv-y="1000"  />

      
      <glyph glyph-name="uni57" unicode="&#x57;" d="M154 0L79 700L284 700L315 315L496 700L654 700L700 315L868 700L1089 700L768 0L571 0L527 374L351 0L154 0Z"  horiz-adv-x="1010" vert-adv-y="1000"  />

      
      <glyph glyph-name="uni58" unicode="&#x58;" d="M719 700L451 349L601 0L385 0L313 168L184 0L-44 0L231 359L84 700L300 700L369 540L491 700L719 700Z"  horiz-adv-x="645" vert-adv-y="1000"  />

      
      <glyph glyph-name="uni59" unicode="&#x59;" d="M733 700L436 303L383 0L183 0L236 302L79 700L289 700L357 488L499 700L733 700Z"  horiz-adv-x="654" vert-adv-y="1000"  />

      
      <glyph glyph-name="uni5a" unicode="&#x5a;" d="M594 700L567 546L286 194L515 194L481 0L-14 0L13 154L295 506L80 506L114 700L594 700Z"  horiz-adv-x="545" vert-adv-y="1000"  />

      
      <glyph glyph-name="uni5b" unicode="&#x5b;" d="M386 624L291 624L194 76L289 76L258-100L-22-100L137 800L417 800L386 624Z"  horiz-adv-x="340" vert-adv-y="1000"  />

      
      <glyph glyph-name="uni5c" unicode="&#x5c;" d="M360-100L117 800L195 800L438-100L360-100Z"  horiz-adv-x="520" vert-adv-y="1000"  />

      
      <glyph glyph-name="uni5d" unicode="&#x5d;" d="M397 800L238-100L-42-100L-11 76L84 76L181 624L86 624L117 800L397 800Z"  horiz-adv-x="340" vert-adv-y="1000"  />

      
      <glyph glyph-name="uni5e" unicode="&#x5e;" d="M433 700L574 330L380 330L336 477L240 330L34 330L305 700L433 700Z"  horiz-adv-x="580" vert-adv-y="1000"  />

      
      <glyph glyph-name="uni5f" unicode="&#x5f;" d="M-58-191L-27-17L443-17L412-191L-58-191Z"  horiz-adv-x="510" vert-adv-y="1000"  />

      
      <glyph glyph-name="uni60" unicode="&#x60;" d="M363 550L305 700L99 700L193 550L363 550Z"  horiz-adv-x="330" vert-adv-y="1000"  />

      
      <glyph glyph-name="uni61" unicode="&#x61;" d="M425 500L610 500L522 0L337 0L345 44Q287-14 205-14Q105-14 54.50 64Q4 142 19 252Q34 361 104.50 437.50Q175 514 279 514Q375 514 415 444L425 500M276 156Q317 156 344.50 181Q372 206 380 247L381 250Q388 291 369 317.50Q350 344 309 344Q268 344 239 318Q210 292 203 250Q196 209 215 182.50Q234 156 276 156Z"  horiz-adv-x="606" vert-adv-y="1000"  />

      
      <glyph glyph-name="uni62" unicode="&#x62;" d="M396 514Q494 514 550 433.50Q606 353 586 240Q566 126 495.50 56Q425-14 328-14Q232-14 191 56L181 0L-4 0L119 700L304 700L262 461Q315 514 396 514M403 250Q411 293 391 318.50Q371 344 331 344Q290 344 261 318.50Q232 293 225 250Q217 207 237 181.50Q257 156 297 156Q338 156 367 181.50Q396 207 403 250Z"  horiz-adv-x="606" vert-adv-y="1000"  />

      
      <glyph glyph-name="uni63" unicode="&#x63;" d="M255-14Q133-14 67 65.50Q1 145 20 260Q39 372 123 443Q207 514 318 514Q397 514 451.50 477.50Q506 441 535 382L367 294Q350 336 301 336Q264 336 237 312Q210 288 203 250Q196 213 215.50 188.50Q235 164 270 164Q321 164 350 208L495 116Q457 52 393.50 19Q330-14 255-14Z"  horiz-adv-x="529" vert-adv-y="1000"  />

      
      <glyph glyph-name="uni64" unicode="&#x64;" d="M460 700L645 700L522 0L337 0L345 44Q287-14 205-14Q105-14 54.50 64Q4 142 19 252Q34 361 104.50 437.50Q175 514 279 514Q375 514 415 444L460 700M276 156Q316 156 344 180Q372 204 380 244L382 254Q387 294 368.50 319Q350 344 309 344Q268 344 239 318Q210 292 203 250Q196 209 215 182.50Q234 156 276 156Z"  horiz-adv-x="606" vert-adv-y="1000"  />

      
      <glyph glyph-name="uni65" unicode="&#x65;" d="M316 514Q432 514 494.50 437Q557 360 538 252Q533 220 519 187L193 187Q209 137 282 137Q339 137 374 169L481 61Q394-14 265-14Q130-14 65 65Q0 144 20 260Q38 370 121 442Q204 514 316 514M211 306L376 306Q372 366 309 366Q242 366 211 306Z"  horiz-adv-x="553" vert-adv-y="1000"  />

      
      <glyph glyph-name="uni66" unicode="&#x66;" d="M383 550Q347 553 324.50 539Q302 525 297 500L374 500L343 324L266 324L209 0L24 0L81 324L23 324L54 500L112 500Q132 612 208 667.50Q284 723 412 716L383 550Z"  horiz-adv-x="330" vert-adv-y="1000"  />

      
      <glyph glyph-name="uni67" unicode="&#x67;" d="M432 500L617 500L532 15Q511-102 427-159Q343-216 229-216Q144-216 81.50-184Q19-152-6-94L155-7Q183-56 248-56Q285-56 312.50-38.50Q340-21 347 15L354 56Q301 6 221 6Q148 6 100 43.50Q52 81 35 138Q18 195 27 261Q41 363 112 438.50Q183 514 291 514Q380 514 422 443L432 500M286 170Q325 170 353 193.50Q381 217 389 255L391 263Q396 302 376 326Q356 350 317 350Q277 350 248 325Q219 300 212 260Q205 220 225.50 195Q246 170 286 170Z"  horiz-adv-x="613" vert-adv-y="1000"  />

      
      <glyph glyph-name="uni68" unicode="&#x68;" d="M403 514Q483 514 524.50 455.50Q566 397 547 289L496 0L311 0L358 269Q370 336 308 336Q243 336 227 263L181 0L-4 0L119 700L304 700L260 451Q317 514 403 514Z"  horiz-adv-x="575" vert-adv-y="1000"  />

      
      <glyph glyph-name="uni69" unicode="&#x69;" d="M263 568Q263 568 246 553Q229 538 186 538Q143 538 117.50 568.50Q92 599 99 640Q105 680 139 711Q173 742 218 742Q261 742 286 711.50Q311 681 304 640Q297 598 263 568M-4 0L84 500L269 500L181 0L-4 0Z"  horiz-adv-x="265" vert-adv-y="1000"  />

      
      <glyph glyph-name="uni6a" unicode="&#x6a;" d="M233 742Q276 742 301 711.50Q326 681 319 640Q312 598 278 568Q244 538 201 538Q158 538 132.50 568.50Q107 599 114 640Q120 680 154 711Q188 742 233 742M11 0L99 500L284 500L196 0Q175-124 106-173.50Q37-223-92-216L-63-50Q1-56 11 0Z"  horiz-adv-x="280" vert-adv-y="1000"  />

      
      <glyph glyph-name="uni6b" unicode="&#x6b;" d="M583 500L386 248L506 0L309 0L218 208L181 0L-4 0L119 700L304 700L237 317L371 500L583 500Z"  horiz-adv-x="550" vert-adv-y="1000"  />

      
      <glyph glyph-name="uni6c" unicode="&#x6c;" d="M-3 0L54 324L125 730L310 730L238 321L182 0L-3 0Z"  horiz-adv-x="266" vert-adv-y="1000"  />

      
      <glyph glyph-name="uni6d" unicode="&#x6d;" d="M669 514Q752 514 796.50 459Q841 404 824 304L771 0L586 0L635 279Q645 336 594 336Q539 336 523 272L476 0L291 0L340 279Q350 336 299 336Q243 336 228 268L181 0L-4 0L84 500L269 500L261 454Q321 514 400 514Q484 514 517 448Q581 514 669 514Z"  horiz-adv-x="850" vert-adv-y="1000"  />

      
      <glyph glyph-name="uni6e" unicode="&#x6e;" d="M403 514Q483 514 524.50 455.50Q566 397 547 289L496 0L311 0L358 269Q370 336 308 336Q244 336 228 264L181 0L-4 0L84 500L269 500L260 451Q318 514 403 514Z"  horiz-adv-x="575" vert-adv-y="1000"  />

      
      <glyph glyph-name="uni6f" unicode="&#x6f;" d="M454.50 60Q454.50 60 414.25 23Q374-14 251-14Q128-14 64.50 70Q1 154 20 262Q38 366 119 440Q200 514 324 514Q444 514 508.50 429.50Q573 345 554 238Q535 134 454.50 60M211.50 186.50Q211.50 186.50 221.25 174.25Q231 162 268 162Q305 162 332.50 186.50Q360 211 367 250Q374 289 355 313.50Q336 338 299 338Q262 338 234 313.50Q206 289 199 250Q192 211 211.50 186.50Z"  horiz-adv-x="574" vert-adv-y="1000"  />

      
      <glyph glyph-name="uni70" unicode="&#x70;" d="M396 514Q494 514 550 433.50Q606 353 586 240Q566 126 495.50 56Q425-14 328-14Q232-14 191 56L146-200L-39-200L84 500L269 500L262 461Q315 514 396 514M403 250Q411 293 391 318.50Q371 344 331 344Q291 344 262.50 319.50Q234 295 226 254L224 246Q218 205 237.50 180.50Q257 156 297 156Q338 156 367 181.50Q396 207 403 250Z"  horiz-adv-x="606" vert-adv-y="1000"  />

      
      <glyph glyph-name="uni71" unicode="&#x71;" d="M425 500L610 500L487-200L302-200L345 44Q287-14 205-14Q105-14 54.50 64Q4 142 19 252Q34 361 104.50 437.50Q175 514 279 514Q375 514 415 444L425 500M276 156Q317 156 345.50 182Q374 208 381 250Q388 291 369 317.50Q350 344 309 344Q268 344 239 318Q210 292 203 250Q196 209 215 182.50Q234 156 276 156Z"  horiz-adv-x="606" vert-adv-y="1000"  />

      
      <glyph glyph-name="uni72" unicode="&#x72;" d="M252 403Q274 454 318.50 482Q363 510 421 510L386 310Q327 318 277 288Q227 258 214 186L215 194L181 0L-4 0L84 500L269 500L252 403Z"  horiz-adv-x="390" vert-adv-y="1000"  />

      
      <glyph glyph-name="uni73" unicode="&#x73;" d="M215-14Q127-14 70 14Q13 42-15 109L142 184Q164 127 220 127Q256 127 260 148Q263 162 239 172Q215 182 180 192.50Q145 203 111.50 219.50Q78 236 58.50 272.50Q39 309 48 362Q57 414 93.50 450Q130 486 174.50 500Q219 514 269 514Q341 514 395 485Q449 456 474 398L326 329Q308 375 267 378Q237 380 232 356Q229 341 245.50 331Q262 321 289 315.50Q316 310 347 298Q378 286 403 269.50Q428 253 440.50 218Q453 183 444 134Q430 56 365.50 21Q301-14 215-14Z"  horiz-adv-x="479" vert-adv-y="1000"  />

      
      <glyph glyph-name="uni74" unicode="&#x74;" d="M278 324L259 216Q253 179 273 171Q293 163 355 166L326 0Q176-23 113 28Q50 79 72 206L93 324L23 324L54 500L124 500L139 585L333 640L309 500L414 500L383 324L278 324Z"  horiz-adv-x="400" vert-adv-y="1000"  />

      
      <glyph glyph-name="uni75" unicode="&#x75;" d="M394 500L579 500L491 0L306 0L315 49Q257-14 172-14Q92-14 50.50 44.50Q9 103 28 211L79 500L264 500L217 231Q205 164 267 164Q331 164 347 236L394 500Z"  horiz-adv-x="575" vert-adv-y="1000"  />

      
      <glyph glyph-name="uni76" unicode="&#x76;" d="M401 500L604 500L331 0L141 0L44 500L231 500L270 242L401 500Z"  horiz-adv-x="560" vert-adv-y="1000"  />

      
      <glyph glyph-name="uni77" unicode="&#x77;" d="M644 500L844 500L611 0L423 0L402 234L304 0L111 0L54 500L239 500L254 223L369 500L514 500L539 235L644 500Z"  horiz-adv-x="801" vert-adv-y="1000"  />

      
      <glyph glyph-name="uni78" unicode="&#x78;" d="M606 500L385 250L526 0L334 0L268 117L165 0L-44 0L187 261L52 500L244 500L304 394L397 500L606 500Z"  horiz-adv-x="570" vert-adv-y="1000"  />

      
      <glyph glyph-name="uni79" unicode="&#x79;" d="M396 500L614 500L363 15Q239-226 0-200L31-25Q83-25 110-15.50Q137-6 155 20L44 500L246 500L288 234L396 500Z"  horiz-adv-x="570" vert-adv-y="1000"  />

      
      <glyph glyph-name="uni7a" unicode="&#x7a;" d="M474 500L451 370L258 170L426 170L396 0L-24 0L-1 130L192 330L44 330L74 500L474 500Z"  horiz-adv-x="455" vert-adv-y="1000"  />

      
      <glyph glyph-name="uni7b" unicode="&#x7b;" d="M282-107Q163-114 111.50-59.50Q60-5 77 89L99 214Q109 270 33 264L63 439Q102 436 121.50 445.50Q141 455 147 489L169 614Q207 825 444 810L415 644Q361 655 354 614L332 489Q322 431 296.50 400Q271 369 225 352Q302 317 284 214L262 89Q259 71 270.50 63Q282 55 311 59L282-107Z"  horiz-adv-x="366" vert-adv-y="1000"  />

      
      <glyph glyph-name="uni7c" unicode="&#x7c;" d="M-29-200L133 720L318 720L156-200L-29-200Z"  horiz-adv-x="285" vert-adv-y="1000"  />

      
      <glyph glyph-name="uni7d" unicode="&#x7d;" d="M119 809Q238 816 289.50 761.50Q341 707 324 613L302 488Q292 432 368 438L338 263Q299 266 279.50 256.50Q260 247 254 213L232 88Q194-123-43-108L-14 58Q40 47 47 88L69 213Q79 271 104.50 302Q130 333 176 350Q99 385 117 488L139 613Q142 631 130.50 639Q119 647 90 643L119 809Z"  horiz-adv-x="366" vert-adv-y="1000"  />

      
      <glyph glyph-name="uni7e" unicode="&#x7e;" d="M170 225L37 290Q75 408 159.50 453.50Q244 499 332 452Q394 420 425 424Q456 428 477 471L610 406Q571 288 486.50 242.50Q402 197 315 244Q252 276 221 272Q190 268 170 225Z"  horiz-adv-x="612" vert-adv-y="1000"  />

      
      <glyph glyph-name="unia1" unicode="&#xa1;" d="M201 515Q249 515 276 480.50Q303 446 295 398Q287 350 248.50 317.50Q210 285 161 285Q113 285 86 319.50Q59 354 67 402Q75 451 112 483Q149 515 201 515M233 240L226 0L191-200L-39-200L-4 0L73 240L233 240Z"  horiz-adv-x="310" vert-adv-y="1000"  />

      
      <glyph glyph-name="unia2" unicode="&#xa2;" d="M291 264Q339 266 367 308L512 216Q474 152 410.50 119Q347 86 272 86Q235 86 206 93L160 0L93 0L149 114Q84 147 54 213Q24 279 37 360Q56 472 140 543Q224 614 335 614Q367 614 394 608L440 700L507 700L451 587Q517 553 552 482L384 394Q377 409 367 418L291 264M220 350Q212 310 235 286L309 436Q275 432 250.50 408.50Q226 385 220 350Z"  horiz-adv-x="528" vert-adv-y="1000"  />

      
      <glyph glyph-name="unia3" unicode="&#xa3;" d="M282 275L267 194L560 194L526 0L-24 0L10 194L67 194L82 275L35 275L60 415L106 415L120 492Q134 570 175 622Q216 674 267 695Q318 716 379 716Q547 716 615 552L434 463Q412 528 368 528Q327 528 318 481L306 415L490 415L465 275L282 275Z"  horiz-adv-x="570" vert-adv-y="1000"  />

      
      <glyph glyph-name="unia4" unicode="&#xa4;" d="M553 542L474 475Q510 416 497 344Q483 271 434 219L489 153L438 111L383 178Q321 140 250 140Q179 140 131 179L47 107L7 157L88 225Q52 285 65 356Q79 428 127 480L72 547L123 590L179 522Q241 560 312 560Q381 560 430 522L512 592L553 542M324 350Q327 369 317.50 380.50Q308 392 288 392Q268 392 254.50 380.50Q241 369 238 350Q234 331 243.50 319.50Q253 308 273 308Q293 308 306.50 319.50Q320 331 324 350Z"  horiz-adv-x="526" vert-adv-y="1000"  />

      
      <glyph glyph-name="unia5" unicode="&#xa5;" d="M733 700L492 377L599 377L582 277L432 277L424 235L574 235L557 135L407 135L383 0L183 0L207 135L57 135L74 235L224 235L232 277L82 277L99 377L207 377L79 700L289 700L357 488L499 700L733 700Z"  horiz-adv-x="654" vert-adv-y="1000"  />

      
      <glyph glyph-name="unia6" unicode="&#xa6;" d="M68 350L133 720L318 720L253 350L68 350M-29-200L36 170L221 170L156-200L-29-200Z"  horiz-adv-x="285" vert-adv-y="1000"  />

      
      <glyph glyph-name="unia7" unicode="&#xa7;" d="M425 467Q549 408 526 280Q513 206 452 166Q477 122 466 55Q451-29 382.50-70.50Q314-112 217-112Q45-112-2 15L150 90Q165 60 184.50 48Q204 36 233 36Q277 36 282 65Q283 74 278 81.50Q273 89 260 95.50Q247 102 234.50 107Q222 112 201 120Q180 128 165 134Q20 197 44 330Q57 405 122 447Q102 490 113 549Q128 632 193.50 674Q259 716 342 716Q498 716 554 584L400 519Q376 576 337 576Q322 576 311 568.50Q300 561 298 549Q296 538 301.50 529Q307 520 321 512Q335 504 349 498Q363 492 386 483Q409 474 425 467M282 272L324 255Q340 266 345 285Q346 291 344.50 296Q343 301 341 304Q339 307 333.50 311Q328 315 324.50 317Q321 319 311.50 323Q302 327 298 329Q289 333 270 341Q251 349 242 353Q228 342 225 325Q222 307 234 297Q246 287 274 275Q279 273 282 272Z"  horiz-adv-x="541" vert-adv-y="1000"  />

      
      <glyph glyph-name="unia8" unicode="&#xa8;" d="M218.50 555Q218.50 555 203.75 542.50Q189 530 154 530Q119 530 98.50 555Q78 580 84 615Q90 650 119.50 675Q149 700 184 700Q219 700 239.50 675Q260 650 254 615Q248 580 218.50 555M418.50 555Q418.50 555 403.75 542.50Q389 530 354 530Q319 530 298.50 555Q278 580 284 615Q290 650 319.50 675Q349 700 384 700Q419 700 439.50 675Q460 650 454 615Q448 580 418.50 555Z"  horiz-adv-x="391" vert-adv-y="1000"  />

      
      <glyph glyph-name="unia9" unicode="&#xa9;" d="M361-12Q263-12 183 39Q103 90 64.50 176Q26 262 44 360Q70 511 185 611.50Q300 712 449 712Q600 712 695.50 600.50Q791 489 765 340Q738 189 624 88.50Q510-12 361-12M150.50 131.50Q150.50 131.50 190.25 82.75Q230 34 359 34Q488 34 590 121.50Q692 209 715 340Q738 471 658.50 568.50Q579 666 450 666Q321 666 219 578.50Q117 491 94 360Q71 229 150.50 131.50M383 153Q287 153 241.50 215Q196 277 210 360Q223 437 280.50 492Q338 547 428 547Q478 547 519.50 519.50Q561 492 586 445L452 376Q441 400 413 400Q390 400 373.50 385Q357 370 354 350Q350 330 361.50 315Q373 300 395 300Q423 300 443 324L562 249Q530 203 482 178Q434 153 383 153Z"  horiz-adv-x="774" vert-adv-y="1000"  />

      
      <glyph glyph-name="uniab" unicode="&#xab;" d="M362 509L212 303L290 109L140 109L60 309L205 509L362 509M573 509L418 296L494 109L345 109L266 304L415 509L573 509Z"  horiz-adv-x="577" vert-adv-y="1000"  />

      
      <glyph glyph-name="uniac" unicode="&#xac;" d="M584 440L531 140L341 140L362 260L32 260L64 440L584 440Z"  horiz-adv-x="580" vert-adv-y="1000"  />

      
      <glyph glyph-name="uniae" unicode="&#xae;" d="M449 712Q600 712 695.50 600.50Q791 489 765 340Q738 189 624 88.50Q510-12 361-12Q263-12 183 39Q103 90 64.50 176Q26 262 44 360Q70 511 185 611.50Q300 712 449 712M590 121.50Q590 121.50 641 165.25Q692 209 715 340Q738 471 658.50 568.50Q579 666 450 666Q321 666 219 578.50Q117 491 94 360Q71 229 150.50 131.50Q230 34 359 34Q488 34 590 121.50M477 535Q533 535 568 492Q603 449 593 392Q580 318 525 284L572 165L426 165L394 257L376 257L360 165L218 165L283 535L477 535M426 415L404 415L395 367L417 367Q445 367 450 391Q454 415 426 415Z"  horiz-adv-x="774" vert-adv-y="1000"  />

      
      <glyph glyph-name="uniaf" unicode="&#xaf;" d="M73 549L97 689L417 689L393 549L73 549Z"  horiz-adv-x="360" vert-adv-y="1000"  />

      
      <glyph glyph-name="unib0" unicode="&#xb0;" d="M253 450Q175 450 130 505Q85 560 98 635Q112 711 170 760.50Q228 810 307 810Q386 810 431 755.50Q476 701 462 625Q449 550 391 500Q333 450 253 450M273 590Q291 590 303.50 601Q316 612 319 630Q322 647 313 658.50Q304 670 287 670Q270 670 257 658.50Q244 647 241 630Q238 613 247 601.50Q256 590 273 590Z"  horiz-adv-x="426" vert-adv-y="1000"  />

      
      <glyph glyph-name="unib1" unicode="&#xb1;" d="M421 540L581 540L549 360L390 360L367 230L187 230L210 360L49 360L81 540L241 540L264 670L444 670L421 540M-14 0L18 180L518 180L486 0L-14 0Z"  horiz-adv-x="560" vert-adv-y="1000"  />

      
      <glyph glyph-name="unib4" unicode="&#xb4;" d="M73 550L252 550L389 700L174 700L73 550Z"  horiz-adv-x="330" vert-adv-y="1000"  />

      
      <glyph glyph-name="unib5" unicode="&#xb5;" d="M530 190Q525 160 554 160L569 160L541 0L461 0Q388 0 354 48Q297-14 212-14Q196-14 179-11L146-200L-39-200L84 500L269 500L221 227Q214 164 272 164Q333 164 351 231L399 500L584 500L530 190Z"  horiz-adv-x="595" vert-adv-y="1000"  />

      
      <glyph glyph-name="unib6" unicode="&#xb6;" d="M818 700L785 506L713 506L589-200L409-200L533 506L475 506L351-200L171-200L248 240Q153 241 98.50 313Q44 385 61 480Q77 575 154.50 637.50Q232 700 329 700L818 700Z"  horiz-adv-x="760" vert-adv-y="1000"  />

      
      <glyph glyph-name="unib7" unicode="&#xb7;" d="M149 240Q101 240 73.50 274.50Q46 309 54 357Q62 405 101 437.50Q140 470 189 470Q237 470 264 435.50Q291 401 283 353Q275 304 238 272Q201 240 149 240Z"  horiz-adv-x="300" vert-adv-y="1000"  />

      
      <glyph glyph-name="unib8" unicode="&#xb8;" d="M160-46Q208-75 197-133Q187-189 125-212Q63-235-64-226L-44-112Q49-119 54-98Q57-80 4-78L18 0L168 0L160-46Z"  horiz-adv-x="285" vert-adv-y="1000"  />

      
      <glyph glyph-name="unibb" unicode="&#xbb;" d="M253 509L332 314L183 109L25 109L180 322L104 509L253 509M458 509L538 309L393 109L236 109L386 315L308 509L458 509Z"  horiz-adv-x="578" vert-adv-y="1000"  />

      
      <glyph glyph-name="unibc" unicode="&#xbc;" d="M583 700L718 700L190 0L55 0L583 700M163 540L83 522L71 652L212 700L333 700L262 300L120 300L163 540M801 171L780 51L747 51L738 0L610 0L619 51L429 51L450 171L598 400L747 400L605 171L640 171L652 237L780 237L768 171L801 171Z"  horiz-adv-x="825" vert-adv-y="1000"  />

      
      <glyph glyph-name="unibd" unicode="&#xbd;" d="M583 700L718 700L190 0L55 0L583 700M163 540L83 522L71 652L212 700L333 700L262 300L120 300L163 540M794 279Q788 244 768 216Q748 188 707 157L665 125L767 125L745 0L439 0L457 102L620 233Q652 259 655 274Q658 292 638 292Q615 292 591 250L486 317Q551 414 666 414Q723 414 763.50 375.50Q804 337 794 279Z"  horiz-adv-x="810" vert-adv-y="1000"  />

      
      <glyph glyph-name="unibe" unicode="&#xbe;" d="M360 419Q337 286 179 286Q53 286 24 384L141 445Q151 409 192 409Q221 409 224 428Q227 448 206 448L172 448L136 523L193 577L79 577L101 700L393 700L377 611L299 537Q375 504 360 419M627 700L762 700L234 0L99 0L627 700M845 171L824 51L791 51L782 0L654 0L663 51L473 51L494 171L642 400L791 400L649 171L684 171L696 237L824 237L812 171L845 171Z"  horiz-adv-x="869" vert-adv-y="1000"  />

      
      <glyph glyph-name="unibf" unicode="&#xbf;" d="M325 515Q373 515 400.50 480.50Q428 446 420 398Q412 350 373 317.50Q334 285 285 285Q237 285 210 319.50Q183 354 191 402Q199 451 236 483Q273 515 325 515M368 240Q362 199 342 166.50Q322 134 298.50 114.50Q275 95 251.50 79Q228 63 210.50 46Q193 29 190 12Q187-4 196.50-14Q206-24 224-24Q273-24 313 53L472-47Q428-132 352.50-174Q277-216 188-216Q88-216 28.50-155.50Q-31-95-15-5Q-7 37 15 71.50Q37 106 64.50 127.50Q92 149 118.50 167Q145 185 165 203Q185 221 188 240L368 240Z"  horiz-adv-x="534" vert-adv-y="1000"  />

      
      <glyph glyph-name="unic0" unicode="&#xc0;" d="M508 750L338 750L244 900L450 900L508 750M417 0L409 90L207 90L167 0L-54 0L292 700L526 700L626 0L417 0M278 250L394 250L374 465L278 250Z"  horiz-adv-x="660" vert-adv-y="1000"  />

      
      <glyph glyph-name="unic1" unicode="&#xc1;" d="M644 900L507 750L328 750L429 900L644 900M292 700L526 700L626 0L417 0L409 90L207 90L167 0L-54 0L292 700M278 250L394 250L374 465L278 250Z"  horiz-adv-x="660" vert-adv-y="1000"  />

      
      <glyph glyph-name="unic2" unicode="&#xc2;" d="M423 797L369 740L211 740L345 900L533 900L611 740L459 740L423 797M417 0L409 90L207 90L167 0L-54 0L292 700L526 700L626 0L417 0M278 250L394 250L374 465L278 250Z"  horiz-adv-x="660" vert-adv-y="1000"  />

      
      <glyph glyph-name="unic3" unicode="&#xc3;" d="M424 757Q420 759 410.50 764Q401 769 397.50 770.50Q394 772 386.50 773.50Q379 775 375.50 772Q372 769 368 762Q364 755 362 743L238 743Q245 803 267 842Q289 881 318.50 895Q348 909 379 909Q410 909 439 896Q443 894 452.50 889Q462 884 466 882.50Q470 881 477 879.50Q484 878 488 881Q492 884 496 891Q500 898 502 910L626 910Q620 861 604 825.50Q588 790 567.50 772.50Q547 755 521.50 748Q496 741 472 744Q448 747 424 757M292 700L526 700L626 0L417 0L409 90L207 90L167 0L-54 0L292 700M278 250L394 250L374 465L278 250Z"  horiz-adv-x="660" vert-adv-y="1000"  />

      
      <glyph glyph-name="unic4" unicode="&#xc4;" d="M378.50 755Q378.50 755 363.75 742.50Q349 730 314 730Q279 730 258.50 755Q238 780 244 815Q250 850 279.50 875Q309 900 344 900Q379 900 399.50 875Q420 850 414 815Q408 780 378.50 755M578.50 755Q578.50 755 563.75 742.50Q549 730 514 730Q479 730 458.50 755Q438 780 444 815Q450 850 479.50 875Q509 900 544 900Q579 900 599.50 875Q620 850 614 815Q608 780 578.50 755M417 0L409 90L207 90L167 0L-54 0L292 700L526 700L626 0L417 0M278 250L394 250L374 465L278 250Z"  horiz-adv-x="660" vert-adv-y="1000"  />

      
      <glyph glyph-name="unic5" unicode="&#xc5;" d="M417 0L409 90L207 90L167 0L-54 0L287 690Q269 727 276 773Q287 834 334 872Q381 910 448 910Q513 910 548.50 869Q584 828 573 767Q564 715 529 680L626 0L417 0M393 770Q391 757 397.50 748.50Q404 740 419 740Q451 740 456 770Q461 800 429 800Q398 800 393 770M278 250L394 250L374 465L278 250Z"  horiz-adv-x="660" vert-adv-y="1000"  />

      
      <glyph glyph-name="unic6" unicode="&#xc6;" d="M902 516L682 516L669 442L864 442L832 262L637 262L623 184L848 184L816 0L396 0L412 90L235 90L171 0L-54 0L458 700L934 700L902 516M350 250L440 250L469 418L350 250Z"  horiz-adv-x="890" vert-adv-y="1000"  />

      
      <glyph glyph-name="unic7" unicode="&#xc7;" d="M375 180Q458 180 518 258L684 153Q588 13 422-11L416-46Q464-75 453-133Q443-189 381-212Q319-235 192-226L212-112Q305-119 310-98Q313-80 260-78L273-7Q148 22 85 122Q22 222 44 360Q69 516 185.50 616Q302 716 456 716Q662 716 751 544L568 447Q527 520 438 520Q366 520 311 472Q256 424 243 350Q231 279 267 229.50Q303 180 375 180Z"  horiz-adv-x="721" vert-adv-y="1000"  />

      
      <glyph glyph-name="unic8" unicode="&#xc8;" d="M456 750L286 750L192 900L398 900L456 750M552 518L297 518L284 442L514 442L482 262L252 262L238 184L498 184L466 0L6 0L129 700L584 700L552 518Z"  horiz-adv-x="540" vert-adv-y="1000"  />

      
      <glyph glyph-name="unic9" unicode="&#xc9;" d="M592 900L455 750L276 750L377 900L592 900M584 700L552 518L297 518L284 442L514 442L482 262L252 262L238 184L498 184L466 0L6 0L129 700L584 700Z"  horiz-adv-x="540" vert-adv-y="1000"  />

      
      <glyph glyph-name="unica" unicode="&#xca;" d="M371 797L317 740L159 740L293 900L481 900L559 740L407 740L371 797M552 518L297 518L284 442L514 442L482 262L252 262L238 184L498 184L466 0L6 0L129 700L584 700L552 518Z"  horiz-adv-x="540" vert-adv-y="1000"  />

      
      <glyph glyph-name="unicb" unicode="&#xcb;" d="M326.50 755Q326.50 755 311.75 742.50Q297 730 262 730Q227 730 206.50 755Q186 780 192 815Q198 850 227.50 875Q257 900 292 900Q327 900 347.50 875Q368 850 362 815Q356 780 326.50 755M526.50 755Q526.50 755 511.75 742.50Q497 730 462 730Q427 730 406.50 755Q386 780 392 815Q398 850 427.50 875Q457 900 492 900Q527 900 547.50 875Q568 850 562 815Q556 780 526.50 755M552 518L297 518L284 442L514 442L482 262L252 262L238 184L498 184L466 0L6 0L129 700L584 700L552 518Z"  horiz-adv-x="540" vert-adv-y="1000"  />

      
      <glyph glyph-name="unicc" unicode="&#xcc;" d="M328 750L270 900L64 900L158 750L328 750M129 700L329 700L206 0L6 0L129 700Z"  horiz-adv-x="300" vert-adv-y="1000"  />

      
      <glyph glyph-name="unicd" unicode="&#xcd;" d="M148 750L327 750L464 900L249 900L148 750M129 700L329 700L206 0L6 0L129 700Z"  horiz-adv-x="300" vert-adv-y="1000"  />

      
      <glyph glyph-name="unice" unicode="&#xce;" d="M243 797L189 740L31 740L165 900L353 900L431 740L279 740L243 797M6 0L129 700L329 700L206 0L6 0Z"  horiz-adv-x="300" vert-adv-y="1000"  />

      
      <glyph glyph-name="unicf" unicode="&#xcf;" d="M198.50 755Q198.50 755 183.75 742.50Q169 730 134 730Q99 730 78.50 755Q58 780 64 815Q70 850 99.50 875Q129 900 164 900Q199 900 219.50 875Q240 850 234 815Q228 780 198.50 755M398.50 755Q398.50 755 383.75 742.50Q369 730 334 730Q299 730 278.50 755Q258 780 264 815Q270 850 299.50 875Q329 900 364 900Q399 900 419.50 875Q440 850 434 815Q428 780 398.50 755M129 700L329 700L206 0L6 0L129 700Z"  horiz-adv-x="300" vert-adv-y="1000"  />

      
      <glyph glyph-name="unid0" unicode="&#xd0;" d="M436 700Q574 700 656.50 594Q739 488 713 340Q686 189 578 94.50Q470 0 313 0L23 0L68 258L1 258L32 432L99 432L146 700L436 700M515 350Q527 419 495 462.50Q463 506 402 506L322 506L309 432L432 432L401 258L278 258L267 194L347 194Q408 194 455 237.50Q502 281 515 350Z"  horiz-adv-x="722" vert-adv-y="1000"  />

      
      <glyph glyph-name="unid1" unicode="&#xd1;" d="M248 743Q255 803 277 842Q299 881 328.50 895Q358 909 389 909Q420 909 449 896Q453 894 462.50 889Q472 884 476 882.50Q480 881 487 879.50Q494 878 498 881Q502 884 506 891Q510 898 512 910L636 910Q630 861 614 825.50Q598 790 577.50 772.50Q557 755 531.50 748Q506 741 482 744Q458 747 434 757Q430 759 420.50 764Q411 769 407.50 770.50Q404 772 396.50 773.50Q389 775 385.50 772Q382 769 378 762Q374 755 372 743L248 743M6 0L129 700L289 700L450 364L509 700L709 700L586 0L426 0L265 336L206 0L6 0Z"  horiz-adv-x="680" vert-adv-y="1000"  />

      
      <glyph glyph-name="unid2" unicode="&#xd2;" d="M576 760L518 910L312 910L406 760L576 760M369-16Q255-16 174 40.50Q93 97 61.50 182.50Q30 268 45 362Q69 507 182.50 611.50Q296 716 462 716Q548 716 616 683.50Q684 651 723 598Q762 545 778 478.50Q794 412 783 342Q760 196 648.50 90Q537-16 369-16M270 228.50Q270 228.50 290 204.25Q310 180 384 180Q458 180 515 228.50Q572 277 585 350Q598 423 558 471.50Q518 520 444 520Q370 520 313 471.50Q256 423 243 350Q230 277 270 228.50Z"  horiz-adv-x="792" vert-adv-y="1000"  />

      
      <glyph glyph-name="unid3" unicode="&#xd3;" d="M396 760L575 760L712 910L497 910L396 760M369-16Q255-16 174 40.50Q93 97 61.50 182.50Q30 268 45 362Q69 507 182.50 611.50Q296 716 462 716Q548 716 616 683.50Q684 651 723 598Q762 545 778 478.50Q794 412 783 342Q760 196 648.50 90Q537-16 369-16M270 228.50Q270 228.50 290 204.25Q310 180 384 180Q458 180 515 228.50Q572 277 585 350Q598 423 558 471.50Q518 520 444 520Q370 520 313 471.50Q256 423 243 350Q230 277 270 228.50Z"  horiz-adv-x="792" vert-adv-y="1000"  />

      
      <glyph glyph-name="unid4" unicode="&#xd4;" d="M491 807L437 750L279 750L413 910L601 910L679 750L527 750L491 807M462 716Q548 716 616 683.50Q684 651 723 598Q762 545 778 478.50Q794 412 783 342Q760 196 648.50 90Q537-16 369-16Q255-16 174 40.50Q93 97 61.50 182.50Q30 268 45 362Q69 507 182.50 611.50Q296 716 462 716M515 228.50Q515 228.50 543.50 252.75Q572 277 585 350Q598 423 558 471.50Q518 520 444 520Q370 520 313 471.50Q256 423 243 350Q230 277 270 228.50Q310 180 384 180Q458 180 515 228.50Z"  horiz-adv-x="792" vert-adv-y="1000"  />

      
      <glyph glyph-name="unid5" unicode="&#xd5;" d="M306 753Q313 813 335 852Q357 891 386.50 905Q416 919 447 919Q478 919 507 906Q511 904 520.50 899Q530 894 534 892.50Q538 891 545 889.50Q552 888 556 891Q560 894 564 901Q568 908 570 920L694 920Q688 871 672 835.50Q656 800 635.50 782.50Q615 765 589.50 758Q564 751 540 754Q516 757 492 767Q488 769 478.50 774Q469 779 465.50 780.50Q462 782 454.50 783.50Q447 785 443.50 782Q440 779 436 772Q432 765 430 753L306 753M369-16Q255-16 174 40.50Q93 97 61.50 182.50Q30 268 45 362Q69 507 182.50 611.50Q296 716 462 716Q548 716 616 683.50Q684 651 723 598Q762 545 778 478.50Q794 412 783 342Q760 196 648.50 90Q537-16 369-16M270 228.50Q270 228.50 290 204.25Q310 180 384 180Q458 180 515 228.50Q572 277 585 350Q598 423 558 471.50Q518 520 444 520Q370 520 313 471.50Q256 423 243 350Q230 277 270 228.50Z"  horiz-adv-x="792" vert-adv-y="1000"  />

      
      <glyph glyph-name="unid6" unicode="&#xd6;" d="M446.50 765Q446.50 765 431.75 752.50Q417 740 382 740Q347 740 326.50 765Q306 790 312 825Q318 860 347.50 885Q377 910 412 910Q447 910 467.50 885Q488 860 482 825Q476 790 446.50 765M646.50 765Q646.50 765 631.75 752.50Q617 740 582 740Q547 740 526.50 765Q506 790 512 825Q518 860 547.50 885Q577 910 612 910Q647 910 667.50 885Q688 860 682 825Q676 790 646.50 765M369-16Q255-16 174 40.50Q93 97 61.50 182.50Q30 268 45 362Q69 507 182.50 611.50Q296 716 462 716Q548 716 616 683.50Q684 651 723 598Q762 545 778 478.50Q794 412 783 342Q760 196 648.50 90Q537-16 369-16M270 228.50Q270 228.50 290 204.25Q310 180 384 180Q458 180 515 228.50Q572 277 585 350Q598 423 558 471.50Q518 520 444 520Q370 520 313 471.50Q256 423 243 350Q230 277 270 228.50Z"  horiz-adv-x="792" vert-adv-y="1000"  />

      
      <glyph glyph-name="unid7" unicode="&#xd7;" d="M562 469L421 347L520 231L378 103L277 223L139 103L27 231L167 353L69 469L210 597L311 478L449 597L562 469Z"  horiz-adv-x="553" vert-adv-y="1000"  />

      
      <glyph glyph-name="unid8" unicode="&#xd8;" d="M721 606Q812 495 788 342Q765 196 653.50 90Q542-16 374-16Q252-16 167 49L102-16L29 30L108 109Q26 219 50 362Q74 507 187.50 611.50Q301 716 467 716Q578 716 659 662L712 716L785 670L721 606M248 350Q239 298 257 259L507 510Q483 520 449 520Q375 520 318 471.50Q261 423 248 350M590 350Q601 412 573 457L314 197Q346 180 389 180Q463 180 520 228.50Q577 277 590 350Z"  horiz-adv-x="797" vert-adv-y="1000"  />

      
      <glyph glyph-name="unid9" unicode="&#xd9;" d="M503 750L445 900L239 900L333 750L503 750M290-16Q160-16 89 55Q18 126 37 234L119 700L319 700L241 256Q228 178 312 178Q398 178 411 256L489 700L689 700L607 234Q586 116 499.50 50Q413-16 290-16Z"  horiz-adv-x="650" vert-adv-y="1000"  />

      
      <glyph glyph-name="unida" unicode="&#xda;" d="M323 750L502 750L639 900L424 900L323 750M290-16Q160-16 89 55Q18 126 37 234L119 700L319 700L241 256Q228 178 312 178Q398 178 411 256L489 700L689 700L607 234Q586 116 499.50 50Q413-16 290-16Z"  horiz-adv-x="650" vert-adv-y="1000"  />

      
      <glyph glyph-name="unidb" unicode="&#xdb;" d="M418 797L364 740L206 740L340 900L528 900L606 740L454 740L418 797M489 700L689 700L607 234Q586 116 499.50 50Q413-16 290-16Q160-16 89 55Q18 126 37 234L119 700L319 700L241 256Q228 178 312 178Q398 178 411 256L489 700Z"  horiz-adv-x="650" vert-adv-y="1000"  />

      
      <glyph glyph-name="unidc" unicode="&#xdc;" d="M373.50 755Q373.50 755 358.75 742.50Q344 730 309 730Q274 730 253.50 755Q233 780 239 815Q245 850 274.50 875Q304 900 339 900Q374 900 394.50 875Q415 850 409 815Q403 780 373.50 755M573.50 755Q573.50 755 558.75 742.50Q544 730 509 730Q474 730 453.50 755Q433 780 439 815Q445 850 474.50 875Q504 900 539 900Q574 900 594.50 875Q615 850 609 815Q603 780 573.50 755M290-16Q160-16 89 55Q18 126 37 234L119 700L319 700L241 256Q228 178 312 178Q398 178 411 256L489 700L689 700L607 234Q586 116 499.50 50Q413-16 290-16Z"  horiz-adv-x="650" vert-adv-y="1000"  />

      
      <glyph glyph-name="unidd" unicode="&#xdd;" d="M641 900L504 750L325 750L426 900L641 900M733 700L436 303L383 0L183 0L236 302L79 700L289 700L357 488L499 700L733 700Z"  horiz-adv-x="654" vert-adv-y="1000"  />

      
      <glyph glyph-name="unide" unicode="&#xde;" d="M387 602Q489 602 553.50 530.50Q618 459 601 341Q585 231 506.50 165.50Q428 100 304 100L224 100L206 1L6 1L130 701L330 701L312 602L387 602M403 351Q408 379 392 393.50Q376 408 353 408L278 408L258 294L338 294Q361 294 380 309.50Q399 325 403 351Z"  horiz-adv-x="595" vert-adv-y="1000"  />

      
      <glyph glyph-name="unidf" unicode="&#xdf;" d="M226-3L255 163Q352 150 360 201Q366 233 335.50 300.50Q305 368 309 392Q312 411 335 447.50Q358 484 363 510Q372 556 328 556Q279 556 269 502L181 0L-4 0L84 500Q122 716 352 716Q451 716 512 660Q573 604 561 535Q554 495 526 455.50Q498 416 494 397Q488 369 503.50 333.50Q519 298 533 251Q547 204 538 150Q502-50 226-3Z"  horiz-adv-x="561" vert-adv-y="1000"  />

      
      <glyph glyph-name="unie0" unicode="&#xe0;" d="M439 550L269 550L175 700L381 700L439 550M425 500L610 500L522 0L337 0L345 44Q287-14 205-14Q105-14 54.50 64Q4 142 19 252Q34 361 104.50 437.50Q175 514 279 514Q375 514 415 444L425 500M276 156Q317 156 344.50 181Q372 206 380 247L381 250Q388 291 369 317.50Q350 344 309 344Q268 344 239 318Q210 292 203 250Q196 209 215 182.50Q234 156 276 156Z"  horiz-adv-x="606" vert-adv-y="1000"  />

      
      <glyph glyph-name="unie1" unicode="&#xe1;" d="M575 700L438 550L259 550L360 700L575 700M425 500L610 500L522 0L337 0L345 44Q287-14 205-14Q105-14 54.50 64Q4 142 19 252Q34 361 104.50 437.50Q175 514 279 514Q375 514 415 444L425 500M276 156Q317 156 344.50 181Q372 206 380 247L381 250Q388 291 369 317.50Q350 344 309 344Q268 344 239 318Q210 292 203 250Q196 209 215 182.50Q234 156 276 156Z"  horiz-adv-x="606" vert-adv-y="1000"  />

      
      <glyph glyph-name="unie2" unicode="&#xe2;" d="M354 597L300 540L142 540L276 700L464 700L542 540L390 540L354 597M425 500L610 500L522 0L337 0L345 44Q287-14 205-14Q105-14 54.50 64Q4 142 19 252Q34 361 104.50 437.50Q175 514 279 514Q375 514 415 444L425 500M276 156Q317 156 344.50 181Q372 206 380 247L381 250Q388 291 369 317.50Q350 344 309 344Q268 344 239 318Q210 292 203 250Q196 209 215 182.50Q234 156 276 156Z"  horiz-adv-x="606" vert-adv-y="1000"  />

      
      <glyph glyph-name="unie3" unicode="&#xe3;" d="M355 557Q351 559 341.50 564Q332 569 328.50 570.50Q325 572 317.50 573.50Q310 575 306.50 572Q303 569 299 562Q295 555 293 543L169 543Q176 603 198 642Q220 681 249.50 695Q279 709 310 709Q341 709 370 696Q374 694 383.50 689Q393 684 397 682.50Q401 681 408 679.50Q415 678 419 681Q423 684 427 691Q431 698 433 710L557 710Q551 661 535 625.50Q519 590 498.50 572.50Q478 555 452.50 548Q427 541 403 544Q379 547 355 557M425 500L610 500L522 0L337 0L345 44Q287-14 205-14Q105-14 54.50 64Q4 142 19 252Q34 361 104.50 437.50Q175 514 279 514Q375 514 415 444L425 500M276 156Q317 156 344.50 181Q372 206 380 247L381 250Q388 291 369 317.50Q350 344 309 344Q268 344 239 318Q210 292 203 250Q196 209 215 182.50Q234 156 276 156Z"  horiz-adv-x="606" vert-adv-y="1000"  />

      
      <glyph glyph-name="unie4" unicode="&#xe4;" d="M309.50 555Q309.50 555 294.75 542.50Q280 530 245 530Q210 530 189.50 555Q169 580 175 615Q181 650 210.50 675Q240 700 275 700Q310 700 330.50 675Q351 650 345 615Q339 580 309.50 555M509.50 555Q509.50 555 494.75 542.50Q480 530 445 530Q410 530 389.50 555Q369 580 375 615Q381 650 410.50 675Q440 700 475 700Q510 700 530.50 675Q551 650 545 615Q539 580 509.50 555M425 500L610 500L522 0L337 0L345 44Q287-14 205-14Q105-14 54.50 64Q4 142 19 252Q34 361 104.50 437.50Q175 514 279 514Q375 514 415 444L425 500M276 156Q317 156 344.50 181Q372 206 380 247L381 250Q388 291 369 317.50Q350 344 309 344Q268 344 239 318Q210 292 203 250Q196 209 215 182.50Q234 156 276 156Z"  horiz-adv-x="606" vert-adv-y="1000"  />

      
      <glyph glyph-name="unie5" unicode="&#xe5;" d="M346 530Q281 530 246 571Q211 612 222 673Q233 734 280 772Q327 810 394 810Q459 810 494.50 769Q530 728 519 667Q508 606 461.50 568Q415 530 346 530M339 670Q337 657 343.50 648.50Q350 640 365 640Q397 640 402 670Q407 700 375 700Q344 700 339 670M425 500L610 500L522 0L337 0L345 44Q287-14 205-14Q105-14 54.50 64Q4 142 19 252Q34 361 104.50 437.50Q175 514 279 514Q375 514 415 444L425 500M276 156Q317 156 344.50 181Q372 206 380 247L381 250Q388 291 369 317.50Q350 344 309 344Q268 344 239 318Q210 292 203 250Q196 209 215 182.50Q234 156 276 156Z"  horiz-adv-x="606" vert-adv-y="1000"  />

      
      <glyph glyph-name="unie6" unicode="&#xe6;" d="M719 514Q820 514 870 437.50Q920 361 901 252Q896 220 882 187L556 187Q572 137 645 137Q702 137 737 169L844 61Q757-14 668-14Q563-14 510 47L502 0L337 0L343 36Q287-14 211-14Q139-14 91 25.50Q43 65 26 125Q9 185 19 254Q34 360 108 437Q182 514 294 514Q375 514 418 460L425 500L590 500L584 463Q643 514 719 514M574 306L739 306Q735 366 672 366Q605 366 574 306M216 185Q216 185 226 172.50Q236 160 276 160Q316 160 344.50 184.50Q373 209 381 249L381 250Q388 290 368 315Q348 340 308 340Q268 340 239 315Q210 290 203 250Q196 210 216 185Z"  horiz-adv-x="916" vert-adv-y="1000"  />

      
      <glyph glyph-name="unie7" unicode="&#xe7;" d="M270 164Q321 164 350 208L495 116Q436 16 319-8L312-46Q360-75 349-133Q339-189 277-212Q215-235 88-226L108-112Q201-119 206-98Q209-80 156-78L170-2Q87 24 46 96Q5 168 20 260Q39 372 123 443Q207 514 318 514Q397 514 451.50 477.50Q506 441 535 382L367 294Q350 336 301 336Q264 336 237 312Q210 288 203 250Q196 213 215.50 188.50Q235 164 270 164Z"  horiz-adv-x="529" vert-adv-y="1000"  />

      
      <glyph glyph-name="unie8" unicode="&#xe8;" d="M428 560L258 560L164 710L370 710L428 560M316 514Q432 514 494.50 437Q557 360 538 252Q533 220 519 187L193 187Q209 137 282 137Q339 137 374 169L481 61Q394-14 265-14Q130-14 65 65Q0 144 20 260Q38 370 121 442Q204 514 316 514M211 306L376 306Q372 366 309 366Q242 366 211 306Z"  horiz-adv-x="553" vert-adv-y="1000"  />

      
      <glyph glyph-name="unie9" unicode="&#xe9;" d="M564 710L427 560L248 560L349 710L564 710M316 514Q432 514 494.50 437Q557 360 538 252Q533 220 519 187L193 187Q209 137 282 137Q339 137 374 169L481 61Q394-14 265-14Q130-14 65 65Q0 144 20 260Q38 370 121 442Q204 514 316 514M211 306L376 306Q372 366 309 366Q242 366 211 306Z"  horiz-adv-x="553" vert-adv-y="1000"  />

      
      <glyph glyph-name="uniea" unicode="&#xea;" d="M343 607L289 550L131 550L265 710L453 710L531 550L379 550L343 607M316 514Q432 514 494.50 437Q557 360 538 252Q533 220 519 187L193 187Q209 137 282 137Q339 137 374 169L481 61Q394-14 265-14Q130-14 65 65Q0 144 20 260Q38 370 121 442Q204 514 316 514M211 306L376 306Q372 366 309 366Q242 366 211 306Z"  horiz-adv-x="553" vert-adv-y="1000"  />

      
      <glyph glyph-name="unieb" unicode="&#xeb;" d="M298.50 565Q298.50 565 283.75 552.50Q269 540 234 540Q199 540 178.50 565Q158 590 164 625Q170 660 199.50 685Q229 710 264 710Q299 710 319.50 685Q340 660 334 625Q328 590 298.50 565M498.50 565Q498.50 565 483.75 552.50Q469 540 434 540Q399 540 378.50 565Q358 590 364 625Q370 660 399.50 685Q429 710 464 710Q499 710 519.50 685Q540 660 534 625Q528 590 498.50 565M316 514Q432 514 494.50 437Q557 360 538 252Q533 220 519 187L193 187Q209 137 282 137Q339 137 374 169L481 61Q394-14 265-14Q130-14 65 65Q0 144 20 260Q38 370 121 442Q204 514 316 514M211 306L376 306Q372 366 309 366Q242 366 211 306Z"  horiz-adv-x="553" vert-adv-y="1000"  />

      
      <glyph glyph-name="uniec" unicode="&#xec;" d="M273 550L255 700L49 700L99 550L273 550M181 0L-4 0L84 500L269 500L181 0Z"  horiz-adv-x="265" vert-adv-y="1000"  />

      
      <glyph glyph-name="unied" unicode="&#xed;" d="M93 550L267 550L369 700L159 700L93 550M-4 0L84 500L269 500L181 0L-4 0Z"  horiz-adv-x="265" vert-adv-y="1000"  />

      
      <glyph glyph-name="uniee" unicode="&#xee;" d="M195 593L152 540L3 540L117 700L305 700L363 540L222 540L195 593M-4 0L84 500L269 500L181 0L-4 0Z"  horiz-adv-x="265" vert-adv-y="1000"  />

      
      <glyph glyph-name="unief" unicode="&#xef;" d="M155.50 563.50Q155.50 563.50 141.75 551.75Q128 540 95 540Q62 540 42.50 563.50Q23 587 29 620Q35 653 62.50 676.50Q90 700 123 700Q156 700 175.50 676.50Q195 653 189 620Q183 587 155.50 563.50M332.50 563.50Q332.50 563.50 318.75 551.75Q305 540 272 540Q239 540 219.50 563.50Q200 587 206 620Q212 653 239.50 676.50Q267 700 300 700Q333 700 352.50 676.50Q372 653 366 620Q360 587 332.50 563.50M-4 0L84 500L269 500L181 0L-4 0Z"  horiz-adv-x="265" vert-adv-y="1000"  />

      
      <glyph glyph-name="unif0" unicode="&#xf0;" d="M518 360Q552 300 539 220Q523 113 442.50 48.50Q362-16 249-16Q130-16 62.50 54Q-5 124 16 240Q33 330 95.50 388Q158 446 247 459L226 497L91 457L115 597L165 612L118 700L324 700L344 665L492 709L467 569L409 552L518 360M354 226Q358 251 348 270Q329 299 289 299Q255 299 230 279.50Q205 260 198 226Q191 192 209 170.50Q227 149 262 149Q296 149 322.50 170Q349 191 354 226Z"  horiz-adv-x="562" vert-adv-y="1000"  />

      
      <glyph glyph-name="unif1" unicode="&#xf1;" d="M341 567Q337 569 327.50 574Q318 579 314.50 580.50Q311 582 303.50 583.50Q296 585 292.50 582Q289 579 285 572Q281 565 279 553L155 553Q162 613 184 652Q206 691 235.50 705Q265 719 296 719Q327 719 356 706Q360 704 369.50 699Q379 694 383 692.50Q387 691 394 689.50Q401 688 405 691Q409 694 413 701Q417 708 419 720L543 720Q537 671 521 635.50Q505 600 484.50 582.50Q464 565 438.50 558Q413 551 389 554Q365 557 341 567M403 514Q483 514 524.50 455.50Q566 397 547 289L496 0L311 0L358 269Q370 336 308 336Q244 336 228 264L181 0L-4 0L84 500L269 500L260 451Q318 514 403 514Z"  horiz-adv-x="575" vert-adv-y="1000"  />

      
      <glyph glyph-name="unif2" unicode="&#xf2;" d="M432 560L374 710L168 710L262 560L432 560M454.50 60Q454.50 60 414.25 23Q374-14 251-14Q128-14 64.50 70Q1 154 20 262Q38 366 119 440Q200 514 324 514Q444 514 508.50 429.50Q573 345 554 238Q535 134 454.50 60M211.50 186.50Q211.50 186.50 221.25 174.25Q231 162 268 162Q305 162 332.50 186.50Q360 211 367 250Q374 289 355 313.50Q336 338 299 338Q262 338 234 313.50Q206 289 199 250Q192 211 211.50 186.50Z"  horiz-adv-x="574" vert-adv-y="1000"  />

      
      <glyph glyph-name="unif3" unicode="&#xf3;" d="M252 560L431 560L568 710L353 710L252 560M454.50 60Q454.50 60 414.25 23Q374-14 251-14Q128-14 64.50 70Q1 154 20 262Q38 366 119 440Q200 514 324 514Q444 514 508.50 429.50Q573 345 554 238Q535 134 454.50 60M211.50 186.50Q211.50 186.50 221.25 174.25Q231 162 268 162Q305 162 332.50 186.50Q360 211 367 250Q374 289 355 313.50Q336 338 299 338Q262 338 234 313.50Q206 289 199 250Q192 211 211.50 186.50Z"  horiz-adv-x="574" vert-adv-y="1000"  />

      
      <glyph glyph-name="unif4" unicode="&#xf4;" d="M347 607L293 550L135 550L269 710L457 710L535 550L383 550L347 607M324 514Q444 514 508.50 429.50Q573 345 554 238Q535 134 454.50 60Q374-14 251-14Q128-14 64.50 70Q1 154 20 262Q38 366 119 440Q200 514 324 514M332.50 186.50Q332.50 186.50 346.25 198.75Q360 211 367 250Q374 289 355 313.50Q336 338 299 338Q262 338 234 313.50Q206 289 199 250Q192 211 211.50 186.50Q231 162 268 162Q305 162 332.50 186.50Z"  horiz-adv-x="574" vert-adv-y="1000"  />

      
      <glyph glyph-name="unif5" unicode="&#xf5;" d="M162 553Q169 613 191 652Q213 691 242.50 705Q272 719 303 719Q334 719 363 706Q367 704 376.50 699Q386 694 390 692.50Q394 691 401 689.50Q408 688 412 691Q416 694 420 701Q424 708 426 720L550 720Q544 671 528 635.50Q512 600 491.50 582.50Q471 565 445.50 558Q420 551 396 554Q372 557 348 567Q344 569 334.50 574Q325 579 321.50 580.50Q318 582 310.50 583.50Q303 585 299.50 582Q296 579 292 572Q288 565 286 553L162 553M454.50 60Q454.50 60 414.25 23Q374-14 251-14Q128-14 64.50 70Q1 154 20 262Q38 366 119 440Q200 514 324 514Q444 514 508.50 429.50Q573 345 554 238Q535 134 454.50 60M211.50 186.50Q211.50 186.50 221.25 174.25Q231 162 268 162Q305 162 332.50 186.50Q360 211 367 250Q374 289 355 313.50Q336 338 299 338Q262 338 234 313.50Q206 289 199 250Q192 211 211.50 186.50Z"  horiz-adv-x="574" vert-adv-y="1000"  />

      
      <glyph glyph-name="unif6" unicode="&#xf6;" d="M302.50 565Q302.50 565 287.75 552.50Q273 540 238 540Q203 540 182.50 565Q162 590 168 625Q174 660 203.50 685Q233 710 268 710Q303 710 323.50 685Q344 660 338 625Q332 590 302.50 565M502.50 565Q502.50 565 487.75 552.50Q473 540 438 540Q403 540 382.50 565Q362 590 368 625Q374 660 403.50 685Q433 710 468 710Q503 710 523.50 685Q544 660 538 625Q532 590 502.50 565M454.50 60Q454.50 60 414.25 23Q374-14 251-14Q128-14 64.50 70Q1 154 20 262Q38 366 119 440Q200 514 324 514Q444 514 508.50 429.50Q573 345 554 238Q535 134 454.50 60M211.50 186.50Q211.50 186.50 221.25 174.25Q231 162 268 162Q305 162 332.50 186.50Q360 211 367 250Q374 289 355 313.50Q336 338 299 338Q262 338 234 313.50Q206 289 199 250Q192 211 211.50 186.50Z"  horiz-adv-x="574" vert-adv-y="1000"  />

      
      <glyph glyph-name="unif7" unicode="&#xf7;" d="M385 489Q385 489 368.50 475.50Q352 462 309 462Q266 462 241.50 492Q217 522 225 565Q232 608 265 635Q298 662 341 662Q384 662 408.50 632Q433 602 425 559Q418 516 385 489M32 260L64 440L544 440L512 260L32 260M310.50 65Q310.50 65 294.25 51.50Q278 38 235 38Q192 38 167.50 68Q143 98 150 141Q157 184 190 211Q223 238 266 238Q309 238 333.50 208Q358 178 350 135Q343 92 310.50 65Z"  horiz-adv-x="540" vert-adv-y="1000"  />

      
      <glyph glyph-name="unif8" unicode="&#xf8;" d="M508 430Q573 346 554 238Q535 134 454.50 60Q374-14 251-14Q171-14 114 24L77-14L14 20L63 71Q1 152 20 262Q38 366 119 440Q200 514 324 514Q399 514 457 477L493 514L556 479L508 430M203 250Q200 230 203 215L321 336Q309 338 303 338Q266 338 238 313.50Q210 289 203 250M371 250Q374 271 371 288L251 165Q260 162 272 162Q309 162 336.50 186.50Q364 211 371 250Z"  horiz-adv-x="574" vert-adv-y="1000"  />

      
      <glyph glyph-name="unif9" unicode="&#xf9;" d="M427 550L257 550L163 700L369 700L427 550M394 500L579 500L491 0L306 0L315 49Q257-14 172-14Q92-14 50.50 44.50Q9 103 28 211L79 500L264 500L217 231Q205 164 267 164Q331 164 347 236L394 500Z"  horiz-adv-x="575" vert-adv-y="1000"  />

      
      <glyph glyph-name="unifa" unicode="&#xfa;" d="M563 700L426 550L247 550L348 700L563 700M394 500L579 500L491 0L306 0L315 49Q257-14 172-14Q92-14 50.50 44.50Q9 103 28 211L79 500L264 500L217 231Q205 164 267 164Q331 164 347 236L394 500Z"  horiz-adv-x="575" vert-adv-y="1000"  />

      
      <glyph glyph-name="unifb" unicode="&#xfb;" d="M342 597L288 540L130 540L264 700L452 700L530 540L378 540L342 597M394 500L579 500L491 0L306 0L315 49Q257-14 172-14Q92-14 50.50 44.50Q9 103 28 211L79 500L264 500L217 231Q205 164 267 164Q331 164 347 236L394 500Z"  horiz-adv-x="575" vert-adv-y="1000"  />

      
      <glyph glyph-name="unifc" unicode="&#xfc;" d="M297.50 555Q297.50 555 282.75 542.50Q268 530 233 530Q198 530 177.50 555Q157 580 163 615Q169 650 198.50 675Q228 700 263 700Q298 700 318.50 675Q339 650 333 615Q327 580 297.50 555M497.50 555Q497.50 555 482.75 542.50Q468 530 433 530Q398 530 377.50 555Q357 580 363 615Q369 650 398.50 675Q428 700 463 700Q498 700 518.50 675Q539 650 533 615Q527 580 497.50 555M394 500L579 500L491 0L306 0L315 49Q257-14 172-14Q92-14 50.50 44.50Q9 103 28 211L79 500L264 500L217 231Q205 164 267 164Q331 164 347 236L394 500Z"  horiz-adv-x="575" vert-adv-y="1000"  />

      
      <glyph glyph-name="unifd" unicode="&#xfd;" d="M555 700L418 550L239 550L340 700L555 700M396 500L614 500L363 15Q239-226 0-200L31-25Q83-25 110-15.50Q137-6 155 20L44 500L246 500L288 234L396 500Z"  horiz-adv-x="570" vert-adv-y="1000"  />

      
      <glyph glyph-name="unife" unicode="&#xfe;" d="M396 514Q494 514 550 433.50Q606 353 586 240Q566 126 495.50 56Q425-14 328-14Q232-14 191 56L146-200L-39-200L119 700L304 700L262 461Q315 514 396 514M403 250Q411 293 391 318.50Q371 344 331 344Q290 344 261 318.50Q232 293 225 250Q217 207 237 181.50Q257 156 297 156Q338 156 367 181.50Q396 207 403 250Z"  horiz-adv-x="606" vert-adv-y="1000"  />

      
      <glyph glyph-name="uniff" unicode="&#xff;" d="M289.50 555Q289.50 555 274.75 542.50Q260 530 225 530Q190 530 169.50 555Q149 580 155 615Q161 650 190.50 675Q220 700 255 700Q290 700 310.50 675Q331 650 325 615Q319 580 289.50 555M489.50 555Q489.50 555 474.75 542.50Q460 530 425 530Q390 530 369.50 555Q349 580 355 615Q361 650 390.50 675Q420 700 455 700Q490 700 510.50 675Q531 650 525 615Q519 580 489.50 555M396 500L614 500L363 15Q239-226 0-200L31-25Q83-25 110-15.50Q137-6 155 20L44 500L246 500L288 234L396 500Z"  horiz-adv-x="570" vert-adv-y="1000"  />

      
      <glyph glyph-name="uni0100" unicode="&#x0100;" d="M602 889L578 749L258 749L282 889L602 889M417 0L409 90L207 90L167 0L-54 0L292 700L526 700L626 0L417 0M278 250L394 250L374 465L278 250Z"  horiz-adv-x="660" vert-adv-y="1000"  />

      
      <glyph glyph-name="uni0101" unicode="&#x0101;" d="M533 689L509 549L189 549L213 689L533 689M425 500L610 500L522 0L337 0L345 44Q287-14 205-14Q105-14 54.50 64Q4 142 19 252Q34 361 104.50 437.50Q175 514 279 514Q375 514 415 444L425 500M276 156Q317 156 344.50 181Q372 206 380 247L381 250Q388 291 369 317.50Q350 344 309 344Q268 344 239 318Q210 292 203 250Q196 209 215 182.50Q234 156 276 156Z"  horiz-adv-x="606" vert-adv-y="1000"  />

      
      <glyph glyph-name="uni0102" unicode="&#x0102;" d="M425 732Q340 732 292.50 779Q245 826 260 902L410 902Q402 862 438 862Q472 862 480 902L630 902Q606 732 425 732M292 700L526 700L626 0L417 0L409 90L207 90L167 0L-54 0L292 700M278 250L394 250L374 465L278 250Z"  horiz-adv-x="660" vert-adv-y="1000"  />

      
      <glyph glyph-name="uni0103" unicode="&#x0103;" d="M356 532Q271 532 223.50 579Q176 626 191 702L341 702Q333 662 369 662Q403 662 411 702L561 702Q537 532 356 532M425 500L610 500L522 0L337 0L345 44Q287-14 205-14Q105-14 54.50 64Q4 142 19 252Q34 361 104.50 437.50Q175 514 279 514Q375 514 415 444L425 500M276 156Q317 156 344.50 181Q372 206 380 247L381 250Q388 291 369 317.50Q350 344 309 344Q268 344 239 318Q210 292 203 250Q196 209 215 182.50Q234 156 276 156Z"  horiz-adv-x="606" vert-adv-y="1000"  />

      
      <glyph glyph-name="uni0104" unicode="&#x0104;" d="M573-71Q570-90 591-90Q600-90 611-87L591-197Q546-214 500-214Q453-214 425.50-189Q398-164 406-119Q418-54 487 0L417 0L409 90L207 90L167 0L-54 0L292 700L526 700L626 0Q578-42 573-71M278 250L394 250L374 465L278 250Z"  horiz-adv-x="660" vert-adv-y="1000"  />

      
      <glyph glyph-name="uni0105" unicode="&#x0105;" d="M522 0Q474-42 469-71Q466-90 487-90Q497-90 507-87L487-197Q442-214 396-214Q352-214 327.50-193Q303-172 301-138Q299-104 320-67Q341-30 383 0L337 0L345 44Q287-14 205-14Q105-14 54.50 64Q4 142 19 252Q34 361 104.50 437.50Q175 514 279 514Q375 514 415 444L425 500L610 500L522 0M276 156Q317 156 344.50 181Q372 206 380 247L381 250Q388 291 369 317.50Q350 344 309 344Q268 344 239 318Q210 292 203 250Q196 209 215 182.50Q234 156 276 156Z"  horiz-adv-x="606" vert-adv-y="1000"  />

      
      <glyph glyph-name="uni0106" unicode="&#x0106;" d="M391 760L570 760L707 910L492 910L391 760M360-16Q197-16 107.50 91Q18 198 44 360Q69 516 185.50 616Q302 716 456 716Q662 716 751 544L568 447Q527 520 438 520Q366 520 311 472Q256 424 243 350Q231 279 267 229.50Q303 180 375 180Q458 180 518 258L684 153Q630 73 545.50 28.50Q461-16 360-16Z"  horiz-adv-x="721" vert-adv-y="1000"  />

      
      <glyph glyph-name="uni0107" unicode="&#x0107;" d="M239 560L418 560L555 710L340 710L239 560M255-14Q133-14 67 65.50Q1 145 20 260Q39 372 123 443Q207 514 318 514Q397 514 451.50 477.50Q506 441 535 382L367 294Q350 336 301 336Q264 336 237 312Q210 288 203 250Q196 213 215.50 188.50Q235 164 270 164Q321 164 350 208L495 116Q457 52 393.50 19Q330-14 255-14Z"  horiz-adv-x="529" vert-adv-y="1000"  />

      
      <glyph glyph-name="uni010A" unicode="&#x010A;" d="M550.50 778Q550.50 778 534.25 764Q518 750 479 750Q440 750 417 778Q394 806 401 845Q408 884 440.50 912Q473 940 512 940Q551 940 574.50 912Q598 884 591 845Q583 806 550.50 778M360-16Q197-16 107.50 91Q18 198 44 360Q69 516 185.50 616Q302 716 456 716Q662 716 751 544L568 447Q527 520 438 520Q366 520 311 472Q256 424 243 350Q231 279 267 229.50Q303 180 375 180Q458 180 518 258L684 153Q630 73 545.50 28.50Q461-16 360-16Z"  horiz-adv-x="721" vert-adv-y="1000"  />

      
      <glyph glyph-name="uni010B" unicode="&#x010B;" d="M398.50 578Q398.50 578 382.25 564Q366 550 327 550Q288 550 265 578Q242 606 249 645Q256 684 288.50 712Q321 740 360 740Q399 740 422.50 712Q446 684 439 645Q431 606 398.50 578M255-14Q133-14 67 65.50Q1 145 20 260Q39 372 123 443Q207 514 318 514Q397 514 451.50 477.50Q506 441 535 382L367 294Q350 336 301 336Q264 336 237 312Q210 288 203 250Q196 213 215.50 188.50Q235 164 270 164Q321 164 350 208L495 116Q457 52 393.50 19Q330-14 255-14Z"  horiz-adv-x="529" vert-adv-y="1000"  />

      
      <glyph glyph-name="uni010C" unicode="&#x010C;" d="M380 750L302 910L452 910L489 852L542 910L702 910L568 750L380 750M375 180Q458 180 518 258L684 153Q630 73 545.50 28.50Q461-16 360-16Q197-16 107.50 91Q18 198 44 360Q69 516 185.50 616Q302 716 456 716Q662 716 751 544L568 447Q527 520 438 520Q366 520 311 472Q256 424 243 350Q231 279 267 229.50Q303 180 375 180Z"  horiz-adv-x="721" vert-adv-y="1000"  />

      
      <glyph glyph-name="uni010D" unicode="&#x010D;" d="M228 550L150 710L300 710L337 652L390 710L550 710L416 550L228 550M301 336Q264 336 237 312Q210 288 203 250Q196 213 215.50 188.50Q235 164 270 164Q321 164 350 208L495 116Q457 52 393.50 19Q330-14 255-14Q133-14 67 65.50Q1 145 20 260Q39 372 123 443Q207 514 318 514Q397 514 451.50 477.50Q506 441 535 382L367 294Q350 336 301 336Z"  horiz-adv-x="529" vert-adv-y="1000"  />

      
      <glyph glyph-name="uni010E" unicode="&#x010E;" d="M307 740L229 900L379 900L416 842L469 900L629 900L495 740L307 740M419 700Q557 700 639.50 594Q722 488 696 340Q669 189 561 94.50Q453 0 296 0L6 0L129 700L419 700M498 350Q510 419 478 462.50Q446 506 385 506L305 506L250 194L330 194Q391 194 438 237.50Q485 281 498 350Z"  horiz-adv-x="705" vert-adv-y="1000"  />

      
      <glyph glyph-name="uni010F" unicode="&#x010F;" d="M460 700L645 700L522 0L337 0L345 44Q287-14 205-14Q105-14 54.50 64Q4 142 19 252Q34 361 104.50 437.50Q175 514 279 514Q375 514 415 444L460 700M695 700L865 700L785 470L645 470L695 700M276 156Q316 156 344 180Q372 204 380 244L382 254Q387 294 368.50 319Q350 344 309 344Q268 344 239 318Q210 292 203 250Q196 209 215 182.50Q234 156 276 156Z"  horiz-adv-x="766" vert-adv-y="1000"  />

      
      <glyph glyph-name="uni0110" unicode="&#x0110;" d="M436 700Q574 700 656.50 594Q739 488 713 340Q686 189 578 94.50Q470 0 313 0L23 0L68 258L1 258L32 432L99 432L146 700L436 700M515 350Q527 419 495 462.50Q463 506 402 506L322 506L309 432L432 432L401 258L278 258L267 194L347 194Q408 194 455 237.50Q502 281 515 350Z"  horiz-adv-x="722" vert-adv-y="1000"  />

      
      <glyph glyph-name="uni0111" unicode="&#x0111;" d="M692 650L671 531L615 531L522 0L337 0L344 38Q287-14 207-14Q105-14 52.50 62.50Q0 139 18 250Q35 353 106.50 423.50Q178 494 277 494Q371 494 412 426L430 531L301 531L322 650L451 650L460 700L645 700L636 650L692 650M237.50 304Q237.50 304 223.25 291.50Q209 279 201 240Q193 201 213.50 176Q234 151 274 151Q314 151 342.50 176Q371 201 379 240Q387 279 366.50 304Q346 329 306 329Q266 329 237.50 304Z"  horiz-adv-x="621" vert-adv-y="1000"  />

      
      <glyph glyph-name="uni0112" unicode="&#x0112;" d="M550 889L526 749L206 749L230 889L550 889M552 518L297 518L284 442L514 442L482 262L252 262L238 184L498 184L466 0L6 0L129 700L584 700L552 518Z"  horiz-adv-x="540" vert-adv-y="1000"  />

      
      <glyph glyph-name="uni0113" unicode="&#x0113;" d="M522 699L498 559L178 559L202 699L522 699M316 514Q432 514 494.50 437Q557 360 538 252Q533 220 519 187L193 187Q209 137 282 137Q339 137 374 169L481 61Q394-14 265-14Q130-14 65 65Q0 144 20 260Q38 370 121 442Q204 514 316 514M211 306L376 306Q372 366 309 366Q242 366 211 306Z"  horiz-adv-x="553" vert-adv-y="1000"  />

      
      <glyph glyph-name="uni0116" unicode="&#x0116;" d="M435.50 768Q435.50 768 419.25 754Q403 740 364 740Q325 740 302 768Q279 796 286 835Q293 874 325.50 902Q358 930 397 930Q436 930 459.50 902Q483 874 476 835Q468 796 435.50 768M552 518L297 518L284 442L514 442L482 262L252 262L238 184L498 184L466 0L6 0L129 700L584 700L552 518Z"  horiz-adv-x="540" vert-adv-y="1000"  />

      
      <glyph glyph-name="uni0117" unicode="&#x0117;" d="M407.50 578Q407.50 578 391.25 564Q375 550 336 550Q297 550 274 578Q251 606 258 645Q265 684 297.50 712Q330 740 369 740Q408 740 431.50 712Q455 684 448 645Q440 606 407.50 578M316 514Q432 514 494.50 437Q557 360 538 252Q533 220 519 187L193 187Q209 137 282 137Q339 137 374 169L481 61Q394-14 265-14Q130-14 65 65Q0 144 20 260Q38 370 121 442Q204 514 316 514M211 306L376 306Q372 366 309 366Q242 366 211 306Z"  horiz-adv-x="553" vert-adv-y="1000"  />

      
      <glyph glyph-name="uni0118" unicode="&#x0118;" d="M552 518L297 518L284 442L514 442L482 262L252 262L238 184L498 184L466 0Q418-42 413-71Q410-90 431-90Q441-90 451-87L431-197Q386-214 340-214Q292-214 265-191Q238-168 246-123Q257-62 327 0L6 0L129 700L584 700L552 518Z"  horiz-adv-x="540" vert-adv-y="1000"  />

      
      <glyph glyph-name="uni0119" unicode="&#x0119;" d="M316 514Q432 514 494.50 437Q557 360 538 252Q533 220 519 187L193 187Q209 137 282 137Q339 137 374 169L481 61Q459 43 448 36Q357-29 345-63Q341-74 345-82Q349-90 362-90Q370-90 381-87L361-197Q316-214 274-214Q220-214 193.50-186.50Q167-159 176-117Q186-62 250-14Q123-9 62 69.50Q1 148 20 260Q38 370 121 442Q204 514 316 514M211 306L376 306Q372 366 309 366Q242 366 211 306Z"  horiz-adv-x="553" vert-adv-y="1000"  />

      
      <glyph glyph-name="uni011A" unicode="&#x011A;" d="M265 740L187 900L337 900L374 842L427 900L587 900L453 740L265 740M584 700L552 518L297 518L284 442L514 442L482 262L252 262L238 184L498 184L466 0L6 0L129 700L584 700Z"  horiz-adv-x="540" vert-adv-y="1000"  />

      
      <glyph glyph-name="uni011B" unicode="&#x011B;" d="M237 550L159 710L309 710L346 652L399 710L559 710L425 550L237 550M316 514Q432 514 494.50 437Q557 360 538 252Q533 220 519 187L193 187Q209 137 282 137Q339 137 374 169L481 61Q394-14 265-14Q130-14 65 65Q0 144 20 260Q38 370 121 442Q204 514 316 514M211 306L376 306Q372 366 309 366Q242 366 211 306Z"  horiz-adv-x="553" vert-adv-y="1000"  />

      
      <glyph glyph-name="uni011E" unicode="&#x011E;" d="M488 742Q403 742 355.50 789Q308 836 323 912L473 912Q465 872 501 872Q535 872 543 912L693 912Q669 742 488 742M776 413L762 330Q736 175 629 79.50Q522-16 362-16Q198-16 107.50 91.50Q17 199 44 360Q70 517 186 616.50Q302 716 458 716Q560 716 634 672.50Q708 629 751 554L568 455Q527 520 438 520Q366 520 311 472.50Q256 425 243 350Q230 277 268 223.50Q306 170 378 170Q484 170 531 243L390 243L420 413L776 413Z"  horiz-adv-x="773" vert-adv-y="1000"  />

      
      <glyph glyph-name="uni011F" unicode="&#x011F;" d="M366 542Q281 542 233.50 589Q186 636 201 712L351 712Q343 672 379 672Q413 672 421 712L571 712Q547 542 366 542M432 500L617 500L532 15Q511-102 427-159Q343-216 229-216Q144-216 81.50-184Q19-152-6-94L155-7Q183-56 248-56Q285-56 312.50-38.50Q340-21 347 15L354 56Q301 6 221 6Q148 6 100 43.50Q52 81 35 138Q18 195 27 261Q41 363 112 438.50Q183 514 291 514Q380 514 422 443L432 500M286 170Q325 170 353 193.50Q381 217 389 255L391 263Q396 302 376 326Q356 350 317 350Q277 350 248 325Q219 300 212 260Q205 220 225.50 195Q246 170 286 170Z"  horiz-adv-x="613" vert-adv-y="1000"  />

      
      <glyph glyph-name="uni0120" unicode="&#x0120;" d="M550.50 778Q550.50 778 534.25 764Q518 750 479 750Q440 750 417 778Q394 806 401 845Q408 884 440.50 912Q473 940 512 940Q551 940 574.50 912Q598 884 591 845Q583 806 550.50 778M776 413L762 330Q736 175 629 79.50Q522-16 362-16Q198-16 107.50 91.50Q17 199 44 360Q70 517 186 616.50Q302 716 458 716Q560 716 634 672.50Q708 629 751 554L568 455Q527 520 438 520Q366 520 311 472.50Q256 425 243 350Q230 277 268 223.50Q306 170 378 170Q484 170 531 243L390 243L420 413L776 413Z"  horiz-adv-x="773" vert-adv-y="1000"  />

      
      <glyph glyph-name="uni0121" unicode="&#x0121;" d="M428.50 578Q428.50 578 412.25 564Q396 550 357 550Q318 550 295 578Q272 606 279 645Q286 684 318.50 712Q351 740 390 740Q429 740 452.50 712Q476 684 469 645Q461 606 428.50 578M432 500L617 500L532 15Q511-102 427-159Q343-216 229-216Q144-216 81.50-184Q19-152-6-94L155-7Q183-56 248-56Q285-56 312.50-38.50Q340-21 347 15L354 56Q301 6 221 6Q148 6 100 43.50Q52 81 35 138Q18 195 27 261Q41 363 112 438.50Q183 514 291 514Q380 514 422 443L432 500M286 170Q325 170 353 193.50Q381 217 389 255L391 263Q396 302 376 326Q356 350 317 350Q277 350 248 325Q219 300 212 260Q205 220 225.50 195Q246 170 286 170Z"  horiz-adv-x="613" vert-adv-y="1000"  />

      
      <glyph glyph-name="uni0122" unicode="&#x0122;" d="M776 413L762 330Q736 175 629 79.50Q522-16 362-16Q198-16 107.50 91.50Q17 199 44 360Q70 517 186 616.50Q302 716 458 716Q560 716 634 672.50Q708 629 751 554L568 455Q527 520 438 520Q366 520 311 472.50Q256 425 243 350Q230 277 268 223.50Q306 170 378 170Q484 170 531 243L390 243L420 413L776 413M216-284L266-54L436-54L356-284L216-284Z"  horiz-adv-x="773" vert-adv-y="1000"  />

      
      <glyph glyph-name="uni0123" unicode="&#x0123;" d="M479 800L428 570L258 570L339 800L479 800M432 500L617 500L532 15Q511-102 427-159Q343-216 229-216Q144-216 81.50-184Q19-152-6-94L155-7Q183-56 248-56Q285-56 312.50-38.50Q340-21 347 15L354 56Q301 6 221 6Q148 6 100 43.50Q52 81 35 138Q18 195 27 261Q41 363 112 438.50Q183 514 291 514Q380 514 422 443L432 500M286 170Q325 170 353 193.50Q381 217 389 255L391 263Q396 302 376 326Q356 350 317 350Q277 350 248 325Q219 300 212 260Q205 220 225.50 195Q246 170 286 170Z"  horiz-adv-x="613" vert-adv-y="1000"  />

      
      <glyph glyph-name="uni0126" unicode="&#x0126;" d="M762 603L736 457L676 457L596 0L396 0L428 183L258 183L226 0L26 0L106 457L47 457L72 603L132 603L149 700L349 700L332 603L502 603L519 700L719 700L702 603L762 603M462 377L476 457L306 457L292 377L462 377Z"  horiz-adv-x="710" vert-adv-y="1000"  />

      
      <glyph glyph-name="uni0127" unicode="&#x0127;" d="M413 489Q493 489 534.50 430.50Q576 372 557 264L511 0L326 0L368 244Q380 311 318 311Q258 311 239 246L196 0L11 0L104 531L50 531L71 650L125 650L134 700L319 700L310 650L441 650L420 531L289 531L271 427Q328 489 413 489Z"  horiz-adv-x="590" vert-adv-y="1000"  />

      
      <glyph glyph-name="uni012A" unicode="&#x012A;" d="M78 749L102 889L422 889L398 749L78 749M129 700L329 700L206 0L6 0L129 700Z"  horiz-adv-x="300" vert-adv-y="1000"  />

      
      <glyph glyph-name="uni012B" unicode="&#x012B;" d="M46 549L70 689L350 689L326 549L46 549M-4 0L84 500L269 500L181 0L-4 0Z"  horiz-adv-x="265" vert-adv-y="1000"  />

      
      <glyph glyph-name="uni012E" unicode="&#x012E;" d="M206 0Q158-42 153-71Q150-90 171-90Q180-90 191-87L171-197Q126-214 80-214Q33-214 5.50-186.50Q-22-159-14-113Q-3-55 67 0L6 0L129 700L329 700L206 0Z"  horiz-adv-x="300" vert-adv-y="1000"  />

      
      <glyph glyph-name="uni012F" unicode="&#x012F;" d="M218 742Q261 742 286 711.50Q311 681 304 640Q297 598 263 568Q229 538 186 538Q143 538 117.50 568.50Q92 599 99 640Q105 680 139 711Q173 742 218 742M-4 0L84 500L269 500L181 0Q141-42 136-69Q133-90 154-90Q164-90 174-87L154-197Q109-214 63-214Q15-214-11.50-186Q-38-158-31-113Q-23-63 32 0L-4 0Z"  horiz-adv-x="265" vert-adv-y="1000"  />

      
      <glyph glyph-name="uni0130" unicode="&#x0130;" d="M307.50 768Q307.50 768 291.25 754Q275 740 236 740Q197 740 174 768Q151 796 158 835Q165 874 197.50 902Q230 930 269 930Q308 930 331.50 902Q355 874 348 835Q340 796 307.50 768M129 700L329 700L206 0L6 0L129 700Z"  horiz-adv-x="300" vert-adv-y="1000"  />

      
      <glyph glyph-name="uni0131" unicode="&#x0131;" d="M-4 0L84 500L269 500L181 0L-4 0Z"  horiz-adv-x="265" vert-adv-y="1000"  />

      
      <glyph glyph-name="uni0136" unicode="&#x0136;" d="M718 700L441 349L602 0L393 0L259 301L206 0L6 0L129 700L329 700L282 430L486 700L718 700M132-284L182-54L352-54L272-284L132-284Z"  horiz-adv-x="636" vert-adv-y="1000"  />

      
      <glyph glyph-name="uni0137" unicode="&#x0137;" d="M583 500L386 248L506 0L309 0L218 208L181 0L-4 0L119 700L304 700L237 317L371 500L583 500M100-284L150-54L320-54L240-284L100-284Z"  horiz-adv-x="550" vert-adv-y="1000"  />

      
      <glyph glyph-name="uni0139" unicode="&#x0139;" d="M466 900L329 750L150 750L251 900L466 900M240 194L470 194L436 0L6 0L129 700L329 700L240 194Z"  horiz-adv-x="490" vert-adv-y="1000"  />

      
      <glyph glyph-name="uni013A" unicode="&#x013A;" d="M134 760L313 760L450 910L235 910L134 760M-3 0L54 324L125 730L310 730L238 321L182 0L-3 0Z"  horiz-adv-x="266" vert-adv-y="1000"  />

      
      <glyph glyph-name="uni013B" unicode="&#x013B;" d="M240 194L470 194L436 0L6 0L129 700L329 700L240 194M80-284L130-54L300-54L220-284L80-284Z"  horiz-adv-x="490" vert-adv-y="1000"  />

      
      <glyph glyph-name="uni013C" unicode="&#x013C;" d="M-3 0L54 324L125 730L310 730L238 321L182 0L-3 0M81-284L161-54L-9-54L-59-284L81-284Z"  horiz-adv-x="266" vert-adv-y="1000"  />

      
      <glyph glyph-name="uni013D" unicode="&#x013D;" d="M329 700L240 194L470 194L436 0L6 0L129 700L329 700M380 700L559 700L483 490L333 490L380 700Z"  horiz-adv-x="490" vert-adv-y="1000"  />

      
      <glyph glyph-name="uni013E" unicode="&#x013E;" d="M-3 0L54 324L125 730L310 730L238 321L182 0L-3 0M445 500L526 730L356 730L305 500L445 500Z"  horiz-adv-x="421" vert-adv-y="1000"  />

      
      <glyph glyph-name="uni0141" unicode="&#x0141;" d="M270 194L500 194L466 0L36 0L71 196L5 163L39 356L104 389L159 700L359 700L324 502L456 569L422 376L290 309L270 194Z"  horiz-adv-x="520" vert-adv-y="1000"  />

      
      <glyph glyph-name="uni0142" unicode="&#x0142;" d="M337 515L306 342L248 311L194 0L9 0L45 202L-14 171L17 344L75 375L137 730L322 730L279 484L337 515Z"  horiz-adv-x="290" vert-adv-y="1000"  />

      
      <glyph glyph-name="uni0143" unicode="&#x0143;" d="M338 750L517 750L654 900L439 900L338 750M6 0L129 700L289 700L450 364L509 700L709 700L586 0L426 0L265 336L206 0L6 0Z"  horiz-adv-x="680" vert-adv-y="1000"  />

      
      <glyph glyph-name="uni0144" unicode="&#x0144;" d="M561 710L424 560L245 560L346 710L561 710M403 514Q483 514 524.50 455.50Q566 397 547 289L496 0L311 0L358 269Q370 336 308 336Q244 336 228 264L181 0L-4 0L84 500L269 500L260 451Q318 514 403 514Z"  horiz-adv-x="575" vert-adv-y="1000"  />

      
      <glyph glyph-name="uni0145" unicode="&#x0145;" d="M6 0L129 700L289 700L450 364L509 700L709 700L586 0L426 0L265 336L206 0L6 0M305-284L385-54L215-54L165-284L305-284Z"  horiz-adv-x="680" vert-adv-y="1000"  />

      
      <glyph glyph-name="uni0146" unicode="&#x0146;" d="M403 514Q483 514 524.50 455.50Q566 397 547 289L496 0L311 0L358 269Q370 336 308 336Q244 336 228 264L181 0L-4 0L84 500L269 500L260 451Q318 514 403 514M113-284L163-54L333-54L253-284L113-284Z"  horiz-adv-x="575" vert-adv-y="1000"  />

      
      <glyph glyph-name="uni0147" unicode="&#x0147;" d="M327 740L249 900L399 900L436 842L489 900L649 900L515 740L327 740M509 700L709 700L586 0L426 0L265 336L206 0L6 0L129 700L289 700L450 364L509 700Z"  horiz-adv-x="680" vert-adv-y="1000"  />

      
      <glyph glyph-name="uni0148" unicode="&#x0148;" d="M234 550L156 710L306 710L343 652L396 710L556 710L422 550L234 550M403 514Q483 514 524.50 455.50Q566 397 547 289L496 0L311 0L358 269Q370 336 308 336Q244 336 228 264L181 0L-4 0L84 500L269 500L260 451Q318 514 403 514Z"  horiz-adv-x="575" vert-adv-y="1000"  />

      
      <glyph glyph-name="uni014A" unicode="&#x014A;" d="M509 700L709 700L586 0Q565-118 495-170.50Q425-223 298-216L327-50Q391-56 401 0L408 38L265 336L206 0L6 0L129 700L289 700L450 364L509 700Z"  horiz-adv-x="680" vert-adv-y="1000"  />

      
      <glyph glyph-name="uni014B" unicode="&#x014B;" d="M403 514Q483 514 524.50 455.50Q566 397 547 289L496 0Q475-120 412-166Q349-212 230-203L258-46Q303-48 311 0L358 269Q370 336 308 336Q244 336 228 264L181 0L-4 0L84 500L269 500L260 451Q318 514 403 514Z"  horiz-adv-x="575" vert-adv-y="1000"  />

      
      <glyph glyph-name="uni014C" unicode="&#x014C;" d="M326 759L350 899L670 899L646 759L326 759M369-16Q255-16 174 40.50Q93 97 61.50 182.50Q30 268 45 362Q69 507 182.50 611.50Q296 716 462 716Q548 716 616 683.50Q684 651 723 598Q762 545 778 478.50Q794 412 783 342Q760 196 648.50 90Q537-16 369-16M270 228.50Q270 228.50 290 204.25Q310 180 384 180Q458 180 515 228.50Q572 277 585 350Q598 423 558 471.50Q518 520 444 520Q370 520 313 471.50Q256 423 243 350Q230 277 270 228.50Z"  horiz-adv-x="792" vert-adv-y="1000"  />

      
      <glyph glyph-name="uni014D" unicode="&#x014D;" d="M182 559L206 699L526 699L502 559L182 559M454.50 60Q454.50 60 414.25 23Q374-14 251-14Q128-14 64.50 70Q1 154 20 262Q38 366 119 440Q200 514 324 514Q444 514 508.50 429.50Q573 345 554 238Q535 134 454.50 60M211.50 186.50Q211.50 186.50 221.25 174.25Q231 162 268 162Q305 162 332.50 186.50Q360 211 367 250Q374 289 355 313.50Q336 338 299 338Q262 338 234 313.50Q206 289 199 250Q192 211 211.50 186.50Z"  horiz-adv-x="574" vert-adv-y="1000"  />

      
      <glyph glyph-name="uni0150" unicode="&#x0150;" d="M274 750L442 750L556 910L382 910L274 750M477 750L645 750L769 910L595 910L477 750M369-16Q255-16 174 40.50Q93 97 61.50 182.50Q30 268 45 362Q69 507 182.50 611.50Q296 716 462 716Q548 716 616 683.50Q684 651 723 598Q762 545 778 478.50Q794 412 783 342Q760 196 648.50 90Q537-16 369-16M270 228.50Q270 228.50 290 204.25Q310 180 384 180Q458 180 515 228.50Q572 277 585 350Q598 423 558 471.50Q518 520 444 520Q370 520 313 471.50Q256 423 243 350Q230 277 270 228.50Z"  horiz-adv-x="792" vert-adv-y="1000"  />

      
      <glyph glyph-name="uni0151" unicode="&#x0151;" d="M130 550L298 550L412 710L238 710L130 550M333 550L501 550L625 710L451 710L333 550M454.50 60Q454.50 60 414.25 23Q374-14 251-14Q128-14 64.50 70Q1 154 20 262Q38 366 119 440Q200 514 324 514Q444 514 508.50 429.50Q573 345 554 238Q535 134 454.50 60M211.50 186.50Q211.50 186.50 221.25 174.25Q231 162 268 162Q305 162 332.50 186.50Q360 211 367 250Q374 289 355 313.50Q336 338 299 338Q262 338 234 313.50Q206 289 199 250Q192 211 211.50 186.50Z"  horiz-adv-x="574" vert-adv-y="1000"  />

      
      <glyph glyph-name="uni0152" unicode="&#x0152;" d="M967 516L752 516L739 442L929 442L897 262L707 262L693 184L913 184L881 0L461 0Q407-16 349-16Q186-16 104 92.50Q22 201 43 351Q53 418 86 482.50Q119 547 172 599.50Q225 652 302 684Q379 716 468 716Q536 716 584 700L549 503Q507 520 444 520Q370 520 313 471.50Q256 423 243 350Q230 277 270 228.50Q310 180 384 180Q446 180 496 196L584 700L999 700L967 516Z"  horiz-adv-x="955" vert-adv-y="1000"  />

      
      <glyph glyph-name="uni0153" unicode="&#x0153;" d="M676 514Q785 514 845.50 437Q906 360 888 252Q883 220 869 187L543 187Q559 137 632 137Q689 137 724 169L831 61Q744-14 625-14Q499-14 439 62Q363-14 241-14Q158-14 103 26.50Q48 67 28.50 128Q9 189 20 259Q37 363 116 438.50Q195 514 314 514Q429 514 487 437Q566 514 676 514M561 306L726 306Q722 366 659 366Q592 366 561 306M336.50 186.50Q336.50 186.50 350.25 198.75Q364 211 371 250Q378 289 359 313.50Q340 338 303 338Q266 338 238 313.50Q210 289 203 250Q196 211 215.50 186.50Q235 162 272 162Q309 162 336.50 186.50Z"  horiz-adv-x="903" vert-adv-y="1000"  />

      
      <glyph glyph-name="uni0154" unicode="&#x0154;" d="M594 900L457 750L278 750L379 900L594 900M631 445Q609 317 491 257L581 1L381 1L309 221L245 221L206 1L6 1L130 701L410 701Q519 701 585 628.50Q651 556 631 445M297 517L274 387L356 387Q385 386 405.50 403Q426 420 431 451Q436 482 421.50 499.50Q407 517 377 517L297 517Z"  horiz-adv-x="625" vert-adv-y="1000"  />

      
      <glyph glyph-name="uni0155" unicode="&#x0155;" d="M471 700L334 550L155 550L256 700L471 700M252 403Q274 454 318.50 482Q363 510 421 510L386 310Q327 318 277 288Q227 258 214 186L215 194L181 0L-4 0L84 500L269 500L252 403Z"  horiz-adv-x="390" vert-adv-y="1000"  />

      
      <glyph glyph-name="uni0156" unicode="&#x0156;" d="M631 445Q609 317 491 257L581 1L381 1L309 221L245 221L206 1L6 1L130 701L410 701Q519 701 585 628.50Q651 556 631 445M297 517L274 387L356 387Q385 386 405.50 403Q426 420 431 451Q436 482 421.50 499.50Q407 517 377 517L297 517M160-284L210-54L380-54L300-284L160-284Z"  horiz-adv-x="625" vert-adv-y="1000"  />

      
      <glyph glyph-name="uni0157" unicode="&#x0157;" d="M252 403Q274 454 318.50 482Q363 510 421 510L386 310Q327 318 277 288Q227 258 214 186L215 194L181 0L-4 0L84 500L269 500L252 403M-62-284L-12-54L158-54L78-284L-62-284Z"  horiz-adv-x="390" vert-adv-y="1000"  />

      
      <glyph glyph-name="uni0158" unicode="&#x0158;" d="M267 740L189 900L339 900L376 842L429 900L589 900L455 740L267 740M631 445Q609 317 491 257L581 1L381 1L309 221L245 221L206 1L6 1L130 701L410 701Q519 701 585 628.50Q651 556 631 445M297 517L274 387L356 387Q385 386 405.50 403Q426 420 431 451Q436 482 421.50 499.50Q407 517 377 517L297 517Z"  horiz-adv-x="625" vert-adv-y="1000"  />

      
      <glyph glyph-name="uni0159" unicode="&#x0159;" d="M144 540L66 700L216 700L253 642L306 700L466 700L332 540L144 540M252 403Q274 454 318.50 482Q363 510 421 510L386 310Q327 318 277 288Q227 258 214 186L215 194L181 0L-4 0L84 500L269 500L252 403Z"  horiz-adv-x="390" vert-adv-y="1000"  />

      
      <glyph glyph-name="uni015A" unicode="&#x015A;" d="M275 760L454 760L591 910L376 910L275 760M267-16Q153-16 83.50 30.50Q14 77-11 160L162 249Q194 169 284 169Q355 169 362 206Q364 218 358 227Q352 236 337 243Q322 250 309 255Q296 260 272.50 267Q249 274 236 278Q50 343 79 508Q96 602 171 659Q246 716 354 716Q444 716 508 674Q572 632 605 553L436 463Q410 531 341 531Q289 531 281 495Q277 473 299 459Q321 445 389 422Q432 408 460.50 393.50Q489 379 518.50 353Q548 327 558.50 286Q569 245 560 190Q542 88 465.50 36Q389-16 267-16Z"  horiz-adv-x="591" vert-adv-y="1000"  />

      
      <glyph glyph-name="uni015B" unicode="&#x015B;" d="M200 560L379 560L516 710L301 710L200 560M215-14Q127-14 70 14Q13 42-15 109L142 184Q164 127 220 127Q256 127 260 148Q263 162 239 172Q215 182 180 192.50Q145 203 111.50 219.50Q78 236 58.50 272.50Q39 309 48 362Q57 414 93.50 450Q130 486 174.50 500Q219 514 269 514Q341 514 395 485Q449 456 474 398L326 329Q308 375 267 378Q237 380 232 356Q229 341 245.50 331Q262 321 289 315.50Q316 310 347 298Q378 286 403 269.50Q428 253 440.50 218Q453 183 444 134Q430 56 365.50 21Q301-14 215-14Z"  horiz-adv-x="479" vert-adv-y="1000"  />

      
      <glyph glyph-name="uni015E" unicode="&#x015E;" d="M389 422Q432 408 460.50 393.50Q489 379 518.50 353Q548 327 558.50 286Q569 245 560 190Q545 104 488 53.50Q431 3 339-11L333-46Q381-75 370-133Q360-189 298-212Q236-235 109-226L129-112Q222-119 227-98Q230-80 177-78L189-9Q31 18-11 160L162 249Q194 169 284 169Q355 169 362 206Q364 218 358 227Q352 236 337 243Q322 250 309 255Q296 260 272.50 267Q249 274 236 278Q50 343 79 508Q96 602 171 659Q246 716 354 716Q444 716 508 674Q572 632 605 553L436 463Q410 531 341 531Q289 531 281 495Q277 473 299 459Q321 445 389 422Z"  horiz-adv-x="591" vert-adv-y="1000"  />

      
      <glyph glyph-name="uni015F" unicode="&#x015F;" d="M232 356Q229 341 245.50 331Q262 321 289 315.50Q316 310 347 298Q378 286 403 269.50Q428 253 440.50 218Q453 183 444 134Q422 16 282-8L275-46Q323-75 312-133Q302-189 240-212Q178-235 51-226L71-112Q164-119 169-98Q172-80 119-78L132-7Q24 15-15 109L142 184Q164 127 220 127Q256 127 260 148Q263 162 239 172Q215 182 180 192.50Q145 203 111.50 219.50Q78 236 58.50 272.50Q39 309 48 362Q57 414 93.50 450Q130 486 174.50 500Q219 514 269 514Q341 514 395 485Q449 456 474 398L326 329Q308 375 267 378Q237 380 232 356Z"  horiz-adv-x="479" vert-adv-y="1000"  />

      
      <glyph glyph-name="uni0160" unicode="&#x0160;" d="M264 750L186 910L336 910L373 852L426 910L586 910L452 750L264 750M389 422Q432 408 460.50 393.50Q489 379 518.50 353Q548 327 558.50 286Q569 245 560 190Q542 88 465.50 36Q389-16 267-16Q153-16 83.50 30.50Q14 77-11 160L162 249Q194 169 284 169Q355 169 362 206Q364 218 358 227Q352 236 337 243Q322 250 309 255Q296 260 272.50 267Q249 274 236 278Q50 343 79 508Q96 602 171 659Q246 716 354 716Q444 716 508 674Q572 632 605 553L436 463Q410 531 341 531Q289 531 281 495Q277 473 299 459Q321 445 389 422Z"  horiz-adv-x="591" vert-adv-y="1000"  />

      
      <glyph glyph-name="uni0161" unicode="&#x0161;" d="M189 550L111 710L261 710L298 652L351 710L511 710L377 550L189 550M267 378Q237 380 232 356Q229 341 245.50 331Q262 321 289 315.50Q316 310 347 298Q378 286 403 269.50Q428 253 440.50 218Q453 183 444 134Q430 56 365.50 21Q301-14 215-14Q127-14 70 14Q13 42-15 109L142 184Q164 127 220 127Q256 127 260 148Q263 162 239 172Q215 182 180 192.50Q145 203 111.50 219.50Q78 236 58.50 272.50Q39 309 48 362Q57 414 93.50 450Q130 486 174.50 500Q219 514 269 514Q341 514 395 485Q449 456 474 398L326 329Q308 375 267 378Z"  horiz-adv-x="479" vert-adv-y="1000"  />

      
      <glyph glyph-name="uni0162" unicode="&#x0162;" d="M619 700L585 506L420 506L331 0L131 0L220 506L55 506L89 700L619 700M88-284L138-54L308-54L228-284L88-284Z"  horiz-adv-x="550" vert-adv-y="1000"  />

      
      <glyph glyph-name="uni0163" unicode="&#x0163;" d="M278 324L259 216Q253 179 273 171Q293 163 355 166L326 0Q176-23 113 28Q50 79 72 206L93 324L23 324L54 500L124 500L139 585L333 640L309 500L414 500L383 324L278 324M46-274L96-44L266-44L186-274L46-274Z"  horiz-adv-x="400" vert-adv-y="1000"  />

      
      <glyph glyph-name="uni0164" unicode="&#x0164;" d="M262 740L184 900L334 900L371 842L424 900L584 900L450 740L262 740M619 700L585 506L420 506L331 0L131 0L220 506L55 506L89 700L619 700Z"  horiz-adv-x="550" vert-adv-y="1000"  />

      
      <glyph glyph-name="uni0165" unicode="&#x0165;" d="M390 722L550 722L476 532L346 532L390 722M333 640L309 500L414 500L383 324L278 324L259 216Q253 179 273 171Q293 163 355 166L326 0Q176-23 113 28Q50 79 72 206L93 324L23 324L54 500L124 500L139 585L333 640Z"  horiz-adv-x="447" vert-adv-y="1000"  />

      
      <glyph glyph-name="uni0166" unicode="&#x0166;" d="M585 506L420 506L403 412L503 412L472 238L373 238L331 0L131 0L173 238L72 238L103 412L203 412L220 506L55 506L89 700L619 700L585 506Z"  horiz-adv-x="550" vert-adv-y="1000"  />

      
      <glyph glyph-name="uni0167" unicode="&#x0167;" d="M388 354L283 354L277 320L347 320L326 200L257 200Q258 174 279 168.50Q300 163 355 166L326 0Q178-23 114.50 26.50Q51 76 71 200L26 200L47 320L92 320L98 354L28 354L54 500L124 500L139 585L333 640L309 500L414 500L388 354Z"  horiz-adv-x="400" vert-adv-y="1000"  />

      
      <glyph glyph-name="uni016A" unicode="&#x016A;" d="M253 749L277 889L597 889L573 749L253 749M290-16Q160-16 89 55Q18 126 37 234L119 700L319 700L241 256Q228 178 312 178Q398 178 411 256L489 700L689 700L607 234Q586 116 499.50 50Q413-16 290-16Z"  horiz-adv-x="650" vert-adv-y="1000"  />

      
      <glyph glyph-name="uni016B" unicode="&#x016B;" d="M521 689L497 549L177 549L201 689L521 689M394 500L579 500L491 0L306 0L315 49Q257-14 172-14Q92-14 50.50 44.50Q9 103 28 211L79 500L264 500L217 231Q205 164 267 164Q331 164 347 236L394 500Z"  horiz-adv-x="575" vert-adv-y="1000"  />

      
      <glyph glyph-name="uni016E" unicode="&#x016E;" d="M407 710Q342 710 307 751Q272 792 283 853Q294 914 341 952Q388 990 455 990Q520 990 555.50 949Q591 908 580 847Q569 786 522.50 748Q476 710 407 710M426 820Q458 820 463 850Q468 880 436 880Q405 880 400 850Q398 837 404.50 828.50Q411 820 426 820M290-16Q160-16 89 55Q18 126 37 234L119 700L319 700L241 256Q228 178 312 178Q398 178 411 256L489 700L689 700L607 234Q586 116 499.50 50Q413-16 290-16Z"  horiz-adv-x="650" vert-adv-y="1000"  />

      
      <glyph glyph-name="uni016F" unicode="&#x016F;" d="M334 530Q269 530 234 571Q199 612 210 673Q221 734 268 772Q315 810 382 810Q447 810 482.50 769Q518 728 507 667Q496 606 449.50 568Q403 530 334 530M327 670Q325 657 331.50 648.50Q338 640 353 640Q385 640 390 670Q395 700 363 700Q332 700 327 670M394 500L579 500L491 0L306 0L315 49Q257-14 172-14Q92-14 50.50 44.50Q9 103 28 211L79 500L264 500L217 231Q205 164 267 164Q331 164 347 236L394 500Z"  horiz-adv-x="575" vert-adv-y="1000"  />

      
      <glyph glyph-name="uni0170" unicode="&#x0170;" d="M201 740L369 740L483 900L309 900L201 740M404 740L572 740L696 900L522 900L404 740M290-16Q160-16 89 55Q18 126 37 234L119 700L319 700L241 256Q228 178 312 178Q398 178 411 256L489 700L689 700L607 234Q586 116 499.50 50Q413-16 290-16Z"  horiz-adv-x="650" vert-adv-y="1000"  />

      
      <glyph glyph-name="uni0171" unicode="&#x0171;" d="M407 700L293 540L125 540L233 700L407 700M496 540L328 540L446 700L620 700L496 540M347 236L394 500L579 500L491 0L306 0L315 49Q257-14 172-14Q92-14 50.50 44.50Q9 103 28 211L79 500L264 500L217 231Q205 164 267 164Q331 164 347 236Z"  horiz-adv-x="575" vert-adv-y="1000"  />

      
      <glyph glyph-name="uni0172" unicode="&#x0172;" d="M489 700L689 700L607 234Q585 107 485 40Q389-32 377-69Q371-90 395-90Q404-90 415-87L395-197Q350-214 309-214Q258-214 230-187.50Q202-161 210-113Q219-59 271-16Q150-10 84.50 60Q19 130 37 234L119 700L319 700L241 256Q228 178 312 178Q398 178 411 256L489 700Z"  horiz-adv-x="650" vert-adv-y="1000"  />

      
      <glyph glyph-name="uni0173" unicode="&#x0173;" d="M491 0Q443-42 438-71Q435-90 457-90Q466-90 476-87L456-197Q411-214 370-214Q319-214 291-188Q263-162 271-117Q282-53 348 0L306 0L315 49Q257-14 172-14Q92-14 50.50 44.50Q9 103 28 211L79 500L264 500L217 231Q205 164 267 164Q331 164 347 236L394 500L579 500L491 0Z"  horiz-adv-x="575" vert-adv-y="1000"  />

      
      <glyph glyph-name="uni0174" unicode="&#x0174;" d="M597 797L543 740L385 740L519 900L707 900L785 740L633 740L597 797M868 700L1089 700L768 0L571 0L527 374L351 0L154 0L79 700L284 700L315 315L496 700L654 700L700 315L868 700Z"  horiz-adv-x="1010" vert-adv-y="1000"  />

      
      <glyph glyph-name="uni0175" unicode="&#x0175;" d="M463 597L409 540L251 540L385 700L573 700L651 540L499 540L463 597M644 500L844 500L611 0L423 0L402 234L304 0L111 0L54 500L239 500L254 223L369 500L514 500L539 235L644 500Z"  horiz-adv-x="801" vert-adv-y="1000"  />

      
      <glyph glyph-name="uni0176" unicode="&#x0176;" d="M420 797L366 740L208 740L342 900L530 900L608 740L456 740L420 797M733 700L436 303L383 0L183 0L236 302L79 700L289 700L357 488L499 700L733 700Z"  horiz-adv-x="654" vert-adv-y="1000"  />

      
      <glyph glyph-name="uni0177" unicode="&#x0177;" d="M334 597L280 540L122 540L256 700L444 700L522 540L370 540L334 597M396 500L614 500L363 15Q239-226 0-200L31-25Q83-25 110-15.50Q137-6 155 20L44 500L246 500L288 234L396 500Z"  horiz-adv-x="570" vert-adv-y="1000"  />

      
      <glyph glyph-name="uni0178" unicode="&#x0178;" d="M375.50 755Q375.50 755 360.75 742.50Q346 730 311 730Q276 730 255.50 755Q235 780 241 815Q247 850 276.50 875Q306 900 341 900Q376 900 396.50 875Q417 850 411 815Q405 780 375.50 755M575.50 755Q575.50 755 560.75 742.50Q546 730 511 730Q476 730 455.50 755Q435 780 441 815Q447 850 476.50 875Q506 900 541 900Q576 900 596.50 875Q617 850 611 815Q605 780 575.50 755M733 700L436 303L383 0L183 0L236 302L79 700L289 700L357 488L499 700L733 700Z"  horiz-adv-x="654" vert-adv-y="1000"  />

      
      <glyph glyph-name="uni0179" unicode="&#x0179;" d="M595 900L458 750L279 750L380 900L595 900M80 506L114 700L594 700L567 546L286 194L515 194L481 0L-14 0L13 154L295 506L80 506Z"  horiz-adv-x="545" vert-adv-y="1000"  />

      
      <glyph glyph-name="uni017A" unicode="&#x017A;" d="M509 700L372 550L193 550L294 700L509 700M44 330L74 500L474 500L451 370L258 170L426 170L396 0L-24 0L-1 130L192 330L44 330Z"  horiz-adv-x="455" vert-adv-y="1000"  />

      
      <glyph glyph-name="uni017B" unicode="&#x017B;" d="M438.50 768Q438.50 768 422.25 754Q406 740 367 740Q328 740 305 768Q282 796 289 835Q296 874 328.50 902Q361 930 400 930Q439 930 462.50 902Q486 874 479 835Q471 796 438.50 768M594 700L567 546L286 194L515 194L481 0L-14 0L13 154L295 506L80 506L114 700L594 700Z"  horiz-adv-x="545" vert-adv-y="1000"  />

      
      <glyph glyph-name="uni017C" unicode="&#x017C;" d="M352.50 568Q352.50 568 336.25 554Q320 540 281 540Q242 540 219 568Q196 596 203 635Q210 674 242.50 702Q275 730 314 730Q353 730 376.50 702Q400 674 393 635Q385 596 352.50 568M474 500L451 370L258 170L426 170L396 0L-24 0L-1 130L192 330L44 330L74 500L474 500Z"  horiz-adv-x="455" vert-adv-y="1000"  />

      
      <glyph glyph-name="uni017D" unicode="&#x017D;" d="M268 740L190 900L340 900L377 842L430 900L590 900L456 740L268 740M594 700L567 546L286 194L515 194L481 0L-14 0L13 154L295 506L80 506L114 700L594 700Z"  horiz-adv-x="545" vert-adv-y="1000"  />

      
      <glyph glyph-name="uni017E" unicode="&#x017E;" d="M182 540L104 700L254 700L291 642L344 700L504 700L370 540L182 540M44 330L74 500L474 500L451 370L258 170L426 170L396 0L-24 0L-1 130L192 330L44 330Z"  horiz-adv-x="455" vert-adv-y="1000"  />

      
      </font>
</defs>
</svg>
